<?xml version="1.0" encoding="UTF-8"?><svg id="Layer_2" xmlns="http://www.w3.org/2000/svg" xmlns:xlink="http://www.w3.org/1999/xlink" viewBox="0 0 1500 1500"><defs><style>.cls-1{fill:url(#New_Gradient_Swatch_2);stroke-width:0px;}</style><linearGradient id="New_Gradient_Swatch_2" x1="133.48" y1="1105.95" x2="1366.52" y2="394.05" gradientUnits="userSpaceOnUse"><stop offset="0" stop-color="#56450d"/><stop offset=".21" stop-color="#e5c787"/><stop offset=".39" stop-color="#f7d976"/><stop offset=".99" stop-color="#725728"/></linearGradient></defs><path class="cls-1" d="M94.2,1027.04c35.85,84.75,87.17,160.87,152.53,226.23s141.48,116.68,226.23,152.53c86.34,36.52,177.96,55.31,272.4,55.91l4.64,8.05,4.64-8.05c94.44-.6,186.06-19.39,272.4-55.91,84.75-35.85,160.87-87.17,226.23-152.53s116.68-141.48,152.53-226.23c37.12-87.75,55.94-180.96,55.94-277.04s-18.82-189.29-55.94-277.04c-35.85-84.75-87.17-160.87-152.53-226.23s-141.48-116.68-226.23-152.53c-86.34-36.52-177.96-55.31-272.4-55.91l-4.64-8.05-4.64,8.05c-94.44.6-186.06,19.39-272.4,55.91-84.75,35.85-160.87,87.17-226.23,152.53s-116.68,141.48-152.53,226.23c-37.12,87.75-55.94,180.96-55.94,277.04s18.82,189.29,55.94,277.04ZM758,758h113.94l-113.94,195.95v-195.95ZM758,742v-195.93l113.84,195.93h-113.84ZM742,742h-113.82l113.82-195.45v195.45ZM742,758v195.95l-113.94-195.95h113.94ZM774.05,958.18l101.6-174.73c-4.51,35.11-16.11,69.01-34.22,99.5-17.37,29.26-40.35,54.82-67.39,75.23ZM774.21,542.12c26.99,20.41,49.93,45.95,67.27,75.18,18.07,30.46,29.66,64.32,34.17,99.4l-101.44-174.58ZM726.28,541.76l-101.93,175.03c4.5-35.1,16.09-69,34.18-99.48,17.45-29.4,40.56-55.08,67.75-75.55ZM725.95,958.18c-27.03-20.42-50.01-45.97-67.39-75.23-18.1-30.49-29.7-64.39-34.22-99.5l101.6,174.73ZM925.6,891.69c-5.01,6.18-10.36,12.15-16.06,17.85-34.38,34.38-77.92,56.29-125.1,63.48l141.17-81.33ZM827.51,929.73c10.28-12.03,19.56-24.94,27.68-38.62,23.91-40.27,37.14-86.14,38.48-133.12h81.79c-1.27,36.74-11.28,71.96-29.06,103.23l-118.9,68.5ZM991.47,758h134.12l-154.07,88.76c12.12-27.74,18.94-57.74,19.95-88.76ZM991.47,742c-1-31.02-7.82-61.02-19.95-88.76l154.07,88.76h-134.12ZM975.46,742h-81.8c-1.37-46.88-14.58-92.66-38.43-132.86-8.21-13.84-17.6-26.9-28.03-39.05l119.2,68.67c17.78,31.28,27.79,66.49,29.06,103.23ZM784.43,526.98c47.19,7.18,90.72,29.09,125.1,63.48,5.7,5.7,11.05,11.67,16.06,17.85l-141.17-81.33ZM574.4,608.31c5.01-6.18,10.36-12.15,16.06-17.85,34.38-34.38,77.92-56.29,125.1-63.48l-141.17,81.33ZM672.79,570.1c-10.42,12.15-19.82,25.21-28.03,39.05-23.85,40.2-37.06,85.97-38.43,132.86h-81.8c1.27-36.74,11.28-71.96,29.06-103.23l119.19-68.67ZM508.53,742h-134.12l154.07-88.76c-12.12,27.74-18.94,57.74-19.95,88.76ZM508.53,758c1,31.02,7.82,61.02,19.95,88.76l-154.07-88.76h134.12ZM524.54,758h81.79c1.34,46.98,14.57,92.84,38.48,133.12,8.12,13.68,17.4,26.59,27.68,38.62l-118.9-68.5c-17.78-31.28-27.79-66.49-29.06-103.23ZM715.57,973.02c-47.19-7.18-90.72-29.09-125.1-63.48-5.7-5.7-11.05-11.67-16.06-17.85l141.17,81.33ZM920.85,920.85c14.55-14.55,27.01-30.64,37.24-47.88l175.63-101.18-9.67,16.78c-37.01,51.01-84.24,94.23-138.65,126.54-40.31,23.93-83.97,41.45-129.38,52.14,23.72-11.6,45.62-27.17,64.83-46.39ZM1133.72,728.22l-175.63-101.18c-10.23-17.25-22.69-33.33-37.24-47.88-19.22-19.22-41.11-34.79-64.83-46.39,45.41,10.68,89.08,28.2,129.38,52.14,54.41,32.31,101.64,75.53,138.65,126.54l9.67,16.78ZM579.15,579.15c-14.55,14.55-27.01,30.64-37.24,47.88l-175.63,101.18,10.25-17.79c36.93-50.61,83.94-93.51,138.05-125.61,40.36-23.94,84.08-41.46,129.55-52.12-23.77,11.61-45.72,27.2-64.97,46.45ZM366.28,771.78l175.63,101.18c10.23,17.25,22.69,33.33,37.24,47.88,19.26,19.26,41.2,34.85,64.97,46.45-45.47-10.66-89.19-28.18-129.55-52.12-54.1-32.1-101.11-75-138.05-125.61l-10.25-17.79ZM758,1163.42c52.99-1,104.41-11.88,152.96-32.42,7.26-3.07,14.39-6.36,21.43-9.82l-174.38,302.63v-260.4ZM904.73,1116.27c-46.56,19.69-95.89,30.16-146.73,31.15v-151.94c83.11-1.4,164.4-24.36,235.57-66.62,32.22-19.13,62-41.97,88.76-67.89l-134.93,234.16c-13.74,7.86-27.97,14.92-42.67,21.14ZM1137.51,797.25c2.88-3.99,5.71-8.03,8.47-12.11-3.59,41.26-13.54,81.35-29.71,119.58-20.02,47.33-48.68,89.85-85.19,126.35-16.95,16.95-35.2,32.18-54.62,45.66l161.05-279.49ZM1137.51,702.75l-161.05-279.49c19.42,13.49,37.67,28.72,54.62,45.66,36.51,36.51,65.17,79.02,85.19,126.35,16.17,38.23,26.12,78.32,29.71,119.58-2.76-4.08-5.59-8.12-8.47-12.11ZM1082.33,639.03c-26.76-25.92-56.54-48.76-88.76-67.89-71.17-42.26-152.46-65.22-235.57-66.62v-151.94c50.84.99,100.16,11.45,146.73,31.15,14.7,6.22,28.94,13.27,42.67,21.14l134.93,234.16ZM910.96,368.99c-48.54-20.53-99.96-31.42-152.96-32.42V76.17l174.38,302.63c-7.04-3.46-14.17-6.75-21.43-9.82ZM742,336.58c-52.99,1-104.41,11.88-152.96,32.42-7.26,3.07-14.39,6.36-21.43,9.82l174.38-302.63v260.4ZM595.27,383.73c46.56-19.69,95.89-30.16,146.73-31.15v151.94c-83.11,1.37-164.4,24.31-235.59,66.54-32.13,19.06-61.83,41.81-88.54,67.63l134.73-233.82c13.74-7.86,27.97-14.92,42.67-21.14ZM363.11,701.67c-3.09,4.25-6.11,8.56-9.07,12.92,3.61-41.17,13.55-81.17,29.69-119.31,20.02-47.33,48.68-89.85,85.19-126.35,16.95-16.95,35.2-32.18,54.62-45.66l-160.43,278.42ZM363.11,798.33l160.43,278.42c-19.42-13.49-37.67-28.72-54.62-45.66-36.51-36.51-65.17-79.02-85.19-126.35-16.13-38.15-26.08-78.15-29.69-119.31,2.95,4.36,5.98,8.66,9.07,12.92ZM417.87,861.31c26.71,25.82,56.42,48.57,88.54,67.63,71.18,42.23,152.47,65.17,235.59,66.54v151.94c-50.84-.99-100.16-11.45-146.73-31.15-14.7-6.22-28.94-13.27-42.67-21.14l-134.73-233.82ZM589.04,1131.01c48.54,20.53,99.96,31.42,152.96,32.42v260.4l-174.38-302.63c7.04,3.46,14.17,6.75,21.43,9.82ZM959.15,1106.79c30.24-17.74,58.12-39.27,83.24-64.4,37.97-37.97,67.79-82.19,88.61-131.44,2.21-5.22,4.3-10.48,6.29-15.77-4.31,23.51-9.66,46.81-16.06,69.81-18.8,67.52-46.52,132.4-82.4,192.83-65.48,110.28-156.84,203.54-265.43,271.32l185.75-322.35ZM1131.01,589.04c-20.83-49.24-50.64-93.46-88.61-131.44-25.13-25.13-53-46.66-83.24-64.4l-185.75-322.35c108.67,67.83,200.08,161.17,265.57,271.55,35.84,60.4,63.53,125.24,82.3,192.73,6.39,22.96,11.73,46.21,16.03,69.68-1.99-5.29-4.08-10.55-6.29-15.77ZM540.85,393.21c-30.24,17.74-58.12,39.27-83.24,64.4-37.97,37.97-67.79,82.19-88.61,131.44-2.21,5.22-4.3,10.48-6.29,15.77,4.3-23.47,9.64-46.72,16.03-69.68,18.77-67.49,46.46-132.33,82.3-192.73,65.49-110.38,156.9-203.72,265.57-271.55l-185.75,322.35ZM368.99,910.96c20.83,49.24,50.64,93.46,88.61,131.44,25.13,25.13,53,46.66,83.24,64.4l185.75,322.35c-108.59-67.78-199.95-161.04-265.43-271.32-35.88-60.43-63.6-125.3-82.4-192.83-6.4-23-11.76-46.3-16.06-69.81,1.99,5.29,4.08,10.55,6.29,15.77ZM1241.96,258.04c63.9,63.9,114.06,138.3,149.1,221.15,36.28,85.77,54.67,176.88,54.67,270.81s-18.39,185.04-54.67,270.81c-35.04,82.85-85.21,157.25-149.1,221.15-63.9,63.9-138.3,114.06-221.15,149.1-77.25,32.67-158.83,50.83-242.91,54.12,112.5-69.32,207.1-165.36,274.69-279.19,36.6-61.64,64.88-127.82,84.05-196.71,19.52-70.12,29.53-142.89,29.79-216.35l5.09-2.93-5.09-2.93c-.26-73.41-10.26-146.14-29.76-216.22-19.15-68.84-47.4-134.99-83.95-196.61-67.59-113.92-162.24-210.05-274.82-279.42,84.07,3.29,165.65,21.45,242.9,54.12,82.85,35.04,157.25,85.21,221.15,149.1ZM108.94,479.19c35.04-82.85,85.21-157.25,149.1-221.15,63.9-63.9,138.3-114.06,221.15-149.1,77.25-32.67,158.83-50.83,242.9-54.12-112.58,69.37-207.23,165.5-274.82,279.42-36.56,61.61-64.8,127.76-83.95,196.61-19.49,70.08-29.5,142.81-29.76,216.22l-5.09,2.93,5.09,2.93c.26,73.46,10.28,146.23,29.79,216.35,19.17,68.88,47.45,135.07,84.05,196.71,67.58,113.82,162.19,209.86,274.69,279.19-84.07-3.29-165.66-21.45-242.91-54.12-82.85-35.04-157.25-85.21-221.15-149.1-63.9-63.9-114.06-138.3-149.1-221.15-36.28-85.77-54.67-176.88-54.67-270.81s18.39-185.04,54.67-270.81Z"/></svg>