<?xml version="1.0" encoding="UTF-8"?><svg id="Layer_2" xmlns="http://www.w3.org/2000/svg" xmlns:xlink="http://www.w3.org/1999/xlink" viewBox="0 0 1500 1500"><defs><style>.cls-1{fill:url(#New_Gradient_Swatch_2);stroke-width:0px;}</style><linearGradient id="New_Gradient_Swatch_2" x1="140.26" y1="1102.03" x2="1359.74" y2="397.97" gradientUnits="userSpaceOnUse"><stop offset="0" stop-color="#56450d"/><stop offset=".21" stop-color="#e5c787"/><stop offset=".39" stop-color="#f7d976"/><stop offset=".99" stop-color="#725728"/></linearGradient></defs><path class="cls-1" d="M252.27,1247.73c64.64,64.64,139.92,115.39,223.74,150.85,86.79,36.71,178.97,55.32,273.99,55.32s187.21-18.61,273.99-55.32c83.82-35.45,159.1-86.21,223.74-150.85,64.64-64.64,115.39-139.92,150.85-223.74,36.71-86.79,55.32-178.97,55.32-273.99s-18.61-187.21-55.32-273.99c-35.45-83.82-86.21-159.1-150.85-223.74-64.64-64.64-139.92-115.39-223.74-150.85-86.79-36.71-178.97-55.32-273.99-55.32s-187.21,18.61-273.99,55.32c-83.82,35.45-159.1,86.21-223.74,150.85-64.64,64.64-115.39,139.92-150.85,223.74-36.71,86.79-55.32,178.97-55.32,273.99s18.61,187.21,55.32,273.99c35.45,83.82,86.21,159.1,150.85,223.74ZM748.99,741.34l-269.73-155.73h539.45l-269.73,155.73ZM1026.76,599.45l-130.69,226.81-131.08-75.68,261.77-151.13ZM732.99,750.58l-130.65,75.43-131.03-226.51,261.68,151.08ZM748.99,759.82l139.09,80.3-138.52,240.39-139.21-240.65,138.64-80.04ZM700.56,1027.75l-138.63-159.93,34.57-19.96,104.06,179.89ZM901.94,848.12l34.65,20.01-138.27,159.82,103.62-179.83ZM909.93,834.26l103.51-179.62-69.1,199.49-34.4-19.86ZM533.31,569.62l215.68-41.51,215.68,41.51h-431.36ZM588.49,834.01l-34.82,20.11-69.35-200.19,104.17,180.08ZM570.16,901.76l142.34,164.21-106.72-61.38-35.62-102.83ZM584.64,992.42l-119.49-68.72,79.74-46.04,39.75,114.76ZM719.62,1088.51h-84.76l-21.09-60.87,105.85,60.87ZM857.59,1104.51l-108.59,313.49-108.6-313.49h217.19ZM779.43,1088.51l104.63-60.41-20.93,60.41h-83.7ZM786.68,1065.85l140.59-162.5-35.22,101.66-105.38,60.84ZM953.1,877.66l79.76,46.05-119.64,69.08,39.88-115.13ZM961.36,863.95l79.38-91.75.12,137.65-79.5-45.9ZM969.64,829.92l70.97-204.89.1,122.73-71.08,82.15ZM1056.6,607.52l42.21,73.11-42.11,48.67-.1-121.78ZM1059.5,580.54l251.55-145.23-201.16,232.51-50.39-87.27ZM1051.5,566.69l-50.3-87.12,301.79-58.08-251.49,145.2ZM1026.69,555.72l-105.14-60.82,63.02-12.13,42.12,72.95ZM1003.53,560.8l-212.2-40.84,106.26-20.45,105.95,61.29ZM748.99,511.82l-126.96-24.43,127.54-73.49,126.88,73.4-127.45,24.53ZM706.66,519.96l-211.96,40.79,106.14-61.16,105.83,20.37ZM471.24,555.8l42.17-73.03,63.4,12.2-105.57,60.83ZM446.48,566.69l-251.49-145.2,301.79,58.08-50.3,87.12ZM438.48,580.55l-50.21,86.96-201.22-232.12,251.43,145.16ZM441.44,607.43l.1,121.52-42.17-48.65,42.07-72.87ZM457.45,625.27l70.41,203.27-70.31-81.11-.1-122.16ZM537.14,863.66l-79.45,45.87-.12-137.65,79.56,91.78ZM471.51,945.82l121.11,69.65,25.3,73.04h-64.03l-82.38-142.69ZM535.42,1088.51H179.69l266.8-154.04,88.93,154.04ZM623.47,1104.51l90.5,261.26-150.84-261.26h60.34ZM874.52,1104.51h60.34l-150.84,261.26,90.5-261.26ZM880.06,1088.51l25.16-72.63,121.21-69.98-82.33,142.6h-64.03ZM1051.5,934.47l266.8,154.04h-355.73l88.93-154.04ZM1059.5,920.62l88.93-154.04,177.87,308.07-266.8-154.04ZM1056.84,893.23l-.12-139.5,50.56-58.43,31.92,55.29-82.36,142.65ZM1118.36,682.49l180.81-208.99-150.74,261.08-30.08-52.1ZM992.74,464.91l-30.17-52.25h301.69l-271.52,52.25ZM976.11,468.11l-75.69,14.57-121.04-70.02h164.72l32.02,55.45ZM563.13,396.65l185.86-321.93,185.86,321.93h-371.73ZM719.67,412.65l-121.66,70.11-76.13-14.65,32.02-55.45h165.78ZM505.25,464.91l-271.52-52.25h301.69l-30.17,52.25ZM379.81,682.17l-30.26,52.41-150.95-261.45,181.21,209.04ZM390.9,694.96l50.66,58.44.12,140.75-82.89-143.57,32.11-55.62ZM438.48,920.62l-266.8,154.04,177.86-308.07,88.93,154.03ZM544.65,1104.51l182.48,316.07-547.45-316.07h364.97ZM953.33,1104.51h364.97l-547.45,316.07,182.48-316.07ZM1157.67,750.58l182.48-316.07v632.14l-182.48-316.07ZM953.33,396.65l-182.48-316.07,547.45,316.07h-364.97ZM544.65,396.65H179.69L727.14,80.58l-182.48,316.07ZM340.31,750.58l-182.48,316.07V434.51l182.48,316.07ZM263.58,1236.42c-36.81-36.81-69-77.15-96.32-120.6l557.06,321.62c-83.8-3.05-165.12-21.03-242.08-53.59-81.91-34.65-155.48-84.25-218.66-147.43ZM1236.42,1236.42c-63.18,63.18-136.75,112.78-218.66,147.43-77.61,32.83-159.66,50.83-244.21,53.65l560.33-323.51c-27.56,44.16-60.15,85.11-97.47,122.43ZM1437.9,750c0,92.87-18.19,182.96-54.06,267.76-8.36,19.77-17.6,39.04-27.68,57.81V424.43c10.08,18.77,19.32,38.04,27.68,57.81,35.87,84.8,54.06,174.89,54.06,267.76ZM1236.42,263.58c37.83,37.83,70.79,79.4,98.59,124.24L771.43,62.44c85.3,2.59,168.07,20.61,246.33,53.72,81.91,34.65,155.48,84.25,218.66,147.43ZM263.58,263.58c63.18-63.18,136.75-112.78,218.66-147.43,77.61-32.83,159.66-50.83,244.21-53.65L166.11,386.01c27.56-44.15,60.14-85.11,97.47-122.43ZM116.16,482.24c7.8-18.45,16.37-36.46,25.67-54.04v643.6c-9.3-17.58-17.87-35.59-25.67-54.04-35.87-84.8-54.06-174.89-54.06-267.76s18.19-182.96,54.06-267.76Z"/></svg>
