<?xml version="1.0" encoding="UTF-8"?><svg id="Layer_2" xmlns="http://www.w3.org/2000/svg" xmlns:xlink="http://www.w3.org/1999/xlink" viewBox="0 0 1500 1500"><defs><style>.cls-1{fill:url(#New_Gradient_Swatch_2);stroke-width:0px;}</style><linearGradient id="New_Gradient_Swatch_2" x1="164.64" y1="1087.96" x2="1335.84" y2="411.77" gradientUnits="userSpaceOnUse"><stop offset="0" stop-color="#56450d"/><stop offset=".21" stop-color="#e5c787"/><stop offset=".39" stop-color="#f7d976"/><stop offset=".99" stop-color="#725728"/></linearGradient></defs><path class="cls-1" d="M127.35,1013.04c34.04,80.47,82.76,152.74,144.82,214.8,62.06,62.06,134.33,110.78,214.8,144.82,83.32,35.24,171.81,53.11,263.04,53.11s179.72-17.87,263.04-53.11c80.47-34.04,152.74-82.76,214.8-144.82,35.93-35.93,67.38-75.28,94.1-117.67,10.51-15.27,19.71-31.29,27.54-47.93,8.35-16.03,16.09-32.43,23.18-49.2,35.24-83.32,53.11-171.81,53.11-263.04s-17.87-179.72-53.11-263.04c-7.09-16.76-14.83-33.17-23.18-49.2-7.82-16.64-17.03-32.66-27.53-47.93-26.73-42.38-58.18-81.74-94.1-117.67-62.06-62.06-134.33-110.78-214.8-144.82-83.32-35.24-171.81-53.11-263.04-53.11s-179.72,17.87-263.04,53.11c-80.47,34.04-152.74,82.76-214.8,144.82-62.06,62.06-110.78,134.33-144.82,214.8-35.24,83.32-53.11,171.81-53.11,263.04s17.87,179.72,53.11,263.04ZM1365.69,583.06c0,48.76-10.64,95.88-30.82,138.72v-277.41c.05.09.09.18.14.27,20.08,42.76,30.68,89.77,30.68,138.41ZM1335.02,1055.35c-.05.09-.09.18-.14.27v-277.41c20.18,42.84,30.82,89.96,30.82,138.72s-10.59,95.65-30.68,138.41ZM163.59,449.14v267.83c-18.74-41.55-28.62-86.97-28.62-133.91s9.88-92.37,28.62-133.92ZM424.12,416.12c0-55,13.55-107.92,39.04-154.96l2.27-3.93c85.33,1.17,165.38,34.92,225.85,95.39,17.09,17.09,32.04,35.75,44.73,55.65-107.21,2.14-211.55,28.71-304.47,77.43-4.89-22.61-7.42-45.9-7.42-69.59ZM1075.88,416.12c0,23.66-2.53,46.94-7.41,69.53-92.74-48.61-196.85-75.15-303.83-77.36,12.7-19.9,27.65-38.57,44.74-55.66,60.34-60.34,140.17-94.08,225.29-95.39,26.89,48.01,41.2,102.34,41.2,158.88ZM1075.88,1083.88c0,56.54-14.31,110.87-41.2,158.88-85.12-1.31-164.96-35.05-225.29-95.39-17.09-17.1-32.05-35.76-44.74-55.66,106.98-2.21,211.09-28.76,303.83-77.36,4.89,22.59,7.41,45.87,7.41,69.53ZM465.43,1242.76l-2.24-3.87c-25.51-47.05-39.07-99.99-39.07-155.01,0-23.68,2.53-46.98,7.42-69.59,92.92,48.72,197.27,75.29,304.47,77.43-12.69,19.9-27.64,38.56-44.73,55.65-60.47,60.47-140.52,94.22-225.85,95.39ZM758,782.78c18.81,41.62,28.73,87.12,28.73,134.16s-9.92,92.55-28.73,134.16v-268.32ZM742,1049.66c-18.39-41.22-28.07-86.22-28.07-132.72s9.68-91.49,28.07-132.72v265.43ZM991.75,842.13c-39.28-39.28-86.45-67.8-137.92-84.14h221.96c-1.21,50.58-13.91,99.23-36.82,142.96-13.38-21.04-29.16-40.76-47.22-58.82ZM1024.84,908.59c-81.42-3.66-157.45-37.09-215.45-95.1-16.95-16.95-31.78-35.44-44.41-55.14,81.42,3.66,157.45,37.09,215.45,95.1,16.95,16.95,31.78,35.44,44.41,55.14ZM853.85,742c51.46-16.34,98.62-44.85,137.89-84.13,18.06-18.06,33.84-37.78,47.22-58.82,22.91,43.73,35.61,92.37,36.82,142.95h-221.93ZM980.43,646.55c-58.01,58.01-134.03,91.44-215.46,95.1,12.62-19.71,27.46-38.2,44.41-55.14,58.01-58.01,134.03-91.44,215.45-95.1-12.62,19.71-27.46,38.2-44.41,55.14ZM742,715.78c-18.39-41.22-28.07-86.22-28.07-132.72s9.68-91.49,28.07-132.72v265.43ZM758,448.9c18.81,41.62,28.73,87.12,28.73,134.16s-9.92,92.55-28.73,134.16v-268.32ZM508.25,657.87c39.27,39.28,86.43,67.79,137.89,84.13h-221.93c1.21-50.58,13.91-99.22,36.82-142.95,13.38,21.04,29.16,40.76,47.22,58.82ZM475.15,591.38c81.68,3.5,157.97,36.96,216.13,95.12,16.95,16.95,31.8,35.45,44.42,55.17-81.68-3.5-157.97-36.96-216.13-95.12-16.95-16.95-31.79-35.45-44.42-55.17ZM646.18,758c-51.47,16.33-98.64,44.86-137.92,84.14-18.06,18.06-33.84,37.78-47.22,58.82-22.91-43.73-35.61-92.37-36.82-142.96h221.96ZM735.7,758.32c-12.63,19.72-27.47,38.21-44.42,55.17-58.17,58.17-134.46,91.62-216.13,95.12,12.63-19.72,27.47-38.21,44.42-55.17,58.17-58.17,134.46-91.62,216.13-95.12ZM702.59,824.81c3.92-3.92,7.73-7.92,11.43-11.99-10.58,33.23-16.09,68.25-16.09,104.13,0,52.25,11.66,102.7,33.72,148.41l-244.12-141.44c81.26-6.23,156.82-40.86,215.06-99.1ZM802.73,916.94c0-35.88-5.51-70.9-16.09-104.13,3.7,4.07,7.51,8.07,11.43,11.99,57.7,57.7,132.39,92.21,212.79,98.91l-239.92,137.59c20.81-44.63,31.79-93.65,31.79-144.36ZM1091.88,750c0-51.56-11.34-101.37-32.83-146.6l254.6,146.68-254.25,145.81c21.27-45.04,32.49-94.6,32.49-145.88ZM798.07,675.19c-3.92,3.92-7.73,7.92-11.43,11.99,10.58-33.23,16.09-68.25,16.09-104.13,0-51.37-11.25-101.01-32.59-146.11l241.7,139.25c-80.77,6.5-155.84,41.06-213.77,98.99ZM697.93,583.06c0,35.88,5.51,70.9,16.09,104.13-3.7-4.07-7.51-8.07-11.43-11.99-57.95-57.95-133.04-92.51-213.83-99l242.01-139.73c-21.49,45.23-32.83,95.04-32.83,146.6ZM408.12,750c0,51.73,11.42,101.7,33.05,147.05l-253.61-146.94,253.12-146.15c-21.32,45.08-32.57,94.7-32.57,146.04ZM196.57,773.82l230.16,133.35c-74.15-7.67-142.88-40.24-196.31-93.68-12.43-12.43-23.72-25.71-33.84-39.67ZM714.61,1073.97c-73.66-7.9-141.92-40.41-195.05-93.54-12.13-12.13-23.17-25.06-33.1-38.65l228.15,132.19ZM1014.97,939.8c-10.3,14.32-21.82,27.91-34.54,40.63-54.4,54.4-124.66,87.18-200.35,94.07l234.88-134.7ZM1303.84,774.14l-.05.08c-10.05,13.82-21.24,26.95-33.55,39.27-54.04,54.04-123.72,86.75-198.83,93.94l232.42-133.29ZM1303.85,725.97l-231.38-133.3c74.71,7.39,143.99,40.05,197.78,93.84,12.2,12.2,23.29,25.2,33.26,38.87l.34.59ZM782.71,425.74c74.69,7.4,143.94,40.06,197.72,93.83,12.38,12.38,23.63,25.6,33.72,39.5l-231.44-133.34ZM485.44,559.64c10.2-14.11,21.58-27.52,34.13-40.07,53.79-53.79,123.08-86.46,197.8-93.84l-231.93,133.91ZM196.27,726.61c10.2-14.12,21.59-27.54,34.15-40.1,53.8-53.8,123.1-86.47,197.83-93.84l-231.98,133.94ZM447.3,924.65c-11.03,20.92-19.83,42.91-26.27,65.69-3.51-1.99-7.01-4-10.48-6.05-58.09-34.3-109.56-76.93-152.68-126.06,54.86,40.65,120.34,63.74,189.43,66.41ZM461.04,932.93c13.38,21.04,29.16,40.76,47.22,58.82,29.12,29.12,62.57,52.31,98.89,69.03-60.06-12.88-117.88-33.89-171.7-62.54,6.13-22.67,14.71-44.54,25.59-65.31ZM892.75,1060.82c36.36-16.72,69.85-39.93,98.99-69.08,18.06-18.06,33.84-37.78,47.22-58.82,10.89,20.79,19.47,42.68,25.61,65.37-53.86,28.65-111.72,49.66-171.81,62.53ZM1052.72,924.68c68.71-2.53,133.86-25.26,188.58-65.35-42.91,48.67-94.05,90.91-151.7,124.96-3.51,2.08-7.05,4.11-10.6,6.12-6.44-22.79-15.24-44.8-26.28-65.72ZM1052.72,575.32c11.04-20.93,19.84-42.93,26.28-65.72,3.57,2.02,7.12,4.06,10.65,6.14,57.63,34.04,108.75,76.28,151.66,124.93-54.73-40.09-119.87-62.82-188.58-65.35ZM1038.96,567.07c-13.38-21.04-29.16-40.76-47.22-58.82-29.14-29.14-62.63-52.35-98.99-69.08,60.1,12.87,117.95,33.87,171.82,62.53-6.13,22.69-14.72,44.58-25.61,65.37ZM607.15,439.22c-36.32,16.72-69.78,39.91-98.89,69.03-18.06,18.06-33.84,37.78-47.22,58.82-10.88-20.77-19.46-42.64-25.59-65.31,53.83-28.65,111.64-49.66,171.7-62.54ZM447.3,575.35c-69.1,2.68-134.57,25.76-189.44,66.42,43.1-49.11,94.55-91.72,152.61-126.01,3.5-2.07,7.02-4.09,10.56-6.09,6.44,22.78,15.24,44.77,26.27,65.69ZM402.41,998.07c4.8,2.83,9.64,5.58,14.51,8.29-5.8,25.13-8.79,51.09-8.79,77.51,0,24.93,2.67,49.45,7.84,73.25l-160.21-277.33c42.13,45.77,91.49,85.7,146.66,118.28ZM702.59,1158.69c18.29-18.29,34.25-38.29,47.74-59.64,13.49,21.35,29.45,41.35,47.74,59.64,39.28,39.28,86.44,67.8,137.91,84.13h-371.29c51.47-16.34,98.63-44.86,137.91-84.13ZM1083.1,1006.42c4.91-2.73,9.79-5.51,14.63-8.36,53.9-31.83,102.26-70.66,143.74-115.11l-157.58,274.89c5.27-24.02,7.99-48.78,7.99-73.96s-2.99-52.35-8.78-77.46ZM1097.77,501.97c-4.85-2.87-9.75-5.65-14.68-8.39,5.79-25.11,8.78-51.05,8.78-77.46s-2.72-49.92-7.98-73.93l157.45,274.72c-41.44-44.38-89.74-83.16-143.57-114.95ZM798.07,341.32c-18.29,18.29-34.25,38.29-47.74,59.64-13.49-21.35-29.45-41.35-47.74-59.64-39.28-39.28-86.44-67.8-137.91-84.13h371.29c-51.47,16.33-98.63,44.86-137.91,84.13ZM416.91,493.63c-4.89,2.72-9.76,5.49-14.59,8.34-55.05,32.52-104.3,72.35-146.36,118l159.98-277.04c-5.16,23.78-7.83,48.28-7.83,73.19,0,26.43,3,52.39,8.79,77.51ZM179.58,779.94l259.42,449.07-259.42-149.75v-299.32ZM1011.55,1258.82l-261.53,149.71-259.36-149.71h520.89ZM1315.98,785.13c.63-1.03,1.28-2.06,1.91-3.1.33-.45.66-.9.98-1.35v302.21l-258.36,147.9,255.47-445.66ZM1318.88,719.32c-.34-.48-.69-.95-1.03-1.42-.88-1.46-1.79-2.91-2.68-4.36l-254.65-444.33,258.37,147.9v302.21ZM490.73,241.18l259.29-149.71,261.53,149.71H490.73ZM179.58,720.24v-299.41s259.39-149.77,259.39-149.77l-259.39,449.18ZM163.58,1050.84c-18.74-41.55-28.61-86.96-28.61-133.9s9.88-92.36,28.61-133.91v267.81ZM196.37,1107.42l231.77,133.79c-74.69-7.4-143.95-40.06-197.72-93.83-12.52-12.52-23.87-25.88-34.05-39.95ZM717.35,1408.15c-74.71-7.38-144-40.05-197.79-93.84-12.53-12.53-23.9-25.92-34.08-40l231.87,133.84ZM1012.97,1276.44c-9.79,13.3-20.64,25.97-32.54,37.87-53.72,53.72-122.89,86.37-197.49,93.81l230.02-131.67ZM1270.25,1147.37c-53.18,53.18-121.5,85.69-195.24,93.56l226.45-129.63c-9.44,12.65-19.85,24.71-31.21,36.07ZM1301.46,388.7l-226.45-129.63c73.74,7.87,142.06,40.38,195.24,93.56,11.36,11.36,21.77,23.42,31.21,36.07ZM782.94,91.88c74.6,7.44,143.77,40.09,197.49,93.81,11.9,11.9,22.75,24.56,32.54,37.87l-230.02-131.67ZM485.44,225.76c10.2-14.11,21.58-27.52,34.13-40.07,53.79-53.79,123.08-86.46,197.79-93.84l-231.93,133.91ZM196.27,392.73c10.2-14.12,21.59-27.54,34.15-40.1,53.8-53.8,123.1-86.47,197.83-93.85l-231.98,133.94ZM160.75,747.11l-5.14,2.97,5.07,2.94c-27.22,49.69-41.71,105.69-41.71,163.92,0,10.32.48,20.56,1.38,30.72-19.99-63.64-30.11-129.88-30.11-197.66s10.11-134.02,30.11-197.66c-.9,10.16-1.38,20.4-1.38,30.72,0,58.29,14.51,114.33,41.78,164.05ZM493.19,1357.92c-78.56-33.23-149.12-80.8-209.71-141.4-6.32-6.32-12.49-12.76-18.53-19.29,55.73,39.13,121.77,60.59,191.13,61.53,14.38,24.07,31.83,46.52,52.17,66.86,28.7,28.7,61.6,51.65,97.32,68.31-38.34-8.56-75.87-20.58-112.38-36.02ZM1216.52,1216.52c-60.59,60.59-131.15,108.17-209.71,141.4-36.51,15.44-74.04,27.46-112.38,36.02,35.71-16.66,68.62-39.61,97.32-68.31,20.34-20.34,37.79-42.79,52.17-66.85,68.86-.8,134.46-21.84,189.99-60.3-5.67,6.11-11.47,12.13-17.39,18.05ZM1409.76,750c0,66.76-9.8,132.02-29.2,194.78.74-9.21,1.13-18.49,1.13-27.84,0-58.12-14.42-114.01-41.54-163.62l5.6-3.21-5.68-3.27c27.17-49.65,41.63-105.6,41.63-163.78,0-9.34-.39-18.63-1.13-27.84,19.4,62.75,29.2,128.02,29.2,194.78ZM1006.81,142.09c78.56,33.23,149.12,80.8,209.71,141.39,5.92,5.92,11.72,11.94,17.39,18.05-55.53-38.46-121.13-59.5-189.99-60.3-14.38-24.07-31.83-46.52-52.17-66.86-28.7-28.7-61.6-51.65-97.32-68.31,38.34,8.56,75.87,20.58,112.38,36.02ZM283.48,283.48c60.59-60.59,131.15-108.17,209.71-141.39,36.51-15.44,74.04-27.46,112.38-36.02-35.72,16.66-68.62,39.61-97.32,68.31-20.34,20.34-37.79,42.79-52.17,66.86-69.36.94-135.4,22.4-191.13,61.53,6.04-6.54,12.21-12.97,18.53-19.29Z"/></svg>