<?xml version="1.0" encoding="UTF-8"?><svg id="Layer_2" xmlns="http://www.w3.org/2000/svg" xmlns:xlink="http://www.w3.org/1999/xlink" viewBox="0 0 1500 1500"><defs><style>.cls-1{fill:url(#New_Gradient_Swatch_2);stroke-width:0px;}</style><linearGradient id="New_Gradient_Swatch_2" x1="126.05" y1="1110.24" x2="1373.95" y2="389.76" gradientUnits="userSpaceOnUse"><stop offset="0" stop-color="#56450d"/><stop offset=".21" stop-color="#e5c787"/><stop offset=".39" stop-color="#f7d976"/><stop offset=".99" stop-color="#725728"/></linearGradient></defs><path class="cls-1" d="M1260.3,243.63c-66.28-65.76-143.46-117.38-229.4-153.45-88.97-37.34-183.48-56.27-280.9-56.27s-191.93,18.93-280.9,56.27c-85.94,36.06-163.12,87.69-229.4,153.45-66.28,65.76-118.32,142.34-154.68,227.62-37.64,88.29-56.73,182.08-56.73,278.76s19.09,190.46,56.73,278.76c36.35,85.27,88.4,161.86,154.68,227.62,66.28,65.76,143.46,117.38,229.4,153.45,88.97,37.34,183.48,56.27,280.9,56.27s191.93-18.93,280.9-56.27c85.94-36.06,163.12-87.69,229.4-153.45,66.28-65.76,118.32-142.34,154.68-227.62,37.64-88.29,56.73-182.08,56.73-278.76s-19.09-190.46-56.73-278.76c-36.35-85.27-88.4-161.86-154.68-227.62ZM997.11,999.78c-66,66-153.76,102.35-247.11,102.35s-181.1-36.35-247.11-102.35c-20.73-20.73-38.54-43.62-53.21-68.14,15.06-26.15,33.66-50.5,55.57-72.41,63.01-63.01,146.05-98.73,234.76-101.22,3.32.09,6.65.14,9.98.14s6.66-.05,9.98-.14c88.71,2.5,171.75,38.21,234.76,101.22,21.91,21.91,40.51,46.26,55.57,72.41-14.67,24.52-32.48,47.41-53.21,68.14ZM1059.07,947.81c24.22,47.82,37.04,101,37.04,156.16,0,92.45-36,179.37-101.38,244.74s-152.29,101.38-244.74,101.38-179.37-36-244.74-101.38-101.38-152.29-101.38-244.74c0-55.16,12.82-108.34,37.04-156.16,14.41,22.78,31.33,43.95,50.66,63.28,33.56,33.56,72.64,59.91,116.16,78.32,45.06,19.06,92.92,28.72,142.26,28.72s97.2-9.66,142.26-28.72c43.52-18.41,82.6-44.76,116.16-78.32,19.33-19.33,36.25-40.5,50.66-63.28ZM440.66,915.58c-26.21-49.62-40.12-105.19-40.12-162.91s14.45-115.44,41.66-165.79c14.61,23.53,31.89,45.35,51.75,65.2,33.25,33.25,71.98,59.36,115.1,77.6,20.85,8.82,42.31,15.58,64.24,20.31-21.93,4.73-43.39,11.49-64.24,20.31-43.12,18.24-81.85,44.35-115.1,77.6-20.55,20.55-38.36,43.19-53.28,67.67ZM1006.06,847.91c-33.25-33.25-71.98-59.36-115.1-77.6-20.85-8.82-42.31-15.58-64.24-20.31,21.93-4.73,43.39-11.49,64.24-20.31,43.12-18.24,81.85-44.35,115.1-77.6,19.85-19.85,37.14-41.67,51.75-65.2,27.2,50.35,41.66,106.95,41.66,165.79s-13.91,113.28-40.12,162.91c-14.92-24.47-32.73-47.12-53.28-67.67ZM994.74,640.77c-63.01,63.01-146.05,98.73-234.76,101.22-3.32-.09-6.65-.14-9.98-.14s-6.66.05-9.98.14c-88.71-2.5-171.75-38.21-234.76-101.22-21.15-21.15-39.2-44.56-53.98-69.67,14.37-23.54,31.62-45.54,51.61-65.53,66-66,153.76-102.35,247.11-102.35s181.1,36.35,247.11,102.35c19.99,19.99,37.25,41.99,51.61,65.53-14.78,25.11-32.83,48.53-53.98,69.67ZM1008.42,494.25c-33.56-33.56-72.64-59.91-116.16-78.32-45.06-19.06-92.92-28.72-142.26-28.72s-97.2,9.66-142.26,28.72c-43.52,18.41-82.6,44.76-116.16,78.32-18.65,18.65-35.06,39-49.13,60.88-25.2-48.58-38.57-102.81-38.57-159.1,0-92.45,36-179.37,101.38-244.74s152.29-101.38,244.74-101.38,179.37,36,244.74,101.38,101.38,152.29,101.38,244.74c0,56.29-13.37,110.52-38.57,159.1-14.07-21.87-30.48-42.23-49.13-60.88ZM250.97,1245.02c-64.81-64.3-115.69-139.17-151.23-222.53-36.79-86.3-55.45-177.98-55.45-272.48s18.65-186.18,55.45-272.48c35.54-83.36,86.42-158.23,151.23-222.53,64.81-64.3,140.29-114.79,224.32-150.05,41.34-17.35,83.9-30.62,127.41-39.79-40.58,18.08-77.14,43.22-108.75,74.83-33.25,33.25-59.36,71.98-77.6,115.1-18.89,44.65-28.46,92.07-28.46,140.96s9.58,96.31,28.46,140.96c4.92,11.64,10.44,22.95,16.5,33.94-7.29,12.71-13.82,25.89-19.58,39.5-19.06,45.06-28.72,92.92-28.72,142.26s9.66,97.2,28.72,142.26c5.36,12.67,11.41,24.94,18.09,36.83-5.48,10.14-10.49,20.56-15.01,31.25-18.89,44.65-28.46,92.07-28.46,140.96s9.58,96.31,28.46,140.96c18.24,43.12,44.35,81.85,77.6,115.1s68.18,56.75,108.76,74.83c-43.51-9.17-86.08-22.44-127.41-39.79-84.04-35.26-159.51-85.75-224.32-150.05ZM1400.26,1022.48c-35.54,83.36-86.42,158.23-151.23,222.53-64.81,64.3-140.29,114.79-224.32,150.05-41.34,17.35-83.9,30.62-127.41,39.79,40.58-18.08,77.15-43.22,108.76-74.83,33.25-33.25,59.36-71.98,77.6-115.1,18.89-44.65,28.46-92.07,28.46-140.96s-9.58-96.31-28.46-140.96c-4.52-10.69-9.53-21.12-15.01-31.25,6.68-11.89,12.74-24.17,18.09-36.83,19.06-45.06,28.72-92.92,28.72-142.26s-9.66-97.2-28.72-142.26c-5.76-13.61-12.29-26.79-19.58-39.5,6.06-10.98,11.58-22.29,16.5-33.94,18.89-44.65,28.46-92.07,28.46-140.96s-9.58-96.31-28.46-140.96c-18.24-43.12-44.35-81.85-77.6-115.1-31.61-31.61-68.18-56.75-108.75-74.83,43.51,9.17,86.07,22.44,127.41,39.79,84.04,35.26,159.51,85.75,224.32,150.05,64.81,64.3,115.69,139.17,151.23,222.53,36.79,86.3,55.45,177.98,55.45,272.48s-18.65,186.18-55.45,272.48Z"/></svg>