<?xml version="1.0" encoding="UTF-8"?><svg id="Layer_2" xmlns="http://www.w3.org/2000/svg" xmlns:xlink="http://www.w3.org/1999/xlink" viewBox="0 0 1500 1500"><defs><style>.cls-1{fill:url(#New_Gradient_Swatch_2);stroke-width:0px;}</style><linearGradient id="New_Gradient_Swatch_2" x1="126.82" y1="1109.79" x2="1372.69" y2="390.49" gradientUnits="userSpaceOnUse"><stop offset="0" stop-color="#56450d"/><stop offset=".21" stop-color="#e5c787"/><stop offset=".39" stop-color="#f7d976"/><stop offset=".99" stop-color="#725728"/></linearGradient></defs><path class="cls-1" d="M1258.31,241.69c-66.02-66.02-142.89-117.85-228.49-154.05-88.63-37.49-182.77-56.49-279.81-56.49-.66,0-1.32.01-1.98.01-.33,0-.66-.01-.99-.01-.99,0-1.98.03-2.97.04-94.94.76-187.05,19.74-273.87,56.46-85.6,36.21-162.48,88.04-228.49,154.05s-117.85,142.89-154.05,228.49c-37.49,88.63-56.49,182.77-56.49,279.81s19.01,191.18,56.49,279.81c7.73,18.28,16.18,36.15,25.32,53.61,8.3,17.51,17.96,34.25,28.89,50.13,28.37,44.93,61.74,86.65,99.84,124.75,66.02,66.02,142.89,117.85,228.49,154.05,88.63,37.49,182.77,56.49,279.81,56.49s191.18-19.01,279.81-56.49c85.6-36.21,162.48-88.04,228.49-154.05,39.48-39.48,73.88-82.85,102.91-129.64,8.44-12.71,16.07-25.94,22.87-39.67,10.28-19.22,19.72-38.96,28.27-59.18,37.49-88.63,56.49-182.77,56.49-279.81s-19.01-191.18-56.49-279.81c-36.21-85.6-88.04-162.48-154.05-228.49ZM1304.01,1173.38c-65.62,65.62-152.87,101.76-245.67,101.76s-180.05-36.14-245.67-101.76c-18.4-18.4-34.48-38.51-48.1-59.95h587.22c-1.55,2.56-3.11,5.11-4.69,7.65-12.5,18.59-26.9,36.11-43.09,52.3ZM155.64,1125.42c-2.51-3.97-4.99-7.97-7.43-11.99h586.97c-13.62,21.45-29.7,41.55-48.1,59.95-65.62,65.62-152.87,101.76-245.67,101.76s-180.05-36.14-245.67-101.76c-14.93-14.93-28.31-30.98-40.11-47.96ZM93.99,927.71c0-92.8,36.14-180.05,101.76-245.67,62.73-62.73,145.23-98.49,233.44-101.52l-294.34,509.81c-2.95-5.33-5.83-10.71-8.65-16.12-21.09-45.3-32.22-95.04-32.22-146.5ZM1098.42,750c0,59.53-14.89,116.76-42.88,167.47l-279.59-160.61c38.85-3.04,76.59-12.22,112.54-27.42,43.28-18.3,82.14-44.51,115.52-77.88,20.3-20.3,37.94-42.65,52.77-66.78l.19.32c27.07,50.07,41.46,106.38,41.46,164.9ZM715.48,740.57c-80.9-7.23-156-42.2-214.13-100.33-13.82-13.82-26.31-28.6-37.45-44.19l251.58,144.52ZM470.73,581.52c81.74,6.79,157.69,41.86,216.35,100.52,14.37,14.37,27.32,29.78,38.8,46.05l-255.15-146.57ZM758,784.21c20.19,44.5,30.84,93.18,30.84,143.51s-10.65,99.01-30.84,143.51v-287.01ZM742,1071.76c-20.35-44.64-31.09-93.51-31.09-144.04s10.74-99.4,31.09-144.04v288.08ZM776.52,724.43c10.81-14.92,22.86-29.1,36.15-42.39,56.93-56.92,130.13-91.65,209.11-99.85l-245.26,142.24ZM1030.41,595.69c-11.21,15.72-23.79,30.63-37.72,44.55-57.56,57.56-131.77,92.43-211.76,100.13l249.48-144.69ZM698.4,670.73c-33.37-33.37-72.24-59.58-115.52-77.88-40.05-16.94-82.33-26.39-125.88-28.21,13.67-21.58,29.82-41.8,48.32-60.3,63.5-63.5,147.24-99.39,236.68-101.64v320.65c-12.78-18.76-27.33-36.34-43.6-52.61ZM441.59,591.63c13.9,21.52,30.08,41.56,48.45,59.93,33.37,33.37,72.24,59.58,115.52,77.88,36.63,15.49,75.12,24.73,114.75,27.6l-274.54,159.22c-27.55-50.41-42.2-107.2-42.2-166.25,0-55.99,13.18-109.95,38.03-158.37ZM731.21,769.21c-2.72,5.6-5.3,11.28-7.74,17.04-18.95,44.81-28.56,92.41-28.56,141.46s9.61,96.65,28.56,141.46c4.03,9.54,8.47,18.84,13.27,27.94-87.45-3.51-169.17-39.2-231.42-101.45-19.99-19.99-37.23-42-51.56-65.55l277.45-160.91ZM776.28,1069.18c18.95-44.81,28.56-92.41,28.56-141.46s-9.61-96.65-28.56-141.46c-2.07-4.89-4.25-9.72-6.52-14.5l277.73,159.55c-14.19,23.11-31.18,44.71-50.83,64.37-62.79,62.79-145.38,98.56-233.69,101.53,4.81-9.12,9.26-18.46,13.31-28.02ZM916.87,592.85c-43.28,18.3-82.14,44.51-115.52,77.88-16.17,16.17-30.64,33.64-43.36,52.26v-320.33c90.18,1.77,174.69,37.71,238.66,101.67,18.48,18.48,34.62,38.67,48.27,60.22-44.32,1.59-87.34,11.07-128.06,28.3ZM742,386.68c-45.88,1.1-90.41,10.66-132.47,28.45-39.29,16.62-74.92,39.76-106.13,68.85l238.6-413.27v315.96ZM416.13,891.47c4.75,11.23,10.05,22.17,15.85,32.79l-274.77,159.35,239.41-414.67c-6.02,26.4-9.05,53.5-9.05,81.06,0,49.06,9.61,96.65,28.56,141.46ZM439.95,938.12c15.09,24.93,33.17,47.97,54.06,68.86,33.37,33.37,72.24,59.58,115.52,77.88,11.32,4.79,22.81,8.97,34.46,12.56H165.27l274.68-159.3ZM892.46,1084.86c43.28-18.3,82.14-44.51,115.52-77.88,20.57-20.57,38.41-43.24,53.36-67.73l275.35,158.18h-478.69c11.65-3.59,23.15-7.78,34.46-12.56ZM1069.36,925.41c6.06-10.98,11.57-22.3,16.5-33.94,18.95-44.81,28.56-92.41,28.56-141.46,0-27.56-3.03-54.66-9.05-81.06l239.42,414.69-275.43-158.22ZM892.46,415.14c-42.67-18.05-87.87-27.6-134.46-28.48V67.28l240.58,416.71c-31.21-29.09-66.84-52.24-106.13-68.85ZM441.2,559.73c-27.16-50.14-41.6-106.53-41.6-165.15,0-92.8,36.14-180.05,101.76-245.67,63.26-63.26,146.63-99.11,235.69-101.61l-295.85,512.43ZM1371.11,1079.32c-1.64,3.1-3.31,6.18-5,9.25l-293.27-507.97c87.36,3.56,168.98,39.25,231.17,101.44,65.62,65.62,101.76,152.87,101.76,245.67,0,53.4-11.99,104.95-34.65,151.61ZM765.12,47.61c86,4.38,166.24,39.95,227.57,101.29,65.62,65.62,101.76,152.87,101.76,245.67,0,55.84-13.1,109.65-37.82,157.97L765.12,47.61ZM102.38,476.42c35.4-83.69,86.08-158.86,150.63-223.41,64.55-64.55,139.72-115.23,223.41-150.63,38.72-16.38,78.52-29.13,119.16-38.25-39.28,18.01-74.75,42.68-105.54,73.46-33.37,33.37-59.58,72.24-77.88,115.52-18.95,44.81-28.56,92.41-28.56,141.46s9.61,96.65,28.56,141.46c4.13,9.77,8.69,19.3,13.61,28.6-43.53,1.83-85.79,11.28-125.82,28.21-43.28,18.3-82.14,44.51-115.52,77.88-33.37,33.37-59.58,72.24-77.88,115.52-18.95,44.81-28.56,92.41-28.56,141.46,0,11.41.54,22.73,1.58,33.97-21.53-68.13-32.42-139.07-32.42-211.68,0-94.89,18.58-186.93,55.23-273.58ZM1246.99,1246.99c-64.55,64.55-139.72,115.23-223.41,150.63-86.65,36.65-178.69,55.23-273.58,55.23s-186.93-18.58-273.58-55.23c-83.69-35.4-158.86-86.08-223.41-150.63-7.41-7.41-14.62-14.96-21.66-22.64,21.35,15.15,44.28,27.94,68.61,38.23,44.81,18.95,92.41,28.56,141.46,28.56s96.65-9.61,141.46-28.56c43.28-18.3,82.14-44.51,115.52-77.88,19.72-19.72,36.92-41.37,51.48-64.71,14.56,23.33,31.76,44.98,51.48,64.71,33.37,33.37,72.24,59.58,115.52,77.88,44.81,18.95,92.41,28.56,141.46,28.56s96.65-9.61,141.46-28.56c24.61-10.41,47.79-23.38,69.34-38.76-7.19,7.87-14.57,15.6-22.15,23.18ZM1420.09,962.75c1.1-11.58,1.67-23.27,1.67-35.04,0-49.06-9.61-96.65-28.56-141.46-18.3-43.28-44.51-82.14-77.88-115.52s-72.24-59.58-115.52-77.88c-41.74-17.66-85.91-27.2-131.42-28.42,4.89-9.24,9.4-18.7,13.5-28.39,18.95-44.81,28.56-92.41,28.56-141.46s-9.61-96.65-28.56-141.46c-18.31-43.28-44.51-82.14-77.88-115.52s-69.58-57.74-111.06-75.94c44.64,9.22,88.28,22.81,130.64,40.72,83.69,35.4,158.86,86.08,223.41,150.63,64.55,64.55,115.23,139.72,150.63,223.41,36.65,86.65,55.23,178.69,55.23,273.58,0,72.99-11.01,144.29-32.76,212.75Z"/></svg>
