<?xml version="1.0" encoding="UTF-8"?><svg id="Layer_2" xmlns="http://www.w3.org/2000/svg" xmlns:xlink="http://www.w3.org/1999/xlink" viewBox="0 0 1500 1500"><defs><style>.cls-1{fill:url(#New_Gradient_Swatch_2);stroke-width:0px;}</style><linearGradient id="New_Gradient_Swatch_2" x1="150.5" y1="1096.12" x2="1349.5" y2="403.88" gradientUnits="userSpaceOnUse"><stop offset="0" stop-color="#56450d"/><stop offset=".21" stop-color="#e5c787"/><stop offset=".39" stop-color="#f7d976"/><stop offset=".99" stop-color="#725728"/></linearGradient></defs><path class="cls-1" d="M1331.94,406.77c-44.58-44.58-96.49-79.58-154.29-104.02-59.85-25.31-123.42-38.15-188.94-38.15s-129.1,12.83-188.94,38.15c-17.12,7.24-33.71,15.41-49.76,24.48-16.05-9.06-32.64-17.24-49.76-24.48-59.85-25.31-123.42-38.15-188.94-38.15s-129.1,12.83-188.94,38.15c-57.8,24.45-109.71,59.45-154.29,104.02-44.58,44.58-79.57,96.49-104.02,154.29-25.31,59.85-38.15,123.42-38.15,188.95s12.83,129.1,38.15,188.94c24.45,57.8,59.45,109.71,104.02,154.29s96.49,79.57,154.29,104.02c59.85,25.31,123.42,38.15,188.94,38.15s129.1-12.83,188.94-38.15c17.12-7.24,33.71-15.41,49.76-24.48,16.05,9.06,32.64,17.24,49.76,24.48,59.85,25.31,123.42,38.15,188.94,38.15s129.1-12.83,188.94-38.15c57.8-24.45,109.71-59.45,154.29-104.02s79.57-96.49,104.02-154.29c25.31-59.85,38.15-123.42,38.15-188.94s-12.83-129.1-38.15-188.95c-24.45-57.8-59.45-109.71-104.02-154.29ZM1226.28,1149.2h-438.69c23.81-16.51,46.17-35.2,66.93-55.96,44.58-44.58,79.58-96.49,104.02-154.29,23.43-55.4,36.16-113.98,37.93-174.35l229.8,384.61ZM503.7,769.78c2.33,58.54,14.99,115.36,37.75,169.17,24.45,57.8,59.45,109.71,104.02,154.29,20.77,20.77,43.13,39.45,66.93,55.96h-432.51l223.81-379.42ZM980.7,750c0,63.37-12.41,124.85-36.88,182.71-23.64,55.9-57.49,106.1-100.6,149.21-25.82,25.82-54.18,48.31-84.78,67.28h-.19v-400.21h222.45c0,.34,0,.67,0,1.01ZM519.3,748.99h222.94v400.21h-.68c-30.6-18.97-58.96-41.46-84.78-67.28-43.11-43.11-76.96-93.31-100.6-149.21-24.47-57.87-36.88-119.34-36.88-182.71,0-.34,0-.67,0-1.01ZM525.4,732.99l216.85-367.62v367.62h-216.85ZM758.24,732.99v-367.13l219.36,367.13h-219.36ZM521.06,708.84c4.22-48.85,15.98-96.3,35.12-141.55,23.64-55.9,57.49-106.1,100.6-149.21,21.54-21.54,44.84-40.76,69.74-57.55l-205.46,348.31ZM773.84,360.78c24.76,16.74,47.95,35.87,69.38,57.3,43.11,43.11,76.96,93.31,100.6,149.21,18.39,43.49,29.97,89.02,34.59,135.86l-204.57-342.37ZM78.78,932.71c-24.48-57.87-36.89-119.34-36.89-182.71s12.41-124.85,36.89-182.71c23.64-55.9,57.49-106.1,100.6-149.21,43.11-43.11,93.31-76.96,149.21-100.6,57.87-24.47,119.34-36.88,182.71-36.88s124.85,12.41,182.71,36.88c13.68,5.79,27.02,12.19,40,19.19-31.98,19.73-61.6,43.16-88.54,70.1-44.58,44.58-79.58,96.49-104.02,154.29-23.86,56.41-36.63,116.13-38.02,177.68l-241.35,409.16c-29.81-18.7-57.47-40.75-82.7-65.98-43.11-43.11-76.96-93.31-100.6-149.21ZM694.01,1182.52c-57.87,24.47-119.34,36.88-182.71,36.88s-124.85-12.41-182.71-36.88c-12.46-5.27-24.63-11.05-36.51-17.32h438.44c-11.88,6.27-24.05,12.05-36.51,17.32ZM1171.42,1182.52c-57.87,24.47-119.34,36.88-182.71,36.88s-124.85-12.41-182.71-36.88c-12.46-5.27-24.63-11.05-36.51-17.32h438.44c-11.88,6.27-24.05,12.05-36.51,17.32ZM1421.22,932.71c-23.64,55.9-57.49,106.1-100.6,149.21-23.95,23.95-50.1,45.04-78.19,63.11l-246.02-411.75c-2-59.62-14.71-117.48-37.86-172.23-24.45-57.8-59.45-109.71-104.02-154.29-26.94-26.94-56.56-50.37-88.54-70.1,12.98-7,26.32-13.4,40-19.19,57.87-24.47,119.34-36.88,182.71-36.88s124.85,12.41,182.71,36.88c55.9,23.64,106.1,57.49,149.21,100.6,43.11,43.11,76.96,93.31,100.6,149.21,24.48,57.87,36.89,119.34,36.89,182.71s-12.41,124.85-36.89,182.71Z"/></svg>
