<?xml version="1.0" encoding="UTF-8"?><svg id="Layer_2" xmlns="http://www.w3.org/2000/svg" xmlns:xlink="http://www.w3.org/1999/xlink" viewBox="0 0 1500 1500"><defs><style>.cls-1{fill:url(#New_Gradient_Swatch_2);stroke-width:0px;}</style><linearGradient id="New_Gradient_Swatch_2" x1="111.72" y1="1118.51" x2="1388.28" y2="381.49" gradientUnits="userSpaceOnUse"><stop offset="0" stop-color="#56450d"/><stop offset=".21" stop-color="#e5c787"/><stop offset=".39" stop-color="#f7d976"/><stop offset=".99" stop-color="#725728"/></linearGradient></defs><path class="cls-1" d="M750,1487.03l8.21-4.74,630.07-363.77V381.49L750,12.97,111.72,381.49v737.03l630.07,363.77,8.21,4.74ZM1030.12,734l-48.17-83.43,72.25,41.71-24.08,41.72ZM1068.07,700.29l86.11,49.71-86.11,49.72-28.71-49.72,28.7-49.72ZM865.97,807.72l24.09-41.72,48.17,83.44-72.26-41.72ZM852.12,799.72l-86.12-49.72,86.12-49.72,28.71,49.72-28.71,49.72ZM865.97,692.28l72.26-41.72-48.18,83.44-24.09-41.72ZM857.97,678.43l-24.09-41.72h96.35l-72.26,41.72ZM844.12,686.43l-86.12,49.72v-99.44h57.41l28.71,49.72ZM758,620.71v-83.44l48.17,83.44h-48.17ZM742,620.71h-48.17l48.17-83.44v83.44ZM742,636.71v99.44l-86.12-49.72,28.71-49.72h57.41ZM642.03,678.43l-72.26-41.72h96.35l-24.09,41.72ZM634.03,692.28l-24.09,41.72-48.18-83.44,72.26,41.72ZM647.88,700.28l86.12,49.72-86.12,49.72-28.71-49.72,28.71-49.72ZM642.03,821.58l24.09,41.72h-96.35l72.26-41.72ZM655.88,813.58l86.12-49.72v99.45h-57.41l-28.71-49.72ZM742,879.3v83.44l-48.17-83.44h48.17ZM758,863.3v-99.45l86.12,49.72-28.71,49.72h-57.41ZM806.17,879.3l-48.17,83.44v-83.44h48.17ZM857.97,821.58l72.26,41.72h-96.35l24.09-41.72ZM899.3,750l52.79-91.44v182.88l-52.79-91.44ZM824.65,620.71l-52.79-91.44,158.38,91.44h-105.59ZM675.35,620.71h-105.59l158.38-91.44-52.79,91.44ZM600.7,750l-52.79,91.44v-182.88l52.79,91.44ZM634.03,807.72l-72.26,41.72,48.17-83.44,24.09,41.72ZM675.35,879.3l52.79,91.44-158.38-91.44h105.59ZM824.65,879.3h105.59l-158.38,91.44,52.79-91.44ZM779.86,515.41h105.59l52.79,91.44-158.38-91.44ZM779.86,499.41l72.26-41.72,24.09,41.72h-96.34ZM720.14,499.41h-96.34l24.09-41.72,72.26,41.72ZM720.14,515.41l-158.38,91.44,52.79-91.44h105.59ZM531.91,841.45l-52.79-91.44,52.79-91.44v182.88ZM561.76,893.16l158.38,91.44h-105.59l-52.79-91.44ZM596.08,984.6h-48.17v-83.44l48.17,83.44ZM938.24,893.16l-52.79,91.44h-105.59l158.38-91.44ZM952.09,901.17v83.43h-48.17l48.17-83.43ZM968.09,658.56l52.79,91.44-52.79,91.44v-182.88ZM952.08,598.83l-48.16-83.42h48.16v83.42ZM894.68,499.41l-28.71-49.72,86.1-49.71v99.43h-57.4ZM634.02,449.69l-28.71,49.72h-57.4v-99.43l86.11,49.71ZM596.08,515.41l-48.16,83.42v-83.42h48.16ZM469.88,734l-24.09-41.72,72.26-41.71-48.17,83.43ZM460.64,750l-28.71,49.72-86.12-49.72,86.12-49.72,28.7,49.72ZM469.88,766l48.17,83.44-72.26-41.72,24.09-41.72ZM605.32,1000.6l28.7,49.71-86.12,49.72v-99.43h57.41ZM623.79,1000.6h96.33l-72.25,41.71-24.08-41.71ZM779.87,1000.6h96.33l-24.08,41.71-72.25-41.71ZM894.68,1000.6h57.41v99.43l-86.11-49.72,28.7-49.71ZM981.95,849.44l48.17-83.44,24.09,41.72-46.89,27.07-25.37,14.64ZM857.98,435.84l-86.12-149.16,172.24,99.44-86.12,49.72ZM750,498.17l-94.12-54.34,94.12-163.02,94.12,163.02-94.12,54.34ZM642.02,435.84l-86.12-49.72,172.24-99.44-86.12,149.16ZM968.09,1100.03v-99.44h172.24l-172.24,99.44ZM968.09,984.6v-108.68h0l46.42-26.8,47.7-27.54,94.12,163.01h-188.24ZM968.09,624.09h0v-108.68h188.24l-94.12,163.01-94.12-54.34ZM968.09,499.41v-99.44l172.24,99.44h-172.24ZM531.91,499.41h-172.24l172.24-99.44v99.44ZM531.91,515.41v108.68h0l-94.12,54.34-94.12-163.01h188.24ZM531.62,876.09v108.51h-187.95l93.97-162.76,93.98,54.26ZM531.62,1000.6v99.27l-171.95-99.27h171.95ZM642.03,1064.17l86.12,149.16-172.24-99.44,86.12-49.72ZM750,1001.83l94.12,54.34-94.12,163.01-94.12-163.01,94.12-54.34ZM857.97,1064.17l86.12,49.72-172.24,99.44,86.12-149.16ZM1076.07,813.58l86.12-49.72v198.87l-86.12-149.16ZM1076.07,686.43l86.12-149.16v198.88l-86.12-49.72ZM423.93,686.43l-86.12,49.72v-198.88l86.12,149.16ZM337.81,764.2l85.97,49.63-85.97,148.91v-198.54ZM1172.33,1000.6h11.71l-5.86-10.14v-226.59l194.09,112.06v233.35l-202.09,116.68-194.1-112.06,196.24-113.29ZM1178.19,509.56l5.86-10.14h-11.71l-7.31-4.22-188.93-109.08,194.1-112.06,202.09,116.68v233.36l-194.1,112.06v-226.6ZM952.09,372.25l-196.23-113.3-5.86-10.14-5.86,10.14-196.23,113.3v-224.12l202.09-116.68,202.09,116.68v224.12ZM334.98,495.19l-7.31,4.22h-11.71l5.86,10.14v226.59l-194.09-112.06v-233.35l202.09-116.68,194.1,112.06-188.93,109.08ZM321.81,990.45l-5.86,10.14h11.71l195.95,113.13-193.81,111.89-201.8-116.51v-233.02l193.8-111.89v226.25ZM1154.19,1235.19l-186.1,107.45v-214.89l186.1,107.44ZM1186.19,750.01l186.1-107.44v214.89l-186.1-107.44ZM968.09,372.25v-214.89l186.11,107.45-186.11,107.44ZM531.91,372.26l-186.11-107.44,186.11-107.45v214.9ZM314.11,750.17l-186.39,107.61v-215.22l186.39,107.61ZM531.91,1127.41v215.22l-186.39-107.61,186.39-107.61ZM547.91,1351.86v-224.11l196.24,113.29,5.86,10.14,5.86-10.14,196.24-113.29v224.11l-202.09,116.69-202.09-116.69Z"/></svg>
