<?xml version="1.0" encoding="UTF-8"?><svg id="Layer_2" xmlns="http://www.w3.org/2000/svg" xmlns:xlink="http://www.w3.org/1999/xlink" viewBox="0 0 1500 1500"><defs><style>.cls-1{fill:url(#New_Gradient_Swatch_2);stroke-width:0px;}</style><linearGradient id="New_Gradient_Swatch_2" x1="128.07" y1="1109.07" x2="1371.92" y2="390.93" gradientUnits="userSpaceOnUse"><stop offset="0" stop-color="#56450d"/><stop offset=".21" stop-color="#e5c787"/><stop offset=".39" stop-color="#f7d976"/><stop offset=".99" stop-color="#725728"/></linearGradient></defs><path class="cls-1" d="M79.41,927.4c0,48.97,9.59,96.49,28.51,141.22,18.27,43.2,44.43,82,77.75,115.32,22.19,22.19,46.83,41.19,73.57,56.81,15.62,26.74,34.62,51.37,56.81,73.57,33.32,33.32,72.12,59.48,115.32,77.75,44.73,18.92,92.25,28.51,141.22,28.51s96.49-9.59,141.22-28.51c12.44-5.26,24.49-11.2,36.18-17.74,11.68,6.55,23.74,12.48,36.18,17.74,44.73,18.92,92.25,28.51,141.22,28.51s96.49-9.59,141.22-28.51c43.2-18.27,82-44.43,115.32-77.75,22.19-22.19,41.18-46.82,56.81-73.56,26.74-15.63,51.38-34.62,73.58-56.82,33.32-33.32,59.48-72.12,77.75-115.32,18.92-44.73,28.51-92.25,28.51-141.22s-9.59-96.49-28.51-141.22c-5.26-12.44-11.2-24.5-17.75-36.18,6.55-11.68,12.48-23.74,17.75-36.18,18.92-44.73,28.51-92.25,28.51-141.22s-9.59-96.49-28.51-141.22c-18.27-43.2-44.43-82-77.75-115.32-22.19-22.19-46.83-41.19-73.57-56.82-15.63-26.74-34.62-51.38-56.82-73.57-33.32-33.32-72.12-59.48-115.32-77.75-44.73-18.92-92.25-28.51-141.22-28.51s-96.49,9.59-141.22,28.51c-12.44,5.26-24.49,11.2-36.18,17.74-11.68-6.55-23.74-12.48-36.18-17.74-44.73-18.92-92.25-28.51-141.22-28.51s-96.49,9.59-141.22,28.51c-43.2,18.27-82,44.43-115.32,77.75-22.2,22.2-41.19,46.84-56.82,73.58-26.73,15.62-51.37,34.62-73.56,56.81-33.32,33.32-59.48,72.12-77.75,115.32-18.92,44.73-28.51,92.25-28.51,141.22s9.59,96.49,28.51,141.22c5.26,12.44,11.2,24.5,17.75,36.18-6.55,11.68-12.48,23.74-17.75,36.18-18.92,44.73-28.51,92.25-28.51,141.22ZM196.99,1172.63c-65.5-65.5-101.58-152.59-101.58-245.23,0-57.2,13.77-112.29,39.72-161.49,14.36,22.77,31.24,43.93,50.54,63.23,20.88,20.88,43.91,38.94,68.82,54.02-5.94,10.81-11.35,21.94-16.19,33.39-18.92,44.73-28.51,92.25-28.51,141.22s9.59,96.49,28.51,141.22c1.89,4.46,3.88,8.87,5.94,13.24-16.72-11.67-32.53-24.89-47.25-39.61ZM1051.99,644.64l-25.24-43.53,25.24-14.62v58.15ZM913.51,1044.73h-45.62l34.15-19.8,11.47,19.8ZM457.13,870.78l18.53,32-18.53,10.74v-42.74ZM441.13,758.2v5.13c-3.98-1.63-7.93-3.34-11.85-5.12h11.85ZM457.13,758.2l258.9-.05c-44.47,20.21-93.13,30.87-143.43,30.87-39.95,0-78.87-6.73-115.47-19.61v-11.21ZM741.86,783.95l.05,260.78h-10.67c-13.32-37.14-20.26-76.7-20.26-117.33,0-50.31,10.66-98.98,30.89-143.46ZM741.91,1060.73v10.24c-1.54-3.39-3.05-6.8-4.48-10.24h4.48ZM758.08,1060.73h4.49c-1.43,3.45-2.94,6.86-4.49,10.26v-10.26ZM758.09,1044.73l.05-260.8c20.23,44.48,30.89,93.15,30.89,143.48,0,40.63-6.94,80.19-20.26,117.33h-10.68ZM1051.99,758.09v7.97c-39.23,15.08-81.31,22.96-124.59,22.96-50.31,0-98.98-10.66-143.46-30.88l268.05-.05ZM1067.99,758.09h2.97c-.99.45-1.98.92-2.97,1.36v-1.36ZM1067.99,741.92v-1.37c1,.44,1.99.92,2.99,1.37h-2.99ZM1051.99,741.92l-268.07-.05c44.48-20.23,93.15-30.89,143.48-30.89,43.29,0,85.36,7.88,124.59,22.96v7.98ZM758.14,716.06l.05-266.19h8.57c14.62,38.7,22.27,80.13,22.27,122.74,0,50.31-10.66,98.98-30.88,143.45ZM758.19,433.87v-4.6c.7,1.53,1.38,3.06,2.06,4.6h-2.06ZM741.8,433.87h-2.05c.67-1.53,1.36-3.06,2.05-4.58v4.58ZM741.8,449.87l.05,266.17c-20.21-44.47-30.87-93.13-30.87-143.43,0-42.61,7.65-84.04,22.27-122.74h8.56ZM457.13,741.81v-11.22c36.6-12.89,75.52-19.61,115.47-19.61,50.31,0,98.98,10.66,143.45,30.88l-258.92-.05ZM441.13,741.81h-11.87c3.93-1.79,7.88-3.5,11.87-5.14v5.14ZM431.37,776.51c3.24,1.37,6.49,2.67,9.75,3.94v30.76l-23.73-40.99c4.61,2.18,9.26,4.29,13.98,6.28ZM457.13,786.27c37.06,12.46,75.79,18.76,115.47,18.76,31.45,0,62.3-3.98,92.2-11.82l-175.29,101.56-32.38-55.91v-52.58ZM483.68,916.63l.18.31c-.29.03-.59.06-.88.1l.7-.41ZM497.52,908.61l158.91-92.07c-15.79,17.7-29.72,36.77-41.68,57.06-35.16,20.23-73.58,34.06-113.83,40.88l-3.4-5.87ZM682.17,812.55c12-12,24.74-23.01,38.09-32.99l.58-.34c-10.09,13.54-21.23,26.45-33.39,38.61-12.24,12.24-25.23,23.44-38.86,33.58,10.14-13.64,21.35-26.63,33.58-38.86ZM685.69,841.6l-93.55,161.46-6.63-3.85c6.81-40.3,20.65-78.77,40.9-113.96,21.14-12.47,40.97-27.04,59.29-43.66ZM584.11,1016.9l-1.4,2.42c.11-1.01.22-2.02.33-3.03l1.07.62ZM597.95,1024.93l34.15,19.8h-45.62l11.47-19.8ZM605.97,1011.09l99.94-172.48c-7.26,28.84-10.94,58.54-10.94,88.8,0,40.35,6.53,79.7,19.4,117.33h-50.38l-58.02-33.64ZM720.26,1060.73c1.04,2.64,2.12,5.27,3.22,7.9,2.05,4.84,4.21,9.62,6.45,14.35l-38.36-22.24h28.68ZM776.51,1068.63c1.11-2.62,2.18-5.26,3.22-7.9h28.67l-38.35,22.24c2.24-4.73,4.4-9.5,6.45-14.34ZM785.62,1044.73c12.87-37.63,19.4-76.98,19.4-117.33,0-30.26-3.67-59.96-10.94-88.8l99.93,172.48-58.02,33.64h-50.38ZM907.86,1003.06l-93.55-161.47c18.32,16.61,38.14,31.19,59.28,43.65,20.25,35.2,34.09,73.67,40.91,113.97l-6.63,3.85ZM916.95,1016.29c.12,1.01.22,2.02.33,3.03l-1.4-2.41,1.06-.62ZM812.55,817.83c-12.23-12.23-23.43-25.22-33.57-38.85,13.63,10.13,26.61,21.34,38.84,33.57,12.23,12.23,23.43,25.22,33.57,38.85-13.63-10.13-26.61-21.34-38.84-33.57ZM832.88,805.06l172,99.65-5.67,9.78c-40.3-6.82-78.77-20.66-113.96-40.91-14.6-24.75-32.11-47.68-52.36-68.53ZM1018.72,912.74l9.32,5.4c-3.93-.33-7.86-.72-11.76-1.18l2.44-4.22ZM1026.75,898.9l25.24-43.53v58.15l-25.24-14.62ZM1012.9,890.88l-162.21-93.98c25.02,5.39,50.65,8.13,76.7,8.13,42.95,0,84.78-7.38,124.59-21.96v40.41l-39.09,67.4ZM1067.99,776.77c.21-.09.42-.17.63-.26,4.84-2.05,9.62-4.21,14.35-6.45l-14.98,25.83v-19.11ZM1068.62,723.49c-.21-.09-.42-.17-.63-.26v-19.11l14.97,25.81c-4.73-2.24-9.5-4.4-14.34-6.45ZM1051.99,716.94c-39.81-14.58-81.64-21.96-124.59-21.96-26.04,0-51.65,2.74-76.67,8.12l162.18-93.97,39.08,67.4v40.4ZM1018.72,587.27l-2.44-4.22c3.9-.46,7.83-.85,11.76-1.18l-9.31,5.4ZM1004.88,595.29l-172.03,99.68c20.27-20.85,37.79-43.79,52.39-68.55,35.2-20.25,73.67-34.1,113.97-40.91l5.67,9.79ZM817.83,687.45c-12.22,12.22-25.2,23.42-38.83,33.55,10.13-13.62,21.33-26.6,33.55-38.83,12.22-12.22,25.2-23.42,38.83-33.55-10.13,13.62-21.33,26.6-33.55,38.83ZM807.52,664.73l97.93-169.03,9.02,5.23c-6.82,40.25-20.66,78.68-40.89,113.84-23.78,14.02-45.88,30.71-66.07,49.96ZM913.47,481.86l4.47-7.72c-.29,3.25-.63,6.49-1.01,9.72l-3.46-2ZM899.62,473.84l-41.41-23.98h55.3l-13.89,23.98ZM891.6,487.69l-95.33,164.54c5.81-25.95,8.76-52.56,8.76-79.63,0-42.29-7.17-83.48-21.3-122.74h42.56l65.32,37.82ZM777.53,433.87c-.34-.83-.67-1.66-1.01-2.49-1.99-4.71-4.1-9.36-6.28-13.97l28.42,16.46h-21.13ZM723.49,431.38c-.35.83-.67,1.66-1.01,2.49h-21.13l28.43-16.46c-2.18,4.61-4.29,9.26-6.28,13.98ZM716.28,449.87c-14.13,39.26-21.3,80.45-21.3,122.74,0,27.07,2.94,53.68,8.76,79.63l-95.34-164.55,65.32-37.82h42.57ZM600.37,473.84l-13.89-23.97h55.3l-41.41,23.97ZM586.52,481.86l-3.46,2c-.38-3.23-.72-6.47-1.01-9.72l4.47,7.72ZM594.54,495.7l97.93,169.02c-20.19-19.25-42.29-35.94-66.07-49.96-20.23-35.16-34.06-73.58-40.89-113.83l9.03-5.23ZM687.45,682.17c12.16,12.16,23.31,25.07,33.4,38.62l-.51-.29c-13.38-10-26.15-21.03-38.18-33.06-12.23-12.23-23.43-25.21-33.57-38.84,13.63,10.14,26.62,21.34,38.85,33.57ZM656.45,683.49l-158.93-92.09,3.4-5.87c40.25,6.82,78.68,20.66,113.83,40.88,11.97,20.3,25.9,39.37,41.7,57.08ZM483.68,583.38l-.7-.41c.29.03.59.06.88.1l-.18.31ZM475.66,597.22l-18.53,32.01v-42.74l18.53,10.74ZM489.5,605.25l175.25,101.54c-29.88-7.84-60.72-11.81-92.15-11.81-39.68,0-78.41,6.3-115.47,18.76v-52.57l32.38-55.91ZM441.13,719.54c-3.26,1.27-6.52,2.58-9.75,3.94-4.71,1.99-9.36,4.1-13.97,6.28l23.73-40.98v30.75ZM393.4,760.72l47.73,82.43v72.35l-135.8-78.75c6.93-8.35,14.27-16.43,22.04-24.2,20.13-20.13,42.3-37.46,66.03-51.84ZM492.54,931.94l11.65,20.13-31-17.98c6.48-.55,12.93-1.26,19.35-2.15ZM509.44,929.19c25.33-4.74,50.07-12.17,74-22.29,6.01-2.54,11.92-5.25,17.75-8.09-2.84,5.83-5.55,11.75-8.09,17.76-10.14,23.98-17.57,48.75-22.32,74.12l-38.76-22.47-22.59-39.02ZM568.04,1007.59c-.88,6.35-1.59,12.73-2.13,19.14l-17.76-30.68,19.89,11.53ZM659.69,1060.73l79.47,46.08c-14.35,23.66-31.64,45.76-51.71,65.82-7.79,7.79-15.89,15.15-24.26,22.09l-77.59-133.99h74.09ZM698.76,1183.95c19.62-19.62,36.73-41.15,51.24-64.35,14.51,23.2,31.62,44.73,51.24,64.35,8.75,8.75,17.89,16.99,27.38,24.74l-78.73,135.77-78.58-135.71c9.51-7.77,18.68-16.03,27.45-24.8ZM812.55,1172.63c-20.07-20.07-37.36-42.17-51.71-65.83l79.46-46.08h74.11l-77.67,133.94c-8.35-6.93-16.43-14.27-24.19-22.03ZM934.08,1026.81c-.54-6.44-1.25-12.85-2.13-19.22l20.01-11.6-17.87,30.82ZM929.2,990.68c-4.74-25.37-12.18-50.15-22.32-74.12-2.54-6.01-5.25-11.92-8.1-17.76,5.84,2.85,11.75,5.56,17.77,8.1,23.97,10.14,48.75,17.57,74.12,22.31l-22.56,38.91-38.91,22.56ZM1007.58,931.96c6.37.88,12.78,1.59,19.22,2.13l-30.82,17.87,11.6-20.01ZM1067.99,827.78l38.81-66.93c23.66,14.35,45.76,31.64,65.82,51.71,7.77,7.77,15.11,15.85,22.04,24.2l-126.67,73.45v-82.43ZM1183.94,801.24c-19.62-19.62-41.15-36.73-64.35-51.24,23.2-14.51,44.73-31.62,64.35-51.24,8.77-8.77,17.03-17.93,24.8-27.45l135.71,78.58-135.76,78.73c-7.75-9.49-16-18.63-24.75-27.38ZM1172.62,687.45c-20.07,20.07-42.17,37.36-65.83,51.71l-38.81-66.93v-82.41l126.72,73.37c-6.94,8.37-14.3,16.47-22.09,24.26ZM1007.58,568.05l-11.53-19.89,30.68,17.76c-6.41.54-12.8,1.25-19.14,2.13ZM990.67,570.8c-25.37,4.74-50.14,12.18-74.12,22.31-6.01,2.54-11.93,5.26-17.77,8.1,2.85-5.84,5.56-11.76,8.1-17.77,10.12-23.93,17.55-48.67,22.29-74l39.02,22.59,22.47,38.76ZM931.93,492.55c.89-6.42,1.61-12.87,2.15-19.35l17.98,31.01-20.13-11.66ZM830.58,433.87l-69.87-40.46c14.38-23.74,31.71-45.91,51.84-66.03,7.77-7.77,15.85-15.11,24.19-22.03l74.53,128.52h-80.69ZM801.24,316.06c-19.62,19.62-36.73,41.15-51.24,64.35-14.51-23.2-31.62-44.73-51.24-64.35-8.77-8.77-17.94-17.04-27.45-24.8l78.58-135.71,78.73,135.77c-9.49,7.75-18.63,15.99-27.38,24.74ZM687.45,327.38c20.13,20.13,37.46,42.3,51.84,66.03l-69.88,40.46h-80.67l74.45-128.58c8.37,6.94,16.47,14.3,24.26,22.09ZM568.06,492.55l-20.01,11.59,17.87-30.86c.54,6.46,1.26,12.88,2.14,19.27ZM570.81,509.45c4.74,25.32,12.17,50.06,22.29,74,2.54,6.01,5.25,11.93,8.1,17.77-5.84-2.84-11.75-5.55-17.76-8.1-23.94-10.12-48.68-17.55-74-22.29l22.5-38.87,38.87-22.51ZM492.54,568.07c-6.39-.88-12.82-1.6-19.27-2.14l30.86-17.87-11.59,20.01ZM441.13,656.86l-47.73,82.42c-23.74-14.38-45.91-31.71-66.04-51.84-7.79-7.79-15.14-15.89-22.09-24.26l135.85-78.66v72.33ZM316.05,698.76c19.62,19.62,41.15,36.73,64.35,51.24-23.2,14.51-44.73,31.62-64.35,51.24-8.75,8.75-17,17.89-24.75,27.38l-135.76-78.73,135.71-78.58c7.77,9.51,16.03,18.67,24.8,27.45ZM281.36,841.35c-6.73,9.04-13.03,18.37-18.88,27.99-23.53-14.31-45.52-31.53-65.49-51.5-15.27-15.27-28.91-31.72-40.9-49.12l125.27,72.64ZM295.3,849.43l118.71,68.84c-48.76-3.9-95.47-17.89-137.7-40.96,5.85-9.56,12.18-18.87,18.98-27.88ZM301,906.9c44.73,18.92,92.25,28.51,141.22,28.51.44,0,.89-.01,1.33-.02l76.77,44.52,44.29,76.49c0,.46-.02.92-.02,1.38,0,48.97,9.59,96.49,28.51,141.22,4.74,11.2,10.01,22.09,15.8,32.68-50.5,27.76-107.45,42.53-166.68,42.53s-119.68-15.67-171.32-45.11c-29.43-51.64-45.11-110.28-45.11-171.32s14.77-116.18,42.53-166.68c10.59,5.78,21.48,11.06,32.68,15.8ZM581.73,1085.98l68.77,118.78c-9,6.79-18.28,13.1-27.82,18.93-23.07-42.23-37.06-88.94-40.96-137.71ZM658.58,1218.69l72.36,124.97c-17.28-11.93-33.61-25.49-48.77-40.65-19.97-19.97-37.19-41.96-51.5-65.49,9.59-5.83,18.9-12.11,27.92-18.82ZM841.34,1218.64c9.04,6.73,18.37,13.03,27.99,18.88-14.31,23.53-31.53,45.52-51.51,65.5-15.27,15.27-31.72,28.91-49.12,40.9l72.64-125.27ZM849.42,1204.7l68.83-118.71c-3.9,48.76-17.89,95.47-40.95,137.69-9.56-5.85-18.87-12.18-27.88-18.98ZM906.89,1199c18.92-44.73,28.51-92.25,28.51-141.22,0-.44-.01-.88-.02-1.33l44.43-76.63,76.62-44.43c.45,0,.89.02,1.34.02.66,0,1.31-.02,1.97-.02.08,0,.16.02.24.02.12,0,.23-.02.35-.02,48.07-.33,94.71-9.89,138.67-28.48,11.2-4.74,22.09-10.01,32.67-15.79,27.76,50.5,42.52,107.45,42.52,166.68s-15.68,119.69-45.11,171.33c-51.64,29.43-110.27,45.1-171.31,45.1s-116.18-14.77-166.69-42.53c5.78-10.59,11.06-21.48,15.79-32.68ZM1085.98,918.27l118.71-68.84c6.8,9.02,13.14,18.32,18.99,27.89-42.23,23.07-88.94,37.05-137.7,40.95ZM1218.63,841.35l125.28-72.65c-11.99,17.41-25.63,33.86-40.9,49.13-19.97,19.97-41.96,37.19-65.5,51.51-5.85-9.62-12.15-18.96-18.88-27.99ZM1218.68,658.58c6.71-9.02,12.99-18.33,18.83-27.92,23.54,14.31,45.53,31.53,65.5,51.51,15.16,15.16,28.73,31.5,40.66,48.78l-124.99-72.37ZM1204.74,650.51l-118.77-68.77c48.77,3.9,95.48,17.89,137.71,40.95-5.84,9.54-12.15,18.82-18.94,27.82ZM1199,593.11c-43.95-18.59-90.59-28.15-138.66-28.48-.2,0-.41-.01-.61,0-.65,0-1.3-.02-1.96-.02-.46,0-.93.02-1.39.02l-76.49-44.29-44.52-76.77c0-.45.02-.89.02-1.34,0-48.97-9.59-96.49-28.51-141.22-4.73-11.19-10.01-22.09-15.79-32.67,50.5-27.76,107.45-42.53,166.68-42.53s119.68,15.67,171.32,45.1c29.43,51.64,45.1,110.27,45.1,171.32s-14.77,116.18-42.53,166.68c-10.58-5.78-21.47-11.06-32.67-15.79ZM918.26,414.02l-68.84-118.71c9.02-6.8,18.32-13.14,27.89-18.99,23.06,42.23,37.05,88.93,40.95,137.69ZM841.34,281.37l-72.65-125.28c17.41,11.99,33.87,25.63,49.13,40.9,19.98,19.98,37.2,41.97,51.51,65.5-9.62,5.85-18.96,12.15-27.99,18.88ZM658.58,281.31c-9.02-6.71-18.33-12.99-27.92-18.83,14.31-23.53,31.53-45.52,51.51-65.5,15.17-15.17,31.5-28.73,48.78-40.66l-72.37,124.98ZM650.5,295.26l-68.77,118.78c3.9-48.77,17.89-95.48,40.95-137.71,9.54,5.83,18.82,12.15,27.82,18.94ZM593.1,301c-18.92,44.73-28.51,92.25-28.51,141.22,0,.46.02.93.02,1.39l-44.37,76.63-76.63,44.37c-.46,0-.92-.02-1.38-.02-48.98,0-96.49,9.59-141.22,28.51-11.2,4.74-22.09,10.01-32.68,15.79-27.76-50.5-42.53-107.46-42.53-166.69s15.67-119.67,45.1-171.31c51.64-29.43,110.28-45.11,171.33-45.11s116.17,14.77,166.68,42.52c-5.78,10.58-11.06,21.48-15.79,32.67ZM414.02,581.74l-118.77,68.77c-6.79-9-13.1-18.28-18.93-27.82,42.23-23.07,88.94-37.06,137.7-40.95ZM281.31,658.58l-124.97,72.36c11.93-17.28,25.49-33.61,40.65-48.77,19.97-19.97,41.96-37.19,65.5-51.51,5.83,9.59,12.11,18.9,18.82,27.92ZM572.6,1404.59c-92.64,0-179.73-36.07-245.23-101.58-14.72-14.72-27.94-30.54-39.61-47.25,4.37,2.06,8.77,4.05,13.24,5.94,44.73,18.92,92.25,28.51,141.22,28.51s96.49-9.59,141.22-28.51c11.45-4.84,22.58-10.26,33.39-16.19,15.08,24.92,33.14,47.95,54.02,68.82,19.3,19.3,40.46,36.19,63.23,50.54-49.2,25.95-104.28,39.72-161.49,39.72ZM1172.62,1303.01c-65.5,65.5-152.59,101.58-245.23,101.58-57.21,0-112.29-13.77-161.49-39.72,22.77-14.36,43.93-31.24,63.23-50.54,20.88-20.88,38.94-43.91,54.02-68.83,10.81,5.94,21.95,11.35,33.4,16.2,44.73,18.92,92.25,28.51,141.22,28.51s96.49-9.59,141.22-28.51c4.46-1.89,8.86-3.88,13.22-5.93-11.67,16.71-24.89,32.53-39.6,47.25ZM1404.59,927.4c0,92.64-36.07,179.73-101.58,245.23-14.72,14.72-30.54,27.94-47.26,39.62,2.06-4.37,4.05-8.78,5.94-13.25,18.92-44.73,28.51-92.25,28.51-141.22s-9.59-96.49-28.51-141.22c-4.84-11.45-10.26-22.58-16.19-33.39,24.92-15.08,47.95-33.14,68.83-54.02,19.3-19.3,36.19-40.46,50.54-63.23,25.95,49.2,39.72,104.28,39.72,161.49ZM1303.01,327.38c65.5,65.5,101.58,152.59,101.58,245.23,0,57.21-13.77,112.29-39.72,161.49-14.36-22.77-31.24-43.93-50.54-63.23-20.88-20.88-43.91-38.94-68.83-54.02,5.94-10.81,11.35-21.94,16.2-33.4,18.92-44.73,28.51-92.25,28.51-141.22s-9.59-96.49-28.51-141.22c-1.89-4.46-3.88-8.87-5.93-13.23,16.72,11.67,32.54,24.89,47.26,39.61ZM927.39,95.41c92.64,0,179.73,36.07,245.23,101.58,14.72,14.72,27.94,30.54,39.61,47.26-4.37-2.05-8.77-4.05-13.23-5.93-44.73-18.92-92.25-28.51-141.22-28.51s-96.49,9.59-141.22,28.51c-11.45,4.84-22.58,10.26-33.4,16.2-15.08-24.92-33.14-47.95-54.02-68.83-19.3-19.3-40.46-36.19-63.23-50.54,49.2-25.95,104.28-39.72,161.49-39.72ZM327.37,196.99c65.5-65.5,152.59-101.58,245.23-101.58,57.21,0,112.29,13.77,161.49,39.72-22.77,14.36-43.93,31.24-63.23,50.54-20.88,20.88-38.94,43.91-54.02,68.83-10.81-5.94-21.94-11.35-33.39-16.19-44.73-18.92-92.25-28.51-141.22-28.51s-96.49,9.59-141.22,28.51c-4.47,1.89-8.87,3.88-13.25,5.94,11.67-16.72,24.9-32.54,39.62-47.26ZM95.41,572.6c0-92.64,36.07-179.73,101.58-245.23,14.72-14.72,30.53-27.93,47.25-39.6-2.05,4.36-4.04,8.77-5.93,13.22-18.92,44.73-28.51,92.25-28.51,141.22s9.59,96.49,28.51,141.22c4.84,11.45,10.26,22.59,16.2,33.4-24.92,15.08-47.95,33.14-68.83,54.02-19.3,19.3-36.19,40.46-50.54,63.23-25.95-49.2-39.72-104.28-39.72-161.49Z"/></svg>