<?xml version="1.0" encoding="UTF-8"?><svg id="Layer_2" xmlns="http://www.w3.org/2000/svg" xmlns:xlink="http://www.w3.org/1999/xlink" viewBox="0 0 1500 1500"><defs><style>.cls-1{fill:url(#New_Gradient_Swatch_2);stroke-width:0px;}</style><linearGradient id="New_Gradient_Swatch_2" x1="133.48" y1="1105.95" x2="1366.52" y2="394.05" gradientUnits="userSpaceOnUse"><stop offset="0" stop-color="#56450d"/><stop offset=".21" stop-color="#e5c787"/><stop offset=".39" stop-color="#f7d976"/><stop offset=".99" stop-color="#725728"/></linearGradient></defs><path class="cls-1" d="M94.2,1027.04c35.85,84.75,87.17,160.87,152.53,226.23s141.48,116.68,226.23,152.53c87.75,37.12,180.96,55.94,277.04,55.94s189.29-18.82,277.04-55.94c84.75-35.85,160.87-87.17,226.23-152.53s116.68-141.48,152.53-226.23c37.12-87.75,55.94-180.96,55.94-277.04s-18.82-189.29-55.94-277.04c-35.85-84.75-87.17-160.87-152.53-226.23s-141.48-116.68-226.23-152.53c-87.75-37.12-180.96-55.94-277.04-55.94s-189.29,18.82-277.04,55.94c-84.75,35.85-160.87,87.17-226.23,152.53s-116.68,141.48-152.53,226.23c-37.12,87.75-55.94,180.96-55.94,277.04s18.82,189.29,55.94,277.04ZM108.94,1020.81c-36.28-85.77-54.67-176.88-54.67-270.81,0-67.71,9.56-133.96,28.49-197.79l243.62,749.79c-23.92-18.41-46.73-38.44-68.33-60.04-63.9-63.9-114.06-138.3-149.1-221.15ZM732.63,726.7h34.73l10.56,32.14-27.92,20.06-27.92-20.06,10.56-32.14ZM708.45,749.05l-31.11-22.35h38.45l-7.34,22.35ZM737.89,710.7l12.11-36.88,12.11,36.88h-24.22ZM784.21,726.7h38.45l-31.11,22.35-7.34-22.35ZM783.16,774.78l12.01,36.56-31.45-22.6,19.44-13.97ZM736.29,788.75l-31.45,22.6,12.01-36.56,19.44,13.97ZM750,798.6l35.57,25.55h-71.14l35.57-25.55ZM796.78,764.99l35.52-25.51-21.9,66.98-13.62-41.47ZM778.95,710.7l-13.66-41.58,57.5,41.58h-43.84ZM721.05,710.7h-43.84l57.5-41.58-13.66,41.58ZM703.22,764.99l-13.62,41.47-21.9-66.98,35.52,25.51ZM799.39,840.15l-49.39,151.08-49.39-151.08h98.77ZM851.7,731.61l127.97,92.54h-158.22l30.25-92.54ZM763.65,648.19l128.98-93.27-49.32,150.88-79.66-57.61ZM656.69,705.79l-49.32-150.88,128.98,93.27-79.66,57.61ZM678.55,824.15h-158.22l127.97-92.54,30.25,92.54ZM683.78,840.15l50.94,155.84-214.49-155.84h163.55ZM816.22,840.15h163.55l-214.49,155.84,50.94-155.84ZM856.92,715.64l50.92-155.77,81.39,251.45-132.31-95.69ZM750,638.31l-133.17-96.3h266.33l-133.17,96.3ZM643.08,715.64l-132.31,95.69,81.39-251.45,50.92,155.77ZM736.39,1016.98l-382.05,277.57,145.48-449.44,236.56,171.87ZM1000.17,845.11l145.48,449.44-382.05-277.57,236.56-171.87ZM918.88,542.01h471.24l-381.52,277.19-89.73-277.19ZM603.12,526.01l146.88-453.77,146.88,453.77h-293.77ZM491.4,819.2L109.88,542.01h471.24l-89.73,277.19ZM486.21,835.21l-147.06,454.32L100.47,554.96l385.74,280.26ZM750,1026.87l386.21,280.6H363.79l386.21-280.6ZM1013.79,835.21l385.74-280.26-238.68,734.58-147.06-454.32ZM913.7,526.01l-146.5-452.58,622.92,452.58h-476.42ZM586.3,526.01H109.88L732.8,73.43l-146.5,452.58ZM1020.81,1391.06c-85.77,36.28-176.88,54.67-270.81,54.67s-185.04-18.39-270.81-54.67c-43.55-18.42-84.76-41.02-123.34-67.6h788.29c-38.58,26.57-79.79,49.18-123.34,67.6ZM1391.06,1020.81c-35.04,82.85-85.21,157.25-149.1,221.15-21.6,21.6-44.41,41.63-68.33,60.04l243.62-749.79c18.93,63.84,28.49,130.08,28.49,197.79,0,93.93-18.39,185.04-54.67,270.81ZM1241.96,258.04c63.9,63.9,114.06,138.3,149.1,221.15,5.4,12.75,10.38,25.63,14.99,38.61L768.37,54.51c87.44,2.24,172.27,20.52,252.43,54.43,82.85,35.04,157.25,85.21,221.15,149.1ZM108.94,479.19c35.04-82.85,85.21-157.25,149.1-221.15,63.9-63.9,138.3-114.06,221.15-149.1,80.16-33.91,165-52.19,252.43-54.43L93.95,517.8c4.6-12.98,9.59-25.86,14.99-38.61Z"/></svg>