<?xml version="1.0" encoding="UTF-8"?><svg id="Layer_2" xmlns="http://www.w3.org/2000/svg" xmlns:xlink="http://www.w3.org/1999/xlink" viewBox="0 0 1500 1500"><defs><style>.cls-1{fill:url(#New_Gradient_Swatch_2);stroke-width:0px;}</style><linearGradient id="New_Gradient_Swatch_2" x1="122.63" y1="1112.21" x2="1377.37" y2="387.79" gradientUnits="userSpaceOnUse"><stop offset="0" stop-color="#56450d"/><stop offset=".21" stop-color="#e5c787"/><stop offset=".39" stop-color="#f7d976"/><stop offset=".99" stop-color="#725728"/></linearGradient></defs><path class="cls-1" d="M1377.38,387.79l-168.11-97.06-97.06-168.1h-194.1l-168.12-97.06-168.11,97.06h-194.1l-97.05,168.1-168.11,97.06v194.11l-97.06,168.1,97.06,168.11v194.11l168.11,97.06,97.05,168.1h194.1l168.11,97.06,168.12-97.06h194.1l97.06-168.1,168.11-97.06v-194.11l97.06-168.11-97.06-168.1v-194.11ZM1361.38,397.02v157.16l-65.74-113.86h0s-70.36-121.87-70.36-121.87l136.11,78.58ZM1197.56,302.44l74.98,129.87h-101.62v-145.25l26.64,15.38ZM972.46,1107.6l69.12-39.91h113.33v145.25l-182.45-105.34ZM742,1212.94l-109.61-63.28-36.42-63.09,32.7-18.88h113.33v145.25ZM436.31,578.13l34.57,19.96-56.66,98.14-32.71,18.89-36.42-63.09v-126.56l91.23,52.67ZM1055.69,564.27l-34.57,19.96-56.66-98.13v-37.78h72.84l109.62,63.29-91.23,52.67ZM948.46,1093.74l-22.57-13.03,5.83-10.1,5.06,2.92v-5.85h11.67v26.05ZM857.23,1041.07l-91.23-52.67,11.67-6.74,121.29,70.03h-23.33l-18.39-10.62ZM948.46,432.31h-11.67v-5.86l-5.07,2.93-5.83-10.09,22.57-13.03v26.05ZM624.37,1051.69h-23.33l121.28-70.02,11.66,6.73-91.23,52.67-18.39,10.62ZM722.34,536.81l11.66,6.73-70.47,40.69-5.83-10.1,64.64-37.32ZM849.23,683.47l-77.38,44.67,70.47-122.06,70.47,40.69-63.57,36.7ZM671.53,598.08l70.47-40.68v162.74l-70.47-122.05ZM598.46,671.74l121.68,70.25h-140.93v-81.37l19.25,11.11ZM720.14,758l-140.93,81.37v-81.37h140.93ZM742,779.85v162.74l-70.46-40.68,70.46-122.05ZM758,779.85l70.47,122.06-70.47,40.69v-162.74ZM835.79,882.6l-63.94-110.75,24.12,13.93,116.82,67.45-70.47,40.69-6.53-11.31ZM857.23,802.67l-77.38-44.67h140.94v81.37l-63.56-36.7ZM779.85,742l41.95-24.22,98.99-57.15v81.37h-140.94ZM936.79,632.92v-4.24l3.67,2.12-3.67,2.12ZM920.79,632.91l-70.47-40.68,3.82-6.62,2.01-3.48,64.64,37.31v13.47ZM820.1,612.58l-62.1,107.56v-162.75l70.47,40.69-8.37,14.5ZM758,525.46l3.66,2.11-3.66,2.11v-4.23ZM742,529.68l-3.66-2.11,3.66-2.11v4.22ZM728.14,728.14l-140.94-81.37,70.47-40.69,70.47,122.06ZM555.2,646.77l-3.67,2.12v-4.24l3.67,2.12ZM563.21,660.62v81.37h-11.67v-74.63l11.67-6.74ZM535.54,742h-113.27l113.27-65.4v65.4ZM535.54,758v65.4l-113.27-65.4h113.27ZM551.54,758h11.67v81.37l-11.67-6.74v-74.63ZM555.2,853.22l-3.67,2.12v-4.24l3.67,2.12ZM728.14,771.85l-70.47,122.06-70.47-40.69,140.94-81.37ZM663.53,915.76l70.47,40.69-11.67,6.74-64.63-37.32,5.83-10.1ZM742,970.31v4.23l-3.66-2.11,3.66-2.11ZM758,970.3l3.67,2.12-3.67,2.12v-4.24ZM766,956.45l70.47-40.68,5.83,10.1-64.63,37.31-11.66-6.73ZM850.32,907.77l70.47-40.69v13.47l-64.64,37.32-5.83-10.1ZM936.79,867.07l3.67,2.12-3.67,2.12v-4.24ZM944.8,853.22l3.67-2.12v4.24l-3.67-2.12ZM936.79,839.37v-81.37h11.67v74.63l-11.67,6.74ZM964.46,758h113.27l-113.27,65.4v-65.4ZM964.46,742v-65.4l113.27,65.4h-113.27ZM948.46,742h-11.67v-81.37l11.67,6.74v74.63ZM944.8,646.77l3.67-2.12v4.24l-3.67-2.12ZM842.3,574.13l-5.83,10.1-70.47-40.68,11.66-6.73,4.69,2.71,59.96,34.61ZM649.7,560.27l-56.64-98.1,113.28,65.4-56.64,32.7ZM649.67,592.23l-70.46,40.68v-13.47l64.63-37.31,5.83,10.1ZM559.54,630.8l3.67-2.12v4.24l-3.67-2.12ZM535.54,658.12l-121.28,70.02,11.67-20.21,109.61-63.28v13.47ZM535.54,841.87v13.47l-109.61-63.28-11.67-20.21,121.28,70.02ZM563.21,867.07v4.24l-3.67-2.12,3.67-2.12ZM579.21,867.08l70.47,40.68-5.83,10.1-64.63-37.32v-13.47ZM649.7,939.73l56.63,32.7-113.26,65.39,56.63-98.09ZM964.46,841.87l121.28-70.02-11.66,20.2-109.61,63.29v-13.47ZM964.46,658.12v-13.47l109.61,63.29,11.67,20.2-121.28-70.02ZM864.16,568.27l56.64-98.09v130.79l-56.64-32.69ZM914.94,432.31h-11.6l8.7-5.02,2.9,5.02ZM850.3,560.27l-56.64-32.7,113.28-65.4-56.64,98.1ZM722.34,518.33l-121.27-70.02h23.31l109.62,63.29-11.65,6.73ZM398.21,723.93l-5.81,10.06-2.9-5.03,8.71-5.03ZM381.48,747.07l-5.07,2.93,5.07,2.93-5.83,10.1-22.57-13.03,22.57-13.03,5.83,10.1ZM392.4,766l5.81,10.06-8.71-5.03,2.9-5.03ZM821.8,956.18l28.49-16.45,56.63,98.09-113.27-65.4,28.14-16.25ZM864.15,931.73l56.64-32.7v130.79l-56.64-98.1ZM1101.79,776.05l5.81-10.05,2.9,5.03-8.71,5.03ZM1101.79,723.94l8.71,5.03-2.9,5.03-5.81-10.06ZM964.46,616.94v-98.84l42.8,74.13-42.8,24.71ZM948.46,616.94l-11.67-6.74v-140.04l11.67,20.22v126.56ZM942.65,448.31h5.81v10.07l-5.81-10.07ZM875.62,448.31h23.31l-121.28,70.02-11.66-6.73,55.81-32.22,53.82-31.07ZM596.66,432.31h-11.6l2.9-5.02,8.7,5.02ZM635.84,568.27l-56.63,32.69v-130.79l56.63,98.09ZM527.53,630.8l-32.37,18.69-53.24,30.74,42.8-74.14,42.8,24.71ZM527.54,869.19l-42.8,24.71-42.8-74.14,85.61,49.43ZM635.84,931.73l-56.63,98.1v-130.79l56.63,32.7ZM585.06,1067.69h11.6l-8.7,5.02-2.9-5.02ZM914.94,1067.69l-2.9,5.02-8.7-5.02h11.6ZM942.65,1051.69l5.81-10.07v10.07h-5.81ZM936.79,1029.83v-140.04l11.67-6.74v126.56l-11.67,20.22ZM964.46,883.05l42.8,24.71-42.8,74.14v-98.85ZM972.46,869.19l85.61-49.43-42.81,74.14-42.8-24.71ZM1124.35,763.02l-5.83-10.1,5.07-2.93-5.07-2.93,5.83-10.1,15.59,9,6.98,4.03-21.84,12.61-.72.42ZM972.46,630.8l42.8-24.71,42.81,74.14-85.61-49.43ZM964.46,432.31v-26.05l45.12,26.05h-45.12ZM814.72,465l-56.73,32.75v-49.43h85.63l-28.9,16.68ZM742,497.75l-85.62-49.43h85.62v49.43ZM574.1,419.29l-5.83,10.09-5.07-2.93v5.86h-11.67v-26.05l22.57,13.03ZM557.35,448.31l-5.81,10.07v-10.07h5.81ZM563.21,470.16v140.04l-11.67,6.74v-126.56l11.67-20.22ZM535.54,616.94l-42.8-24.71,42.8-74.13v98.84ZM367.64,723.11l-22.57,13.03v-52.12l22.57,39.09ZM345.08,763.85l22.57,13.03-22.57,39.09v-52.12ZM381.5,784.88l32.71,18.89,56.66,98.14-125.8,72.63v-126.57l36.43-63.09ZM535.54,883.05v98.85l-42.8-74.14,42.8-24.71ZM551.54,883.05l11.67,6.74v140.04l-11.67-20.22v-126.56ZM557.35,1051.69h-5.81v-10.07l5.81,10.07ZM563.21,1067.69v5.85l5.06-2.92,5.83,10.1-22.57,13.03v-26.05h11.67ZM582.1,1094.56l22.57,39.09-45.14-26.06,22.57-13.03ZM656.37,1051.69l85.62-49.43v49.43h-85.62ZM758,1002.25l85.63,49.43h-85.63v-49.43ZM964.46,1067.69h45.12l-45.12,26.05v-26.05ZM964.46,1051.69v-37.78l56.66-98.14,124.51,71.89,1.28.74-109.62,63.29h-72.83ZM1153.64,973.8l-124.51-71.89,56.66-98.15,32.71-18.89,36.42,63.08v126.58l-1.28-.74ZM1132.35,776.88l4.54-2.62,18.02-10.41v52.1l-22.56-39.08ZM1132.35,723.11l22.56-39.08v52.1l-22.56-13.03ZM1118.5,715.11l-32.71-18.89-56.66-98.14,89.73-51.81,36.06-20.82v126.58l-36.42,63.07ZM1069.3,448.31h85.62v49.43l-85.62-49.43ZM1041.59,432.31l-69.12-39.91,182.45-105.34v145.25h-113.33ZM917.89,405.44l-22.57-39.09,45.14,26.06-22.57,13.03ZM904.04,413.43l-32.7,18.88h-113.34v-145.25l109.62,63.29,36.42,63.09ZM766,273.21l42.81-24.72,42.81,74.15-85.62-49.43ZM742,287.06v145.25h-113.33l-32.7-18.88,36.42-63.09,109.61-63.28ZM648.38,322.63l42.8-74.14,42.81,24.72-85.61,49.43ZM582.1,405.44l-22.57-13.03,45.14-26.06-22.57,39.09ZM535.54,432.31h-45.13l45.13-26.05v26.05ZM535.54,448.31v37.78l-56.66,98.13-34.57-19.96-91.23-52.67,109.62-63.29h72.84ZM345.08,497.75v-49.43h85.62l-85.62,49.43ZM329.08,506.99l-50.8,29.33-50.81-88h101.61v58.67ZM329.08,525.46v98.85l-42.8-74.14,42.8-24.71ZM329.08,656.31v79.83l-182.45-105.34,125.79-72.62,56.66,98.14ZM329.08,843.69l-56.66,98.14-125.79-72.63,182.45-105.34v79.83ZM329.08,875.69v98.85l-42.8-24.71,42.8-74.14ZM329.08,993.01h0v58.67h-101.61l50.81-88,50.8,29.33ZM345.08,1002.25l85.62,49.43h-85.62v-49.43ZM353.08,988.4l91.23-52.67,34.57-19.96,56.66,98.14v37.78h-72.84l-109.62-63.29ZM535.54,1067.69v26.05l-45.13-26.05h45.13ZM620.67,1161.37l56.66,98.14-125.8,72.63v-210.69l69.14,39.92ZM648.38,1177.37l85.61,49.43-42.81,24.72-42.8-74.14ZM758,1212.94v-145.25h113.34l15.31,8.84,17.39,10.04-36.42,63.09-109.62,63.29ZM851.61,1177.37l-42.81,74.15-42.81-24.72,85.62-49.43ZM917.89,1094.56l22.57,13.03-45.14,26.06,22.57-39.09ZM1069.3,1051.69l85.62-49.43v49.43h-85.62ZM1170.92,993.01l50.81-29.34,50.81,88.01h-101.62v-58.67ZM1170.92,974.54v-98.87l42.81,74.15-42.81,24.72ZM1170.92,843.67v-79.82l182.46,105.34-125.79,72.63-56.67-98.15ZM1170.92,656.32l56.67-98.15,125.79,72.62-182.46,105.34v-79.81ZM1170.92,624.33v-98.86l42.81,24.72-42.81,74.15ZM1170.92,506.99v-58.67h101.62l-50.81,88-50.81-29.33ZM964.46,378.55v-210.69l182.45,105.34-182.45,105.34ZM948.46,378.55l-69.14-39.92-56.66-98.14,125.8-72.63v210.69ZM814.66,226.63l-50.81-88.01h149.97l26.64,15.38-125.8,72.63ZM800.81,234.63l-50.81,29.33-50.81-29.33,50.81-88.01,50.81,88.01ZM685.33,226.63l-125.8-72.63,26.64-15.38h149.96l-50.81,88.01ZM677.33,240.49l-56.66,98.14-69.14,39.92v-210.69l125.8,72.63ZM535.54,378.55l-182.46-105.34,182.46-105.34v210.69ZM527.54,392.4l-69.13,39.91h-113.33v-145.25l182.46,105.34ZM329.08,432.31h-101.61l74.99-129.88,26.63-15.37v145.25ZM264.41,544.32l-125.79,72.62v-30.76l74.98-129.86,50.81,88ZM321.08,750l-182.45,105.34v-210.69l182.45,105.34ZM264.41,955.68l-50.81,88-74.98-129.87v-30.76l125.79,72.63ZM329.08,1067.69v145.25l-26.63-15.37-74.99-129.88h101.61ZM345.08,1067.69h113.33l69.13,39.91-182.46,105.34v-145.25ZM535.54,1121.45v210.69l-182.46-105.34,182.46-105.34ZM685.33,1273.37l50.81,88.01h-149.96l-26.64-15.38,125.8-72.63ZM699.19,1265.37l50.81-29.33,50.81,29.33-50.81,88.01-50.81-88.01ZM814.66,1273.37l125.8,72.63-26.64,15.38h-149.97l50.81-88.01ZM822.66,1259.51l56.66-98.14,69.14-39.92v210.69l-125.8-72.63ZM964.46,1121.45l182.45,105.34-182.45,105.34v-210.69ZM1170.92,1067.69h101.62l-74.98,129.87-26.64,15.38v-145.25ZM1235.58,955.68l125.79-72.63v30.76l-74.98,129.87-50.81-88.01ZM1178.92,750l182.46-105.34v210.69l-182.46-105.34ZM1235.58,544.32l50.81-88,74.98,129.86v30.76l-125.79-72.62ZM1102.98,138.62l78.58,136.1-16.02-9.25-201.07-116.09h0l-6.94-4.01-1.06-.61h0l-10.64-6.14h157.15ZM750,44.04l136.11,78.58h-272.22l136.11-78.58ZM397.02,138.62h157.15l-10.64,6.14h0l-206.46,119.2h0l-.85.49-7.15,4.13h0l-10.63,6.14,78.58-136.1ZM138.63,397.02l136.11-78.59-70.37,121.88h0s-65.74,113.87-65.74,113.87v-157.16ZM44.04,750l78.58-136.1v272.21l-78.58-136.11ZM138.63,1102.98v-157.16l65.74,113.87h0s70.37,121.88,70.37,121.88l-136.11-78.59ZM397.02,1361.37l-78.58-136.1,10.63,6.14h0l4.85,2.8,3.15,1.82h0l198.46,114.58h0l18.64,10.76h-157.15ZM750,1455.96l-136.11-78.58h272.22l-136.11,78.58ZM1102.98,1361.37h-157.15l10.64-6.14h0l.99-.57,7.01-4.05h0l198.69-114.72,18.4-10.62-78.58,136.1ZM1361.38,1102.98l-136.11,78.58,70.36-121.87h0s65.74-113.87,65.74-113.87v157.16ZM1455.96,750l-78.58,136.11v-272.21l78.58,136.1Z"/></svg>