<?xml version="1.0" encoding="UTF-8"?><svg id="Layer_2" xmlns="http://www.w3.org/2000/svg" xmlns:xlink="http://www.w3.org/1999/xlink" viewBox="0 0 1500 1500"><defs><style>.cls-1{fill:url(#New_Gradient_Swatch_2);stroke-width:0px;}</style><linearGradient id="New_Gradient_Swatch_2" x1="188.85" y1="1073.98" x2="1311.14" y2="426.02" gradientUnits="userSpaceOnUse"><stop offset="0" stop-color="#56450d"/><stop offset=".21" stop-color="#e5c787"/><stop offset=".39" stop-color="#f7d976"/><stop offset=".99" stop-color="#725728"/></linearGradient></defs><path class="cls-1" d="M1488.05,744.14l-179.67-311.19h0s-184.29-319.19-184.29-319.19v-11.71l-10.14,5.86H386.04l-10.14-5.86v11.71l-179.67,311.19h0l-3.16,5.47-1.46,2.53h0S11.95,744.14,11.95,744.14l-10.14,5.86,10.14,5.86,179.66,311.19h0s1.5,2.6,1.5,2.6l3.12,5.4h0l179.67,311.19v11.71l10.14-5.86h727.9l10.14,5.86v-11.71l184.29-319.19h0s179.67-311.19,179.67-311.19l10.14-5.86-10.14-5.86ZM1108.09,1370.24l-255.64-147.59,85.22-147.6h170.42v295.19ZM750,1368.1l-80.6-139.6,80.59-46.53,80.6,46.53-80.6,139.59ZM391.9,1075.05h170.43l85.22,147.6-255.65,147.6v-295.19ZM391.9,129.76l255.65,147.6-85.22,147.6h-170.43V129.76ZM750,131.9l80.6,139.6-80.6,46.53-80.59-46.53,80.6-139.6ZM1108.09,424.95h-170.42l-85.22-147.6,255.64-147.59v295.19ZM925.05,742h-161.19l80.6-139.59,80.6,46.53v93.06ZM941.05,658.18l145.18,83.82h-145.18v-83.82ZM852.45,588.55l72.6-125.74v167.66l-72.6-41.91ZM838.6,580.55l-72.6-41.91,145.19-83.83-72.6,125.74ZM830.6,594.41l-80.6,139.59-80.6-139.6,80.59-46.53,80.6,46.53ZM661.4,580.55l-72.6-125.74,145.19,83.83-72.59,41.91ZM647.55,588.55l-72.6,41.91v-167.65l72.6,125.74ZM655.55,602.4l80.6,139.6h-161.19v-93.06l80.6-46.53ZM558.95,742h-145.19l145.19-83.83v83.83ZM558.95,758v83.83l-145.19-83.83h145.19ZM574.95,758h161.19l-80.6,139.6-80.6-46.53v-93.06ZM647.55,911.45l-72.6,125.74v-167.65l72.6,41.91ZM661.4,919.45l72.59,41.91-145.19,83.83,72.6-125.74ZM669.4,905.6l80.6-139.6,80.6,139.59-80.6,46.53-80.59-46.53ZM838.6,919.45l72.6,125.74-145.19-83.83,72.6-41.91ZM852.45,911.45l72.6-41.91v167.66l-72.6-125.74ZM844.45,897.59l-80.6-139.59h161.19v93.06l-80.6,46.53ZM941.05,758h145.18l-145.18,83.82v-83.82ZM941.05,639.7v-176.89l153.18,265.34-153.18-88.44ZM750,529.4l-153.19-88.45h306.39l-153.2,88.45ZM558.95,639.7l-153.19,88.45,153.19-265.34v176.89ZM558.95,860.3v176.89l-153.19-265.34,153.19,88.45ZM750,970.6l153.2,88.45h-306.39l153.19-88.45ZM941.05,860.3l153.18-88.44-153.18,265.34v-176.89ZM954.9,454.81l153.19,88.44v176.89l-153.19-265.34ZM596.81,424.95l153.19-88.45,153.2,88.45h-306.39ZM391.9,720.14v-176.89l153.19-88.45-153.19,265.34ZM545.09,1045.19l-153.19-88.45v-176.89l153.19,265.34ZM903.19,1075.05l-153.2,88.45-153.19-88.45h306.39ZM1108.09,779.86v176.89l-153.19,88.44,153.19-265.34ZM1124.09,552.49l72.6,41.92-72.6,125.74v-167.66ZM1124.09,534.01v-93.06h161.19l-80.6,139.59-80.6-46.53ZM1108.09,524.77l-145.18-83.82h145.18v83.82ZM911.19,411.09l-145.19-83.83,72.6-41.91,72.6,125.74ZM734,327.27l-145.19,83.83,72.6-125.74,72.59,41.91ZM537.09,440.95l-145.19,83.83v-83.83h145.19ZM375.9,534.02l-80.6,46.53-80.6-139.6h161.19v93.07ZM375.9,552.49v167.65l-72.6-125.74,72.6-41.91ZM374.66,750h0s0,0,0,0l-85.21,147.59-255.64-147.59,255.64-147.59,85.21,147.59ZM375.9,779.86v167.65l-72.6-41.91,72.6-125.74ZM375.9,965.98v93.07h-161.19l80.6-139.6,80.6,46.53ZM391.9,975.22l145.19,83.83h-145.19v-83.83ZM588.81,1088.91l145.19,83.83-72.59,41.91-72.6-125.74ZM766,1172.73l145.19-83.83-72.6,125.74-72.6-41.91ZM962.91,1059.05l145.18-83.82v83.82h-145.18ZM1124.09,965.99l80.6-46.53,80.6,139.59h-161.19v-93.06ZM1124.09,947.51v-167.66l72.6,125.74-72.6,41.92ZM1125.33,750l85.22-147.6,255.65,147.6-255.65,147.6-85.22-147.6ZM1460.33,728.14l-241.79-139.6,80.6-139.59,161.19,279.19ZM1285.28,424.95h-161.19V145.76l161.19,279.19ZM1086.23,123.9l-241.78,139.59-80.6-139.59h322.38ZM736.14,123.9l-80.6,139.6-241.79-139.6h322.39ZM375.9,145.76v279.19h-161.19l161.19-279.19ZM200.85,448.95l80.6,139.6-241.78,139.59,161.19-279.19ZM39.67,771.86l241.78,139.6-80.6,139.6L39.67,771.86ZM214.71,1075.05h161.19v279.19l-161.19-279.19ZM413.76,1376.1l241.79-139.6,80.6,139.6h-322.39ZM763.86,1376.1l80.6-139.59,241.78,139.59h-322.38ZM1124.09,1075.05h161.19l-161.19,279.19v-279.19ZM1299.14,1051.05l-80.6-139.59,241.79-139.6-161.19,279.19Z"/></svg>