<?xml version="1.0" encoding="UTF-8"?><svg id="Layer_2" xmlns="http://www.w3.org/2000/svg" xmlns:xlink="http://www.w3.org/1999/xlink" viewBox="0 0 1500 1500"><defs><style>.cls-1{fill:url(#New_Gradient_Swatch_2);stroke-width:0px;}</style><linearGradient id="New_Gradient_Swatch_2" x1="49.19" y1="1254.6" x2="1277.6" y2="545.38" gradientUnits="userSpaceOnUse"><stop offset="0" stop-color="#56450d"/><stop offset=".21" stop-color="#e5c787"/><stop offset=".39" stop-color="#f7d976"/><stop offset=".99" stop-color="#725728"/></linearGradient></defs><path class="cls-1" d="M750,40.77l-354.4,204.61v400L49.2,845.38v409.23l354.4,204.61,346.4-200,346.4,199.99,354.4-204.61v-409.23l-346.4-200V245.39L750,40.77ZM411.6,263.86l330.4,190.76v381.51l-330.4-190.76v-381.52ZM758,836.14v-381.51l330.4-190.76v381.52l-330.4,190.76ZM733.99,850l-330.39,190.76-330.4-190.75,330.4-190.76,330.39,190.75ZM411.6,1054.61l330.4-190.76v381.53l-330.4,190.76v-381.52ZM758,863.85l330.4,190.77v381.51l-330.4-190.76v-381.52ZM1096.4,1040.76l-330.4-190.77,330.4-190.75,330.4,190.76-330.4,190.76ZM1080.4,250.01l-330.4,190.76-330.4-190.76L750,59.25l330.4,190.76ZM65.2,863.86l330.4,190.75v381.52l-330.4-190.76v-381.51ZM1104.4,1436.13v-381.51l330.4-190.76v381.52l-330.4,190.76Z"/></svg>