<?xml version="1.0" encoding="UTF-8"?><svg id="Layer_2" xmlns="http://www.w3.org/2000/svg" xmlns:xlink="http://www.w3.org/1999/xlink" viewBox="0 0 1500 1500"><defs><style>.cls-1{fill:url(#New_Gradient_Swatch_2);stroke-width:0px;}</style><linearGradient id="New_Gradient_Swatch_2" x1="125.19" y1="1110.45" x2="1375.02" y2="388.86" gradientUnits="userSpaceOnUse"><stop offset="0" stop-color="#56450d"/><stop offset=".21" stop-color="#e5c787"/><stop offset=".39" stop-color="#f7d976"/><stop offset=".99" stop-color="#725728"/></linearGradient></defs><path class="cls-1" d="M239.97,1259.75c66.24,66.24,143.38,118.25,229.27,154.58,88.93,37.61,183.39,56.69,280.76,56.69s191.83-19.07,280.76-56.69c85.89-36.33,163.03-88.34,229.27-154.58,40.53-40.53,75.73-85.15,105.27-133.36,6.91-10.64,13.26-21.63,19.03-32.97,11.06-20.41,21.16-41.4,30.27-62.94,37.61-88.93,56.69-183.39,56.69-280.76s-19.07-191.83-56.69-280.76c-9.11-21.54-19.21-42.53-30.27-62.94-5.77-11.34-12.13-22.34-19.04-32.98-29.54-48.2-64.73-92.82-105.27-133.35-66.24-66.24-143.38-118.25-229.27-154.58-88.93-37.61-183.39-56.69-280.76-56.69s-191.83,19.07-280.76,56.69c-85.89,36.33-163.03,88.34-229.27,154.58s-118.25,143.38-154.58,229.27c-37.61,88.93-56.69,183.39-56.69,280.76s19.07,191.83,56.69,280.76c36.33,85.89,88.34,163.03,154.58,229.27ZM194.85,324.86c62.53-62.53,144.64-98.36,232.5-101.82-4.82,9.14-9.28,18.5-13.34,28.08-19.02,44.96-28.66,92.72-28.66,141.94s9.64,96.98,28.66,141.94c4.14,9.79,8.7,19.34,13.64,28.66-44.38,1.63-87.45,11.14-128.22,28.38-43.42,18.37-82.42,44.66-115.91,78.14-19.42,19.42-36.4,40.7-50.83,63.61-26.11-49.48-39.97-104.88-39.97-162.41,0-93.13,36.27-180.68,102.12-246.53ZM1351.04,380.39c7.21,11.72,14.08,23.66,20.6,35.81,23.71,47.62,36.26,100.44,36.26,155.19,0,57.54-13.86,112.94-39.97,162.41-14.44-22.91-31.42-44.19-50.83-63.61-33.49-33.49-72.48-59.78-115.91-78.14-40.96-17.32-84.24-26.84-128.84-28.4,4.93-9.32,9.49-18.86,13.63-28.64,19.02-44.96,28.66-92.72,28.66-141.94s-9.64-96.98-28.66-141.94c-4.06-9.59-8.52-18.96-13.35-28.11,88.11,3.3,170.46,39.15,233.15,101.84,17.13,17.13,32.24,35.74,45.25,55.53ZM1371.64,1083.23c-6.52,12.15-13.39,24.09-20.6,35.81-13.01,19.79-28.12,38.4-45.25,55.53-62.69,62.69-145.04,98.54-233.15,101.84,4.82-9.15,9.29-18.51,13.35-28.11,19.02-44.96,28.66-92.72,28.66-141.94s-9.64-96.98-28.66-141.94c-4.14-9.78-8.7-19.32-13.63-28.64,44.6-1.56,87.88-11.08,128.84-28.4,43.42-18.37,82.42-44.66,115.91-78.14,19.42-19.42,36.4-40.7,50.83-63.61,26.11,49.48,39.97,104.88,39.97,162.41s-12.55,107.57-36.26,155.19ZM805.93,920.04c-.77-35.88-6.7-70.94-17.66-104.66,4.25,4.71,8.63,9.34,13.14,13.85,33.49,33.49,72.48,59.78,115.91,78.14,11.41,4.83,23.01,9.04,34.76,12.66h-146.15ZM548.56,920.04c11.75-3.61,23.35-7.83,34.76-12.66,43.42-18.37,82.42-44.66,115.91-78.14,4.52-4.52,8.89-9.14,13.14-13.85-10.96,33.72-16.89,68.77-17.66,104.66h-146.15ZM694.71,579.66c.56,25.25,3.67,50.1,9.29,74.35l-42.96-74.35h33.67ZM839.11,579.66l-42.2,73.22c5.46-23.89,8.47-48.36,9.02-73.22h33.18ZM857.58,579.66h93.63c-11.45,3.55-22.76,7.68-33.89,12.39-39.61,16.76-75.53,40.13-106.95,69.52l47.21-81.91ZM758.19,717.33l-.04-137.68h31.78c-1.12,48.29-12.02,94.94-31.74,137.68ZM758.14,563.66l-.04-138.39c19.84,42.94,30.78,89.84,31.82,138.39h-31.79ZM742.14,563.66h-31.44c1.04-48.2,11.83-94.77,31.4-137.47l.04,137.47ZM742.15,579.66l.04,137.1c-19.55-42.58-30.36-89.03-31.48-137.1h31.44ZM689.45,660.8c-31.23-29.03-66.86-52.14-106.13-68.75-11.13-4.71-22.43-8.84-33.89-12.39h93.13l46.89,81.14ZM742.19,782.67l-.04,137.37h-31.44c1.08-48.17,11.89-94.71,31.48-137.37ZM742.14,936.04l-.04,137.2c-19.54-42.62-30.32-89.09-31.4-137.2h31.44ZM758.14,936.04h31.78c-1.08,48.45-12.02,95.25-31.82,138.12l.04-138.12ZM758.15,920.04l.04-137.94c19.75,42.82,30.66,89.56,31.74,137.94h-31.78ZM812.73,817.92c-14.18-14.18-26.98-29.37-38.34-45.4l253.55,146.11c-81.31-7.19-156.8-42.3-215.21-100.71ZM812.73,681.51c58-58,132.85-93.04,213.5-100.57l-250.94,144.71c11.14-15.56,23.63-30.34,37.44-44.14ZM866.8,563.66l40.77-70.73,122.48,70.73h-163.25ZM848.33,563.66h-42.4c-.96-46.49-10.55-91.61-28.56-134.21-2.26-5.35-4.65-10.62-7.15-15.84l123.49,71.31-45.38,78.73ZM723.27,429.45c-18.02,42.6-27.61,87.72-28.56,134.21h-42.91l-45.27-78.34,123.83-71.56c-2.48,5.17-4.84,10.4-7.08,15.69ZM633.31,563.66h-162.36l121.71-70.34,40.64,70.34ZM687.91,681.51c13.88,13.88,26.44,28.74,37.63,44.41l-251.66-145.02c80.86,7.43,155.9,42.48,214.03,100.61ZM687.91,817.92c-58.42,58.42-133.93,93.53-215.25,100.72l253.76-146.34c-11.41,16.11-24.26,31.37-38.5,45.62ZM694.71,936.04c.99,46.4,10.58,91.42,28.56,133.94,2.27,5.36,4.66,10.66,7.17,15.89l-260.18-149.83h224.44ZM777.37,1069.98c17.98-42.52,27.57-87.54,28.56-133.94h223.44l-258.93,149.3c2.42-5.06,4.73-10.18,6.93-15.36ZM783.48,759.3c80.48,7.62,155.16,42.63,213.05,100.53,13.64,13.64,25.99,28.22,37.03,43.58l-250.08-144.11ZM1034.6,594.58c-11.3,15.89-24,30.95-38.07,45.02-58.25,58.25-133.49,93.33-214.54,100.66l252.61-145.67ZM915.55,479.07l15.73-27.29c23.43,14.32,45.34,31.5,65.25,51.41,13.87,13.87,26.4,28.71,37.59,44.35l-118.56-68.47ZM901.7,471.06l-118.51-68.43c47.53,4.46,93.02,18.48,134.25,41.12l-15.74,27.31ZM891.94,413.73c-36.34-15.37-74.51-24.61-113.8-27.59l258.66-149.48-111.4,193.29c-10.83-5.95-21.99-11.37-33.46-16.22ZM774.91,369.52c11.24-15.76,23.85-30.7,37.81-44.66,58-58,132.84-93.03,213.49-100.57l-251.31,145.23ZM722.53,386.08c-39.53,2.93-77.93,12.19-114.47,27.65-11.49,4.86-22.66,10.29-33.52,16.25l-112.19-194.14,260.18,150.24ZM474.36,224.29c80.67,7.52,155.53,42.56,213.55,100.57,13.92,13.92,26.5,28.82,37.71,44.53l-251.26-145.1ZM717.76,402.55l-119.25,68.91-16-27.69c41.51-22.8,87.36-36.86,135.25-41.23ZM584.66,479.47l-119.5,69.06c11.36-16.01,24.14-31.18,38.3-45.34,19.9-19.9,41.79-37.07,65.2-51.39l15.99,27.67ZM718.44,740.29c-81.22-7.24-156.62-42.34-214.97-100.69-14.12-14.12-26.87-29.24-38.2-45.2l253.17,145.89ZM466.01,904c11.15-15.57,23.64-30.35,37.45-44.17,58.01-58.01,132.86-93.04,213.53-100.57l-250.99,144.74ZM717.46,1096.85c-80.84-7.43-155.87-42.49-213.99-100.61-13.83-13.83-26.33-28.62-37.48-44.21l251.47,144.82ZM1034.27,951.68c-11.22,15.72-23.81,30.63-37.74,44.57-58.13,58.13-133.17,93.19-214.03,100.61l251.78-145.18ZM1007.84,848.52c-33.49-33.49-72.48-59.78-115.91-78.14-21.3-9.01-43.23-15.89-65.64-20.66,22.41-4.77,44.34-11.65,65.64-20.66,43.42-18.37,82.42-44.66,115.91-78.14,16.19-16.19,30.67-33.67,43.41-52.31v302.22c-12.74-18.64-27.23-36.12-43.41-52.31ZM1007.84,491.87c-20.82-20.82-43.77-38.85-68.59-53.93l112-194.32v300.56c-12.74-18.64-27.23-36.12-43.41-52.31ZM917.32,235.4c-43.42,18.37-82.42,44.66-115.91,78.14-16.15,16.15-30.6,33.59-43.32,52.17l-.04-144h197.49c-12.94,3.84-25.69,8.38-38.22,13.68ZM742.09,365.06c-12.61-18.34-26.91-35.56-42.87-51.52-33.49-33.49-72.48-59.78-115.91-78.14-12.53-5.3-25.28-9.84-38.22-13.68h196.95l.04,143.34ZM560.68,437.97c-24.8,15.07-47.73,33.09-68.53,53.9-15.92,15.92-30.19,33.1-42.78,51.39V245.35l111.31,192.63ZM492.16,650.91c33.49,33.49,72.48,59.78,115.91,78.14,21.3,9.01,43.23,15.89,65.64,20.66-22.41,4.77-44.34,11.65-65.64,20.66-43.42,18.37-82.42,44.66-115.91,78.14-16.35,16.35-30.98,34.03-43.81,52.89v-303.38c12.84,18.86,27.46,36.53,43.81,52.89ZM608.06,1085.7c40.8,17.26,83.91,26.77,128.32,28.38-13.71,21.64-29.92,41.93-48.47,60.48-20.08,20.08-42.18,37.39-65.84,51.78l-122.17-211.29c31.71,29.93,68.04,53.68,108.16,70.65ZM699.22,1185.88c15.96-15.96,30.26-33.18,42.87-51.52l-.08,299.41-111.95-193.61c25.04-15.15,48.18-33.3,69.16-54.28ZM758.09,1133.71c12.72,18.59,27.17,36.03,43.32,52.17,20.81,20.81,43.76,38.84,68.57,53.92l-111.98,193.91.08-300.01ZM812.73,1174.57c-18.56-18.56-34.77-38.85-48.49-60.51,44.19-1.68,87.09-11.18,127.7-28.36,39.82-16.84,75.9-40.37,107.44-69.98l-121.41,210.25c-23.43-14.32-45.33-31.5-65.24-51.41ZM1058.98,944.52c25.92,49.33,39.67,104.52,39.67,161.84,0,60.6-15.37,118.83-44.24,170.27-57.75-.78-113.24-15.52-162.59-42.63l167.16-289.48ZM1067.26,604.75c20.55,44.91,31.39,94.1,31.39,144.96s-10.84,100.05-31.39,144.96v-289.93ZM1067.26,248.1c20.55,44.91,31.39,94.1,31.39,144.96s-10.84,100.05-31.39,144.96V248.1ZM758.05,205.72l-.04-155.45,269.59,155.45h-269.55ZM742.05,205.72h-271.63L742,50.22l.04,155.5ZM433.38,539.42c-20.96-45.28-32.02-94.96-32.02-146.35s11.06-101.07,32.02-146.35v292.7ZM432.34,893.8c-20.29-44.67-30.99-93.55-30.99-144.09s10.7-99.41,30.99-144.09v288.17ZM608.21,1234.34c-49.38,26.99-104.87,41.62-162.61,42.3-28.87-51.44-44.24-109.67-44.24-170.27,0-57.18,13.69-112.24,39.49-161.48l167.37,289.46ZM583.32,1264.03c11.26-4.76,22.22-10.07,32.87-15.89l119.44,206.56c-87.73-3.54-169.7-39.35-232.15-101.8-18.56-18.56-34.76-38.84-48.47-60.48,44.41-1.62,87.52-11.13,128.32-28.38ZM883.84,1247.8c10.84,5.95,22,11.37,33.47,16.23,40.61,17.18,83.51,26.68,127.7,28.36-13.71,21.65-29.92,41.94-48.49,60.51-62.45,62.45-144.43,98.27-232.16,101.8l119.48-206.9ZM1305.79,817.92c-62.69,62.69-145.04,98.54-233.15,101.84,4.82-9.15,9.29-18.51,13.35-28.11,19.02-44.96,28.66-92.72,28.66-141.94s-9.64-96.98-28.66-141.94c-4.06-9.59-8.52-18.96-13.35-28.11,88.11,3.3,170.46,39.15,233.15,101.84,20.75,20.75,38.55,43.66,53.22,68.21-14.67,24.55-32.47,47.46-53.22,68.21ZM782.5,45.92c80.86,7.43,155.9,42.48,214.03,100.61,13.93,13.93,26.52,28.85,37.74,44.57l-251.78-145.18ZM467.13,189.17c10.87-15.01,22.98-29.27,36.34-42.63,58.07-58.07,133.03-93.12,213.8-100.59l-250.14,143.22ZM194.85,681.51c62.53-62.53,144.64-98.36,232.5-101.82-4.82,9.14-9.28,18.5-13.34,28.08-19.02,44.96-28.66,92.72-28.66,141.94s9.64,96.98,28.66,141.94c4.05,9.59,8.52,18.94,13.34,28.08-87.86-3.45-169.97-39.28-232.5-101.82-20.75-20.75-38.55-43.66-53.22-68.21,14.67-24.55,32.47-47.46,53.22-68.21ZM183.53,829.24c33.49,33.49,72.48,59.78,115.91,78.14,40.77,17.24,83.84,26.75,128.22,28.38-4.94,9.33-9.5,18.88-13.64,28.66-19.02,44.96-28.66,92.72-28.66,141.94s9.64,96.98,28.66,141.94c4.05,9.59,8.52,18.94,13.34,28.08-87.86-3.45-169.97-39.28-232.5-101.82-65.85-65.85-102.12-153.4-102.12-246.53,0-57.54,13.86-112.94,39.97-162.41,14.44,22.91,31.42,44.19,50.83,63.61ZM251.28,1248.43c-8.21-8.21-16.2-16.6-23.97-25.15,22.35,16.24,46.46,29.89,72.12,40.75,43.46,18.38,89.53,27.98,137.01,28.6,15.44,25.96,34.06,49.93,55.71,71.58,31.69,31.69,68.32,56.92,108.96,75.11-42.9-9.22-84.87-22.48-125.64-39.73-83.99-35.52-159.41-86.38-224.19-151.15ZM1248.72,1248.43c-64.78,64.78-140.2,115.63-224.19,151.15-40.78,17.25-82.75,30.51-125.64,39.73,40.64-18.18,77.27-43.42,108.96-75.11,21.65-21.65,40.27-45.61,55.71-71.57,47.71-.55,93.99-10.14,137.65-28.61,24.94-10.55,48.41-23.72,70.22-39.36-7.37,8.07-14.93,16-22.7,23.77ZM1422.15,964.05c1.16-11.9,1.75-23.91,1.75-36.01,0-49.22-9.64-96.98-28.66-141.94-5.29-12.51-11.26-24.64-17.85-36.38,6.59-11.75,12.56-23.88,17.85-36.38,19.02-44.96,28.66-92.72,28.66-141.94,0-12.1-.59-24.11-1.75-36.01,22.01,68.96,33.14,140.79,33.14,214.33s-11.13,145.38-33.14,214.33ZM1248.72,251c7.77,7.77,15.33,15.7,22.7,23.77-21.81-15.64-45.28-28.81-70.22-39.36-43.65-18.46-89.94-28.06-137.65-28.61-15.44-25.96-34.06-49.93-55.71-71.57-31.69-31.69-68.32-56.92-108.96-75.11,42.9,9.22,84.87,22.48,125.64,39.73,83.99,35.52,159.41,86.38,224.19,151.15ZM251.28,251c64.78-64.78,140.2-115.63,224.19-151.15,40.78-17.25,82.75-30.51,125.64-39.73-40.64,18.18-77.27,43.42-108.96,75.11-21.62,21.62-40.22,45.55-55.65,71.48l-.14.08v.03c-47.44.63-93.49,10.23-136.93,28.6-25.67,10.86-49.77,24.5-72.12,40.75,7.76-8.55,15.75-16.94,23.97-25.15ZM78.8,532.39c-1.36,12.88-2.07,25.89-2.07,39,0,49.22,9.64,96.98,28.66,141.94,5.29,12.51,11.26,24.64,17.85,36.38-6.59,11.75-12.56,23.88-17.85,36.38-19.02,44.96-28.66,92.72-28.66,141.94,0,13.11.71,26.12,2.07,39-22.64-69.87-34.1-142.72-34.1-217.32s11.45-147.46,34.1-217.32Z"/></svg>