<?xml version="1.0" encoding="UTF-8"?><svg id="Layer_2" xmlns="http://www.w3.org/2000/svg" xmlns:xlink="http://www.w3.org/1999/xlink" viewBox="0 0 1500 1500"><defs><style>.cls-1{fill:url(#New_Gradient_Swatch_2);stroke-width:0px;}</style><linearGradient id="New_Gradient_Swatch_2" x1="114.94" y1="1116.65" x2="1384.97" y2="383.39" gradientUnits="userSpaceOnUse"><stop offset="0" stop-color="#56450d"/><stop offset=".21" stop-color="#e5c787"/><stop offset=".39" stop-color="#f7d976"/><stop offset=".99" stop-color="#725728"/></linearGradient></defs><path class="cls-1" d="M1404.69,456.87c0-79.97-64.21-145.24-143.81-146.95-.26-.43-.51-.86-.78-1.29-20.71-33.36-53.17-56.66-91.4-65.6s-77.66-2.47-111.02,18.24c-18.59,11.54-34.05,26.73-45.65,44.54l-8.44-4.87c10.16-19.97,15.9-42.54,15.9-66.44h0c0-80.01-64.25-145.29-143.86-146.96-25.82-42.4-72.48-70.77-125.64-70.77-53.17,0-99.83,28.37-125.65,70.77-79.61,1.68-143.85,66.95-143.86,146.95,0,23.9,5.74,46.49,15.9,66.46l-8.44,4.87c-5.51-8.42-11.93-16.33-19.21-23.61-27.76-27.76-64.68-43.05-103.94-43.05s-76.18,15.29-103.94,43.05c-8.46,8.46-15.75,17.76-21.81,27.72-79.56,1.75-143.74,67.01-143.73,146.97,0,25.62,6.6,49.73,18.17,70.72-11.58,21-18.17,45.11-18.17,70.74,0,39.27,15.3,76.18,43.06,103.94,25.86,25.86,59.67,40.89,95.91,42.83v9.77c-77.34,4.18-138.98,68.43-138.98,146.79,0,25.17,6.3,49.37,18.12,70.81-11.54,20.98-18.12,45.06-18.12,70.65,0,39.27,15.3,76.18,43.06,103.95,27,26.99,62.64,42.19,100.69,43.01,6.06,9.95,13.34,19.24,21.78,27.68,27.76,27.76,64.68,43.05,103.94,43.05s76.18-15.29,103.94-43.05c7.33-7.33,13.72-15.26,19.18-23.62l8.47,4.89c-10.16,19.97-15.9,42.55-15.9,66.45,0,80,64.24,145.27,143.85,146.96,25.81,42.41,72.48,70.79,125.66,70.79s99.85-28.38,125.66-70.79c79.61-1.68,143.85-66.95,143.85-146.96,0-23.9-5.74-46.48-15.9-66.45l8.47-4.89c5.46,8.36,11.84,16.28,19.18,23.61,28.66,28.66,66.3,42.98,103.94,42.98s75.29-14.33,103.94-42.98c8.51-8.51,15.75-17.82,21.73-27.69,38.08-.8,73.76-16,100.78-43.02,27.76-27.77,43.05-64.68,43.05-103.95,0-25.58-6.58-49.65-18.12-70.62,11.83-21.45,18.12-45.66,18.12-70.84-.01-78.35-61.65-142.59-138.99-146.77v-9.77c36.26-1.93,70.08-16.97,95.95-42.84,27.76-27.77,43.05-64.68,43.05-103.95,0,0,0,0,0,0,0-25.58-6.58-49.65-18.12-70.63,11.83-21.45,18.12-45.66,18.12-70.83,0,0,0,0,0,0ZM1251.56,1173.99c-43-1.99-80.65-24.81-103.08-58.58l103.94-60.01c18.53,37.25,18.24,81.55-.87,118.59ZM866.36,1396.35c-42.99-2-80.63-24.81-103.05-58.57l103.88-59.98c8.82,17.61,13.79,37.46,13.79,58.45,0,21.65-5.29,42.08-14.63,60.09ZM619,1336.26c0-20.99,4.97-40.85,13.79-58.45l103.89,59.98c-22.42,33.76-60.06,56.57-103.05,58.57-9.34-18.01-14.62-38.45-14.62-60.09ZM233.79,1113.84c0-20.89,4.86-41.02,14.03-59.13l104.09,60.09c-22.39,34.12-60.26,57.21-103.55,59.18-9.52-18.37-14.56-38.87-14.56-60.15ZM248.34,326.02c43.03,1.96,80.72,24.78,103.16,58.56l-104,60.04c-8.97-17.94-13.71-37.85-13.71-58.48s5.04-41.76,14.55-60.12ZM633.63,103.63c42.99,2,80.63,24.81,103.05,58.57l-103.9,59.98c-8.81-17.61-13.79-37.46-13.78-58.45,0-21.65,5.29-42.09,14.63-60.1ZM880.99,163.75c0,20.63-4.75,40.54-13.71,58.47l-103.97-60.02c22.42-33.76,60.06-56.57,103.04-58.57,9.35,18.02,14.64,38.46,14.64,60.12ZM1232.34,743.15c2.04,2.25,4,4.57,5.88,6.96-1.82,2.31-3.71,4.55-5.69,6.73-31.04,5.38-58.76,20.52-79.9,42.13-3.13.42-6.27.72-9.43.91v-99.69c3.2.19,6.36.5,9.49.92,21.09,21.54,48.72,36.64,79.65,42.04ZM1124.97,389.48c.38.63.76,1.27,1.13,1.91-9.86,19.73-15.42,41.98-15.42,65.5,0,12.4,1.55,24.44,4.46,35.95-18.92-18.44-42.56-31.45-68.94-37.63-8.12-1.9-16.29-3.1-24.44-3.62-4.65-8.05-8.4-16.46-11.22-25.12,5.79-15.77,8.96-32.79,8.96-50.54h0c0-13.74-1.9-27.04-5.44-39.66,1.19-2.92,2.49-5.78,3.88-8.59l107.03,61.79ZM985.18,1171.21c-19.49-23.25-46.01-40.4-76.27-48.14-1.75-2.28-3.43-4.64-5.04-7.05l86.18-49.75c1.29,2.62,2.5,5.29,3.62,8-8.2,29.53-7.03,61.13,3.5,90.07-.93,2.87-1.95,5.7-3.07,8.48-2.97-.43-5.94-.97-8.91-1.6ZM514.79,1171.24c-2.94.62-5.9,1.15-8.9,1.57-1.12-2.78-2.14-5.61-3.07-8.48,10.53-28.93,11.7-60.53,3.5-90.05,1.21-2.94,2.53-5.83,3.95-8.66l86.28,49.81c-1.72,2.6-3.54,5.15-5.47,7.65-30.27,7.74-56.8,24.9-76.29,48.16ZM373.32,1043.12c0,3.92-.18,7.79-.52,11.62v-23.22c.34,3.82.52,7.68.52,11.58v.02ZM373.32,456.83v.04c0,3.92-.18,7.79-.52,11.62v-23.23c.34,3.81.52,7.67.52,11.57ZM514.83,328.79c19.46,23.2,45.93,40.33,76.13,48.08,1.94,2.5,3.78,5.08,5.54,7.72l-86.3,49.82c-1.38-2.77-2.67-5.58-3.85-8.43,3.58-12.81,5.44-26.18,5.44-39.85,0-17.55-3.06-34.62-8.92-50.62.91-2.81,1.92-5.59,3.02-8.31,3.01.43,6,.96,8.94,1.59ZM985.15,328.79c2.94-.63,5.93-1.16,8.94-1.59,1.11,2.77,2.13,5.59,3.06,8.44-2.01,5.52-3.7,11.2-5.06,17.01-5.74,24.53-5.12,49.56,1.53,73.15-1.2,2.91-2.51,5.76-3.91,8.56l-86.22-49.78c1.75-2.64,3.6-5.21,5.54-7.72,30.2-7.75,56.67-24.88,76.13-48.08ZM1030.13,728.24c-2.65.35-5.32.63-7.99.82v-116.04l99.86,57.65c-3.59,5.43-7.59,10.59-11.97,15.43-31.04,5.38-58.76,20.52-79.9,42.14ZM468.73,1009.9c-18.04-18.04-39.93-30.8-63.83-37.54,29.67-8.42,55.54-25.96,74.39-49.37v98.68c-3.28-4.06-6.79-8-10.57-11.77ZM1095.33,527.62c-29.27,8.31-55.47,25.56-74.65,49.32v-98.63c19.1,23.84,44.97,40.97,74.65,49.31ZM523.89,1043.99c24.69-6.3,48.06-19.09,67.35-38.38,3.11-3.11,6.03-6.32,8.8-9.63,2.91-.62,5.86-1.15,8.85-1.57,1.11,2.78,2.13,5.59,3.04,8.43-5.78,15.75-8.94,32.76-8.94,50.49,0,13.73,1.9,27.03,5.44,39.65-1.19,2.9-2.49,5.77-3.89,8.59l-86.25-49.79c1.77-2.67,3.64-5.27,5.59-7.79ZM468.73,772.99c.36-.36.71-.73,1.06-1.09,3.16-.42,6.33-.73,9.5-.92v116.82l-101.24-58.45c3.56-5.37,7.56-10.54,11.99-15.45,29.65-5.11,56.96-19.19,78.68-40.9ZM390.08,686.12c-4.45-4.92-8.46-10.1-12.02-15.49l101.24-58.45v116.89c-3.2-.19-6.37-.5-9.52-.92-21.1-21.55-48.75-36.65-79.7-42.03ZM591.24,494.38c-18.98-18.97-42.22-32.12-67.58-38.54-1.76-2.28-3.44-4.6-5.04-6.98l86.21-49.77c1.28,2.6,2.48,5.24,3.59,7.93-3.54,12.61-5.43,25.9-5.44,39.63,0,17.55,3.06,34.62,8.91,50.62-.92,2.82-1.93,5.6-3.03,8.34-2.96-.42-5.89-.94-8.8-1.55-2.78-3.32-5.72-6.55-8.84-9.67ZM976.17,455.9c-14.29,3.68-28.09,9.55-40.99,17.56-13.52,8.4-25.39,18.72-35.33,30.58-2.89.62-5.81,1.14-8.76,1.56-1.1-2.73-2.1-5.51-3.02-8.32,5.85-16,8.91-33.06,8.91-50.6h0c0-13.73-1.9-27.03-5.44-39.64,1.2-2.92,2.51-5.78,3.92-8.59l86.22,49.78c-1.75,2.63-3.59,5.19-5.51,7.69ZM1000.98,728.83c-6.05-.56-12.1-1.53-18.12-2.94-34.15-7.99-62.05-28.75-79.84-56.05l95.54-54.96c-2.63,6.64-4.81,13.54-6.48,20.7-7.59,32.45-3.74,64.94,8.9,93.25ZM885.16,568.5c2.06-8.79,4.97-17.24,8.67-25.25,22.33,30.64,56.19,52.35,95.15,58.69l-93.86,53.99c-12.87-26.21-17.12-56.85-9.96-87.43ZM938.16,564.54l18.91,10.92c-6.63-3.12-12.95-6.78-18.91-10.92ZM869.58,564.85c-7.9,33.77-3.76,68.48,11.59,99.11l-123.17,70.85v-141.38c36.25-1.93,70.07-16.96,95.93-42.83,7.28-7.28,13.69-15.19,19.21-23.61l8.42,4.86c-5.23,10.36-9.27,21.41-11.98,33ZM757.99,1032.02v-109.43c40.86,2.48,76.73,23.77,99.03,55.31-39.91,4.2-75.11,24.44-99.03,54.13ZM816.69,1005.57l-18.52,10.69c5.85-4.05,12.04-7.63,18.52-10.69ZM741.99,1032.01c-23.92-29.69-59.12-49.93-99.03-54.12,22.3-31.54,58.17-52.83,99.03-55.31v109.43ZM757.99,468.1c3.29,4.07,6.8,8,10.56,11.75,24.1,24.11,55.11,38.81,88.56,42.27-4.29,6.07-9.13,11.81-14.49,17.17-22.85,22.84-52.64,36.2-84.62,38.11v-109.3ZM797.26,483.19l20.25,11.69c-7.06-3.27-13.83-7.17-20.25-11.69ZM741.99,467.97v109.43c-31.98-1.91-61.79-15.28-84.63-38.12-5.36-5.36-10.19-11.1-14.48-17.16,39.95-4.18,75.18-24.43,99.12-54.14ZM683.28,494.42l18.54-10.7c-5.85,4.05-12.05,7.63-18.54,10.7ZM626.85,527c5.51,8.41,11.92,16.32,19.19,23.59,25.87,25.87,59.69,40.91,95.95,42.84v142.77l-123.84-70.9c21.33-41.74,21.42-91.63.27-133.44l8.43-4.87ZM604.25,657.35l-96.03-54.98c40.13-5.74,75.08-27.76,97.94-59.12,16.71,36.15,16.07,78.41-1.91,114.1ZM542.95,575.44l18.83-10.87c-5.94,4.12-12.24,7.76-18.83,10.87ZM596.18,671.16c-4.68,6.99-10.09,13.62-16.25,19.79-21.92,21.92-50.24,35.1-80.74,37.83,8.25-18.56,12.6-38.81,12.6-59.73,0-17.87-3.18-35.25-9.24-51.5l93.64,53.61ZM591.24,702.26c7.19-7.19,13.48-14.95,18.86-23.13l122.63,70.21-123.09,70.81c-5.28-7.92-11.41-15.45-18.4-22.43-26.63-26.63-61.01-40.87-95.94-42.76v-9.86c36.26-1.93,70.07-16.96,95.94-42.83ZM579.93,809.03c5.97,5.97,11.23,12.38,15.8,19.12l-92.95,53.47c5.83-15.81,9.01-32.88,9.01-50.69,0-21.23-4.53-41.42-12.67-59.67,29.5,2.65,58.27,15.24,80.8,37.77ZM603.88,841.92c18.32,35.82,19.1,78.36,2.31,114.74-4.45-6.12-9.43-11.97-14.95-17.49-22.99-22.99-52.26-37.42-83.94-41.7l96.58-55.56ZM562.65,935.93l-20.46-11.81c7.13,3.29,13.98,7.24,20.46,11.81ZM617.77,833.93l124.22-71.46v144.08c-48.13,2.59-90.17,28.44-115.07,66.48l-8.51-4.91c21.28-42.06,21.07-92.29-.65-134.19ZM701.84,1016.29l-18.58-10.73c6.5,3.07,12.71,6.67,18.58,10.73ZM873.05,973.04c-24.9-38.04-66.94-63.89-115.06-66.49v-142.75l123.83,70.9c-21.32,41.74-21.41,91.62-.26,133.43l-8.51,4.91ZM893.77,956.64c-16.66-36.13-16-78.33,1.95-113.98l95.96,54.94c-19.8,2.86-38.99,9.8-56.5,20.67-16.41,10.19-30.38,23.22-41.41,38.38ZM943.62,931.86c4.3-2.67,8.71-5.06,13.22-7.19l-18.81,10.86c1.83-1.26,3.69-2.49,5.59-3.67ZM903.79,828.84c4.68-6.99,10.1-13.63,16.27-19.8,22.54-22.54,51.31-35.12,80.81-37.77-8.13,18.24-12.67,38.43-12.67,59.66,0,18.15,3.31,35.53,9.35,51.59l-93.77-53.68ZM908.74,797.72c-7.2,7.2-13.49,14.96-18.87,23.14l-124.99-71.56,124.21-71.45c20.75,32.29,52.67,54.85,90.13,63.61,8.46,1.98,16.97,3.2,25.47,3.68v9.81c-34.93,1.89-69.32,16.13-95.94,42.76ZM1004.68,658v22.13c-.62-7.28-.64-14.68,0-22.13ZM495.78,669.05c0,3.78-.17,7.54-.48,11.27v-22.53c.32,3.73.48,7.48.48,11.27ZM495.79,830.93c0,3.8-.17,7.57-.49,11.29v-22.59c.32,3.72.49,7.49.49,11.29ZM758.47,1124.05v.02c0,3.77-.17,7.5-.48,11.19v-22.4c.31,3.69.48,7.42.48,11.18ZM1004.2,830.93c0-3.77.17-7.5.48-11.18v22.37c-.31-3.69-.48-7.42-.48-11.18ZM874.63,406.35c-5.78,15.76-8.94,32.78-8.94,50.52,0,13.77,1.91,27.11,5.47,39.76-1.1,2.66-2.29,5.28-3.56,7.86l-100.87-58.23,100.48-58.01c2.91,5.81,5.39,11.86,7.42,18.12ZM758.47,375.94c0,3.77-.17,7.49-.48,11.18v-22.39c.31,3.69.48,7.42.48,11.19v.02ZM741.99,364.74v22.43c-.31-3.73-.48-7.48-.48-11.26,0-3.76.17-7.48.48-11.17ZM632.71,505.14c-1.4-2.79-2.69-5.63-3.88-8.51,3.56-12.65,5.47-25.99,5.47-39.76,0-17.74-3.16-34.76-8.94-50.52,2.1-6.49,4.7-12.77,7.75-18.77l101.62,58.67-102.01,58.9ZM409.54,545.87c13.92,5.05,26.93,12.47,38.54,22.06l-38.54-22.06ZM384.8,562.12c21.39,20.84,49.08,35.23,79.91,40.01l-85.3,49.25c6.39-16.46,9.91-34.35,9.9-53.05v-.04c0-12.48-1.57-24.59-4.52-36.16ZM464.7,897.85c-30.01,4.6-57.74,18.36-79.87,39.89,2.92-11.55,4.48-23.63,4.48-36.08v-.02c0-18.7-3.52-36.58-9.92-53.05l85.3,49.25ZM449.65,930.65c-12.16,10.37-26.24,18.55-41.62,23.94l41.62-23.94ZM625.34,1093.6c10.53-28.93,11.7-60.53,3.49-90.06,1.21-2.94,2.53-5.83,3.94-8.65l7.53,4.35,93.68,54.08-101.21,58.43c-2.91-5.82-5.4-11.88-7.43-18.15ZM741.99,1112.88v22.37c-.31-3.69-.48-7.42-.48-11.18s.17-7.5.48-11.18ZM764.55,1070.96l85.37,49.29c-30.86,4.78-58.57,19.2-79.97,40.06,2.95-11.6,4.52-23.74,4.52-36.24v-.02c0-18.71-3.52-36.61-9.93-53.09ZM765.99,1053.32l101.21-58.43c1.42,2.83,2.73,5.72,3.95,8.66-.56,2.02-1.09,4.05-1.57,6.11-6.63,28.33-4.78,57.31,5.04,84-2.03,6.25-4.51,12.29-7.42,18.09l-101.21-58.43ZM1004.68,583.62l-100.86-58.23c1.61-2.4,3.3-4.75,5.06-7.04,30.27-7.74,56.8-24.9,76.29-48.15,6.42-1.38,12.93-2.27,19.5-2.66v116.08ZM764.54,429.03c6.41-16.48,9.93-34.38,9.93-53.09v-.02c0-12.51-1.57-24.65-4.53-36.25,21.4,20.87,49.12,35.29,79.98,40.07l-85.39,49.3ZM734.92,427.89l-83.73-48.34c30.41-4.95,57.71-19.27,78.85-39.88-2.95,11.6-4.53,23.73-4.53,36.24,0,18.05,3.23,35.59,9.42,51.99ZM514.8,470.21c19.48,23.24,46,40.4,76.26,48.14,1.93,2.5,3.76,5.06,5.49,7.67l-101.25,58.45v-116.89c6.61.4,13.12,1.28,19.5,2.64ZM479.3,576.87c-3.29-4.07-6.81-8-10.57-11.76-18.02-18.02-39.9-30.78-63.77-37.52,23.87-6.74,45.75-19.5,63.77-37.52,3.75-3.75,7.27-7.68,10.56-11.75v98.55ZM373.32,598.29v.04c0,3.92-.18,7.79-.52,11.62v-23.23c.34,3.81.52,7.67.52,11.57ZM382.22,701.1c.38.39.75.78,1.14,1.17,21.69,21.69,48.97,35.77,78.59,40.89,2.02,2.23,3.96,4.52,5.82,6.89-1.86,2.35-3.79,4.65-5.82,6.89-28.8,5-56.39,18.6-78.58,40.79-.39.39-.76.78-1.15,1.18-3.11.41-6.25.71-9.42.9v-99.61c3.17.19,6.32.5,9.43.91ZM373.32,901.65v.02c0,3.92-.18,7.79-.52,11.62v-23.22c.34,3.82.52,7.68.52,11.58ZM495.3,915.52l101.24,58.45c-1.73,2.61-3.56,5.17-5.49,7.67-30.21,7.73-56.69,24.84-76.16,48.03-6.46,1.38-13.01,2.27-19.59,2.67v-116.82ZM735.44,1070.96c-6.41,16.48-9.93,34.39-9.93,53.11,0,12.5,1.57,24.64,4.52,36.23-21.4-20.86-49.11-35.28-79.96-40.05l85.37-49.29ZM822.99,1144.24l-30.42,17.56c9.24-7.14,19.46-13.07,30.42-17.56ZM891.54,1093c3.54-12.63,5.44-25.93,5.44-39.68h0c0-17.72-3.15-34.72-8.93-50.46.92-2.87,1.93-5.69,3.04-8.47,2.98.42,5.92.95,8.83,1.57,2.77,3.31,5.7,6.53,8.81,9.64,19.29,19.29,42.66,32.08,67.36,38.39,1.95,2.52,3.82,5.12,5.59,7.78l-86.24,49.79c-1.41-2.82-2.71-5.67-3.91-8.56ZM985.09,1029.68c-19.48-23.19-45.96-40.31-76.17-48.04-1.93-2.5-3.76-5.06-5.49-7.67l14.15-8.17,88.56-51.13v117.75c-7.06-.35-14.1-1.27-21.05-2.76ZM1090.01,953.89c-13.78-5.08-26.47-12.41-37.63-21.55l37.63,21.55ZM1091.54,561.4c-8.72,6.59-18.28,12.12-28.49,16.39l28.49-16.39ZM1059.64,493.22l20.37,11.76c-7.16-3.31-13.97-7.24-20.37-11.76ZM798.09,342.22l18.69,10.79c-6.54-3.09-12.79-6.7-18.69-10.79ZM683.2,353.01l18.69-10.79c-5.9,4.09-12.15,7.7-18.69,10.79ZM356.8,587.78v21.08c-.56-7.01-.56-14.06,0-21.08ZM356.8,891.11v21.1c-.56-7.02-.56-14.08,0-21.1ZM440.2,1006.69l-20.59-11.89c7.18,3.31,14.08,7.28,20.59,11.89ZM702,1157.84l-18.91-10.92c6.63,3.12,12.95,6.78,18.91,10.92ZM1022.14,1019.89v-95.12c18.76,22.57,44.14,39.45,73.12,47.64-23.46,6.58-45.6,19.07-64.02,37.49-3.22,3.22-6.25,6.56-9.1,9.99ZM1115.14,937.65c-18.92-18.44-42.56-31.46-68.95-37.63-3.65-.85-7.31-1.56-10.97-2.14l85.38-49.29c-6.4,16.48-9.92,34.38-9.92,53.09,0,12.41,1.55,24.45,4.46,35.97ZM1022.14,886.96v-115.89c2.71.19,5.41.48,8.11.84,18.88,19.33,43.27,33.69,71.47,40.28,2.72.64,5.45,1.19,8.18,1.67,4.45,4.92,8.45,10.1,12.02,15.48l-99.78,57.61ZM1117.77,798.91c-.39-.39-.76-.79-1.15-1.18-22.17-22.17-49.72-35.76-78.48-40.77-2.04-2.26-3.99-4.58-5.86-6.97,1.83-2.32,3.73-4.57,5.71-6.76,18.3-3.19,36-9.9,52.25-19.99,10.21-6.34,19.48-13.78,27.68-22.15,3.06-.41,6.16-.7,9.29-.89v99.66c-3.14-.2-6.28-.51-9.42-.94ZM1035.27,602.13c30.84-4.78,58.54-19.18,79.93-40.03-2.95,11.6-4.53,23.74-4.52,36.25,0,18.69,3.52,36.58,9.91,53.04l-85.32-49.25ZM1126.68,598.34c0-3.88.18-7.72.51-11.52v23.02c-.33-3.79-.51-7.63-.51-11.5ZM1067.85,479.48c7.2,3.32,14.05,7.28,20.49,11.83l-20.49-11.83ZM805.55,328.05c6.65,3.13,13,6.8,18.99,10.96l-18.99-10.96ZM675.4,339.04c6.01-4.18,12.38-7.87,19.07-11.01l-19.07,11.01ZM406.85,494.91c9.64-7.53,20.19-13.6,31.38-18.12l-31.38,18.12ZM344.89,562.07c-8.55,33.81-4.94,70.08,10.83,101.79-4.64,7.99-10.09,15.45-16.25,22.27-30.94,5.4-58.57,20.5-79.66,42.04-2.66.36-5.35.63-8.06.83v-125.43c36.13-2.3,68.75-17.7,93.15-41.5ZM267.65,743.15c30.93-5.4,58.57-20.5,79.66-42.04,3.13-.42,6.29-.72,9.48-.92v99.61c-3.19-.19-6.36-.49-9.5-.91-21.11-21.55-48.77-36.66-79.73-42.04-2-2.21-3.91-4.48-5.74-6.8,1.86-2.37,3.81-4.67,5.83-6.9ZM259.71,771.83c.38.39.75.78,1.14,1.16,21.7,21.7,48.99,35.78,78.62,40.89,6.16,6.81,11.61,14.26,16.25,22.25-15.77,31.73-19.37,68-10.81,101.81-24.4-23.81-57.02-39.21-93.16-41.51v-125.43c2.68.19,5.34.46,7.97.82ZM316.94,935.53l-19.13-11.05c6.71,3.15,13.1,6.85,19.13,11.05ZM309.1,949.48c-6.56-3.1-12.83-6.72-18.74-10.82l18.74,10.82ZM431.84,1020.34c-6.79-3.17-13.37-6.95-19.65-11.34l19.65,11.34ZM694.38,1171.91c-6.63-3.12-12.95-6.78-18.91-10.92l18.91,10.92ZM670.17,1232.47c9.18-7.08,19.32-12.96,30.19-17.43l-30.19,17.43ZM1079.82,995.12l-19.8,11.43c6.32-4.43,12.95-8.25,19.8-11.43ZM1126.68,901.68c0-3.88.18-7.72.51-11.52v23.02c-.33-3.79-.51-7.63-.51-11.5ZM1126.68,456.89c0-3.88.18-7.72.51-11.52v23.02c-.33-3.79-.51-7.63-.51-11.5ZM976.15,314.47c-30.19,7.75-56.66,24.88-76.12,48.08-8.88,1.91-18.09,2.92-27.54,2.92-.01,0-.02,0-.03,0-19.19-28.84-48.27-50.56-82.38-60.25,23.9-6.73,45.8-19.5,63.84-37.53,7.04-7.04,13.27-14.66,18.66-22.76.69,0,1.37.02,2.06.03l107.05,61.8c-1.75,2.64-3.6,5.21-5.53,7.71ZM804.99,282.7l20.25-11.69c-6.42,4.52-13.19,8.42-20.25,11.69ZM797.87,268.33c6.03-4.2,12.44-7.9,19.15-11.05l-19.15,11.05ZM758.47,234.48c0,3.77-.17,7.5-.48,11.18v-22.39c.31,3.69.48,7.42.48,11.19h0ZM741.99,223.29v22.37c-.31-3.69-.48-7.42-.48-11.19,0-3.76.17-7.49.48-11.17ZM682.95,257.27c6.72,3.16,13.13,6.86,19.18,11.07l-19.18-11.07ZM694.22,282.25c-6.51-3.08-12.73-6.67-18.6-10.74l18.6,10.74ZM625.34,244.95c.71-.01,1.42-.03,2.14-.03.01,0,.02,0,.04,0,19.2,28.87,48.32,50.6,82.46,60.27-34.14,9.67-63.26,31.4-82.46,60.27-.02,0-.03,0-.05,0-9.44,0-18.64-1.01-27.52-2.92-19.46-23.2-45.93-40.33-76.13-48.08-1.93-2.5-3.78-5.07-5.53-7.71l107.05-61.8ZM485.95,336.15c-3.56,12.65-5.47,25.98-5.47,39.75,0,17.78,3.17,34.84,8.98,50.63-2.82,8.73-6.55,17.12-11.16,25.08-35.2,2.11-68.03,16.58-93.47,41.33,2.92-11.55,4.48-23.63,4.48-36.07v-.04c0-23.51-5.57-45.74-15.43-65.46.37-.63.74-1.26,1.12-1.89l107.08-61.82c1.39,2.79,2.68,5.62,3.87,8.49ZM356.8,445.57v22.59c-.32-3.72-.49-7.49-.49-11.29s.17-7.57.49-11.29ZM284.58,474.33c15.92,5.44,30.46,13.86,42.97,24.6l-42.97-24.6ZM284.34,565.64c9.64-7.53,20.2-13.6,31.39-18.12l-31.39,18.12ZM324.68,972.36c-23.9,6.74-45.8,19.5-63.83,37.54-3.21,3.21-6.24,6.54-9.11,9.98v-95.11c18.72,22.52,44.03,39.38,72.94,47.59ZM328.23,1000.49c-12.75,11.1-27.66,19.78-44,25.31l44-25.31ZM356.8,1031.8v22.65c-.32-3.75-.49-7.52-.49-11.32s.17-7.58.49-11.32ZM374.11,1109.15c-.09-.15-.17-.3-.26-.45,9.89-19.76,15.46-42.03,15.46-65.58v-.02c0-12.44-1.56-24.52-4.49-36.07,26.14,25.43,59.47,39.18,93.39,41.26,4.67,8.08,8.41,16.55,11.21,25.27-5.78,15.76-8.94,32.77-8.94,50.5,0,13.73,1.9,27.02,5.43,39.64-1.1,2.68-2.29,5.32-3.57,7.94l-108.24-62.49ZM523.77,1185.58c25.31-6.43,48.52-19.57,67.47-38.51,3.11-3.11,6.05-6.34,8.82-9.66,8.84-1.89,18.01-2.89,27.41-2.89h0s.02,0,.03,0c19.21,28.88,48.34,50.61,82.5,60.28-34.15,9.66-63.28,31.4-82.49,60.27-.01,0-.03,0-.04,0-.22,0-.44,0-.65,0l-108.14-62.43c1.62-2.41,3.32-4.75,5.09-7.04ZM741.99,1254.32v22.37c-.31-3.69-.48-7.42-.48-11.18s.17-7.5.48-11.18ZM758.47,1265.51c0,3.77-.17,7.5-.48,11.19v-22.4c.31,3.69.48,7.42.48,11.18v.02ZM817.03,1242.72c-6.72-3.15-13.13-6.86-19.17-11.07l19.17,11.07ZM805.89,1217.81c6.42,3.04,12.55,6.59,18.34,10.59l-18.34-10.59ZM874.64,1255.04c-.71.01-1.42.03-2.14.03-.02,0-.03,0-.05,0-19.21-28.87-48.34-50.6-82.49-60.27,34.16-9.67,63.29-31.4,82.5-60.28.01,0,.02,0,.04,0,9.39,0,18.54,1,27.37,2.89,19.66,23.63,46.09,40.4,76.3,48.13,1.93,2.5,3.77,5.06,5.52,7.7l-107.06,61.81ZM1087.82,1008.98c-6.31,4.42-12.92,8.22-19.75,11.4l19.75-11.4ZM1127.19,1031.62v23.02c-.33-3.79-.51-7.63-.51-11.5,0-3.88.18-7.72.51-11.52ZM1143.19,1054.82v-23.86c.73,7.89.73,15.87,0,23.86ZM1215.36,1025.66c-15.86-5.43-30.36-13.83-42.83-24.52l42.83,24.52ZM1239.13,1009.9c-18.42-18.42-40.55-30.91-64.01-37.49,29.74-8.4,55.68-25.96,74.58-49.42v98.68c-3.28-4.07-6.8-8-10.57-11.77ZM1190.84,949.5l18.84-10.88c-5.94,4.12-12.24,7.77-18.84,10.88ZM1183.15,935.47c5.97-4.15,12.3-7.81,18.93-10.93l-18.93,10.93ZM1143.19,912.06v-20.8c.55,6.92.55,13.88,0,20.8ZM1143.19,610.02v-23.86c.73,7.89.73,15.87,0,23.86ZM1190.6,550.35c6.92,3.23,13.47,7.02,19.6,11.32l-19.6-11.32ZM1202.26,575.56c-6.76-3.17-13.2-6.9-19.27-11.13l19.27,11.13ZM1188.13,487.37c2.92-1.83,5.91-3.56,8.97-5.16l-8.97,5.16ZM1213.14,491.45c-2.85,2.1-5.79,4.1-8.83,5.99-5.62,3.49-11.44,6.53-17.41,9.1l26.24-15.09ZM1143.19,468.05v-22.37c.31,3.69.48,7.42.48,11.18s-.17,7.5-.48,11.18ZM769.94,270.73c2.95-11.6,4.53-23.74,4.53-36.25h0c0-18.72-3.52-36.62-9.92-53.09l85.35,49.27c-30.85,4.78-58.56,19.2-79.95,40.06ZM725.51,234.46c0,12.51,1.57,24.66,4.53,36.26-21.39-20.86-49.1-35.28-79.95-40.06l85.34-49.27c-6.4,16.47-9.92,34.37-9.92,53.07ZM340.3,456.87c0,12.49,1.57,24.62,4.52,36.2-21.4-20.84-49.1-35.24-79.94-40.01l85.35-49.27c-6.4,16.47-9.92,34.37-9.92,53.08ZM260.85,490.07c18.02,18.02,39.9,30.78,63.77,37.52-23.87,6.74-45.75,19.5-63.77,37.52-3.75,3.75-7.27,7.68-10.56,11.75v-98.55c3.29,4.07,6.81,8,10.57,11.76ZM344.76,1006.99c-2.94,11.67-4.45,23.78-4.45,36.13,0,18.03,3.23,35.56,9.41,51.94l-83.68-48.31c30.35-4.95,57.6-19.21,78.72-39.76ZM730.03,1229.27c-2.95,11.6-4.52,23.74-4.52,36.24,0,18.71,3.52,36.61,9.92,53.09l-85.34-49.27c30.85-4.78,58.55-19.2,79.94-40.06ZM774.47,1265.51v-.02c0-12.49-1.57-24.63-4.52-36.22,21.39,20.86,49.09,35.27,79.94,40.05l-85.35,49.27c6.4-16.48,9.92-34.38,9.92-53.09ZM1017.95,1172.3c-1.4-2.82-2.7-5.69-3.89-8.59,3.54-12.62,5.44-25.91,5.44-39.64,0-17.74-3.16-34.75-8.94-50.51,2.8-8.71,6.54-17.18,11.2-25.25,33.94-2.08,67.28-15.85,93.42-41.29-2.93,11.56-4.5,23.67-4.5,36.13,0,23.56,5.58,45.84,15.48,65.6-.32.55-.64,1.09-.97,1.64l-58.03,33.5-49.21,28.41ZM1155.83,1076.64c5.46-23.32,5.16-47.08-.59-69.65,21.38,20.8,49.04,35.17,79.84,39.94l-85.26,49.22c2.42-6.31,4.44-12.82,6.01-19.52ZM1248.61,896.42c-36.29,2.22-69.05,17.66-93.54,41.56,8.56-33.81,4.97-70.09-10.8-101.82,4.62-7.97,10.06-15.41,16.2-22.2,18.3-3.19,36-9.9,52.26-20,10.21-6.34,19.47-13.78,27.67-22.15,3.06-.41,6.16-.7,9.29-.89v123.57c-.36.64-.72,1.28-1.09,1.92ZM1249.7,729.09c-3.2-.19-6.37-.5-9.51-.92-21.08-21.54-48.72-36.64-79.65-42.04-6.15-6.8-11.6-14.24-16.23-22.22,5.01-10.09,8.89-20.83,11.52-32.08,5.46-23.32,5.16-47.07-.58-69.63,24.46,23.79,57.15,39.17,93.34,41.39.37.65.75,1.29,1.11,1.95v123.55ZM1249.7,576.97c-18.53-23.08-44.1-40.75-74.43-49.33,13.04-3.71,25.64-9.26,37.47-16.61,14.28-8.86,26.7-19.88,36.96-32.58v98.51ZM1155.15,493.1c2.95-11.6,4.52-23.74,4.52-36.24,0-18.71-3.52-36.61-9.92-53.08l85.35,49.28c-30.85,4.78-58.56,19.18-79.96,40.04ZM1068.37,338.32c6.57,3.1,12.84,6.73,18.76,10.83l-18.76-10.83ZM928.06,257.31c6.66,3.13,13.02,6.81,19.01,10.98l-19.01-10.98ZM552.87,268.32c6.02-4.19,12.41-7.88,19.1-11.03l-19.1,11.03ZM412.8,349.18c5.95-4.13,12.25-7.78,18.86-10.89l-18.86,10.89ZM234.28,587.63c-42.86-2.61-80.23-25.91-102.2-60.02,21.97-34.12,59.33-57.42,102.2-60.02v120.04ZM234.28,657.71v22.69c-.32-3.75-.49-7.54-.49-11.35s.17-7.59.49-11.35ZM234.28,819.75v22.37c-.31-3.69-.48-7.42-.48-11.18s.17-7.5.48-11.18ZM235.74,912.29v120.22c-32.52-1.6-62.87-15.02-86.06-38.2-6.72-6.72-12.61-14.04-17.64-21.84,22.21-34.54,60.2-58.02,103.7-60.18ZM432.45,1162.15c-7.16-3.3-14.03-7.26-20.53-11.85l20.53,11.85ZM572.01,1242.72c-6.73-3.16-13.15-6.87-19.2-11.08l19.2,11.08ZM947.14,1231.65c-6.04,4.2-12.44,7.91-19.15,11.06l19.15-11.06ZM1071.21,1160.03l16.87-9.74c-2.05,1.44-4.14,2.83-6.28,4.16-4.61,2.86-9.35,5.42-14.2,7.67l3.61-2.09ZM1265.7,912.38c42.9,2.6,80.29,25.93,102.26,60.09-5.03,7.79-10.91,15.11-17.63,21.83-22.85,22.85-52.65,36.21-84.63,38.13v-120.05ZM1265.7,842.22v-22.59c.32,3.72.49,7.49.49,11.29s-.17,7.57-.49,11.29ZM1265.7,680.6v-23.08c.68,7.59.69,15.31,0,23.08ZM1265.7,467.58c42.9,2.6,80.3,25.93,102.26,60.09-5.03,7.8-10.92,15.12-17.63,21.83-22.85,22.85-52.65,36.21-84.63,38.13v-120.05ZM1262.76,415.99c-2.35,10.04-5.81,19.62-10.28,28.63l-103.99-60.04c22.43-33.77,60.09-56.58,103.11-58.56,14.37,27.7,18.35,59.27,11.16,89.97ZM1066.13,274.85c21.01-13.04,44.71-19.75,68.84-19.75,10.01,0,20.1,1.16,30.09,3.49,31.57,7.39,58.72,25.77,77.22,52.08-44.66,4.67-83.43,29.42-107.1,65.04-23.67-35.62-62.45-60.37-107.11-65.04,10-14.2,22.85-26.39,38.06-35.82ZM1003.5,234.48c0,19.65-4.36,38.3-12.15,55.04-25.06-34.38-64.66-57.52-109.67-60.3,10.01-20.09,15.31-42.37,15.31-65.47h0c0-21.26-4.54-41.47-12.7-59.73,66.73,5.98,119.21,62.21,119.21,130.47ZM749.99,32.75c44.16,0,83.28,21.97,107.02,55.55-44.63,4.7-83.37,29.45-107.02,65.05-23.66-35.6-62.4-60.35-107.03-65.05,23.74-33.58,62.87-55.55,107.02-55.55ZM615.69,104.02c-8.15,18.26-12.69,38.46-12.69,59.71,0,23.52,5.56,45.75,15.42,65.49-45.06,2.76-84.7,25.9-109.78,60.31-7.79-16.75-12.15-35.41-12.15-55.06,0-68.25,52.48-124.47,119.21-130.45ZM272.17,293.5c24.74-24.74,57.64-38.37,92.63-38.37s67.89,13.63,92.63,38.37c5.36,5.36,10.2,11.11,14.49,17.17-44.66,4.67-83.42,29.41-107.1,65.02-23.68-35.62-62.46-60.37-107.13-65.02,4.29-6.06,9.13-11.81,14.49-17.17ZM111.31,456.89c0-68.21,52.41-124.42,119.08-130.46-8.25,18.55-12.59,38.8-12.59,59.71,0,23.11,5.3,45.4,15.32,65.5-45.01,2.79-84.6,25.93-109.66,60.31-7.79-16.75-12.15-35.4-12.15-55.05ZM111.31,598.34c0-19.66,4.36-38.31,12.15-55.07,25.06,34.37,64.64,57.51,109.64,60.31-10.01,20.09-15.31,42.37-15.31,65.47,0,20.93,4.35,41.19,12.61,59.75-30.49-2.73-58.8-15.91-80.71-37.82-24.75-24.74-38.37-57.64-38.38-92.63ZM111.31,901.68c0-68.25,52.46-124.48,119.18-130.47-8.15,18.26-12.69,38.47-12.69,59.72,0,23.52,5.56,45.76,15.42,65.49-45.09,2.77-84.74,25.94-109.82,60.39-7.92-17.05-12.1-35.76-12.1-55.12ZM149.68,1135.77c-24.75-24.74-38.37-57.64-38.38-92.63,0-19.62,4.34-38.25,12.11-54.98,4.49,6.14,9.47,11.98,14.96,17.46,25.58,25.58,58.93,40.56,94.73,42.76-10.01,20.08-15.3,42.36-15.3,65.46,0,20.93,4.35,41.19,12.61,59.76-30.49-2.73-58.81-15.91-80.72-37.82ZM457.42,1206.47c-24.74,24.74-57.64,38.37-92.63,38.37s-67.89-13.63-92.63-38.37c-5.35-5.35-10.18-11.08-14.46-17.14,44.63-4.66,83.38-29.38,107.06-64.95,5.38,8.07,11.59,15.67,18.6,22.68,24.09,24.09,55.07,38.78,88.5,42.25-4.25,6.02-9.06,11.77-14.45,17.16ZM496.48,1265.51c0-19.65,4.36-38.3,12.15-55.05,25.08,34.41,64.72,57.56,109.79,60.31-9.86,19.73-15.42,41.97-15.42,65.48,0,21.25,4.54,41.45,12.68,59.71-66.72-5.99-119.2-62.2-119.2-130.46ZM749.99,1467.25c-44.17,0-83.3-21.98-107.04-55.57,44.64-4.69,83.38-29.44,107.04-65.05,23.66,35.6,62.4,60.35,107.03,65.05-23.74,33.59-62.87,55.57-107.03,55.57ZM884.3,1395.97c8.15-18.25,12.68-38.46,12.68-59.71h0c0-23.52-5.56-45.75-15.42-65.48,45.07-2.75,84.71-25.9,109.79-60.32,7.79,16.75,12.15,35.4,12.15,55.05,0,68.25-52.47,124.47-119.2,130.46ZM1227.81,1206.47c-25.54,25.54-59.08,38.31-92.63,38.31-33.54,0-67.09-12.77-92.63-38.31-5.36-5.36-10.15-11.07-14.38-17.06,21.77-2.29,42.91-9.48,62.05-21.37,18.27-11.34,33.51-26.21,45.04-43.62,23.68,35.53,62.39,60.23,106.98,64.9-4.25,6.02-9.06,11.76-14.44,17.14ZM1388.69,1043.12c0,34.99-13.62,67.89-38.36,92.64-21.94,21.95-50.3,35.14-80.85,37.85,17.68-39.85,16.8-86-2.66-125.22,35.84-2.18,69.22-17.17,94.83-42.78,5.48-5.48,10.46-11.31,14.94-17.45,7.76,16.72,12.11,35.34,12.11,54.96ZM1388.69,901.67c0,19.37-4.18,38.09-12.1,55.15-25.08-34.45-64.73-57.63-109.82-60.39,9.86-19.73,15.42-41.97,15.42-65.49,0-21.25-4.54-41.46-12.69-59.72,66.72,5.99,119.19,62.21,119.19,130.46ZM1388.69,598.33h0c0,34.99-13.62,67.89-38.36,92.64-21.93,21.93-50.26,35.12-80.77,37.84,3.7-8.37,6.65-17.14,8.78-26.24,8.11-34.65,3.17-69.36-11.6-98.96,35.86-2.17,69.28-17.16,94.9-42.78,5.48-5.48,10.46-11.32,14.94-17.45,7.76,16.72,12.1,35.34,12.1,54.96ZM1388.69,456.87c0,19.36-4.18,38.09-12.1,55.14-25.06-34.42-64.67-57.59-109.72-60.38,4.98-10.07,8.85-20.78,11.47-31.99,7.4-31.63,4.23-64.07-8.8-93.22,66.7,6.01,119.15,62.22,119.15,130.45h0Z"/></svg>
