<?xml version="1.0" encoding="UTF-8"?><svg id="Layer_2" xmlns="http://www.w3.org/2000/svg" xmlns:xlink="http://www.w3.org/1999/xlink" viewBox="0 0 1500 1500"><defs><style>.cls-1{fill:url(#New_Gradient_Swatch_2);stroke-width:0px;}</style><linearGradient id="New_Gradient_Swatch_2" x1="98.36" y1="1126.23" x2="1401.64" y2="373.77" gradientUnits="userSpaceOnUse"><stop offset="0" stop-color="#56450d"/><stop offset=".21" stop-color="#e5c787"/><stop offset=".39" stop-color="#f7d976"/><stop offset=".99" stop-color="#725728"/></linearGradient></defs><path class="cls-1" d="M939.34,356.83L750.74,30.16l-188.6,326.67H106.66l227.74,394.46-226.26,391.89h452.51l188.6,326.67,188.6-326.67h455.48l-227.74-394.46,226.26-391.89h-452.52ZM1046.43,567h-182.35l-100.15-194.17h586.68l-304.18,194.17ZM758.74,567v-169.31s87.33,169.31,87.33,169.31h-87.33ZM854.32,583l41.38,80.22-136.96,87.43v-167.64s95.58,0,95.58,0ZM742.74,567h-90.61l90.61-175.66v175.66ZM742.74,583v167.68s-139.6-88.7-139.6-88.7l40.74-78.98h98.86ZM589.58,653.37l-110.76-70.37h147.06l-36.3,70.37ZM582.22,667.64l-35.44,68.7-73.75-138.07,109.19,69.37ZM595.78,676.26l139.64,88.72-131.89,77.6-47.58-89.08,39.84-77.23ZM589.72,850.69l-120.49,70.89,77.79-150.82,42.69,79.93ZM597.26,864.82l36.76,68.82h-153.73l116.97-68.82ZM611.07,856.7l131.65-77.46-.33,154.4h-90.22l-41.1-76.94ZM742.35,949.64l-.33,152.22-81.31-152.22h81.63ZM758.35,949.64h82.43l-82.76,154.94.33-154.94ZM758.38,933.64l.33-154.43,131.7,77.49-41.1,76.94h-90.94ZM904.22,864.82l116.97,68.82h-153.73l36.76-68.82ZM911.76,850.69l41.03-76.81,74.75,144.93-115.78-68.12ZM897.96,842.57l-131.92-77.62,137.02-87.47,40.81,79.12-45.92,85.96ZM916.61,668.85l112.51-71.82-76.08,142.44-36.43-70.62ZM909.24,654.57l-36.92-71.57h149.03l-112.12,71.57ZM634.13,567h-180.49l-305.61-194.17h586.26l-100.15,194.17ZM445.57,580.83l92.3,172.79-86.65,168L143.75,389.07l301.83,191.76ZM642.57,949.64l94.83,177.53h-167.51l-102.5-177.53h175.18ZM858.91,949.64h172.21l-102.5,177.53h-164.54l94.83-177.53ZM961.95,756.74l94.7-177.29,298.05-190.26-307.56,532.71-85.19-165.16ZM758.74,356.83V76.01s162.13,280.81,162.13,280.81h-162.13ZM742.74,76.01v280.42s-.2.4-.2.4h-161.92l162.13-280.81ZM441.98,937.62l-297.88,175.26,199.53-345.6,98.34,170.34ZM151.37,1127.17l298.61-175.7,101.44,175.7H151.37ZM741.93,1143.17l-.6,280.93-162.19-280.93h162.8ZM757.33,1423.87l.6-280.7h161.46l-162.06,280.7ZM1049.29,950.18l300.82,177h-403.01l102.19-177ZM1357.38,1112.88l-300.09-176.57,99.07-171.6,201.01,348.17Z"/></svg>
