<?xml version="1.0" encoding="UTF-8"?><svg id="Layer_2" xmlns="http://www.w3.org/2000/svg" xmlns:xlink="http://www.w3.org/1999/xlink" viewBox="0 0 1500 1500"><defs><style>.cls-1{fill:url(#New_Gradient_Swatch_2);stroke-width:0px;}</style><linearGradient id="New_Gradient_Swatch_2" x1="134.97" y1="1105.09" x2="1365.03" y2="394.91" gradientUnits="userSpaceOnUse"><stop offset="0" stop-color="#56450d"/><stop offset=".21" stop-color="#e5c787"/><stop offset=".39" stop-color="#f7d976"/><stop offset=".99" stop-color="#725728"/></linearGradient></defs><path class="cls-1" d="M39.99,750c0,95.85,18.77,188.83,55.8,276.37,35.76,84.55,86.95,160.48,152.16,225.68,65.2,65.2,141.13,116.4,225.68,152.16,87.54,37.03,180.52,55.8,276.37,55.8s188.83-18.77,276.37-55.8c84.55-35.76,160.48-86.95,225.68-152.16,65.2-65.2,116.4-141.13,152.16-225.68,37.03-87.54,55.8-180.52,55.8-276.37s-18.77-188.83-55.8-276.37c-35.76-84.55-86.95-160.48-152.16-225.68-65.2-65.2-141.13-116.4-225.68-152.16-87.54-37.03-180.52-55.8-276.37-55.8s-188.83,18.77-276.37,55.8c-84.55,35.76-160.48,86.95-225.68,152.16-65.2,65.2-116.4,141.13-152.16,225.68-37.03,87.54-55.8,180.52-55.8,276.37ZM394.27,758c.99,45.21,10.34,89.07,27.87,130.51,5.15,12.17,10.96,23.97,17.36,35.41-6.41,11.43-12.21,23.24-17.36,35.41-16.06,37.98-25.26,78-27.44,119.23L74.15,758h320.13ZM509.71,509.71c20.19-20.19,42.49-37.53,66.38-51.81,23.89,14.28,46.19,31.62,66.38,51.81,62.27,62.27,97.4,144.46,99.43,232.19-87.74-2.04-169.92-37.16-232.19-99.43-20.19-20.19-37.53-42.49-51.81-66.38,14.28-23.89,31.62-46.19,51.81-66.38ZM448.97,560.17c-24.12-45.82-37.47-96.84-38.7-149.9,53.06,1.23,104.08,14.58,149.9,38.7-22.25,14.05-42.91,30.56-61.78,49.42-18.86,18.86-35.37,39.53-49.42,61.78ZM990.29,509.71c20.19,20.19,37.53,42.49,51.81,66.38-14.28,23.89-31.62,46.19-51.81,66.38-62.27,62.27-144.46,97.4-232.19,99.43,2.04-87.74,37.16-169.92,99.43-232.19,20.19-20.19,42.49-37.53,66.38-51.81,23.89,14.28,46.19,31.62,66.38,51.81ZM939.83,448.97c45.82-24.12,96.84-37.47,149.9-38.7-1.23,53.06-14.58,104.08-38.7,149.9-14.05-22.25-30.56-42.91-49.42-61.78-18.86-18.86-39.53-35.37-61.78-49.42ZM990.29,990.29c-20.19,20.19-42.49,37.53-66.38,51.81-23.89-14.28-46.19-31.62-66.38-51.81-62.27-62.27-97.4-144.46-99.43-232.19,87.74,2.04,169.92,37.16,232.19,99.43,20.19,20.19,37.53,42.49,51.81,66.38-14.28,23.89-31.62,46.19-51.81,66.38ZM1051.03,939.83c24.12,45.82,37.47,96.84,38.7,149.9-53.06-1.23-104.08-14.58-149.9-38.7,22.25-14.05,42.91-30.56,61.78-49.42,18.86-18.86,35.37-39.53,49.42-61.78ZM509.71,990.29c-20.19-20.19-37.53-42.49-51.81-66.38,14.28-23.89,31.62-46.19,51.81-66.38,62.27-62.27,144.46-97.4,232.19-99.43-2.04,87.74-37.16,169.92-99.43,232.19-20.19,20.19-42.49,37.53-66.38,51.81-23.89-14.28-46.19-31.62-66.38-51.81ZM560.17,1051.03c-45.82,24.12-96.84,37.47-149.9,38.7,1.23-53.06,14.58-104.08,38.7-149.9,14.05,22.25,30.56,42.91,49.42,61.78,18.86,18.86,39.53,35.37,61.78,49.42ZM653.78,1001.61c32.68-32.68,58.33-70.73,76.25-113.1,4.54-10.73,8.52-21.63,11.97-32.68v233.9c-53.09-1.22-104.15-14.57-150-38.7,22.25-14.05,42.91-30.56,61.78-49.42ZM758,855.83c3.44,11.04,7.43,21.94,11.97,32.68,17.92,42.37,43.58,80.43,76.25,113.1,18.86,18.86,39.53,35.37,61.78,49.42-45.85,24.13-96.9,37.48-150,38.7v-233.9ZM1001.61,846.22c-32.68-32.68-70.73-58.33-113.1-76.25-10.73-4.54-21.63-8.52-32.68-11.97h233.9c-1.22,53.09-14.57,104.15-38.7,150-14.05-22.25-30.56-42.91-49.42-61.78ZM855.83,742c11.04-3.44,21.94-7.43,32.68-11.97,42.37-17.92,80.42-43.58,113.1-76.25,18.86-18.86,35.37-39.53,49.42-61.78,24.13,45.85,37.48,96.9,38.7,150h-233.9ZM846.22,498.39c-32.68,32.68-58.33,70.73-76.25,113.1-4.54,10.73-8.52,21.63-11.97,32.68v-233.9c53.09,1.22,104.15,14.57,150,38.7-22.25,14.05-42.91,30.56-61.78,49.42ZM742,644.17c-3.44-11.04-7.43-21.94-11.97-32.68-17.92-42.37-43.58-80.43-76.25-113.1-18.86-18.86-39.53-35.37-61.78-49.42,45.85-24.13,96.9-37.48,150-38.7v233.9ZM498.39,653.78c32.68,32.68,70.73,58.33,113.1,76.25,10.73,4.54,21.63,8.52,32.68,11.97h-233.9c1.22-53.09,14.57-104.15,38.7-150,14.05,22.25,30.56,42.91,49.42,61.78ZM644.17,758c-11.04,3.44-21.94,7.43-32.68,11.97-42.37,17.92-80.42,43.58-113.1,76.25-18.86,18.86-35.37,39.53-49.42,61.78-24.13-45.85-37.48-96.9-38.7-150h233.9ZM540.68,1077.86c12.17-5.15,23.97-10.96,35.41-17.36,11.43,6.41,23.24,12.21,35.41,17.36,41.43,17.52,85.3,26.88,130.51,27.87v320.13l-320.55-320.55c41.23-2.18,81.25-11.38,119.23-27.44ZM758,1105.73c45.21-.99,89.07-10.34,130.51-27.87,12.17-5.15,23.97-10.96,35.41-17.36,11.43,6.41,23.24,12.21,35.41,17.36,37.98,16.06,78,25.26,119.23,27.44l-320.55,320.55v-320.13ZM1077.86,959.32c-5.15-12.17-10.96-23.97-17.36-35.41,6.41-11.43,12.21-23.24,17.36-35.41,17.52-41.43,26.88-85.3,27.87-130.51h320.13l-320.55,320.55c-2.18-41.23-11.38-81.25-27.44-119.23ZM1105.73,742c-.99-45.21-10.34-89.07-27.87-130.51-5.15-12.17-10.96-23.97-17.36-35.41,6.41-11.43,12.21-23.24,17.36-35.41,16.06-37.98,25.26-78,27.44-119.23l320.55,320.55h-320.13ZM959.32,422.14c-12.17,5.15-23.97,10.96-35.41,17.36-11.43-6.41-23.24-12.21-35.41-17.36-41.43-17.52-85.3-26.88-130.51-27.87V74.15l320.55,320.55c-41.23,2.18-81.25,11.38-119.23,27.44ZM742,394.27c-45.21.99-89.07,10.34-130.51,27.87-12.17,5.15-23.97,10.96-35.41,17.36-11.43-6.41-23.24-12.21-35.41-17.36-37.98-16.06-78-25.26-119.23-27.44L742,74.15v320.12ZM422.14,540.68c5.15,12.17,10.96,23.97,17.36,35.41-6.41,11.43-12.21,23.24-17.36,35.41-17.52,41.43-26.88,85.3-27.87,130.51H74.15l320.55-320.55c2.18,41.23,11.38,81.25,27.44,119.23ZM382.78,1089.26c-83.48-4.67-161.31-39.38-220.9-98.97-59.59-59.59-94.31-137.42-98.97-220.9l319.87,319.87ZM730.61,1437.09c-83.48-4.67-161.31-39.38-220.9-98.97-59.59-59.59-94.31-137.42-98.97-220.9l319.87,319.87ZM1089.26,1117.22c-4.67,83.48-39.38,161.31-98.97,220.9-59.59,59.59-137.42,94.31-220.9,98.97l319.87-319.87ZM1437.09,769.39c-4.67,83.48-39.38,161.31-98.97,220.9-59.59,59.59-137.42,94.31-220.9,98.97l319.87-319.87ZM1117.22,410.74c83.48,4.67,161.31,39.38,220.9,98.97,59.59,59.59,94.31,137.42,98.97,220.9l-319.87-319.87ZM769.39,62.91c83.48,4.67,161.31,39.38,220.9,98.97,59.59,59.59,94.31,137.42,98.97,220.9L769.39,62.91ZM410.74,382.78c4.67-83.48,39.38-161.31,98.97-220.9,59.59-59.59,137.42-94.31,220.9-98.97l-319.87,319.87ZM62.91,730.61c4.67-83.48,39.38-161.31,98.97-220.9,59.59-59.59,137.42-94.31,220.9-98.97L62.91,730.61ZM259.26,1240.74c-63.74-63.74-113.78-137.96-148.73-220.6-21.11-49.9-36.13-101.62-45-154.65,2.66,7.75,5.58,15.43,8.79,23.02,17.92,42.37,43.58,80.43,76.25,113.1s70.73,58.33,113.1,76.25c41.46,17.54,85.36,26.89,130.6,27.87.98,45.24,10.33,89.14,27.87,130.6,17.92,42.37,43.58,80.42,76.25,113.1s70.73,58.33,113.1,76.25c7.59,3.21,15.27,6.13,23.02,8.79-53.03-8.87-104.75-23.89-154.65-45-82.64-34.95-156.86-85-220.6-148.73ZM1389.47,1020.14c-34.95,82.64-85,156.86-148.73,220.6s-137.96,113.78-220.6,148.73c-49.9,21.11-101.62,36.13-154.65,45,7.75-2.66,15.43-5.58,23.02-8.79,42.37-17.92,80.42-43.58,113.1-76.25s58.33-70.73,76.25-113.1c17.54-41.46,26.89-85.36,27.87-130.6,45.24-.98,89.14-10.33,130.6-27.87,42.37-17.92,80.42-43.58,113.1-76.25s58.33-70.73,76.25-113.1c3.21-7.59,6.13-15.27,8.79-23.02-8.87,53.03-23.89,104.75-45,154.65ZM1240.74,259.26c63.74,63.74,113.78,137.96,148.73,220.6,21.11,49.9,36.13,101.62,45,154.65-2.66-7.75-5.58-15.43-8.79-23.02-17.92-42.37-43.58-80.43-76.25-113.1s-70.73-58.33-113.1-76.25c-41.46-17.54-85.36-26.89-130.6-27.87-.98-45.24-10.33-89.14-27.87-130.6-17.92-42.37-43.58-80.43-76.25-113.1s-70.73-58.33-113.1-76.25c-7.59-3.21-15.27-6.13-23.02-8.79,53.03,8.87,104.75,23.89,154.65,45,82.64,34.95,156.86,85,220.6,148.74ZM259.26,259.26c63.74-63.74,137.96-113.78,220.6-148.74,49.9-21.11,101.62-36.13,154.65-45-7.75,2.66-15.43,5.58-23.02,8.79-42.37,17.92-80.42,43.58-113.1,76.25s-58.33,70.73-76.25,113.1c-17.54,41.46-26.89,85.36-27.87,130.6-45.24.98-89.14,10.33-130.6,27.87-42.37,17.92-80.42,43.58-113.1,76.25s-58.33,70.73-76.25,113.1c-3.21,7.59-6.13,15.27-8.79,23.02,8.87-53.03,23.89-104.75,45-154.65,34.95-82.64,85-156.86,148.73-220.6Z"/></svg>
