<?xml version="1.0" encoding="UTF-8"?><svg id="Layer_2" xmlns="http://www.w3.org/2000/svg" xmlns:xlink="http://www.w3.org/1999/xlink" viewBox="0 0 1500 1500"><defs><style>.cls-1{fill:url(#New_Gradient_Swatch_2);stroke-width:0px;}</style><linearGradient id="New_Gradient_Swatch_2" x1="105.86" y1="1121.9" x2="1394.14" y2="378.1" gradientUnits="userSpaceOnUse"><stop offset="0" stop-color="#56450d"/><stop offset=".21" stop-color="#e5c787"/><stop offset=".39" stop-color="#f7d976"/><stop offset=".99" stop-color="#725728"/></linearGradient></defs><path class="cls-1" d="M111.71,745.39v366.37l-5.86,10.14h11.71l396.06,228.67h0l230.5,133.08,5.86,10.14,5.86-10.14,230.51-133.08h0s396.06-228.67,396.06-228.67h11.71l-5.86-10.14V388.25l5.86-10.14h-11.71l-309.28-178.56h0l-1.29-.75-6.71-3.87h0s-.84-.48-.84-.48l-77.94-45h0S755.85,16.35,755.85,16.35l-5.86-10.14-5.86,10.14-230.5,133.08h0L117.57,378.1h-11.71l5.86,10.14v357.14ZM236.08,328.16l111.99-64.66v114.61h-198.5l86.51-49.95ZM1135.93,378.1h-62.78v-160.08l62.78,36.25v123.83ZM1141,784.56l-59.86-34.56,59.86-34.56,19.95,34.56-19.95,34.56ZM364.07,1245.74v-123.84h62.78v160.09l-.8-.46-61.98-35.78ZM359,715.44l59.86,34.56-59.86,34.56-19.95-34.56,19.95-34.56ZM442.85,1121.9h92.43l46.21,80.04-138.64,80.04v-160.09ZM955.48,394.1l19.96,34.57-59.87,34.56v-69.13h39.91ZM544.52,1105.9l-19.95-34.56,59.87-34.56v69.12h-39.91ZM742,918.09l-133.56-77.11,133.56-77.11v154.22ZM758,918.09v-154.23l133.57,77.11-133.57,77.12ZM891.57,659.03l-133.57,77.12v-154.24l133.57,77.12ZM742,581.92v154.23l-133.57-77.12,133.57-77.11ZM720.14,923.95h-70.57l-35.29-61.12,105.86,61.12ZM885.71,862.83l-35.29,61.12h-70.57l105.86-61.12ZM779.85,576.05h70.57l35.29,61.12-105.86-61.12ZM614.28,637.17l35.29-61.12h70.57l-105.86,61.12ZM734,750l-133.56,77.11v-154.23l133.56,77.12ZM631.09,923.95h-30.66v-53.1l30.66,53.1ZM640.33,939.95l19.95,34.56-59.85,34.55v-69.11h39.9ZM658.81,939.95h61.33l-46,26.56-15.33-26.56ZM742,945.8v138.24l-59.86-103.68,59.86-34.56ZM758,945.8l59.86,34.56-59.86,103.68v-138.24ZM779.87,939.95h61.32l-15.33,26.55-45.99-26.55ZM859.66,939.95h39.9v69.11l-59.85-34.56,19.95-34.55ZM868.9,923.95l30.67-53.11v53.11h-30.67ZM766,750l133.57-77.12v154.23l-133.57-77.11ZM868.9,576.05h30.67v53.11l-30.67-53.11ZM859.66,560.05l-19.95-34.55,59.85-34.55v69.1h-39.9ZM841.19,560.05h-61.31l45.98-26.55,15.33,26.55ZM758,554.21v-138.25l59.86,103.68-59.86,34.56ZM742,554.2l-59.86-34.56,59.86-103.68v138.24ZM720.13,560.05h-61.32l15.33-26.55,45.99,26.55ZM640.33,560.05h-39.9v-69.1l59.84,34.55-19.95,34.55ZM631.09,576.05l-30.66,53.1v-53.1h30.66ZM584.43,811.13l-35.29-61.13,35.29-61.13v122.26ZM570.57,819.12l-46-26.56,15.33-26.56,30.67,53.12ZM584.43,854.83v69.12h-119.72l119.72-69.12ZM584.43,939.95v78.35l-67.87,39.18-67.86-117.53h135.72ZM600.43,1027.54l67.85-39.17,67.86,117.53h-135.7v-78.36ZM720.14,1121.9l-48.92,28.25-48.92-28.25h97.85ZM763.85,1105.9l67.86-117.54,67.85,39.18v78.36h-135.71ZM877.71,1121.9l-48.93,28.25-48.93-28.25h97.86ZM915.57,1036.77l59.86,34.56-19.95,34.56h-39.91v-69.12ZM983.43,1057.48l-67.87-39.18v-78.35h135.72l-67.86,117.53ZM915.57,923.95v-69.12l119.72,69.12h-119.72ZM915.57,688.87l35.29,61.13-35.29,61.13v-122.25ZM929.43,680.88l46,26.56-15.33,26.56-30.67-53.12ZM923.57,659.03l119.72-69.12-59.86,103.68-59.86-34.56ZM915.57,645.17v-69.12h119.72l-119.72,69.12ZM915.57,560.05v-78.34l67.87-39.18,67.85,117.52h-135.72ZM899.57,472.47l-67.85,39.17-67.86-117.54h135.71v78.37ZM779.85,378.1l48.93-28.25,48.93,28.25h-97.86ZM750,376.87l-62.78-36.25,62.78-36.25,62.78,36.25-62.79,36.25ZM720.14,378.1h-97.85l48.92-28.25,48.92,28.25ZM736.14,394.1l-67.86,117.54-67.84-39.17v-78.37h135.7ZM584.43,463.23l-59.87-34.57,19.96-34.57h39.91v69.13ZM516.56,442.53l67.87,39.18v78.34h-135.72l67.85-117.52ZM584.43,576.05v69.13l-119.72-69.13h119.72ZM570.57,680.88l-30.67,53.12-15.33-26.56,46-26.56ZM516.57,693.59l-59.86-103.68,119.71,69.12-59.85,34.56ZM530.67,750l-19.95,34.56-59.85-34.56,59.85-34.56,19.95,34.56ZM502.71,798.41l-67.86,117.54-67.86-117.53,67.86-39.18,67.85,39.18ZM516.57,806.41l59.86,34.56-119.72,69.12,59.86-103.68ZM442.85,961.81l48.93,84.75-48.93-28.25v-56.5ZM507.79,1074.27l18.26,31.62h-83.19v-69.11l64.93,37.49ZM553.76,1121.9h36.53l64.92,37.48-59.86,34.56-41.6-72.04ZM671.22,1168.62l62.78,36.25-99.26,57.3-31.39-54.37,67.86-39.18ZM687.22,1159.38l62.78-36.25,62.79,36.25-62.78,36.25-62.78-36.25ZM828.78,1168.62l67.86,39.18-31.39,54.37-99.25-57.3,62.78-36.25ZM844.78,1159.38l64.93-37.48h36.53l-41.6,72.04-59.86-34.56ZM964.71,1121.9h92.43v160.09l-138.65-80.04,46.22-80.04ZM973.95,1105.9l18.26-31.62,64.94-37.49v69.11h-83.19ZM1008.21,1046.56l48.94-84.76v56.5l-48.94,28.25ZM923.57,840.98l59.86-34.56,59.86,103.68-119.72-69.12ZM929.43,819.12l30.67-53.12,15.33,26.56-46,26.56ZM969.33,750l19.95-34.56,59.85,34.56-59.85,34.56-19.95-34.56ZM997.28,701.59l67.86-117.54,67.86,117.53-67.86,39.18-67.85-39.18ZM1008.22,453.45l48.93,28.25v56.49l-48.93-84.74ZM992.22,425.74l-18.27-31.64h83.19v69.12l-64.93-37.49ZM964.71,378.1l-46.22-80.04,138.65-80.04v160.09h-92.43ZM946.24,378.1h-36.53l-64.93-37.49,59.86-34.56,41.6,72.04ZM828.78,331.38l-62.78-36.25,99.25-57.3,31.39,54.37-67.86,39.18ZM750,285.9l-107.26-61.92,107.25-185.76,107.26,185.77-107.25,61.92ZM734,295.14l-62.78,36.25-67.86-39.18,31.39-54.37,99.26,57.3ZM655.22,340.62l-64.92,37.48h-36.53l41.6-72.04,59.86,34.56ZM535.28,378.1h-92.43v-160.09l138.64,80.04-46.21,80.04ZM526.05,394.1l-18.27,31.64-64.92,37.48v-69.12h83.19ZM491.78,453.45l-48.92,84.74v-56.49l48.92-28.25ZM502.71,701.59l-67.85,39.18-67.86-39.18,67.86-117.53,67.86,117.54ZM413,910.09l-48.92-28.25v-56.49l48.92,84.74ZM426.85,936.57v72.5l-62.78-36.25v-72.5l62.78,36.25ZM426.85,1027.55v78.35h-62.78v-114.6l62.78,36.25ZM589.5,1215.8l31.39,54.37-107.25,61.92-62.78-36.25,138.64-80.04ZM628.89,1284.02l99.25,171.91-198.5-114.61,99.25-57.3ZM750,1214.1l107.25,61.92-107.26,185.77-107.25-185.76,107.26-61.92ZM871.11,1284.02l99.25,57.3-198.51,114.61,99.26-171.91ZM879.11,1270.17l31.39-54.37,138.65,80.04-62.78,36.25-107.25-61.92ZM1073.15,1281.98v-160.09h62.78v123.84l-62.78,36.25ZM1073.15,1105.9v-78.35l62.78-36.25v114.6h-62.78ZM1073.15,1009.07v-72.5l62.78-36.25v72.5l-62.78,36.25ZM1087,910.09l48.92-84.74v56.49l-48.92,28.25ZM1065.15,915.95l-67.86-117.54,67.85-39.18,67.86,39.18-67.86,117.53ZM1087,589.91l48.92,28.25v56.49l-48.92-84.74ZM1073.15,563.43v-72.49l62.78,36.25v72.5l-62.78-36.25ZM1073.15,472.46v-78.36h62.78v114.6l-62.78-36.25ZM910.5,284.2l-31.39-54.37,107.25-61.92,62.78,36.25-138.64,80.04ZM871.11,215.98l-99.26-171.91,198.5,114.61-99.25,57.3ZM628.89,215.98l-99.25-57.3,198.5-114.61-99.25,171.91ZM620.89,229.83l-31.39,54.37-138.64-80.04,62.78-36.25,107.25,61.92ZM426.85,218.02v160.08h-62.78v-123.83l62.78-36.25ZM426.85,394.1v78.36l-62.78,36.25v-114.6h62.78ZM426.85,490.94v72.49l-62.78,36.25v-72.5l62.78-36.25ZM413,589.91l-48.92,84.74v-56.49l48.92-28.25ZM348.07,702.36l-18.27,31.64-41.59-72.04,59.86-34.56v74.97ZM320.57,750l-46.22,80.05-138.64-80.04,138.64-80.05,46.21,80.04ZM329.81,766l18.27,31.64v74.97l-59.86-34.56,41.6-72.05ZM348.07,891.09v72.5l-99.25-57.31,31.39-54.37,67.86,39.18ZM348.07,982.06v123.84h-214.5l107.25-185.76,107.25,61.93ZM348.07,1121.9v114.61l-198.5-114.61h198.5ZM1151.93,1236.5v-114.61h198.5l-198.5,114.61ZM1151.93,1105.9v-123.84l107.25-61.93,107.25,185.76h-214.5ZM1151.93,963.58v-72.5l67.86-39.18,31.39,54.37-99.25,57.31ZM1151.93,872.61v-74.97l18.27-31.64,41.6,72.05-59.86,34.56ZM1179.43,750l46.21-80.04,138.64,80.05-138.64,80.04-46.22-80.05ZM1170.19,734l-18.27-31.64v-74.97l59.86,34.56-41.59,72.04ZM1151.93,608.92v-72.5l99.25,57.3-31.39,54.37-67.86-39.18ZM1151.93,517.95v-123.84h214.5l-107.25,185.77-107.25-61.92ZM1151.93,378.1v-114.61l198.5,114.61h-198.5ZM348.07,394.1v123.84l-107.25,61.92-107.25-185.77h214.5ZM348.07,536.42v72.5l-67.86,39.18-31.39-54.37,99.25-57.3ZM266.36,656.1l-138.64,80.05v-72.5l107.25-61.92,31.39,54.37ZM266.35,843.9l-31.39,54.37-107.25-61.92v-72.49l138.64,80.04ZM127.71,854.83l99.25,57.3-99.25,171.91v-229.21ZM1372.29,1084.04l-99.25-171.91,99.25-57.3v229.21ZM1372.29,836.35l-107.25,61.92-31.39-54.37,138.64-80.04v72.49ZM1233.64,656.1l31.39-54.37,107.25,61.92v72.5l-138.64-80.05ZM1372.29,645.17l-99.25-57.3,99.25-171.91v229.21ZM127.71,415.96l99.25,171.91-99.25,57.3v-229.21Z"/></svg>
