<?xml version="1.0" encoding="UTF-8"?><svg id="Layer_2" xmlns="http://www.w3.org/2000/svg" xmlns:xlink="http://www.w3.org/1999/xlink" viewBox="0 0 1500 1500"><defs><style>.cls-1{fill:url(#New_Gradient_Swatch_2);stroke-width:0px;}</style><linearGradient id="New_Gradient_Swatch_2" x1="37.98" y1="1287.05" x2="1236.91" y2="594.84" gradientUnits="userSpaceOnUse"><stop offset="0" stop-color="#56450d"/><stop offset=".21" stop-color="#e5c787"/><stop offset=".39" stop-color="#f7d976"/><stop offset=".99" stop-color="#725728"/></linearGradient></defs><path class="cls-1" d="M387.07,1287.04l-87.27,151.16h900.4l-87.27-151.16h349.09l-174.54-302.3h174.54L1011.8,204.96l-87.26,151.15L750,53.8l-174.54,302.31-87.27-151.16L37.98,984.74h174.54l-174.54,302.3h349.09ZM1172.48,1422.2H327.51l78.03-135.16h271.45l73.01,126.45,73.01-126.45h271.45l78.03,135.16ZM637.78,1187.12l24.47-42.39h26.34l-13.17-22.81,24.47-42.38h42.11v191.51h-55.77l-48.45-83.92ZM667.76,1271.04h-78.43l39.21-67.92,39.22,67.92ZM1050.8,606.81l.22.38h-78.44l39.22-67.93,39,67.55ZM846.99,1128.73l-3.93-6.81,24.47-42.38h56.81l-28.4,49.19h-48.95ZM886.7,1144.73l-15.24,26.39-15.24-26.39h30.47ZM833.82,1105.92l-15.23-26.38h30.47l-15.23,26.38ZM809.35,1063.53l-45.49-78.8h139.93l-45.5,78.8h-48.94ZM815.4,847.45l-24.69,42.77-24.69-14.26,49.38-28.51ZM758,862.09v-28.52h49.39l-49.39,28.52ZM742,862.09l-49.39-28.52h49.39v28.52ZM733.98,875.96l-24.69,14.26-24.69-42.77,49.39,28.52ZM804.57,898.21l32.69-56.63,65.39,113.26-98.08-56.63ZM758,817.57v-113.28l65.4,113.28h-65.4ZM742,817.57h-65.4l65.4-113.29v113.29ZM695.43,898.22l-98.08,56.63,65.39-113.26,32.69,56.63ZM782.7,904.09l-24.7,42.79v-57.05l24.7,14.26ZM742,889.83v57.06l-24.71-42.79,24.71-14.26ZM796.56,912.09l98.12,56.65h-130.82l32.71-56.65ZM916.45,789.11l16.44,28.47h-65.74l49.3-28.47ZM859.14,803.7l32.87-56.93,16.44,28.46-49.3,28.46ZM591.56,775.23l16.43-28.46,32.86,56.92-49.3-28.46ZM632.85,817.57h-65.74l16.44-28.47,49.31,28.47ZM703.44,912.09l32.7,56.65h-130.82l98.11-56.65ZM758,1006.6l32.87,56.94h-32.87v-56.94ZM742,1063.53h-32.88l32.88-56.94v56.94ZM851.12,833.57h91l24.47,42.39-45.5,78.81-69.97-121.19ZM960.6,833.57h30.47l-15.24,26.39-15.24-26.39ZM1009.54,833.57h7.86l24.47,42.39-28.4,49.19-28.4-49.19,24.47-42.39ZM1035.88,833.57h30.47l-15.23,26.39-15.23-26.39ZM1026.64,817.57l-13.17-22.81-13.17,22.81h-48.95l-21.05-36.47,165.84-95.75,27.89,48.3-48.45,83.91h-48.94ZM1133.27,749.66l39.21,67.92h-78.42l39.21-67.92ZM1060.26,623.19l27.89,48.31-165.85,95.75-21.07-36.48,24.47-42.39h26.34l-13.17-22.81,24.47-42.38h96.91ZM929.64,649.57l-15.23-26.38h30.46l-15.23,26.38ZM920.4,665.57l-3.93,6.81h-48.94l-28.4-49.19h56.81l24.47,42.38ZM907.23,688.38l-15.23,26.39-15.24-26.39h30.47ZM882.76,730.77l-45.5,78.8-69.97-121.19h90.99l24.47,42.39ZM662.73,809.58l-45.5-78.81,24.48-42.39h90.99l-69.97,121.19ZM607.99,714.77l-15.24-26.39h30.47l-15.24,26.39ZM583.52,672.38l-3.93-6.8,24.47-42.39h56.81l-28.4,49.19h-48.95ZM570.36,649.58l-15.23-26.39h30.47l-15.24,26.39ZM561.12,665.58l-13.17,22.8h26.33l24.47,42.39-21.06,36.48-165.84-95.75,27.89-48.31h96.91l24.47,42.39ZM366.72,749.66l39.21,67.91h-78.42l39.21-67.91ZM375.96,733.66l27.89-48.31,165.84,95.75-21.06,36.47h-48.95l-13.17-22.81-13.17,22.81h-48.94l-48.45-83.91ZM464.11,833.57l-15.23,26.39-15.23-26.39h30.47ZM482.59,833.57h7.86l24.47,42.39-28.4,49.19-28.4-49.19,24.47-42.39ZM508.92,833.57h30.47l-15.24,26.39-15.24-26.39ZM557.87,833.57h91l-69.97,121.2-45.51-78.81,24.47-42.39ZM736.14,984.74l-45.49,78.8h-48.94l-45.5-78.8h139.93ZM681.41,1079.53l-15.23,26.38-15.23-26.38h30.47ZM656.94,1121.92l-3.93,6.81h-48.95l-28.4-49.19h56.81l24.47,42.38ZM643.78,1144.73l-15.24,26.39-15.24-26.39h30.47ZM742,1287.04v80.6l-46.53-80.6h46.53ZM758,1287.04h46.53l-46.53,80.6v-80.6ZM758,1271.04v-191.51h42.11l24.47,42.38-13.17,22.81h26.34l24.47,42.39-48.45,83.92h-55.77ZM871.46,1203.12l39.21,67.92h-78.43l39.22-67.92ZM880.7,1187.12l24.47-42.39h107.12l72.93,126.32h-156.07l-48.45-83.92ZM914.41,1128.73l37.64-65.19h-75.28l44.33-76.77,81.96,141.96h-88.64ZM946.38,998.57l225.44,130.16h-150.29l-75.15-130.16ZM954.43,984.74h150.25l75.13,130.13-225.39-130.13ZM931.5,968.74l44.33-76.78,37.64,65.19,37.64-65.19,44.33,76.78h-163.95ZM1060.35,875.96l24.47-42.39h96.9l78.04,135.17h-145.85l-53.57-92.78ZM1110.01,677.35l69.81-40.31-46.54,80.61-23.27-40.3ZM1102.01,663.5l-23.27-40.31h93.08l-69.81,40.31ZM954.11,607.19h-48.94l-53.56-92.77,72.92-126.31,78.03,135.15-48.46,83.93ZM886.7,607.19h-75.29l37.64,65.19h-88.63l81.96-141.96,44.32,76.77ZM758,644.57v-260.29l75.14,130.14-75.14,130.15ZM742,644.58l-75.14-130.15,75.14-130.15v260.3ZM739.58,672.38h-88.63l37.64-65.19h-75.29l44.32-76.76,81.96,141.95ZM594.83,607.19h-48.94l-48.45-83.92,78.03-135.15,72.92,126.31-53.56,92.76ZM527.41,607.19h-78.43l39.22-67.92,39.21,67.92ZM397.99,663.49l-69.81-40.3h93.08l-23.27,40.3ZM389.99,677.35l-23.27,40.3-46.54-80.6,69.81,40.3ZM318.27,833.57h96.9l24.47,42.39-53.57,92.78h-145.85l78.04-135.17ZM448.88,891.96l37.64,65.19,37.64-65.19,44.34,76.78h-163.95l44.33-76.78ZM545.57,984.74l-225.39,130.13,75.13-130.13h150.26ZM553.62,998.57l-75.15,130.16h-150.29l225.44-130.16ZM578.91,986.77l44.33,76.77h-75.28l37.64,65.19h-88.64l81.96-141.96ZM594.83,1144.73l24.47,42.39-48.45,83.92h-156.07l72.93-126.32h107.12ZM1434.31,1271.04h-330.61l-72.93-126.32h184.77l-92.37-159.99h145.85l165.3,286.3ZM1011.8,236.96l422.5,731.78h-156.06l-135.73-235.08,73.02-126.47h-146.03l-135.72-235.08,78.03-135.15ZM750,85.8l165.3,286.31-72.92,126.31-92.38-160-92.38,160.01-72.92-126.31,165.3-286.31ZM65.69,968.74L488.19,236.96l78.03,135.16-78.03,135.15h0s-57.7,99.92-57.7,99.92h-146.02l73.01,126.46-135.73,235.09H65.69ZM376.84,984.74l-92.37,159.99h184.77l-72.93,126.32H65.69l165.3-286.3h145.85Z"/></svg>
