<?xml version="1.0" encoding="UTF-8"?><svg id="Layer_2" xmlns="http://www.w3.org/2000/svg" xmlns:xlink="http://www.w3.org/1999/xlink" viewBox="0 0 1500 1500"><defs><style>.cls-1{fill:url(#New_Gradient_Swatch_2);stroke-width:0px;}</style><linearGradient id="New_Gradient_Swatch_2" x1="138.27" y1="1103.18" x2="1360.8" y2="397.36" gradientUnits="userSpaceOnUse"><stop offset="0" stop-color="#56450d"/><stop offset=".21" stop-color="#e5c787"/><stop offset=".39" stop-color="#f7d976"/><stop offset=".99" stop-color="#725728"/></linearGradient></defs><path class="cls-1" d="M1397.81,476.33c-11.09-26.21-23.67-51.59-37.72-76.07l1.19-2.06h-2.39c-30.58-52.9-67.98-101.57-111.76-145.35-64.57-64.57-139.75-115.26-223.48-150.67-85.56-36.19-176.38-54.76-269.98-55.23-.61,0-1.23-.02-1.84-.02-.02,0-.03,0-.05,0l-2.47-4.29-2.48,4.3c-93.79.41-184.79,18.98-270.51,55.23-83.72,35.41-158.91,86.1-223.48,150.67-43.78,43.78-81.17,92.45-111.76,145.35h-3.17l1.58,2.74c-13.88,24.27-26.34,49.41-37.33,75.39-36.66,86.68-55.25,178.76-55.25,273.67s18.59,186.98,55.25,273.67c10.97,25.94,23.41,51.05,37.27,75.29l-1.81,3.14h3.63c30.55,52.78,67.89,101.35,111.58,145.05,64.57,64.57,139.75,115.26,223.48,150.67,85.75,36.27,176.79,54.84,270.62,55.24l2.66,4.6,2.65-4.6c94.11-.29,185.41-18.87,271.41-55.24,83.72-35.41,158.91-86.1,223.48-150.67,43.7-43.7,81.03-92.27,111.58-145.05h2.28l-1.13-1.97c14.13-24.6,26.8-50.11,37.94-76.46,36.66-86.68,55.25-178.76,55.25-273.67s-18.59-186.98-55.25-273.67ZM1235.83,264.17c40.57,40.57,75.52,85.43,104.51,134.03h-237.33s0-.07,0-.1c0-47.4-9.29-93.39-27.6-136.69-17.69-41.82-43.01-79.37-75.25-111.62-29.62-29.62-63.73-53.38-101.5-70.76,40.53,8.94,80.2,21.58,118.78,37.9,81.81,34.6,155.29,84.15,218.39,147.25ZM1105.42,1086.09c-1.36-43.99-10.66-86.68-27.73-127.06-4.75-11.22-10.05-22.14-15.88-32.73h1.6l-3.54-6.04,88.84-153.87,184.58,319.7h-227.87ZM165.36,1086.09l184.87-320.19,90.35,156.49-2.29,3.91h.42c-5.82,10.6-11.13,21.51-15.88,32.73-17.08,40.38-26.38,83.07-27.74,127.06h-229.73ZM416.68,398.1c0-52.12,11.84-102.41,34.2-147.83l85.41,147.94h-119.61s0-.07,0-.1ZM1087.01,398.2h-120.07l85.21-149.3c22.8,45.78,34.87,96.56,34.87,149.2,0,.03,0,.07,0,.1ZM749.61,1425.65l-93.45-161.87h186.91l-93.45,161.87ZM646.92,1247.78l-84.11-145.69h183.62l3.19,5.46,3.19-5.46h183.62l-84.11,145.69h-205.38ZM850.59,250.04l85.54,148.16h-182.37l-2.91-4.97-2.91,4.97h-185.42l86.12-149.17,201.95,1.01ZM657.85,233.08l91.47-158.43,92,159.35-183.47-.92ZM749.61,1075.83l-87.33-149.52h174.65l-87.33,149.52ZM750.85,424.87l86.52,147.56h-173.04l86.52-147.56ZM752.86,773.31l3.23-5.66,83.32,142.66h-175.12l84.32-144.37,4.26,7.37ZM754.52,733.23l-2.67-4.58-2.67,4.58c-.33,0-.66,0-.98-.01l-83.6-144.8h175.36l-82.62,144.77c-.94.01-1.87.03-2.81.03ZM650.5,596.02l78.8,136.48c-48.14-3.18-94.3-16.49-136-38.94l57.2-97.55ZM579.39,685.65c-23.22-13.98-44.89-30.89-64.55-50.55-14.52-14.52-27.52-30.15-38.97-46.67h160.53l-57.01,97.22ZM649.35,904.15l-61.33-105.02c44.7-24.4,94.53-38.41,146.48-40.77l-85.14,145.79ZM634.41,910.31h-167.42c12.49-18.83,26.95-36.56,43.3-52.91,19.48-19.48,40.92-36.28,63.87-50.26l60.25,103.17ZM852.11,900.33l-82.81-141.79c50.39,2.77,98.72,16.5,142.22,40.06l-59.41,101.73ZM925.4,806.55c23.3,14.09,45.07,31.1,64.82,50.85,16.35,16.35,30.81,34.07,43.3,52.91h-168.72l60.6-103.76ZM852.64,598.47l56.23,95.91c-40.77,21.68-85.76,34.67-132.66,38.02l76.43-133.92ZM865.3,588.42h162.51c-11.45,16.53-24.45,32.15-38.97,46.67-20.07,20.07-42.25,37.28-66.03,51.43l-57.52-98.1ZM867.5,572.42l60.2-105.49c20.93,13.2,40.55,28.83,58.48,46.75,18,18,33.68,37.7,46.91,58.73h-165.59ZM852.45,566.52l-88.09-150.24c53.21,2.2,104.19,16.8,149.6,42.45l-61.51,107.79ZM886.36,427.45c-12.16-5.14-24.53-9.54-37.08-13.25h90.11l-17.52,30.7c-11.46-6.45-23.29-12.29-35.5-17.46ZM737.36,416.24l-86.76,147.97-61.66-106.79c45.15-25.01,95.71-39.18,148.42-41.17ZM580.98,443.61l-16.98-29.41h87.23c-12.55,3.71-24.93,8.11-37.08,13.25-11.39,4.82-22.44,10.22-33.17,16.16ZM636.87,572.42h-169.46c13.23-21.03,28.91-40.73,46.91-58.73,18.59-18.59,39-34.7,60.81-48.2l61.73,106.93ZM503.53,646.41c20.53,20.54,43.23,38.25,67.8,52.98l-20.83,35.52-59.19-101.35c3.96,4.37,8.03,8.66,12.22,12.85ZM585.24,707.31c9.71,5.23,19.68,10.02,29.91,14.35,27.39,11.58,55.85,19.54,85.06,23.84-30.34,4.26-59.89,12.41-88.29,24.43-10.95,4.63-21.6,9.79-31.95,15.44l-20.21-34.61,25.48-43.45ZM566.1,793.35c-19.95,12.1-38.66,26.17-55.99,42.09l40.37-68.84,15.62,26.75ZM636.41,926.31l-62.36,106.77c-21.4-13.36-41.44-29.24-59.73-47.53-18.15-18.15-33.93-38.02-47.23-59.24h169.31ZM649.35,935.88l85.88,147.04c-52.38-2.31-102.57-16.65-147.4-41.71l61.52-105.34ZM614.15,1071.79c13.31,5.63,26.88,10.4,40.66,14.3h-93.19l18.18-31.12c11.1,6.2,22.55,11.83,34.36,16.82ZM763.96,1082.97l88.14-150.92,62.97,107.82c-45.8,26.1-97.33,40.94-151.11,43.1ZM923.11,1053.63l18.96,32.46h-96.37c13.78-3.91,27.35-8.68,40.66-14.3,12.66-5.35,24.91-11.42,36.76-18.16ZM867.28,926.31h166.13c-13.3,21.22-29.08,41.1-47.23,59.24-17.62,17.62-36.87,33.02-57.4,46.08l-61.51-105.32ZM933.45,792.78l16.53-28.3,43.03,73.38c-18.33-17.17-38.24-32.25-59.55-45.08ZM919.56,784.83c-10.04-5.44-20.38-10.41-30.98-14.9-27.9-11.8-56.92-19.88-86.7-24.21,29.77-4.24,58.77-12.26,86.65-24.06,9.7-4.1,19.16-8.64,28.39-13.55l23.76,40.53-21.13,36.18ZM930.87,700.27c25.14-14.91,48.33-32.91,69.28-53.85.21-.21.4-.42.61-.62l-50.82,87.01-19.07-32.53ZM935.61,453.08l16.01-28.05,43.08,74.62c-18.12-17.73-37.87-33.29-59.09-46.57ZM869.12,250.13l163.43.82-81.01,141.94-82.42-142.76ZM549.4,388.92l-81.28-140.79,162.1.81-80.82,139.98ZM567.16,451.67c-23.17,14.26-44.64,31.2-64.15,50.71-.53.53-1.05,1.08-1.58,1.61l47.96-83.07,17.76,30.76ZM452.47,598.78l88.75,151.96-88.3,150.58c-23.74-46.4-36.32-98.08-36.32-151.71s12.42-104.66,35.87-150.84ZM503.01,996.86c19.18,19.18,40.26,35.88,62.99,49.99l-17.65,30.23-47.72-82.64c.79.81,1.57,1.63,2.37,2.43ZM628.44,1247.78h-161.25l81.09-138.85,80.16,138.85ZM953.16,1105.09l83.34,142.7h-165.73l82.39-142.7ZM936.83,1045.4c21.56-13.62,41.6-29.59,59.92-47.81l-43.67,75.64-16.25-27.83ZM1048.14,900.26l-88.91-151.63,88.2-151.02c23.84,46.48,36.48,98.27,36.48,152.01s-12.38,104.52-35.77,150.64ZM963.84,414.2h122.78c-2.39,50.88-16.1,99.69-39.91,143.53l-82.87-143.53ZM859.85,234.09l-98.74-171.02c86.05,2.32,166.61,36.92,227.73,98.03,22.28,22.28,41.01,47.14,55.96,73.91l-184.95-.92ZM639.43,232.99l-178.91-.89c14.67-25.66,32.86-49.53,54.32-70.99,59.89-59.89,138.47-94.31,222.58-97.85l-98,169.73ZM534.81,414.2l-80.25,138.99c-22.32-42.66-35.19-89.86-37.5-138.99h117.74ZM428.28,534.79c5.03,11.89,10.69,23.41,16.94,34.59l-1.76,3.05h-6.38l3.21,5.49-90.06,155.99-184.58-319.7h235.41c1.87,41.72,10.99,82.21,27.22,120.59ZM412.93,657.29c-8.18,29.9-12.33,60.8-12.33,92.33s4.24,63.16,12.61,93.38l-53.75-93.1,53.47-92.61ZM450.04,938.8l85.04,147.3h-123.99c1.69-52.15,15.09-102.26,38.95-147.3ZM533.74,1102.09l-86.59,148.27c-23.02-45.49-35.49-95.92-36.2-148.27h122.8ZM637.68,1263.78l99.7,172.68c-85.82-3.18-166.04-38.08-227.09-99.13-22.2-22.2-40.94-46.93-55.96-73.55h183.35ZM861.54,1263.78h184.64c-15.02,26.61-33.76,51.35-55.96,73.55-61.36,61.37-142.1,96.31-228.41,99.18l99.73-172.73ZM969.94,1102.09h119.62c-.7,51.22-12.67,100.61-34.75,145.32l-84.87-145.32ZM964.13,1086.09l85.73-148.48c24.25,45.35,37.86,95.88,39.56,148.48h-125.29ZM1088.42,838.82c7.62-28.92,11.49-58.76,11.49-89.2s-3.6-58.3-10.72-86.32l50.28,87.09-51.05,88.42ZM1058.65,578.4l3.49-5.98h-5.36c6.93-12.11,13.15-24.67,18.63-37.63,16.23-38.38,25.36-78.87,27.22-120.59h230.94l-184.87,320.19-90.06-155.99ZM264.17,264.17c63.1-63.1,136.58-112.64,218.39-147.25,40.78-17.25,82.79-30.39,125.74-39.4-39.07,17.51-74.29,41.78-104.77,72.26-24.49,24.49-44.98,52.06-61.17,82.21h-2.04s1.07,1.84,1.07,1.84c-4.75,8.97-9.14,18.15-13.12,27.57-18.31,43.3-27.6,89.29-27.6,136.69,0,.03,0,.07,0,.1h-241.02c28.99-48.6,63.94-93.46,104.51-134.03ZM116.92,1017.43c-35.83-84.7-53.99-174.68-53.99-267.43s18.17-182.73,53.99-267.43c9.51-22.48,20.15-44.33,31.89-65.51l192.17,332.85-192.23,332.94c-11.71-21.15-22.34-42.96-31.83-65.41ZM264.17,1235.83c-40.48-40.48-75.38-85.25-104.33-133.73h235.11c.6,46.3,9.95,91.22,27.87,133.6,17.9,42.32,43.52,80.32,76.15,112.95,30.86,30.86,66.52,55.43,106.08,73.15-41.82-8.98-82.74-21.9-122.49-38.72-81.81-34.6-155.29-84.15-218.39-147.25ZM1235.83,1235.83c-63.1,63.1-136.58,112.64-218.39,147.25-39.43,16.68-80,29.52-121.47,38.49,39.36-17.7,74.85-42.2,105.57-72.93,25.23-25.23,46.26-53.69,62.78-84.86h.06l-.03-.06c4.83-9.12,9.3-18.46,13.35-28.04,17.92-42.37,27.27-87.3,27.87-133.6h234.6c-28.96,48.49-63.85,93.25-104.33,133.73ZM1383.08,1017.43c-9.67,22.87-20.52,45.09-32.49,66.61l-192.64-333.65,192.86-334.04c11.89,21.4,22.66,43.48,32.27,66.21,35.83,84.7,53.99,174.68,53.99,267.43s-18.17,182.73-53.99,267.43Z"/></svg>
