<?xml version="1.0" encoding="UTF-8"?><svg id="Layer_2" xmlns="http://www.w3.org/2000/svg" xmlns:xlink="http://www.w3.org/1999/xlink" viewBox="0 0 1500 1500"><defs><style>.cls-1{fill:url(#New_Gradient_Swatch_2);stroke-width:0px;}</style><linearGradient id="New_Gradient_Swatch_2" x1="112.02" y1="1118.34" x2="1388.28" y2="381.49" gradientUnits="userSpaceOnUse"><stop offset="0" stop-color="#56450d"/><stop offset=".21" stop-color="#e5c787"/><stop offset=".39" stop-color="#f7d976"/><stop offset=".99" stop-color="#725728"/></linearGradient></defs><path class="cls-1" d="M750,12.98l-218.09,125.91v233.36l-202.1-116.68-218.09,125.92v251.83l202.38,116.85-202.09,116.68v251.49l217.8,125.75,202.1-116.67v233.68l218.09,125.93,218.09-125.93v-233.35l202.09,116.67,218.09-125.91v-251.83l-202.09-116.67,202.09-116.68v-251.83l-218.09-125.92-202.1,116.68v-233.35L750,12.98ZM1030.12,734l-48.17-83.43,72.25,41.71-24.08,41.72ZM1068.06,700.28l86.11,49.72-86.11,49.72-28.71-49.72,28.7-49.72ZM742,636.7v99.44l-86.12-49.72,28.71-49.72h57.41ZM693.83,620.7l48.17-83.44v83.44h-48.17ZM655.88,813.57l86.12-49.72v99.45h-57.41l-28.71-49.72ZM666.11,863.3h-96.35l72.26-41.72,24.09,41.72ZM742,879.3v83.44l-48.17-83.44h48.17ZM758,863.3v-99.45l86.12,49.72-28.71,49.72h-57.41ZM806.17,879.3l-48.17,83.44v-83.44h48.17ZM642.03,678.42l-72.26-41.72h96.35l-24.09,41.72ZM634.03,692.28l-24.09,41.72-48.18-83.44,72.26,41.72ZM647.88,700.28l86.12,49.72-86.12,49.72-28.71-49.72,28.71-49.72ZM675.35,879.3l52.79,91.44-158.38-91.44h105.59ZM824.65,879.3h105.59l-158.38,91.44,52.79-91.44ZM833.88,863.3l24.09-41.72,72.26,41.72h-96.35ZM865.97,807.72l24.09-41.72,48.17,83.44-72.26-41.72ZM852.12,799.72l-86.12-49.72,86.12-49.72,28.71,49.72-28.71,49.72ZM865.97,692.28l72.26-41.72-48.18,83.44-24.09-41.72ZM857.97,678.42l-24.09-41.72h96.35l-72.26,41.72ZM844.11,686.42l-86.12,49.72v-99.44h57.41l28.71,49.72ZM758,620.7v-83.44l48.17,83.44h-48.17ZM675.35,620.7h-105.59l158.38-91.44-52.79,91.44ZM600.7,750l-52.79,91.44v-182.88l52.79,91.44ZM609.94,766l24.09,41.72-72.26,41.72,48.17-83.44ZM720.14,984.59h-105.59l-52.79-91.44,158.38,91.44ZM938.23,893.15l-52.79,91.44h-105.59l158.38-91.44ZM899.3,750l52.79-91.44v182.88l-52.79-91.44ZM824.65,620.7l-52.79-91.44,158.38,91.44h-105.59ZM720.14,499.41h-96.34l24.09-41.72,72.26,41.72ZM720.14,515.41l-158.38,91.44,52.79-91.44h105.59ZM531.91,841.44l-52.79-91.44,52.79-91.44v182.88ZM596.08,984.59h-48.17v-83.44l48.17,83.44ZM605.32,1000.59l28.7,49.71-86.11,49.72v-99.43h57.41ZM623.79,1000.59h96.33l-72.25,41.71-24.08-41.71ZM779.87,1000.59h96.33l-24.08,41.71-72.25-41.71ZM894.68,1000.59h57.41v99.43l-86.11-49.72,28.7-49.71ZM903.92,984.59l48.17-83.43v83.43h-48.17ZM779.86,515.41h105.59l52.79,91.44-158.38-91.44ZM779.86,499.41l72.26-41.72,24.09,41.72h-96.34ZM634.02,449.69l-28.7,49.72h-57.4v-99.43l86.11,49.71ZM596.08,515.41l-48.16,83.42v-83.42h48.16ZM469.87,734l-24.09-41.72,72.26-41.71-48.17,83.43ZM460.64,750l-28.71,49.72-86.12-49.72,86.12-49.72,28.71,49.72ZM469.87,766l48.17,83.44-72.26-41.72,24.09-41.72ZM968.09,658.56l52.79,91.44-52.79,91.44v-182.88ZM952.08,598.82l-48.16-83.42h48.16v83.42ZM894.68,499.41l-28.71-49.72,86.1-49.71v99.43h-57.4ZM750,498.17l-94.12-54.34,94.12-163.02,94.12,163.02-94.12,54.34ZM642.02,435.83l-86.12-49.72,172.24-99.44-86.12,149.16ZM642.02,1064.16l86.12,149.16-172.24-99.44,86.12-49.72ZM750,1001.83l94.12,54.34-94.12,163.01-94.12-163.01,94.12-54.34ZM857.97,1064.16l86.12,49.72-172.24,99.44,86.12-149.16ZM981.95,849.44l48.17-83.44,24.09,41.72-45.71,26.39-26.55,15.33ZM857.97,435.83l-86.12-149.16,172.24,99.44-86.12,49.72ZM531.91,499.41h-172.24l172.24-99.44v99.44ZM531.91,515.41v108.67h0l-94.12,54.34-94.12-163.01h188.24ZM531.62,876.08v108.51h-187.95l93.97-162.76,93.98,54.26ZM531.62,1000.59v99.27l-171.95-99.27h171.95ZM968.09,1100.03v-99.44h172.24l-172.24,99.44ZM968.09,984.59v-108.67h0s47.65-27.51,47.65-27.51l46.47-26.83,94.12,163.01h-188.24ZM968.09,624.08h0v-108.67h188.24l-94.12,163.01-94.12-54.34ZM968.09,499.41v-99.44l172.24,99.44h-172.24ZM423.93,686.42l-86.12,49.72v-198.88l86.12,149.16ZM337.81,764.19l85.97,49.63-85.97,148.91v-198.54ZM1076.07,813.58l86.12-49.72v198.87l-86.12-149.16ZM1076.07,686.42l86.12-149.16v198.88l-86.12-49.72ZM750,31.46l202.09,116.68v224.12l-196.23-113.3-5.86-10.14-5.86,10.14-196.23,113.3v-224.12l202.09-116.68ZM127.72,390.73l202.09-116.68,194.1,112.06-189.79,109.57-6.45,3.73h-11.71l5.86,10.14v226.59l-194.09-112.06v-233.35ZM128.01,1109.1v-233.02l193.8-111.89v226.25l-5.86,10.14h11.71l195.95,113.13-193.81,111.89-201.8-116.51ZM750,1468.54l-202.09-116.69v-224.11l196.24,113.29,5.86,10.14,5.86-10.14,196.24-113.29v224.11l-202.09,116.69ZM1372.27,1109.26l-202.09,116.68-194.1-112.06,196.24-113.3h11.71l-5.86-10.14v-226.59l194.09,112.06v233.35ZM1372.28,390.73v233.36l-194.1,112.06v-226.6l5.86-10.14h-11.71l-6.87-3.97-189.37-109.33,194.1-112.06,202.09,116.68Z"/></svg>