<?xml version="1.0" encoding="UTF-8"?><svg id="Layer_2" xmlns="http://www.w3.org/2000/svg" xmlns:xlink="http://www.w3.org/1999/xlink" viewBox="0 0 1500 1500"><defs><style>.cls-1{fill:url(#New_Gradient_Swatch_2);stroke-width:0px;}</style><linearGradient id="New_Gradient_Swatch_2" x1="141.4" y1="1101.38" x2="1358.6" y2="398.63" gradientUnits="userSpaceOnUse"><stop offset="0" stop-color="#56450d"/><stop offset=".21" stop-color="#e5c787"/><stop offset=".39" stop-color="#f7d976"/><stop offset=".99" stop-color="#725728"/></linearGradient></defs><path class="cls-1" d="M253.2,1246.81c64.52,64.52,139.66,115.18,223.32,150.57,86.62,36.64,178.64,55.22,273.48,55.22s186.86-18.58,273.48-55.22c83.66-35.39,158.8-86.04,223.32-150.57,64.52-64.52,115.18-139.66,150.57-223.32,36.64-86.62,55.22-178.64,55.22-273.48s-18.58-186.86-55.22-273.48c-35.39-83.66-86.04-158.8-150.57-223.32-64.52-64.52-139.66-115.18-223.32-150.57-84.16-35.6-173.42-54.14-265.41-55.17-.11-.06-.22-.13-.33-.2l-.11.19c-2.54-.03-5.08-.05-7.63-.05-3.12,0-6.24.02-9.35.06l-.12-.2c-.12.07-.23.14-.35.21-91.38,1.24-180.03,19.77-263.66,55.14-83.66,35.39-158.8,86.04-223.32,150.57-64.52,64.52-115.18,139.66-150.57,223.32-36.64,86.62-55.22,178.64-55.22,273.48s18.58,186.86,55.22,273.48c35.39,83.66,86.04,158.8,150.57,223.32ZM758,742v-215.37c56.71,1.98,109.73,24.99,150.06,65.31,40.33,40.33,63.33,93.35,65.31,150.06h-215.37ZM973.37,758c-1.98,56.71-24.99,109.73-65.31,150.06-40.33,40.33-93.35,63.33-150.06,65.31v-215.37h215.37ZM742,742h-215.37c1.98-56.71,24.99-109.73,65.31-150.06,40.33-40.33,93.35-63.33,150.06-65.31v215.37ZM742,758v215.37c-56.71-1.98-109.73-24.99-150.06-65.31-40.33-40.33-63.33-93.35-65.31-150.06h215.37ZM919.37,919.38c43.35-43.35,68.02-100.39,70.01-161.37h147.65c-18.4,29.69-40.21,57.2-65.26,82.25-41.79,41.79-90.46,74.61-144.65,97.53-18.84,7.97-38.07,14.61-57.64,19.93,18.01-10.4,34.78-23.22,49.89-38.33ZM989.38,742c-1.99-60.98-26.66-118.02-70.01-161.37-15.1-15.1-31.87-27.93-49.89-38.33,19.56,5.32,38.8,11.96,57.64,19.93,54.19,22.92,102.85,55.73,144.65,97.53,25.04,25.04,46.86,52.56,65.26,82.25h-147.65ZM580.63,580.63c-43.35,43.35-68.02,100.39-70.01,161.37h-147.65c18.4-29.69,40.21-57.2,65.26-82.25,41.79-41.79,90.46-74.61,144.65-97.53,18.84-7.97,38.07-14.61,57.64-19.93-18.01,10.4-34.78,23.22-49.89,38.33ZM510.62,758c1.99,60.98,26.66,118.02,70.01,161.37,15.1,15.1,31.87,27.93,49.89,38.33-19.56-5.32-38.8-11.96-57.64-19.93-54.19-22.92-102.85-55.73-144.65-97.53-25.04-25.04-46.86-52.56-65.26-82.25h147.65ZM758,1432.53v-442.84c56.71,1.98,109.73,24.99,150.06,65.31,42.22,42.22,65.47,98.35,65.47,158.06,0,10.48-.73,20.85-2.14,31.05-59.18,74.79-131.54,138.82-213.39,188.41ZM963.89,1278.37c-10.53,34.66-29.49,66.41-55.83,92.75-33.52,33.52-75.82,55.07-121.7,62.53,66.41-42.94,126.26-95.37,177.53-155.28ZM919.37,1043.69c-27.94-27.94-61.56-48.11-98.26-59.47,38.54-5.82,76.09-16.42,112.25-31.71,56.09-23.73,106.47-57.69,149.73-100.95,22.4-22.4,42.29-46.71,59.58-72.72-2.25,61.58-11.5,122.5-27.63,181.49-18.14,66.34-44.91,130.19-79.57,189.78-14.12,24.27-29.51,47.72-46.05,70.3.07-2.45.12-4.9.12-7.36,0-63.98-24.92-124.13-70.16-169.37ZM1083.09,648.45c-43.26-43.26-93.63-77.22-149.73-100.95-36.15-15.29-73.71-25.89-112.25-31.71,36.7-11.35,70.32-31.53,98.26-59.47,45.24-45.24,70.16-105.39,70.16-169.37,0-2.95-.07-5.89-.18-8.82,16.29,22.23,31.47,45.3,45.41,69.17,34.89,59.73,61.83,123.76,80.09,190.3,16.38,59.69,25.72,121.34,27.88,183.66-17.3-26.05-37.22-50.39-59.64-72.82ZM973.53,286.95c0,59.71-23.25,115.84-65.47,158.06-40.33,40.33-93.35,63.33-150.06,65.31V66.09c81.75,49.53,154.02,113.47,213.16,188.15,1.57,10.74,2.37,21.66,2.37,32.71ZM789.25,66.84c44.77,7.89,85.99,29.23,118.81,62.05,25.78,25.78,44.47,56.74,55.13,90.54-50.37-58.7-108.98-110.2-173.94-152.59ZM742,65.07v445.25c-56.71-1.98-109.73-24.99-150.06-65.31-42.22-42.22-65.47-98.35-65.47-158.06,0-11.68.9-23.22,2.65-34.55,59.12-74.36,131.3-138.01,212.88-187.33ZM537.51,217.23c10.77-32.94,29.21-63.13,54.43-88.35,32.26-32.26,72.65-53.43,116.54-61.63-63.74,41.81-121.32,92.41-170.97,149.97ZM580.63,456.32c27.94,27.94,61.56,48.11,98.26,59.47-38.54,5.82-76.09,16.42-112.25,31.71-56.09,23.73-106.47,57.69-149.73,100.95-22.74,22.74-42.9,47.44-60.37,73.91,2.04-62.8,11.39-124.94,27.86-185.08,18.2-66.45,45.07-130.4,79.87-190.08,14.23-24.41,29.75-47.99,46.43-70.68-.15,3.47-.24,6.94-.24,10.43,0,63.98,24.92,124.13,70.16,169.37ZM416.91,851.56c43.26,43.26,93.63,77.22,149.73,100.95,36.15,15.29,73.71,25.89,112.25,31.71-36.7,11.35-70.32,31.53-98.26,59.47-45.24,45.24-70.16,105.39-70.16,169.37,0,2.56.05,5.11.13,7.66-16.68-22.7-32.2-46.29-46.43-70.71-34.76-59.65-61.61-123.58-79.8-190.01-16.21-59.22-25.5-120.38-27.73-182.19,17.44,26.41,37.57,51.06,60.26,73.75ZM526.47,1213.06c0-59.71,23.25-115.84,65.47-158.06,40.33-40.33,93.35-63.33,150.06-65.31v442.62c-81.79-49.45-154.14-113.31-213.35-187.93-1.43-10.29-2.18-20.75-2.18-31.32ZM714.04,1433.71c-46.04-7.4-88.48-28.98-122.1-62.59-26.28-26.28-45.2-57.94-55.75-92.51,51.38,59.87,111.33,112.24,177.85,155.1ZM919.37,1382.43c36.26-36.26,59.45-82.1,67.23-131.82,22.93-29.3,43.91-60.18,62.69-92.45,35.36-60.79,62.68-125.93,81.18-193.61,16.32-59.69,25.73-121.31,28.12-183.59,3.78,7.69,7.35,15.51,10.71,23.44,23.73,56.1,35.76,115.69,35.76,177.13s-12.03,121.03-35.76,177.13c-22.92,54.19-55.73,102.85-97.53,144.65s-90.46,74.61-144.65,97.53c-18.84,7.97-38.07,14.61-57.64,19.93,18.01-10.4,34.78-23.23,49.89-38.33ZM1130.28,533.37c-18.62-67.89-46.11-133.2-81.7-194.14-18.67-31.97-39.5-62.55-62.25-91.58-8.05-49.04-31.11-94.23-66.95-130.07-15.1-15.1-31.87-27.93-49.89-38.33,19.56,5.32,38.8,11.96,57.64,19.93,54.19,22.92,102.85,55.73,144.65,97.53,41.79,41.79,74.61,90.46,97.53,144.65,23.73,56.1,35.76,115.69,35.76,177.13s-12.03,121.03-35.76,177.13c-3.34,7.89-6.89,15.66-10.65,23.31-2.32-62.95-11.83-125.23-28.38-185.55ZM630.51,79.25c-18.01,10.4-34.78,23.22-49.89,38.33-35.39,35.39-58.33,79.89-66.65,128.22-23.25,29.56-44.51,60.74-63.52,93.35-35.49,60.87-62.9,126.11-81.47,193.91-16.44,60-25.91,121.94-28.27,184.56-3.52-7.23-6.86-14.56-10.01-22-23.73-56.1-35.76-115.69-35.76-177.13s12.03-121.03,35.76-177.13c22.92-54.19,55.73-102.85,97.53-144.65,41.79-41.79,90.46-74.61,144.65-97.53,18.84-7.97,38.07-14.61,57.64-19.93ZM368.95,964.24c18.55,67.77,45.94,132.98,81.4,193.84,18.89,32.42,40,63.42,63.09,92.83,7.83,49.6,30.99,95.34,67.19,131.53,15.1,15.1,31.87,27.93,49.89,38.33-19.57-5.32-38.8-11.96-57.64-19.93-54.19-22.92-102.85-55.73-144.65-97.53s-74.61-90.46-97.53-144.65c-23.73-56.1-35.76-115.69-35.76-177.13s12.03-121.03,35.76-177.13c3.17-7.51,6.55-14.9,10.1-22.19,2.51,61.75,11.95,122.83,28.15,182.02ZM1235.49,264.52c63.06,63.06,112.56,136.48,147.14,218.24,35.8,84.64,53.95,174.56,53.95,267.25s-18.15,182.61-53.95,267.25c-34.58,81.76-84.09,155.18-147.14,218.24-63.06,63.06-136.48,112.56-218.24,147.14-19.92,8.42-40.13,15.86-60.59,22.32,46.81-22.85,89.25-53.16,126.43-90.34,43.26-43.26,77.22-93.63,100.95-149.73,24.57-58.08,37.02-119.77,37.02-183.36s-12.46-125.28-37.02-183.36c-7.01-16.57-14.92-32.63-23.69-48.17,8.77-15.54,16.68-31.6,23.69-48.17,24.57-58.08,37.02-119.77,37.02-183.36s-12.46-125.28-37.02-183.36c-23.73-56.09-57.69-106.47-100.95-149.73-37.18-37.18-79.62-67.49-126.43-90.34,20.47,6.46,40.68,13.9,60.59,22.32,81.76,34.58,155.18,84.09,218.24,147.14ZM117.37,482.76c34.58-81.76,84.09-155.18,147.14-218.24,63.06-63.06,136.48-112.56,218.24-147.14,19.92-8.42,40.13-15.86,60.59-22.32-46.81,22.85-89.25,53.16-126.43,90.34-43.26,43.26-77.22,93.63-100.95,149.73-24.57,58.08-37.02,119.77-37.02,183.36s12.46,125.28,37.02,183.36c7.01,16.57,14.92,32.63,23.69,48.17-8.77,15.53-16.68,31.6-23.69,48.17-24.57,58.08-37.02,119.77-37.02,183.36s12.46,125.28,37.02,183.36c23.73,56.09,57.69,106.47,100.95,149.73,37.18,37.18,79.63,67.49,126.43,90.34-20.47-6.46-40.68-13.9-60.59-22.32-81.76-34.58-155.18-84.09-218.24-147.14-63.06-63.06-112.56-136.48-147.14-218.24-35.8-84.64-53.95-174.56-53.95-267.25s18.15-182.61,53.95-267.25Z"/></svg>
