<?xml version="1.0" encoding="UTF-8"?><svg id="Layer_2" xmlns="http://www.w3.org/2000/svg" xmlns:xlink="http://www.w3.org/1999/xlink" viewBox="0 0 1500 1500"><defs><style>.cls-1{fill:url(#New_Gradient_Swatch_2);stroke-width:0px;}</style><linearGradient id="New_Gradient_Swatch_2" x1="188.6" y1="1074.12" x2="1311.63" y2="425.74" gradientUnits="userSpaceOnUse"><stop offset="0" stop-color="#56450d"/><stop offset=".21" stop-color="#e5c787"/><stop offset=".39" stop-color="#f7d976"/><stop offset=".99" stop-color="#725728"/></linearGradient></defs><path class="cls-1" d="M1302.12,410.36c-26.39-42.86-57.77-82.55-93.85-118.63-59.52-59.52-128.83-106.25-206-138.89-52.12-22.05-106.37-37-162.06-44.73-.69-49.16-40.89-88.93-90.2-88.93s-89.51,39.78-90.2,88.93c-55.7,7.74-109.94,22.69-162.06,44.73-77.17,32.64-146.48,79.37-206,138.89-59.52,59.52-106.25,128.83-138.89,206-33.8,79.91-50.93,164.78-50.93,252.27s17.14,172.36,50.93,252.27c32.64,77.18,79.37,146.48,138.89,206,59.52,59.52,128.83,106.25,206,138.89,52.12,22.05,106.37,37,162.06,44.73.69,49.16,40.89,88.93,90.2,88.93s89.51-39.78,90.2-88.93c55.7-7.74,109.94-22.69,162.06-44.73,77.17-32.64,146.48-79.37,206-138.89,36.09-36.09,67.46-75.78,93.86-118.64,7.12-10.84,13.57-22.05,19.32-33.59,9.35-17.46,17.94-35.39,25.71-53.77,33.8-79.91,50.93-164.78,50.93-252.27s-17.14-172.36-50.93-252.27c-7.77-18.38-16.36-36.31-25.71-53.77-5.75-11.54-12.2-22.76-19.32-33.6ZM1307.11,451.08c21.22,42.62,32.46,89.89,32.46,138.9s-12.17,100.09-35.09,144.04c-12.77-20.01-27.81-38.77-44.99-55.96-40.01-40.01-88.55-68.4-141.51-83.5.08-1.6.13-3.2.13-4.82,0-35.16-20.22-65.68-49.64-80.56,6.32-25.61,9.59-52.17,9.59-79.22s-3.34-54.33-9.83-80.25c23.36-11.72,40.95-33.29,47.3-59.23,49.62,14.5,95.08,41.29,132.65,78.86,15.33,15.33,28.86,31.99,40.5,49.7,6.45,10.49,12.6,21.18,18.44,32.05ZM1307.11,1048.93c-5.84,10.87-11.98,21.56-18.44,32.05-11.64,17.71-25.17,34.37-40.5,49.7-55.75,55.75-128.87,87.79-207.16,91.09,24.2-46.28,37.04-98.01,37.04-151.72,0-26.99-3.25-53.48-9.54-79.04,29.4-14.89,49.6-45.4,49.6-80.54,0-1.69-.05-3.36-.14-5.03,52.96-15.1,101.51-43.48,141.52-83.5,17.19-17.19,32.23-35.95,44.99-55.96,22.92,43.95,35.09,93.06,35.09,144.04s-11.23,96.28-32.46,138.9ZM161,910.02c0-50.99,12.17-100.09,35.09-144.04,12.77,20.01,27.81,38.77,44.99,55.96,39.88,39.88,88.22,68.2,140.97,83.34-.1,1.72-.15,3.45-.15,5.19,0,35.14,20.2,65.65,49.6,80.54-6.29,25.55-9.54,52.04-9.54,79.04,0,53.7,12.84,105.43,37.03,151.7-78.07-3.44-150.97-35.46-206.58-91.07-58.94-58.94-91.4-137.3-91.4-220.65ZM252.4,369.33c37.43-37.44,82.71-64.17,132.12-78.71,6.38,25.87,23.95,47.38,47.27,59.08-6.49,25.93-9.83,52.83-9.83,80.25s3.26,53.61,9.59,79.22c-29.42,14.88-49.64,45.4-49.64,80.56,0,1.67.05,3.33.14,4.98-52.74,15.14-101.08,43.46-140.95,83.34-17.19,17.19-32.23,35.95-44.99,55.96-22.92-43.95-35.09-93.06-35.09-144.04,0-83.35,32.46-161.71,91.4-220.65ZM397.9,269.01c0-40.93,33.3-74.22,74.22-74.22,14.11,0,27.31,3.96,38.56,10.82-16.35,17.41-30.6,36.3-42.61,56.38-23.89.35-47.37,3.25-70.13,8.55-.01-.51-.04-1.02-.04-1.53ZM1102.1,269.01c0,.47-.03.93-.04,1.4-22.76-5.26-46.24-8.11-70.14-8.42-12.01-20.07-26.26-38.96-42.61-56.37,11.24-6.86,24.45-10.82,38.56-10.82,40.93,0,74.22,33.29,74.22,74.22ZM1062.05,429.95c0,25-2.94,49.54-8.62,73.26-5.75-1.7-11.74-2.84-17.91-3.36v-140.94c6.07-.51,11.98-1.63,17.65-3.29,5.85,24.05,8.88,48.95,8.88,74.33ZM1102.08,590.46c-19.98-4.62-40.5-7.38-61.38-8.2,9.62-18.3,17.46-37.45,23.43-57.25,22.64,12.73,37.97,36.97,37.97,64.73,0,.24-.02.48-.02.72ZM1062.05,750c0,25.22-2.99,49.98-8.77,73.89-5.71-1.68-11.65-2.8-17.76-3.32v-140.94c6.13-.52,12.08-1.65,17.8-3.33,5.75,23.85,8.72,48.54,8.72,73.7ZM1102.1,910.47c0,27.74-15.31,51.97-37.92,64.7-5.97-19.86-13.83-39.07-23.48-57.43,20.87-.82,41.4-3.58,61.37-8.2,0,.31.02.62.02.93ZM1062.05,1070.05c0,54.07-13.67,106.03-39.36,151.96-51.23-.77-100.44-13.82-144.3-37.74l111-192.22c11.68,5.53,24.73,8.64,38.49,8.64,8.89,0,17.48-1.3,25.59-3.7,5.65,23.65,8.57,48.13,8.57,73.06ZM446.53,996.99c8.12,2.41,16.71,3.7,25.59,3.7,13.67,0,26.63-3.06,38.25-8.52l111.25,192.41c-43.87,23.82-93.1,36.76-144.31,37.44-25.69-45.93-39.36-97.9-39.36-151.97,0-24.93,2.93-49.41,8.57-73.06ZM397.93,909.41c19.97,4.66,40.5,7.46,61.38,8.31-9.65,18.36-17.52,37.58-23.49,57.45-22.61-12.73-37.92-36.96-37.92-64.7,0-.36.02-.71.03-1.06ZM437.95,750c0-25.15,2.98-49.85,8.72-73.7,5.61,1.65,11.44,2.77,17.44,3.3v141c-5.98.53-11.8,1.64-17.4,3.29-5.78-23.91-8.77-48.67-8.77-73.89ZM397.9,589.74c0-27.77,15.33-52,37.97-64.73,5.97,19.81,13.82,38.96,23.44,57.27-20.88.85-41.41,3.66-61.39,8.31,0-.28-.02-.57-.02-.85ZM437.95,429.95c0-25.38,3.03-50.29,8.88-74.33,5.85,1.71,11.95,2.85,18.22,3.34v140.84c-6.37.5-12.55,1.66-18.48,3.41-5.68-23.71-8.62-48.26-8.62-73.26ZM800.26,1123.84c-13.54-14.37-25.57-29.8-36-46.11,20.38-.87,40.43-3.58,59.96-8.08-.1,21.41-9.32,40.69-23.95,54.19ZM675.79,1069.65c19.7,4.53,39.94,7.26,60.51,8.1-10.5,16.41-22.61,31.94-36.26,46.38-14.82-13.51-24.15-32.92-24.26-54.48ZM967.66,953.77l34.53-19.91c-7.75,10.58-16.2,20.74-25.35,30.41-3.38-3.2-6.45-6.72-9.18-10.5ZM523.16,964.27c-9.05-9.57-17.43-19.62-25.12-30.09l34.21,19.7c-2.71,3.74-5.75,7.21-9.1,10.39ZM801,902.02c-.59-24.85-3.94-49.24-9.88-72.81,2.55-1.34,5.03-2.79,7.43-4.35,36.56,35.66,79.99,61.81,127.29,77.17h-124.84ZM574.73,902.02c47-15.26,90.18-41.17,126.6-76.49,2.56,1.62,5.2,3.11,7.92,4.46-5.82,23.33-9.09,47.45-9.68,72.02h-124.84ZM531.91,312.92c-4.48,6.09-9.87,11.47-15.97,15.94l-21.82-37.76,37.79,21.82ZM506.37,279.7c12.85,1.35,25.52,3.49,37.97,6.39-1.07,4.51-2.54,8.85-4.39,13l-33.58-19.39ZM545.84,320.97l122.27,70.61c-5.43,11.59-8.46,24.51-8.46,38.12,0,1.6.04,3.19.13,4.77-23.29,6.62-45.72,15.82-66.95,27.44l-68.83-119.12c8.47-5.97,15.87-13.36,21.85-21.82ZM824.09,429.7c0,.21-.01.41-.02.62-15.1-3.47-30.51-5.87-46.15-7.18l39.97-23.1c3.98,9.09,6.2,19.11,6.2,29.65ZM955.59,893.72c1.11-4.78,2.67-9.38,4.66-13.75l35.52,20.47c-13.6-1.37-27.01-3.62-40.17-6.71ZM940.09,889.65c-47.94-13.91-92.01-39.29-128.86-74.77,4.46-4.2,8.49-8.84,12.02-13.86l123.07,70.92c-2.66,5.61-4.76,11.54-6.23,17.72ZM799.98,803.49c-9.09-9.67-17.48-19.82-25.18-30.39l34.51,19.89c-2.78,3.79-5.9,7.3-9.33,10.5ZM504.76,900.43l35.1-20.24c1.95,4.35,3.49,8.91,4.58,13.65-13,3.03-26.24,5.24-39.68,6.59ZM553.79,872.16l122.24-70.49c3.66,5.1,7.83,9.81,12.45,14.05-36.81,35.18-80.77,60.32-128.54,74.09-1.45-6.15-3.52-12.05-6.16-17.64ZM689.97,793.63l35.94-20.73c-7.96,10.96-16.68,21.47-26.13,31.46-3.61-3.25-6.9-6.84-9.81-10.73ZM828.54,598.22l-34.51,59.87c4.1-19.52,6.46-39.54,6.96-59.87h27.55ZM699.57,598.22c.51,20.67,2.94,41,7.16,60.83l-35.15-60.83h27.99ZM742.11,503.51c-4.72-.49-9.32-1.44-13.74-2.78,3.78-12.73,8.35-25.18,13.73-37.29v40.07ZM742.11,519.58l.02,62.63h-26.56c.55-22.5,3.48-44.6,8.65-66.02,5.75,1.71,11.73,2.86,17.9,3.38ZM742.13,598.22l.02,61.08c-6.26.5-12.35,1.65-18.19,3.37-4.97-20.93-7.81-42.49-8.38-64.45h26.55ZM728.06,678.15c4.53-1.36,9.24-2.31,14.09-2.78v41.3c-5.54-12.5-10.24-25.36-14.09-38.51ZM758.17,717.18v-41.64c4.89.58,9.64,1.63,14.2,3.12-3.88,13.16-8.61,26.03-14.2,38.53ZM692.26,665.98c-34.23-30.83-73.91-53.72-116.78-67.76h77.62l39.15,67.76ZM847.01,598.22h78.07c-43.16,14.13-83.09,37.24-117.49,68.39l39.42-68.39ZM776.49,663.16c-5.88-1.85-12.02-3.12-18.34-3.73l-.02-61.21h26.85c-.57,22.13-3.45,43.87-8.49,64.95ZM758.13,582.22l-.02-62.68c6.27-.57,12.35-1.78,18.19-3.57,5.2,21.49,8.16,43.67,8.7,66.25h-26.87ZM758.11,503.45v-40.83c5.49,12.3,10.17,24.95,14.02,37.88-4.51,1.42-9.2,2.41-14.02,2.95ZM730.36,450.63c-6.65,14.16-12.27,28.77-16.82,43.76-9.14-5.15-17.1-12.18-23.32-20.57l40.13-23.19ZM682.14,460.01c-1.95-4.34-3.49-8.9-4.58-13.63,13.05-3.09,26.34-5.35,39.83-6.74l-35.25,20.37ZM709.19,510.21c-5.8,23.33-9.05,47.44-9.62,72h-37.22l-39.98-69.18,53.93-31.17c8.47,11.91,19.76,21.68,32.89,28.34ZM643.86,582.22h-81.84c-.88-10.55-3.57-20.6-7.78-29.81l54.27-31.36,35.35,61.18ZM545.96,582.22h-43.31l37.65-21.76c2.93,6.79,4.88,14.1,5.65,21.76ZM544.49,606.17c-1.04,4.59-2.5,9.02-4.35,13.24l-34.21-19.72c13.05,1.36,25.92,3.53,38.57,6.47ZM560,610.21c47.4,13.67,91.04,38.54,127.67,73.3-4.49,4.22-8.55,8.89-12.1,13.94l-121.49-70.01c2.53-5.47,4.53-11.24,5.92-17.23ZM699.01,694.81c9.44,9.9,18.15,20.33,26.12,31.2l-35.63-20.53c2.82-3.86,6.01-7.43,9.5-10.67ZM714.21,812.34c-.19.63-.4,1.25-.59,1.87-.25-.14-.5-.29-.75-.43.45-.48.9-.96,1.34-1.44ZM742.17,783.34v39.75c-4.71-.46-9.28-1.37-13.69-2.67,3.77-12.65,8.34-25.04,13.69-37.08ZM758.17,782.82c5.38,12.06,9.99,24.45,13.79,37.12-4.43,1.42-9.05,2.42-13.8,2.98v-40.1ZM786.36,812.34c.24.26.49.53.73.79-.14.08-.27.16-.41.24-.1-.34-.22-.68-.32-1.02ZM800.74,695.69c3.31,3.18,6.33,6.66,9.01,10.4l-34.14,19.69c7.69-10.46,16.07-20.51,25.12-30.08ZM812.03,684.34c36.68-35.06,80.44-60.16,128.01-73.98,1.4,5.97,3.4,11.72,5.93,17.17l-122.29,70.52c-3.42-4.95-7.33-9.55-11.65-13.72ZM955.54,606.29c12.65-2.97,25.54-5.16,38.61-6.55l-34.25,19.75c-1.85-4.21-3.32-8.63-4.36-13.2ZM954.04,582.22c.79-7.81,2.81-15.25,5.83-22.16l38.37,22.16h-44.2ZM937.98,582.22h-81.74l35.46-61.53,54.24,31.32c-4.31,9.32-7.07,19.5-7.96,30.2ZM837.76,582.22h-36.76c-.57-24.7-3.85-48.94-9.71-72.39,12.96-6.73,24.1-16.51,32.44-28.39l54.11,31.25-40.07,69.53ZM786.9,493.98c-4.53-14.89-10.13-29.41-16.75-43.48l39.66,22.9c-6.11,8.35-13.92,15.38-22.91,20.58ZM783.52,439.74c13.09,1.39,26,3.59,38.67,6.58-1.05,4.58-2.53,9-4.39,13.22l-34.29-19.8ZM675.66,430.38c0-.23-.02-.45-.02-.68,0-10.71,2.3-20.88,6.39-30.08l40.65,23.47c-15.94,1.31-31.64,3.75-47.02,7.29ZM662.06,450.47c1.45,6.13,3.53,12.01,6.16,17.58l-53.86,31.12-13.53-23.41c19.45-10.61,39.96-19.09,61.23-25.3ZM600.51,507.19l-54.18,31.31c-3.51-5.07-7.53-9.78-11.98-14.02,16.25-15.55,33.9-29.14,52.65-40.67l13.51,23.39ZM532.41,546.54l-35.1,20.28c7.86-10.79,16.44-21.14,25.74-30.98,3.45,3.26,6.58,6.84,9.35,10.7ZM532.17,633.29c-2.78,3.82-5.91,7.36-9.34,10.58-9.18-9.73-17.66-19.96-25.42-30.61l34.76,20.03ZM546.1,641.31l121.46,69.99c-2.65,5.7-4.73,11.72-6.15,17.99-47.32-13.93-90.84-39.06-127.31-74.05,4.45-4.22,8.48-8.88,12-13.92ZM681.5,719.34l36.52,21.05c-13.93-1.41-27.66-3.75-41.12-6.96,1.07-4.89,2.62-9.6,4.6-14.08ZM677.47,750c-.75.17-1.5.36-2.25.53,0-.36-.03-.71-.03-1.07.76.18,1.51.37,2.28.54ZM716.66,759.77l-34.83,20.09c-1.94-4.25-3.48-8.72-4.59-13.35,12.91-3.07,26.07-5.33,39.42-6.73ZM667.9,787.89l-122.18,70.46c-3.46-4.87-7.39-9.39-11.73-13.48,36.59-35.13,80.27-60.33,127.76-74.26,1.47,6.02,3.54,11.8,6.15,17.28ZM531.79,866.38l-33.71,19.44c7.55-10.28,15.78-20.16,24.65-29.58,3.32,3.1,6.35,6.48,9.06,10.14ZM724.3,835.89c5.74,1.67,11.71,2.77,17.85,3.27l-.02,62.87h-26.56c.56-22.54,3.52-44.68,8.73-66.13ZM742.13,918.02l-.02,61.39c-6.24.54-12.3,1.72-18.11,3.48-5.01-21.05-7.87-42.76-8.42-64.86h26.55ZM742.11,995.48v41.07c-5.51-12.4-10.17-25.16-14-38.2,4.5-1.39,9.18-2.36,14-2.87ZM758.11,995.51c4.93.54,9.71,1.56,14.31,3.02-3.9,13.27-8.68,26.25-14.32,38.85v-41.87ZM758.11,979.43l.02-61.41h26.87c-.55,22.16-3.43,43.92-8.46,65.02-5.91-1.82-12.07-3.05-18.42-3.61ZM758.13,902.02l.02-63c6.2-.6,12.23-1.83,18-3.62,5.28,21.6,8.27,43.91,8.84,66.62h-26.86ZM968.36,866.17c2.67-3.57,5.66-6.89,8.91-9.93,8.72,9.26,16.82,18.96,24.27,29.05l-33.18-19.12ZM954.42,858.14l-123.17-70.98c2.5-5.36,4.48-11.01,5.89-16.88,47.92,13.86,92,39.17,128.87,74.58-4.28,4.03-8.16,8.48-11.58,13.27ZM817.32,779.13l-33.52-19.31c12.8,1.37,25.44,3.52,37.84,6.42-1.05,4.47-2.5,8.78-4.33,12.9ZM822.53,750c.36-.08.72-.17,1.09-.26,0,.17-.01.34-.01.51-.36-.08-.72-.17-1.08-.25ZM782.39,740.34l35.24-20.32c1.87,4.36,3.34,8.93,4.35,13.67-12.97,3.05-26.19,5.28-39.59,6.65ZM831.57,711.97l122.38-70.57c3.51,5.01,7.51,9.65,11.94,13.84-36.76,35.27-80.68,60.51-128.42,74.37-1.37-6.14-3.35-12.04-5.9-17.64ZM967.89,633.37l34.59-19.95c-7.73,10.59-16.17,20.76-25.3,30.45-3.41-3.2-6.52-6.71-9.29-10.5ZM967.84,546.18c2.71-3.73,5.76-7.19,9.1-10.35,9.05,9.57,17.42,19.63,25.1,30.1l-34.2-19.75ZM953.91,538.14l-54.23-31.32,13.28-23.05c18.76,11.53,36.42,25.13,52.68,40.69-4.35,4.15-8.28,8.73-11.74,13.67ZM885.83,498.82l-54.09-31.24c2.54-5.46,4.54-11.21,5.95-17.19,21.35,6.22,41.92,14.7,61.44,25.35l-13.3,23.07ZM839.97,434.4c.08-1.56.12-3.12.12-4.7,0-13.45-2.96-26.22-8.27-37.7l122.5-70.79c5.91,8.31,13.19,15.57,21.51,21.47l-68.71,119.21c-21.29-11.65-43.79-20.86-67.16-27.49ZM968.25,313.15l36.88-21.31-21.26,36.89c-5.94-4.39-11.21-9.65-15.62-15.58ZM960.17,299.34c-1.88-4.19-3.39-8.58-4.47-13.13,12.61-2.96,25.44-5.14,38.46-6.51l-33.99,19.64ZM946.24,307.39l-122.39,70.73c-3.49-4.99-7.46-9.61-11.86-13.79,36.72-35.12,80.56-60.25,128.21-74.06,1.44,5.96,3.48,11.68,6.04,17.12ZM809.93,386.17l-34.65,20.02c7.77-10.61,16.24-20.8,25.42-30.5,3.39,3.19,6.48,6.7,9.23,10.48ZM758.08,402.72v-46.78c10.79,1.19,20.89,4.71,29.8,10.04-10.88,11.62-20.83,23.9-29.8,36.74ZM742.08,402.13c-8.94-12.75-18.85-24.93-29.68-36.46,8.88-5.22,18.93-8.65,29.67-9.78v46.24ZM725.2,406.07l-35.12-20.28c2.8-3.8,5.95-7.32,9.4-10.52,9.29,9.79,17.87,20.08,25.72,30.8ZM676.15,377.74l-122.27-70.61c2.53-5.4,4.54-11.1,5.96-17.01,47.67,13.72,91.55,38.77,128.33,73.81-4.45,4.18-8.49,8.81-12.02,13.81ZM502.1,336.89c-6.57,2.92-13.65,4.9-21.05,5.79v-42.22l21.05,36.43ZM510.15,350.82l68.83,119.12c-20.44,12.54-39.64,27.41-57.25,44.49-11.9-7.87-25.76-12.99-40.69-14.47v-141.17c10.3-1.02,20.1-3.78,29.1-7.98ZM510.27,526.1c-10.64,11.38-20.4,23.38-29.22,35.93v-45.96c10.58,1.28,20.48,4.77,29.22,10.03ZM509.98,653.54c-8.92,5.32-19.05,8.81-29.86,9.98v-46.96c8.98,12.93,18.95,25.28,29.86,36.98ZM521.45,665.25c39.28,38.19,86.47,65.4,137.83,80.09-.06,1.29-.09,2.59-.09,3.89,0,1.82.06,3.62.17,5.41-51.45,14.71-98.71,41.97-138.04,80.24-12.05-7.87-26.1-12.94-41.2-14.27v-141c15.15-1.34,29.24-6.44,41.33-14.36ZM509.85,846.59c-10.86,11.65-20.79,23.96-29.73,36.84v-46.75c10.76,1.16,20.84,4.63,29.73,9.91ZM502.04,918.02h43.92c-.79,7.74-2.78,15.12-5.76,21.97l-38.16-21.97ZM562.02,918.02h137.55c.58,24.18,3.76,47.93,9.41,70.91-13.33,6.83-24.75,16.89-33.22,29.13l-121.62-70.04c4.26-9.27,6.99-19.38,7.88-30ZM713.31,1004.8c4.6,15.33,10.33,30.28,17.13,44.75l-40.75-23.46c6.24-8.68,14.29-15.96,23.61-21.29ZM787.18,1005.08c9.1,5.29,16.98,12.46,23.1,20.97l-39.94,23.03c6.67-14.23,12.3-28.93,16.84-44ZM791.52,989.2c5.69-23.07,8.9-46.9,9.48-71.18h136.98c.88,10.58,3.59,20.65,7.82,29.88l-121.6,70.12c-8.36-12.07-19.58-22.01-32.68-28.82ZM954.04,918.02h43.59l-37.89,21.85c-2.95-6.82-4.92-14.16-5.7-21.85ZM990.15,846.59c8.79-5.21,18.75-8.66,29.37-9.86v46.18c-8.85-12.69-18.66-24.82-29.37-36.32ZM978.68,834.88c-39.62-38.56-87.29-65.95-139.2-80.58.09-1.68.15-3.37.15-5.08,0-1.19-.03-2.37-.08-3.55,51.82-14.61,99.42-41.96,139-80.43,11.99,7.86,25.95,12.94,40.97,14.33v141.07c-14.96,1.38-28.88,6.43-40.84,14.24ZM990.02,653.54c10.76-11.54,20.61-23.71,29.5-36.45v46.39c-10.68-1.2-20.68-4.68-29.5-9.93ZM989.73,526.1c8.89-5.35,18.99-8.88,29.79-10.1v46.86c-8.96-12.85-18.91-25.13-29.79-36.76ZM978.26,514.43c-17.63-17.09-36.84-31.98-57.3-44.52l68.69-119.18c9.22,4.33,19.28,7.14,29.86,8.12v141.07c-15.14,1.4-29.2,6.55-41.25,14.52ZM997.69,336.79l21.83-37.88v43.84c-7.69-.87-15.03-2.92-21.83-5.96ZM799.36,354.3c-12.07-7.95-26.15-13.08-41.29-14.45l-.02-62.84h170.69c-48.07,15.11-92.24,41.31-129.38,77.29ZM742.06,339.82c-15.09,1.3-29.13,6.32-41.19,14.15-37.07-35.81-81.12-61.89-129.04-76.96h170.21l.02,62.81ZM546.19,961.91l121.67,70.06c-2.54,5.56-4.52,11.43-5.89,17.52-47.38-13.85-90.97-38.92-127.51-73.87,4.35-4.17,8.29-8.76,11.74-13.72ZM681.81,1040.01l35.28,20.32c-13.42-1.4-26.64-3.65-39.63-6.73,1.02-4.71,2.48-9.26,4.34-13.59ZM742.08,1097.87v45.2c-10.48-1.12-20.3-4.43-29.01-9.45,10.57-11.32,20.26-23.26,29.01-35.74ZM758.08,1097.28c8.81,12.62,18.57,24.69,29.23,36.13-8.77,5.12-18.67,8.5-29.24,9.65v-45.78ZM782.87,1060.33l35.31-20.36c1.88,4.34,3.34,8.9,4.36,13.63-13,3.08-26.24,5.34-39.67,6.73ZM832.12,1031.93l121.61-70.12c3.47,5,7.43,9.63,11.81,13.83-36.54,34.95-80.14,60.01-127.51,73.87-1.37-6.11-3.36-11.99-5.91-17.57ZM954.1,261.01c.79-7.38,2.67-14.45,5.48-21.03l36.46,21.03h-41.94ZM938.02,261.01h-179.98l-.02-61.76c27.01-2.39,50.64-16.73,65.55-37.69l122.06,70.38c-4.07,9-6.7,18.79-7.61,29.07ZM758.02,183.18l-.02-59.42,51.63,29.77c-12.03,16.22-30.51,27.37-51.61,29.65ZM782.87,119.62c13.34,1.39,26.49,3.62,39.39,6.67-1.09,4.66-2.62,9.15-4.54,13.43l-34.85-20.1ZM716.88,119.65l-34.69,19.86c-1.88-4.22-3.38-8.64-4.45-13.22,12.82-3.03,25.89-5.25,39.14-6.64ZM742,123.7l.02,59.48c-21.2-2.28-39.75-13.51-51.78-29.84l51.77-29.64ZM742.02,199.26l.02,61.75h-180.06c-.93-10.52-3.67-20.53-7.91-29.71l122.2-69.97c14.91,21.09,38.62,35.53,65.75,37.92ZM545.9,261.01h-43.71l37.92-21.71c2.97,6.77,4.97,14.07,5.79,21.71ZM465.05,342.89c-4.83-.46-9.52-1.39-14.04-2.73,3.85-12.9,8.54-25.51,14.04-37.77v40.5ZM465.05,515.87v41.66c-5.65-12.6-10.43-25.57-14.35-38.84,4.61-1.39,9.41-2.35,14.35-2.82ZM458.98,598.3c-9.41,17.99-17.11,36.8-22.99,56.24-17.97-10.06-31.34-27.38-36.14-47.96,19.23-4.6,39.01-7.4,59.13-8.28ZM464.12,624.53v39c-4.57-.49-9.01-1.4-13.29-2.69,3.67-12.38,8.11-24.51,13.29-36.31ZM464.12,836.69v38.79c-5.16-11.74-9.57-23.8-13.24-36.12,4.27-1.28,8.69-2.18,13.24-2.67ZM458.98,901.7c-20.11-.89-39.87-3.68-59.08-8.27,4.84-20.51,18.2-37.76,36.15-47.79,5.88,19.38,13.56,38.12,22.94,56.06ZM472.61,926.84l29.72,51.4c-9.23,4.13-19.45,6.45-30.2,6.45-7.46,0-14.67-1.12-21.47-3.18,5.56-18.9,12.91-37.19,21.96-54.67ZM529.02,992.44c37.87,34.59,82.52,59.38,130.84,73.11-.05,1.24-.08,2.48-.08,3.73,0,26.14,11.18,49.71,28.99,66.2-16.43,15.74-34.3,29.47-53.29,41.09l-106.47-184.13ZM701.56,1145.36c11.9,7.6,25.7,12.49,40.51,13.79l-.04,141.59c-10.66.94-20.8,3.74-30.08,8.07l-68.45-118.38c20.75-12.67,40.22-27.74,58.06-45.07ZM742.02,1316.82v43.98s-22.02-38.06-22.02-38.06c6.86-3.04,14.26-5.09,22.02-5.92ZM735.64,1381.76c-19.7-.89-39.06-3.6-57.9-8.05,4.09-17.49,14.37-32.63,28.42-42.94l29.48,50.99ZM764.35,1381.76l29.46-51.02c14.06,10.32,24.36,25.46,28.45,42.97-18.85,4.45-38.21,7.16-57.91,8.05ZM758.01,1360.74v-43.92c7.74.83,15.11,2.87,21.95,5.9l-21.95,38.02ZM758.02,1300.74l.04-141.61c14.9-1.33,28.78-6.29,40.72-14,17.75,17.28,37.11,32.32,57.75,44.97l-68.54,118.68c-9.25-4.32-19.36-7.11-29.98-8.05ZM811.52,1135.21c17.65-16.48,28.7-39.94,28.7-65.93,0-1.25-.03-2.49-.08-3.73,48.06-13.65,92.48-38.23,130.21-72.52l-105.8,183.21c-18.9-11.62-36.67-25.33-53.03-41.03ZM1027.88,984.69c-10.85,0-21.15-2.36-30.45-6.56l29.8-51.6c9.12,17.58,16.53,35.97,22.12,54.99-6.8,2.06-14.01,3.18-21.47,3.18ZM1041.01,901.72c9.38-17.94,17.07-36.7,22.95-56.08,17.98,10.05,31.36,27.35,36.17,47.92-19.23,4.56-39.01,7.31-59.13,8.16ZM1035.52,876.32v-39.68c4.67.48,9.22,1.41,13.6,2.72-3.75,12.61-8.28,24.95-13.6,36.96ZM1035.52,663.57v-39.88c5.34,12.07,9.89,24.47,13.65,37.15-4.4,1.32-8.96,2.25-13.65,2.74ZM1041.01,598.28c20.14.85,39.93,3.61,59.17,8.18-4.77,20.64-18.16,38-36.17,48.08-5.88-19.45-13.59-38.26-23-56.26ZM1035.52,556.27v-40.36c4.74.49,9.34,1.43,13.78,2.77-3.78,12.83-8.37,25.38-13.78,37.59ZM1035.52,342.84v-39.2c5.25,11.87,9.75,24.06,13.47,36.52-4.34,1.29-8.84,2.21-13.47,2.68ZM1041.01,278.23c20.08.85,39.82,3.59,59.02,8.14-4.92,20.42-18.29,37.58-36.2,47.54-5.86-19.24-13.51-37.86-22.82-55.68ZM1002.19,246.09l-34.76-20.05c2.72-3.82,5.8-7.37,9.18-10.61,9.24,9.74,17.77,19.99,25.58,30.66ZM953.5,218.01l-121.85-70.26c2.6-5.51,4.66-11.33,6.1-17.38,47.38,13.81,90.98,38.81,127.55,73.71-4.39,4.23-8.34,8.89-11.81,13.93ZM668.24,147.51l-122.13,69.93c-3.37-4.81-7.19-9.28-11.4-13.35,36.57-34.9,80.17-59.91,127.55-73.71,1.43,5.96,3.44,11.69,5.99,17.13ZM532.14,225.43l-33.08,18.94c7.47-10.06,15.59-19.72,24.34-28.94,3.2,3.06,6.13,6.41,8.75,10ZM458.98,278.26c-9.31,17.81-16.95,36.43-22.81,55.66-17.87-9.94-31.23-27.05-36.17-47.41,19.18-4.58,38.91-7.36,58.98-8.25ZM252.4,689.37c37.4-37.4,82.62-64.11,131.97-78.66,6.24,26.1,23.84,47.83,47.27,59.64-6.39,25.74-9.69,52.44-9.69,79.65s3.31,54.03,9.73,79.83c-23.39,11.78-40.99,33.44-47.27,59.47-49.37-14.54-94.61-41.27-132.01-78.67-18.45-18.45-34.31-38.81-47.39-60.63,13.08-21.82,28.93-42.17,47.39-60.63ZM629.64,1198.43l68.47,118.41c-17.67,12.47-30.68,31.12-35.86,52.78-49.71-14.49-95.27-41.3-132.9-78.93-16.26-16.26-30.5-34.01-42.6-52.93,50.68-2.07,99.31-15.59,142.89-39.34ZM801.85,1316.81l68.53-118.68c43.57,23.84,92.19,37.46,142.88,39.61-12.11,18.92-26.35,36.68-42.62,52.95-37.63,37.63-83.19,64.45-132.9,78.93-5.18-21.68-18.21-40.34-35.9-52.81ZM1248.17,810.63c-37.54,37.54-82.97,64.32-132.54,78.83-6.25-26.1-23.87-47.82-47.31-59.62,6.42-25.8,9.73-52.56,9.73-79.83s-3.29-53.91-9.69-79.65c23.48-11.84,41.11-33.63,47.31-59.8,49.55,14.51,94.97,41.28,132.5,78.81,18.45,18.45,34.31,38.81,47.39,60.63-13.08,21.82-28.93,42.17-47.39,60.63ZM1212.06,318.68c-28.92-19.76-60.64-34.63-94.14-44.17.11-1.82.17-3.65.17-5.49,0-14.11-3.26-27.47-9.06-39.37,31.28,21.63,60.65,46.14,87.91,73.4,5.14,5.14,10.17,10.35,15.11,15.63ZM1021.5,179.02c-16.07,1.13-30.98,6.48-43.65,14.95-25.82-24.95-55.02-45.19-86.56-60.26,35.72,8.16,70.7,19.46,104.75,33.86,8.59,3.63,17.07,7.45,25.46,11.44ZM750,35.17c39.81,0,72.4,31.51,74.14,70.91-24.46-2.77-49.19-4.17-74.14-4.17s-49.67,1.4-74.14,4.17c1.74-39.39,34.32-70.91,74.14-70.91ZM503.96,167.58c34.05-14.4,69.03-25.7,104.75-33.86-31.55,15.07-60.75,35.31-86.56,60.26-12.67-8.47-27.58-13.82-43.65-14.95,8.39-3.99,16.87-7.81,25.46-11.44ZM303.04,303.04c27.26-27.26,56.63-51.77,87.91-73.4-5.8,11.9-9.06,25.26-9.06,39.37,0,1.9.07,3.78.18,5.65-33.91,9.73-65.99,24.92-95.18,45.12,5.27-5.66,10.65-11.24,16.14-16.74ZM146.15,562.52c-.75,9.08-1.15,18.24-1.15,27.46,0,56.95,14.43,111.67,41.53,160.02-27.1,48.35-41.53,103.08-41.53,160.02,0,9.22.4,18.37,1.15,27.46-18.76-60.39-28.24-123.21-28.24-187.48s9.48-127.09,28.24-187.48ZM303.04,1196.96c-5.49-5.49-10.87-11.07-16.14-16.74,52.98,36.67,115.51,56.82,181.17,57.79,13.78,23.04,30.5,44.53,49.97,64,26.81,26.81,57.45,48.4,90.68,64.27-35.72-8.16-70.7-19.46-104.75-33.86-75.27-31.83-142.87-77.41-200.92-135.47ZM750,1464.83c-39.81,0-72.4-31.51-74.14-70.91,24.46,2.77,49.19,4.17,74.14,4.17s49.67-1.4,74.14-4.17c-1.74,39.39-34.32,70.91-74.14,70.91ZM1196.96,1196.96c-58.05,58.05-125.65,103.63-200.92,135.47-34.05,14.4-69.03,25.7-104.75,33.86,33.23-15.88,63.87-37.46,90.68-64.27,19.47-19.47,36.19-40.96,49.97-64,65.2-.85,127.34-20.62,180.13-56.69-4.94,5.28-9.97,10.5-15.11,15.63ZM1382.09,750c0,63.36-9.22,125.3-27.45,184.9.61-8.24.93-16.53.93-24.88,0-56.95-14.43-111.67-41.53-160.02,27.1-48.35,41.53-103.08,41.53-160.02,0-8.34-.31-16.64-.93-24.88,18.23,59.6,27.45,121.54,27.45,184.9Z"/></svg>