<?xml version="1.0" encoding="UTF-8"?><svg id="Layer_2" xmlns="http://www.w3.org/2000/svg" xmlns:xlink="http://www.w3.org/1999/xlink" viewBox="0 0 1500 1500"><defs><style>.cls-1{fill:url(#New_Gradient_Swatch_2);stroke-width:0px;}</style><linearGradient id="New_Gradient_Swatch_2" x1="118.87" y1="1114.38" x2="1373.95" y2="389.76" gradientUnits="userSpaceOnUse"><stop offset="0" stop-color="#56450d"/><stop offset=".21" stop-color="#e5c787"/><stop offset=".39" stop-color="#f7d976"/><stop offset=".99" stop-color="#725728"/></linearGradient></defs><path class="cls-1" d="M1260.3,243.63c-66.28-65.76-143.46-117.38-229.4-153.45-87.95-36.91-181.32-55.82-277.56-56.25l-3.35-5.8-3.35,5.8c-96.24.43-189.6,19.34-277.56,56.25-85.94,36.06-163.12,87.69-229.4,153.45-66.28,65.76-118.32,142.34-154.68,227.62-37.64,88.29-56.73,182.08-56.73,278.76s19.09,190.46,56.73,278.76c11.88,27.88,25.46,54.82,40.64,80.76l-4.8,8.31h9.74c30.32,50.21,66.8,96.58,109.09,138.54,66.28,65.76,143.46,117.38,229.4,153.45,88.97,37.34,183.48,56.27,280.9,56.27s191.93-18.93,280.9-56.27c85.94-36.06,163.12-87.69,229.4-153.45,42.29-41.96,78.77-88.33,109.09-138.54h9.74l-4.8-8.31c15.19-25.94,28.76-52.88,40.64-80.76,37.64-88.29,56.73-182.08,56.73-278.76s-19.09-190.46-56.73-278.76c-36.35-85.27-88.4-161.86-154.68-227.62ZM1112.09,1101.83c-.28-48.13-9.83-94.82-28.43-138.82-4.52-10.69-9.53-21.12-15.01-31.25,6.68-11.89,12.74-24.17,18.09-36.83,19.06-45.06,28.72-92.92,28.72-142.26,0-24.31-2.36-48.27-7.02-71.71l242.99,420.87h-239.33ZM148.57,1101.83l242.99-420.87c-4.66,23.44-7.02,47.39-7.02,71.71,0,49.33,9.66,97.2,28.72,142.26,5.36,12.67,11.41,24.94,18.09,36.83-5.48,10.14-10.49,20.56-15.01,31.25-18.61,44-28.16,90.69-28.43,138.82h-239.33ZM1046.84,574.28c-14.42,23.91-31.85,46.24-52.1,66.49-63.01,63.01-146.05,98.73-234.76,101.22-.66-.02-1.32-.03-1.98-.04v-338.64c90.35,2.02,174.99,38.14,239.11,102.26,10.43,10.43,20.12,21.41,29.04,32.86l20.7,35.85ZM473.86,538.43c8.92-11.45,18.61-22.43,29.04-32.86,64.11-64.11,148.76-100.24,239.11-102.26v338.64c-.66.01-1.32.03-1.98.04-88.71-2.5-171.75-38.21-234.76-101.22-20.25-20.25-37.68-42.58-52.1-66.49l20.7-35.85ZM742,387.31c-46.51.99-91.64,10.6-134.26,28.62-36.39,15.39-69.66,36.35-99.21,62.42l233.46-404.37v313.32ZM742,758.05v343.78h-6c-88.09-3.45-170.41-39.36-233.11-102.06-20.73-20.73-38.54-43.62-53.21-68.14,15.06-26.15,33.66-50.5,55.57-72.41,63.01-63.01,146.05-98.73,234.76-101.22.66.02,1.32.03,1.98.04ZM758,1101.83v-343.78c.66-.01,1.32-.03,1.98-.04,88.71,2.5,171.75,38.21,234.76,101.22,21.91,21.91,40.51,46.26,55.57,72.41-14.67,24.53-32.48,47.41-53.21,68.14-62.69,62.69-145.02,98.61-233.11,102.06h-6ZM892.26,415.94c-42.62-18.03-87.75-27.64-134.26-28.62V73.99l233.46,404.37c-29.55-26.07-62.82-47.03-99.21-62.42ZM460.43,529.68c-6.36,8.24-12.36,16.72-17.98,25.45-25.2-48.58-38.57-102.81-38.57-159.1,0-92.45,36-179.37,101.38-244.74,62.37-62.37,144.34-97.97,232.02-101.12l-276.85,479.51ZM444.11,589.95c14.2,22.36,30.85,43.14,49.84,62.13,33.25,33.25,71.98,59.36,115.1,77.6,20.85,8.82,42.31,15.58,64.24,20.31-21.93,4.73-43.39,11.49-64.24,20.31-43.12,18.24-81.85,44.35-115.1,77.6-20.55,20.55-38.36,43.19-53.28,67.67-26.21-49.62-40.12-105.19-40.12-162.91,0-45.74,8.75-90.13,25.42-131.28l18.15-31.44ZM440.93,947.81c14.41,22.78,31.33,43.95,50.66,63.28,33.56,33.56,72.64,59.91,116.16,78.32,11.16,4.72,22.49,8.86,33.98,12.42h-237.81c.33-54.39,13.11-106.82,37.02-154.02ZM735.74,1117.83c4.74.18,9.49.3,14.26.3s9.52-.12,14.26-.3h331.56c-3.41,87.25-38.99,168.79-101.08,230.88-65.37,65.37-152.29,101.38-244.74,101.38s-179.37-36-244.74-101.38c-62.09-62.09-97.67-143.63-101.08-230.88h331.56ZM858.28,1101.83c11.48-3.56,22.82-7.7,33.98-12.42,43.52-18.41,82.6-44.76,116.16-78.32,19.33-19.33,36.25-40.5,50.66-63.28,23.91,47.2,36.69,99.63,37.02,154.02h-237.81ZM1099.46,752.67c0,57.71-13.91,113.28-40.12,162.91-14.92-24.47-32.73-47.12-53.28-67.67-33.25-33.25-71.98-59.36-115.1-77.6-20.85-8.82-42.31-15.58-64.24-20.31,21.93-4.73,43.39-11.49,64.24-20.31,43.12-18.24,81.85-44.35,115.1-77.6,18.99-18.99,35.64-39.77,49.84-62.13l18.15,31.44c16.67,41.15,25.42,85.54,25.42,131.28ZM1039.57,529.68L762.72,50.16c87.68,3.15,169.66,38.76,232.02,101.12s101.38,152.29,101.38,244.74c0,56.29-13.37,110.52-38.57,159.1-5.62-8.73-11.62-17.21-17.98-25.45ZM99.74,1022.48c-36.79-86.3-55.45-177.98-55.45-272.48s18.65-186.18,55.45-272.48c35.54-83.36,86.42-158.23,151.23-222.53,64.81-64.3,140.29-114.79,224.32-150.05,41.34-17.35,83.9-30.62,127.41-39.79-40.58,18.08-77.14,43.22-108.75,74.83-33.25,33.25-59.36,71.98-77.6,115.1-18.89,44.65-28.46,92.07-28.46,140.96s9.58,96.31,28.46,140.96c4.92,11.64,10.44,22.95,16.5,33.94-7.29,12.71-13.82,25.89-19.58,39.5-.46,1.09-.89,2.19-1.34,3.28l-277.02,479.81c-13.01-22.92-24.75-46.6-35.17-71.03ZM250.97,1245.02c-39.02-38.71-72.98-81.26-101.59-127.18h238.79c1.64,43.98,11.08,86.68,28.17,127.09,18.24,43.12,44.35,81.85,77.6,115.1,31.61,31.61,68.18,56.75,108.76,74.83-43.51-9.17-86.07-22.44-127.41-39.79-84.04-35.26-159.51-85.75-224.32-150.05ZM1249.03,1245.02c-64.81,64.3-140.29,114.79-224.32,150.05-41.34,17.35-83.9,30.62-127.41,39.79,40.58-18.08,77.15-43.22,108.76-74.83,33.25-33.25,59.36-71.98,77.6-115.1,17.09-40.41,26.53-83.11,28.17-127.09h238.79c-28.61,45.92-62.57,88.47-101.59,127.18ZM1400.26,1022.48c-10.41,24.43-22.15,48.12-35.17,71.03l-277.02-479.82c-.45-1.09-.88-2.19-1.34-3.28-5.76-13.61-12.29-26.79-19.58-39.5,6.06-10.98,11.58-22.29,16.5-33.94,18.88-44.65,28.46-92.07,28.46-140.96s-9.58-96.31-28.46-140.96c-18.24-43.12-44.35-81.85-77.6-115.1-31.61-31.61-68.18-56.75-108.75-74.83,43.51,9.17,86.07,22.44,127.41,39.79,84.04,35.26,159.51,85.75,224.32,150.05,64.81,64.3,115.69,139.17,151.23,222.53,36.79,86.3,55.45,177.98,55.45,272.48s-18.65,186.18-55.45,272.48Z"/></svg>
