<?xml version="1.0" encoding="UTF-8"?><svg id="Layer_2" xmlns="http://www.w3.org/2000/svg" xmlns:xlink="http://www.w3.org/1999/xlink" viewBox="0 0 1500 1500"><defs><style>.cls-1{fill:url(#New_Gradient_Swatch_2);stroke-width:0px;}</style><linearGradient id="New_Gradient_Swatch_2" x1="115.35" y1="1116.45" x2="1384.7" y2="383.58" gradientUnits="userSpaceOnUse"><stop offset="0" stop-color="#56450d"/><stop offset=".21" stop-color="#e5c787"/><stop offset=".39" stop-color="#f7d976"/><stop offset=".99" stop-color="#725728"/></linearGradient></defs><path class="cls-1" d="M1391.44,1104.71V395.26l-320.85-177.28-11.87-6.53h0L750.01,40.87,108.56,395.35v709.34s641.43,354.44,641.43,354.44l641.45-354.41ZM1062.86,232.01l11.87,6.53h0l300.71,166.16v681.75l-67.62-37.29V441.27l-279.16-154.25-11.87-6.53h0l-259.02-143.12.21-73.82,304.88,168.46ZM1291.82,1040.32l-250.52-138.41,250.52-138.42v276.84ZM766.32,749.93l250.47-138.39v276.78l-250.47-138.39ZM757.75,736.39v-276.81l250.49,138.41-250.49,138.41ZM741.75,736.39l-250.49-138.41,250.49-138.41v276.81ZM733.2,749.94l-250.48,138.4v-276.8l250.48,138.4ZM741.75,763.5v276.82l-250.5-138.41,250.5-138.41ZM757.75,763.48l250.51,138.42-250.51,138.42v-276.84ZM1032.79,611.54l250.47,138.39-250.47,138.39v-276.78ZM1016.79,584.42l-250.51-138.42,250.51-138.42v276.84ZM482.72,584.42v-276.81l250.51,138.39-250.51,138.42ZM466.72,888.42l-250.58-138.45,250.58-138.46v276.91ZM207.67,763.56l250.49,138.4-250.49,138.34v-276.74ZM733.18,1053.86l-250.48,138.4v-276.8l250.48,138.4ZM1016.76,915.49v276.79l-250.47-138.39,250.47-138.39ZM1291.82,736.39l-250.49-138.41,250.49-138.43v276.84ZM1032.79,584.42v-276.84l250.49,138.41-250.49,138.43ZM757.75,432.43V155.65l250.47,138.39-250.47,138.39ZM741.75,432.43l-250.49-138.38,250.49-138.4v276.79ZM466.72,584.42l-250.51-138.35,250.51-138.42v276.76ZM207.67,459.63l250.48,138.34-250.49,138.4v-276.74ZM466.7,915.52v276.74l-250.49-138.41,250.49-138.34ZM741.73,1067.42v276.83l-250.51-138.42,250.51-138.42ZM757.73,1067.43l250.5,138.41-250.5,138.41v-276.82ZM1032.76,915.47l250.51,138.41-250.51,138.42v-276.82ZM437.14,232.07l2.51-1.43L741.98,63.59l-.21,73.77L191.67,441.35v607.8s-67.11,37.24-67.11,37.24V404.79s312.59-172.71,312.59-172.71ZM440.92,1270.05l-307.85-170.1,66.6-36.95,550.06,303.95,550.09-303.93,67.07,36.98-302.22,166.99h-.02l-314.65,173.86-309.07-170.77v-.03Z"/></svg>
