<?xml version="1.0" encoding="UTF-8"?><svg id="Layer_2" xmlns="http://www.w3.org/2000/svg" xmlns:xlink="http://www.w3.org/1999/xlink" viewBox="0 0 1500 1500"><defs><style>.cls-1{fill:url(#New_Gradient_Swatch_2);stroke-width:0px;}</style><linearGradient id="New_Gradient_Swatch_2" x1="127.46" y1="1109.01" x2="1371.69" y2="390.65" gradientUnits="userSpaceOnUse"><stop offset="0" stop-color="#56450d"/><stop offset=".21" stop-color="#e5c787"/><stop offset=".39" stop-color="#f7d976"/><stop offset=".99" stop-color="#725728"/></linearGradient></defs><path class="cls-1" d="M79.3,928.08c0,49.03,9.6,96.6,28.55,141.38,18.29,43.25,44.48,82.1,77.84,115.45,33.35,33.36,72.2,59.54,115.45,77.84,42.68,18.05,87.9,27.6,134.5,28.46l.27.46h.56c15.22,25.34,33.5,48.75,54.69,69.93,33.35,33.36,72.2,59.54,115.45,77.84,44.78,18.94,92.35,28.55,141.38,28.55s96.6-9.6,141.38-28.55c43.25-18.29,82.1-44.48,115.45-77.84,21.19-21.19,39.47-44.6,54.69-69.93h1.28l.14-.24c47.95-.39,94.47-9.96,138.31-28.51,43.25-18.29,82.1-44.48,115.45-77.84,33.35-33.35,59.54-72.2,77.84-115.45,18.94-44.79,28.55-92.35,28.55-141.38s-9.6-96.6-28.55-141.38c-5.32-12.57-11.32-24.75-17.95-36.55,6.49-11.6,12.37-23.56,17.59-35.9,18.94-44.79,28.55-92.35,28.55-141.38s-9.6-96.6-28.55-141.38c-18.29-43.25-44.48-82.1-77.84-115.45-33.35-33.35-72.2-59.54-115.45-77.84-43.69-18.48-90.03-28.05-137.8-28.5l-.29-.51h-.18c-24.42-41.11-57.09-77.53-95.46-106.19-63.09-47.13-138.19-72.04-217.17-72.04-49.03,0-96.6,9.6-141.38,28.55-43.25,18.29-82.1,44.48-115.45,77.84-21.82,21.82-40.55,46.01-56.04,72.22-46.54.88-91.7,10.43-134.33,28.46-43.25,18.29-82.1,44.48-115.45,77.84-33.35,33.35-59.54,72.2-77.84,115.45-18.94,44.78-28.55,92.35-28.55,141.38s9.6,96.6,28.55,141.38c5.03,11.9,10.69,23.45,16.9,34.67l-.92,1.6,1.08,1.88c-6.13,11.1-11.72,22.53-16.7,34.3-18.94,44.79-28.55,92.35-28.55,141.38ZM694.28,225.35c.72,35.65,6.55,70.49,17.37,104-4.1-4.53-8.32-8.98-12.67-13.32-33.35-33.35-72.2-59.54-115.45-77.84-11.62-4.91-23.43-9.19-35.39-12.84h146.14ZM805.2,225.35h146.88c-12.17,3.69-24.18,8.02-35.98,13.01-43.25,18.29-82.1,44.48-115.45,77.84-4.5,4.49-8.85,9.1-13.08,13.79,10.97-33.71,16.89-68.76,17.63-104.64ZM805.28,1275.68c-.73-35.9-6.65-70.96-17.62-104.69,4.32,4.8,8.76,9.51,13.36,14.1,33.35,33.36,72.2,59.54,115.45,77.84,11.52,4.87,23.23,9.12,35.1,12.75h-146.28ZM694.36,1275.68h-146.15c12.07-3.67,23.98-7.97,35.69-12.92,43.25-18.29,82.1-44.48,115.45-77.84,4.25-4.25,8.38-8.59,12.4-13.02-10.8,33.44-16.64,68.2-17.38,103.78ZM993.86,504.04c18.6,18.6,34.83,38.95,48.54,60.66-87.11-3.68-168.48-39.33-230.51-101.36-18.6-18.6-34.83-38.95-48.54-60.66,87.11,3.68,168.48,39.33,230.51,101.36ZM764.86,1096.39c13.41-20.88,29.14-40.47,47.1-58.43,61.67-61.67,142.46-97.28,229-101.31-13.41,20.88-29.14,40.47-47.1,58.43-61.67,61.67-142.46,97.28-229,101.31ZM750.22,766.93l.2.35c25.68,49.04,39.32,103.87,39.32,160.81s-13.73,112.18-39.6,161.35c-25.81-49.13-39.51-104.1-39.51-161.17s13.73-112.16,39.59-161.33ZM805.73,928.08c0-27.38-3-54.29-8.94-80.53l72.36,125.26c-24.79,15.04-47.71,33.05-68.5,53.83-4.25,4.25-8.38,8.59-12.4,13.02,11.59-35.88,17.48-73.28,17.48-111.58ZM883.01,964.83l-72.47-125.46c31.07,28.85,66.51,51.83,105.56,68.34,21.17,8.95,42.97,15.79,65.24,20.55-22.27,4.75-44.07,11.59-65.24,20.55-11.34,4.8-22.37,10.15-33.09,16.02ZM1042.02,919.9c-86.94-3.78-168.14-39.42-230.06-101.34-18.34-18.34-34.36-38.36-47.95-59.73l-.18-.32h10.17c82.94,6.11,160.08,41.34,219.49,100.74,18.6,18.6,34.82,38.94,48.53,60.65ZM993.5,639.86c-61.5,61.5-142,97.08-228.26,101.28,13.4-20.87,29.13-40.45,47.09-58.4,61.5-61.49,142-97.08,228.26-101.28-13.4,20.87-29.13,40.45-47.09,58.4ZM916.46,593.59c-41.07,17.37-78.15,41.87-110.34,72.85l75.47-130.72c11.14,6.16,22.62,11.77,34.44,16.77,21.24,8.98,43.11,15.84,65.46,20.59-22.2,4.75-43.92,11.58-65.02,20.5ZM797.17,649.93c5.43-25.14,8.2-50.89,8.2-77.07,0-38.28-5.88-75.66-17.47-111.53,4.1,4.53,8.32,8.98,12.67,13.32,20.42,20.42,42.9,38.14,67.18,53.02l-70.59,122.26ZM789.37,572.86c0,51.31-11.07,100.9-32.05,146.09l-8.14,14.11c-25.42-48.84-38.91-103.39-38.91-160.02s13.73-112.18,39.6-161.35c25.81,49.13,39.51,104.1,39.51,161.17ZM455.15,581.11c88.01,3.13,170.3,38.85,232.89,101.45,18.05,18.05,33.86,37.75,47.31,58.75-88.01-3.13-170.3-38.85-232.89-101.45-18.05-18.05-33.86-37.75-47.31-58.75ZM491.14,651.18c33.35,33.36,72.2,59.54,115.45,77.84,12.34,5.22,24.91,9.71,37.65,13.5h-148.05c-.77-35.9-6.73-70.97-17.74-104.69,4.11,4.54,8.34,8.99,12.69,13.35ZM496.19,758.52h141.83c-10.61,3.37-21.09,7.22-31.43,11.59-43.25,18.29-82.1,44.48-115.45,77.84-4.02,4.02-7.92,8.12-11.73,12.29,10.4-32.81,16.04-66.87,16.78-101.72ZM502.46,859.26c59.41-59.41,136.55-94.64,219.49-100.74h12.54l-7.78,13.47c-11.53,16.4-24.56,31.92-39.03,46.39-62.67,62.67-145.08,98.41-233.2,101.46.73-1.39,1.48-2.77,2.19-4.17,13.12-20.12,28.41-39.03,45.79-56.41ZM583.54,907.54c37.97-16.06,72.53-38.2,102.98-65.94l-70.76,122.56c-10.44-5.68-21.18-10.87-32.21-15.53-21.17-8.95-42.97-15.79-65.24-20.55,22.27-4.75,44.07-11.59,65.24-20.55ZM705.07,841.46c-6.92,28.21-10.44,57.23-10.44,86.8,0,38.56,5.97,76.2,17.72,112.31-4.32-4.8-8.76-9.5-13.35-14.1-21.03-21.03-44.24-39.2-69.36-54.35l75.44-130.66ZM1004.81,847.95c-33.35-33.36-72.2-59.54-115.45-77.84-10.33-4.37-20.81-8.22-31.43-11.59h142.93c.8,35.61,6.72,70.4,17.6,103.87-4.41-4.92-8.96-9.74-13.66-14.44ZM1000.85,742.52h-149.14c12.74-3.8,25.3-8.28,37.65-13.5,43.25-18.29,82.1-44.48,115.45-77.84,4.9-4.9,9.62-9.93,14.21-15.06-11.33,34.25-17.43,69.9-18.17,106.4ZM694.27,573.04c0,27.38,3,54.29,8.94,80.53l-72.47-125.46c24.67-15,47.48-32.94,68.18-53.63,4.49-4.49,8.85-9.1,13.08-13.79-11.76,36.12-17.73,73.78-17.73,112.35ZM616.88,536.11l72.58,125.64c-31.07-28.85-66.51-51.83-105.56-68.34-21.24-8.98-43.11-15.84-65.46-20.59,22.2-4.75,43.92-11.58,65.02-20.5,11.46-4.85,22.6-10.26,33.42-16.21ZM480.29,750.52c0,55.4-12.9,108.81-37.25,156.83-.77,1.19-1.54,2.39-2.3,3.6-25.88-49.18-39.61-104.22-39.61-161.38s13.64-111.8,39.34-160.85c26.02,49.29,39.83,104.48,39.83,161.8ZM455.52,936.36c87.73,3.3,169.73,39,232.15,101.42,18.05,18.05,33.85,37.74,47.29,58.72-87.73-3.3-169.73-39-232.15-101.42-18.05-18.05-33.85-37.74-47.29-58.72ZM606.95,1084.23c21.15,8.95,42.93,15.78,65.19,20.54-38.06,8.1-74.69,22.27-108.35,42.11-22.01,12.97-42.54,28.22-61.27,45.4l71.56-123.94c10.65,5.82,21.61,11.14,32.87,15.9ZM889.72,1084.23c11.73-4.96,23.12-10.52,34.18-16.63l74.97,129.77c-19.98-19.09-42.13-35.94-66.04-50.1-33.74-19.99-70.47-34.26-108.65-42.43,22.38-4.76,44.28-11.62,65.54-20.61ZM937.74,1059.57c24.38-14.91,46.94-32.68,67.43-53.17,4.49-4.49,8.84-9.09,13.07-13.78-11.84,36.23-17.84,74.01-17.84,112.71,0,25.98,2.78,51.78,8.22,76.94l-70.88-122.7ZM1016.76,750.11c0-57.1,13.71-112.09,39.54-161.23,25.64,49.01,39.26,103.8,39.26,160.69s-13.71,112.09-39.54,161.23c-25.64-49.01-39.26-103.8-39.26-160.69ZM1005.17,492.73c-20.62-20.62-43.34-38.49-67.9-53.46l72.17-125c-5.98,26.33-9.05,53.38-9.05,80.62,0,38.09,5.82,75.29,17.29,111-4.05-4.47-8.23-8.86-12.52-13.16ZM923.43,431.25c-10.91-6-22.15-11.48-33.71-16.37-21.28-9-43.19-15.87-65.58-20.62,37.81-8.09,74.19-22.17,107.65-41.85,23.74-13.97,45.78-30.58,65.69-49.42l-74.05,128.25ZM574.41,430.61l-70.97-122.86c18.47,16.82,38.68,31.77,60.31,44.52,33.66,19.84,70.29,34,108.35,42.1-22.24,4.75-44.01,11.59-65.15,20.53-11.15,4.72-22,9.97-32.54,15.72ZM736.09,402.58c-13.7,21.69-29.91,42.01-48.49,60.59-62.69,62.69-145.12,98.43-233.27,101.46,13.7-21.69,29.91-42.01,48.49-60.59,62.69-62.69,145.12-98.43,233.27-101.46ZM385.2,742.52h-145.52c11.63-3.59,23.11-7.77,34.41-12.55,43.25-18.29,82.1-44.48,115.45-77.84,4.41-4.41,8.69-8.93,12.86-13.54-10.75,33.49-16.52,68.3-17.19,103.92ZM385.23,758.52c.86,36.02,6.96,71.2,18.14,105.02-4.47-4.98-9.07-9.87-13.83-14.63-33.35-33.36-72.2-59.54-115.45-77.84-11.3-4.78-22.78-8.96-34.41-12.55h145.55ZM491.5,1006.4c20.85,20.85,43.84,38.89,68.71,53.97l-73.7,127.65c6.23-26.85,9.42-54.47,9.42-82.28,0-39.15-6.14-77.36-18.25-113.97,4.47,4.98,9.07,9.87,13.83,14.63ZM459.86,1266.17c28.96-42.95,67.32-79.14,112.06-105.51,49.88-29.4,106.57-45.79,164.64-47.69-13.71,21.7-29.93,42.04-48.52,60.64-62.69,62.69-145.14,98.44-233.31,101.46l5.14-8.9ZM763.81,1113.15c56.78,2.58,112.09,19,160.86,47.89,47.55,28.16,87.83,67.41,117.24,114.07-86.76-3.89-167.78-39.52-229.59-101.33-18.59-18.59-34.81-38.93-48.52-60.63ZM1056.29,1264.79l-7.73-13.38c-21.11-45.53-32.16-95.45-32.16-146.09,0-57.1,13.71-112.09,39.54-161.23,25.64,49.01,39.26,103.8,39.26,160.69s-13.49,111.18-38.9,160.01ZM1111.45,758.52h143.9c-11.19,3.5-22.23,7.53-33.11,12.14-43.25,18.29-82.1,44.48-115.45,77.84-4.49,4.49-8.84,9.09-13.07,13.78,10.92-33.43,16.88-68.18,17.74-103.75ZM1111.47,742.52c-.67-35.63-6.45-70.45-17.21-103.95,4.06,4.47,8.23,8.86,12.52,13.16,33.35,33.36,72.2,59.54,115.45,77.84,11.75,4.97,23.69,9.28,35.8,12.96h-146.57ZM1016.4,394.89c0-56.23,13.64-111.61,39.54-161.05.41.78.82,1.57,1.23,2.35,25.23,49.23,38.02,102.44,38.02,158.15s-13.71,112.09-39.54,161.23c-25.64-49.01-39.26-103.8-39.26-160.69ZM923.68,338.63c-48.21,28.36-102.79,44.57-158.8,47.3,13.4-20.87,29.13-40.45,47.09-58.41,61.55-61.55,142.13-97.14,228.47-101.29-29.48,45.99-69.59,84.65-116.76,112.4ZM734.99,386.09c-57.54-2.13-113.67-18.48-163.11-47.61-43.29-25.51-80.61-60.22-109.22-101.34l-6.47-11.2c87.48,3.46,169.23,39.14,231.49,101.4,18.05,18.05,33.86,37.76,47.31,58.75ZM560.54,438.57c-24.99,15.11-48.1,33.22-69.03,54.16-4.41,4.41-8.69,8.93-12.86,13.54,11.46-35.7,17.28-72.89,17.28-110.96,0-29.35-3.56-58.47-10.48-86.72l75.09,129.99ZM378.23,640.82c-61.69,61.69-142.51,97.3-229.08,101.31,13.56-21.3,29.55-41.28,47.84-59.56,61.69-61.69,142.51-97.3,229.08-101.31-13.56,21.3-29.55,41.28-47.84,59.56ZM378.23,860.22c18.27,18.27,34.24,38.22,47.79,59.49-86.69-3.94-167.63-39.56-229.39-101.32-18.27-18.27-34.24-38.22-47.79-59.49,86.69,3.94,167.63,39.56,229.39,101.32ZM440.31,944.36c25.88,49.18,39.61,104.22,39.61,161.38s-13.59,111.39-39.39,160.75c-25.99-49.26-39.78-104.42-39.78-161.71s12.9-108.81,37.25-156.83c.77-1.19,1.54-2.39,2.3-3.6ZM384.76,1104.78c0,28.13,3.18,55.77,9.45,82.69l-72.88-126.23c24.82-15.05,47.77-33.07,68.58-53.88,4.02-4.02,7.92-8.12,11.73-12.29-11.2,35.32-16.88,72.08-16.88,109.72ZM749.86,1122.13c25.81,49.13,39.51,104.1,39.51,161.17s-13.66,111.69-39.6,161.15c-25.88-49.42-39.51-104.79-39.51-160.98s13.73-112.18,39.6-161.35ZM1093.49,992.5c4.41,4.92,8.96,9.74,13.66,14.44,20.78,20.78,43.7,38.78,68.48,53.82l-74.4,128.86c6.61-27.6,9.97-55.96,9.97-84.84,0-38.55-5.96-76.18-17.71-112.28ZM1118.46,995.63c-18.16-18.16-34.04-37.97-47.54-59.1,57.26,2.21,113.13,18.49,162.36,47.46,47.39,27.88,87.65,66.78,117.17,113.06-87.67-3.34-169.61-39.04-231.99-101.41ZM1231.23,964.44c-30.69-16.73-63.63-28.88-97.73-36.16,22.32-4.75,44.16-11.6,65.37-20.57,38.16-16.14,72.88-38.43,103.43-66.36l-71.06,123.09ZM1303.01,818.56c-62.66,62.66-145.06,98.4-233.17,101.46,13.65-21.55,29.79-41.74,48.26-60.21,61.55-61.55,142.14-97.14,228.49-101.29h3.54l-6.77,11.73c-11.85,17.11-25.32,33.28-40.34,48.31ZM1349.72,741.81c-87.53-3.42-169.32-39.11-231.62-101.4-18.16-18.16-34.05-37.98-47.55-59.12,87.98,3.14,170.24,38.87,232.82,101.44,14.47,14.47,27.5,29.99,39.03,46.4l7.32,12.68ZM1199.23,593.59c-21.28-9-43.19-15.87-65.58-20.62,34.08-7.29,67.01-19.45,97.69-36.2l70.87,122.76c-30.44-27.73-65.01-49.88-102.98-65.94ZM1233.73,517c-49.55,29.27-105.84,45.68-163.53,47.79,13.65-21.55,29.78-41.74,48.26-60.21,62.53-62.53,144.71-98.25,232.61-101.44-29.47,46.59-69.79,85.77-117.34,113.86ZM1107.15,493.27c-4.9,4.9-9.62,9.93-14.21,15.06,12.11-36.62,18.26-74.83,18.26-113.99,0-27.79-3.05-54.99-9.1-81.42l73.18,126.75c-24.65,15-47.44,32.92-68.13,53.6ZM749.7,378.99c-25.81-49.13-39.51-104.1-39.51-161.17s13.66-111.68,39.6-161.15c25.88,49.43,39.51,104.76,39.51,160.98s-13.73,112.18-39.6,161.35ZM440.2,233.9c26.02,49.53,39.73,105.03,39.73,161.4s-13.64,111.8-39.34,160.85c-26.02-49.29-39.83-104.48-39.83-161.8s12.63-107.71,36.49-155.33l2.95-5.11ZM402.6,507.03c-4.11-4.54-8.34-8.99-12.69-13.35-20.81-20.81-43.76-38.83-68.58-53.88l72.16-124.98c-5.79,25.92-8.73,52.5-8.73,79.53,0,38.69,6.01,76.47,17.84,112.69ZM378.59,505c18.27,18.27,34.25,38.23,47.8,59.51-56.57-2.55-111.7-18.83-160.34-47.5-47.44-27.96-87.71-66.96-117.2-113.34,86.82,3.86,167.89,39.49,229.74,101.33ZM266.1,535.45c31.39,17.4,65.17,29.99,100.18,37.44-22.24,4.75-44.01,11.59-65.15,20.53-41.27,17.46-78.52,42.12-110.83,73.32l75.8-131.29ZM300.77,907.54c21.21,8.97,43.05,15.82,65.37,20.57-34.96,7.46-68.71,20.05-100.05,37.44l-75.43-130.64c32.14,30.88,69.14,55.3,110.11,72.62ZM266.54,983.7c48.42-28.44,103.25-44.63,159.5-47.24-.55,1.05-1.12,2.1-1.66,3.16-13.12,20.12-28.41,39.03-45.79,56.41-61.84,61.84-142.91,97.47-229.72,101.33,29.59-46.56,70.03-85.69,117.67-113.67ZM196.99,1173.6c-18.48-18.48-34.61-38.67-48.26-60.22,43.5-1.83,85.72-11.28,125.72-28.2,11.31-4.78,22.31-10.12,33-15.97l118.76,205.7c-86.63-3.98-167.5-39.59-229.23-101.31ZM502.46,1350.3c-18.02-18.02-33.8-37.67-47.23-58.62h239.14c1.26,55.91,15.39,110.81,41.16,160.08-88.08-3.08-170.44-38.82-233.08-101.46ZM993.5,1350.3c-61.77,61.77-142.72,97.39-229.42,101.32,25.76-49.23,39.9-104.07,41.18-159.94h235.46c-13.43,20.95-29.21,40.6-47.23,58.62ZM1303.37,1173.78c-62.64,62.64-145.01,98.38-233.09,101.46l119.22-206.49c10.72,5.87,21.76,11.23,33.11,16.03,41.1,17.38,84.55,26.88,129.31,28.33-13.71,21.72-29.94,42.07-48.54,60.67ZM1405.07,928.26c0,57.41-13.85,112.69-39.95,162.03-30.21-47.99-71.43-88.51-120.01-117.87l111.97-193.94c2.76-4.02,5.45-8.1,8.04-12.23,26.09,49.34,39.94,104.61,39.94,162.01ZM1404.7,573.04c0,57.16-13.74,112.2-39.61,161.38-2.87-4.54-5.84-9.01-8.91-13.42l-110.98-192.22c48.44-29.31,89.52-69.7,119.68-117.53,26.02,49.28,39.83,104.47,39.83,161.79ZM1303.01,327.52c18.31,18.31,34.31,38.3,47.88,59.63-44.41,1.56-87.5,11.04-128.29,28.29-11.48,4.85-22.63,10.28-33.47,16.23l-118.69-205.59c87.89,3.2,170.05,38.92,232.57,101.44ZM1041.84,209.35h-236.65c-1.29-56.63-15.77-112.17-42.17-161.91,69.97,2.95,136.26,26.49,192.55,68.54,34.12,25.49,63.54,57.4,86.27,93.37ZM502.46,148.82c62.9-62.9,145.68-98.67,234.17-101.49-26.48,49.77-41.01,105.34-42.33,162.03h-240.3c13.69-21.67,29.89-41.97,48.46-60.53ZM196.63,327.34c61.77-61.77,142.71-97.39,229.41-101.32-.69,1.33-1.39,2.65-2.07,3.99l-116.51,201.81c-10.69-5.85-21.69-11.19-33-15.97-40.12-16.97-82.49-26.42-126.13-28.21,13.66-21.58,29.81-41.79,48.31-60.29ZM94.93,572.86c0-57.26,13.79-112.4,39.76-161.66,29.73,47.11,70.08,87,117.59,116.18l-118.54,205.31c-25.35-48.79-38.81-103.27-38.81-159.83ZM252.27,973.62c-47.38,29.12-87.64,68.89-117.34,115.87-25.89-49.19-39.63-104.24-39.63-161.4s13.39-110.77,38.62-159.46l118.35,205Z"/></svg>
