<?xml version="1.0" encoding="UTF-8"?><svg id="Layer_2" xmlns="http://www.w3.org/2000/svg" xmlns:xlink="http://www.w3.org/1999/xlink" viewBox="0 0 1500 1500"><defs><style>.cls-1{fill:url(#New_Gradient_Swatch_2);stroke-width:0px;}</style><linearGradient id="New_Gradient_Swatch_2" x1="157.92" y1="1091.84" x2="1342.08" y2="408.16" gradientUnits="userSpaceOnUse"><stop offset="0" stop-color="#56450d"/><stop offset=".21" stop-color="#e5c787"/><stop offset=".39" stop-color="#f7d976"/><stop offset=".99" stop-color="#725728"/></linearGradient></defs><path class="cls-1" d="M1342.08,1091.84V408.16L750,66.32,157.92,408.16v683.68l592.08,341.84,592.08-341.84ZM531,751.27l124.23-217.79h190.19l124.67,215.93-128.45,222.49-183.56-.53-127.07-220.1ZM639.56,971.31l-233.69-.68,115.95-203.27,117.75,203.95ZM521.73,735.22l-116.47-201.74h231.55l-115.07,201.74ZM749.74,367.78l86.43,149.71h-171.82l85.39-149.71ZM863.89,533.48h230.86l-115.43,199.93-115.43-199.93ZM979.31,765.41l119.64,207.23-238.89-.69,119.25-206.54ZM832.4,987.87l-82.4,142.73-82.68-143.2,165.08.48ZM758,1153.83l216.64-22.02-216.64,269.89v-247.87ZM764.75,1137.06l86.1-149.13,238.72.69-100.88,125.68-223.95,22.77ZM1110.04,988.68h1.84s193.27,93.45,193.27,93.45l-294.12,29.9,99.01-123.35ZM1118.49,974.11l80.58-201.75,119.89,298.67-200.47-96.92ZM1108.22,956.69l-119.67-207.27,118.75-205.68,83.14,207.11-82.22,205.84ZM1118.77,529.34l200.09-100.01-119.82,299.98-80.27-199.97ZM1110.82,515.43l-100.12-125.51,294.87,28.17-194.75,97.34ZM1091.99,517.48h-237.34l-87.06-150.79,220.95,21.11,103.45,129.68ZM757.77,349.68l-.07-.12V98.42l216.96,271.99-216.89-20.72ZM741.7,349.58l-.06.1-216.51,20.71,216.56-271.94v251.14ZM731.95,366.68l-86.02,150.8h-237.93l103.29-129.7,220.66-21.1ZM389.18,515.43l-194.75-97.34,294.71-28.19-99.96,125.53ZM381.23,529.34l-80.44,200.4-119.67-300.42,200.11,100.02ZM392.7,543.73l119.85,207.59-119.62,209.72-83.55-209.74,83.32-207.57ZM380.91,974.11l-199.86,96.89,119.68-298.16,80.18,201.28ZM388.85,988.04l99.65,123.93-293.71-29.86,194.07-94.08ZM408.26,986.65l240.55.7,86.44,149.72-224.4-22.81-102.6-127.6ZM742,1153.83v247.9l-217.06-269.97,217.06,22.07ZM996.98,1129.53l300.78-30.58-514.82,297.23,214.04-266.66ZM1207.67,750.83l118.41-296.45v591.44l-118.41-294.99ZM996.82,372.52l-214.75-269.21,516.16,298.01-301.42-28.8ZM503,372.5l-301.22,28.81L716.89,103.91l-213.9,268.6ZM292.15,751.28l-118.23,294.54V454.48l118.23,296.8ZM502.58,1129.49l214.4,266.65-514.74-297.19,300.34,30.53Z"/></svg>
