<?xml version="1.0" encoding="UTF-8"?><svg id="Layer_2" xmlns="http://www.w3.org/2000/svg" xmlns:xlink="http://www.w3.org/1999/xlink" viewBox="0 0 1500 1500"><defs><style>.cls-1{fill:url(#New_Gradient_Swatch_2);stroke-width:0px;}</style><linearGradient id="New_Gradient_Swatch_2" x1="158.25" y1="1090.52" x2="1341.75" y2="407.22" gradientUnits="userSpaceOnUse"><stop offset="0" stop-color="#56450d"/><stop offset=".21" stop-color="#e5c787"/><stop offset=".39" stop-color="#f7d976"/><stop offset=".99" stop-color="#725728"/></linearGradient></defs><path class="cls-1" d="M120.55,1014.78c34.41,81.35,83.66,154.41,146.4,217.14,62.74,62.74,135.79,111.99,217.14,146.4,84.23,35.62,173.69,53.69,265.91,53.69s181.68-18.06,265.91-53.69c81.35-34.41,154.41-83.66,217.14-146.4,62.74-62.74,111.99-135.79,146.4-217.14,35.62-84.23,53.69-173.69,53.69-265.91s-18.06-181.68-53.69-265.91c-34.41-81.35-83.66-154.41-146.4-217.14-62.74-62.74-135.79-111.99-217.14-146.4-84.23-35.62-173.69-53.69-265.91-53.69s-181.68,18.06-265.91,53.69c-81.35,34.41-154.41,83.66-217.14,146.4-62.74,62.74-111.99,135.79-146.4,217.14-35.62,84.23-53.69,173.69-53.69,265.91s18.06,181.68,53.69,265.91ZM1307.82,421.2l-356.68,206.11v-207.71l356.68,1.59ZM766.42,980.24l168.72-96.53v191.69l-168.72-95.17ZM758,766.48l174.12,100.53-174.12,99.61v-200.14ZM742,966.47l-174.99-98.7,174.99-101.12v199.82ZM766.14,752.7l169-97.66v195.23l-169-97.57ZM758,738.92v-196.13l167.34,99.43-167.34,96.7ZM742,738.77l-171.78-99.18,171.78-100.25v199.43ZM734.15,752.71l-171.62,99.17v-198.25l171.62,99.08ZM734.02,980.34l-171.49,98.11v-194.84l171.49,96.73ZM951.14,657.55l170.26,101.17-170.26,97.41v-198.57ZM762.94,527.12l172.2-100.49v202.81l-172.2-102.32ZM562.53,625.55v-198.9l168.88,100.34-168.88,98.55ZM546.53,856.21l-176.71-99.67,176.71-103.13v202.8ZM546.53,1084.24H192.4l354.13-204.64v204.64ZM742,994.21v400.46l-176.46-299.51,176.46-100.96ZM758,993.86l175.5,98.99-175.5,299.13v-398.13ZM951.14,877.99l353.45,204.07h-353.45v-204.07ZM964.23,867.07l170.21-97.38,178.76,298.86-348.97-201.48ZM1135.02,748.2l-178.03-105.78,352.53-203.71-174.5,309.5ZM758,511.48V106.3l174.29,303.46-174.29,101.71ZM742,514.68l-176.57-104.92,176.57-303.77v408.68ZM546.53,625.91l-355.63-205.32h355.63v205.32ZM538.35,639.66l-181.52,105.93-167.16-307.24,348.67,201.31ZM358.87,768.73l175.88,99.2-344.39,199.01,168.51-298.21ZM549.96,1100.24l175.42,297.73-515.69-297.73h340.27ZM949,1098.05h345.1l-521.88,301.31,176.78-301.31ZM1147,759.52l177.45-314.74v611.41l-177.45-296.67ZM947.2,403.59l-175.46-305.49,531.88,307.08-356.43-1.59ZM549.93,404.59H197.4L727.99,98.26l-178.06,306.34ZM345.95,759.07l-170.4,301.56V445.87l170.4,313.2ZM278.26,1220.61c-35.37-35.37-66.34-74.1-92.68-115.8l538.14,310.7c-80.79-3.1-159.18-20.52-233.4-51.92-79.44-33.6-150.79-81.71-212.06-142.98ZM1221.74,1220.61c-61.27,61.27-132.62,109.38-212.06,142.98-74.22,31.39-152.62,48.81-233.4,51.92l538.14-310.7c-26.34,41.7-57.31,80.44-92.68,115.81ZM1417.14,748.87c0,90.07-17.64,177.43-52.42,259.68-7.39,17.47-15.48,34.55-24.26,51.22V437.98c8.78,16.67,16.87,33.74,24.26,51.22,34.79,82.24,52.42,169.61,52.42,259.68ZM1221.74,277.13c35.37,35.37,66.34,74.1,92.68,115.81L776.27,82.24c80.79,3.1,159.18,20.52,233.41,51.92,79.44,33.6,150.79,81.71,212.06,142.98ZM278.26,277.13c61.27-61.27,132.62-109.38,212.06-142.98,74.22-31.39,152.62-48.81,233.41-51.92L185.58,392.94c26.34-41.7,57.31-80.44,92.68-115.81ZM135.29,489.19c7.39-17.47,15.48-34.55,24.26-51.21v621.78c-8.78-16.67-16.87-33.74-24.26-51.21-34.79-82.24-52.42-169.61-52.42-259.68s17.64-177.43,52.42-259.68Z"/></svg>
