<?xml version="1.0" encoding="UTF-8"?><svg id="Layer_2" xmlns="http://www.w3.org/2000/svg" xmlns:xlink="http://www.w3.org/1999/xlink" viewBox="0 0 1500 1500"><defs><style>.cls-1{fill:url(#New_Gradient_Swatch_2);stroke-width:0px;}</style><linearGradient id="New_Gradient_Swatch_2" x1="114.27" y1="1116.98" x2="1385.7" y2="382.92" gradientUnits="userSpaceOnUse"><stop offset="0" stop-color="#56450d"/><stop offset=".21" stop-color="#e5c787"/><stop offset=".39" stop-color="#f7d976"/><stop offset=".99" stop-color="#725728"/></linearGradient></defs><path class="cls-1" d="M170.36,907.71c-35.44,20.46-60.79,53.5-71.39,93.03-10.59,39.53-5.16,80.82,15.31,116.26,20.46,35.44,53.5,60.79,93.03,71.39,13.2,3.54,26.59,5.29,39.9,5.29,26.55,0,52.75-6.96,76.36-20.59,20.53-11.86,37.67-27.94,50.52-47.06l238.26,137.56c-9.97,20.32-15.58,43.14-15.58,67.26,0,84.48,68.73,153.21,153.21,153.21s153.21-68.73,153.21-153.21c0-24.1-5.6-46.91-15.56-67.22l238.33-137.6c12.61,18.78,29.56,35.03,50.44,47.08,24.07,13.9,50.37,20.5,76.35,20.5,52.99,0,104.6-27.48,132.94-76.58,20.46-35.44,25.9-76.73,15.31-116.26-10.59-39.53-35.94-72.57-71.39-93.03-20.53-11.85-43.02-18.65-65.99-20.22v-275.14c22.56-1.53,45.12-8.09,65.99-20.14,35.44-20.46,60.79-53.5,71.39-93.03,10.59-39.53,5.16-80.82-15.31-116.26-20.46-35.44-53.5-60.79-93.03-71.39-39.53-10.59-80.82-5.16-116.26,15.31-20.55,11.86-37.69,27.96-50.55,47.09l-238.24-137.55c9.97-20.32,15.58-43.14,15.58-67.26,0-84.48-68.73-153.21-153.21-153.21s-153.21,68.73-153.21,153.21c0,24.13,5.61,46.97,15.59,67.29l-238.32,137.6c-12.61-18.81-29.58-35.09-50.48-47.15-35.44-20.46-76.73-25.9-116.26-15.31-39.53,10.59-72.57,35.94-93.03,71.39-42.24,73.16-17.08,167.05,56.08,209.29,20.55,11.87,43.07,18.68,66.08,20.24v274.98c-23,1.56-45.52,8.37-66.08,20.23ZM315.58,1159.23c-31.74,18.33-68.72,23.19-104.12,13.71s-64.99-32.19-83.32-63.93c-18.33-31.74-23.19-68.72-13.71-104.12s32.19-64.99,63.93-83.32c18.08-10.44,37.86-16.49,58.08-18.03v134.89c-.59,1.74-.6,3.64,0,5.4v2.72l123.76,71.46c-11.44,16.72-26.57,30.79-44.63,41.22ZM431.38,467.01c-8.4,4.07-16.37,8.88-23.82,14.37l-8.71-1.68c.55-4.22.93-8.45,1.13-12.68h31.4ZM1099.93,467.01c.2,4.18.56,8.34,1.1,12.49l-8.81,1.7c-7.38-5.42-15.26-10.16-23.56-14.19h31.26ZM1069.73,1032.45c8.32-4.11,16.2-8.96,23.58-14.48l7.95,1.54c-.59,4.31-1,8.63-1.22,12.94h-30.31ZM998.72,1032.45c-19.88-.38-39.49-5.11-57.65-14.06l15.5-26.85,114.35,22.1c-10.48,6.12-21.85,10.88-33.89,14.11-10.89,2.92-21.93,4.47-32.92,4.7h-5.39ZM400.04,1032.45c-.21-4.21-.6-8.41-1.17-12.58l8.36-1.62c7.37,5.45,15.18,10.19,23.31,14.2h-30.51ZM368.45,1104.29l-96.73-55.85h112.26c-.56,9.18-2.04,18.38-4.48,27.46-2.67,9.96-6.38,19.46-11.05,28.38ZM498.71,467.52c20.68,0,41.13,4.72,60.02,13.99l-15.11,26.17-113.46-21.93c10.19-5.82,21.19-10.38,32.82-13.5,11.82-3.17,23.82-4.73,35.74-4.73ZM1037.03,472.23c11.54,3.09,22.45,7.59,32.56,13.35l-113.32,21.9-15.01-25.99c18.89-9.27,39.34-13.99,60.03-13.99,11.92,0,23.92,1.57,35.74,4.73ZM927.14,1010.52c-13.38-8.62-24.79-19.25-34.07-31.25l46.88,9.06-12.81,22.19ZM365.95,640.3c-3.2-11.94-4.76-24.05-4.73-36.09l76.04,87.67-15.43,26.72c-27.53-18.48-47.23-45.96-55.89-78.3ZM342.47,558.18l-59.47-68.56,78.6,45.38c-5.57,8.49-11.98,16.25-19.12,23.18ZM375.86,543.23l110.42,63.75-40.55,70.24-82.61-95.24c2.26-13.35,6.52-26.39,12.74-38.75ZM1078.15,718.58l-15.66-27.12,76.29-87.95c.09,12.26-1.47,24.61-4.73,36.77-8.67,32.34-28.36,59.82-55.9,78.3ZM1134.05,859.7c3.06,11.44,4.62,23.04,4.72,34.57l-75.68-87.24,14.87-25.76c27.63,18.48,47.4,46.02,56.08,78.43ZM1158.24,941.14l61.38,70.76-81.22-46.89c5.75-8.77,12.41-16.76,19.84-23.87ZM1124.14,956.77l-110.62-63.87,41.12-71.21,82.46,95.07c-2.2,13.79-6.54,27.27-12.96,40.01ZM561.16,687.5l-2.55,7.38-1.54-2.66,4.09-4.71ZM548.61,677.55l-29.95-51.88,49.94,28.83-19.99,23.04ZM586.01,664.56l27.03,15.6-.61,1.06c-10.62,15.86-24.1,28.87-39.35,38.71l-3.88-6.72,16.81-48.66ZM652.2,582.54l5.19-1c2.9,2.21,5.89,4.32,8.94,6.32l-4.72,8.17h-10.22c-.22-3.79-.58-7.56-1.08-11.31l1.89-2.18ZM842.38,581.72l4.92.95,2.24,2.58c-.47,3.59-.81,7.19-1.02,10.79h-11.61l-4.31-7.46c3.36-2.16,6.62-4.45,9.79-6.85ZM930.98,654.72l48.15-27.8-28.88,50.02-19.27-22.22ZM941.79,691.6l-.96,1.66-1.59-4.6,2.55,2.94ZM930.24,711.6l-4.43,7.68c-15.38-10.15-28.6-23.37-38.92-39.1l27.09-15.64,16.26,47.06ZM658.47,917.63l-5.05-.98-2.86-3.3c.44-3.61.74-7.25.92-10.89h8.51l5.8,10.04c-2.49,1.64-4.93,3.35-7.31,5.13ZM558.46,754.18l-1.71-4.94,1.15-3.32c3.13-1.31,6.22-2.73,9.26-4.25l5.18,8.98-4.54,7.86c-3.06-1.54-6.17-2.99-9.35-4.33ZM764.4,886.46h-6.4v-122.6l106.55,61.52-.28.49c-22.1,33.18-58.24,56.23-99.87,60.59ZM860.07,668.17l3.91,6.77-105.98,61.19v-123.09c41.74,2.41,78.53,23.56,102.07,55.14ZM887.21,750c0,21.77-5.1,42.36-14.16,60.66l-.5.86-106.58-61.53,106-61.2,4.12,7.14c7.15,16.6,11.11,34.88,11.11,54.07ZM735.6,886.46c-41.83-4.38-78.13-27.64-100.2-61.08l106.6-61.54v122.63h-6.4ZM627.38,811.53c-9.33-18.52-14.59-39.42-14.59-61.53s5.27-43.03,14.6-61.55l106.59,61.54-106.6,61.54ZM742,736.14l-106.58-61.54c23.19-35.12,62.07-59.01,106.58-61.58v123.12ZM597.24,761.77l-6.42-11.12,6.32-10.95c-.23,3.41-.35,6.84-.35,10.3,0,3.96.15,7.89.45,11.77ZM663.35,876.28c5.43,3.74,11.12,7.15,17.02,10.17h-11.15l-5.87-10.17ZM903.03,742.57l4.67,8.08-4.75,8.22c.17-2.94.26-5.9.26-8.88,0-2.49-.06-4.97-.18-7.43ZM914.99,731.29c.93.63,1.86,1.26,2.8,1.87l-.86,1.49-1.94-3.36ZM816.59,612.03h11.07l5.33,9.24c-5.26-3.4-10.73-6.49-16.4-9.24ZM664.6,622.85l6.25-10.82h12.56c-6.54,3.17-12.82,6.79-18.8,10.82ZM581.58,734.65l-.5-.87c.53-.34,1.06-.66,1.58-1.01l-1.08,1.88ZM678.46,902.46h4.95c-1.29.62-2.56,1.27-3.83,1.93l-1.11-1.93ZM819.63,886.46c5.03-2.58,9.9-5.43,14.59-8.53l-4.93,8.53h-9.66ZM820.05,902.46l-.77,1.34c-.89-.45-1.79-.9-2.69-1.34h3.46ZM916.93,766.65l.35.61c-.38.25-.76.5-1.14.76l.79-1.36ZM926.17,750.65l5.48-9.49c3.42,1.74,6.92,3.36,10.48,4.85l1.12,3.23-1.75,5.07c-3.52,1.49-6.99,3.12-10.39,4.87l-4.93-8.54ZM846.14,612.03h2.27c.07,1.47.15,2.93.27,4.4l-2.54-4.4ZM680.09,596.03l.07-.11c.07.04.15.08.22.11h-.28ZM652.38,612.03l-.96,1.67c.03-.56.06-1.11.09-1.67h.87ZM573.68,780.34c13.25,8.66,24.91,19.59,34.52,32.43l4.26,7.38-26.02,15.02-16.63-48.13,3.87-6.7ZM560.76,809.83l-2.46-2.84.93-1.61,1.54,4.44ZM569.86,844.74l-50.05,28.9,30.02-51.99,20.03,23.09ZM577.65,858.72l9.58,27.74h-57.63l48.04-27.74ZM602.91,882.84l3.13,3.61h-1.89l-1.25-3.61ZM594.65,848.9l25.81-14.9,4.2,7.27c6.27,14.64,9.79,29.91,10.74,45.19h-8.17l-32.58-37.55ZM687.58,918.25c16.5-8.46,34.92-13.67,54.42-14.8v30.32l-51.17-9.89-3.25-5.63ZM708.85,943.66l-5.94,1.15-1.49-2.58,7.43,1.44ZM742,953.55v58.96l-30.62-53.04,30.62-5.92ZM758,953.16l29.49,5.7-29.49,51.07v-56.77ZM793.16,943.66l3.49-.68-.7,1.21-2.79-.54ZM758,934.16v-30.71c19.05,1.1,37.07,6.1,53.27,14.22l-4.02,6.97-49.24,9.52ZM845.45,917.26l-3.51.68c-2.86-2.15-5.79-4.2-8.79-6.15l5.39-9.33h9.99c.17,3.44.45,6.86.85,10.28l-3.92,4.52ZM847.76,886.46l.91-1.58c-.03.53-.07,1.05-.1,1.58h-.81ZM925.3,781.15l4.33,7.5-16.08,46.54-26.65-15.39c10.35-15.75,23.49-28.73,38.4-38.66ZM940.22,806.99l.35.6-.92,1.06.58-1.67ZM949.03,822.25l28.94,50.13-48.26-27.86,19.32-22.27ZM960.13,809.47l2.81-3.24,6.97,20.18-9.78-16.94ZM951.66,794.81l-4.52-7.83,4.57-13.23,5.19,15.02-5.24,6.04ZM964.94,763.05c5.72-1.58,11.54-2.8,17.42-3.63l-13.35,15.39-4.06-11.76ZM966,737.3c-.52-.14-1.03-.29-1.55-.44l4.73-13.69,15.41,17.76c-6.22-.79-12.43-1.99-18.59-3.64ZM951.71,724.75l-3.96-11.47,5.13-8.89,4.19,4.83-5.36,15.53ZM961.35,689.73l6.14-10.63-4.38,12.66-1.76-2.03ZM922.77,640.99l-10-28.96h60.16l-50.15,28.96ZM897.09,615.65l-3.13-3.61h1.89l1.25,3.61ZM906.19,650.56l-27.3,15.76c-8.62-17.11-13.48-35.54-14.46-54.29h8.34l33.42,38.53ZM810.68,582.62c-14.22,7.04-29.82,11.69-46.28,13.42h-6.4v-30.62l48.11,9.3,4.57,7.91ZM791.59,555.6l3.15-.61.79,1.37-3.94-.76ZM758,545.8v-54.43l28.27,48.96-28.27,5.46ZM742,546.02l-29.72-5.74,29.72-51.48v57.22ZM707.27,555.6l-4.32.84.87-1.5,3.46.67ZM742,565.19v30.85h-6.4c-16.91-1.77-32.91-6.63-47.43-13.99l4.19-7.26,49.64-9.59ZM635.49,612.03c-.93,18.06-5.45,36.15-13.84,53.22l-.61,1.05-27.65-15.96,33.23-38.31h8.87ZM603.32,614.48l.84-2.45h1.28l-2.12,2.45ZM577.22,641.01l-50.19-28.98h60.2l-10.01,28.98ZM537.52,690.34l-.8.92-1.99-5.75,2.78,4.82ZM545.98,705l5.71,9.9-3.41,9.86-5.54-16.03,3.23-3.72ZM535.53,736.83c-6.8,1.91-13.74,3.3-20.76,4.15l15.87-18.3,4.89,14.15ZM534,762.65c.36.1.73.21,1.09.31l-4.27,12.36-13.98-16.12c5.74.79,11.47,1.93,17.16,3.45ZM548.29,773.74l4.01,11.62-5.1,8.84-4.28-4.93,5.36-15.53ZM538.74,808.86l-6.43,11.14,4.58-13.27,1.85,2.13ZM592.76,902.46l.91,2.65-13.69-2.65h12.78ZM609.69,902.46h10.24l8.04,9.27-16.16-3.12-2.13-6.15ZM631.47,928.7c-1.62,6.41-3.69,12.69-6.21,18.81l-7.41-21.44,13.62,2.63ZM654.35,942.15l8.95,10.32-21.93,4.24c3.98-5.15,8.32-10.02,12.98-14.56ZM670.4,936.23l10.22,1.98,5.67,9.81-4.85.94-11.04-12.73ZM694.75,962.68l2.81,4.86-4.01-4.63,1.21-.23ZM804.11,962.07l2.11.41-7.02,8.09,4.91-8.5ZM812.57,947.41l4.88-8.45,11.01-2.13-10.14,11.69-5.75-1.11ZM845.32,941.82c4.65,4.5,8.98,9.31,12.96,14.42l-21.82-4.22,8.85-10.21ZM864.6,886.46c1.12-17.94,5.79-35.89,14.29-52.8l26.03,15.03-32.76,37.77h-7.56ZM897.49,881.68l-1.65,4.78h-2.49l4.15-4.78ZM922.34,858.74l48.01,27.72h-57.59l9.58-27.72ZM975.04,792.27l21.39-24.66v86.57l-21.39-61.91ZM975.21,705.72l21.22-61.41v85.87l-21.22-24.46ZM907.24,596.03l-.66-1.91,9.87,1.91h-9.21ZM890.31,596.03h-10.24l-7.33-8.45,15.69,3.03,1.87,5.41ZM868.66,570.5c.11-.42.21-.83.32-1.25,1.62-6.04,3.63-11.91,6-17.59l7.43,21.49-13.75-2.66ZM846.36,557.16l-9.02-10.4,21.88-4.23c-3.94,5.18-8.24,10.07-12.86,14.63ZM830.32,563.09l-14-2.71-4.97-8.6,7.84-1.52,11.12,12.82ZM802.89,537.12l-9.76-16.91,13.96,16.1-4.2.81ZM695.66,537.06l-3.43-.66,11.41-13.16-7.98,13.82ZM687.19,551.72l-5.04,8.74-12.97,2.51,10.94-12.61,7.08,1.37ZM653.31,556.84c-4.42-4.39-8.54-9.09-12.33-14.05l21,4.06-8.67,9.99ZM631.22,570.3l-13.54,2.62,7.3-21.14c2.52,6.02,4.6,12.21,6.24,18.52ZM626.75,587.46l-7.43,8.57h-9.63l1.95-5.65,15.11-2.92ZM592.76,596.03h-10.35l11.09-2.14-.74,2.14ZM524.61,705.21l-19.56,22.55v-79.15l19.56,56.6ZM524.79,792.77l-19.73,57.11v-79.85l19.73,22.75ZM599.71,922.57l10.22,29.59-71.9-41.51,61.67,11.92ZM675.41,966.42l40.9,47.15-71.44-41.25,30.54-5.9ZM824.36,965.99l32.39,6.26-75.77,43.75,43.38-50.01ZM868.62,929.07l13.38-2.59-7.27,21.04c-2.47-6-4.51-12.17-6.11-18.45ZM870.89,912.34l8.57-9.88h10.84l-2.27,6.57-17.15,3.31ZM907.24,902.46h14.78l-15.84,3.06,1.06-3.06ZM1012.43,773.04l31.11,35.86-31.11,53.88v-89.74ZM1012.43,636.75l30.5,52.83-30.5,35.16v-88ZM900.54,576.66l-10.41-30.13,73.21,42.27-62.8-12.14ZM825.23,532.81l-41.26-47.57,72.07,41.61-30.81,5.96ZM674.09,532.89l-29.3-5.66,68.53-39.57-39.23,45.23ZM599.54,576.43l-60.07,11.61,70.03-40.43-9.96,28.82ZM489.05,727.16l-32.23-37.16,32.23-55.83v92.99ZM489.05,865.21l-32.79-56.79,32.79-37.8v94.59ZM599.74,964.75l-47.88,9.25-31.95-55.35,79.83,46.09ZM717.01,1032.45h-62.4l-15.55-45.01,77.95,45.01ZM860.57,988.52l-15.18,43.93h-60.91l76.09-43.93ZM900.15,922.98l63.04-12.18-73.49,42.43,10.45-30.25ZM1052,794.24l-30.11-34.71c14.42,2.15,28.69,6.64,42.28,13.63l-12.17,21.08ZM1051.4,704.24l12.98,22.48c-14.17,7.33-29.27,12.06-44.73,14.12l31.75-36.6ZM1138.41,534.97l77.42-44.7-58.58,67.54c-6.97-6.79-13.3-14.42-18.83-22.84ZM1124.14,543.2c6.14,12.18,10.37,25.03,12.65,38.18l-82.76,95.41-35.2-60.98,1.94.38-6.93-9.31,110.3-63.68ZM901.16,534.43l46.95-9.07,31.34,54.28-78.29-45.2ZM784.4,467.01h61.33l15.28,44.23-76.62-44.23ZM638.62,512.32l15.65-45.31h62.82l-78.47,45.31ZM519.81,580.91l31.96-55.36,47.9,9.26-79.86,46.11ZM448.36,704.67l31.25,36.02c-15-2.06-29.87-6.65-43.99-13.94l12.75-22.08ZM447.8,793.76l-11.92-20.65c13.23-6.8,27.25-11.35,41.62-13.58l-29.69,34.23ZM436.71,806.55l-75.39,86.91c.63-43.89,22.27-86.47,60.76-112.24l14.62,25.33ZM445.18,821.21l41.36,71.64-110.67,63.9c-6.58-13.09-10.87-26.81-12.99-40.66l82.3-94.88ZM361.59,964.98l-82.4,47.57,62.24-71.75c7.56,7.19,14.32,15.28,20.16,24.18ZM369.59,978.84c4.6,9.13,8.12,18.62,10.56,28.35l-89.68,17.33,79.12-45.68ZM383.86,970.6l110.67-63.9,40.71,70.51-123.91,23.95c-10.43-8.56-19.73-18.78-27.47-30.56ZM543.71,991.87l15.28,26.46c-42.17,20.75-90.65,17.83-129.25-4.43l113.97-22.03ZM560.33,988.66l46.23-8.93c-9.2,11.79-20.46,22.23-33.64,30.73l-12.59-21.8ZM622.72,989.17l14.95,43.27h-24.65c.88-15.22,4.24-29.77,9.7-43.27ZM643.2,1048.45l38.29,110.83c-38.86-22.48-65.73-63.47-68.47-110.83h30.18ZM660.13,1048.45h81.87v128.95c-14.09-.81-27.62-3.76-40.26-8.53l-41.61-120.42ZM742,1193.88v91.51l-29.87-86.44c9.57-2.75,19.57-4.48,29.87-5.08ZM758,1193.88c10.3.59,20.29,2.33,29.87,5.08l-29.87,86.44v-91.51ZM758,1177.4v-128.95h81.87l-41.61,120.42c-12.64,4.77-26.17,7.72-40.26,8.53ZM856.79,1048.45h30.18c-2.74,47.36-29.61,88.35-68.47,110.83l38.29-110.83ZM862.32,1032.45l14.95-43.27c5.46,13.5,8.82,28.06,9.7,43.27h-24.65ZM901.87,964.67l77.6-44.8-31.06,53.8-46.54-8.99ZM1005.52,906.76l110.62,63.87c-7.54,11.49-16.63,21.65-26.98,30.24l-124.12-23.99,40.48-70.12ZM1130.41,978.87l78.05,45.06-88.47-17.1c2.4-9.51,5.86-18.89,10.43-27.96ZM1205.57,971.28l-35.14-40.51c2.72-2.05,5.52-3.99,8.38-5.83l26.76,46.34ZM1192.77,917.11c7.85-3.82,16.12-6.92,24.74-9.23,9.97-2.67,20.06-4.19,30.13-4.6v108.87l-54.87-95.04ZM1159.92,918.65l-6-6.92c1.05-9.73,1.15-19.56.3-29.4l16.59,28.73c-3.74,2.37-7.38,4.9-10.89,7.58ZM1085.98,767.39l.94-1.62,2.14,3.71c-1.02-.7-2.04-1.4-3.08-2.08ZM1072.19,759.28c-7.1-3.7-14.38-6.79-21.77-9.28,7.49-2.54,14.83-5.69,21.96-9.42l5.3,9.18-5.49,9.52ZM1086.17,732.46c.83-.55,1.65-1.1,2.47-1.66l-1.71,2.97-.75-1.31ZM1153.69,586.32l5.16-5.95c3.82,2.97,7.77,5.75,11.83,8.33l-16.41,28.43c.86-10.31.66-20.62-.57-30.81ZM1169.34,568.28l39.25-45.25-29.92,51.82c-3.19-2.05-6.3-4.25-9.33-6.57ZM1130.41,521.11c-4.72-9.38-8.26-19.09-10.66-28.93l91.35-17.66-80.69,46.59ZM1116.14,529.35l-110.43,63.76-40.97-70.97,123.43-23.86c10.76,8.77,20.2,19.21,27.98,31.07ZM939.65,510.69l-45.75,8.84c9.29-11.73,20.53-21.93,33.42-30.19l12.33,21.35ZM877.56,510.13l-14.9-43.12h24.35c-.81,15.15-4.09,29.66-9.45,43.12ZM857.13,451.01l-37.97-109.9c38.36,22.48,64.88,63.04,67.78,109.9h-29.81ZM840.2,451.01h-82.2v-128.41c14.31.83,28.04,3.86,40.86,8.76l41.34,119.65ZM758,306.12v-93.02l30.34,87.8c-9.71,2.83-19.87,4.61-30.34,5.22ZM742,306.12c-10.47-.6-20.62-2.39-30.34-5.22l30.34-87.8v93.02ZM742,322.6v128.41h-82.2l41.34-119.65c12.82-4.9,26.55-7.93,40.86-8.76ZM642.87,451.01h-29.81c2.9-46.86,29.42-87.43,67.78-109.9l-37.97,109.9ZM637.34,467.01l-14.9,43.12c-5.36-13.46-8.64-27.97-9.45-43.12h24.35ZM560.23,510.89l12.43-21.53c13.11,8.41,24.33,18.74,33.52,30.41l-45.95-8.88ZM535.15,522.34l-40.87,70.79-110.42-63.75c7.73-11.79,17.1-22.17,27.78-30.91l123.5,23.87ZM369.59,521.13l-80.18-46.29,90.8,17.55c-2.4,9.78-5.93,19.42-10.62,28.74ZM330.36,568.63c-2.89,2.21-5.86,4.29-8.92,6.26l-28.56-49.47,37.48,43.21ZM340.86,580.74l5.38,6.2c-1.16,9.93-1.34,19.97-.52,30.01l-16.28-28.19c3.93-2.5,7.74-5.18,11.41-8.03ZM413.82,732.48l-.7,1.22-1.59-2.75c.76.52,1.52,1.03,2.29,1.54ZM427.61,740.6c7.14,3.73,14.46,6.86,21.89,9.37-7.38,2.51-14.61,5.6-21.63,9.26l-5.5-9.53,5.25-9.09ZM414.07,767.34c-1.05.69-2.09,1.39-3.11,2.11l2.16-3.75.95,1.64ZM346.1,911.01l-6.38,7.35c-3.4-2.58-6.91-5.02-10.52-7.31l16.69-28.91c-.83,9.56-.77,19.22.21,28.86ZM329.21,930.48l-33.57,38.7,25.55-44.26c2.74,1.76,5.41,3.61,8.02,5.56ZM252.44,1012v-108.74c10.04.42,20.1,1.94,30.04,4.6,8.62,2.31,16.9,5.41,24.75,9.23l-54.8,94.91ZM333.77,1032.45l49.36-9.54c.41,3.17.71,6.35.89,9.54h-50.25ZM567,1032.21l.14.23h-.59c.15-.08.3-.16.46-.23ZM580.92,1024.32c6.74-4.3,13.04-9.05,18.88-14.19-1.46,7.27-2.42,14.72-2.81,22.32h-11.39l-4.69-8.12ZM597,1048.45c.07,1.41.17,2.81.28,4.21l-2.43-4.21h2.15ZM688.99,1180.95l2.83,8.18c-4.23,1.74-8.38,3.67-12.41,5.78l-16.43-28.46c8.14,5.64,16.84,10.51,26.01,14.5ZM697.04,1204.27l18.23,52.77-27.87-48.27c3.14-1.62,6.36-3.12,9.64-4.49ZM728.69,1312.28l-94.68-54.66c10.24-16.16,23.76-30.04,39.62-40.71l55.06,95.37ZM784.6,1257.4l18.36-53.13c3.3,1.39,6.54,2.9,9.7,4.53l-28.06,48.6ZM826.43,1216.95c15.84,10.67,29.35,24.55,39.58,40.7l-94.62,54.63,55.04-95.33ZM808.19,1189.13l2.83-8.18c9.22-4.02,17.98-8.92,26.15-14.6l-16.51,28.59c-4.06-2.12-8.22-4.06-12.47-5.81ZM903,1048.45h2.24l-2.53,4.38c.12-1.46.22-2.92.29-4.38ZM903.01,1032.45c-.39-7.59-1.34-15.03-2.8-22.29,5.85,5.15,12.17,9.91,18.93,14.22l-4.66,8.07h-11.47ZM933.05,1032.27c.12.06.23.12.34.18h-.45l.1-.18ZM1116.99,1022.54l51.24,9.9h-52.16c.19-3.3.49-6.61.92-9.9ZM1228.36,1048.45l-96.72,55.84c-9.06-17.3-14.36-36.37-15.53-55.84h112.26ZM1213.38,892.43c-9.99,2.68-19.56,6.3-28.62,10.78l-88.59-153.45,88.45-153.2c19.61,9.75,41.13,15.25,63.04,16.05v274.64c-11.45.42-22.93,2.14-34.27,5.17ZM1192.61,582.7l55.03-95.31v109.23c-19.1-.78-37.87-5.53-55.03-13.92ZM1165.64,467.01l-48.78,9.43c-.39-3.14-.66-6.28-.82-9.43h49.6ZM1116.13,451.01c1.23-19.28,6.51-38.14,15.47-55.27l95.73,55.27h-111.21ZM933.25,467.6l-.34-.59h1.53c-.4.19-.79.39-1.19.59ZM919.32,475.47c-6.78,4.3-13.16,9.07-19.1,14.28,1.48-7.4,2.44-15,2.81-22.74h11.4l4.89,8.46ZM902.97,451.01c-.08-1.47-.19-2.93-.31-4.39l2.54,4.39h-2.23ZM811.63,319.32l-2.98-8.63c4.17-1.73,8.25-3.65,12.22-5.73l16.75,29.01c-8.12-5.68-16.82-10.6-25.99-14.64ZM803.41,295.54l-17.92-51.85,27.37,47.4c-3.09,1.6-6.24,3.08-9.45,4.45ZM771.84,188.03l94.15,54.36c-10.18,16.07-23.61,29.9-39.36,40.54l-54.79-94.9ZM714.5,243.69l-17.92,51.85c-3.22-1.36-6.37-2.85-9.45-4.45l27.37-47.4ZM673.38,282.92c-15.74-10.63-29.16-24.45-39.34-40.5l94.08-54.32-54.75,94.82ZM691.35,310.69l-2.98,8.63c-9.17,4.04-17.86,8.96-25.99,14.64l16.75-29.01c3.98,2.08,8.05,4,12.22,5.73ZM597.03,451.01h-2.23l2.54-4.39c-.12,1.46-.23,2.92-.31,4.39ZM596.97,467.01c.37,7.77,1.33,15.4,2.82,22.83-5.91-5.2-12.29-10-19.13-14.34l4.9-8.48h11.4ZM566.74,467.62c-.41-.2-.82-.41-1.23-.61h1.58l-.35.61ZM383.11,476.66l-49.89-9.64h50.74c-.17,3.22-.45,6.43-.85,9.64ZM272.74,451.01l95.66-55.23c8.96,17.12,14.23,35.97,15.46,55.23h-111.12ZM252.44,487.38l55.06,95.37c-7.93,3.88-16.3,7.02-25.02,9.36-9.94,2.66-20.01,4.19-30.04,4.61v-109.34ZM286.62,607.57c10.09-2.7,19.75-6.37,28.9-10.92l88.36,153.05-88.63,153.5c-9.07-4.49-18.64-8.11-28.63-10.79-11.31-3.03-22.76-4.74-34.18-5.17v-274.5c11.42-.43,22.88-2.14,34.18-5.17ZM382.32,1112.3c5.35-10.12,9.61-20.92,12.64-32.25,2.8-10.46,4.47-21.04,5.05-31.61h176.36l89.25,154.58c-18.27,12.1-33.8,28.01-45.47,46.58l-237.83-137.31ZM887.21,1330.85c0,75.66-61.55,137.21-137.21,137.21s-137.21-61.55-137.21-137.21c0-21.2,4.84-41.3,13.46-59.24l123.79,71.47,123.73-71.43c8.61,17.93,13.44,38.01,13.44,59.2ZM879.87,1249.65c-11.65-18.57-27.17-34.47-45.43-46.58l89.27-154.62h75.02c.85.01,1.69.04,2.54.04s1.68-.03,2.52-.04h96.29c1.2,22.28,7.25,44.11,17.7,63.84l-237.91,137.36ZM1321.64,921.6c65.52,37.83,88.05,121.91,50.22,187.44s-121.91,88.05-187.44,50.22c-18.35-10.59-33.32-24.82-44.55-41.24l123.77-71.46v-142.98c20.19,1.55,39.94,7.6,57.99,18.03ZM1184.42,340.72c21.14-12.21,44.61-18.44,68.38-18.44,11.92,0,23.92,1.57,35.74,4.73,35.4,9.49,64.99,32.19,83.32,63.93,18.33,31.74,23.19,68.72,13.71,104.12s-32.19,64.99-63.93,83.32c-18.35,10.59-38.16,16.45-57.99,17.96v-142.84l-123.81-71.48c11.23-16.45,26.22-30.69,44.59-41.29ZM1117.66,387.69c-5.34,10.11-9.59,20.89-12.62,32.21-2.76,10.3-4.42,20.71-5.02,31.12h-176.34l-89.04-154.21c18.16-12.08,33.6-27.92,45.21-46.41l237.82,137.3ZM612.79,169.15c0-75.66,61.55-137.21,137.21-137.21s137.21,61.55,137.21,137.21c0,21.2-4.84,41.3-13.46,59.24l-123.71-71.42-123.78,71.46c-8.64-17.95-13.48-38.06-13.48-59.28ZM620.18,250.42c11.61,18.47,27.04,34.31,45.19,46.38l-89.04,154.21h-176.44c-1.27-22.07-7.29-43.67-17.62-63.23l237.91-137.36ZM178.36,578.4c-65.52-37.83-88.05-121.91-50.22-187.44,18.33-31.74,47.91-54.44,83.32-63.93,11.82-3.17,23.82-4.73,35.74-4.73,23.78,0,47.24,6.24,68.38,18.44,18.38,10.61,33.37,24.86,44.6,41.31l-123.73,71.44v142.95c-20.22-1.54-40-7.61-58.08-18.04Z"/></svg>
