<?xml version="1.0" encoding="UTF-8"?><svg id="Layer_2" xmlns="http://www.w3.org/2000/svg" xmlns:xlink="http://www.w3.org/1999/xlink" viewBox="0 0 1500 1500"><defs><style>.cls-1{fill:url(#New_Gradient_Swatch_2);stroke-width:0px;}</style><linearGradient id="New_Gradient_Swatch_2" x1="120.15" y1="1113.38" x2="1379.85" y2="386.09" gradientUnits="userSpaceOnUse"><stop offset="0" stop-color="#56450d"/><stop offset=".21" stop-color="#e5c787"/><stop offset=".39" stop-color="#f7d976"/><stop offset=".99" stop-color="#725728"/></linearGradient></defs><path class="cls-1" d="M1264.15,235.59c-66.77-66.77-144.53-119.2-231.12-155.82-86.53-36.6-178.25-55.78-272.79-57.07-3.34-.13-6.69-.22-10.05-.22s-6.44.08-9.65.2c-94.82,1.2-186.81,20.38-273.58,57.08-86.59,36.62-164.35,89.05-231.12,155.82s-119.2,144.53-155.82,231.12c-37.92,89.65-57.14,184.87-57.14,283.03s19.23,193.38,57.14,283.03c11.5,27.18,24.55,53.49,39.12,78.86,0,0,0,.01.01.02,31.83,55.45,70.89,106.43,116.7,152.24,66.77,66.77,144.53,119.2,231.12,155.82,85.98,36.36,177.08,55.53,270.99,57.03,3.99.19,8,.29,12.02.29s8-.1,11.98-.29c93.93-1.5,185.07-20.66,271.08-57.04,86.59-36.62,164.35-89.05,231.12-155.82,66.77-66.78,119.2-144.54,155.82-231.12,37.92-89.65,57.14-184.87,57.14-283.03s-19.23-193.38-57.14-283.03c-36.62-86.59-89.05-164.35-155.82-231.12ZM981.78,1229.23c0,36.67-8.46,72.03-24.45,103.87-16.08-32.07-24.53-67.7-24.53-103.87s8.01-70.08,23.16-101.23c.51-.75,1.01-1.5,1.5-2.26.07.11.14.22.21.32,15.76,31.66,24.1,66.77,24.1,103.17ZM749.67,47.11c15.85,31.89,24.18,67.27,24.18,103.17s-8.3,71.3-23.97,102.89c-15.81-31.7-24.17-66.86-24.17-103.31s8.26-70.97,23.97-102.74ZM943.11,159.17c-19.38,28.97-45.15,53.37-75.24,71.12-31.5,18.58-67.07,29.37-103.64,31.57,8.46-12.7,18.25-24.65,29.28-35.68,40.45-40.45,93.21-64.09,149.83-67.46-.08.15-.15.3-.23.45ZM925.49,1294.36c-15-15.05-31.92-28.2-50.35-39-19.54-11.46-40.54-20.11-62.35-25.81,42.09-10.89,80.7-32.79,112.31-64.26-5.47,20.61-8.3,42.05-8.3,63.94s2.95,44.01,8.69,65.13ZM957.42,406.28c.22.33.43.67.65,1.01,15.64,31.56,23.92,66.54,23.92,102.8s-8.28,71.23-23.92,102.79c-.22.33-.43.67-.66,1.01-.33-.5-.65-1.01-.99-1.51-15.48-31.43-23.67-66.23-23.67-102.29s8.19-70.86,23.67-102.29c.34-.5.66-1.01.99-1.51ZM925.26,1054.08s-.04-.04-.07-.07c-31.47-31.47-69.92-53.42-111.85-64.43,41.96-10.98,80.43-32.9,111.93-64.35-5.55,20.76-8.43,42.38-8.43,64.44s2.88,43.66,8.42,64.4ZM989.59,685.55c31.58,31.49,70.15,53.41,112.21,64.34-42.07,10.95-80.66,32.9-112.23,64.43,5.55-20.76,8.43-42.38,8.43-64.44s-2.87-43.6-8.4-64.32ZM981.99,749.88c0,36.26-8.28,71.23-23.92,102.79-.21.31-.41.63-.61.94-.32-.48-.63-.97-.95-1.45-15.48-31.43-23.67-66.23-23.67-102.29s8.28-71.23,23.92-102.79c.21-.31.41-.63.61-.94.32.48.63.97.95,1.45,15.48,31.43,23.67,66.23,23.67,102.29ZM943.06,861.08c-56.52-3.43-109.17-27.06-149.55-67.44-10.93-10.93-20.64-22.76-29.04-35.32,56.58,3.39,109.31,27.03,149.73,67.45,10.68,10.68,20.18,22.22,28.45,34.46.14.28.28.57.42.86ZM773.84,629.74c0,36.41-8.35,71.53-24.12,103.19-15.77-31.66-24.12-66.78-24.12-103.19s8.35-71.53,24.12-103.19c15.77,31.66,24.12,66.78,24.12,103.19ZM574.98,685.3c31.62,31.62,70.29,53.63,112.47,64.59-42.14,10.97-80.78,32.97-112.38,64.57-.35.35-.68.7-1.02,1.05,5.76-21.12,8.74-43.14,8.74-65.63s-2.97-44.42-8.71-65.5c.3.31.6.62.9.93ZM556.95,638.22c56.34,3.53,108.82,27.14,149.08,67.41,11.06,11.06,20.86,23.04,29.34,35.77-56.34-3.53-108.81-27.14-149.08-67.41-11.06-11.06-20.86-23.04-29.34-35.77ZM734.95,758.39c-8.4,12.54-18.09,24.34-29,35.25-40.15,40.15-92.43,63.74-148.57,67.38,8.4-12.54,18.09-24.34,29-35.25,40.15-40.15,92.43-63.74,148.57-67.38ZM717.26,804.96c.42-.42.82-.85,1.24-1.27-5.8,21.19-8.8,43.29-8.8,65.85s2.99,44.57,8.77,65.72c-.38-.38-.74-.77-1.12-1.15-31.62-31.62-70.29-53.63-112.47-64.59,42.14-10.97,80.78-32.97,112.38-64.57ZM718.35,695.34c-.34-.34-.66-.69-1-1.02-31.55-31.55-70.1-53.52-112.15-64.51,42.05-10.99,80.61-32.96,112.15-64.51.32-.32.63-.65.95-.97-5.72,21.05-8.69,43-8.69,65.41s2.98,44.49,8.74,65.6ZM706.04,553.98c-40.21,40.21-92.6,63.81-148.85,67.4,8.42-12.6,18.15-24.45,29.1-35.41,40.21-40.21,92.6-63.81,148.85-67.4-8.42,12.6-18.15,24.46-29.1,35.41ZM542.59,646.53c15.82,31.71,24.19,66.88,24.19,103.35s-8.37,71.65-24.19,103.35c-15.82-31.71-24.19-66.88-24.19-103.35s8.37-71.65,24.19-103.35ZM706.04,945.43c11.06,11.06,20.86,23.04,29.34,35.77-56.34-3.53-108.81-27.14-149.08-67.41-11.06-11.06-20.86-23.04-29.33-35.77,56.34,3.53,108.81,27.14,149.08,67.41ZM749.81,972.73c-15.77-31.66-24.11-66.78-24.11-103.19s8.35-71.53,24.11-103.19c15.77,31.66,24.11,66.78,24.11,103.19s-8.35,71.53-24.11,103.19ZM925.24,814.2c-31.58-31.49-70.15-53.41-112.2-64.33,42.07-10.95,80.66-32.9,112.23-64.43-5.55,20.76-8.43,42.38-8.43,64.44s2.87,43.6,8.4,64.32ZM914.1,673.98c-40.46,40.46-93.24,64.1-149.88,67.46,8.48-12.75,18.29-24.74,29.37-35.82,40.42-40.42,93.14-64.06,149.72-67.45-.15.3-.31.61-.46.91-8.34,12.4-17.94,24.09-28.75,34.9ZM782.28,694.31c-.42.42-.82.85-1.24,1.27,5.8-21.19,8.8-43.29,8.8-65.85s-2.97-44.44-8.72-65.53c.36.36.71.73,1.07,1.09,31.56,31.56,70.13,53.54,112.2,64.52-42.03,10.99-80.58,32.96-112.11,64.5ZM574.98,574.66c-.35.35-.68.7-1.02,1.05,5.76-21.12,8.74-43.14,8.74-65.63s-2.98-44.51-8.74-65.63c.34.35.68.7,1.02,1.05,31.61,31.61,70.27,53.62,112.42,64.58-42.15,10.96-80.81,32.97-112.42,64.58ZM511.11,815.38c-.3-.31-.6-.62-.9-.93-31.62-31.62-70.29-53.63-112.47-64.59,42.14-10.97,80.78-32.97,112.38-64.57.35-.35.68-.7,1.02-1.05-5.76,21.12-8.74,43.14-8.74,65.63s2.97,44.42,8.71,65.5ZM574.98,925.1c31.47,31.47,69.92,53.42,111.85,64.43-42.02,10.99-80.55,32.96-112.07,64.49-.18.18-.34.36-.52.53,5.63-20.89,8.54-42.65,8.54-64.87s-2.97-44.42-8.71-65.5c.3.31.6.62.9.93ZM781.19,803.93c.34.34.66.69,1,1.02,31.62,31.62,70.29,53.63,112.47,64.59-42.14,10.97-80.78,32.97-112.38,64.57-.38.38-.74.77-1.12,1.15,5.78-21.15,8.77-43.21,8.77-65.72s-2.98-44.49-8.74-65.6ZM943.04,621.42c-56.51-3.43-109.16-27.06-149.53-67.44-10.97-10.97-20.71-22.85-29.14-35.47,56.58,3.39,109.31,27.03,149.74,67.45,10.68,10.68,20.18,22.22,28.45,34.46.16.33.32.66.49.99ZM586.29,434.19c-11.06-11.06-20.86-23.04-29.33-35.76,56.3,3.55,108.75,27.16,148.99,67.41,11.06,11.06,20.86,23.04,29.33,35.76-56.3-3.55-108.75-27.16-148.99-67.41ZM542.55,406.82c15.79,31.68,24.15,66.83,24.15,103.26s-8.36,71.58-24.15,103.26c-15.79-31.68-24.15-66.83-24.15-103.26s8.36-71.58,24.15-103.26ZM498.8,673.98c-40.47,40.47-93.28,64.12-149.95,67.47,8.49-12.75,18.3-24.75,29.37-35.82,40.47-40.48,93.28-64.12,149.95-67.47-8.49,12.75-18.3,24.75-29.37,35.82ZM498.89,825.77c10.93,10.93,20.64,22.76,29.05,35.33-56.61-3.38-109.36-27.02-149.8-67.46-10.93-10.93-20.64-22.76-29.05-35.33,56.61,3.38,109.36,27.02,149.8,67.46ZM542.63,886.41c15.79,31.68,24.15,66.83,24.15,103.26s-8.36,71.58-24.15,103.26c-15.79-31.68-24.15-66.83-24.15-103.26s8.36-71.58,24.15-103.26ZM586.07,1065.33c40.28-40.28,92.78-63.9,149.15-67.42-8.44,12.64-18.19,24.54-29.18,35.53-40.28,40.28-92.79,63.9-149.15,67.42,8.44-12.64,18.19-24.54,29.18-35.53ZM914.1,913.78c-40.46,40.46-93.24,64.1-149.88,67.46,8.48-12.74,18.29-24.74,29.37-35.82,40.42-40.42,93.14-64.06,149.72-67.45-.15.3-.3.61-.46.91-8.34,12.4-17.94,24.09-28.75,34.9ZM971.61,877.97c56.61,3.38,109.36,27.02,149.79,67.46,11.08,11.08,20.89,23.08,29.37,35.83-56.7-3.32-109.55-26.97-150.04-67.47-10.68-10.68-20.18-22.22-28.45-34.46-.22-.45-.44-.9-.67-1.35ZM971.98,860.67c8.34-12.4,17.94-24.09,28.75-34.9,40.4-40.4,93.08-64.03,149.62-67.45-8.41,12.56-18.11,24.39-29.04,35.32-40.38,40.38-93.03,64.01-149.54,67.44.07-.14.13-.28.2-.42ZM1000.65,673.98c-10.68-10.68-20.18-22.22-28.45-34.46-.23-.45-.45-.91-.68-1.36,56.64,3.36,109.43,27,149.88,67.46,11.08,11.08,20.89,23.08,29.38,35.83-56.74-3.3-109.62-26.96-150.14-67.48ZM971.98,620.87c8.34-12.4,17.94-24.09,28.75-34.9,40.42-40.42,93.14-64.06,149.72-67.45-8.43,12.61-18.17,24.49-29.14,35.46-40.39,40.39-93.07,64.03-149.61,67.44.09-.19.18-.37.28-.56ZM989.56,574.52c5.55-20.76,8.43-42.38,8.43-64.44s-2.88-43.68-8.43-64.44c31.59,31.54,70.19,53.49,112.28,64.44-42.09,10.95-80.69,32.9-112.28,64.44ZM925.16,574.4c-31.56-31.47-70.12-53.39-112.16-64.32,42.04-10.93,80.6-32.85,112.16-64.32-5.53,20.72-8.4,42.3-8.4,64.32s2.87,43.6,8.4,64.32ZM717.26,454.52c-31.55-31.55-70.1-53.52-112.16-64.51,42.05-10.99,80.61-32.96,112.16-64.51.38-.38.74-.77,1.12-1.15-5.78,21.15-8.77,43.21-8.77,65.72s2.97,44.44,8.72,65.53c-.36-.36-.71-.73-1.07-1.09ZM511.11,575.58c-.3-.31-.6-.62-.9-.93-31.61-31.61-70.27-53.61-112.42-64.58,42.15-10.96,80.81-32.97,112.42-64.58.31-.31.6-.62.9-.93-5.74,21.08-8.71,43.07-8.71,65.51s2.97,44.42,8.71,65.5ZM528.03,621.44c-56.61-3.37-109.37-27.02-149.81-67.46-10.97-10.97-20.71-22.85-29.14-35.47,56.61,3.37,109.37,27.02,149.81,67.46,10.97,10.97,20.71,22.85,29.14,35.47ZM366.91,565.3c31.55,31.55,70.1,53.52,112.16,64.51-42.05,10.99-80.61,32.96-112.16,64.51-.28.28-.54.56-.82.84,5.8-21.19,8.8-43.28,8.8-65.84s-2.88-43.72-8.45-64.49c.16.16.31.32.47.48ZM366.82,804.96c31.62,31.62,70.29,53.63,112.47,64.59-42.14,10.97-80.78,32.97-112.38,64.57-.24.24-.47.48-.7.72,5.78-21.15,8.77-43.2,8.77-65.72s-2.88-43.68-8.43-64.44c.09.09.19.19.28.29ZM528.26,877.96c-8.49,12.75-18.3,24.75-29.37,35.83-40.5,40.5-93.34,64.15-150.04,67.47,8.49-12.75,18.3-24.75,29.37-35.83,40.5-40.5,93.34-64.15,150.04-67.47ZM510.2,925.1c.35-.35.68-.7,1.02-1.05-5.76,21.12-8.74,43.14-8.74,65.63s2.98,44.51,8.74,65.63c-.34-.35-.68-.7-1.02-1.05-31.61-31.61-70.27-53.62-112.42-64.58,42.15-10.96,80.81-32.97,112.42-64.58ZM717.35,1044.76c.38-.38.74-.77,1.12-1.15-5.78,21.15-8.77,43.21-8.77,65.73s3,44.66,8.8,65.85c-.41-.42-.82-.85-1.24-1.27-31.6-31.6-70.24-53.6-112.38-64.57,42.17-10.96,80.84-32.97,112.47-64.59ZM749.81,1212.52c-15.77-31.66-24.11-66.78-24.11-103.19s8.35-71.53,24.11-103.19c15.77,31.66,24.11,66.78,24.11,103.19s-8.35,71.53-24.11,103.19ZM913.88,1065.33c10.95,10.95,20.68,22.81,29.1,35.41.02.05.05.1.07.14-56.48-3.45-109.1-27.08-149.46-67.44-11-11-20.75-22.9-29.19-35.55,56.49,3.44,109.12,27.07,149.49,67.44ZM957.29,1093.37c-.11-.17-.23-.35-.34-.52-15.76-31.66-24.11-66.77-24.11-103.17s8.28-71.23,23.92-102.79c.22-.33.43-.67.66-1.01.33.5.65,1.01.99,1.52,15.48,31.43,23.67,66.22,23.67,102.29s-8.01,70.08-23.16,101.23c-.55.82-1.09,1.64-1.64,2.46ZM989.68,925.35c31.44,31.35,69.83,53.22,111.68,64.2-41.81,10.95-80.15,32.78-111.58,64.07,5.47-20.61,8.3-42.05,8.3-63.94s-2.87-43.6-8.4-64.32ZM1132.72,934.11c-31.62-31.62-70.29-53.63-112.47-64.59,42.14-10.97,80.78-32.97,112.38-64.57.59-.59,1.17-1.2,1.75-1.8-5.87,21.3-8.9,43.54-8.9,66.23s3.06,45.12,8.98,66.5c-.58-.59-1.15-1.19-1.74-1.78ZM1132.72,694.31c-31.56-31.56-70.13-53.54-112.2-64.52,42.03-10.99,80.58-32.96,112.11-64.5.54-.54,1.05-1.08,1.58-1.62-5.81,21.21-8.82,43.33-8.82,65.92s3.04,45.03,8.94,66.38c-.54-.55-1.07-1.11-1.62-1.66ZM1000.73,434.19c-10.81-10.81-20.41-22.49-28.75-34.9-.15-.31-.3-.61-.46-.91,56.61,3.38,109.36,27.02,149.79,67.46,11.07,11.07,20.89,23.07,29.37,35.82-56.67-3.34-109.48-26.99-149.95-67.47ZM942.55,399.73c-8.27,12.24-17.77,23.78-28.45,34.46-40.48,40.48-93.3,64.13-149.97,67.47,8.49-12.75,18.3-24.75,29.37-35.82,40.42-40.42,93.14-64.06,149.72-67.45-.23.45-.45.9-.67,1.35ZM749.77,493.36c-15.8-31.69-24.16-66.84-24.16-103.28s8.36-71.59,24.16-103.28c15.8,31.69,24.16,66.84,24.16,103.28s-8.36,71.59-24.16,103.28ZM705.95,314.19c-40.19,40.19-92.55,63.79-148.76,67.39,8.42-12.59,18.14-24.45,29.1-35.41,40.19-40.19,92.55-63.79,148.76-67.39-8.42,12.59-18.14,24.45-29.1,35.41ZM498.89,434.19c-40.52,40.52-93.4,64.17-150.13,67.48,8.49-12.75,18.3-24.76,29.38-35.83,40.52-40.52,93.4-64.17,150.13-67.48-8.49,12.75-18.3,24.76-29.38,35.83ZM334.67,525.91c15.84,31.72,24.22,66.92,24.22,103.4s-8.45,72-24.43,103.83c-15.84-31.72-24.22-66.92-24.22-103.4s8.45-72,24.43-103.83ZM334.76,765.71c15.84,31.72,24.22,66.92,24.22,103.4s-8.45,72-24.43,103.83c-15.84-31.72-24.22-66.92-24.22-103.4s8.45-72,24.43-103.83ZM498.89,1065.57c10.93,10.93,20.63,22.76,29.04,35.32-56.57-3.4-109.29-27.03-149.71-67.45-10.93-10.93-20.63-22.76-29.04-35.32,56.58,3.4,109.29,27.03,149.71,67.45ZM705.95,1185.23c11.06,11.06,20.85,23.03,29.33,35.76-56.27-3.57-108.68-27.18-148.9-67.4-11.06-11.06-20.85-23.03-29.33-35.76,56.27,3.57,108.68,27.18,148.9,67.4ZM781.16,1043.61c.38.38.74.77,1.12,1.15,31.61,31.61,70.27,53.62,112.42,64.58-42.15,10.96-80.81,32.97-112.42,64.58-.38.38-.74.77-1.12,1.15,5.78-21.15,8.77-43.21,8.77-65.72s-2.99-44.58-8.77-65.73ZM972.8,1098.98c8.14-11.94,17.45-23.21,27.89-33.65,40.47-40.47,93.27-64.11,149.93-67.46-8.45,12.66-18.21,24.57-29.21,35.58-40.38,40.38-93.03,64.01-149.54,67.44.32-.63.62-1.27.93-1.91ZM1165.42,972.23c-15.66-31.57-23.94-66.57-23.94-102.84s8.26-71.16,23.87-102.7c15.66,31.57,23.94,66.57,23.94,102.84s-8.26,71.16-23.87,102.7ZM1165.34,732.43c-15.66-31.57-23.94-66.57-23.94-102.84s8.26-71.16,23.87-102.7c15.66,31.57,23.94,66.57,23.94,102.84s-8.26,71.16-23.87,102.7ZM1132.63,454.52c-31.77-31.77-70.65-53.84-113.05-64.74,22.16-5.72,43.48-14.49,63.3-26.14,18.97-11.15,36.32-24.79,51.64-40.43-6.05,21.66-9.17,44.17-9.17,66.87s3.02,44.8,8.86,66.05c-.53-.54-1.04-1.08-1.57-1.61ZM782.19,454.52c-.32.32-.63.65-.95.97,5.72-21.05,8.69-43,8.69-65.41s-3.04-44.98-8.92-66.3c.43.43.84.87,1.27,1.3,31.74,31.74,70.57,53.79,112.91,64.71-42.38,10.91-81.24,32.97-113,64.73ZM574.98,334.86c-.31.31-.6.62-.9.93,5.74-21.08,8.71-43.07,8.71-65.51s-3.02-44.43-8.87-65.76c15.08,15.28,32.12,28.62,50.71,39.57,19.71,11.62,40.92,20.39,62.96,26.14-42.22,10.95-80.94,32.97-112.6,64.63ZM566.78,270.28c0,36.47-8.37,71.65-24.19,103.35-15.82-31.71-24.19-66.88-24.19-103.35s8.36-71.59,24.16-103.27c15.88,31.91,24.23,67.35,24.23,103.27ZM366.82,454.52c-.22.22-.44.45-.66.68,5.72-21.05,8.68-42.99,8.68-65.4s-2.94-43.87-8.64-64.93c14.98,15.08,31.88,28.26,50.29,39.1,19.61,11.55,40.7,20.27,62.61,26.01-42.1,10.97-80.71,32.96-112.29,64.54ZM302.68,694.18c-.09-.09-.19-.19-.28-.29-31.49-31.5-69.98-53.45-111.95-64.46,41.92-11.02,80.36-32.96,111.82-64.42.22-.22.44-.45.66-.68-5.72,21.05-8.68,42.99-8.68,65.4s2.88,43.68,8.43,64.44ZM302.8,934.1c-.13-.14-.26-.27-.4-.41-31.62-31.62-70.29-53.63-112.47-64.59,42.14-10.97,80.78-32.97,112.38-64.57.28-.28.54-.56.82-.84-5.8,21.19-8.8,43.28-8.8,65.84s2.89,43.77,8.46,64.56ZM358.98,1108.91c0,36.12-8.43,71.7-24.47,103.74-15.81-31.7-24.18-66.86-24.18-103.32s8.45-72,24.43-103.83c15.84,31.72,24.22,66.92,24.22,103.4ZM366.51,1044.35c.13.14.26.27.4.41,31.64,31.64,70.32,53.65,112.51,64.6-21.98,5.73-43.15,14.46-62.82,26.03-18.49,10.87-35.46,24.1-50.49,39.25,5.85-21.31,8.86-43.42,8.86-65.73s-2.89-43.77-8.46-64.57ZM566.78,1229.48c0,35.97-8.37,71.43-24.28,103.37-15.91-31.77-24.32-67.05-24.32-103.62s8.39-71.72,24.24-103.45c15.93,31.79,24.36,67.1,24.36,103.69ZM574.04,1163.85c.34.35.68.7,1.02,1.05,31.61,31.61,70.26,53.61,112.41,64.57-21.98,5.71-43.13,14.43-62.81,25.98-18.55,10.89-35.56,24.16-50.63,39.35,5.77-21.19,8.75-43.17,8.75-65.33s-2.98-44.51-8.74-65.63ZM914.19,1153.58c-40.48,40.48-93.3,64.13-149.97,67.47,8.49-12.75,18.3-24.75,29.37-35.82,40.38-40.38,93.03-64.01,149.54-67.44-.36.71-.7,1.43-1.05,2.15-8.14,11.94-17.45,23.21-27.89,33.65ZM1132.72,1044.76c.55-.55,1.09-1.12,1.63-1.67-5.85,21.27-8.87,43.46-8.87,66.11s3.1,45.06,9.11,66.66c-15.26-15.59-32.55-29.2-51.44-40.34-19.73-11.63-40.95-20.4-62.99-26.14,42.21-10.95,80.91-32.97,112.56-64.61ZM1196.36,803.16c.54.55,1.07,1.11,1.62,1.66,31.62,31.62,70.29,53.63,112.47,64.59-42.14,10.97-80.78,32.97-112.38,64.57-.55.55-1.09,1.12-1.63,1.67,5.85-21.27,8.87-43.46,8.87-66.11s-3.04-45.03-8.94-66.38ZM1196.35,563.69c.53.54,1.04,1.08,1.57,1.61,31.49,31.49,69.98,53.45,111.95,64.45-41.92,11.02-80.36,32.96-111.82,64.42-.59.59-1.17,1.2-1.75,1.8,5.87-21.3,8.9-43.54,8.9-66.23s-3.02-44.8-8.86-66.05ZM1165.28,492.89c-15.65-31.57-23.93-66.55-23.93-102.81s8.25-70.96,23.96-102.74c15.63,31.55,23.9,66.51,23.9,102.74s-8.28,71.25-23.93,102.81ZM1074.78,349.84c-31.28,18.39-66.58,29.11-102.86,31.36.09-.19.18-.38.28-.57,8.27-12.24,17.77-23.78,28.45-34.46,40.38-40.38,93.03-64.01,149.55-67.44-19.43,28.98-45.26,53.39-75.42,71.11ZM942.91,381.19c-56.43-3.48-109-27.1-149.32-67.43-10.84-10.84-20.47-22.57-28.84-35.02,56.44,3.48,109.02,27.1,149.35,67.43,10.81,10.81,20.41,22.49,28.75,34.9.02.04.04.08.06.12ZM925.27,334.72c-31.61-31.56-70.24-53.52-112.37-64.46,22.08-5.75,43.34-14.54,63.09-26.19,18.04-10.64,34.61-23.53,49.36-38.25-5.62,20.91-8.51,42.59-8.51,64.46s2.88,43.68,8.43,64.44ZM632.75,230.31c-30.25-17.83-56.13-42.39-75.54-71.54,56.24,3.59,108.63,27.19,148.84,67.4,11.02,11.02,20.78,22.95,29.24,35.62-36.18-2.34-71.35-13.1-102.53-31.48ZM424.62,350.18c-30.24-17.8-56.13-42.33-75.56-71.46,56.59,3.39,109.32,27.03,149.74,67.45,10.97,10.97,20.71,22.85,29.14,35.47-36.46-2.21-71.92-12.97-103.33-31.46ZM334.62,286.53c15.88,31.91,24.23,67.33,24.23,103.26s-8.42,71.85-24.33,103.62c-15.82-31.7-24.19-66.88-24.19-103.34s8.4-71.79,24.29-103.55ZM290.95,553.7c-40.2,40.2-92.56,63.8-148.78,67.39,8.38-12.49,18.04-24.25,28.91-35.13,40.2-40.2,92.56-63.8,148.78-67.39-8.38,12.49-18.04,24.25-28.91,35.13ZM291.08,705.21c11.18,11.18,21.07,23.3,29.61,36.18,0,.02.02.03.02.05-56.58-3.39-109.3-27.03-149.72-67.45-11.19-11.19-21.09-23.33-29.64-36.23,56.58,3.39,109.31,27.03,149.73,67.45ZM291,793.22c-40.16,40.16-92.46,63.75-148.63,67.38,8.33-12.38,17.92-24.05,28.71-34.84,40.16-40.16,92.46-63.75,148.63-67.38-8.33,12.38-17.92,24.05-28.71,34.84ZM291.08,945.01c11.19,11.19,21.09,23.33,29.63,36.22-56.55-3.41-109.24-27.05-149.64-67.45-11.19-11.19-21.09-23.33-29.63-36.22,56.55,3.41,109.24,27.05,149.64,67.45ZM424.71,1149.18c31.48-18.51,67.02-29.26,103.55-31.43-8.49,12.75-18.3,24.75-29.38,35.83-40.5,40.5-93.35,64.15-150.06,67.47,19.48-29.31,45.48-54,75.88-71.88ZM632.77,1269.25c31.12-18.28,66.21-28.97,102.29-31.29-8.4,12.55-18.1,24.36-29.02,35.28-40.23,40.23-92.64,63.83-148.91,67.4,19.46-29.11,45.38-53.62,75.64-71.39ZM749.77,1452.09c-15.78-31.83-24.07-67.14-24.07-102.96s8.33-71.46,24.07-103.1c15.74,31.64,24.07,66.73,24.07,103.1s-8.29,71.12-24.07,102.96ZM867.05,1269.17c30.32,17.78,56.29,42.33,75.79,71.5-56.4-3.5-108.94-27.11-149.24-67.42-10.92-10.92-20.62-22.75-29.03-35.3,36.15,2.27,71.31,12.95,102.49,31.23ZM971.42,1117.76c36.56,2.19,72.12,12.98,103.61,31.54,30.32,17.87,56.25,42.51,75.68,71.75-56.68-3.34-109.5-26.98-149.98-67.47-10.96-10.96-20.68-22.81-29.1-35.41-.07-.14-.14-.28-.21-.42ZM1165.46,1211.96c-15.72-31.78-23.98-67.03-23.98-102.76s8.26-71.16,23.87-102.7c15.66,31.57,23.94,66.57,23.94,102.84s-8.25,71.11-23.84,102.62ZM1209.37,945.29c40.15-40.15,92.43-63.74,148.58-67.38-8.49,12.77-18.32,24.79-29.41,35.88-40.15,40.15-92.43,63.74-148.58,67.38,8.49-12.77,18.32-24.79,29.41-35.88ZM1209.29,793.5c-10.86-10.86-20.51-22.61-28.88-35.09,55.98,3.74,108.1,27.31,148.14,67.35,10.86,10.86,20.51,22.61,28.88,35.09-55.98-3.74-108.1-27.31-148.14-67.35ZM1209.37,705.49c40.13-40.13,92.38-63.72,148.49-67.38-8.49,12.77-18.31,24.78-29.4,35.87-40.13,40.13-92.38,63.72-148.49,67.38,8.49-12.77,18.31-24.78,29.4-35.87ZM1209.24,553.98c-10.95-10.95-20.67-22.8-29.08-35.38,56.07,3.68,108.29,27.27,148.39,67.37,10.95,10.95,20.67,22.8,29.08,35.38-56.07-3.68-108.29-27.27-148.39-67.37ZM1197.97,454.37c-.54.54-1.05,1.08-1.58,1.62,5.81-21.21,8.82-43.33,8.82-65.92s-3.1-45.37-9.08-66.86c15.27,15.59,32.57,29.19,51.47,40.32,19.78,11.65,41.06,20.42,63.18,26.16-42.3,10.93-81.1,32.97-112.8,64.68ZM1357.89,398.31c-19.44,29.28-45.4,53.95-75.76,71.83-31.1,18.33-66.18,29.07-102.26,31.44,8.5-12.77,18.32-24.8,29.41-35.89,40.15-40.15,92.45-63.75,148.61-67.38ZM989.59,334.6c5.53-20.72,8.4-42.3,8.4-64.32s-2.88-43.71-8.44-64.48c14.76,14.74,31.36,27.65,49.43,38.3,19.71,11.62,40.92,20.39,62.95,26.13-42.11,10.92-80.73,32.85-112.34,64.37ZM981.99,270.28c0,36.06-8.19,70.86-23.67,102.29-.32.48-.63.97-.95,1.45-.21-.31-.4-.63-.61-.94-15.64-31.56-23.92-66.54-23.92-102.8s8.31-71.24,24.15-103.11c.16-.24.31-.49.47-.73.14.21.26.42.4.62,15.78,31.67,24.13,66.81,24.13,103.22ZM782.19,214.86c-.38.38-.74.77-1.12,1.15,5.78-21.15,8.77-43.21,8.77-65.72s-3.08-44.93-9.06-66.46c15.22,15.47,32.44,28.96,51.24,40.02,19.89,11.69,41.29,20.48,63.53,26.2-42.52,10.88-81.51,32.98-113.36,64.83ZM718.62,216.16c-.43-.43-.84-.87-1.27-1.3-31.85-31.85-70.84-53.95-113.36-64.83,22.19-5.7,43.55-14.47,63.4-26.12,18.79-11.03,36-24.5,51.21-39.93-5.87,21.36-8.9,43.53-8.9,65.88s3.04,44.98,8.92,66.3ZM511.14,335.91c-.34-.35-.68-.7-1.02-1.05-31.64-31.63-70.32-53.65-112.51-64.6,22.16-5.77,43.49-14.6,63.3-26.31,18.39-10.87,35.25-24.06,50.2-39.16-5.74,21.08-8.71,43.06-8.71,65.5s2.98,44.51,8.74,65.63ZM302.78,454.57c-.16-.16-.31-.32-.47-.48-31.59-31.59-70.2-53.58-112.31-64.55,21.76-5.7,42.71-14.34,62.2-25.77,18.68-10.95,35.8-24.31,50.96-39.62-5.82,21.21-8.82,43.34-8.82,65.92s2.88,43.72,8.45,64.49ZM320.63,501.63c-36.44-2.25-71.87-13.04-103.25-31.56-30.43-17.95-56.42-42.71-75.86-72.1,56.49,3.45,109.12,27.07,149.49,67.44,11.19,11.19,21.08,23.33,29.63,36.22ZM209.25,483.85c19.75,11.65,41,20.44,63.07,26.19-42.21,10.95-80.91,32.97-112.56,64.61-.56.56-1.09,1.13-1.65,1.69,5.99-21.56,9.08-43.95,9.08-66.55s-3.02-44.45-8.87-65.77c15.13,15.38,32.24,28.8,50.91,39.82ZM159.68,685.3c31.62,31.62,70.29,53.63,112.47,64.59-42.14,10.97-80.78,32.97-112.38,64.57-.52.52-1.01,1.04-1.52,1.56,5.97-21.52,9.05-43.88,9.05-66.42s-2.99-44.27-8.8-65.51c.4.4.78.81,1.18,1.21ZM159.76,925.1c31.65,31.65,70.35,53.66,112.56,64.61-22.03,5.74-43.23,14.5-62.93,26.11-18.77,11.06-35.96,24.55-51.15,40.01,5.97-21.52,9.05-43.88,9.05-66.44s-3-44.36-8.83-65.64c.44.44.86.9,1.31,1.34ZM319.8,998.17c-8.33,12.38-17.92,24.05-28.72,34.85-40.17,40.17-92.48,63.76-148.66,67.39,19.37-28.83,45.08-53.13,75.09-70.8,31.11-18.33,66.2-29.07,102.29-31.43ZM302.4,1044.33c.24-.24.47-.48.7-.72-5.78,21.15-8.77,43.2-8.77,65.72s2.89,43.78,8.47,64.58c-14.89-14.96-31.68-28.04-49.97-38.82-19.73-11.63-40.95-20.4-62.99-26.14,42.21-10.95,80.91-32.97,112.56-64.61ZM510.2,1164.9c.18-.18.34-.36.52-.53-5.63,20.89-8.54,42.65-8.54,64.87s2.96,44.29,8.66,65.31c-14.96-15.09-31.85-28.27-50.26-39.12-19.58-11.55-40.64-20.28-62.52-26.03,42.05-10.99,80.6-32.96,112.14-64.5ZM717.35,1284.56c.38-.38.74-.77,1.12-1.15-5.78,21.15-8.77,43.21-8.77,65.72s2.98,44.17,8.76,65.37c-14.96-15.17-31.86-28.42-50.29-39.34-19.61-11.62-40.7-20.4-62.61-26.2,41.91-11.02,80.34-32.96,111.8-64.41ZM781.04,1283.29c.41.42.82.85,1.24,1.27,31.45,31.45,69.86,53.38,111.76,64.4-21.75,5.75-42.69,14.44-62.17,25.92-18.62,10.97-35.69,24.34-50.79,39.65,5.78-21.2,8.76-43.2,8.76-65.39s-3-44.66-8.8-65.85ZM989.35,1164.83s.04.04.07.07c31.65,31.65,70.35,53.66,112.56,64.61-21.9,5.71-42.97,14.39-62.58,25.9-18.37,10.78-35.25,23.89-50.22,38.9,5.66-20.95,8.6-42.79,8.6-65.08s-2.88-43.66-8.42-64.4ZM1196.32,1042.83c.58.59,1.15,1.19,1.74,1.78,31.65,31.65,70.35,53.66,112.56,64.61-22.1,5.76-43.36,14.56-63.12,26.22-18.74,11.06-35.9,24.55-51.07,40,5.85-21.27,8.87-43.46,8.87-66.12s-3.06-45.12-8.98-66.5ZM1180.32,997.97c36.02,2.44,71.01,13.23,102.04,31.57,30.05,17.76,55.77,42.17,75.12,71.12-55.97-3.74-108.07-27.32-148.11-67.35-10.93-10.93-20.64-22.77-29.05-35.33ZM1290.51,1015.76c-19.66-11.62-40.8-20.39-62.77-26.17,42.04-10.99,80.58-32.96,112.12-64.5.46-.46.91-.94,1.37-1.41-5.87,21.34-8.89,43.5-8.89,65.84s3.03,44.58,8.92,65.96c-15.08-15.33-32.14-28.73-50.76-39.73ZM1339.86,814.46c-31.62-31.62-70.29-53.63-112.47-64.59,42.14-10.97,80.78-32.97,112.38-64.57.51-.51.99-1.02,1.49-1.53-5.89,21.38-8.93,43.58-8.93,65.97s3.06,44.77,9,66.24c-.5-.5-.98-1.02-1.48-1.52ZM1339.86,574.66c-31.65-31.65-70.35-53.66-112.56-64.61,22.04-5.74,43.24-14.51,62.96-26.12,18.65-10.99,35.74-24.38,50.85-39.71-5.84,21.31-8.86,43.42-8.86,65.73s3.05,44.69,8.97,66.11c-.46-.46-.9-.93-1.36-1.4ZM1357.24,381.11c-35.82-2.45-70.63-13.17-101.52-31.36-30.06-17.7-55.81-42.03-75.2-70.92,55.9,3.78,107.94,27.35,147.94,67.34,10.82,10.82,20.43,22.52,28.78,34.94ZM1047.11,230.32c-30.1-17.74-55.88-42.14-75.26-71.11-.08-.16-.16-.33-.25-.49,56.58,3.39,109.3,27.03,149.72,67.45,11.03,11.03,20.81,22.98,29.28,35.68-36.52-2.21-72.03-12.99-103.49-31.53ZM840.13,110.04c-30.15-17.72-55.98-42.12-75.41-71.1,56.45,3.47,109.04,27.09,149.38,67.43,10.84,10.84,20.48,22.58,28.84,35.03-36.27-2.26-71.55-12.98-102.81-31.36ZM659.29,110.11c-30.98,18.18-65.89,28.86-101.8,31.23,8.36-12.43,17.98-24.15,28.81-34.98,40.13-40.13,92.38-63.72,148.49-67.38-19.45,28.99-45.31,53.41-75.49,71.12ZM452.77,230.17c-31.54,18.65-67.18,29.48-103.82,31.68,8.46-12.7,18.24-24.65,29.28-35.68,40.46-40.46,93.25-64.1,149.89-67.46-19.37,29.1-45.17,53.62-75.34,71.46ZM244.1,349.97c-31.02,18.18-65.98,28.85-101.93,31.19,8.36-12.44,17.98-24.16,28.81-34.99,40.18-40.18,92.51-63.78,148.71-67.39-19.47,29.03-45.37,53.47-75.6,71.19ZM127.19,406.95c15.75,31.81,24.02,67.07,24.02,102.85s-8.32,71.25-24.16,103.13c-15.66-31.57-23.95-66.57-23.95-102.85s8.34-71.48,24.09-103.13ZM151.29,749.6c0,35.88-8.32,71.25-24.16,103.13-15.66-31.57-23.95-66.57-23.95-102.85s8.34-71.49,24.09-103.13c15.75,31.81,24.02,67.06,24.02,102.85ZM151.29,989.4c0,35.89-8.32,71.25-24.16,103.13-15.66-31.57-23.95-66.57-23.95-102.85s8.34-71.49,24.09-103.14c15.75,31.81,24.02,67.06,24.02,102.85ZM141.44,1117.36c36.44,2.24,71.88,13.02,103.27,31.52,30.46,17.95,56.48,42.73,75.94,72.15-56.52-3.43-109.19-27.06-149.57-67.44-11.19-11.19-21.09-23.33-29.63-36.23ZM452.46,1269.21c30.22,17.82,56.08,42.35,75.49,71.48-56.58-3.39-109.3-27.03-149.73-67.45-11-11-20.76-22.92-29.21-35.57,36.5,2.22,72,13,103.44,31.54ZM660.01,1388.93c30.19,17.89,56,42.47,75.35,71.63-56.42-3.49-108.97-27.11-149.29-67.42-11.12-11.12-20.96-23.17-29.47-35.97,36.51,2.29,71.99,13.15,103.41,31.76ZM839.99,1388.66c31.42-18.52,66.9-29.29,103.38-31.51-8.51,12.81-18.36,24.87-29.48,35.99-40.42,40.42-93.13,64.05-149.71,67.45,19.45-29.32,45.43-54.02,75.81-71.93ZM1047.5,1269.21c31.31-18.37,66.64-29.08,102.95-31.29-8.41,12.56-18.11,24.39-29.05,35.33-40.4,40.4-93.09,64.04-149.64,67.45,19.48-29.15,45.43-53.69,75.73-71.48ZM1255.62,1149.23c31.12-18.37,66.22-29.15,102.33-31.53-8.49,12.77-18.32,24.79-29.41,35.88-40.13,40.13-92.4,63.72-148.52,67.38,19.41-29.23,45.31-53.85,75.6-71.73ZM1372.46,1092.59c-15.81-31.86-24.12-67.19-24.12-103.05s8.28-71.09,24.05-102.91c15.73,31.63,24.05,66.7,24.05,103.05s-8.3,71.32-23.98,102.91ZM1372.46,852.78c-15.81-31.85-24.12-67.21-24.12-103.05s8.28-71.09,24.05-102.91c15.72,31.63,24.05,66.7,24.05,103.05s-8.3,71.32-23.98,102.91ZM1372.38,612.99c-15.81-31.86-24.12-67.19-24.12-103.05s8.28-71.09,24.05-102.92c15.73,31.63,24.05,66.7,24.05,103.06s-8.3,71.32-23.98,102.91ZM1026.8,94.5c84.68,35.82,160.73,87.09,226.04,152.4,19.08,19.08,36.96,39.09,53.61,59.95-39.88-27.97-87.03-43.47-136.58-44.51-10.31-17.08-22.76-33.02-37.23-47.49-45.6-45.6-105.84-71.23-170.12-72.52-10.28-17-22.69-32.87-37.1-47.28-20.2-20.2-43.29-36.48-68.32-48.46,58.27,8.78,115.05,24.79,169.7,47.91ZM247.17,246.9c65.31-65.31,141.36-116.59,226.04-152.4,54.83-23.19,111.8-39.23,170.27-47.99-25.1,11.99-48.24,28.3-68.5,48.55-14.41,14.41-26.81,30.28-37.09,47.27-64.6,1.08-125.17,26.73-170.97,72.53-14.47,14.47-26.92,30.41-37.23,47.49-49.09,1.01-95.82,16.22-135.46,43.68,16.46-20.56,34.12-40.29,52.94-59.12ZM38.88,749.74c0-89.92,16.5-177.32,49.05-260.07-.55,6.75-.84,13.56-.84,20.41,0,42.66,10.72,83.68,30.87,119.98-20.09,36.26-30.79,77.22-30.79,119.82s10.71,83.62,30.83,119.9c-20.12,36.28-30.83,77.27-30.83,119.9,0,6.83.29,13.61.83,20.33-32.61-82.81-49.13-170.28-49.13-260.27ZM473.2,1404.97c-84.68-35.82-160.73-87.09-226.04-152.4-18.68-18.68-36.21-38.24-52.56-58.63,39.62,27.35,86.27,42.49,135.29,43.47,10.27,16.95,22.65,32.77,37.01,47.14,45.73,45.73,106.2,71.37,170.69,72.52,10.3,17.03,22.72,32.94,37.16,47.38,20.19,20.19,43.26,36.46,68.28,48.45-58.32-8.78-115.14-24.79-169.83-47.93ZM1252.83,1252.57c-65.31,65.31-141.36,116.59-226.04,152.4-54.71,23.14-111.56,39.16-169.9,47.94,25.02-11.98,48.1-28.26,68.3-48.46,14.44-14.44,26.87-30.34,37.16-47.38,64.37-1.23,124.7-26.86,170.36-72.52,14.37-14.37,26.75-30.2,37.01-47.14,49.35-.99,96.32-16.33,136.11-44.04-16.48,20.59-34.16,40.35-53.01,59.2ZM1411.5,1011.2c.61-7.12.93-14.3.93-21.53,0-42.63-10.71-83.62-30.83-119.9,20.12-36.28,30.83-77.27,30.83-119.9s-10.73-83.68-30.87-119.98c20.09-36.26,30.79-77.22,30.79-119.82,0-7.44-.34-14.83-.99-22.16,33.02,83.27,49.75,171.26,49.75,261.82s-16.69,178.3-49.61,261.47Z"/></svg>
