<?xml version="1.0" encoding="UTF-8"?><svg id="Layer_2" xmlns="http://www.w3.org/2000/svg" xmlns:xlink="http://www.w3.org/1999/xlink" viewBox="0 0 1500 1500"><defs><style>.cls-1{fill:url(#New_Gradient_Swatch_2);stroke-width:0px;}</style><linearGradient id="New_Gradient_Swatch_2" x1="138.63" y1="1154.15" x2="1400.5" y2="425.61" gradientUnits="userSpaceOnUse"><stop offset="0" stop-color="#56450d"/><stop offset=".21" stop-color="#e5c787"/><stop offset=".39" stop-color="#f7d976"/><stop offset=".99" stop-color="#725728"/></linearGradient></defs><path class="cls-1" d="M1479.4,912.13c0-69.66-50.96-127.63-117.55-138.62-.81-80.07-16.9-157.75-47.88-230.99-3.4-8.03-6.97-15.97-10.68-23.81,37.39-25.27,62.01-68.06,62.01-116.48,0-77.47-63.03-140.5-140.5-140.5-37.24,0-71.14,14.57-96.31,38.31-42.42-33.36-88.96-60.83-139-82-31.53-13.34-63.89-23.91-96.9-31.69.04-1.3.06-2.59.06-3.9,0-77.47-63.03-140.5-140.5-140.5s-140.5,63.03-140.5,140.5c0,1.3.02,2.6.06,3.9-33.01,7.79-65.37,18.36-96.9,31.69-50.05,21.17-96.58,48.64-139,82-25.17-23.73-59.07-38.31-96.31-38.31-77.47,0-140.5,63.03-140.5,140.5,0,48.43,24.63,91.21,62.01,116.48-3.72,7.85-7.29,15.78-10.68,23.81-30.9,73.05-46.99,150.51-47.88,230.35-68.67,9.17-121.81,68.12-121.81,139.26,0,77.47,63.03,140.5,140.5,140.5,14.74,0,28.95-2.29,42.31-6.51,29.65,61.09,69.09,116.46,117.55,164.92,13.76,13.76,28.08,26.79,42.93,39.08-11,20.03-17.27,43.01-17.27,67.43,0,77.47,63.03,140.5,140.5,140.5,57.27,0,106.65-34.45,128.5-83.72,44.45,10.17,90.09,15.3,136.5,15.3s92.05-5.13,136.5-15.3c21.86,49.26,71.23,83.72,128.5,83.72,77.47,0,140.5-63.03,140.5-140.5,0-24.42-6.27-47.4-17.27-67.43,14.85-12.29,29.17-25.32,42.93-39.08,48.17-48.17,87.42-103.15,117.01-163.8,12.27,3.51,25.22,5.39,38.6,5.39,77.47,0,140.5-63.03,140.5-140.5ZM1291.97,1027.45c-26.27-10.73-48.09-30.19-61.82-54.76l97.75-47.08c-7.34,29.04-16.9,57.54-28.67,85.38-2.34,5.53-4.77,11.01-7.26,16.45ZM892.63,1317.55c0-15.07,2.69-29.52,7.62-42.9l96.44,46.44c-4.45,2.01-8.94,3.98-13.45,5.88-27.62,11.68-55.89,21.19-84.7,28.5-3.84-11.97-5.92-24.71-5.92-37.93ZM611.63,1317.55c0,13.22-2.08,25.97-5.92,37.93-28.8-7.31-57.08-16.82-84.7-28.5-4.66-1.97-9.3-4.01-13.9-6.09l96.76-46.6c5.01,13.48,7.76,28.05,7.76,43.26ZM205.03,1010.99c-11.71-27.68-21.23-56.01-28.55-84.88l94.08,45.31c-13.07,24.04-33.84,43.31-58.97,54.51-2.25-4.94-4.44-9.92-6.57-14.93ZM374.36,321.74c17.6,20.72,28.55,47.25,29.53,76.27h-106.47c11.03-13.09,22.65-25.76,34.86-37.98,13.49-13.49,27.52-26.25,42.08-38.29ZM555.16,414l-65.73,82.42-80.81-38.92c5.82-13.54,9.56-28.18,10.84-43.5h135.7ZM628.72,198.93c35.33-7.47,71.41-11.69,108.02-12.62l-69.48,87.13c-20.57-19.2-34.65-45.27-38.53-74.51ZM836.49,273.92l-69.88-87.63c36.92.88,73.3,5.11,108.93,12.64-3.92,29.49-18.2,55.75-39.04,74.99ZM1084.79,414c1.27,15.19,4.95,29.71,10.69,43.15l-81.54,39.27-65.73-82.42h136.58ZM1171.98,360.03c12.21,12.21,23.84,24.88,34.86,37.98h-106.47c.97-29.02,11.92-55.55,29.53-76.27,14.56,12.04,28.59,24.8,42.08,38.29ZM1114.48,904.93l18.45-80.85,75.35,36.28c-5.53,13.91-8.91,28.91-9.7,44.57h-84.1ZM931.59,1206.18l-51.69-64.81,74.7-35.97,18.01,78.9c-14.95,5.01-28.77,12.46-41.02,21.89ZM976.19,1199.98l19.86,87.03-54.49-68.33c10.38-7.95,22.05-14.31,34.63-18.7ZM869.67,1128.53l-107.75-135.11,57.81-72.49h92.76l38.45,168.46-81.28,39.14ZM530.81,1184.02l17.95-78.62,74.71,35.98-51.35,64.39c-12.34-9.4-26.27-16.81-41.31-21.75ZM562.15,1218.27l-54.86,68.79,19.94-87.37c12.68,4.33,24.44,10.65,34.92,18.58ZM552.41,1089.39l38.45-168.46h92.79l57.81,72.49-107.75,135.12-81.3-39.15ZM301.42,904.93c-.77-15.15-3.96-29.68-9.17-43.2l78.2-37.66,18.46,80.86h-87.49ZM285.39,904.93h-82.85l75.24-36.23c4.25,11.39,6.88,23.56,7.61,36.23ZM385.24,816.95l155.7-74.98,57.82,72.5-20.65,90.46h-172.79l-20.08-87.98ZM363.59,493.93l-52.25-65.52,75.69,36.45c-6.33,10.83-14.25,20.63-23.44,29.07ZM401.48,471.82l77.72,37.43-51.7,64.83-53.93-67.62c11.03-9.97,20.47-21.66,27.9-34.64ZM493.99,516.37l155.69,74.98-20.64,90.43-83.55,40.24-107.74-135.11,56.25-70.54ZM772,305.36c-6.47,1.04-13.11,1.59-19.87,1.59s-13.99-.6-20.73-1.74l20.28-88.87,20.32,89.01ZM752.13,322.95c7.98,0,15.81-.68,23.44-1.97l17.58,77.02h-82.92l17.61-77.16c7.9,1.38,16.01,2.11,24.3,2.11ZM796.8,414l38.45,168.47-83.56,40.24-83.57-40.25,38.45-168.47h90.23ZM1117.04,464.53l75-36.12-51.87,65.05c-9.07-8.42-16.88-18.16-23.13-28.93ZM1130.17,506l-54.29,68.08-51.7-64.83,78.42-37.76c7.35,12.91,16.68,24.56,27.58,34.51ZM1065.64,586.91l-107.74,135.11-83.57-40.25-20.64-90.42,155.7-74.98,56.25,70.54ZM1075.87,599.74l71.42,89.55-25.49,111.66-149.12-71.81,103.19-129.4ZM876.63,779.63c0,68.65-55.85,124.5-124.5,124.5s-124.5-55.85-124.5-124.5,55.85-124.5,124.5-124.5,124.5,55.85,124.5,124.5ZM603.31,794.52l-47.59-59.67,68.77-33.12-21.18,92.79ZM611.51,830.47l59.38,74.46h-76.37l17-74.46ZM891.86,830.49l16.99,74.44h-76.35l59.36-74.44ZM878.88,701.73l68.78,33.12-47.6,59.69-21.18-92.81ZM855.89,672.9l-85.76-41.3,68.78-33.12,16.99,74.42ZM733.25,631.59l-85.77,41.31,16.99-74.43,68.79,33.13ZM530.7,729.14l-149.12,71.81-25.49-111.66,71.41-89.55,103.19,129.4ZM704.11,920.93h95.16l-47.58,59.66-47.58-59.66ZM904.62,814.49l57.83-72.52,155.7,74.98-20.08,87.98h-172.81l-20.64-90.44ZM1222.74,867.32l78.09,37.61h-86.22c.76-13.19,3.57-25.83,8.13-37.61ZM1229.47,852.8c6.25-11.48,14.25-21.87,23.64-30.82l54.64,68.52-78.29-37.7ZM1215.04,845.86l-78.45-37.78,23.46-102.78,83.06,104.15c-11.23,10.48-20.74,22.77-28.07,36.41ZM1151.84,669.34l-65.74-82.43,56.47-70.82c11.95,8.65,25.31,15.48,39.67,20.05l-30.4,133.2ZM1152.56,503.58l52-65.21-18.74,82.11c-11.99-3.96-23.18-9.7-33.26-16.9ZM1225.01,420.68c21.93,28.8,41.13,59.49,57.45,91.87-17.25,9.05-36.87,14.19-57.66,14.19-8.03,0-15.88-.77-23.48-2.23l23.7-103.82ZM1185.08,414l-75.17,36.2c-4.74-11.32-7.86-23.48-9.06-36.2h84.22ZM999.15,503.54l-149.12,71.81-36.83-161.35h114.54l71.41,89.54ZM809.56,398l-18.39-80.58c15.57-4.51,30.04-11.65,42.89-20.9l80.93,101.48h-105.43ZM787.6,301.79l-20.31-89,56.79,71.21c-10.98,7.8-23.27,13.86-36.48,17.79ZM736.08,212.8l-20.26,88.75c-13.11-4-25.31-10.12-36.2-17.95l56.46-70.8ZM712.26,317.18l-18.45,80.83h-105.42l81.25-101.89c12.76,9.28,27.13,16.48,42.62,21.07ZM690.16,414l-36.83,161.35-149.11-71.81,71.4-89.54h114.53ZM394.2,450.56l-75.9-36.55h85.11c-1.21,12.85-4.37,25.13-9.2,36.55ZM278.57,421.58l23.53,103.09c-7.35,1.36-14.91,2.07-22.64,2.07-20.8,0-40.41-5.13-57.66-14.19,16.16-32.05,35.12-62.43,56.77-90.97ZM298.82,438.37l52.32,65.6c-10.16,7.18-21.44,12.87-33.52,16.77l-18.8-82.37ZM361.12,516.5l56.15,70.41-65.73,82.43-30.34-132.93c14.44-4.5,27.89-11.28,39.93-19.91ZM366.8,808.07l-81.16,39.08c-7-13.36-16.09-25.46-26.83-35.87l84.52-105.99,23.46,102.78ZM271.22,854.1l-75.57,36.39,53.15-66.64c8.92,8.86,16.5,19.05,22.42,30.25ZM169.9,897.11c-7.17-35.81-11.01-72.36-11.48-109.44.89-.02,1.78-.03,2.68-.03,28.43,0,54.65,9.58,75.63,25.68l-66.83,83.8ZM202.59,920.93h82.69c-.88,12.59-3.65,24.67-8.01,35.96l-74.68-35.96ZM301.32,920.93h91.24l23.46,102.78-124.28-59.85c5.33-13.42,8.65-27.86,9.58-42.93ZM408.97,920.93h165.48l-36.83,161.34-103.17-49.68-25.49-111.66ZM533.98,1098.27l-18.63,81.63c-9.12-1.87-18.56-2.85-28.22-2.85-6.58,0-13.05.46-19.39,1.34l-28.73-125.86,94.96,45.73ZM487.13,1193.05c8.44,0,16.68.85,24.65,2.46l-20.07,87.91-20.4-89.37c5.18-.66,10.46-1,15.81-1ZM480.98,1308.27c-33.98-17.44-66.08-38.07-96.06-61.72,16.72-23.99,41.64-41.84,70.68-49.45l25.38,111.17ZM519.82,1297.02l54.46-68.29c9.2,9.02,17,19.46,23.06,30.96l-77.52,37.33ZM584.29,1216.17l53.97-67.67,94.99,45.74-121.49,58.51c-7.13-13.66-16.44-26-27.46-36.58ZM648.49,1135.66l103.2-129.41,103.19,129.4-103.2,49.7-103.19-49.69ZM865.12,1148.48l54.36,68.16c-10.9,10.55-20.1,22.85-27.15,36.43l-122.2-58.85,94.99-45.75ZM929.5,1229.21l54.08,67.81-76.83-37c5.98-11.42,13.67-21.81,22.75-30.81ZM1011.67,1283.51l-20.04-87.82c8.24-1.72,16.77-2.63,25.51-2.63,5.07,0,10.06.31,14.97.9l-20.44,89.55ZM1047.85,1196.89c29.38,7.48,54.62,25.45,71.49,49.66-30.27,23.88-62.68,44.68-97.03,62.23l25.54-111.88ZM1017.13,1177.05c-9.97,0-19.69,1.05-29.07,3.03l-18.67-81.82,95-45.75-28.7,125.76c-6.07-.8-12.26-1.23-18.55-1.23ZM965.73,1082.27l-36.82-161.34h165.51l-25.48,111.64-103.21,49.7ZM1110.83,920.93h87.85c.97,15.58,4.48,30.47,10.13,44.27l-121.44,58.48,23.45-102.76ZM1214.71,920.93h86.04l-77.49,37.32c-4.67-11.68-7.62-24.22-8.54-37.32ZM1334.18,897.99l-68.8-86.27c20.62-15.13,46.04-24.09,73.51-24.09,2.33,0,4.64.07,6.94.2-.48,37.33-4.38,74.12-11.65,110.16ZM1299.23,548.76c29.92,70.74,45.58,145.73,46.6,223.04-2.3-.11-4.61-.17-6.94-.17-31.24,0-60.13,10.26-83.49,27.57l-90.8-113.86,33.15-145.23c8.76,1.71,17.8,2.62,27.05,2.62,23.31,0,45.31-5.71,64.68-15.8,3.39,7.2,6.65,14.47,9.76,21.83ZM1224.8,277.73c68.65,0,124.5,55.85,124.5,124.5,0,42.12-21.03,79.42-53.13,101.96-29.07-57.36-66.92-109.52-112.87-155.48-13.55-13.55-27.65-26.39-42.25-38.52,22.13-20.16,51.53-32.46,83.76-32.46ZM983.25,232.77c48.28,20.42,93.19,46.86,134.19,78.94-19.81,23.46-32.09,53.48-33.07,86.29h-148.91l-88.96-111.55c23.65-21.48,39.97-50.9,44.71-84,31.35,7.53,62.08,17.64,92.05,30.32ZM627.63,182.45c0-68.65,55.85-124.5,124.5-124.5s124.5,55.85,124.5,124.5c0,.12,0,.24,0,.36-40.65-8.43-82.25-12.69-124.5-12.69s-83.84,4.26-124.5,12.69c0-.12,0-.24,0-.36ZM521.01,232.77c29.97-12.67,60.7-22.79,92.05-30.32,4.71,32.86,20.82,62.09,44.2,83.52l-89.33,112.02h-148.03c-.98-32.81-13.26-62.83-33.07-86.29,41-32.08,85.91-58.52,134.19-78.94ZM154.96,402.23c0-68.65,55.85-124.5,124.5-124.5,32.22,0,61.62,12.31,83.76,32.46-14.61,12.12-28.7,24.97-42.25,38.52-45.95,45.95-83.8,98.12-112.87,155.48-32.11-22.54-53.13-59.84-53.13-101.96ZM205.03,548.76c3.11-7.36,6.37-14.63,9.76-21.83,19.37,10.09,41.37,15.8,64.68,15.8,8.96,0,17.71-.85,26.21-2.46l33.11,145.07-92.08,115.46c-23.72-18.28-53.41-29.17-85.6-29.17-.89,0-1.78.02-2.67.03,1.04-77.26,16.7-152.21,46.6-222.9ZM161.1,1036.64c-68.65,0-124.5-55.85-124.5-124.5,0-62.31,46.01-114.07,105.84-123.1,1.15,79.08,17.23,155.81,47.85,228.2,2.02,4.79,4.11,9.54,6.25,14.26-11.24,3.34-23.13,5.15-35.44,5.15ZM332.28,1199.73c-46.86-46.86-85.06-100.35-113.85-159.33,28.44-12.76,51.89-34.7,66.56-62.04l135.59,65.3,31.46,137.83c-32.58,8.41-60.62,28.24-79.57,54.95-13.88-11.57-27.29-23.81-40.19-36.71ZM487.13,1442.06c-68.65,0-124.5-55.85-124.5-124.5,0-20.61,5.04-40.07,13.95-57.21,42.21,33.08,88.47,60.34,138.21,81.38,27.74,11.73,56.12,21.32,85.02,28.77-19.93,42.26-62.94,71.57-112.67,71.57ZM752.13,1373.64c-44.46,0-88.19-4.84-130.81-14.42,4.1-13.17,6.31-27.16,6.31-41.66,0-17.69-3.29-34.62-9.29-50.23l133.35-64.22,134.1,64.58c-5.91,15.51-9.15,32.31-9.15,49.87,0,14.5,2.21,28.49,6.31,41.66-42.62,9.59-86.34,14.42-130.81,14.42ZM1141.63,1317.55c0,68.65-55.85,124.5-124.5,124.5-49.73,0-92.74-29.32-112.67-71.57,28.9-7.44,57.28-17.03,85.02-28.77,49.74-21.04,96-48.29,138.21-81.38,8.91,17.14,13.95,36.6,13.95,57.21ZM1171.98,1199.73c-12.9,12.9-26.31,25.14-40.19,36.71-19.11-26.93-47.46-46.87-80.39-55.15l31.42-137.65,132.89-64c15.32,27.85,39.82,49.97,69.39,62.28-28.71,58.38-66.66,111.35-113.11,157.81ZM1338.9,1036.64c-10.94,0-21.55-1.42-31.67-4.09,2.31-5.07,4.56-10.18,6.74-15.32,30.53-72.17,46.6-148.65,47.83-227.48,57.75,10.78,101.6,61.55,101.6,122.38,0,68.65-55.85,124.5-124.5,124.5Z"/></svg>
