<?xml version="1.0" encoding="UTF-8"?><svg id="Layer_2" xmlns="http://www.w3.org/2000/svg" xmlns:xlink="http://www.w3.org/1999/xlink" viewBox="0 0 1500 1500"><defs><style>.cls-1{fill:url(#New_Gradient_Swatch_2);stroke-width:0px;}</style><linearGradient id="New_Gradient_Swatch_2" x1="11.18" y1="1383.05" x2="1118.74" y2="743.6" gradientUnits="userSpaceOnUse"><stop offset="0" stop-color="#56450d"/><stop offset=".21" stop-color="#e5c787"/><stop offset=".39" stop-color="#f7d976"/><stop offset=".99" stop-color="#725728"/></linearGradient></defs><path class="cls-1" d="M12.57,1385.47l18.46-.04,463.93-1.01h0l482.39-1.05h0s10.98-.02,10.98-.02l16.73-.04h0s464.66-1.02,464.66-1.02l17.74-.04-19.98-34.43-230.44-397.12-233.79-402.92h0l-2.87-4.94-11.04-19.03h0l-231.16-398.37-10.95-18.87h0s-240.29,418.29-240.29,418.29h0s-240.29,418.29-240.29,418.29h0l-9.27,16.14-4.53,7.89h0L21.2,1370.44l-8.63,15.02ZM731.59,165.93l15.72-27.36,228.19,393.27-142.32.31-85.34-147.07-84.69,147.44-142.32.31,210.77-366.9ZM40.25,1369.4l226.48-394.26,71.43,123.1-84.7,147.44,170.03-.37,71.43,123.1-454.68.99ZM915.09,1228.25l-31.08-53.56,213.49-.47-30.85,53.7-151.56.33ZM1057.45,1243.94l-66.29,115.4-66.79-115.11,133.08-.29ZM383.14,1175.77l31.08,53.56-133.08.29,66.29-115.4,31.08,53.56-4.6,8.01,9.23-.02ZM401.62,1175.73l213.49-.47-30.85,53.7-151.56.33-31.08-53.56ZM557.48,1028.13l30.84-53.69,66.79,115.11-61.92.13-35.72-61.56ZM574.72,1089.73l-52.7.11,26.25-45.69,26.45,45.58ZM784.23,757.13l31.08,53.56-133.09.29,30.85-53.7,71.16-.15ZM722.27,741.27l26.24-45.68,26.44,45.57-52.68.11ZM905.55,1089.01l-61.92.13,66.29-115.4,31.08,53.56-35.45,61.71ZM950.27,1043.28l26.45,45.58-52.69.11,26.25-45.69ZM713.94,1159.05l-31.08-53.56,133.08-.29-30.84,53.69-71.16.16ZM775.9,1174.92l-26.25,45.69-26.44-45.57,52.69-.12ZM602.16,966.41l133.09-.29-66.29,115.4-48.46-83.51-18.34-31.6ZM762.96,966.06h0l133.08-.29-66.29,115.4-66.79-115.11ZM815.92,1089.21l-133.08.29,66.29-115.4,66.79,115.11ZM749.06,942.1l-66.79-115.11,133.09-.29-66.29,115.4ZM762.93,950.06l66.29-115.4,66.79,115.11-133.08.29ZM735.22,950.12l-133.09.29,66.29-115.4,66.8,115.11ZM949.9,872.03l-26.44-45.57,52.68-.11-26.24,45.68ZM940.69,888.05l-30.84,53.69-66.79-115.11,61.92-.13,35.71,61.55ZM654.54,827.05l-66.29,115.4-31.08-53.56,35.45-61.7,61.92-.13ZM695.46,1159.09l-52.68.11,26.24-45.68,26.44,45.57ZM896.35,1105.03l-26.24,45.68-26.44-45.57,52.68-.11ZM923.76,965.71l52.68-.11-26.24,45.68-26.44-45.56ZM923.72,949.71l26.24-45.69,26.44,45.57-52.69.11ZM843.03,810.63l26.24-45.68,26.44,45.57-52.68.11ZM829.15,802.67l-26.45-45.58,52.69-.11-26.25,45.69ZM668.35,803.01l-26.44-45.57,52.69-.11-26.24,45.69ZM654.51,811.05l-52.69.11,26.24-45.69,26.44,45.57ZM547.91,872.9l-26.44-45.57,52.68-.11-26.24,45.68ZM548.21,1012.15l-26.44-45.56,52.68-.11-26.24,45.68ZM655.15,1105.56l-26.24,45.68-26.44-45.57,52.68-.11ZM642.82,1175.21l61.92-.14,31.08,53.56-61.91.13-31.08-53.56ZM655.43,1228.81l-52.69.11,26.25-45.69,26.44,45.57ZM829.82,1113.17l26.44,45.57-52.69.12,26.24-45.68ZM914.82,1104.99l89.64-.2-44.99-77.54,30.84-53.69,107.14,184.65-213.48.47,30.84-53.69ZM990.25,941.57l-31.08-53.56,30.84-53.69,31.08,53.56-30.85,53.7ZM1030.36,903.85l26.45,45.58-52.69.11,26.25-45.69ZM914.18,810.48l-31.08-53.56,61.92-.13,31.08,53.56-61.92.13ZM883.08,740.92l26.24-45.68,26.44,45.56-52.68.11ZM793.43,741.11l-44.99-77.53-44.65,77.72-61.92.13,106.34-185.12,107.14,184.65-61.93.13ZM614.2,757.5l-30.85,53.7-61.92.13,30.85-53.7,61.92-.13ZM561.48,741.62l26.24-45.68,26.44,45.57-52.68.11ZM574.42,950.48l-52.69.11,26.24-45.69,26.44,45.57ZM539.01,1028.17l-44.65,77.73,89.65-.2,31.08,53.56-213.49.47,106.34-185.12,31.08,53.56ZM575.06,1244.99l-66.29,115.4-66.79-115.11,133.09-.29ZM664.7,1244.79l71.43,123.1-213.48.47,70.89-123.41,71.17-.15ZM683.17,1244.75l61.91-.13,4.64,7.99,4.6-8.01,9.24-.02h0l52.69-.11-66.29,115.39-66.79-115.1ZM763.53,1228.57l30.85-53.7,61.93-.14-30.85,53.7-61.93.13ZM870.17,1182.71l26.44,45.57-52.69.11,26.24-45.69ZM1115.97,1174.17l9.23-.02-4.63-7.98,30.85-53.7,66.8,115.11-133.09.29,30.85-53.7ZM1111.3,1150.19l-107.14-184.65,61.93-.13,76.07,131.09-30.85,53.7ZM1084.56,965.36l133.08-.29-66.29,115.4-66.79-115.11ZM1039.57,887.83l70.89-123.41,107.15,184.65-142.32.31-35.72-61.55ZM1030.29,871.85l-26.44-45.57h0l-4.64-7.99,4.6-8.01-9.24.02-31.08-53.56,133.08-.29-66.29,115.4ZM954.23,740.76l-35.71-61.54,70.89-123.41,107.14,184.64-142.32.31ZM900.04,679.26l-30.84,53.69-107.14-184.65,61.92-.13,76.07,131.1ZM842.45,548.12l133.09-.29-66.3,115.41-66.8-115.12ZM752.78,532.32l-4.64-8-4.6,8.02-61.93.14,66.29-115.4,66.79,115.11-61.92.13ZM734.34,548.36l-106.34,185.11-31.08-53.56,75.49-131.42,61.93-.13ZM587.65,663.94l-66.79-115.11,133.08-.29-66.29,115.4ZM543,741.66l-142.32.31,106.34-185.11,71.43,123.1-35.44,61.7ZM533.8,757.68l-30.85,53.7-9.24.02,4.64,7.99-30.84,53.69-66.79-115.11,133.09-.29ZM507.62,835.37l31.08,53.56-30.84,53.69-31.08-53.56,30.84-53.69ZM494.02,950.65l-52.69.11,26.25-45.69,26.44,45.57ZM494.05,966.65l-106.34,185.12-31.08-53.56,75.5-131.42,61.92-.13ZM347.36,1082.23l-66.8-115.11,133.09-.29-66.29,115.4ZM763.84,1367.82l70.89-123.4,71.16-.15,71.42,123.09-213.47.47ZM1459.72,1366.31l-454.68.99,70.89-123.4,170.04-.37-85.34-147.07,70.89-123.41,202.17,348.4,26.03,44.86ZM386.88,766l71.43,123.1-35.45,61.71-142.32.31,106.34-185.12Z"/></svg>