<?xml version="1.0" encoding="UTF-8"?><svg id="Layer_2" xmlns="http://www.w3.org/2000/svg" xmlns:xlink="http://www.w3.org/1999/xlink" viewBox="0 0 1500 1500"><defs><style>.cls-1{fill:url(#New_Gradient_Swatch_2);stroke-width:0px;}</style><linearGradient id="New_Gradient_Swatch_2" x1="121.56" y1="1112.81" x2="1378.87" y2="386.9" gradientUnits="userSpaceOnUse"><stop offset="0" stop-color="#56450d"/><stop offset=".21" stop-color="#e5c787"/><stop offset=".39" stop-color="#f7d976"/><stop offset=".99" stop-color="#725728"/></linearGradient></defs><path class="cls-1" d="M1379.54,626.01c19.77-33.66,30.4-73.45,30.78-115.4.41-44.81-11.03-88.55-33.08-126.51-1-1.73-2.63-2.97-4.49-3.57-21.76-34.79-51.87-63.62-87.52-83.72-35.53-20.02-75.74-31-116.6-31.88-21.94-36.75-53.06-67.16-90.22-88.09-35.08-19.76-74.71-30.7-115.02-31.82-52.72-76.98-127.9-119.32-212.14-119.34-.39,0-.75.03-1.1.06-.04,0-.08,0-.12,0-.12,0-.25.01-.37.02-43.95.03-87.09,11.79-124.76,34-35.21,20.77-64.86,50.13-86.04,85.09-42.59.73-84.29,12.47-120.85,34.07-35.41,20.92-65.22,50.53-86.45,85.79-83.77,3.04-158.09,45.55-201.8,115.43-.04,0-.08,0-.12,0-2.85,0-5.49,1.52-6.92,3.98-22.04,37.95-33.47,81.56-33.07,126.11.38,41.11,10.74,81.42,30,116.98-40.36,73.88-40.11,167.06.79,245.76-19.78,33.66-30.41,73.46-30.8,115.43-.41,44.81,11.03,88.55,33.08,126.51.9,1.55,2.3,2.73,3.93,3.38,21.79,35.19,52.13,64.31,88.14,84.5,35.36,19.83,75.41,30.72,116.17,31.65,21.97,37.03,53.22,67.67,90.57,88.73,35.1,19.79,74.75,30.74,115.06,31.85,52.69,76.98,127.86,119.32,212.1,119.34.28,0,.54-.02.81-.04.14,0,.27.02.41.02.03,0,.05,0,.08,0,0,0,0,0,0,0,44.07,0,87.31-11.77,125.07-34.04,35.24-20.78,64.91-50.17,86.1-85.17,42.56-.74,84.23-12.48,120.76-34.05,35.38-20.9,65.15-50.47,86.37-85.69,84.31-3.07,159.07-46.06,202.71-116.67,2.57-.23,4.9-1.68,6.21-3.94,22.04-37.95,33.47-81.47,33.06-125.84-.37-41-10.76-81.26-30.07-116.84.06-.17.12-.35.17-.53,40.26-73.83,39.97-166.91-.88-245.54ZM937.33,1338.14c-1.21-.1-2.41-.21-3.62-.33-.28-.03-.56-.06-.84-.09-2.06-.21-4.12-.45-6.18-.72-.77-.1-1.54-.21-2.31-.32-1.51-.21-3.02-.44-4.52-.68-.9-.15-1.8-.29-2.69-.45-1.18-.21-2.36-.42-3.54-.64-1.19-.23-2.37-.46-3.56-.7-.82-.17-1.65-.34-2.47-.52-1.53-.33-3.05-.68-4.57-1.04-.73-.17-1.45-.35-2.17-.53-1.6-.4-3.2-.81-4.79-1.24-.56-.15-1.12-.31-1.68-.47-1.44-.4-2.87-.82-4.3-1.25-.46-.14-.91-.27-1.37-.41-1.74-.54-3.46-1.1-5.19-1.67-.48-.16-.96-.32-1.43-.48-1.74-.59-3.47-1.21-5.19-1.84-.42-.15-.83-.31-1.24-.46-1.8-.67-3.59-1.37-5.37-2.09-.25-.1-.49-.2-.73-.3-1.89-.77-3.78-1.57-5.66-2.39-.03-.01-.05-.02-.08-.03-1.94-.85-3.86-1.74-5.78-2.64-.18-.08-.36-.17-.53-.25-1.88-.9-3.75-1.82-5.61-2.77-.16-.08-.33-.17-.49-.25-1.91-.98-3.81-1.99-5.69-3.02-.02-.01-.05-.03-.07-.04-1.96-1.08-3.9-2.19-5.83-3.32-1.01-.59-2-1.21-2.99-1.82-.93-.57-1.86-1.12-2.78-1.7-1.1-.69-2.19-1.41-3.28-2.13-.85-.55-1.7-1.1-2.54-1.67-1.1-.74-2.19-1.5-3.27-2.26-.8-.56-1.61-1.12-2.4-1.69-1.1-.79-2.18-1.59-3.26-2.39-.76-.57-1.52-1.13-2.27-1.71-1.1-.84-2.19-1.68-3.27-2.54-.7-.55-1.39-1.12-2.09-1.68-1.11-.9-2.22-1.8-3.31-2.73-.6-.5-1.18-1.02-1.78-1.53-1.17-1-2.34-2.01-3.49-3.03-.25-.22-.49-.45-.74-.68-4.25-3.84-8.35-7.83-12.31-11.97-.41-.43-.83-.86-1.24-1.29-1.08-1.15-2.14-2.31-3.19-3.48-.49-.54-.97-1.07-1.45-1.61-1.02-1.15-2.02-2.31-3.02-3.48-.48-.57-.97-1.14-1.45-1.71-.99-1.18-1.97-2.37-2.93-3.57-.45-.56-.89-1.13-1.34-1.69-.98-1.24-1.95-2.49-2.91-3.75-.37-.49-.73-.98-1.09-1.47-1.01-1.36-2.02-2.73-3.01-4.12-.09-.13-.18-.27-.27-.4-1.17-1.66-2.33-3.33-3.45-5.02,36.09,2.3,71.19,13.03,102.29,31.38,30.03,17.72,55.76,42.12,75.09,71.08-1.3-.08-2.59-.18-3.88-.28-.29-.02-.58-.04-.87-.07ZM163.35,402.33c.31.05.63.09.94.13,2.09.32,4.17.66,6.25,1.03.05,0,.11.02.16.03,2.08.38,4.15.78,6.22,1.21.15.03.3.06.44.09,1.9.4,3.8.83,5.69,1.28.55.13,1.1.27,1.65.4,1.03.25,2.06.52,3.09.79,19.68,5.18,38.78,13.09,57.17,23.71,0,0,0,0,0,0,8.06,4.65,15.64,9.56,22.76,14.72,20.47,15.29,38.28,33.93,52.65,55.1-72.13-4.71-135.26-41.17-173.94-100.32,4.34.3,8.67.72,12.97,1.27,1.32.17,2.64.34,3.95.54ZM564.11,162c.37.03.73.07,1.1.1,1.94.18,3.87.39,5.8.63.35.04.69.09,1.03.13,1.98.25,3.96.52,5.93.82.18.03.36.06.54.09,1.93.3,3.85.62,5.77.97.23.04.47.08.7.12,1.93.35,3.86.74,5.78,1.14.37.08.73.15,1.1.23,1.88.4,3.75.83,5.62,1.28.36.09.73.18,1.09.27,1.9.47,3.8.96,5.69,1.47.23.06.47.13.7.2,1.87.52,3.73,1.06,5.58,1.62.18.05.36.11.54.16,1.9.58,3.79,1.2,5.67,1.83.33.11.66.22,1,.33,1.83.62,3.65,1.27,5.47,1.94.34.13.68.25,1.03.38,1.84.69,3.67,1.4,5.5,2.14.23.09.46.19.69.29,1.88.77,3.75,1.55,5.6,2.37.06.03.12.05.18.08,1.88.83,3.75,1.69,5.62,2.57.25.12.5.23.75.35,1.8.86,3.59,1.75,5.37,2.66.27.14.54.27.8.41,1.8.93,3.6,1.88,5.37,2.86.17.09.34.19.51.28,1.86,1.03,3.71,2.08,5.55,3.16.4.24.8.49,1.2.73,1.57.94,3.14,1.89,4.69,2.87.87.55,1.73,1.12,2.59,1.68,1.08.71,2.17,1.41,3.24,2.13.94.64,1.88,1.29,2.81,1.94.97.67,1.93,1.35,2.89,2.04.97.7,1.93,1.4,2.89,2.12.89.66,1.78,1.33,2.67,2.01.98.75,1.96,1.51,2.94,2.28.82.65,1.63,1.31,2.44,1.97,1.01.82,2.01,1.64,3,2.47.72.6,1.42,1.22,2.13,1.83,1.06.91,2.12,1.82,3.17,2.76.42.37.82.76,1.23,1.13,4.13,3.75,8.12,7.64,11.96,11.67.37.38.74.76,1.1,1.15,1.14,1.21,2.26,2.44,3.37,3.68.41.45.82.9,1.22,1.35,1.1,1.24,2.19,2.5,3.27,3.77.37.44.75.88,1.12,1.32,1.1,1.32,2.2,2.65,3.27,3.99.29.36.57.73.86,1.09,1.14,1.45,2.28,2.9,3.39,4.38.11.15.22.3.34.45,2.52,3.37,4.95,6.8,7.29,10.31-36.1-2.3-71.18-13.03-102.26-31.37-30.03-17.72-55.75-42.13-75.05-71.1.08,0,.17,0,.25.01,1.97.13,3.94.28,5.91.46ZM1179.63,998.59c36.23,2.35,70.84,12.67,100.94,30.2,29.54,17.21,54.69,41.38,73.57,70.48-34.4-2.32-67.68-12.65-99.13-30.81-32.3-18.65-57.1-41.61-75.37-69.87ZM979.33,1202.87c.21,1.86.38,3.71.54,5.57,3.42,41.38-4.27,83.5-23.1,121.52-22.63-45.71-29.17-97.36-19.64-146.51.21-1.03.4-2.07.62-3.1.05-.26.11-.52.17-.78,3.99-18.29,10.31-36.06,18.9-53.22,12.04,24.18,19.54,50.03,22.49,76.29,0,.08.01.15.02.23ZM312.44,1112.1c-.02-1.39-.02-2.77-.02-4.16,0-.4,0-.79,0-1.19.27-29.24,6.09-58.23,17.34-86.52.19-.46.37-.93.56-1.39.41-1.01.82-2.03,1.25-3.04.57-1.35,1.15-2.7,1.74-4.05.3-.69.61-1.39.93-2.08,16.1,31.42,24.72,65.98,25.05,101,.3,31.16-5.88,61.16-18.01,88.06-.13.29-.27.58-.4.86-.71,1.56-1.45,3.11-2.2,4.64-.48.97-.96,1.93-1.45,2.89-.23.44-.45.89-.68,1.33-15.29-30.25-23.37-62.22-24.09-95.32,0-.34-.01-.69-.02-1.03ZM218.45,877.98c-.4-.15-.8-.3-1.2-.45-8.34-3.16-16.84-5.86-25.46-8.1-.06-.02-.11-.03-.17-.05,20.79-5.4,40.89-13.48,59.68-24.1,19.69-11.13,37.68-24.92,53.52-40.9-11.21,42.19-11.08,86.68.38,128.66-16.02-15.58-34.39-29.15-54.65-40.25-10-5.48-20.38-10.28-31-14.38-.37-.14-.73-.29-1.1-.43ZM221.04,708.81c-30.57-17.64-55.39-40.99-74.07-69.51,34.19,2.62,67.59,12.85,97.45,29.96,25.63,14.79,50.59,38.42,76.02,71.99.03.05.06.11.08.16-2.39-.17-4.78-.37-7.15-.61-30.6-3.68-62.11-14.55-92.33-31.99ZM519.78,286.63c-.04-.54-.07-1.08-.1-1.63-2.12-39.25,5.72-78.94,23.55-114.94,21.39,43.2,28.39,91.7,21.06,138.38-3.64,22.27-10.68,43.89-21.09,64.65-13.15-26.37-20.89-54.73-23.21-83.44-.08-1.01-.15-2.02-.22-3.03ZM934.12,162.18c2.23-.21,4.49-.39,6.76-.54-4.99,7.9-10.31,15.38-15.95,22.42-16.5,19.18-36.07,35.65-57.95,48.56-30.95,18.26-65.86,28.96-101.77,31.31,18.2-28.3,43.65-51.68,77.38-71.15,21.1-12.18,40.66-20.45,61.1-25.49,9.97-2.37,20.13-4.08,30.44-5.1ZM1183.89,431.36c-3.56,19.69-9.72,39.22-18.4,58.45-15.92-31.32-24.43-65.86-24.77-100.99-.34-35.26,7.48-68.93,22.69-98.25,16.36,32.36,24.47,66.69,24.13,102.26-.12,12.85-1.34,25.68-3.64,38.44,0,.03-.01.06-.02.09ZM1278.95,790.61c31.1,17.96,56.16,41.49,74.74,70.08-34.47-2.7-68.08-13.08-98.12-30.45-13.21-7.63-25.13-15.87-35.84-24.77-13.89-11.97-26.33-25.57-37.01-40.52-.97-2.12-1.98-4.23-3.01-6.32,5.15.36,10.28.91,15.36,1.61,28.24,4.44,56.76,14.71,83.88,30.37ZM1185.23,1107.84c0,32.13-2.94,68.49-22.64,100.65-14.76-30.66-22.69-64.37-23.01-98.46-.33-36.1,7.93-71.85,23.99-104.25,2.02,4.08,3.91,8.2,5.67,12.36,10.61,26.76,15.98,56.81,15.98,89.7ZM523.66,1182.99c.22-1.11.44-2.23.69-3.34.09-.44.19-.88.29-1.33,3.99-17.81,10.18-35.13,18.54-51.85,15.9,32.08,24.15,67.45,23.99,103.21-.37,34.76-8.61,69.11-23.97,100.23-22.68-45.84-29.19-97.65-19.53-146.92ZM1333.05,619.51c-25.94-4.44-52.02-13.58-75.88-26.83-8.3-4.61-16.26-9.66-23.85-15.11-21.51-15.86-40.17-35.43-55.07-57.81,71.66,4.56,137.59,42.6,177.4,102.36-7.58-.49-15.12-1.38-22.59-2.61ZM1246.98,844.35c19.21,11.12,39.8,19.54,61.14,25.09-20.71,5.39-40.72,13.45-59.44,24.02-18.83,10.64-36.11,23.71-51.44,38.81,5.12-21.41,7.71-43.29,7.59-65.05-.11-20.58-2.64-40.82-7.46-60.23,4.13,3.95,8.46,7.78,12.98,11.5,11.36,9.68,23.6,18.36,36.62,25.86ZM918.55,1198.23c-.04.31-.08.61-.11.92-.06.51-.11,1.03-.17,1.55-.83,7.54-1.32,15.15-1.45,22.83-.01.71-.01,1.42-.02,2.13,0,.64-.02,1.28-.02,1.92h0v.02c-.03,21.67,2.82,43.18,8.39,63.97-30.5-31.58-67.89-53.31-110.34-64.12,22.14-5.77,43.13-14.61,62.82-26.47,17.1-10.3,33.11-22.94,47.62-37.52-3.07,11.4-5.32,23.03-6.73,34.78ZM253.02,655.68c-19.22-11.12-39.82-19.54-61.16-25.1,20.71-5.39,40.72-13.45,59.45-24.02,18.8-10.62,36.05-23.67,51.36-38.73-5.06,21.26-7.62,42.98-7.5,64.57.11,20.95,2.74,41.54,7.75,61.28-14.89-14.69-31.64-27.49-49.88-38ZM583.18,276.5c.02-1.35.03-2.69.03-4.04.03-21.68-2.82-43.21-8.39-64,30.43,31.51,67.73,53.22,110.05,64.06-22.05,5.68-42.93,14.35-62.49,25.97-17.01,10.11-32.92,22.54-47.35,36.87,5.06-19.16,7.81-38.93,8.14-58.86ZM1132.18,326.62c-5.49,19.94-8.41,41-8.61,62.64-.2,21.69,2.38,43.12,7.59,63.77-31.32-29.54-69-50.54-109.86-61.18,20.65-5.49,40.47-13.63,58.89-24.28,9.31-5.38,18.52-11.84,27.67-19.4,8.58-6.65,16.7-13.85,24.32-21.56ZM718.78,1197.24c.14.16.28.32.41.49,1.36,1.6,2.69,3.22,4.01,4.86.09.11.17.22.26.33,4.17,5.22,8.12,10.63,11.83,16.22-36.08-2.3-71.17-13.03-102.25-31.36-30.03-17.71-55.74-42.09-75.06-71.04,34.72,2.25,68.69,12.33,99.04,29.48,1.49.84,2.96,1.72,4.43,2.59.5.3,1,.58,1.5.88,1.3.79,2.58,1.6,3.86,2.41.73.47,1.47.92,2.2,1.4,1.24.81,2.47,1.64,3.7,2.47.74.5,1.48,1,2.21,1.5,1.23.85,2.44,1.72,3.65,2.59.7.5,1.39,1.01,2.08,1.52,1.23.91,2.46,1.84,3.67,2.77.62.48,1.23.96,1.84,1.45,1.27,1,2.53,2.01,3.78,3.04.47.39.93.78,1.4,1.17,1.37,1.15,2.74,2.3,4.09,3.49.05.05.1.09.15.14,6.62,5.83,12.9,12.03,18.82,18.59.09.1.19.2.28.31,1.39,1.55,2.76,3.12,4.12,4.71ZM722.28,298.49c-17.55,20.78-38.6,38.77-62.15,52.92-12.48,7.5-25.47,13.77-38.79,18.77-20.33,7.31-41.67,11.77-63.38,13.15,19.32-28.95,45.04-53.34,75.07-71.05,31.08-18.34,66.15-29.06,102.22-31.35-4.05,6.06-8.39,11.91-12.98,17.56ZM795.09,339.49c1,.87,2.01,1.73,3.02,2.58.04.03.08.06.11.1,1,.84,2.01,1.68,3.03,2.5.05.04.1.08.14.12,1.01.82,2.03,1.63,3.06,2.44.05.04.1.08.15.11,1.03.81,2.06,1.61,3.11,2.4.04.03.07.06.11.08,1.06.8,2.12,1.59,3.19,2.38.01,0,.02.02.04.03,7.7,5.63,15.73,10.83,24.06,15.54,18.72,10.58,38.73,18.65,59.44,24.05-15.79,4.11-31.18,9.79-45.9,16.97-.24.12-.49.23-.73.35-.7.34-1.39.7-2.09,1.05-.59.3-1.18.59-1.76.89-.2.11-.41.21-.61.32-3.4,1.75-6.76,3.59-10.08,5.5-2.35,1.36-4.68,2.76-6.99,4.19-16.67,10.31-31.77,22.19-45.02,35.36,5.7-20.99,8.64-42.73,8.64-64.63s-3-44.13-8.83-65.34c4.44,4.5,9.06,8.82,13.83,12.97.02.02.05.04.07.06ZM668.32,365.76c18.6-10.97,35.63-24.34,50.7-39.65-4.47,16.18-7.31,32.8-8.43,49.6-.33,4.84-.53,9.69-.58,14.55-.21,22.36,2.7,44.61,8.56,66.14-15.06-14.96-32.5-28.25-51.93-39.47-19.04-11.03-39.44-19.39-60.57-24.95,6.77-1.87,13.48-4.04,20.12-6.51,14.6-5.21,28.72-11.79,42.14-19.7ZM919.72,402.86c1.37-.22,2.74-.43,4.11-.63,1.32-.19,2.64-.37,3.97-.54.51-.06,1.01-.13,1.52-.19,1.98-.24,3.96-.45,5.95-.63.08,0,.17-.02.25-.02,1.56-.14,3.13-.25,4.69-.36-7.13,11.19-14.93,21.51-23.36,30.97-14.88,15.42-32.01,28.9-50.91,39.94-31.3,18.28-66.02,28.99-101.22,31.34,35.32-53.06,91.23-89.01,153.47-99.62.51-.09,1.03-.17,1.54-.25ZM980.68,998.17c-.04,1.52-.12,3.04-.2,4.56-1.19,23-5.82,45.67-13.67,67.23-2.85,7.73-6.11,15.32-9.8,22.72-.07.11-.14.22-.21.33-15.42-31.16-23.68-65.39-24.01-99.83-.02-1.97,0-3.93.03-5.9.01-.76.03-1.52.06-2.28.03-1.09.07-2.17.12-3.26,1.05-23.87,5.86-47.41,14.19-69.74.24-.65.5-1.31.75-1.96.53-1.38,1.07-2.76,1.63-4.13.46-1.12.92-2.24,1.39-3.35.28-.66.56-1.32.84-1.97.7-1.6,1.42-3.2,2.16-4.79.17-.37.34-.74.51-1.1.85-1.81,1.73-3.62,2.63-5.41.05-.1.1-.2.15-.31,14.5,26.56,23.51,65.14,23.51,102.55,0,2.18-.03,4.36-.09,6.54,0,.04,0,.07,0,.11ZM749.67,1209.87c-31.51-64.18-31.4-139.96.33-204.06,16.05,32.39,24.3,68.12,23.96,104.21-.02,2.04-.07,4.08-.14,6.11-1.28,32.41-9.56,64.44-24.15,93.73ZM588.18,1095.75c-1.82.36-3.66.7-5.49,1.02-1.34.23-2.69.46-4.04.67-.36.06-.72.12-1.08.17-2.1.31-4.2.6-6.31.86-.02,0-.05,0-.07,0-4.02.49-8.06.86-12.1,1.13,4-6.34,8.22-12.42,12.65-18.21,40.34-48.5,100.55-79.83,163.56-84.1-34,51.07-87.06,86.29-146.49,98.32-.21.04-.41.08-.62.12ZM522.24,1028.02c-.33-2.01-.62-4.02-.9-6.04-.13-.96-.25-1.92-.37-2.88-.12-.99-.24-1.97-.35-2.96-.16-1.46-.31-2.92-.44-4.38-.05-.56-.1-1.12-.15-1.67-.15-1.81-.28-3.62-.39-5.43-.03-.43-.05-.86-.07-1.29-.1-1.91-.19-3.82-.24-5.74,0-.28-.01-.57-.02-.85-.05-2.05-.08-4.1-.08-6.16h0c0-37.53,8.83-75.1,23.49-101.66,16.39,32.47,24.83,68.4,24.49,104.7-.31,33.56-8.07,66.8-22.52,97.16-.49.72-.96,1.45-1.44,2.18-.29-.45-.59-.9-.89-1.35-9.7-20.03-16.45-41.35-20.05-63.26-.02-.12-.04-.25-.06-.37ZM376.45,628.7c-.2-21.6-3.28-43.07-9.04-63.82,15.07,15.32,32.11,28.69,50.71,39.66,19.55,11.53,40.59,20.25,62.44,25.97-21.19,5.53-41.64,13.89-60.73,24.92-4.95,2.86-9.76,5.97-14.42,9.26-13.64,9.17-26.3,19.69-37.81,31.35,6.05-21.89,9.06-44.55,8.85-67.34ZM726.55,376.72c.03-.49.08-.98.12-1.47,2.25-29.59,10.25-58.66,23.52-85.39,31.63,64.24,31.57,140.15-.19,204.34-16.04-32.39-24.29-68.12-23.95-104.21.04-3.83.18-7.66.41-11.48.04-.6.06-1.2.1-1.8ZM978.92,479.44c.2,1.56.38,3.12.54,4.68.11,1.05.22,2.1.32,3.15.07.77.14,1.53.21,2.3.14,1.67.26,3.35.36,5.02.03.56.07,1.12.1,1.69.1,1.83.18,3.66.23,5.49.01.35.02.71.03,1.06.05,2.01.08,4.03.08,6.04h0c0,3.33-.07,6.65-.21,9.97,0,.17-.01.34-.02.51-.2,4.62-.54,9.23-1,13.8,0,.03,0,.05,0,.08-.23,2.27-.49,4.53-.78,6.78,0,.03,0,.06-.01.09-.37,2.88-.8,5.74-1.27,8.58-.09.53-.17,1.07-.26,1.6-.01.08-.03.17-.05.25-3.88,22.27-10.75,42.99-19.87,59.48-8.11-16.08-14.27-32.99-18.39-50.36-.07-.28-.14-.57-.2-.85-.44-1.89-.85-3.78-1.24-5.67-.08-.41-.17-.82-.25-1.22-.37-1.86-.72-3.72-1.05-5.59-.07-.39-.13-.77-.2-1.16-.33-1.94-.64-3.89-.92-5.84-.02-.15-.04-.3-.06-.45-.28-1.98-.53-3.96-.75-5.95-.02-.2-.05-.41-.07-.61-.23-2.09-.43-4.19-.61-6.29-.01-.15-.02-.29-.04-.44-.54-6.68-.78-13.4-.72-20.13.3-32.49,7.6-64.72,21.24-94.34.91-1.33,1.81-2.68,2.7-4.03.72,1.11,1.45,2.22,2.19,3.31,10,21.42,16.68,44.25,19.8,67.65.06.47.12.94.18,1.42ZM1132.53,565.05c-6.1,21.93-9.14,44.69-8.93,67.61.09,9.94.79,19.85,2.08,29.67,1.35,10.6,3.39,21.12,6.12,31.52-14.8-14.77-31.44-27.53-49.85-38.15-9.65-5.57-19.76-10.48-30.18-14.71-.04-.02-.08-.03-.11-.05-1.08-.44-2.15-.86-3.23-1.29-.52-.2-1.05-.4-1.57-.6-.6-.23-1.2-.46-1.81-.68-.92-.34-1.83-.68-2.75-1.01-.22-.08-.45-.16-.67-.24-6.93-2.47-13.96-4.65-21.08-6.5,20.63-5.5,40.58-13.79,59.7-24.84,5.17-2.99,10.17-6.24,15.01-9.69,13.44-9.11,25.92-19.52,37.27-31.04ZM841.39,1069.26s-.03-.02-.04-.02c-2.04-1.18-4.06-2.39-6.07-3.63-.74-.46-1.47-.93-2.2-1.4-1.27-.8-2.53-1.61-3.78-2.43-.86-.57-1.71-1.15-2.56-1.74-1.1-.75-2.2-1.51-3.29-2.28-.9-.63-1.79-1.28-2.67-1.93-1.02-.74-2.04-1.5-3.05-2.26-.91-.68-1.81-1.37-2.71-2.07-.97-.75-1.92-1.52-2.88-2.28-.9-.73-1.81-1.45-2.7-2.2-.92-.76-1.83-1.54-2.73-2.32-.9-.77-1.8-1.53-2.69-2.31-.87-.76-1.71-1.55-2.57-2.33-1.91-1.74-3.79-3.51-5.64-5.31-.59-.58-1.2-1.14-1.78-1.72-.98-.97-1.93-1.97-2.89-2.96-.67-.69-1.35-1.38-2.01-2.08-.95-1.01-1.88-2.03-2.81-3.05-.64-.7-1.29-1.41-1.92-2.12-.93-1.05-1.85-2.11-2.76-3.17-.6-.7-1.2-1.41-1.8-2.12-.92-1.1-1.83-2.2-2.73-3.32-.55-.68-1.09-1.37-1.63-2.06-.92-1.17-1.83-2.34-2.73-3.53-.46-.61-.92-1.23-1.37-1.85-.95-1.28-1.9-2.57-2.82-3.87-.27-.38-.52-.76-.79-1.14-1.04-1.49-2.08-2.99-3.09-4.51,36.09,2.3,71.17,13.02,102.26,31.36,22.19,13.09,42.02,29.84,58.67,49.37,5.34,6.72,10.39,13.81,15.12,21.3-34.89-2.29-68.96-12.54-99.36-30.04,0,0,0,0,0,0ZM522.2,860.53c-.77-.07-1.54-.13-2.3-.2-1.23-.12-2.46-.26-3.69-.4-1.14-.13-2.27-.26-3.41-.41-.81-.1-1.61-.22-2.42-.34-1.7-.24-3.4-.49-5.09-.77-.19-.03-.38-.06-.56-.09-27.16-4.58-54.03-14.18-78.11-28.12-32.93-19.06-57.25-42.05-75.63-71.57,25.22,1.75,50.49,7.62,73.94,17.09,8.66,3.58,17.12,7.69,25.31,12.32,22.26,12.57,42.2,28.79,59.06,47.87,6.64,7.9,12.6,16.25,17.81,25.03-.12,0-.24-.01-.36-.02-1.51-.1-3.03-.23-4.54-.36ZM414.1,678.14c4.47-3.01,9.04-5.89,13.72-8.59,0,0,0,0,.01,0,30.79-17.82,65.33-28.22,100.73-30.42-.02.03-.04.06-.06.09-.91,1.37-1.85,2.71-2.79,4.06-.4.58-.8,1.16-1.21,1.74-.99,1.39-2.01,2.77-3.03,4.14-.37.49-.73.99-1.1,1.48-1.08,1.43-2.18,2.84-3.29,4.24-.31.39-.62.77-.93,1.16-1.19,1.48-2.4,2.95-3.63,4.4-.2.24-.4.47-.6.7-17.41,20.39-38.28,37.66-61.7,50.89-30.04,16.97-63.64,27.01-97.99,29.4,15.61-20.79,36.48-45.2,61.85-63.27ZM529.86,439.18c.19-.59.36-1.17.56-1.76.1-.3.2-.59.29-.89,3.14-9.42,6.94-18.68,11.37-27.77.39-.59.76-1.19,1.15-1.78.28.43.56.86.85,1.28,12.48,25.65,19.94,52.72,22.35,80.03.04.54.09,1.08.13,1.62.08.99.14,1.97.21,2.96.26,4.07.42,8.15.46,12.23.31,33.03-6.6,65.7-20.11,95.72-.17.38-.34.76-.52,1.14-.42.93-.85,1.86-1.29,2.78-.77,1.61-1.55,3.22-2.35,4.81-.07.15-.15.3-.22.44-14.67-26.6-23.5-64.42-23.5-102.31,0-1.56.04-3.12.07-4.67.53-21.72,4.11-43.22,10.57-63.84ZM916.77,504.92c-.06,6.73.16,13.45.66,20.14.02.28.04.56.06.83.07.94.15,1.87.24,2.81.05.53.09,1.06.14,1.6.07.76.15,1.53.23,2.29.07.7.15,1.4.23,2.09.07.65.15,1.29.23,1.94.1.81.2,1.62.31,2.43.07.56.15,1.12.23,1.68.12.89.25,1.77.39,2.66.08.5.15,1,.23,1.5.15.94.3,1.87.46,2.8.08.46.15.92.23,1.38.17.97.35,1.93.53,2.9.08.43.16.87.24,1.3.19.98.39,1.96.59,2.94.09.42.17.84.26,1.26.21.98.42,1.95.64,2.93.09.42.18.85.28,1.27.21.9.42,1.79.64,2.69.4,1.67.82,3.34,1.26,5.01.03.11.05.21.08.32.31,1.18.64,2.35.97,3.52.04.15.08.29.12.44.06.2.11.41.17.61-14.61-14.6-30.84-27.17-48.59-37.58-19.36-11.36-40.06-19.86-61.94-25.44,22.19-5.71,42.94-14.46,62.07-26.2,17-10.44,32.52-23.09,46.47-37.88-4.72,18.85-7.23,38.26-7.42,57.78ZM1061.13,662.74c4.15,2.05,8.24,4.23,12.26,6.53,30.15,17.41,54.34,45.11,74.37,72.04-24.9-1.87-49.81-7.72-72.95-17.1-8.57-3.56-16.94-7.62-25.04-12.2-22.22-12.55-42.14-28.74-58.99-47.79-6.67-7.92-12.66-16.31-17.89-25.12.18.01.36.03.54.04,29.83,2.01,60.61,10.3,87.7,23.59ZM916.79,989.35c-.02,1.54-.02,3.08,0,4.63,0,.93.05,1.85.07,2.78,0,.28.01.57.02.85.44,18.38,2.92,36.63,7.38,54.38-13.96-14.71-29.52-27.28-46.57-37.62-19.08-11.56-39.82-20.17-62.03-25.79,21.86-5.68,42.56-14.3,61.96-25.84,17.47-10.39,33.79-23.21,48.53-38.04-6.02,21.02-9.2,42.76-9.35,64.64ZM398.6,750.04c20.73-5.39,40.76-13.46,59.5-24.04,19.86-11.22,38-25.14,53.94-41.3-5.83,21.21-8.83,43.2-8.83,65.34s2.95,43.76,8.68,64.8c-15.21-15.78-33.12-29.53-53.29-40.78-13.22-7.37-27.08-13.52-41.38-18.39-6.13-2.12-12.35-4-18.63-5.64ZM1101.4,749.98c-20.73,5.39-40.76,13.46-59.5,24.04-19.86,11.22-38,25.14-53.94,41.3.13-.48.26-.97.39-1.45,0-.03.01-.05.02-.08,5.56-20.74,8.42-42.2,8.42-63.82s-2.95-43.76-8.69-64.81c15.22,15.79,33.13,29.54,53.3,40.8,12.99,7.24,26.6,13.3,40.63,18.14,6.37,2.22,12.83,4.19,19.36,5.89ZM942.04,877.91c-19.33,28.95-45.05,53.33-75.08,71.04-31.07,18.33-66.13,29.05-102.21,31.37,4.66-6.98,9.7-13.69,15.08-20.11,17.11-19.71,37.4-36.82,59.99-50.39,11.93-7.17,24.34-13.22,37.06-18.11,20.86-7.7,42.82-12.36,65.16-13.79ZM583.22,509.56c.01-1.54.02-3.07,0-4.61-.18-19.51-2.7-38.91-7.42-57.76,13.95,14.78,29.46,27.43,46.46,37.86,19.14,11.75,39.89,20.5,62.08,26.21-21.89,5.59-42.59,14.08-61.95,25.44-17.71,10.39-33.91,22.92-48.49,37.48,6.03-21.03,9.19-42.77,9.32-64.62ZM971.37,815.04s-.02.07-.03.1c-.61,2.07-1.25,4.14-1.91,6.2-.03.08-.05.17-.08.25-2,6.14-4.26,12.21-6.79,18.19-.09.22-.19.45-.28.67-.78,1.83-1.58,3.65-2.41,5.46-.13.29-.26.57-.4.86-.83,1.8-1.68,3.59-2.56,5.37-.04.07-.07.14-.11.21-15.4-31.2-23.65-65.66-23.97-100.52-.33-36.08,7.92-71.82,23.96-104.21,25.86,52.24,30.72,112.25,14.57,167.41ZM537.56,659.97c.03-.06.05-.12.08-.18.84-1.97,1.71-3.94,2.6-5.89.05-.12.11-.24.16-.36.9-1.96,1.83-3.91,2.79-5.84,0,0,0-.02.01-.02,15.4,31.2,23.65,65.66,23.97,100.52.33,36.08-7.92,71.82-23.96,104.21-29.83-60.27-31.71-130.86-5.65-192.43ZM557.96,622.12c19.32-28.95,45.04-53.34,75.07-71.05,31.04-18.31,66.05-29.02,102.06-31.34-19.74,27.89-45.42,51.81-74.97,69.68-24.53,14.83-51.02,24.92-78.1,29.88-7.95,1.35-15.98,2.31-24.06,2.83ZM773.77,621.05c.04.83.07,1.66.09,2.49.05,1.56.09,3.13.11,4.7,0,.25.01.5.01.74.02,2.12,0,4.24-.04,6.36,0,.13,0,.26,0,.38-.71,33.74-8.91,67.01-23.94,97.35-.09-.18-.18-.36-.27-.54-.75-1.52-1.48-3.05-2.19-4.59-.28-.6-.55-1.19-.83-1.79-.71-1.56-1.4-3.12-2.08-4.69-.23-.55-.46-1.1-.69-1.65-.69-1.65-1.37-3.3-2.02-4.96-.15-.39-.3-.78-.45-1.17-.6-1.55-1.18-3.11-1.75-4.67-.14-.38-.28-.76-.42-1.14-.63-1.76-1.23-3.53-1.81-5.3-.14-.44-.29-.87-.43-1.31-.57-1.78-1.13-3.57-1.66-5.37-.12-.39-.23-.79-.34-1.18-.54-1.87-1.06-3.74-1.56-5.61-.06-.24-.12-.47-.18-.71-.5-1.91-.97-3.83-1.41-5.76-.03-.13-.06-.26-.09-.4-.45-1.98-.88-3.96-1.28-5.95-.06-.29-.12-.59-.18-.88-.38-1.93-.74-3.87-1.07-5.82-.06-.32-.11-.65-.16-.97-.33-1.96-.63-3.92-.91-5.89-.04-.25-.07-.5-.1-.75-.27-1.99-.52-3.99-.75-5.99,0-.08-.02-.17-.03-.25-.22-1.97-.4-3.95-.56-5.92-.03-.39-.07-.78-.1-1.17-.14-1.83-.26-3.67-.36-5.51-.03-.54-.06-1.07-.08-1.61-.08-1.75-.14-3.5-.19-5.26-.01-.64-.02-1.27-.03-1.91-.02-1.38-.03-2.76-.02-4.14,0-.42,0-.84,0-1.26,0-.63.02-1.27.03-1.9.02-.96.04-1.91.07-2.86.05-1.63.12-3.26.2-4.89.03-.51.05-1.02.08-1.53,1.8-30.95,9.85-61.36,23.6-89.21,13.7,27.74,21.74,58.04,23.59,88.9.07,1.2.13,2.39.19,3.59ZM936.43,860.43c-1.14-.1-2.27-.22-3.4-.34-1.05-.11-2.09-.22-3.14-.34-1.15-.14-2.29-.29-3.43-.44-1.03-.14-2.05-.27-3.08-.42-1.15-.17-2.3-.36-3.45-.55-1.01-.16-2.02-.32-3.03-.5-1.16-.2-2.32-.43-3.47-.65-.99-.19-1.98-.37-2.97-.58-1.17-.24-2.33-.5-3.5-.76-.97-.22-1.95-.42-2.92-.65-1.17-.27-2.33-.57-3.5-.87-.96-.24-1.92-.47-2.87-.73-1.17-.31-2.34-.65-3.51-.97-.94-.26-1.88-.52-2.81-.8-1.18-.35-2.35-.72-3.52-1.09-.92-.29-1.84-.56-2.76-.86-1.18-.38-2.35-.79-3.52-1.2-.9-.31-1.8-.61-2.7-.93-1.19-.42-2.36-.87-3.54-1.32-.87-.33-1.75-.64-2.62-.98-1.2-.47-2.38-.96-3.57-1.45-.84-.34-1.68-.67-2.52-1.03-1.22-.52-2.43-1.06-3.64-1.6-.79-.35-1.59-.69-2.38-1.05-1.29-.59-2.56-1.2-3.83-1.82-.7-.34-1.41-.66-2.11-1-1.47-.72-2.93-1.48-4.38-2.23-.49-.26-1-.5-1.49-.76-1.95-1.03-3.88-2.08-5.8-3.17-2.11-1.19-4.2-2.43-6.28-3.69-.64-.39-1.26-.79-1.89-1.18-1.43-.89-2.85-1.78-4.25-2.7-.75-.49-1.49-.99-2.23-1.49-1.28-.85-2.55-1.71-3.8-2.59-.77-.54-1.53-1.08-2.29-1.63-1.22-.88-2.43-1.76-3.64-2.66-.75-.56-1.5-1.12-2.24-1.69-1.21-.93-2.42-1.88-3.61-2.83-.7-.56-1.39-1.11-2.08-1.67-1.28-1.04-2.54-2.11-3.79-3.18-.58-.5-1.17-.98-1.74-1.48-1.58-1.38-3.15-2.79-4.69-4.21-.22-.21-.45-.4-.68-.61-1.8-1.68-3.58-3.38-5.33-5.12-.28-.28-.55-.56-.82-.84-1.43-1.43-2.85-2.88-4.25-4.36-.49-.52-.98-1.06-1.47-1.58-1.16-1.25-2.32-2.51-3.46-3.79-.54-.61-1.07-1.22-1.6-1.83-1.07-1.23-2.14-2.48-3.19-3.73-.53-.63-1.05-1.27-1.58-1.91-1.04-1.28-2.07-2.57-3.09-3.88-.48-.62-.97-1.24-1.45-1.87-1.07-1.4-2.12-2.81-3.16-4.24-.4-.54-.8-1.08-1.19-1.62-1.22-1.71-2.42-3.44-3.6-5.19-.18-.27-.37-.53-.55-.79-.11-.17-.21-.34-.32-.5,36.09,2.29,71.18,13.02,102.27,31.35,6.51,3.84,12.8,8.01,18.89,12.45,20.97,15.79,39.34,35.43,54.25,58.43-.16-.01-.32-.02-.48-.03-1.06-.08-2.12-.16-3.17-.25ZM710.01,871.34c.19,20.91,3.06,41.68,8.44,61.78-15.85-15.91-33.87-29.64-53.59-40.7-18.26-10.25-37.75-18.12-57.92-23.47,20.18-5.39,39.69-13.31,57.97-23.64,19.77-11.17,37.84-25.04,53.73-41.1-5.59,20.48-8.51,41.63-8.63,62.92-.01,1.4-.01,2.81,0,4.21ZM564.04,639.63c1.71.16,3.41.34,5.11.54.55.06,1.1.11,1.64.18,2.25.27,4.5.58,6.75.92.47.07.93.16,1.4.23,1.77.28,3.54.57,5.3.89.78.14,1.56.3,2.34.45,1.44.28,2.89.55,4.32.86.88.18,1.75.39,2.62.58,1.34.3,2.67.6,4,.92.91.22,1.83.46,2.74.69,1.28.33,2.56.66,3.84,1,.93.25,1.86.52,2.79.79,1.25.36,2.5.72,3.74,1.1.94.29,1.87.58,2.8.88,1.23.39,2.45.79,3.68,1.2.93.31,1.86.63,2.79.96,1.22.43,2.43.87,3.64,1.32.92.34,1.84.68,2.75,1.03,1.21.47,2.42.95,3.63,1.44.9.36,1.8.72,2.69,1.1,1.22.51,2.44,1.04,3.66,1.58.86.38,1.72.75,2.58,1.14,1.26.57,2.51,1.17,3.76,1.76.8.38,1.6.75,2.4,1.14,1.37.67,2.72,1.37,4.08,2.06.66.34,1.33.67,1.99,1.02,2.01,1.06,4,2.14,5.98,3.26,2.11,1.19,4.19,2.42,6.26,3.68.67.41,1.33.83,2,1.25,1.39.86,2.77,1.73,4.14,2.62.78.51,1.55,1.03,2.32,1.55,1.24.83,2.48,1.67,3.7,2.52.8.56,1.59,1.13,2.39,1.7,1.18.85,2.36,1.71,3.52,2.58.79.59,1.57,1.18,2.35,1.78,1.17.89,2.32,1.8,3.47,2.72.74.59,1.49,1.19,2.23,1.79,1.2.98,2.39,1.99,3.57,2.99.66.56,1.32,1.11,1.97,1.68,1.41,1.23,2.8,2.49,4.18,3.76.39.36.8.71,1.19,1.08,1.76,1.64,3.5,3.31,5.21,5.01.44.44.87.89,1.32,1.34,1.26,1.27,2.51,2.54,3.74,3.83.61.65,1.21,1.31,1.82,1.96,1.04,1.12,2.07,2.24,3.08,3.38.64.72,1.28,1.46,1.91,2.19.95,1.1,1.9,2.21,2.84,3.32.64.76,1.27,1.53,1.9,2.3.91,1.12,1.82,2.26,2.71,3.4.61.78,1.22,1.55,1.81,2.34.9,1.18,1.79,2.38,2.67,3.58.55.76,1.11,1.51,1.66,2.27.96,1.34,1.89,2.7,2.82,4.06.39.57.78,1.12,1.16,1.69-71.57-4.55-134.82-41.51-174.3-101.63.3.02.59.04.89.07.83.07,1.66.12,2.49.2ZM656.4,650.13c-.72-.37-1.43-.74-2.15-1.1-.51-.26-1.02-.5-1.54-.76-.69-.34-1.38-.68-2.07-1.02-.54-.26-1.09-.52-1.64-.77-.67-.31-1.33-.63-2-.94-.56-.26-1.13-.51-1.69-.77-.66-.3-1.31-.6-1.97-.89-.58-.25-1.15-.5-1.73-.75-.65-.28-1.3-.57-1.95-.84-.59-.25-1.18-.49-1.78-.74-.64-.27-1.29-.54-1.93-.8-.6-.24-1.2-.48-1.8-.71-.64-.25-1.29-.51-1.93-.76-.61-.23-1.21-.46-1.82-.69-.65-.24-1.29-.49-1.94-.73-.61-.22-1.22-.44-1.84-.66-.65-.23-1.29-.46-1.94-.69-.62-.22-1.24-.42-1.86-.64-.65-.22-1.29-.44-1.94-.65-.62-.21-1.24-.4-1.87-.6-.65-.21-1.31-.42-1.96-.63-.62-.19-1.24-.38-1.86-.57-.66-.2-1.32-.4-1.98-.6-.62-.18-1.24-.36-1.87-.54-.66-.19-1.33-.38-1.99-.57-.62-.17-1.25-.34-1.87-.51-.67-.18-1.33-.36-2-.53-.04,0-.08-.02-.11-.03,22.04-5.72,43.25-14.48,62.96-26.11,18.58-10.96,35.61-24.32,50.67-39.61-5.73,20.71-8.78,42.15-8.98,63.74-.04,4.3.04,8.59.23,12.88,0,.05,0,.1,0,.14.06,1.31.13,2.63.21,3.94.02.35.05.7.07,1.05.07,1.01.13,2.02.21,3.03.04.53.09,1.05.13,1.58.07.84.14,1.67.22,2.51.06.63.13,1.27.19,1.9.07.73.15,1.46.23,2.19.08.7.16,1.41.25,2.11.08.66.16,1.32.24,1.98.1.75.2,1.49.3,2.24.08.62.17,1.23.26,1.85.11.77.23,1.54.35,2.31.09.6.19,1.19.28,1.79.13.77.26,1.55.39,2.32.1.59.21,1.18.31,1.78.14.77.28,1.54.43,2.31.11.6.23,1.2.35,1.79.15.76.3,1.51.46,2.26.13.61.26,1.22.39,1.83.16.73.32,1.46.48,2.19.14.64.29,1.28.44,1.92.16.7.33,1.39.5,2.09.16.67.33,1.35.5,2.02.17.66.33,1.31.5,1.97.19.72.38,1.44.57,2.16.1.39.2.77.31,1.16-.29-.29-.59-.58-.88-.87-.52-.52-1.04-1.04-1.56-1.55-.47-.46-.95-.93-1.42-1.39-.52-.51-1.05-1.01-1.58-1.52-.48-.46-.96-.91-1.44-1.36-.53-.5-1.07-1-1.61-1.49-.49-.45-.97-.89-1.46-1.33-.54-.49-1.09-.98-1.63-1.46-.49-.44-.99-.88-1.49-1.31-.55-.48-1.1-.96-1.65-1.43-.5-.43-1.01-.86-1.51-1.29-.56-.47-1.12-.94-1.68-1.41-.51-.42-1.02-.84-1.53-1.26-.57-.46-1.14-.92-1.71-1.38-.51-.41-1.02-.82-1.54-1.23-.58-.46-1.17-.91-1.75-1.37-.51-.4-1.03-.8-1.54-1.19-.59-.45-1.19-.9-1.79-1.35-.52-.39-1.03-.77-1.55-1.15-.61-.45-1.22-.89-1.83-1.33-.52-.37-1.03-.75-1.55-1.11-.62-.44-1.25-.88-1.88-1.32-.51-.36-1.03-.72-1.55-1.07-.64-.44-1.29-.87-1.93-1.3-.51-.34-1.02-.69-1.54-1.03-.67-.44-1.34-.87-2.02-1.31-.5-.32-.99-.65-1.49-.96-.71-.45-1.42-.89-2.14-1.33-.47-.29-.94-.59-1.42-.88-.79-.48-1.58-.95-2.38-1.43-.41-.24-.81-.49-1.21-.73-1.2-.71-2.41-1.41-3.63-2.09-1.17-.66-2.35-1.31-3.53-1.96-.38-.21-.77-.41-1.15-.61-.8-.43-1.6-.86-2.4-1.28-.48-.25-.96-.49-1.43-.74ZM916.77,752.17c.19,21.41,3.06,42.56,8.42,62.92-11.29-11.4-23.69-21.7-37.01-30.73-4.26-2.96-8.6-5.79-13.05-8.47-19.22-11.59-40-20.36-61.72-26.15,21.57-5.73,42.33-14.37,61.65-25.76,18.36-10.83,35.21-23.99,50.14-39.07-5.78,21.74-8.65,44.37-8.45,67.26ZM750,970.93c-15.39-31.16-23.65-65.51-23.99-100.22-.26-35.95,8-71.52,23.98-103.76,16.01,32.3,24.27,67.94,23.99,103.93-.33,34.6-8.59,68.9-23.99,100.05ZM614.23,802.24c6.06-4.43,12.34-8.58,18.82-12.41,31.02-18.29,66-29,102-31.33-39.42,58.99-104.31,96.79-175.02,102.03,14.9-22.94,33.25-42.54,54.2-58.29ZM583.23,747.16c-.19-21.09-2.98-41.93-8.21-62.01,14.87,14.97,31.64,28.05,49.9,38.82,19.33,11.4,40.09,20.04,61.67,25.76-21.72,5.79-42.51,14.56-61.74,26.15-4.39,2.65-8.68,5.44-12.89,8.36-13.5,9.14-26.06,19.59-37.48,31.16,5.98-22.05,8.95-45.03,8.74-68.25ZM765.15,740.97c39.33-58.6,103.85-96.19,174.16-101.56-39.46,60.06-102.65,96.98-174.16,101.56ZM835.09,654.71c-19.82,11.2-37.92,25.1-53.84,41.22,5.63-20.51,8.59-41.71,8.74-63.06.01-1.4.01-2.8,0-4.2-.2-21.41-3.19-42.67-8.83-63.21,15.51,15.69,33.11,29.3,52.35,40.38,19.09,11,39.53,19.36,60.7,24.91-20.6,5.39-40.5,13.43-59.13,23.95ZM657.01,907.44c31.42,17.76,58.24,42.78,78.27,72.88-36.08-2.31-71.16-13.04-102.25-31.37-30.03-17.71-55.75-42.08-75.06-71.01,34.72,2.27,68.69,12.35,99.04,29.5ZM831.69,895.49c-18.59,10.97-35.62,24.33-50.69,39.64,5.73-20.72,8.78-42.17,8.98-63.77.01-1.4.01-2.8,0-4.2-.14-21.34-3.11-42.55-8.77-63.1.19.19.39.38.58.57.67.68,1.35,1.35,2.03,2.02.33.32.66.64.98.96.67.65,1.34,1.3,2.02,1.94.34.33.69.65,1.03.98.67.63,1.34,1.25,2.01,1.87.36.33.72.66,1.09.99.67.61,1.34,1.21,2.01,1.8.37.33.75.66,1.13.99.67.59,1.35,1.17,2.02,1.75.39.33.77.66,1.16.99.68.57,1.35,1.14,2.04,1.7.4.33.79.66,1.19.98.68.56,1.36,1.11,2.05,1.65.41.33.81.65,1.22.98.69.54,1.38,1.08,2.07,1.61.41.32.83.64,1.24.96.7.53,1.4,1.06,2.1,1.58.42.31.83.62,1.25.93.71.52,1.43,1.04,2.14,1.55.42.3.83.6,1.25.9.72.51,1.46,1.02,2.19,1.53.42.29.83.58,1.25.87.75.51,1.5,1.01,2.25,1.52.41.27.82.55,1.23.82.78.51,1.57,1.02,2.35,1.53.39.25.78.5,1.17.75.84.53,1.68,1.05,2.52,1.58.35.21.69.43,1.03.64.98.6,1.96,1.18,2.95,1.77.22.13.43.26.65.39,1.21.71,2.43,1.42,3.66,2.11,3.48,1.97,7.01,3.85,10.58,5.64.14.07.29.14.43.21,1.05.52,2.09,1.04,3.15,1.55.26.13.53.25.79.38.93.45,1.87.89,2.8,1.32.39.18.79.36,1.18.54.81.37,1.63.74,2.44,1.11.45.2.9.39,1.35.58.77.33,1.53.67,2.3,1,.5.21,1,.41,1.49.62.73.3,1.45.61,2.18.9.54.22,1.07.43,1.61.64.69.28,1.39.56,2.08.83.56.22,1.13.43,1.7.64.68.26,1.35.52,2.03.76.57.21,1.14.41,1.71.62.68.24,1.35.49,2.03.73.6.21,1.21.41,1.81.62.65.22,1.29.45,1.94.66.63.21,1.27.41,1.91.62.62.2,1.25.41,1.88.61.64.2,1.28.39,1.92.59.63.19,1.25.39,1.88.58.65.19,1.3.38,1.95.56.62.18,1.24.36,1.87.54.66.19,1.32.36,1.99.54.62.17,1.23.34,1.85.5.04.01.08.02.12.03-7.68,2.12-15.29,4.63-22.79,7.51-13.69,5.05-26.94,11.32-39.57,18.78ZM842.98,592.59c-31.42-17.76-58.24-42.78-78.27-72.87,36.08,2.3,71.16,13.02,102.24,31.35,30.03,17.71,55.74,42.08,75.06,71.02-34.72-2.27-68.69-12.35-99.03-29.5ZM583.22,994.01c.22-23.5-2.97-46.83-9.39-69.28,14.74,14.84,31.06,27.67,48.54,38.06,19.41,11.54,40.12,20.18,61.98,25.86-22.22,5.61-42.96,14.22-62.04,25.78-17.05,10.33-32.61,22.9-46.57,37.61,4.76-18.93,7.3-38.43,7.48-58.03ZM735.25,502.73c-58.11-3.95-113.82-30.91-153.77-73.12-7.76-8.9-14.97-18.54-21.59-28.93,70.86,5.07,135.92,42.89,175.36,102.06ZM1072.17,830.19s-.01,0-.02,0c-30.74,17.83-65.25,28.26-100.6,30.53.89-1.33,1.8-2.64,2.72-3.96.41-.58.8-1.17,1.21-1.75.99-1.39,2-2.76,3.02-4.13.37-.5.74-1,1.11-1.49,1.08-1.42,2.17-2.83,3.28-4.22.31-.4.63-.79.94-1.18,1.19-1.47,2.39-2.93,3.61-4.38.21-.25.42-.49.63-.73,17.41-20.39,38.27-37.65,61.69-50.88,30.37-17.15,64.36-27.24,99.1-29.49-14.34,21.59-32.27,40.59-52.91,56.19-7.42,5.44-15.33,10.6-23.78,15.47ZM528.47,622.12c-6.18-.39-12.33-1.06-18.44-1.94-29.02-4.53-57.46-14.96-83.67-30.8-29.54-17.85-55.2-41.75-74.92-69.63,71.52,4.68,137.3,42.71,177.03,102.37ZM789.9,1114.11c.04-1.54.08-3.07.09-4.61.21-22.5-2.76-44.93-8.74-66.63,4.12,4.17,8.38,8.18,12.79,12.04.01.01.03.02.04.03,2,1.76,4.03,3.48,6.09,5.17.03.02.05.04.08.06,2.05,1.68,4.13,3.33,6.23,4.95.03.02.06.05.1.07,2.1,1.61,4.23,3.19,6.39,4.74.04.03.07.05.11.07,2.16,1.54,4.34,3.06,6.55,4.53.03.02.06.04.09.06,2.21,1.48,4.45,2.92,6.72,4.33.02.01.04.03.06.04,2.27,1.41,4.57,2.79,6.89,4.12,0,0,.01,0,.02,0,18.68,10.81,38.65,19.07,59.35,24.62-21.15,5.92-41.71,14.74-61.07,26.3-18.41,10.99-35.39,24.19-50.5,39.16,5.26-19.23,8.21-39.08,8.71-59.09ZM1148.81,980.27c-71.61-4.6-137.49-42.64-177.28-102.35,22.54,1.44,44.68,6.16,65.71,13.98,12.49,4.85,24.69,10.82,36.42,17.88,23.98,14.43,45.39,32.83,63.13,54.12,4.24,5.28,8.25,10.74,12.02,16.37ZM1081.88,895.49c-12.07-7.12-24.7-13.16-37.74-18.09-8.02-3.16-16.16-5.89-24.38-8.17,21.07-5.55,41.41-13.9,60.4-24.88,8.17-4.71,16.02-9.89,23.56-15.48,10.23-7.36,19.61-15.24,28.15-23.67-5.69,21.3-8.51,43.33-8.31,65.48.05,5.22.27,10.43.65,15.63,1.16,16.54,3.98,32.9,8.38,48.84-15.07-15.31-32.11-28.68-50.71-39.65ZM1141.82,662.32c-6.17-45.12.98-91.61,21.48-133.11,15.89,32.1,24.1,67.51,23.83,103.31-.26,34.73-8.42,69.05-23.7,100.13-10.9-22.16-18.19-45.94-21.61-70.33ZM1088.25,581.4c-34.11,23.62-74.41,38-116.72,40.71,20.03-30.09,46.86-55.1,78.28-72.85,30.03-16.97,63.6-27,97.94-29.4-15.13,20.13-35.19,43.66-59.51,61.54ZM989,571.43c.15-.6.29-1.2.44-1.8.14-.59.29-1.17.43-1.77.2-.83.38-1.66.57-2.49.11-.47.22-.94.32-1.42.28-1.29.56-2.58.82-3.88.1-.51.2-1.03.3-1.54.16-.82.32-1.63.48-2.45.11-.58.21-1.16.31-1.73.14-.76.27-1.52.41-2.29.1-.6.2-1.21.3-1.82.12-.74.24-1.49.36-2.23.1-.62.18-1.23.27-1.85.11-.74.22-1.49.32-2.23.09-.62.17-1.24.25-1.87.1-.74.19-1.49.28-2.24.08-.62.15-1.25.22-1.87.09-.75.17-1.51.25-2.26.07-.62.13-1.25.19-1.87.07-.76.14-1.52.21-2.28.06-.62.11-1.24.16-1.87.06-.77.12-1.54.18-2.31.04-.61.09-1.22.13-1.84.05-.79.1-1.59.14-2.38.03-.59.07-1.18.1-1.77.04-.83.07-1.66.11-2.5.02-.56.05-1.11.07-1.67.03-.92.05-1.84.07-2.76.01-.47.03-.93.03-1.4.02-1.39.04-2.77.04-4.16h0c0-1.42,0-2.82-.03-4.22,0-.21-.01-.41-.01-.62-.02-1.21-.05-2.42-.09-3.63,0-.15-.01-.31-.02-.46-.04-1.28-.1-2.55-.16-3.82,0-.05,0-.1,0-.15-.84-16.61-3.35-33.06-7.44-49.12,15.7,15.71,33.49,29.29,52.92,40.27,17.3,9.77,35.7,17.39,54.72,22.75-19.05,5.17-37.43,12.54-54.64,22.01-19.49,10.72-37.31,24.04-53.01,39.53ZM430.31,430.42c29.49-16.83,62.34-26.92,95.92-29.56-38.4,58.49-100.79,94.7-172.13,99.85,19.86-28.9,45.92-53,76.21-70.29ZM461.52,485.17c18.08-10.66,34.7-23.6,49.46-38.39-4.89,18.77-7.48,38.07-7.73,57.81-.02,1.42-.04,2.84-.03,4.27,0,22.71,3.12,45.56,8.77,66.38-16.96-17.59-34.26-31.41-52.22-41.79-17.77-10.26-36.95-18-57.4-23.21,20.68-5.72,40.58-14.12,59.15-25.08ZM374.01,834.24c-1.28-9.31-3.09-18.57-5.44-27.72,14.71,14.62,31.23,27.28,49.5,37.82,18.85,10.89,39.44,19.27,60.69,24.86-20.59,5.49-40.45,13.7-59,24.49-9.57,5.53-19.03,12.19-28.43,20.02-8.57,6.7-16.68,13.95-24.29,21.71,6.39-22.41,9.58-45.71,9.36-69.17-.1-10.73-.91-21.42-2.4-32.01ZM399.92,927.39c36.44-28.83,81.24-46.45,128.55-49.48-20.03,30.09-46.85,55.1-78.27,72.85-30.27,17.1-64.14,27.17-98.77,29.47,16.29-21.63,32.35-39.14,48.49-52.84ZM511.01,927.58c-2.18,8.61-3.92,17.55-5.21,26.67-.02.14-.04.27-.06.41-.15,1.11-.3,2.22-.44,3.33-.04.28-.07.57-.11.85-.12,1.01-.24,2.01-.35,3.02-.04.39-.09.79-.13,1.18-.1.93-.19,1.85-.28,2.78-.05.49-.09.97-.14,1.46-.08.86-.15,1.71-.22,2.57-.05.57-.09,1.14-.13,1.71-.06.79-.12,1.58-.17,2.37-.04.65-.08,1.3-.12,1.96-.04.72-.08,1.44-.12,2.17-.04.74-.06,1.48-.09,2.22-.03.64-.06,1.29-.08,1.93-.03.88-.05,1.76-.07,2.64-.01.51-.03,1.02-.04,1.54-.02,1.4-.04,2.79-.04,4.19h0c0,1.38,0,2.77.03,4.15,0,.44.02.88.03,1.32.02.95.04,1.9.07,2.85.01.42.03.83.05,1.25.04.99.07,1.97.12,2.96.02.32.04.63.05.95.06,1.1.12,2.19.19,3.29.01.18.03.37.04.55.09,1.24.18,2.49.28,3.73,0,.03,0,.05,0,.08,1.19,14.09,3.57,28.03,7.11,41.67-15.75-15.82-33.61-29.48-53.15-40.52-17.63-9.96-36.4-17.69-55.83-23.06,19.44-5.24,38.19-12.78,55.76-22.51,19.48-10.79,37.3-24.18,53-39.73ZM664.88,1132.26c-18.72-10.58-38.73-18.64-59.44-24.04.14-.04.28-.08.41-.11,1.07-.28,2.14-.57,3.21-.87.22-.06.44-.12.65-.18,1.14-.32,2.27-.64,3.4-.98.16-.05.32-.09.48-.14,1.18-.35,2.36-.71,3.53-1.08.12-.04.24-.07.36-.11,1.21-.38,2.41-.77,3.61-1.17.1-.03.19-.06.29-.1,1.21-.4,2.41-.82,3.62-1.24.1-.03.19-.07.29-.1,1.19-.42,2.37-.85,3.56-1.28.11-.04.23-.08.35-.13,1.14-.42,2.28-.86,3.42-1.3.16-.06.32-.12.48-.18,1.07-.42,2.14-.85,3.21-1.28.23-.09.46-.18.68-.28.97-.4,1.93-.8,2.9-1.21.33-.14.65-.28.98-.42.82-.35,1.64-.72,2.46-1.08.47-.21.94-.41,1.41-.63.62-.28,1.24-.57,1.86-.85.66-.31,1.33-.61,1.99-.92.35-.17.71-.34,1.06-.51,5.75-2.75,11.41-5.71,16.95-8.91,2.47-1.43,4.91-2.89,7.33-4.4,16.55-10.27,31.53-22.08,44.7-35.16-5.7,20.99-8.64,42.73-8.64,64.63s3,44.12,8.83,65.33c-15.93-16.15-34.07-30.07-53.92-41.29ZM1038.49,1014.85c-18.2,10.73-34.91,23.75-49.74,38.65,4.68-17.75,7.35-36.04,7.9-54.49.09-2.8.14-5.6.14-8.4,0-22.86-3.12-45.83-8.76-66.72,17.05,17.79,34.34,31.69,52.19,42.01,18.15,10.49,37.63,18.38,58.28,23.65-20.99,5.72-41.19,14.21-60.02,25.31ZM345.47,549.21c.18.47.36.94.53,1.41.33.89.66,1.79.98,2.69.52,1.48,1.04,2.96,1.53,4.44.15.44.29.88.43,1.32,7.32,22.46,11.22,45.99,11.44,69.72.33,35.98-7.88,71.62-23.84,103.94-.04.09-.09.18-.13.26-15.4-31.21-23.65-65.67-23.97-100.54-.33-36.06,7.9-71.77,23.92-104.14,3.38,6.82,6.42,13.8,9.1,20.9ZM336.3,766.86c.67,1.02,1.35,2.03,2.04,3.05,9.39,19.96,15.89,41.19,19.29,62.94.03.16.05.33.08.49.23,1.5.43,3,.63,4.51.14,1.08.29,2.16.42,3.25.07.57.13,1.13.19,1.7,4.73,43.17-2.68,87.33-22.24,126.93-15.89-32.1-24.11-67.51-23.84-103.31.26-34.52,8.32-68.62,23.43-99.55ZM839.82,1148.04c31.08-18.32,66.14-29.04,102.22-31.33-19.33,28.94-45.05,53.31-75.08,71.02-31.08,18.33-66.15,29.05-102.21,31.36,19.32-28.95,45.04-53.34,75.07-71.05ZM1046.57,1028.85c29.54-17.2,63.42-27.45,98.92-30.06-19.83,28.72-45.76,52.72-75.84,70-29.62,17.02-62.58,27.19-96.2,29.82,18.83-28.78,43.82-52.7,73.12-69.76ZM1140.21,885.6c-.03-.4-.07-.81-.1-1.21-.02-.24-.02-.49-.04-.73-.26-4.13-.42-8.26-.46-12.41-.33-36.08,7.92-71.82,23.97-104.2,15.4,31.21,23.66,65.67,23.98,100.53.33,35.95-7.86,71.56-23.79,103.85-13.31-26.81-21.33-56.02-23.56-85.83ZM974.17,400.58c33.81,2.59,66.84,12.57,96.41,29.27,30.52,17.24,56.68,41.34,76.51,70.29-68.92-5.16-132.77-41.96-172.93-99.56ZM842.99,353.83c-1.06-.6-2.1-1.23-3.15-1.84-.96-.56-1.93-1.12-2.88-1.69-1.1-.67-2.19-1.36-3.28-2.05-.94-.59-1.88-1.18-2.81-1.78-1.08-.71-2.16-1.43-3.23-2.15-.91-.62-1.83-1.23-2.73-1.86-1.07-.74-2.13-1.5-3.18-2.26-.88-.64-1.76-1.28-2.63-1.92-1.06-.79-2.11-1.58-3.15-2.38-.84-.65-1.67-1.3-2.5-1.96-1.05-.83-2.1-1.67-3.14-2.52-.78-.64-1.54-1.29-2.31-1.94-1.06-.9-2.13-1.79-3.18-2.71-.63-.56-1.25-1.13-1.88-1.69-4.02-3.6-7.92-7.34-11.68-11.22-.49-.5-.98-1-1.46-1.5-1.08-1.13-2.13-2.28-3.19-3.44-.55-.6-1.1-1.19-1.64-1.79-1.03-1.15-2.04-2.32-3.05-3.49-.53-.62-1.06-1.23-1.58-1.85-1.01-1.2-2.01-2.41-2.99-3.63-.48-.6-.96-1.2-1.43-1.8-1.01-1.27-2.01-2.55-2.99-3.85-.4-.52-.78-1.05-1.18-1.58-1.04-1.4-2.07-2.8-3.08-4.22-.21-.29-.41-.6-.62-.89-1.13-1.61-2.24-3.22-3.33-4.85,36.07,2.3,71.15,13.03,102.24,31.37,30.01,17.71,55.73,42.08,75.06,71.01-34.72-2.26-68.69-12.35-99.03-29.5ZM480.48,392.03c-20.53,5.39-40.37,13.41-58.94,23.9-18.51,10.46-35.52,23.27-50.65,38.05,10.25-40.16,10.47-82.86.6-123.84,14.05,13.64,29.7,25.64,46.64,35.64,13.31,7.85,27.31,14.39,41.79,19.58,6.78,2.54,13.64,4.76,20.55,6.68ZM526.58,1099.51c-34.07-2.49-67.35-12.5-97.15-29.34-30.77-17.38-57.12-41.75-77.02-71.03,69.67,5.03,134.09,42.19,174.17,100.36ZM575.37,1290.3c4.97-19.35,7.61-39.3,7.8-59.39,0-.92,0-1.84,0-2.77.08-21.89-2.8-43.65-8.47-64.69,14.52,14.58,30.53,27.24,47.63,37.54,19.46,11.72,40.18,20.49,62.03,26.26-22.25,5.52-42.98,14-62.02,25.39-17.23,10.3-32.91,22.89-46.97,37.65ZM1078.46,1084.1c18.33-10.36,35.2-23.03,50.23-37.63-5.05,20.27-7.59,41.32-7.5,62.66.09,20.33,2.54,40.57,7.22,60.2-14.11-13.41-29.75-25.31-46.59-35.38-19.34-11.57-39.86-20.39-60.97-26.33,20.05-5.39,39.43-13.27,57.6-23.53ZM1256.56,668.66c29.58-16.71,62.61-26.7,96.41-29.29-18.66,28.41-43.47,51.69-74.02,69.31,0,0,0,0,0,0-31.58,18.24-65.77,29-99.75,31.5,19.93-29.49,46.41-54.04,77.36-71.53ZM1248.06,654.49c-19.49,11.09-37.34,24.86-53.1,40.82,11.39-42.34,11.35-87.02-.11-129.18,8.99,8.79,18.71,16.96,29.09,24.42,7.9,5.82,16.15,11.17,24.73,16.02,18.49,10.44,38.23,18.43,58.67,23.82-20.67,5.4-40.64,13.49-59.29,24.1ZM1099.38,334.43c-36.31,28.5-80.86,45.92-127.87,48.92,39.74-59.67,105.51-97.69,177.04-102.36-16.52,21.94-32.81,39.65-49.17,53.44ZM877.63,298.46c-19.41-11.54-40.13-20.17-61.99-25.84,22.22-5.62,42.97-14.23,62.06-25.81,17.2-10.42,32.86-23.12,46.91-37.98-4.99,19.41-7.64,39.44-7.83,59.61-.03,3.17,0,6.33.1,9.49.41,19.41,3.14,38.68,8.07,57.39-14.42-14.32-30.32-26.75-47.32-36.86ZM464.54,369.99c-13.1-4.97-25.87-11.16-38.15-18.54-23.77-14.29-45.01-32.47-62.66-53.48-1.52-1.88-3.02-3.78-4.48-5.71-1.52-3.71-3.14-7.4-4.84-11.05,34.23,2.64,67.59,12.93,97.4,30.18,0,0,.01,0,.02,0,30.8,17.73,57.08,42.43,76.68,71.95-21.92-1.4-43.46-5.92-63.97-13.35ZM242.18,592.58c-29.85,16.79-63.33,26.8-97.71,29.34,20.02-30.01,46.8-54.95,78.16-72.67,29.19-16.49,61.73-26.42,95.07-29.16-17.64,29.61-43.51,54.49-75.52,72.49ZM244,830.83c-29.93,17.15-63.38,27.29-97.58,29.69,18.55-28.38,43.57-51.8,74.62-69.73,31.29-18.06,65.41-28.73,99.57-31.23-19.93,29.36-46.15,53.82-76.61,71.28ZM563.28,1330.85c18.62-25.62,42.38-47.31,69.73-63.45,30.73-18.13,65.36-28.81,101.02-31.27-18.33,28.06-44.04,51.75-76.66,70.59-34.14,19.72-63.91,29.37-99,31.67,1.6-2.56,3.24-5.07,4.91-7.54ZM1257.82,907.35c29.86-16.78,63.34-26.78,97.74-29.31-20.03,30.04-46.82,55-78.2,72.73-29.21,16.5-61.77,26.43-95.13,29.17,17.64-29.66,43.53-54.58,75.59-72.59ZM314.74,391.95c0-32.02,2.94-68.28,22.66-100.43,14.78,30.67,22.71,64.39,23.02,98.49.33,36.1-7.93,71.85-23.99,104.25-.69-1.4-1.35-2.82-2.02-4.23-13.05-28.85-19.67-61.75-19.67-98.09ZM319.88,998.32c-39.97,58.06-104.22,95.19-173.74,100.35,18.33-28.32,42.96-51.2,74.85-69.62,30.32-17.35,64.17-27.83,98.88-30.73ZM367.34,1173.91c5.78-20.41,8.87-42.02,9.08-64.24.2-21.18-2.26-42.13-7.22-62.34,31.05,29.18,68.31,49.98,108.73,60.64-20.45,5.44-40.01,13.47-58.12,23.93-14.65,8.47-28.94,19.39-43.06,32.95-3.21,2.94-6.35,5.95-9.4,9.05ZM1278.99,470.43c-30.27,17.47-65,28.26-99.48,31.08,19.54-28.68,45.37-52.76,75.51-70.19,30.12-17.42,63.84-27.82,98.43-30.46-18.48,28.31-43.43,51.67-74.45,69.57h0ZM977.76,308.99c-3.66,22.06-10.66,43.48-20.96,64.06-14.86-29.97-23.04-62.84-23.93-96.26-.04-2.05-.05-4.1-.03-6.15.32-34.86,8.57-69.32,23.97-100.52,0,.01.01.03.02.04,21.44,43.34,28.4,92.01,20.93,138.83ZM762.71,224.23c-.1.32-.21.64-.32.95-.49,1.5-1,2.99-1.52,4.47-.36,1.01-.72,2.02-1.09,3.03-.29.78-.58,1.56-.88,2.35-2.64,6.92-5.61,13.72-8.91,20.37-16.04-32.38-24.29-68.1-23.96-104.17.32-34.86,8.58-69.33,24-100.54,26.82,54.19,31.05,116.72,12.68,173.54ZM144.35,877.91c15.14.98,30.13,3.45,44.74,7.34.21.06.41.11.61.17,1.6.43,3.18.88,4.77,1.35.88.26,1.76.52,2.64.79.98.3,1.96.61,2.94.92,1.05.34,2.1.68,3.15,1.03,1.2.4,2.4.81,3.59,1.23.61.21,1.21.43,1.82.65,12,4.36,23.66,9.7,34.83,16.01,31.43,17.75,58.26,42.77,78.3,72.88-.02,0-.03,0-.05,0-53.33-3.41-103.49-25.38-142.06-61.03-7.09-6.76-13.69-13.74-19.74-20.66-5.53-6.56-10.73-13.45-15.53-20.67ZM491.62,1159.49c-38.36,34.8-87.86,56.23-140.48,59.58,1.8-2.7,3.66-5.33,5.57-7.94,10.01-12.73,20-23.94,30.05-33.69,38.53-35.48,88.55-57.33,141.74-60.72-1.54,2.31-3.12,4.57-4.74,6.81-10.71,13.71-21.39,25.67-32.14,35.97ZM744.65,1256.15c.66-1.55,1.35-3.09,2.05-4.63.36-.8.73-1.59,1.1-2.38.34-.72.69-1.45,1.03-2.17.38-.79.77-1.59,1.16-2.38,16.05,32.39,24.31,68.12,23.97,104.21-.32,34.87-8.58,69.33-24,100.54-29.76-60.12-31.7-130.51-5.83-191.97.17-.41.34-.81.52-1.22ZM975.15,1122.04c-1.24-1.76-2.46-3.54-3.66-5.33,36.08,2.29,71.16,13,102.25,31.33,26.08,15.38,48.9,35.79,67.11,59.85,1.51,3.68,3.09,7.34,4.76,10.94-34.23-2.64-67.6-12.92-97.42-30.18,0,0-.01,0-.02,0-13.11-7.55-25.4-16.38-36.71-26.29-12.14-11.28-24.2-24.67-36.32-40.31ZM1370.91,855.08c-21.19-32.88-50-60.4-83.95-80-19.23-11.1-39.84-19.51-61.19-25.07,21.35-5.56,41.95-13.96,61.18-25.06,33.98-19.61,62.8-47.16,84-80.06,31.28,68.21,31.27,146.13-.03,210.19ZM1369.51,611.19c-19.33-25.49-47.88-56.63-83.71-77.29-17.83-10.28-37.32-17.99-58.32-23.11,20.73-5.55,40.74-13.8,59.46-24.6,33.95-19.59,62.76-47.1,83.96-79.97,31.63,64.85,31.18,144.02-1.39,204.97ZM1277.38,310.74c31.71,17.87,58.73,43.15,78.81,73.59-37.67,2.21-74.57,13.02-107.49,31.61-20.09,11.35-38.42,25.46-54.49,41.86,1.68-6,3.14-12.03,4.37-18.07.01-.07.03-.13.04-.2.24-1.17.47-2.35.69-3.52.03-.15.06-.31.09-.46.21-1.13.41-2.27.61-3.4.03-.17.06-.35.09-.52.19-1.14.38-2.29.56-3.43.02-.14.04-.27.06-.41.19-1.21.36-2.41.53-3.62,0-.03,0-.07.01-.1,1.45-10.46,2.23-20.97,2.33-31.52.37-38.78-8.49-76.14-26.33-111.26,35.13,2.12,69.49,12.2,100.12,29.47ZM1070.57,190.76c31.6,17.8,58.54,42.95,78.6,73.23-39.38,2.04-76,12.69-109.03,31.75-17.9,10.32-35.16,24.11-52.08,41.66,4.66-17.07,7.49-34.63,8.4-52.37,0-.02,0-.05,0-.07.06-1.18.11-2.37.15-3.55,0-.22.02-.44.03-.65.04-1.08.06-2.17.08-3.25,0-.3.02-.6.02-.9.02-1.37.04-2.74.04-4.11h0c0-2.13-.04-4.24-.09-6.35-.01-.47-.02-.94-.03-1.41-.06-1.87-.14-3.74-.25-5.6-.04-.71-.08-1.41-.12-2.12-.11-1.72-.23-3.44-.38-5.16-.07-.84-.15-1.68-.23-2.52-.13-1.35-.27-2.7-.42-4.05-.13-1.2-.28-2.4-.43-3.6-.13-1.02-.26-2.04-.4-3.05-.21-1.5-.43-3-.67-4.5-.14-.91-.29-1.83-.44-2.74-.25-1.47-.51-2.94-.79-4.41-.19-.99-.37-1.98-.57-2.97-.22-1.12-.46-2.24-.7-3.35-.19-.9-.4-1.79-.6-2.69-.36-1.58-.73-3.15-1.12-4.72-.19-.76-.38-1.52-.58-2.28-.43-1.66-.87-3.32-1.34-4.97-.22-.79-.45-1.58-.68-2.37-.44-1.51-.89-3.01-1.36-4.51-.29-.94-.59-1.88-.9-2.82-.32-.97-.63-1.95-.96-2.92-.49-1.46-1-2.92-1.53-4.37-.31-.87-.63-1.74-.96-2.61-.57-1.54-1.16-3.08-1.76-4.61-.28-.7-.56-1.4-.85-2.1-.59-1.46-1.2-2.91-1.82-4.36-.26-.61-.52-1.22-.79-1.83-.72-1.64-1.46-3.28-2.21-4.91-.18-.39-.35-.77-.54-1.16-.89-1.9-1.81-3.78-2.76-5.66-.08-.16-.15-.32-.23-.47,35.18,2.09,69.59,12.17,100.28,29.45ZM944.05,145.38c-38.86,2.01-76.88,13.21-110.65,32.72-19.23,11.1-36.79,24.76-52.28,40.47,5.86-21.26,8.88-43.3,8.88-65.5,0-7.24-.33-14.47-.96-21.66-.02-.28-.05-.56-.08-.84-.12-1.26-.24-2.53-.38-3.79-3.06-29.84-11.32-58.6-24.4-84.76,70.4,3.96,133.45,40.19,179.87,103.35ZM633.04,73.52c31.41-18.52,66.88-29.27,103.35-31.39-1.43,2.85-2.78,5.73-4.1,8.62-.13.28-.25.56-.37.83-.92,2.04-1.81,4.09-2.67,6.15-.15.36-.3.72-.45,1.07-.84,2.05-1.66,4.1-2.45,6.17-.12.31-.24.63-.36.94-1.35,3.59-2.62,7.21-3.81,10.85-.08.25-.16.5-.24.74-.69,2.16-1.36,4.32-1.99,6.5-.12.4-.23.8-.34,1.2-.59,2.06-1.15,4.13-1.69,6.2-.1.39-.2.79-.3,1.18-.57,2.27-1.12,4.55-1.63,6.83-.04.17-.08.35-.12.52-.83,3.77-1.58,7.56-2.24,11.37-.05.27-.09.54-.14.81-.38,2.27-.74,4.54-1.06,6.82-.04.29-.08.59-.12.88-.33,2.38-.62,4.76-.88,7.15-.01.14-.03.27-.04.41-.84,7.88-1.32,15.81-1.39,23.76-.21,22.82,2.79,45.51,8.81,67.4-15.01-15.23-31.98-28.51-50.49-39.43-.1-.06-.21-.12-.32-.18-1.79-1.05-3.59-2.07-5.4-3.08-.33-.18-.66-.37-.99-.55-1.82-1-3.66-1.97-5.51-2.93-.38-.2-.77-.4-1.15-.59-1.85-.94-3.71-1.86-5.58-2.75-.36-.17-.71-.34-1.07-.5-1.93-.91-3.88-1.8-5.83-2.66-.22-.1-.44-.19-.66-.29-1.99-.87-3.99-1.71-6-2.52-.12-.05-.24-.1-.36-.15-2.04-.82-4.1-1.61-6.16-2.38-.3-.11-.6-.23-.9-.34-2-.73-4.01-1.44-6.03-2.12-.34-.12-.69-.23-1.03-.35-2.02-.67-4.06-1.33-6.1-1.95-.3-.09-.59-.18-.89-.27-2.12-.64-4.25-1.25-6.38-1.83-.1-.03-.21-.05-.31-.08-2.15-.58-4.3-1.13-6.46-1.65-.18-.04-.36-.09-.55-.13-2.12-.51-4.26-.98-6.39-1.43-.33-.07-.66-.14-.99-.21-2.09-.43-4.18-.83-6.28-1.21-.35-.06-.7-.12-1.06-.19-2.12-.37-4.24-.72-6.37-1.03-.27-.04-.54-.08-.81-.12-4.47-.65-8.97-1.17-13.49-1.58-.27-.02-.54-.05-.81-.07-2.15-.18-4.3-.34-6.45-.46-.2-.01-.4-.03-.6-.04,19.39-29.34,45.32-54.04,75.66-71.93ZM426.16,192.68c31.39-18.54,66.83-29.32,103.25-31.48-16.89,33.43-25.59,69.9-26.13,106.47-.02.86-.03,1.73-.03,2.59,0,.28,0,.55,0,.83,0,.46-.01.92-.01,1.37,0,22.03,2.97,43.9,8.74,65.01-16.97-17.6-34.25-31.43-52.16-41.77-32.95-19.03-69.49-29.7-108.81-31.8,19.35-29.01,45.1-53.46,75.16-71.21ZM322.65,281.22c-17.19,34.25-26.22,72.2-26.22,110.63,0,21.87,2.93,43.59,8.62,64.56-8.92-8.85-18.75-17.1-29.53-24.78-7.23-5.3-14.75-10.24-22.56-14.74-20.33-11.76-42.19-20.49-64.85-26.02-.47-.12-.94-.23-1.41-.34-1.7-.4-3.4-.79-5.11-1.16-.85-.18-1.69-.36-2.54-.53-1.19-.24-2.39-.48-3.58-.7-1.09-.2-2.17-.4-3.26-.59-1.44-.25-2.88-.49-4.33-.72-.46-.07-.92-.15-1.38-.22-6.78-1.02-13.61-1.76-20.47-2.21,39.48-60.22,103.8-97.7,176.62-103.17ZM129.09,406.19c20.86,32.27,49.06,59.43,82.2,78.98,19.53,11.52,40.54,20.23,62.36,25.95-20.56,5.23-40.37,13-58.84,23.19-34.18,18.86-63.22,45.77-84.66,78.34-15.72-31.54-24.14-66.73-24.47-102.6-.33-36.27,7.74-71.86,23.41-103.86ZM128.78,644.47c21.22,33.09,50.14,60.78,84.26,80.47,19.23,11.1,39.84,19.51,61.19,25.07-21.35,5.56-41.95,13.96-61.17,25.06-33.82,19.52-62.53,46.9-83.7,79.6-31.48-68.14-31.67-146.05-.57-210.21ZM130.48,887.78c5.12,6.76,10.86,13.9,17.18,21.13,7.15,8.49,14.87,16.49,23.09,23.95,12.98,12.13,27.53,23.54,43.43,32.72,18.13,10.46,37.81,18.31,58.86,23.53-20.92,5.55-41.12,13.85-59.99,24.74-33.8,19.5-62.5,46.85-83.67,79.52-31.92-64.97-31.57-144.45,1.1-205.58ZM222.65,1188.81c-31.63-17.74-58.57-42.85-78.61-73.12,37.6-2.24,74.41-13.04,107.26-31.6,19.9-11.24,38.06-25.2,54.03-41.39-5.73,20.88-8.72,42.02-8.92,63.25-.02,2.51,0,5.02.05,7.52,0,.29.01.58.02.87.04,1.5.09,2.99.16,4.48,1.42,34.52,10.17,67.8,26.15,99.24-35.18-2.1-69.54-12.11-100.14-29.27ZM429.43,1309.21c-31.65-17.84-58.63-43.06-78.7-73.42,38.9-2.12,76.38-13.08,109.14-32.01,13.99-8.08,27.67-18.44,41.19-31.19,3.79-3.4,7.48-6.91,11.06-10.53-2.85,10.34-5.02,20.86-6.51,31.5-.03.21-.06.42-.09.63-.13.92-.25,1.84-.36,2.77-.08.6-.15,1.19-.22,1.79-.07.57-.13,1.13-.19,1.7-.1.87-.19,1.75-.28,2.62-.03.32-.06.65-.09.97-.1,1.07-.2,2.14-.29,3.21-.01.17-.03.35-.04.52-.1,1.19-.19,2.38-.26,3.57,0,.11-.01.22-.02.33-.08,1.24-.15,2.48-.21,3.72,0,.12,0,.24-.02.36-.06,1.22-.11,2.45-.15,3.67,0,.24-.01.47-.02.71-.03,1.12-.06,2.24-.08,3.36,0,.31,0,.62,0,.93-.01,1.05-.03,2.09-.03,3.14,0,.06,0,.11,0,.17,0,1.94.03,3.87.08,5.8.02.67.03,1.34.05,2.01.05,1.62.13,3.24.21,4.86.05,1.05.11,2.11.18,3.16.04.67.1,1.33.15,1.99.15,2.06.32,4.11.52,6.16,0,.08.02.16.02.24,2.98,30.17,11.51,59.62,25.2,86.73-35.15-2.1-69.54-12.18-100.21-29.48ZM555.96,1354.61c38.86-2.01,76.87-13.22,110.64-32.72,19.22-11.1,36.79-24.75,52.27-40.46-1.57,5.67-2.93,11.4-4.08,17.18-.02.1-.04.21-.06.31-.23,1.16-.45,2.33-.67,3.5-.04.2-.07.39-.11.59-.2,1.09-.39,2.18-.57,3.27-.05.29-.1.57-.14.86-.17,1.01-.32,2.02-.48,3.04-.06.38-.11.76-.17,1.15-.14.93-.27,1.85-.39,2.78-.07.49-.13.99-.19,1.48-.11.82-.21,1.64-.3,2.46-.08.64-.15,1.28-.22,1.92-.08.68-.15,1.37-.22,2.05-.08.83-.16,1.66-.24,2.49-.05.5-.09.99-.14,1.49-.1,1.12-.18,2.24-.26,3.36-.01.21-.03.42-.05.63-.39,5.64-.59,11.31-.59,16.98,0,4.59.14,9.17.39,13.74.03.64.07,1.29.11,1.93.06.91.13,1.82.19,2.72,2.34,32.63,10.86,64.15,25.11,92.61-70.4-3.96-133.45-40.2-179.84-103.36ZM866.98,1426.49c-31.41,18.52-66.9,29.28-103.37,31.42,12.17-24.24,20.26-50.36,24-77.17l.02-.18c1.45-10.47,2.26-21.04,2.36-31.65.21-22.83-2.79-45.52-8.82-67.42,15.02,15.22,31.99,28.51,50.5,39.43.25.15.5.28.75.43,1.56.91,3.12,1.8,4.7,2.68.47.26.93.52,1.4.78,1.72.94,3.46,1.86,5.2,2.76.49.25.98.5,1.47.75,1.77.9,3.55,1.78,5.34,2.63.43.21.86.41,1.3.61,1.88.88,3.76,1.75,5.66,2.58.26.12.53.23.79.34,1.96.85,3.93,1.68,5.91,2.48.13.05.25.1.38.15,2.07.84,4.16,1.64,6.26,2.41.25.09.49.18.74.27,2.08.76,4.16,1.5,6.26,2.2.23.08.46.16.69.23,2.16.72,4.32,1.41,6.5,2.07.1.03.19.06.29.09,18.58,5.61,37.83,9.04,57.34,10.16-19.4,29.33-45.34,54.03-75.67,71.92ZM1073.84,1307.28c-31.4,18.55-66.86,29.32-103.3,31.47,16.34-32.36,25.03-67.57,26.09-102.97,0-.06,0-.12,0-.18.03-.89.05-1.78.07-2.67.04-1.78.07-3.57.07-5.35,0-22.19-3.02-44.22-8.87-65.48,4.26,4.32,8.67,8.5,13.24,12.49,12.83,11.86,25.81,21.55,39.05,29.2,33.28,19.21,69.87,29.96,108.97,32.02-19.36,29.13-45.17,53.66-75.32,71.47ZM1177.35,1218.82c17.19-34.25,26.23-72.21,26.23-110.64,0-22.19-3.02-44.22-8.87-65.47,15.48,15.7,33.05,29.34,52.29,40.42,32.72,18.94,69.43,30.05,107.04,32.51-39.5,60.19-103.85,97.68-176.68,103.18ZM1370.57,1093.38c-20.83-32.06-48.92-59.06-81.9-78.51-19.59-11.55-40.65-20.28-62.54-26,20.62-5.27,40.51-13.13,59.07-23.45,34.16-18.98,63.19-46.01,84.66-78.67,15.71,31.52,24.14,66.61,24.46,102.32.33,36.39-7.85,72.14-23.76,104.31Z"/></svg>