<?xml version="1.0" encoding="UTF-8"?><svg id="Layer_2" xmlns="http://www.w3.org/2000/svg" xmlns:xlink="http://www.w3.org/1999/xlink" viewBox="0 0 1500 1500"><defs><style>.cls-1{fill:url(#New_Gradient_Swatch_2);stroke-width:0px;}</style><linearGradient id="New_Gradient_Swatch_2" x1="146.08" y1="1098.67" x2="1353.92" y2="401.33" gradientUnits="userSpaceOnUse"><stop offset="0" stop-color="#56450d"/><stop offset=".21" stop-color="#e5c787"/><stop offset=".39" stop-color="#f7d976"/><stop offset=".99" stop-color="#725728"/></linearGradient></defs><path class="cls-1" d="M52.82,750c0,94.11,18.43,185.42,54.79,271.38,35.11,83.02,85.38,157.58,149.41,221.6s138.58,114.29,221.6,149.41c85.96,36.36,177.26,54.79,271.38,54.79s185.42-18.43,271.38-54.79c83.02-35.11,157.58-85.38,221.6-149.41,64.03-64.02,114.29-138.58,149.41-221.6,36.36-85.96,54.79-177.26,54.79-271.38s-18.43-185.42-54.79-271.38c-35.11-83.02-85.38-157.58-149.41-221.6-64.02-64.02-138.58-114.29-221.6-149.41-85.96-36.36-177.26-54.79-271.38-54.79s-185.42,18.43-271.38,54.79c-83.02,35.11-157.58,85.38-221.6,149.41-64.02,64.03-114.29,138.58-149.41,221.6-36.36,85.96-54.79,177.26-54.79,271.38ZM750,72.19c60.65,0,119.49,11.88,174.87,35.3,53.5,22.63,101.54,55.02,142.81,96.28,41.26,41.26,73.66,89.31,96.28,142.81,23.43,55.38,35.3,114.22,35.3,174.87s-11.88,119.49-35.3,174.87c-5.6,13.25-11.81,26.16-18.6,38.72-18.74-30.14-40.93-58.08-66.37-83.53-42.73-42.73-92.48-76.27-147.89-99.71-48.98-20.72-100.56-32.71-153.69-35.77-9.03-1.04-18.18-1.58-27.41-1.58s-18.38.54-27.41,1.58c-53.13,3.06-104.71,15.05-153.69,35.77-55.4,23.43-105.16,56.98-147.89,99.71-25.45,25.45-47.63,53.39-66.37,83.53-6.79-12.56-12.99-25.47-18.6-38.72-23.42-55.38-35.3-114.22-35.3-174.87s11.88-119.49,35.3-174.87c22.63-53.5,55.02-101.54,96.28-142.81,41.26-41.26,89.31-73.66,142.81-96.28,55.38-23.42,114.22-35.3,174.87-35.3ZM985.34,740.6c-2.32-59.39-26.52-114.89-68.79-157.15-13.95-13.95-29.35-25.94-45.85-35.82,18.38,5.12,36.45,11.43,54.17,18.92,53.5,22.63,101.54,55.02,142.81,96.28,23.76,23.76,44.57,49.77,62.27,77.77h-144.61ZM743.79,969.45c-56.32-1.55-109.03-24.21-149.03-64.21-39.9-39.91-62.55-92.47-64.19-148.64h213.22v212.84ZM759.79,756.6h209.64c-1.65,56.17-24.29,108.73-64.19,148.64-39.15,39.15-90.48,61.68-145.44,64.08v-212.71ZM905.24,594.76c39.24,39.24,61.78,90.73,64.09,145.84h-209.53v-209.24c5.44.12,10.87.33,16.28.64,48.77,5.74,93.91,27.51,129.16,62.77ZM743.79,531.29v209.31h-213.12c2.31-55.11,24.85-106.6,64.09-145.84,35.26-35.25,80.39-57.03,129.16-62.77,6.6-.37,13.22-.61,19.87-.7ZM583.45,583.45c-42.26,42.26-66.47,97.76-68.79,157.15h-144.61c17.71-28,38.52-54.01,62.27-77.77,41.26-41.26,89.31-73.66,142.81-96.28,17.72-7.5,35.8-13.8,54.17-18.92-16.5,9.88-31.9,21.87-45.85,35.82ZM514.56,756.6c1.65,60.44,25.96,117.02,68.89,159.95,15.76,15.76,33.36,28.99,52.31,39.53-20.6-5.41-40.84-12.3-60.63-20.67-53.5-22.63-101.54-55.02-142.81-96.28-25.1-25.1-46.91-52.71-65.24-82.53h147.48ZM916.55,916.55c42.93-42.93,67.24-99.51,68.89-159.95h147.48c-18.33,29.82-40.15,57.43-65.24,82.53-41.26,41.26-89.31,73.66-142.81,96.28-19.79,8.37-40.03,15.26-60.63,20.67,18.95-10.54,36.56-23.78,52.31-39.53ZM421.01,850.45c42.73,42.73,92.48,76.27,147.89,99.71,57.37,24.26,118.3,36.57,181.1,36.57s123.74-12.3,181.1-36.57c55.4-23.43,105.16-56.98,147.89-99.71,25.45-25.45,47.64-53.39,66.37-83.53,6.79,12.56,12.99,25.47,18.6,38.72,23.43,55.38,35.3,114.22,35.3,174.87s-11.88,119.49-35.3,174.87c-22.63,53.5-55.02,101.54-96.28,142.81-41.26,41.26-89.31,73.66-142.81,96.28-55.38,23.42-114.22,35.3-174.87,35.3s-119.49-11.88-174.87-35.3c-53.5-22.63-101.54-55.02-142.81-96.28s-73.66-89.31-96.28-142.81c-23.42-55.38-35.3-114.22-35.3-174.87s11.88-119.49,35.3-174.87c5.6-13.25,11.81-26.16,18.6-38.72,18.74,30.14,40.93,58.08,66.37,83.53ZM1231.67,268.33c62.56,62.56,111.68,135.41,145.99,216.52,35.52,83.97,53.53,173.18,53.53,265.14s-18.01,181.17-53.53,265.14c-34.31,81.11-83.42,153.96-145.99,216.52-62.56,62.56-135.41,111.68-216.52,145.99-22.63,9.57-45.65,17.86-68.99,24.88,49.39-22.96,94.02-54.21,132.84-93.03,42.73-42.73,76.27-92.48,99.71-147.89,24.26-57.37,36.57-118.3,36.57-181.1s-12.3-123.74-36.57-181.1c-7.05-16.67-15.02-32.82-23.87-48.42,8.85-15.61,16.83-31.76,23.87-48.42,24.26-57.37,36.57-118.3,36.57-181.1s-12.3-123.74-36.57-181.1c-23.43-55.4-56.98-105.16-99.71-147.89-42.1-42.1-91.02-75.28-145.45-98.66,27.68,7.74,54.9,17.25,81.6,28.54,81.11,34.31,153.96,83.42,216.52,145.99ZM268.33,268.33c62.56-62.56,135.41-111.68,216.52-145.99,26.7-11.29,53.92-20.81,81.6-28.54-54.42,23.38-103.35,56.56-145.45,98.66-42.73,42.73-76.27,92.48-99.71,147.89-24.26,57.37-36.57,118.3-36.57,181.1s12.3,123.74,36.57,181.1c7.05,16.67,15.02,32.82,23.87,48.42-8.85,15.61-16.83,31.76-23.87,48.43-24.26,57.37-36.57,118.3-36.57,181.1s12.3,123.74,36.57,181.1c23.43,55.4,56.98,105.16,99.71,147.89,38.82,38.82,83.45,70.06,132.84,93.03-23.34-7.02-46.36-15.31-68.99-24.88-81.11-34.31-153.96-83.42-216.52-145.99-62.56-62.56-111.68-135.41-145.99-216.52-35.52-83.97-53.53-173.18-53.53-265.14s18.01-181.17,53.53-265.14c34.31-81.11,83.42-153.96,145.99-216.52Z"/></svg>