<?xml version="1.0" encoding="UTF-8"?><svg id="Layer_2" xmlns="http://www.w3.org/2000/svg" xmlns:xlink="http://www.w3.org/1999/xlink" viewBox="0 0 1500 1500"><defs><style>.cls-1{fill:url(#New_Gradient_Swatch_2);stroke-width:0px;}</style><linearGradient id="New_Gradient_Swatch_2" x1="161.84" y1="1089.23" x2="1336.09" y2="411.27" gradientUnits="userSpaceOnUse"><stop offset="0" stop-color="#56450d"/><stop offset=".21" stop-color="#e5c787"/><stop offset=".39" stop-color="#f7d976"/><stop offset=".99" stop-color="#725728"/></linearGradient></defs><path class="cls-1" d="M1350.13,462c0-54.43-44.28-98.71-98.71-98.71-17.58,0-34.09,4.62-48.4,12.71-11.66-14.04-24.01-27.59-37.04-40.61-54.05-54.05-116.98-96.48-187.06-126.12-42.07-17.79-85.65-30.49-130.34-38.03-.77-53.77-44.74-97.27-98.69-97.27s-97.91,43.5-98.69,97.26c-44.72,7.54-88.34,20.24-130.44,38.05-70.08,29.64-133.02,72.07-187.06,126.12-12.78,12.78-24.9,26.06-36.36,39.8-14.4-8.22-31.05-12.92-48.78-12.92-54.43,0-98.71,44.28-98.71,98.71,0,36.07,19.45,67.68,48.41,84.9-24.52,65.64-36.94,134.7-36.94,205.65s12.42,140.01,36.94,205.65c-28.96,17.22-48.41,48.83-48.41,84.9,0,54.43,44.28,98.71,98.71,98.71,17.73,0,34.38-4.7,48.78-12.92,11.46,13.75,23.58,27.03,36.36,39.8,54.04,54.05,116.98,96.48,187.06,126.12,42.43,17.95,86.41,30.71,131.49,38.22,2.45,52.26,45.74,94.02,98.59,94.02s96.33-41.95,98.61-94.37c44.38-7.56,87.67-20.2,129.46-37.88,70.08-29.64,133.02-72.07,187.06-126.12,13.27-13.27,25.84-27.09,37.7-41.41,13.6,7.07,29.03,11.08,45.39,11.08,54.43,0,98.71-44.28,98.71-98.71,0-34.93-18.24-65.68-45.7-83.23,24.08-65.11,36.27-133.56,36.27-203.87s-12.3-139.32-36.57-204.67c28.92-17.23,48.34-48.82,48.34-84.86ZM1154.68,346.7c12.31,12.31,23.98,25.09,35.04,38.32-7.51,6.03-14.12,13.13-19.59,21.07l-331.03-191.16c4.1-8.61,6.98-17.9,8.44-27.65,42.91,7.36,84.76,19.62,125.17,36.72,68.17,28.83,129.4,70.12,181.98,122.7ZM1183.68,1089.17l47.47-27.4c-9.65,14.95-20,29.44-31.04,43.46-6.19-4.57-11.72-9.98-16.43-16.06ZM300.51,1106.38c-11.4-14.4-22.08-29.31-32.01-44.7l47.89,27.66c-4.47,6.4-9.82,12.14-15.88,17.04ZM316.37,413.69l-47.82,27.6c9.92-15.36,20.58-30.24,31.96-44.62,6.05,4.9,11.39,10.63,15.86,17.01ZM930.73,1033l23.73-41.11,196.31,37.89c-.1,1.07-.18,2.14-.24,3.22h-219.81ZM346.86,1033c-.08-.91-.18-1.83-.29-2.73l198.66-38.27,23.67,41.01h-222.05ZM568.97,470.06l-23.66,40.99-198.73-38.26c.11-.9.2-1.81.29-2.72h222.11ZM1153.05,470.06c.07.9.16,1.8.26,2.69l-198.85,38.29-23.66-40.98h222.25ZM1191.46,518.87c-2.64-2.79-5.09-5.75-7.33-8.89l29.96-17.3-22.63,26.19ZM1180.95,531.03l-85.2,98.59c1.74-7.32,2.66-14.95,2.66-22.79,0-14.99-3.36-29.21-9.37-41.94l81.16-46.87c3.21,4.64,6.81,8.99,10.74,13.01ZM559.65,808.4l.6-1.04,1,2.88-1.6-1.84ZM548.56,795.61l-4.05-4.67,5.03-14.53,3.79,10.96-4.77,8.24ZM561.7,692.29l-1.37,3.95-.83-1.43,2.19-2.53ZM548.42,707.59l5,8.63-3.9,11.27-5.24-15.13,4.14-4.77ZM541.07,751.95l-8.66,25.04-22.1-25.47,21.88-25.22,8.88,25.65ZM558,751.95l6.03-17.43,9.95,17.18-10.06,17.37-5.93-17.12ZM570.94,714.54l16.46-47.58,26.7,15.42-30.88,53.35-12.28-21.19ZM547.78,674.56l-26.55-45.82,45.96,26.54c-5.36,7.45-11.92,13.97-19.41,19.28ZM526.14,708.86l-18.67,21.52-.04-24.85c5.69-.42,11.25-1.34,16.63-2.69l2.08,6.02ZM526.37,794.45l-2.02,5.85c-5.43-1.35-11.03-2.24-16.77-2.65l-.04-24.91,18.83,21.71ZM548.04,828.44c7.49,5.27,14.07,11.75,19.45,19.15l-45.87,26.49,26.41-45.64ZM570.84,789.05l12.38-21.4,30.76,53.09-26.81,15.48-16.33-47.18ZM592.47,751.69l35.49-61.31,105.9,61.15-106.01,61.22-35.38-61.05ZM741.85,737.67l-105.88-61.14,35.71-61.69h70.19v122.84ZM757.86,614.83h71.64l35.17,61.15-106.82,61.68v-122.83ZM741.85,765.39v122.66s-70.38-.02-70.38-.02l-35.6-61.44,105.98-61.2ZM757.85,765.38l106.8,61.67-35.09,61.02-71.73-.02v-122.67ZM765.85,751.53l106.8-61.67,35.45,61.64-35.47,61.69-106.78-61.66ZM937.71,812.53l2.07-5.97,1.23,2.15-3.3,3.82ZM952.09,795.89l-5.38-9.35,3.69-10.64,5.43,15.66-3.74,4.32ZM936.15,768.17l-9.59-16.67,9.6-16.7,5.77,16.67-5.79,16.7ZM958.87,751.46l9.02-26.02,22.54,26.08-22.51,26.05-9.05-26.11ZM950.4,727.03l-3.67-10.6,5.34-9.28,3.73,4.32-5.4,15.57ZM940.98,694.31l-1.19,2.08-2-5.78,3.2,3.7ZM952.34,674.57c-7.58-5.32-14.24-11.88-19.66-19.38l46.12-26.63-26.46,46.01ZM929.22,714.77l-11.89,20.68-30.83-53.6,26.1-15.07,16.62,47.98ZM917.33,767.55l11.88,20.65-16.65,48.05-26.07-15.06,30.85-53.64ZM952.33,828.41l26.53,46.13-46.14-26.64c5.4-7.54,12.04-14.13,19.61-19.49ZM973.96,795.05l18.55-21.47v23.95c-5.73.43-11.33,1.35-16.75,2.73l-1.8-5.21ZM973.93,707.98l1.86-5.37c5.41,1.35,11,2.26,16.72,2.67v24.2l-18.58-21.5ZM992.51,689.21c-3.9-.34-7.72-.95-11.45-1.81l11.45-33.04v34.85ZM970.56,614.83l-45.97,26.55c-3.79-8.22-6.29-17.15-7.2-26.55h53.17ZM895.38,617.06l-1.93-2.23h1.15l.77,2.23ZM905.01,652.69l-26.49,15.3-30.57-53.15h24.35l32.71,37.85ZM838.75,598.83l-9.7-16.87,17.81,3.43,11.61,13.44h-19.72ZM820.3,598.83h-62.43v-30.57s50.43,9.71,50.43,9.71l12,20.86ZM757.87,547.22v-56.92s28.04,48.75,28.04,48.75c-8.61,4.29-18.06,7.13-28.04,8.18ZM792.2,558.58l4.45-.86,1.11,1.93-5.56-1.07ZM741.87,547.34c-9.56-.84-18.64-3.31-27-7.14l27-46.65v53.79ZM707.57,558.58l-3.75.72.75-1.3,3,.58ZM741.87,568.27v30.57h-60.93l12.27-21.19,48.66-9.37ZM662.45,598.83h-19.67l11.96-13.79,17.65-3.4-9.95,17.19ZM653.19,614.83l-31.08,53.69-26.51-15.31,33.3-38.38h24.29ZM603.9,619.23l1.52-4.4h2.29l-3.82,4.4ZM575.23,641.45l-46.09-26.62h53.22c-.88,9.42-3.35,18.38-7.13,26.62ZM518.8,687.63c-3.71.86-7.51,1.48-11.39,1.83l-.05-34.86,11.44,33.04ZM491.47,729.81l-26.37-30.4c8.31,3.15,17.14,5.21,26.34,6.01l.04,24.39ZM491.57,797.82c-9.42.86-18.47,3.04-26.95,6.37l26.91-31.02.04,24.65ZM507.59,813.72c3.91.33,7.75.94,11.49,1.79l-11.43,33.06-.05-34.85ZM529.55,887.98l46.06-26.6c3.83,8.23,6.35,17.19,7.27,26.62l-53.33-.02ZM603.49,883.34l4.04,4.66h-2.43s-1.61-4.66-1.61-4.66ZM595.6,849.84l26.41-15.25,30.96,53.43h-24.25s-33.12-38.18-33.12-38.18ZM662.24,904.02l9.9,17.08-17.67-3.41-11.86-13.67h19.64ZM680.74,904.03l61.1.02v30.5s-48.88-9.43-48.88-9.43l-12.22-21.09ZM741.83,957.09v52.37s-26.09-45.02-26.09-45.02c8.07-3.8,16.86-6.34,26.09-7.35ZM708.06,944.33l-3.57.69-.9-1.55,4.46.86ZM757.83,956.9c9.89.83,19.29,3.4,27.89,7.42l-27.89,48.51v-55.93ZM792.56,944.34l5.23-1.01-1.04,1.82-4.19-.81ZM757.84,934.74v-30.68s62.53.02,62.53.02l-12.04,20.94-50.49,9.73ZM838.82,904.08h19.77s-11.65,13.49-11.65,13.49l-17.86,3.44,9.74-16.93ZM848.02,888.08l30.49-53.02,26.51,15.31-32.6,37.73h-24.4ZM895.28,886.1l-.69,2h-1.03s1.73-2,1.73-2ZM924.7,861.74l45.69,26.39-52.75-.02c.88-9.33,3.33-18.2,7.06-26.37ZM981.03,815.46c3.74-.88,7.57-1.51,11.48-1.86v35l-11.48-33.14ZM1008.51,772.47l27.21,31.48c-8.56-3.34-17.69-5.51-27.21-6.33v-25.16ZM1008.51,705.14c9.7-.86,19-3.13,27.69-6.6l-27.69,32.04v-25.44ZM1008.51,689.07v-52.37l26.04,45.12c-8.07,3.76-16.83,6.27-26.04,7.25ZM889.06,598.83h-9.44l-7.39-8.55,14.86,2.86,1.97,5.69ZM855.34,570.74l-18.02-20.85,32.6-6.28,11.11,32.08-25.7-4.95ZM829.98,565.85l-11.46-2.21-5.25-9.13,5.93-1.14,10.78,12.47ZM701.04,532.17c-.09-.06-.17-.12-.26-.18l1.09-1.25-.83,1.43ZM687.94,554.8l-4.93,8.51-11.3,2.18,10.26-11.83,5.96,1.15ZM646.29,570.38l-27.3,5.26,11.06-31.99,33.79,6.51-17.55,20.22ZM629.31,589.94l-7.71,8.89h-10.64l1.99-5.74,16.37-3.15ZM491.41,689.36c-9.33-.97-18.2-3.51-26.35-7.33l26.27-45.5.08,52.83ZM489.12,751.53l-38.56,44.45-25.64-44.42,25.66-44.45,38.54,44.42ZM491.59,813.9l.08,53.3-26.46-45.84c8.15-3.87,17.03-6.45,26.38-7.46ZM610.64,904.01h10.78s7.61,8.77,7.61,8.77l-16.45-3.17-1.94-5.6ZM646.01,932.35l17.79,20.5-33.97,6.55-11.19-32.33,27.38,5.28ZM671.45,937.26l11.32,2.18,5.08,8.77-5.91,1.14-10.49-12.1ZM799.5,972.46s0,0,0,0l-.03.04.02-.04ZM813.36,948.36l5.19-9.02,11.5-2.22-10.71,12.39-5.98-1.15ZM855.42,932.23l25.59-4.93-11.08,31.97-32.46-6.27,17.95-20.78ZM872.31,912.69l7.42-8.59h9.31s-1.99,5.75-1.99,5.75l-14.74,2.84ZM1008.51,813.69c9.27.96,18.08,3.46,26.19,7.23l-26.19,45.36v-52.59ZM1011.57,751.53l37.91-43.87,25.31,43.84-25.33,43.87-37.89-43.84ZM1082.42,606.83c0,27.44-13.44,51.79-34.08,66.84l-36.92-63.96,63.7-36.79c4.67,10.35,7.3,21.82,7.3,33.9ZM1003.42,595.86l-37.28-64.59c10.27-4.58,21.62-7.15,33.57-7.15,27.81,0,52.45,13.82,67.45,34.93l-63.74,36.81ZM952.22,539.18l26.38,45.7-45.81-26.57c5.38-7.4,11.95-13.87,19.43-19.13ZM955.61,590.04l-35.17-6.77c1.15-3.85,2.56-7.58,4.23-11.17l30.93,17.94ZM904.65,580.23l-5.46-1.05-9.48-27.35,21.06,12.21c-2.49,5.16-4.55,10.58-6.12,16.19ZM825.26,535.92l-3.54-4.09c3.83-4.15,7.31-8.64,10.39-13.4l20.93,12.14-27.79,5.35ZM811.17,519.62l-23.1-26.74,30.18,17.5c-2.14,3.25-4.51,6.33-7.07,9.24ZM780.6,470.06h51.11c-.56,9.21-2.64,18.01-5.98,26.17l-45.13-26.17ZM757.88,454.06v-71.33c37.93,3.99,68.27,33.71,73.26,71.33h-73.26ZM741.88,454.06h-74.67c5.05-38.09,36.09-68.06,74.67-71.45v71.45ZM720.92,470.06l-47.76,27.49c-3.67-8.52-5.93-17.78-6.52-27.49h54.28ZM713.71,492.66l-24.93,28.74c-2.87-3.07-5.52-6.36-7.9-9.84l32.84-18.9ZM678.25,533.54l-2.3,2.65-28.38-5.46,19.41-11.17c3.33,5,7.11,9.68,11.27,13.98ZM600.84,579.13l-5.82,1.12c-1.55-5.48-3.57-10.78-6-15.83l21.11-12.15-9.29,26.86ZM579.22,583.29l-34.56,6.65,30.43-17.51c1.62,3.5,3.01,7.12,4.13,10.85ZM521.03,585.09l26.39-45.71c7.54,5.29,14.16,11.81,19.57,19.26l-45.96,26.45ZM533.5,531.5l-37.18,64.39-63.62-36.74c15.01-21.02,39.59-34.75,67.32-34.75,11.91,0,23.23,2.55,33.47,7.1ZM488.32,609.74l-37.02,64.13c-20.58-15.06-33.98-39.37-33.98-66.77,0-12.15,2.66-23.69,7.39-34.1l63.62,36.74ZM403.69,628.64l-85.14-98.13c3.89-3.91,7.45-8.15,10.64-12.66l81.58,47.11c-6.06,12.79-9.46,27.07-9.46,42.14,0,7.4.82,14.61,2.37,21.54ZM308.03,518.38l-22.17-25.55,29.41,16.98c-2.22,3.02-4.64,5.88-7.24,8.57ZM306.4,540.92l133.09,153.4-23.81,41.24-111.46-193.1c.73-.5,1.46-1.02,2.18-1.54ZM406.44,751.56l-116.11,201.1c-10.4-4.88-21.78-7.99-33.77-8.96v-384.34c11.98-.97,23.36-4.08,33.76-8.96l116.11,201.15ZM415.68,767.56l23.79,41.21-133.07,153.37c-.72-.52-1.44-1.03-2.17-1.53l111.45-193.04ZM308.03,984.67c2.6,2.69,5.02,5.55,7.24,8.57l-29.41,16.98,22.17-25.55ZM318.56,972.54l85.93-99.05c-1.71,7.27-2.62,14.84-2.62,22.62,0,14.92,3.33,29.07,9.28,41.76l-81.96,47.33c-3.19-4.51-6.76-8.75-10.64-12.66ZM417.87,896.11c0-27.24,13.24-51.44,33.62-66.52l36.79,63.74-63.2,36.49c-4.62-10.31-7.22-21.71-7.22-33.72ZM496.28,907.19l37.35,64.71c-10.13,4.44-21.31,6.91-33.06,6.91-27.89,0-52.57-13.89-67.56-35.09l63.27-36.53ZM547.6,964.09l-27.04-46.85,47.08,27.18c-5.52,7.63-12.29,14.29-20.04,19.66ZM544.94,912.85l34.93,6.74c-1.13,3.8-2.52,7.48-4.16,11.03l-30.78-17.77ZM595.66,922.64l4.82.93,9.24,26.69-20.09-11.6c2.45-5.11,4.48-10.47,6.03-16.02ZM675.91,966.82l3.69,4.25c-3.95,4.12-7.54,8.59-10.74,13.34l-21.08-12.17,28.13-5.42ZM690.14,983.22l23.44,27.01-30.81-17.79c2.24-3.25,4.71-6.33,7.38-9.22ZM721.01,1033h-52.59c.71-9.38,2.98-18.33,6.57-26.58l46.02,26.58ZM741.83,1049v72.5c-38.18-4.17-68.61-34.42-73.08-72.5h73.08ZM757.83,1049h75.15c-4.55,38.77-36.02,69.41-75.16,72.69v-72.69ZM780.59,1033l46.08-26.74c3.63,8.3,5.92,17.3,6.64,26.74h-52.72ZM788.09,1010.14l23.37-27.05c2.67,2.88,5.14,5.96,7.39,9.2l-30.76,17.85ZM821.98,970.92l3.41-3.95,27.83,5.37-20.48,11.89c-3.2-4.75-6.81-9.2-10.76-13.31ZM899.15,923.81l5.8-1.12c1.57,5.58,3.62,10.97,6.11,16.1l-21.4,12.42,9.5-27.4ZM920.74,919.65l34.89-6.72-30.68,17.8c-1.66-3.56-3.07-7.26-4.22-11.08ZM978.59,918.1l-26.23,45.42c-7.42-5.24-13.94-11.67-19.29-19.01l45.51-26.41ZM966.27,971.45l37.11-64.28,63.83,36.86c-15.02,20.95-39.55,34.63-67.24,34.63-12,0-23.4-2.59-33.7-7.21ZM1011.38,893.31l37.11-64.28c20.7,15.05,34.19,39.43,34.19,66.92,0,12.21-2.68,23.79-7.45,34.23l-63.85-36.87ZM1096.2,873.94l82.54,95.52c-4.21,4.28-8.03,8.93-11.41,13.91l-78.18-45.14c6.1-12.82,9.52-27.15,9.52-42.27,0-7.56-.86-14.93-2.48-22.01ZM1189.25,981.62l24.85,28.75-32.85-18.97c2.42-3.46,5.1-6.73,8.01-9.78ZM1201.35,971.15c.05-.04.11-.08.16-.11l.52.91-.68-.79ZM1190.84,958.99l-130.31-150.8,23.49-40.69,109.46,189.62c-.89.61-1.77,1.23-2.64,1.87ZM1093.26,751.5l115.7-200.41c10.5,5.03,22.03,8.25,34.17,9.26v379.75c-12.71.76-24.78,3.94-35.76,9.08l-114.11-197.68ZM1084.02,735.5l-23.47-40.66,132.48-153.31c.7.51,1.4,1.01,2.11,1.51l-111.12,192.46ZM1205.96,478.9l-29.84,17.23c-1.57-3.45-2.91-7.03-4-10.71l33.84-6.52ZM1162.2,504.17l-81.12,46.85c-12.27-17.83-30.25-31.45-51.27-38.2l126.53-24.36c1.52,5.44,3.49,10.69,5.87,15.71ZM918.88,550.25l-20.8-12.06,38.86-7.48c-6.86,5.67-12.94,12.25-18.07,19.54ZM839.69,504.32c3.65-8.37,6.18-17.33,7.38-26.7l13.43,38.77-20.82-12.07ZM757.88,366.65v-95.6c5.71-.46,11.28-1.4,16.66-2.79l43.76,126.34c-15.88-15.6-36.99-25.89-60.43-27.95ZM757.89,254.99v-34.79s11.39,32.87,11.39,32.87c-3.71.89-7.51,1.55-11.39,1.92ZM741.9,220.29v34.7c-3.87-.37-7.65-1.02-11.34-1.91l11.34-32.79ZM741.89,271.05v95.48c-22.88,1.68-43.6,11.18-59.52,25.84l42.92-124.1c5.37,1.38,10.92,2.32,16.59,2.78ZM659.21,505.57l-19.96,11.49,12.51-36.17c1.41,8.65,3.94,16.93,7.45,24.68ZM580.93,550.62c-5.25-7.49-11.51-14.23-18.58-20l39.96,7.69-21.39,12.31ZM418.78,551.11l-81.43-47.02c2.43-4.99,4.46-10.21,6.03-15.63l127.06,24.46c-21.18,6.67-39.29,20.29-51.66,38.19ZM323.45,496.06l-29.71-17.16,33.85,6.52c-1.14,3.66-2.53,7.21-4.14,10.64ZM282.29,536.47c-7.99,3.58-16.64,5.94-25.72,6.82v-51.37l25.72,44.55ZM282.3,966.59l-25.72,44.55v-51.38c9.08.88,17.73,3.24,25.72,6.82ZM293.75,1024.15l29.7-17.15c1.61,3.42,3,6.97,4.14,10.63l-33.84,6.52ZM337.35,998.97l81.75-47.21c12.27,17.9,30.27,31.57,51.34,38.34l-127.07,24.48c-1.57-5.41-3.59-10.63-6.02-15.62ZM581.56,952.47l21.07,12.17-39.25,7.56c6.91-5.72,13.03-12.36,18.18-19.73ZM661.04,998.37c-3.99,8.72-6.75,18.12-8.04,27.98l-14.12-40.78,22.16,12.8ZM741.82,1137.58v91.46c-6.02.55-11.87,1.64-17.52,3.22l-42.38-122.4c15.78,15.42,36.69,25.61,59.9,27.73ZM741.81,1245.13v37.71s-12.27-35.42-12.27-35.42c3.98-1.06,8.08-1.84,12.27-2.29ZM757.81,1244.93c4.25.36,8.4,1.03,12.44,2l-12.44,35.91v-37.91ZM757.81,1228.87v-91.12c22.58-1.58,43.08-10.78,58.95-25.04l-41.24,119.02c-5.72-1.48-11.64-2.45-17.71-2.87ZM840.59,998.18l19.85-11.52-12.34,35.61c-1.47-8.45-4.03-16.53-7.51-24.1ZM919.17,952.58c5.19,7.38,11.36,14.03,18.33,19.73l-39.28-7.58,20.95-12.15ZM1081.13,952.07l78.33,45.23c-2.47,5.33-4.48,10.91-5.97,16.71l-123.84-23.9c21.09-6.66,39.14-20.23,51.49-38.04ZM1173.39,1005.35l32.52,18.78-36.66-7.08c1.09-4.03,2.48-7.94,4.14-11.7ZM1215.41,963.11c8.57-3.84,17.91-6.25,27.72-6.96v54.98l-27.72-48.02ZM1217,537.17l26.13-45.26v52.38c-9.24-.93-18.03-3.39-26.13-7.12ZM937.83,514.24l-57.32,11.04-19.13-55.22h50.94l25.5,44.18ZM855.84,454.06l-66.18-191.05c.84-.37,1.67-.75,2.49-1.14l110.94,192.19h-47.25ZM710.18,263.03l-66.08,191.03h-47.43l110.96-192.19c.84.4,1.69.79,2.54,1.16ZM638.57,470.06l-19.11,55.26-57.53-11.08,25.51-44.19h51.13ZM561.86,988.79l57.38-11.05,19.13,55.26h-50.99l-25.52-44.21ZM643.91,1049l65.37,188.82c-.97.45-1.93.91-2.87,1.4l-109.8-190.21h47.3ZM714.56,1253.03l.25.71-.37-.65s.08-.04.13-.07ZM785.36,1252.19c.09.04.18.08.27.12l-.79,1.37.52-1.5ZM790.63,1237l65.14-188h47.25l-109.35,189.4c-1-.49-2.02-.95-3.04-1.4ZM861.31,1033l19.19-55.39,57.34,11.07-25.59,44.32h-50.95ZM1166.6,1032.83l.86.17h-.88c0-.06,0-.11.01-.17ZM1169.11,454.06c.88-9.21,3.29-17.97,6.95-26.05l45.12,26.05h-52.07ZM1153.04,454.06h-231.48l-115.57-200.21c9.78-6.78,18.29-15.28,25.07-25.07l331.07,191.18c-4.96,10.49-8.12,21.99-9.09,34.1ZM797.96,239.92l-26.2-45.39,45.39,26.21c-5.3,7.4-11.79,13.88-19.18,19.18ZM778.06,179.69c18.04.87,35.93,2.58,53.65,5.11-1.15,7.77-3.39,15.18-6.55,22.09l-47.11-27.2ZM728.05,194.52l-26.21,45.39c-7.4-5.3-13.89-11.79-19.19-19.19l45.4-26.2ZM674.63,206.88c-3.15-6.91-5.4-14.33-6.54-22.09,17.72-2.53,35.62-4.23,53.65-5.1l-47.11,27.19ZM693.8,253.84l-115.6,200.22h-231.17c-.85-12.24-3.94-23.87-8.87-34.48l330.56-190.81c6.78,9.79,15.29,18.29,25.07,25.07ZM330.97,454.06h-52.53l45.8-26.44c3.63,8.2,5.96,17.1,6.74,26.44ZM240.57,543.29c-7.72-.74-15.12-2.57-22.07-5.29,1.25-3.11,2.52-6.22,3.83-9.31,5.61-13.27,11.7-26.26,18.24-38.99v53.6ZM240.52,1013.28c-6.53-12.7-12.6-25.67-18.2-38.91-1.31-3.1-2.58-6.2-3.83-9.31,6.94-2.72,14.33-4.54,22.04-5.29v53.51ZM278.52,1049h52.44c-.78,9.32-3.1,18.21-6.72,26.4l-45.72-26.4ZM347.03,1049h231.11l114.63,198.58c-9.8,7.16-18.24,16.07-24.84,26.28l-329.74-190.42c4.92-10.61,8-22.22,8.85-34.45ZM700.82,1261.53l27.13,46.99-46.14-26.64c5.15-7.81,11.59-14.69,19.01-20.35ZM721.64,1323.36c-17.81-.86-35.49-2.53-52.99-5.01.85-7.81,2.79-15.3,5.67-22.31l47.32,27.33ZM771.65,1308.53l27.77-48.09c7.77,5.65,14.52,12.61,19.92,20.57l-47.69,27.53ZM827.01,1295.05c3.07,7.21,5.12,14.93,6.03,23.01-18.19,2.64-36.56,4.41-55.07,5.3l49.04-28.31ZM807.46,1246.51l114.03-197.51h229.42c1.3,12.36,4.88,24.06,10.33,34.64l-328.03,189.35c-6.85-10.36-15.61-19.35-25.76-26.48ZM1167.05,1049h54.22l-46.12,26.62c-4.12-8.2-6.91-17.16-8.09-26.62ZM1259.14,956.55c8.07.98,15.78,3.12,22.97,6.27-1.54,3.86-3.11,7.71-4.73,11.55-5.61,13.27-11.7,26.26-18.24,38.99v-56.81ZM1259.18,489.78c6.53,12.7,12.6,25.67,18.2,38.9,1.45,3.42,2.85,6.86,4.23,10.3-7.06,2.78-14.58,4.62-22.43,5.35v-54.55ZM1184.04,414.13c4.46-6.27,9.77-11.88,15.77-16.69,11.17,14.16,21.64,28.81,31.4,43.92l-47.16-27.24ZM749.9,89.96c44.29,0,80.55,35,82.61,78.79-27.2-3.81-54.78-5.74-82.66-5.74s-55.39,1.92-82.56,5.72c2.06-43.78,38.32-78.77,82.61-78.77ZM345.02,346.7c52.58-52.58,113.81-93.86,181.98-122.7,40.44-17.11,82.33-29.37,125.27-36.73,1.45,9.75,4.34,19.04,8.43,27.65l-330.43,190.73c-5.47-8.06-12.11-15.27-19.66-21.39,10.87-12.96,22.34-25.5,34.41-37.57ZM165.87,460.98c0-45.6,37.1-82.71,82.71-82.71,13.91,0,27.01,3.47,38.53,9.55-16.59,21.05-31.67,43.16-45.2,66.23h-1.33v2.29c-12.32,21.24-23.33,43.29-32.98,66.1-1.16,2.74-2.29,5.5-3.41,8.26-23.01-14.7-38.31-40.45-38.31-69.73ZM177.34,751.53c0-68.5,11.9-135.18,35.38-198.59,8.75,3.42,18.1,5.63,27.85,6.42l-.03,384.34c-9.73.79-19.07,2.99-27.81,6.41-23.48-63.41-35.38-130.09-35.38-198.59ZM248.57,1124.78c-45.6,0-82.71-37.1-82.71-82.71,0-29.27,15.3-55.03,38.31-69.73,1.12,2.76,2.25,5.51,3.41,8.26,9.65,22.81,20.66,44.86,32.98,66.1v2.29h1.33c13.53,23.08,28.61,45.18,45.2,66.23-11.51,6.09-24.62,9.55-38.53,9.55ZM345.02,1156.35c-12.07-12.07-23.54-24.61-34.41-37.57,7.56-6.13,14.2-13.34,19.68-21.41l330.05,190.59c-3.81,8.72-6.39,18.1-7.53,27.91-43.13-7.35-85.2-19.65-125.82-36.82-68.17-28.84-129.4-70.12-181.98-122.7ZM750.86,1410.04c-43.19,0-78.73-33.28-82.38-75.55,26.78,3.69,53.93,5.55,81.37,5.55s55.97-1.96,83.41-5.84c-3.5,42.4-39.11,75.84-82.4,75.84ZM1154.68,1156.35c-52.58,52.58-113.81,93.86-181.98,122.7-39.99,16.92-81.4,29.1-123.84,36.49-1.2-10.05-3.91-19.64-7.91-28.54l328.76-189.77c5.74,7.76,12.59,14.65,20.31,20.43-11.14,13.36-22.92,26.27-35.34,38.69ZM1331.79,1038.63c0,45.6-37.1,82.71-82.71,82.71-12.55,0-24.45-2.82-35.12-7.85,16.05-20.53,30.68-42.05,43.83-64.49h1.33v-2.29c12.32-21.24,23.33-43.29,32.98-66.1,1.39-3.29,2.74-6.6,4.07-9.9,21.5,14.95,35.6,39.82,35.6,67.93ZM1322.36,751.53c0,67.68-11.61,133.59-34.54,196.32-8.96-3.84-18.6-6.39-28.69-7.42l.03-380.03c9.87-.77,19.33-3,28.18-6.47,23.24,63.11,35.01,129.45,35.01,197.59ZM1295.91,531.67c-1.24-3.08-2.5-6.16-3.8-9.22-9.65-22.81-20.66-44.86-32.98-66.1v-2.29h-1.33c-13.35-22.77-28.2-44.6-44.53-65.4,11.43-5.97,24.4-9.37,38.16-9.37,45.6,0,82.71,37.1,82.71,82.71,0,29.24-15.26,54.96-38.22,69.67Z"/></svg>
