<?xml version="1.0" encoding="UTF-8"?><svg id="Layer_2" xmlns="http://www.w3.org/2000/svg" xmlns:xlink="http://www.w3.org/1999/xlink" viewBox="0 0 1500 1500"><defs><style>.cls-1{fill:url(#New_Gradient_Swatch_2);stroke-width:0px;}</style><linearGradient id="New_Gradient_Swatch_2" x1="119.78" y1="1113.86" x2="1380.22" y2="386.14" gradientUnits="userSpaceOnUse"><stop offset="0" stop-color="#56450d"/><stop offset=".21" stop-color="#e5c787"/><stop offset=".39" stop-color="#f7d976"/><stop offset=".99" stop-color="#725728"/></linearGradient></defs><path class="cls-1" d="M1380.22,386.15l-267.26-154.31-95.71,55.26v-110.5L750,22.3l-267.26,154.3v110.5l-95.71-55.26L119.78,386.15v308.6l95.71,55.26-95.71,55.26v308.59l267.25,154.31,95.71-55.26v110.5l267.26,154.3,267.25-154.3v-110.5l95.71,55.26,267.26-154.31v-308.59l-95.71-55.26,95.71-55.26v-308.6ZM498.74,185.83l251.26-145.06,251.25,145.06v110.5l-155.57,89.82v179.63l-95.68,55.25-95.7-55.25v-179.63l-155.57-89.82v-110.5ZM1001.25,314.8v161.15l-139.57,80.59v-161.16l139.57-80.58ZM845.68,915.75l-95.68-55.24-95.7,55.25v-110.49l-95.72-55.26,95.72-55.26v-110.49l95.7,55.25,95.68-55.25v110.49l95.72,55.26-95.72,55.26v110.48ZM498.74,314.8l139.57,80.58v161.15l-139.57-80.58v-161.15ZM135.78,685.51v-290.12l251.25-145.07,95.71,55.25v179.63l155.57,89.82v110.49l-95.72,55.26-155.56-89.81-155.54,89.81-95.71-55.26ZM526.59,750.01l-139.56,80.57-139.55-80.57,139.55-80.57,139.56,80.57ZM387.03,1249.69l-251.25-145.07v-290.11l95.71-55.26,155.54,89.81,155.56-89.81,95.72,55.26v110.49l-155.57,89.81v179.63l-95.71,55.25ZM638.3,943.47v161.15l-139.57,80.58v-161.15l139.57-80.58ZM1001.25,1314.17l-251.25,145.06-251.26-145.06v-110.5l155.57-89.82v-179.62l95.7-55.25,95.68,55.24v179.63l155.57,89.82v110.5ZM1001.25,1185.2l-139.57-80.58v-161.15l139.57,80.58v161.15ZM1364.22,814.5v290.11l-251.26,145.07-95.71-55.25v-179.63l-155.57-89.82v-110.48l95.72-55.26,155.56,89.81,155.55-89.81,95.71,55.26ZM973.4,750.01l139.56-80.57,139.55,80.57-139.55,80.57-139.56-80.57ZM1364.22,685.51l-95.71,55.26-155.55-89.81-155.56,89.81-95.72-55.26v-110.49l155.57-89.82v-179.63l95.71-55.25,251.26,145.07v290.12Z"/></svg>
