<?xml version="1.0" encoding="UTF-8"?><svg id="Layer_2" xmlns="http://www.w3.org/2000/svg" xmlns:xlink="http://www.w3.org/1999/xlink" viewBox="0 0 1500 1500"><defs><style>.cls-1{fill:url(#New_Gradient_Swatch_2);stroke-width:0px;}</style><linearGradient id="New_Gradient_Swatch_2" x1="116.94" y1="1115.5" x2="1383.27" y2="384.38" gradientUnits="userSpaceOnUse"><stop offset="0" stop-color="#56450d"/><stop offset=".21" stop-color="#e5c787"/><stop offset=".39" stop-color="#f7d976"/><stop offset=".99" stop-color="#725728"/></linearGradient></defs><path class="cls-1" d="M1392.72,401.76c-5.85-11.5-12.3-22.64-19.3-33.43-29.93-48.84-65.59-94.04-106.65-135.11-67.12-67.12-145.27-119.81-232.3-156.62-90.11-38.11-185.82-57.44-284.47-57.44s-194.37,19.32-284.47,57.44c-87.03,36.81-165.18,89.5-232.3,156.62s-119.81,145.27-156.62,232.3c-38.11,90.1-57.44,185.82-57.44,284.47s19.32,194.37,57.44,284.47c36.81,87.03,89.5,165.18,156.62,232.3s145.27,119.81,232.3,156.62c90.11,38.11,185.82,57.44,284.47,57.44s194.37-19.32,284.47-57.44c87.03-36.81,165.18-89.5,232.3-156.62,41.07-41.07,76.73-86.28,106.66-135.12,7-10.78,13.44-21.91,19.28-33.4,11.21-20.68,21.44-41.95,30.67-63.78,38.11-90.11,57.44-185.82,57.44-284.47s-19.32-194.37-57.44-284.47c-9.23-21.82-19.46-43.09-30.67-63.76ZM1380.04,1088.02c-6.61,12.31-13.57,24.41-20.88,36.29-13.19,20.06-28.5,38.93-45.87,56.29-63.59,63.59-147.14,99.93-236.52,103.24,4.92-9.32,9.47-18.86,13.61-28.64,19.26-45.55,29.03-93.93,29.03-143.79s-9.77-98.25-29.03-143.79c-4.21-9.95-8.85-19.66-13.87-29.14,45.23-1.56,89.13-11.23,130.68-28.8,43.99-18.61,83.5-45.24,117.42-79.17,19.72-19.72,36.95-41.33,51.6-64.6,26.52,50.19,40.6,106.41,40.6,164.8s-12.72,109.04-36.76,157.32ZM83.84,930.71c0-58.39,14.08-114.6,40.6-164.8,14.65,23.27,31.88,44.88,51.6,64.6,33.92,33.92,73.43,60.56,117.42,79.17,41.35,17.49,85.03,27.15,130.05,28.78-5.03,9.49-9.67,19.2-13.88,29.16-19.26,45.55-29.03,93.93-29.03,143.79s9.77,98.25,29.03,143.79c4.13,9.77,8.68,19.3,13.6,28.61-89.13-3.46-172.43-39.78-235.86-103.21-66.75-66.75-103.51-155.5-103.51-249.9ZM187.35,319.39c63.43-63.43,146.73-99.76,235.86-103.21-4.92,9.31-9.47,18.85-13.6,28.61-19.26,45.55-29.03,93.93-29.03,143.79s9.77,98.25,29.03,143.79c4.21,9.96,8.86,19.68,13.88,29.16-45.01,1.63-88.69,11.29-130.05,28.78-43.99,18.61-83.5,45.24-117.42,79.17-19.72,19.72-36.95,41.33-51.6,64.6-26.52-50.2-40.6-106.41-40.6-164.8,0-94.4,36.76-183.15,103.51-249.9ZM723.01,425.5c-19.26,45.55-29.03,93.93-29.03,143.79,0,39.34,6.08,77.75,18.11,114.58-4.4-4.89-8.93-9.69-13.62-14.38-33.92-33.92-73.43-60.56-117.42-79.17-41.39-17.5-85.11-27.17-130.16-28.79,13.91-21.99,30.37-42.59,49.22-61.44,63.59-63.59,147.14-99.93,236.52-103.24-4.92,9.32-9.47,18.86-13.61,28.64ZM750.32,404.99c26.36,50.07,40.35,106.11,40.35,164.3s-13.99,114.23-40.35,164.3c-26.36-50.07-40.34-106.11-40.34-164.3s13.99-114.23,40.34-164.3ZM687.15,680.81c18.69,18.69,35.03,39.11,48.87,60.9-89.16-3.44-172.48-39.77-235.93-103.22-18.69-18.69-35.03-39.11-48.87-60.9,89.16,3.44,172.48,39.77,235.93,103.22ZM687.15,819.19c-63.45,63.45-146.77,99.77-235.93,103.22,13.84-21.78,30.18-42.21,48.87-60.9,63.45-63.44,146.77-99.77,235.93-103.22-13.84,21.78-30.18,42.2-48.87,60.9ZM581.05,909.67c43.99-18.61,83.5-45.24,117.42-79.17,4.68-4.68,9.21-9.48,13.62-14.38-12.02,36.83-18.11,75.24-18.11,114.58,0,49.87,9.77,98.25,29.03,143.79,4.14,9.78,8.69,19.32,13.61,28.64-89.38-3.31-172.93-39.65-236.52-103.24-18.85-18.85-35.3-39.45-49.22-61.44,45.05-1.62,88.78-11.28,130.17-28.79ZM750.32,766.4c26.36,50.07,40.35,106.11,40.35,164.3s-13.99,114.23-40.35,164.3c-26.36-50.07-40.34-106.11-40.34-164.3s13.99-114.23,40.34-164.3ZM777.63,1074.5c19.26-45.55,29.03-93.93,29.03-143.79,0-39.34-6.08-77.75-18.11-114.57,4.4,4.89,8.93,9.69,13.62,14.37,33.92,33.92,73.43,60.56,117.42,79.17,41.19,17.42,84.7,27.08,129.54,28.76-13.92,22-30.38,42.61-49.23,61.46-63.43,63.43-146.73,99.75-235.86,103.21,4.92-9.31,9.47-18.85,13.6-28.61ZM813.49,819.19c-18.69-18.69-35.02-39.1-48.86-60.87,88.91,3.6,171.98,39.9,235.27,103.19,18.69,18.69,35.02,39.1,48.86,60.87-88.91-3.6-171.98-39.9-235.27-103.19ZM813.49,680.81c63.29-63.29,146.36-99.6,235.27-103.19-13.84,21.78-30.17,42.19-48.86,60.87-63.29,63.29-146.36,99.6-235.27,103.19,13.84-21.78,30.17-42.19,48.86-60.87ZM919.59,590.33c-43.99,18.61-83.5,45.24-117.42,79.17-4.68,4.68-9.21,9.48-13.62,14.37,12.02-36.83,18.11-75.24,18.11-114.57,0-49.87-9.77-98.25-29.03-143.79-4.13-9.77-8.68-19.3-13.6-28.61,89.13,3.46,172.43,39.78,235.86,103.21,18.85,18.85,35.31,39.47,49.23,61.46-44.83,1.69-88.34,11.34-129.54,28.76ZM606.21,409.62c-43.99,18.61-83.5,45.24-117.42,79.17-19.72,19.72-36.95,41.33-51.6,64.6-26.52-50.2-40.6-106.41-40.6-164.8,0-61.45,15.59-120.5,44.88-172.66,92.82,1.08,179.93,37.7,245.69,103.46,18.85,18.85,35.3,39.45,49.22,61.44-45.05,1.62-88.78,11.28-130.17,28.79ZM488.79,649.8c33.92,33.92,73.43,60.56,117.42,79.17,21.7,9.18,44.04,16.2,66.88,21.03-22.84,4.84-45.18,11.86-66.88,21.03-43.99,18.61-83.5,45.24-117.42,79.17-19.72,19.72-36.95,41.33-51.6,64.6-26.52-50.2-40.6-106.41-40.6-164.8s14.08-114.6,40.6-164.8c14.65,23.27,31.88,44.88,51.6,64.6ZM488.79,1011.21c33.92,33.92,73.43,60.56,117.42,79.17,41.39,17.5,85.11,27.17,130.17,28.79-13.91,21.99-30.37,42.59-49.22,61.44-65.76,65.76-152.86,102.38-245.69,103.46-29.29-52.15-44.88-111.2-44.88-172.65s14.08-114.6,40.6-164.8c14.65,23.27,31.88,44.88,51.6,64.6ZM893.79,1090.38c43.99-18.61,83.5-45.24,117.42-79.17,19.72-19.72,36.95-41.33,51.6-64.6,26.52,50.2,40.6,106.41,40.6,164.8,0,61.45-15.59,120.5-44.88,172.65-92.58-1.24-179.44-37.85-245.05-103.45-18.85-18.85-35.31-39.47-49.23-61.46,44.83-1.69,88.34-11.34,129.54-28.76ZM1011.21,850.2c-33.92-33.92-73.43-60.56-117.42-79.17-21.7-9.18-44.04-16.2-66.88-21.03,22.84-4.84,45.18-11.86,66.88-21.03,43.99-18.61,83.5-45.24,117.42-79.17,19.72-19.72,36.95-41.33,51.6-64.6,26.52,50.2,40.6,106.41,40.6,164.8s-14.08,114.6-40.6,164.8c-14.65-23.27-31.88-44.88-51.6-64.6ZM1011.21,488.79c-33.92-33.92-73.43-60.56-117.42-79.17-41.19-17.42-84.7-27.08-129.54-28.76,13.92-22,30.38-42.61,49.23-61.46,65.61-65.61,152.47-102.21,245.05-103.45,29.29,52.15,44.88,111.2,44.88,172.65s-14.08,114.6-40.6,164.8c-14.65-23.27-31.88-44.88-51.6-64.6ZM919.59,228.91c-43.99,18.61-83.5,45.24-117.42,79.17-19.83,19.83-37.15,41.58-51.85,65.01-14.7-23.43-32.02-45.18-51.85-65.01-33.92-33.92-73.43-60.56-117.42-79.17-41.39-17.51-85.11-27.17-130.17-28.79,13.91-21.99,30.37-42.59,49.22-61.44,66.75-66.75,155.5-103.51,249.9-103.51s183.15,36.76,249.9,103.51c18.85,18.85,35.31,39.47,49.23,61.46-44.83,1.69-88.34,11.34-129.54,28.76ZM187.35,680.81c63.43-63.43,146.73-99.76,235.86-103.21-4.92,9.31-9.47,18.85-13.6,28.61-19.26,45.55-29.03,93.93-29.03,143.79s9.77,98.25,29.03,143.79c4.13,9.77,8.68,19.3,13.6,28.61-89.13-3.46-172.43-39.78-235.86-103.21-21.05-21.05-39.1-44.29-53.98-69.19,14.87-24.91,32.93-48.15,53.98-69.19ZM581.05,1271.09c43.99-18.61,83.5-45.24,117.42-79.17,19.83-19.83,37.15-41.58,51.85-65.01,14.7,23.43,32.02,45.18,51.85,65.01,33.92,33.92,73.43,60.56,117.42,79.17,41.19,17.42,84.7,27.08,129.54,28.76-13.92,22-30.38,42.61-49.23,61.46-66.75,66.75-155.5,103.51-249.9,103.51s-183.15-36.76-249.9-103.51c-18.85-18.85-35.3-39.45-49.22-61.44,45.05-1.62,88.78-11.28,130.17-28.79ZM1313.29,819.19c-63.59,63.59-147.14,99.93-236.52,103.24,4.92-9.32,9.47-18.86,13.61-28.64,19.26-45.55,29.03-93.93,29.03-143.79s-9.77-98.25-29.03-143.79c-4.14-9.78-8.69-19.32-13.61-28.64,89.38,3.31,172.93,39.65,236.52,103.24,21.05,21.05,39.1,44.29,53.98,69.19-14.87,24.91-32.93,48.15-53.98,69.19ZM1324.6,669.49c-33.92-33.92-73.43-60.56-117.42-79.17-41.54-17.57-85.44-27.24-130.68-28.8,5.02-9.48,9.66-19.19,13.87-29.14,19.26-45.55,29.03-93.93,29.03-143.79s-9.77-98.25-29.03-143.79c-4.14-9.78-8.69-19.32-13.61-28.64,89.38,3.31,172.93,39.65,236.52,103.24,17.37,17.37,32.68,36.23,45.87,56.29,7.31,11.88,14.28,23.99,20.89,36.3,24.04,48.27,36.76,101.81,36.76,157.31,0,58.39-14.08,114.6-40.6,164.8-14.65-23.27-31.88-44.88-51.6-64.6ZM1255.46,244.54c8.13,8.13,16.04,16.43,23.74,24.88-22.34-16.12-46.41-29.68-72.01-40.51-44.25-18.71-91.16-28.46-139.52-29.01-15.64-26.31-34.51-50.6-56.45-72.53-32.35-32.35-69.78-58.05-111.32-76.5,43.83,9.35,86.7,22.86,128.35,40.47,85.12,36,161.57,87.54,227.22,153.2ZM244.54,244.54c65.65-65.65,142.1-117.19,227.22-153.2,41.65-17.62,84.52-31.12,128.35-40.47-41.55,18.45-78.98,44.15-111.32,76.5-21.94,21.94-40.81,46.23-56.45,72.54-48.13.62-94.82,10.37-138.87,29-26.32,11.13-51.01,25.16-73.89,41.88,8.08-8.93,16.4-17.68,24.97-26.25ZM70.02,528.86c-1.45,13.35-2.18,26.84-2.18,40.43,0,49.87,9.77,98.25,29.03,143.79,5.37,12.69,11.42,24.99,18.11,36.91-6.69,11.92-12.74,24.22-18.11,36.91-19.26,45.55-29.03,93.93-29.03,143.79,0,13.6.73,27.08,2.18,40.43-23.14-71.08-34.85-145.21-34.85-221.14s11.71-150.06,34.85-221.14ZM244.54,1255.46c-8.57-8.57-16.89-17.32-24.97-26.25,22.87,16.72,47.57,30.75,73.89,41.88,44.05,18.63,90.74,28.38,138.87,29,15.64,26.31,34.51,50.6,56.45,72.54,32.35,32.35,69.78,58.05,111.32,76.5-43.83-9.35-86.7-22.86-128.35-40.47-85.12-36-161.57-87.55-227.22-153.2ZM1255.46,1255.46c-65.65,65.65-142.1,117.19-227.22,153.2-41.65,17.62-84.52,31.12-128.35,40.47,41.55-18.45,78.98-44.15,111.32-76.5,21.94-21.94,40.81-46.22,56.45-72.53,48.36-.54,95.27-10.29,139.52-29.01,25.6-10.83,49.67-24.39,72.01-40.51-7.69,8.46-15.61,16.75-23.74,24.89ZM1430.93,968.18c1.24-12.38,1.87-24.88,1.87-37.48,0-49.87-9.77-98.25-29.03-143.79-5.37-12.69-11.42-24.99-18.11-36.91,6.69-11.92,12.74-24.22,18.11-36.91,19.26-45.55,29.03-93.93,29.03-143.79,0-12.59-.63-25.09-1.87-37.48,22.51,70.18,33.89,143.31,33.89,218.18s-11.38,148-33.89,218.18Z"/></svg>
