<?xml version="1.0" encoding="UTF-8"?><svg id="Layer_2" xmlns="http://www.w3.org/2000/svg" xmlns:xlink="http://www.w3.org/1999/xlink" viewBox="0 0 1500 1500"><defs><style>.cls-1{fill:url(#New_Gradient_Swatch_2);stroke-width:0px;}</style><linearGradient id="New_Gradient_Swatch_2" x1="124.66" y1="1111.04" x2="1374.81" y2="389.27" gradientUnits="userSpaceOnUse"><stop offset="0" stop-color="#56450d"/><stop offset=".21" stop-color="#e5c787"/><stop offset=".39" stop-color="#f7d976"/><stop offset=".99" stop-color="#725728"/></linearGradient></defs><path class="cls-1" d="M111.9,1086.65c5.95,13.09,13.07,25.67,21.31,37.6,29.85,49.13,65.54,94.56,106.76,135.78,66.24,66.24,143.38,118.25,229.27,154.58,88.93,37.61,183.39,56.69,280.76,56.69s191.83-19.07,280.76-56.69c85.89-36.33,163.03-88.34,229.27-154.58s118.25-143.38,154.58-229.27c37.61-88.93,56.69-183.39,56.69-280.76s-19.07-191.83-56.69-280.76c-36.33-85.89-88.34-163.03-154.58-229.27s-143.38-118.25-229.27-154.58c-88.93-37.61-183.39-56.69-280.76-56.69s-191.83,19.07-280.76,56.69c-85.89,36.33-163.03,88.34-229.27,154.58s-118.25,143.38-154.58,229.27c-37.61,88.93-56.69,183.39-56.69,280.76s19.07,191.83,56.69,280.76c8.07,19.07,16.91,37.71,26.51,55.89ZM106.17,985.6c0-61.05,23.77-118.44,66.94-161.61,25.52-25.52,56.02-44.26,89.3-55.32.63,15.68,2,31.25,4.1,46.66-66.54,28.59-113.26,94.77-113.26,171.66,0,19.03,2.87,37.4,8.18,54.71l-28.74,49.77c-2.17-3.92-4.31-7.86-6.4-11.83-13.18-29.17-20.13-61.07-20.13-94.05ZM520.25,274.37c0-61.05,23.77-118.44,66.94-161.61,40.19-40.19,92.7-63.55,149.02-66.59l-27.39,47.44c-83.21,18.81-145.55,93.33-145.55,182.15,0,7.48.46,14.86,1.32,22.12-1.76.72-3.52,1.45-5.28,2.19-11.98,5.07-23.71,10.59-35.17,16.56-2.57-13.8-3.89-27.93-3.89-42.26ZM973.45,316.63c-11.46-5.96-23.19-11.49-35.17-16.56-.99-.42-1.98-.83-2.98-1.24.94-7.56,1.43-15.26,1.43-23.08,0-88.82-62.33-163.34-145.55-182.15l-27.3-47.29c55.37,3.58,106.93,26.85,146.52,66.44,43.17,43.17,66.94,100.56,66.94,161.61,0,14.34-1.33,28.47-3.89,42.26ZM1219.6,748.62c0,.68,0,1.36-.01,2.04-16.13-3.88-32.76-6.14-49.68-6.68v-104.16c12.31-.76,24.16-3.27,35.3-7.29,9.57,37.68,14.39,76.52,14.39,116.1ZM861.89,1225.63c0,61.69-50.19,111.89-111.89,111.89s-111.89-50.19-111.89-111.89c0-.94.01-1.88.04-2.82,14.89,3.46,29.95,6.22,45.15,8.26,3.11,34.07,31.83,60.85,66.7,60.85s63.77-26.96,66.72-61.18c15.19-2.11,30.23-4.95,45.11-8.49.03,1.12.06,2.25.06,3.38ZM146.61,1115.5c-.51-.84-1-1.68-1.51-2.52h57.18c34.16,37.31,83.25,60.75,137.7,60.75,42.51,0,81.74-14.29,113.16-38.3,10.31,7.9,20.93,15.37,31.82,22.4-41.63,36.42-94.41,56.32-150.24,56.32-61.05,0-118.44-23.77-161.61-66.94-9.87-9.87-18.71-20.49-26.5-31.72ZM169.25,986.99c0-68.84,40.96-128.29,99.79-155.28,1.02,5.94,2.15,11.85,3.39,17.74l-99.58,172.48c-2.36-11.28-3.6-22.97-3.6-34.94ZM287.79,513.01c0-28.12,22.87-50.99,50.99-50.99,5.16,0,10.14.78,14.84,2.21-19.38,26.87-35.94,55.64-49.53,86.1-10.02-9.32-16.3-22.6-16.3-37.32ZM377.68,480.09l-25.55,14.75c5.11-7.98,10.47-15.8,16.06-23.46,3.52,2.49,6.71,5.42,9.49,8.7ZM579.27,275.76c0-75.81,49.67-140.22,118.17-162.44l-52.13,90.29c-3.41,5.03-6.47,10.32-9.14,15.83l-38.22,66.19c-6.01,1.96-11.98,4.04-17.92,6.24-.5-5.3-.77-10.68-.77-16.11ZM750,54.28l20.73,35.9c-6.81-.76-13.72-1.16-20.73-1.16s-13.92.4-20.73,1.16l20.73-35.9ZM750,105.03c10.56,0,20.89.97,30.92,2.81l33.32,57.71c-18.84-11.16-40.8-17.58-64.24-17.58s-45.41,6.42-64.24,17.58l33.32-57.71c10.03-1.84,20.37-2.81,30.92-2.81ZM1130.41,472.77c4.71,6.5,9.25,13.13,13.62,19.86l-21.41-12.36c2.32-2.77,4.94-5.28,7.79-7.5ZM1194.31,552.14c-13.61-30.84-30.26-59.97-49.79-87.15,5.36-1.92,11.13-2.97,17.15-2.97,28.12,0,50.99,22.87,50.99,50.99,0,15.71-7.14,29.77-18.35,39.14ZM1328.46,1024.2l-50.56-87.57c-3.96-9.23-8.98-17.9-14.92-25.84l-37.18-64.39c1.06-5.22,2.04-10.45,2.93-15.71,60.9,26.11,103.67,86.65,103.67,157,0,12.53-1.37,24.74-3.94,36.51ZM1292.73,1096.98h-70.06c38.96-21.56,65.41-63.09,65.41-110.68,0-.02,0-.03,0-.05l34.23,59.29c-6.83,18.91-16.92,36.28-29.57,51.44ZM1332.46,1063.14l19.54,33.84h-39.02c7.61-10.51,14.16-21.85,19.48-33.84ZM283.14,891c4.87,15.93,10.58,31.64,17.12,47.11,22.54,53.3,54.04,101.59,93.71,143.78-15.97,8.99-34.38,14.13-53.98,14.13-60.88,0-110.4-49.53-110.4-110.4,0-40.1,21.49-75.27,53.56-94.61ZM274.81,877.34l2.99-5.17c.26,1,.52,1.99.78,2.99-1.27.71-2.53,1.43-3.77,2.19ZM451.58,521.01c-.69,9.67-2.6,19.01-5.6,27.86l-7.7,13.33-38.27-22.05c2.66-5.97,4.46-12.4,5.27-19.13h46.3ZM650.33,226.92l8.55-14.81c19.91-29.05,53.33-48.14,91.12-48.14s71.22,19.1,91.12,48.14l8.55,14.81c6.88,14.38,10.73,30.48,10.73,47.45,0,.09,0,.19,0,.28-36.32-8.53-73.63-12.83-111.6-12.83s-73.64,4.11-109.2,12.27c.04-16.87,3.89-32.86,10.73-47.17ZM623.65,278.03c-1.12.3-2.24.6-3.36.91l3.32-5.75c0,.39-.02.79-.02,1.18,0,1.23.02,2.45.06,3.66ZM876.39,273.19l3.77,6.54c-1.28-.36-2.56-.71-3.84-1.06.05-1.43.08-2.86.08-4.3,0-.39-.01-.79-.02-1.18ZM1095.18,521.01c.77,6.45,2.45,12.62,4.93,18.38l-38.56,22.23c-6.14-12.42-10.05-26.13-11.18-40.61h44.81ZM1249.61,919.63l13.95,24.16c5.48,13.09,8.52,27.45,8.52,42.51,0,60.88-49.53,110.4-110.4,110.4-20.85,0-40.37-5.81-57.02-15.9,39.2-41.93,70.34-89.86,92.69-142.7,6.73-15.92,12.58-32.1,17.54-48.51,13.57,7.5,25.4,17.76,34.73,30.03ZM1219.36,873.85c.4-1.52.8-3.03,1.19-4.55l4.39,7.61c-1.83-1.06-3.69-2.09-5.58-3.06ZM407.49,1072.9c-19.56-20.56-37.09-42.64-52.5-66.1l74.68,43.11c-6.25,8.69-13.73,16.43-22.18,22.98ZM370.17,553.14l-10.14-17.57,17.75,10.23c-2.28,2.7-4.83,5.16-7.61,7.34ZM391.8,553.88l38.48,22.17-6.08,10.54c-6.74,7.7-14.52,14.47-23.11,20.1l-22.86-39.59c5.12-3.75,9.69-8.2,13.57-13.22ZM437.33,595.85c2.97-3.49,5.76-7.13,8.35-10.93l86.89,50.06-57.57,99.71-58.92-102.05,21.25-36.8ZM991.11,980.38c1.07-25.29,7.66-49.17,18.6-70.47l37.94,21.86c-7.12,14.84-11.43,31.27-12.23,48.61h-44.3ZM933.51,980.38c1.2-35.11,10.28-68.84,26.41-99.16l35.92,20.7c-12.29,23.66-19.65,50.27-20.74,78.46h-41.59ZM901.63,980.38l19.17-33.2c-1.84,10.9-2.94,21.98-3.3,33.2h-15.87ZM579.21,980.38c-.29-13.7-1.7-27.21-4.18-40.44l23.35,40.44h-19.16ZM526.59,980.38c-1-28.69-8.51-55.75-21.08-79.75l32.88-18.96c15.49,30.28,24.04,63.84,24.82,98.71h-36.62ZM466.27,980.38c-.73-17.82-5.16-34.71-12.55-49.9l37.92-21.86c11.23,21.64,17.95,45.98,18.94,71.76h-44.31ZM900.22,828.37l-36.77-21.19,21.54-37.3c11.51,9.36,18.89,23.62,18.89,39.58,0,6.68-1.31,13.06-3.65,18.92ZM596.81,809.45c0-15.74,7.17-29.84,18.42-39.2l21.08,36.5-36.15,20.84c-2.16-5.64-3.35-11.75-3.35-18.14ZM700.32,639.91h35.77l-17.95,31.08c-9.3-7.71-15.81-18.65-17.82-31.08ZM802.5,817.27h36.65l-18.34,31.77c-9.61-7.8-16.33-19.01-18.31-31.77ZM679.41,849.42l-18.56-32.14h37.33c-2,12.97-8.92,24.33-18.78,32.14ZM687.35,777.33l-18.18,10.48,10.47-18.13c2.83,2.27,5.42,4.84,7.71,7.65ZM695.38,791.17c1.24,3.23,2.17,6.6,2.74,10.1h-20.27l17.53-10.1ZM709.93,782.78l31.96-18.43v36.92h-21.29l-10.68-18.49ZM757.89,764.82l32.44,18.69-10.25,17.76h-22.19v-36.45ZM804.99,791.96l16.16,9.31h-18.59c.52-3.21,1.33-6.33,2.43-9.31ZM812.8,778c2.42-3.08,5.18-5.87,8.24-8.32l11.31,19.58-19.54-11.26ZM798.33,769.66l-32.83-18.92,33.47-19.29,10.71,18.55-11.35,19.66ZM757.89,736.66v-37.94h22.19l10.89,18.87-33.08,19.07ZM741.89,681.96c-3.46-.6-6.8-1.55-9.98-2.81l9.98-17.29v20.11ZM741.89,698.73v38.41l-32.61-18.79,11.33-19.62h21.29ZM733.46,750.75l-31.54,18.18-10.93-18.93,10.28-17.8,32.19,18.55ZM681.76,734l-11.29-19.55,16.94,9.76-5.65,9.79ZM647.27,793.75l-18.29-31.67c5.83-2.32,12.17-3.61,18.81-3.61s12.37,1.16,17.95,3.27l-18.48,32.01ZM741.89,817.27v20.87l-12.05-20.87h12.05ZM757.89,817.27h12.95l-12.95,22.43v-22.43ZM853.07,793.16l-18.14-31.42c5.59-2.11,11.64-3.27,17.95-3.27s12.58,1.21,18.26,3.39l-18.07,31.3ZM812.83,723.46l18.25-10.52-12.16,21.06-6.09-10.54ZM804.83,709.6l-6.28-10.88h25.14l-18.86,10.88ZM757.89,682.2v-21.91l10.99,19.04c-3.5,1.34-7.18,2.32-10.99,2.86ZM695.42,710.36l-20.18-11.63h26.89l-6.71,11.63ZM670.46,746.42c-7.08-2.55-14.71-3.95-22.66-3.95s-16.18,1.51-23.5,4.26l23.17-40.13,22.99,39.82ZM644.3,820.61l21.17,36.67c-5.51,2.04-11.46,3.16-17.68,3.16-16,0-30.3-7.42-39.65-18.98l36.16-20.85ZM713.71,821.33l22.78,39.45h-45.71c11.77-9.88,20.1-23.72,22.93-39.45ZM786.98,821.33c2.83,15.73,11.15,29.57,22.93,39.45h-45.71l22.78-39.45ZM852.89,860.44c-6.42,0-12.57-1.21-18.23-3.38l20.8-36.02,36.56,21.07c-9.36,11.2-23.42,18.34-39.13,18.34ZM852.89,742.46c-7.95,0-15.58,1.4-22.66,3.95l22.65-39.23,22.64,39.22c-7.07-2.55-14.69-3.94-22.63-3.94ZM794.02,682.73c11.44-9.75,19.56-23.26,22.45-38.6l22.29,38.6h-44.73ZM782.73,671.32l-18.14-31.41h36.37c-2.04,12.61-8.72,23.69-18.23,31.41ZM741.89,623.91h-41.64c3.33-21.55,20.22-38.67,41.64-42.4v42.4ZM707.27,682.73h-46.02l23.27-40.3c2.58,16.05,10.89,30.2,22.75,40.3ZM612.97,734.35l-45.88-79.47,68.85,39.67-22.97,39.79ZM581.73,820.46c.88,5.3,2.37,10.4,4.43,15.21l-19.79,11.41,15.37-26.62ZM594.15,849.53c3.11,4.15,6.69,7.92,10.66,11.25h-30.18l19.52-11.25ZM741.89,876.78v80.86l-46.69-80.86h46.69ZM757.89,876.78h46.9l-46.9,81.24v-81.24ZM906.03,850.18l18.4,10.6h-28.56c3.76-3.15,7.16-6.71,10.15-10.6ZM914.19,836.42c2.1-4.75,3.66-9.8,4.6-15.05l15.32,26.53-19.92-11.48ZM863.78,694.09l69.68-40.17-46.44,80.43-23.24-40.26ZM855.78,680.23l-23.28-40.32h93.22l-69.94,40.32ZM801.03,623.91h-43.14v-42.64c14.4,2.06,26.88,10.15,34.78,21.64l4.05,7.01c2.07,4.36,3.55,9.06,4.31,13.99ZM757.89,565.15v-22.47l14.93,25.87c-4.76-1.68-9.76-2.83-14.93-3.39ZM741.89,565.34c-5.23.69-10.28,1.97-15.06,3.8l15.06-26.09v22.29ZM643.95,680.7l-70.78-40.79h94.33l-23.55,40.79ZM603.73,750.35l-50.98,88.29v-176.59l50.98,88.29ZM676.73,876.78l50.81,88.01-152.44-88.01h101.63ZM823.27,876.78h101.63l-152.44,88.01,50.81-88.01ZM896.27,750.35l50.98-88.29v176.59l-50.98-88.29ZM823.27,623.91l-12.42-21.5c-1.36-2.79-2.91-5.48-4.64-8.03l-34.36-59.51,154.24,89.05h-102.83ZM676.73,623.91h-102.83l154.24-89.05-51.41,89.05ZM536.76,841.67l-52.52-90.97,52.52-90.97v181.95ZM494.47,800.43c-8.64-7.47-17.72-14.27-27.18-20.4l7.7-13.34,19.48,33.74ZM496.33,824c13.31,13.31,24.78,27.99,34.27,43.7l-33.12,19.09c-14.92-23.36-34.89-43.2-58.36-57.96l20.16-34.91c13.21,8.62,25.63,18.67,37.05,30.08ZM483.61,894.78l-37.8,21.79c-9.48-14.49-21.86-26.92-36.3-36.47l21.6-37.42c21.05,13.34,39,31.15,52.49,52.1ZM431.94,924.57l-72.08,41.55,41.66-72.15c12.03,8.11,22.38,18.52,30.43,30.59ZM439.82,938.5c6.07,12.81,9.74,26.97,10.44,41.89h-83.1l72.66-41.89ZM563.99,888.84l158.56,91.54h-105.71l-52.85-91.54ZM936.01,888.84l-52.85,91.54h-105.71l158.56-91.54ZM1055.47,917.82l-37.79-21.78c13.34-20.88,31.09-38.69,51.94-52.09l21.61,37.44c-14.24,9.59-26.42,22-35.76,36.43ZM1099.25,895.29l41.32,71.57-71.21-41.03c7.89-12.01,18.06-22.39,29.9-30.53ZM1061.56,939.79l70.44,40.59h-80.57c.77-14.43,4.32-28.14,10.13-40.59ZM1113.05,887.2c12.48-6.15,26.28-10.01,40.85-11.02v81.78l-40.85-70.76ZM1105.04,873.32l-21.57-37.36c21.28-11.01,45.15-17.67,70.44-18.81v43c-17.48,1.06-34.01,5.69-48.87,13.17ZM1075.46,822.09l-20.63-35.74c30.29-16.1,64-25.17,99.08-26.36v41.14c-28.2,1.16-54.8,8.6-78.44,20.96ZM1061.61,830.1c-23.26,14.82-43.04,34.65-57.8,57.96l-35.88-20.67c9.11-14.55,19.93-28.17,32.37-40.61s26.11-23.29,40.68-32.41l20.63,35.73ZM1005.61,800.29l19.39-33.59,7.97,13.8c-9.51,5.92-18.65,12.53-27.36,19.79ZM963.24,841.67v-181.95l52.52,90.98-52.52,90.98ZM779.86,521.01h103.3l51.65,89.46-154.95-89.46ZM830.47,505.01c11.9-4.21,23.46-9.34,34.57-15.36l8.87,15.36h-43.44ZM757.89,502.73v-40.41c28.45-1.19,55.26-8.77,79.06-21.34l20.09,34.8c-30.28,16.32-64.01,25.59-99.15,26.95ZM757.89,446.3v-45.78c17.24-1.07,33.55-5.6,48.24-12.92l22.81,39.51c-21.43,11.22-45.52,18.03-71.05,19.2ZM757.89,384.49v-80.45l40.23,69.68c-12.31,5.99-25.9,9.75-40.23,10.77ZM741.89,384.48c-14.25-1.04-27.76-4.8-40.02-10.75l40.02-69.31v80.06ZM741.89,400.51v45.79c-25.46-1.2-49.47-8-70.84-19.19l22.81-39.51c14.64,7.29,30.87,11.81,48.03,12.91ZM741.89,462.31v40.5c-35.22-1.04-69.07-10.01-99.5-26.06l20.66-35.78c23.73,12.54,50.48,20.12,78.84,21.34ZM667.12,505.01h-41.04l8.3-14.38c10.55,5.6,21.49,10.4,32.74,14.38ZM720.14,521.01l-154.95,89.46,51.65-89.46h103.3ZM465.76,750.69l-12.17,21.08c-30.7-17.13-64.83-27.41-100.49-30.04l53.74-93.08,58.92,102.05ZM425.23,820.89c-23.87-12.3-50.71-19.59-79.14-20.51v-43.04c35.33,1.72,69.19,11.46,99.49,28.31l-20.35,35.24ZM417.22,834.76l-21.58,37.38c-15.08-7.43-31.84-11.94-49.55-12.78v-42.97c25.52.9,49.63,7.42,71.13,18.38ZM387.63,886.02l-41.53,71.94v-82.58c14.8.81,28.84,4.55,41.53,10.65ZM368.94,996.38h80.92c-1.39,14.26-5.5,27.74-11.81,39.9l-69.11-39.9ZM465.92,996.38h44.53c-1.38,25.32-8.3,49.18-19.57,70.41l-38.97-22.5c7.65-14.54,12.56-30.74,14.01-47.91ZM526.48,996.38h36.53c-1.58,34.26-10.67,67.14-26.5,96.75l-31.77-18.34c12.62-23.59,20.33-50.18,21.74-78.41ZM579.02,996.38h28.58l58.08,100.6h-113.13c15.86-30.94,24.94-65.08,26.47-100.6ZM626.08,996.38h115.81v100.6h-57.73l-58.08-100.6ZM741.89,1114.04v44.42c-6.75.82-13.19,2.64-19.17,5.32l-22.21-38.47c12.64-6.26,26.62-10.2,41.38-11.26ZM741.89,1174.6v22.38l-11.12-19.26c3.53-1.44,7.25-2.5,11.12-3.12ZM757.89,1174.56c3.95.62,7.74,1.69,11.33,3.16l-11.33,19.63v-22.79ZM757.89,1158.43v-44.4c14.84,1.04,28.9,4.99,41.6,11.28l-22.21,38.47c-6.04-2.71-12.56-4.54-19.38-5.35ZM757.89,1096.98v-100.6h116.03l-58.08,100.6h-57.95ZM892.39,996.38h25.1c1.13,35.45,9.77,69.59,25.17,100.6h-108.35l58.08-100.6ZM933.51,996.38h41.64c1.29,27.98,8.77,54.37,21.09,77.84l-36.46,21.05c-16.04-30.24-25.07-63.88-26.27-98.89ZM991.16,996.38h44.51c1.34,16.93,6.03,32.93,13.41,47.33l-38.97,22.5c-10.98-21.1-17.68-44.76-18.95-69.84ZM1051.73,996.38h79.33l-68.11,39.32c-6.04-12.02-9.95-25.3-11.23-39.32ZM1141.1,1009.06c-14.68,22.07-31.25,42.91-49.63,62.39-7.72-6.38-14.56-13.79-20.31-22.01l69.94-40.38ZM1093.29,1092.56c2.41,1.55,4.87,3.02,7.38,4.42h-11.85c1.4-1.37,2.8-2.75,4.19-4.14.09-.09.18-.18.27-.28ZM1182.6,931.87c-3.95,9.33-8.19,18.51-12.7,27.52v-83.19c10.58.78,20.75,3.07,30.3,6.64-4.94,16.6-10.8,32.95-17.6,49.03ZM1046.82,772.47l-12.57-21.78,58.92-102.05,55.17,95.56c-35.93,1.95-70.42,11.63-101.52,28.26ZM1025.01,734.69l-57.85-100.2,88.41-50.97,28.36,49.12-58.92,102.04ZM1069.65,575.41l38.49-22.19c3.9,5.19,8.55,9.78,13.76,13.65l-22.12,38.32c-11.83-7.93-22.06-18.05-30.13-29.78ZM1122.13,545.15l18.44-10.63-10.61,18.37c-2.88-2.29-5.51-4.89-7.84-7.74ZM1135.8,574.79c5.68,2.39,11.76,4,18.11,4.74v44.25c-14.32-1.02-27.9-4.74-40.24-10.66l22.13-38.34ZM1143.89,560.79l10.02-17.36v19.97c-3.47-.53-6.82-1.42-10.02-2.62ZM1114.1,531.32c-1.27-3.29-2.22-6.74-2.78-10.31h20.67l-17.89,10.31ZM1047.56,569.67l-88.41,50.97-57.52-99.63h117.83l28.1,48.67ZM892.39,505.01l-13.53-23.44c15.34-9.67,29.72-21.13,42.86-34.27,12.24-12.24,23.01-25.56,32.25-39.73l56.26,97.44h-117.83ZM910.41,435.98c-12.14,12.14-25.4,22.74-39.55,31.72l-20.09-34.79c23.12-14.87,42.74-34.71,57.39-57.99l34.83,20.11c-9.16,14.68-20.04,28.42-32.58,40.95ZM842.76,419.03l-22.78-39.45c13.94-9.3,25.93-21.29,35.23-35.23l39.09,22.57c-13.22,20.86-30.84,38.66-51.54,52.11ZM811.97,365.7l-40.11-69.47,69.47,40.11c-7.85,11.53-17.83,21.51-29.36,29.36ZM773.02,278.43c29.23,1.47,58.01,5.61,86.16,12.37-1.68,11.2-5.04,21.85-9.83,31.69l-76.33-44.07ZM727.18,278.31l-76.53,44.19c-4.86-10-8.26-20.84-9.91-32.24,28.25-6.64,57.12-10.63,86.44-11.94ZM728.14,296.23l-40.11,69.47c-11.53-7.85-21.51-17.83-29.36-29.36l69.47-40.11ZM680.02,379.58l-22.78,39.45c-20.7-13.45-38.32-31.25-51.54-52.11l39.09-22.57c9.3,13.94,21.29,25.93,35.23,35.23ZM649.23,432.91l-20.72,35.89c-14.82-9.2-28.68-20.17-41.33-32.81-12.24-12.24-22.92-25.64-31.95-39.93l36.6-21.13c14.64,23.27,34.27,43.11,57.39,57.99ZM575.87,447.3c13.64,13.64,28.62,25.46,44.63,35.36l-12.9,22.35h-117.83l55.13-95.48c8.95,13.44,19.3,26.09,30.97,37.77ZM598.37,521.01l-57.81,100.12-86.7-49.96c2.57-5.01,4.81-10.22,6.71-15.58l19.97-34.58h117.83ZM386.05,532.1l-19.25-11.09h22.34c-.61,3.86-1.66,7.57-3.09,11.09ZM356.2,560.93c-3.23,1.18-6.61,2.03-10.1,2.53v-20.03l10.1,17.5ZM364.28,574.94l22.82,39.53c-12.58,5.87-26.43,9.47-41.01,10.25v-45.14c6.37-.7,12.48-2.29,18.19-4.65ZM395.14,628.37l2.47,4.27-51.51,89.22v-81.12c17.49-.83,34.07-5.18,49.04-12.37ZM330.09,964.13c-5.42-10.53-10.46-21.28-15.1-32.26-6.69-15.82-12.47-31.9-17.36-48.22,10.15-4.23,21.06-6.99,32.46-8v88.48ZM405.45,1093.7c1.1,1.1,2.21,2.19,3.32,3.28h-9.05c1.94-1.05,3.86-2.14,5.74-3.28ZM425.95,1112.98c4.68,4.15,9.42,8.2,14.24,12.16-28.16,20.48-62.79,32.59-100.2,32.59-44.31,0-84.73-16.97-115.1-44.75h201.07ZM450.59,1112.98h4.5c-.71.65-1.42,1.28-2.14,1.92-.79-.64-1.57-1.28-2.35-1.92ZM432.08,1096.98c-4.51-4.11-8.94-8.31-13.31-12.61,9.47-7.57,17.83-16.47,24.8-26.42l39.15,22.6c-3.76,5.72-7.86,11.21-12.27,16.43h-38.37ZM496.6,1088.56l14.57,8.41h-20.39c2.01-2.75,3.95-5.55,5.81-8.41ZM674.92,1112.98l3.77,6.54c-13.91,9.38-25.89,21.42-35.19,35.39l-72.62-41.93h104.04ZM686.72,1133.41l22.29,38.6c-4.89,3.8-9.25,8.25-12.93,13.24l-38.69-22.33c7.86-11.56,17.82-21.58,29.33-29.51ZM717.1,1186.03l9.84,17.05-16.9-9.76c2.11-2.66,4.47-5.1,7.06-7.29ZM721.94,1218.66c-7.46-.42-14.89-1.01-22.29-1.77.53-3.33,1.38-6.56,2.52-9.64l19.76,11.41ZM748.8,1235.42c17.35,0,34.56-.91,51.6-2.69-3.76,24.43-24.93,43.2-50.39,43.2s-46.47-18.64-50.35-42.94c16.24,1.62,32.63,2.43,49.14,2.43ZM778.32,1218.52l19.51-11.26c1.12,3.01,1.95,6.15,2.48,9.39-7.3.79-14.63,1.42-21.99,1.87ZM773.06,1203.08l9.84-17.05c2.59,2.19,4.95,4.63,7.06,7.29l-16.9,9.76ZM791,1172.01l22.29-38.6c11.51,7.93,21.48,17.94,29.33,29.51l-38.69,22.33c-3.68-4.99-8.04-9.44-12.93-13.24ZM821.3,1119.51l3.77-6.54h104.04l-72.62,41.93c-9.31-13.97-21.28-26.01-35.19-35.39ZM1004.27,1088.06c1.94,3.04,3.98,6.01,6.09,8.92h-21.53l15.45-8.92ZM1018.14,1080.05l39.12-22.59c6.49,9.5,14.25,18.06,23.02,25.46-4.84,4.8-9.76,9.48-14.77,14.05h-34.9c-4.49-5.37-8.66-11.02-12.47-16.93ZM1047,1112.98c-.21.17-.42.34-.63.51-.19-.17-.37-.34-.55-.51h1.18ZM1071.65,1112.98h205.87c-30.46,28.19-71.17,45.44-115.85,45.44-38.56,0-74.17-12.86-102.79-34.5,4.31-3.57,8.57-7.22,12.76-10.94ZM1213.46,825.02l-.02-.03s.01,0,.02,0c0,0,0,.01,0,.02ZM1208.88,849.09c-1.33,6.13-2.79,12.22-4.37,18.29-10.92-3.95-22.54-6.42-34.61-7.2v-43.01c7.46.36,14.79,1.19,21.97,2.47l17.01,29.46ZM1169.91,801.15v-19.57l11.81,20.45c-3.9-.42-7.84-.71-11.81-.89ZM1102.4,632.65l3.25-5.64c14.72,7.24,31.03,11.73,48.26,12.8v82.05l-51.51-89.22ZM1169.91,537.85c3.71,7.41,7.23,14.92,10.56,22.54-3.36,1.34-6.89,2.33-10.56,2.93v-25.47ZM1133.47,505.01h-22.15c.61-3.83,1.65-7.52,3.06-11.02l19.09,11.02ZM1095.18,505.01h-44.92c.95-14.86,4.8-28.95,11.01-41.68l39.15,22.6c-2.64,5.96-4.44,12.37-5.24,19.08ZM1034.23,505.01h-5.52l-52.38-90.73,71.07,41.03c-7.54,15.12-12.18,31.93-13.16,49.7ZM916.1,361.03c1.76-3.42,3.42-6.91,4.97-10.45l11.54,19.98-16.51-9.53ZM902.23,353.02l-38.99-22.51c5.51-11.07,9.45-23.06,11.51-35.68,5.72,1.59,11.42,3.28,17.08,5.09l19.05,33c-2.46,6.91-5.35,13.62-8.65,20.09ZM914.94,307.97c.85.32,1.7.65,2.54.97-.17.85-.34,1.69-.52,2.53l-2.02-3.5ZM919.89,292.74c-5.73-2.15-11.49-4.2-17.28-6.12l-38.78-67.17c-2.67-5.51-5.73-10.81-9.15-15.84l-52.13-90.29c68.5,22.22,118.17,86.63,118.17,162.44,0,5.73-.29,11.39-.84,16.98ZM585.72,306.83l-2.68,4.64c-.24-1.13-.47-2.26-.69-3.39,1.12-.42,2.24-.84,3.37-1.25ZM608.72,298.99c5.45-1.7,10.93-3.3,16.44-4.79,2.03,12.85,6.01,25.05,11.61,36.31l-38.99,22.51c-3.3-6.47-6.19-13.18-8.65-20.09l19.59-33.93ZM583.9,361.03l-16.51,9.53,11.54-19.98c1.55,3.54,3.21,7.03,4.97,10.45ZM471.3,505.01h-3.69c-1.12-18.05-5.99-35.09-13.85-50.36l69.93-40.37-52.38,90.73ZM451.58,505.01h-46.3c-.81-6.79-2.64-13.27-5.34-19.29l39.94-23.06c6.52,12.89,10.62,27.21,11.7,42.35ZM389.14,505.01h-22.61l19.46-11.24c1.46,3.56,2.53,7.32,3.15,11.24ZM330.09,533.11v30.13c-4.39-.76-8.58-2.07-12.51-3.88,3.91-8.9,8.08-17.65,12.51-26.26ZM330.09,800.52c-3.87.2-7.7.53-11.5.97l11.5-19.91v18.94ZM330.09,816.56v43.03c-12.91,1-25.27,3.96-36.81,8.56-1.4-5.33-2.7-10.68-3.9-16.05l18.99-32.89c7.1-1.33,14.35-2.23,21.72-2.65ZM284.68,828.24c-.15-.87-.3-1.75-.44-2.62.81-.28,1.62-.55,2.43-.82l-1.99,3.44ZM213.61,983.34c-.01.75-.03,1.51-.03,2.27,0,48.11,27.02,90.02,66.67,111.37h-70.74c-13.23-15.67-23.7-33.75-30.64-53.48l34.74-60.16ZM189.18,1096.98h-41.18l20.65-35.77c5.53,12.72,12.44,24.7,20.53,35.77ZM465.75,1124.9c4.16-3.79,8.14-7.77,11.94-11.92h46.87c-8.03,11.91-17.23,23.14-27.57,33.56-10.7-6.78-21.12-13.99-31.24-21.63ZM542.34,1114.97l93.14,53.78c-5.28,10.59-9.14,22.01-11.32,34.01-19.89-5.45-39.46-12.23-58.62-20.34-18.84-7.97-37.04-17.1-54.53-27.35,11.93-12.4,22.4-25.83,31.33-40.11ZM649.36,1176.76l38.81,22.41c-2.09,5-3.59,10.3-4.42,15.82-14.83-2.04-29.52-4.8-44.04-8.24,1.8-10.57,5.09-20.64,9.65-29.98ZM816.2,1214.65c-.84-5.4-2.32-10.58-4.37-15.48l38.81-22.41c4.48,9.18,7.73,19.06,9.56,29.43-14.5,3.52-29.18,6.34-43.99,8.46ZM864.52,1168.75l89.39-51.61c8.67,13.95,18.81,27.12,30.34,39.3-16.78,9.7-34.19,18.37-52.2,25.99-18.43,7.8-37.23,14.37-56.34,19.71-2.19-11.77-6.01-22.98-11.2-33.39ZM970.23,1112.98h53.1c3.31,3.65,6.76,7.16,10.35,10.54-11.42,8.7-23.21,16.85-35.35,24.45-10.59-10.85-19.98-22.57-28.09-34.99ZM1046.03,1134.2c31.82,25.17,72.01,40.22,115.64,40.22,54.8,0,104.15-23.73,138.34-61.44h53.56c-8.62,13.2-18.66,25.61-30.06,37.01-43.17,43.17-100.56,66.94-161.61,66.94-56.47,0-109.8-20.35-151.65-57.57,12.29-7.83,24.22-16.23,35.78-25.16ZM1366.61,1090.27l-26.83-46.46c5.6-17.72,8.62-36.57,8.62-56.12,0-78.4-48.57-145.66-117.19-173.29,1.9-14.1,3.18-28.32,3.85-42.65,32.95,11.09,63.15,29.72,88.46,55.03,43.17,43.17,66.94,100.56,66.94,161.61,0,35.95-8.25,70.63-23.85,101.89ZM1215.78,808.96c-4.48-1.36-9.04-2.55-13.66-3.58l-26.04-45.1c14.7.89,29.14,3.17,43.16,6.78-.54,14.08-1.69,28.05-3.46,41.9ZM1169.91,623.78v-44.31c5.83-.72,11.43-2.19,16.71-4.31,5.46,13.77,10.25,27.73,14.37,41.87-9.79,3.66-20.22,5.99-31.07,6.76ZM1200.73,567.38c16.9-12.17,27.93-32,27.93-54.37,0-36.94-30.05-66.99-66.99-66.99-9.61,0-18.75,2.05-27.02,5.71-9.46-12.27-19.54-24.11-30.21-35.51,16.81-10.1,36.47-15.92,57.46-15.92,61.69,0,111.89,50.19,111.89,111.89,0,42.22-23.51,79.04-58.11,98.09-4.29-14.48-9.28-28.79-14.95-42.9ZM1120.8,459.98c-4.57,3.53-8.66,7.63-12.19,12.2l-39.32-22.7c6.12-9.01,13.52-17.08,21.94-23.96,10.45,11.06,20.31,22.55,29.58,34.46ZM1055.41,441.46l-90.56-52.28c8.2-15.38,14.69-31.58,19.4-48.38,34.79,20.1,66.84,44.61,95.76,73.24-9.45,7.9-17.75,17.14-24.6,27.42ZM953.9,375.44l-25.56-44.27c1.65-5.28,3.05-10.67,4.22-16.14,12.72,5.4,25.15,11.33,37.27,17.78-3.87,14.74-9.2,29.01-15.93,42.64ZM565.54,314.81c.56-.24,1.13-.47,1.69-.7,1.21,5.79,2.69,11.48,4.43,17.06l-26.85,46.51c-7.26-14.3-12.97-29.33-17.05-44.88,12.28-6.53,24.88-12.54,37.78-18ZM533.32,390.24l-87.76,50.67c-7.35-10.73-16.29-20.29-26.48-28.34,28.52-28,60.08-52.01,94.27-71.77,4.82,17.18,11.51,33.74,19.98,49.43ZM431.65,448.93l-39.96,23.07c-3.95-5.09-8.62-9.6-13.86-13.37,9.37-11.96,19.35-23.49,29.92-34.59,9.18,7.01,17.25,15.41,23.9,24.89ZM363.65,450.82c-7.69-3.09-16.08-4.8-24.87-4.8-36.94,0-66.99,30.05-66.99,66.99,0,21.39,10.08,40.45,25.74,52.72-5.76,14.18-10.82,28.57-15.18,43.14-32.48-19.6-54.25-55.24-54.25-95.86,0-61.69,50.19-111.89,111.89-111.89,19.64,0,38.12,5.09,54.18,14.02-10.78,11.45-20.96,23.35-30.52,35.68ZM311.4,574.12c5.84,2.63,12.12,4.44,18.69,5.29v45.04c-11.69-1.03-22.86-3.86-33.25-8.21,4.17-14.22,9.02-28.27,14.55-42.12ZM330.09,640.51v100.6c-17.75.33-35.19,2.54-52.09,6.53.08-39.5,4.96-78.26,14.58-115.87,11.75,4.71,24.36,7.72,37.51,8.73ZM325.67,757.25l-27.57,47.75c-5.5,1.27-10.91,2.78-16.21,4.53-1.93-15.02-3.15-30.19-3.63-45.48,15.37-3.89,31.25-6.18,47.42-6.8ZM1248.72,1248.72c-64.78,64.78-140.2,115.63-224.19,151.15-86.95,36.78-179.31,55.42-274.53,55.42s-187.58-18.65-274.53-55.42c-83.99-35.52-159.41-86.38-224.19-151.15-19.42-19.42-37.59-39.81-54.47-61.09,40.32,27.65,87.96,42.53,137.9,42.53,61.39,0,119.32-22.47,164.41-63.51,19.25,11.51,39.33,21.7,60.18,30.52,20.58,8.7,41.6,15.94,62.98,21.68-.12,2.25-.18,4.51-.18,6.78,0,70.52,57.37,127.89,127.89,127.89s127.89-57.37,127.89-127.89c0-2.5-.08-4.97-.22-7.43,20.57-5.64,40.8-12.65,60.62-21.03,19.98-8.45,39.25-18.16,57.77-29.08,45.3,41.89,103.81,64.85,165.85,64.85,51,0,99.62-15.51,140.48-44.3-16.65,20.92-34.55,40.97-53.66,60.08ZM1248.72,251.28c64.78,64.78,115.63,140.2,151.15,224.19,36.78,86.95,55.42,179.31,55.42,274.53,0,90.3-16.78,178.03-49.88,261.01.68-7.48,1.04-15.03,1.04-22.63,0-65.32-25.44-126.73-71.63-172.92-28.26-28.26-62.21-48.73-99.27-60.38.03-2.15.04-4.31.04-6.46,0-41.8-5.22-82.8-15.54-122.55,41.36-21.21,69.73-64.29,69.73-113.88,0-70.52-57.37-127.89-127.89-127.89-25.32,0-48.95,7.4-68.84,20.15-.02-.02-.03-.03-.05-.05-31.46-31.46-66.58-58.16-104.82-79.77,3.4-16.35,5.16-33.17,5.16-50.26,0-65.32-25.44-126.73-71.63-172.92-21.01-21.01-45.18-37.71-71.42-49.69,59.87,8.5,118.18,24.66,174.23,48.37,83.99,35.52,159.41,86.38,224.19,151.15ZM100.13,475.47c35.52-83.99,86.38-159.41,151.15-224.19,64.78-64.78,140.2-115.63,224.19-151.15,54.96-23.25,112.09-39.24,170.73-47.87-25.82,11.94-49.61,28.47-70.33,49.19-46.19,46.19-71.63,107.6-71.63,172.92,0,17.09,1.76,33.9,5.16,50.25-37.81,21.36-72.55,47.7-103.73,78.69-19.21-11.55-41.69-18.2-65.69-18.2-70.52,0-127.89,57.37-127.89,127.89,0,47.99,26.58,89.88,65.78,111.76-10.55,40.16-15.88,81.6-15.88,123.85,0,1.13.01,2.26.02,3.38-37.43,11.6-71.72,32.18-100.22,60.68-46.19,46.19-71.63,107.6-71.63,172.92,0,5.15.18,10.26.49,15.36-30.5-80-45.95-164.3-45.95-250.96,0-95.22,18.65-187.58,55.42-274.53Z"/></svg>
