<?xml version="1.0" encoding="UTF-8"?><svg id="Layer_2" xmlns="http://www.w3.org/2000/svg" xmlns:xlink="http://www.w3.org/1999/xlink" viewBox="0 0 1500 1500"><defs><style>.cls-1{fill:url(#New_Gradient_Swatch_2);stroke-width:0px;}</style><linearGradient id="New_Gradient_Swatch_2" x1="150.5" y1="1096.12" x2="1349.5" y2="403.88" gradientUnits="userSpaceOnUse"><stop offset="0" stop-color="#56450d"/><stop offset=".21" stop-color="#e5c787"/><stop offset=".39" stop-color="#f7d976"/><stop offset=".99" stop-color="#725728"/></linearGradient></defs><path class="cls-1" d="M1435.96,561.05c-24.45-57.8-59.45-109.71-104.02-154.29-44.58-44.58-96.49-79.58-154.29-104.02-59.85-25.31-123.42-38.15-188.94-38.15s-129.1,12.83-188.94,38.15c-17.12,7.24-33.71,15.41-49.76,24.48-16.05-9.06-32.64-17.24-49.76-24.48-59.85-25.31-123.42-38.15-188.94-38.15s-129.1,12.83-188.94,38.15c-57.8,24.45-109.71,59.45-154.29,104.02-44.58,44.58-79.58,96.49-104.02,154.29-25.31,59.85-38.15,123.42-38.15,188.95s12.83,129.1,38.15,188.94c24.45,57.8,59.45,109.71,104.02,154.29s96.49,79.57,154.29,104.02c59.85,25.31,123.42,38.15,188.94,38.15s129.1-12.83,188.94-38.15c17.12-7.24,33.71-15.41,49.76-24.48,16.05,9.06,32.64,17.24,49.76,24.48,59.85,25.31,123.42,38.15,188.94,38.15s129.1-12.83,188.94-38.15c57.8-24.45,109.71-59.45,154.29-104.02s79.58-96.49,104.02-154.29c25.31-59.85,38.15-123.42,38.15-188.94s-12.83-129.1-38.15-188.95ZM694.01,1182.52c-57.87,24.47-119.34,36.88-182.71,36.88s-124.85-12.41-182.71-36.88c-55.9-23.64-106.1-57.49-149.21-100.6-43.11-43.11-76.96-93.31-100.6-149.21-24.47-57.87-36.88-119.34-36.88-182.71s12.41-124.85,36.88-182.71c23.64-55.9,57.49-106.1,100.6-149.21s93.31-76.96,149.21-100.6c57.87-24.47,119.34-36.88,182.71-36.88s124.85,12.41,182.71,36.88c13.68,5.79,27.02,12.19,40,19.19-31.98,19.73-61.6,43.16-88.54,70.1-44.58,44.58-79.57,96.49-104.02,154.29-25.31,59.85-38.15,123.42-38.15,188.95s12.83,129.1,38.15,188.94c24.45,57.8,59.45,109.71,104.02,154.29,26.94,26.94,56.56,50.37,88.54,70.1-12.98,7-26.32,13.4-40,19.19ZM750,345.69c33.84,20,65.04,44.21,93.22,72.39,43.11,43.11,76.96,93.31,100.6,149.21,24.47,57.87,36.88,119.34,36.88,182.71s-12.41,124.85-36.88,182.71c-23.64,55.9-57.49,106.1-100.6,149.21-28.17,28.17-59.38,52.39-93.22,72.39-33.84-20-65.04-44.21-93.22-72.39-43.11-43.11-76.96-93.31-100.6-149.21-24.47-57.87-36.88-119.34-36.88-182.71s12.41-124.85,36.88-182.71c23.64-55.9,57.49-106.1,100.6-149.21,28.17-28.17,59.38-52.39,93.22-72.39ZM1421.23,932.71c-23.64,55.9-57.49,106.1-100.6,149.21-43.11,43.11-93.31,76.96-149.21,100.6-57.87,24.47-119.34,36.88-182.71,36.88s-124.85-12.41-182.71-36.88c-13.68-5.79-27.02-12.19-40-19.19,31.98-19.73,61.6-43.16,88.54-70.1,44.58-44.58,79.57-96.49,104.02-154.29,25.31-59.85,38.15-123.42,38.15-188.94s-12.83-129.1-38.15-188.95c-24.45-57.8-59.45-109.71-104.02-154.29-26.94-26.94-56.56-50.37-88.54-70.1,12.98-7,26.32-13.4,40-19.19,57.87-24.47,119.34-36.88,182.71-36.88s124.85,12.41,182.71,36.88c55.9,23.64,106.1,57.49,149.21,100.6s76.96,93.31,100.6,149.21c24.47,57.87,36.88,119.34,36.88,182.71s-12.41,124.85-36.88,182.71Z"/></svg>