<?xml version="1.0" encoding="UTF-8"?><svg id="Layer_2" xmlns="http://www.w3.org/2000/svg" xmlns:xlink="http://www.w3.org/1999/xlink" viewBox="0 0 1500 1500"><defs><style>.cls-1{fill:url(#New_Gradient_Swatch_2);stroke-width:0px;}</style><linearGradient id="New_Gradient_Swatch_2" x1="182.26" y1="1077.85" x2="1318.46" y2="421.86" gradientUnits="userSpaceOnUse"><stop offset="0" stop-color="#56450d"/><stop offset=".21" stop-color="#e5c787"/><stop offset=".39" stop-color="#f7d976"/><stop offset=".99" stop-color="#725728"/></linearGradient></defs><path class="cls-1" d="M1394.8,648.72c-8.12-52.69-22.69-104.04-43.61-153.5-32.76-77.45-79.62-147.03-139.29-206.81v-.96h-.96c-59.78-59.66-129.36-106.53-206.81-139.28-49.37-20.88-100.63-35.43-153.22-43.56-2.19-53.62-46.49-96.57-100.64-96.57s-98.45,42.95-100.64,96.57c-52.59,8.13-103.85,22.68-153.22,43.56-77.45,32.76-147.03,79.62-206.82,139.28h-.96v.96c-59.66,59.78-106.53,129.36-139.28,206.82-20.88,49.36-35.42,100.6-43.55,153.17-54.19,1.56-97.79,46.13-97.79,100.69s43.6,99.13,97.79,100.69c8.13,52.58,22.68,103.82,43.55,153.17,32.76,77.45,79.62,147.03,139.28,206.81v.96h.96c59.78,59.66,129.36,106.53,206.81,139.29,49.25,20.83,100.37,35.36,152.82,43.5,1.21,54.5,45.92,98.46,100.7,98.46s99.43-43.91,100.7-98.36c52.69-8.12,104.04-22.69,153.49-43.6,77.45-32.76,147.03-79.62,206.81-139.29h.96v-.96c59.66-59.78,106.53-129.36,139.29-206.81,20.84-49.27,35.37-100.41,43.51-152.89,53.96-1.82,97.29-46.28,97.29-100.67s-43.28-98.79-97.19-100.66ZM1380.92,833.46c-16.39-2-31.35-8.68-43.49-18.69l48.79-48.79c-.59,22.7-2.36,45.21-5.3,67.48ZM119.58,665.07c16.25,2.09,31.09,8.77,43.12,18.74l-48.38,48.38c.58-22.58,2.34-44.96,5.26-67.12ZM1346.72,715.3l-25.29-13.83c1.55-2.25,3.2-4.42,4.95-6.5l20.33,20.33ZM1290.88,741.08h-78.96v-81.27l87.64,47.93c-4.7,10.31-7.71,21.54-8.67,33.34ZM1313.65,715.45l46.87,25.63h-53.57c.88-9.03,3.2-17.65,6.7-25.63ZM1195.91,741.08h-114.19l38.49-131.42,75.69,41.4v90.02ZM815.55,695.12c10.55,12.73,17.43,28.6,19.07,45.96h-65.03l45.96-45.96ZM758.27,729.77v-65.03c17.37,1.63,33.23,8.52,45.96,19.07l-45.96,45.96ZM742.27,729.77l-45.96-45.96c12.73-10.55,28.6-17.43,45.96-19.07v65.03ZM730.96,741.08h-65.03c1.63-17.37,8.52-33.23,19.07-45.96l45.96,45.96ZM730.96,757.08l-45.96,45.96c-10.55-12.73-17.43-28.6-19.07-45.96h65.03ZM742.27,768.4v65.03c-17.37-1.63-33.23-8.52-45.96-19.07l45.96-45.96ZM758.27,768.4l45.96,45.96c-12.73,10.55-28.6,17.43-45.96,19.07v-65.03ZM769.59,757.08h65.03c-1.63,17.37-8.52,33.23-19.07,45.96l-45.96-45.96ZM848.05,724.84c-2.46-9.91-6.38-19.24-11.53-27.75l24.25,6.23-12.72,21.52ZM876.91,707.46l130.86,33.62h-150.73l19.88-33.62ZM831.42,679.25l106.58-106.58-68.75,116.3-37.83-9.72ZM820.1,667.94l-9.72-37.83,116.3-68.75-106.58,106.58ZM802.28,662.84c-8.51-5.15-17.85-9.07-27.75-11.53l21.52-12.72,6.23,24.25ZM758.27,642.33v-150.73l33.62,130.86-33.62,19.88ZM742.27,642.33l-33.62-19.88,33.62-130.86v150.73ZM726.03,651.31c-9.91,2.46-19.24,6.38-27.75,11.53l6.23-24.25,21.52,12.72ZM680.44,667.94l-106.58-106.58,116.3,68.75-9.72,37.83ZM669.13,679.25l-37.83,9.72-68.75-116.3,106.58,106.58ZM664.03,697.08c-5.15,8.51-9.07,17.84-11.53,27.75l-12.72-21.52,24.25-6.23ZM643.52,741.08h-150.73l130.86-33.62,19.88,33.62ZM643.52,757.08l-19.88,33.62-130.86-33.62h150.73ZM652.5,773.33c2.46,9.91,6.38,19.24,11.53,27.75l-24.25-6.23,12.72-21.52ZM669.13,818.92l-106.58,106.58,68.75-116.3,37.83,9.72ZM680.44,830.23l9.72,37.83-116.3,68.75,106.58-106.58ZM698.27,835.33c8.51,5.15,17.85,9.07,27.75,11.53l-21.52,12.72-6.23-24.25ZM742.27,855.84v150.73l-33.62-130.86,33.62-19.88ZM758.27,855.84l33.62,19.88-33.62,130.86v-150.73ZM774.52,846.86c9.91-2.46,19.24-6.38,27.75-11.53l-6.23,24.25-21.52-12.72ZM820.1,830.23l106.58,106.58-116.3-68.75,9.72-37.83ZM831.42,818.92l37.83-9.72,68.75,116.3-106.58-106.58ZM836.52,801.09c5.15-8.51,9.07-17.85,11.53-27.75l12.72,21.52-24.25,6.23ZM857.03,757.08h150.73l-130.86,33.62-19.88-33.62ZM885.38,693.12l93.25-157.74c52.15,55.63,81.76,127.12,84.22,203.34l-177.47-45.6ZM806.24,613.98l-45.6-177.47c76.21,2.47,147.7,32.08,203.34,84.22l-157.74,93.25ZM694.31,613.98l-157.74-93.25c55.63-52.15,127.12-81.76,203.34-84.22l-45.6,177.47ZM615.17,693.12l-177.47,45.6c2.47-76.21,32.08-147.7,84.22-203.34l93.25,157.74ZM615.17,805.05l-93.25,157.74c-52.15-55.63-81.76-127.12-84.22-203.34l177.47,45.6ZM694.31,884.19l45.6,177.47c-76.21-2.47-147.7-32.08-203.34-84.22l157.74-93.25ZM806.24,884.19l157.74,93.25c-55.63,52.15-127.12,81.76-203.34,84.22l45.6-177.47ZM885.38,805.05l177.47-45.6c-2.47,76.21-32.08,147.7-84.22,203.34l-93.25-157.74ZM1075.95,703.86c-7.63-55.8-29.35-108.23-63.41-153.08l93.3,51.03-29.89,102.06ZM990.3,520.37l80.74-80.74,63.66,63.66-24.25,82.8-120.15-65.71ZM1082.36,428.32l105.08-105.08-47.61,162.55-57.47-57.47ZM1071.04,417l-57.5-57.5,162.59-47.59-105.09,105.09ZM1059.73,428.32l-80.74,80.74-65.74-120.2,82.79-24.23,63.69,63.69ZM948.59,486.82c-44.91-34.1-97.41-55.83-153.29-63.44l102.23-29.92,51.06,93.36ZM758.27,417.54v-114.09h90.02l41.37,75.64-131.39,38.46ZM758.27,287.45v-78.27c11.93-.94,23.29-3.97,33.7-8.73l47.58,86.99h-81.27ZM758.27,193.11v-54.26l25.99,47.51c-8.09,3.56-16.82,5.89-25.99,6.75ZM784.06,152.64l20.83,20.83c-2.13,1.8-4.35,3.5-6.66,5.09l-14.18-25.92ZM742.27,138.85v54.26c-9.16-.86-17.9-3.19-25.99-6.75l25.99-47.51ZM702.31,178.57c-2.3-1.59-4.52-3.29-6.66-5.09l20.83-20.83-14.18,25.92ZM742.27,209.18v78.27h-81.27l47.58-86.99c10.41,4.75,21.76,7.78,33.7,8.73ZM742.27,303.45v114.28l-131.45-38.53,41.43-75.75h90.02ZM704.84,423.43c-55.72,7.66-108.08,29.36-152.88,63.38l51-93.24,101.88,29.86ZM521.56,509.06l-80.74-80.74,63.62-63.62,82.8,24.27-65.68,120.09ZM429.51,417l-105.07-105.07,162.51,47.63-57.44,57.44ZM418.19,428.32l-57.47,57.47-47.61-162.55,105.08,105.08ZM429.51,439.63l80.74,80.74-120.15,65.71-24.25-82.8,63.66-63.66ZM488.01,550.77c-34.06,44.85-55.78,97.28-63.41,153.08l-29.89-102.06,93.3-51.03ZM418.83,741.08h-114.19v-90.02l75.69-41.4,38.49,131.42ZM288.64,741.08h-79.49c-.93-11.73-3.87-22.9-8.48-33.16l87.97-48.11v81.27ZM193.08,741.08h-53.04l46.54-25.45c3.42,7.94,5.66,16.49,6.51,25.45ZM193.08,757.08c-.84,8.96-3.08,17.52-6.51,25.45l-46.54-25.45h53.04ZM209.15,757.08h79.49v81.27l-87.97-48.11c4.61-10.26,7.56-21.43,8.48-33.16ZM304.64,757.08h114.19l-38.49,131.42-75.69-41.4v-90.02ZM424.6,794.31c7.63,55.8,29.35,108.23,63.41,153.08l-93.3-51.03,29.89-102.06ZM510.25,977.8l-80.74,80.74-63.66-63.66,24.25-82.8,120.15,65.71ZM418.19,1069.85l-105.08,105.08,47.61-162.55,57.47,57.47ZM429.51,1081.17l57.47,57.47-162.55,47.61,105.08-105.08ZM440.82,1069.85l80.74-80.74,65.71,120.15-82.8,24.25-63.66-63.66ZM551.96,1011.35c44.85,34.06,97.28,55.78,153.09,63.41l-102.06,29.89-51.03-93.3ZM742.27,1080.53v114.19h-90.02l-41.4-75.69,131.42-38.49ZM742.27,1210.72v80.07c-11.65.88-22.74,3.76-32.96,8.27l-48.32-88.34h81.27ZM742.27,1306.86v52.46l-25.25-46.17c7.88-3.33,16.37-5.49,25.25-6.29ZM716.49,1345.53l-19.99-19.99c2.07-1.69,4.22-3.28,6.45-4.77l13.54,24.76ZM758.27,1359.32v-52.41c8.84.87,17.28,3.1,25.12,6.48l-25.12,45.93ZM797.42,1321.09c2.18,1.48,4.3,3.06,6.33,4.74l-19.7,19.7,13.36-24.44ZM758.27,1290.85v-80.13h81.27l-48.45,88.58c-10.17-4.57-21.22-7.5-32.83-8.45ZM758.27,1194.72v-114.19l131.42,38.49-41.4,75.69h-90.02ZM795.5,1074.76c55.8-7.63,108.23-29.35,153.08-63.41l-51.03,93.3-102.06-29.89ZM978.99,989.11l80.74,80.74-63.66,63.66-82.8-24.25,65.71-120.15ZM1071.04,1081.17l105.08,105.08-162.55-47.61,57.47-57.47ZM1082.36,1069.85l57.47-57.47,47.61,162.55-105.08-105.08ZM1071.04,1058.54l-80.74-80.74,120.15-65.71,24.25,82.8-63.66,63.66ZM1012.54,947.4c34.06-44.85,55.78-97.28,63.41-153.08l29.89,102.06-93.3,51.03ZM1081.72,757.08h114.19v90.02l-75.69,41.4-38.49-131.42ZM1211.91,757.08h78.91c.9,11.84,3.86,23.11,8.51,33.46l-87.42,47.81v-81.27ZM1306.9,757.08h53.62l-47.09,25.75c-3.46-8.02-5.71-16.68-6.53-25.75ZM1307.33,693.76l-95.42-52.18v-61.08l103.12,103.12c-2.77,3.21-5.34,6.6-7.7,10.15ZM1195.91,632.82l-71.09-38.88,22.78-77.76,48.32,48.32v68.33ZM1152.72,498.68l43.19-147.46v190.65l-43.19-43.19ZM1000.65,346.6l-43.16-43.16h190.61l-147.45,43.16ZM983.14,351.73l-77.76,22.76-38.85-71.04h68.33l48.28,48.28ZM857.78,287.45l-51.84-94.78c3.6-2.4,7.04-5.01,10.29-7.84l102.62,102.62h-61.08ZM767.17,113.13c22.63.58,45.06,2.35,67.27,5.28-1.87,16.42-8.44,31.43-18.35,43.64l-48.92-48.92ZM684.46,162.05c-9.91-12.21-16.48-27.22-18.35-43.64,22.2-2.93,44.64-4.69,67.27-5.28l-48.92,48.92ZM684.31,184.83c3.25,2.83,6.7,5.44,10.29,7.84l-51.84,94.78h-61.08l102.62-102.62ZM634.01,303.45l-38.91,71.15-77.77-22.79,48.35-48.35h68.33ZM499.84,346.67l-147.46-43.22h190.68l-43.22,43.22ZM347.83,498.68l-43.19,43.19v-190.64l43.19,147.46ZM352.95,516.18l22.78,77.76-71.09,38.88v-68.33l48.31-48.31ZM288.64,641.58l-95.67,52.33c-2.32-3.54-4.86-6.92-7.6-10.13l103.28-103.28v61.08ZM178.88,701.6l-25.05,13.7,20.18-20.18c1.72,2.08,3.35,4.24,4.87,6.48ZM114.32,765.98l48.38,48.38c-12.04,9.97-26.87,16.65-43.12,18.74-2.91-22.15-4.67-44.54-5.26-67.12ZM153.83,782.87l25.05,13.7c-1.52,2.24-3.14,4.4-4.87,6.48l-20.18-20.18ZM192.97,804.27l95.67,52.33v61.08l-103.28-103.28c2.74-3.21,5.28-6.59,7.6-10.13ZM304.64,865.35l71.09,38.88-22.78,77.76-48.31-48.31v-68.33ZM347.83,999.49l-43.19,147.46v-190.65l43.19,43.19ZM499.87,1151.53l43.19,43.19h-190.65l147.46-43.19ZM517.37,1146.41l77.76-22.78,38.88,71.09h-68.33l-48.32-48.32ZM642.76,1210.72l52.48,95.96c-3.53,2.29-6.9,4.79-10.11,7.49l-103.46-103.46h61.08ZM733.38,1385.04c-22.66-.59-45.13-2.36-67.37-5.29,2.21-16.23,9.02-31.02,19.1-42.98l48.27,48.27ZM815.09,1337.12c9.92,11.93,16.62,26.61,18.8,42.71-22.02,2.88-44.27,4.62-66.71,5.2l47.92-47.92ZM815.1,1314.48c-3.16-2.69-6.5-5.19-9.98-7.48l52.66-96.28h61.08l-103.76,103.76ZM866.54,1194.72l38.88-71.09,77.76,22.78-48.32,48.32h-68.33ZM1000.68,1151.53l147.46,43.19h-190.65l43.19-43.19ZM1152.72,999.49l43.19-43.19v190.65l-43.19-147.46ZM1147.6,981.99l-22.78-77.76,71.09-38.88v68.33l-48.32,48.32ZM1211.91,856.59l95.12-52.03c2.36,3.59,4.94,7.01,7.72,10.26l-102.84,102.84v-61.08ZM1321.12,796.87l25.6-14-20.61,20.61c-1.76-2.12-3.43-4.33-4.98-6.62ZM1337.77,683.73c12.09-9.87,26.96-16.46,43.23-18.43,2.9,22.08,4.65,44.39,5.23,66.89l-48.46-48.46ZM1336.46,501.46c20.17,47.69,34.28,97.19,42.26,147.97-19.78,2.47-37.79,10.69-52.3,22.94l-114.5-114.5v-246.52c52.83,55.65,94.7,119.53,124.55,190.11ZM1188.01,287.45h-246.52l-114.03-114.03c12.28-14.63,20.48-32.79,22.84-52.72,50.65,7.98,100.03,22.08,147.6,42.2,70.58,29.85,134.46,71.72,190.11,124.55ZM750.27,24.03c44.55,0,81.15,34.56,84.46,78.28-27.6-3.56-55.56-5.37-83.78-5.4l-.68-.68-.68.68c-28.22.03-56.18,1.84-83.78,5.4,3.31-43.71,39.91-78.28,84.46-78.28ZM502.65,162.9c47.57-20.12,96.95-34.22,147.6-42.2,2.36,19.92,10.56,38.08,22.84,52.72l-114.03,114.03h-246.52c55.65-52.83,119.53-94.7,190.11-124.55ZM164.09,501.46c29.85-70.58,71.72-134.45,124.55-190.11v246.52l-114.59,114.59c-14.45-12.34-32.42-20.67-52.18-23.25,7.98-50.71,22.08-100.13,42.22-147.75ZM24,749.08c0-44.97,35.21-81.84,79.51-84.55-3.57,27.64-5.38,55.62-5.41,83.87l-.68.68.68.68c.03,28.26,1.84,56.24,5.41,83.87-44.29-2.71-79.51-39.59-79.51-84.56ZM164.09,996.71c-20.14-47.62-34.24-97.04-42.22-147.75,19.75-2.58,37.73-10.91,52.18-23.25l114.59,114.59v246.52c-52.83-55.65-94.7-119.53-124.55-190.11ZM312.54,1210.72h246.52l114.69,114.69c-12.44,14.38-20.88,32.31-23.59,52.04-50.62-7.99-99.96-22.07-147.51-42.18-70.58-29.85-134.45-71.72-190.11-124.55ZM749.94,1475.97c-45.19,0-82.23-35.56-84.61-80.17,27.76,3.6,55.87,5.43,84.26,5.46l.68.68.68-.68c28.16-.03,56.04-1.83,83.58-5.37-2.42,44.57-39.44,80.08-84.6,80.08ZM997.9,1335.27c-47.75,20.2-97.31,34.32-148.16,42.29-2.67-19.61-11.01-37.44-23.3-51.78l115.05-115.05h246.52c-55.65,52.83-119.53,94.7-190.11,124.55ZM1336.46,996.71c-29.85,70.58-71.72,134.45-124.55,190.11v-246.52l114.18-114.18c14.55,12.38,32.65,20.7,52.54,23.2-7.99,50.58-22.07,99.88-42.16,147.38ZM1397,833.9c3.59-27.72,5.41-55.79,5.44-84.14l.68-.68-.68-.68c-.03-28.14-1.83-56.01-5.36-83.53,44.01,3,78.91,39.75,78.91,84.51s-34.94,81.55-78.99,84.52Z"/></svg>