<?xml version="1.0" encoding="UTF-8"?><svg id="Layer_2" xmlns="http://www.w3.org/2000/svg" xmlns:xlink="http://www.w3.org/1999/xlink" viewBox="0 0 1500 1500"><defs><style>.cls-1{fill:url(#New_Gradient_Swatch_2);stroke-width:0px;}</style><linearGradient id="New_Gradient_Swatch_2" x1="115.9" y1="1116.05" x2="1384.1" y2="383.86" gradientUnits="userSpaceOnUse"><stop offset="0" stop-color="#56450d"/><stop offset=".21" stop-color="#e5c787"/><stop offset=".39" stop-color="#f7d976"/><stop offset=".99" stop-color="#725728"/></linearGradient></defs><path class="cls-1" d="M1267.62,232.35c-67.22-67.23-145.51-120-232.68-156.87-90.25-38.17-186.12-57.53-284.94-57.53s-194.69,19.36-284.94,57.53c-87.17,36.87-165.45,89.65-232.68,156.87-41.31,41.31-77.15,86.8-107.21,135.95-6.67,10.32-12.82,20.97-18.44,31.94-11.42,21-21.84,42.61-31.23,64.79-38.17,90.25-57.53,186.12-57.53,284.94s19.36,194.68,57.53,284.94c36.87,87.17,89.65,165.45,156.87,232.68,67.23,67.22,145.51,120,232.68,156.87,87.14,36.86,179.51,56.17,274.71,57.45,3.54.1,7.09.15,10.65.15,3.98,0,7.96-.07,11.92-.19,94.46-1.55,186.1-20.83,272.59-57.42,87.17-36.87,165.45-89.65,232.68-156.87s120-145.51,156.87-232.68c38.17-90.25,57.53-186.12,57.53-284.94s-19.36-194.69-57.53-284.94c-36.87-87.17-89.65-165.45-156.87-232.68ZM185.84,318.56c63.74-63.74,147.52-100.15,237.13-103.4-30.1,47.6-71.31,87.61-119.9,116.26-50.4,29.71-107.62,46.38-166.28,48.56.86-1.42,1.72-2.83,2.59-4.24,13.32-20.38,28.84-39.55,46.46-57.17ZM1081.54,946.98c-1.32-2.65-2.68-5.28-4.06-7.9,57.73,2.32,114.09,18.69,163.83,47.72,49.15,28.68,90.88,69.01,121.27,117.05-89.56-3.28-173.3-39.68-237.01-103.4-16.55-16.55-31.26-34.46-44.03-53.47ZM1048.4,1284.4c-88.99-3.64-172.13-39.99-235.48-103.34-18.73-18.73-35.1-39.19-48.96-61.02,58.28,2.3,115.13,18.89,165.24,48.38,46.76,27.51,86.71,65.56,116.51,110.76.89,1.75,1.79,3.49,2.7,5.23ZM1044.86,222.57c-29.51,44.19-68.76,81.44-114.61,108.57-50.5,29.87-107.86,46.64-166.68,48.84,13.92-21.98,30.37-42.57,49.22-61.41,63.44-63.45,146.74-99.81,235.88-103.36-1.29,2.44-2.56,4.89-3.79,7.36ZM1104.24,750.17c0,55.59-12.74,109.22-36.82,157.56-1.45,2.18-2.88,4.38-4.28,6.59-1.57-2.48-3.17-4.93-4.79-7.37-23.83-48.15-36.44-101.5-36.44-156.79s12.74-109.22,36.82-157.57c1.45-2.18,2.88-4.38,4.28-6.59,1.57,2.48,3.17,4.93,4.79,7.37,23.83,48.15,36.44,101.5,36.44,156.79ZM1102.99,638.17c3.62,3.95,7.33,7.84,11.14,11.65,33.97,33.97,73.53,60.65,117.59,79.28,21.77,9.21,44.18,16.24,67.1,21.09-22.87,4.84-45.24,11.87-66.97,21.06-44.05,18.63-83.62,45.31-117.59,79.28-3.88,3.88-7.65,7.84-11.33,11.86,11.5-36.11,17.32-73.72,17.32-112.21s-5.8-75.96-17.25-112ZM1048.39,922.46c-89.04-3.61-172.23-39.96-235.61-103.35-18.63-18.63-34.91-38.97-48.73-60.66,89.43,3.36,173.02,39.76,236.65,103.38,16.55,16.55,31.26,34.46,44.02,53.47,1.2,2.4,2.42,4.78,3.67,7.15ZM450.84,577.15c89.06,3.59,172.28,39.95,235.68,103.35,18.82,18.82,35.27,39.4,49.18,61.35-89.06-3.59-172.28-39.95-235.68-103.35-18.83-18.82-35.27-39.4-49.18-61.35ZM513.73,568.94c22.71-4.84,44.94-11.84,66.52-20.97,44.05-18.63,83.62-45.31,117.59-79.28,4.52-4.52,8.91-9.15,13.17-13.87-11.88,36.66-17.89,74.88-17.89,114.01s6.05,77.59,18.01,114.35c-4.3-4.76-8.72-9.43-13.28-14-33.97-33.97-73.54-60.65-117.59-79.28-21.59-9.13-43.81-16.13-66.52-20.97ZM686.39,819.11c-63.22,63.22-146.15,99.56-234.93,103.32,13.81-21.67,30.08-41.99,48.69-60.59,63.22-63.22,146.15-99.56,234.93-103.32-13.81,21.67-30.08,41.99-48.69,60.59ZM580.12,909.7c44.05-18.63,83.62-45.31,117.59-79.28,4.71-4.71,9.27-9.54,13.7-14.47-12.06,36.9-18.16,75.4-18.16,114.82s6.08,77.75,18.08,114.59c-4.36-4.84-8.85-9.6-13.49-14.23-33.97-33.97-73.54-60.65-117.59-79.28-21.77-9.21-44.19-16.24-67.1-21.09,22.87-4.84,45.24-11.87,66.97-21.06ZM709.12,568.84c0-58.33,14.03-114.5,40.47-164.68,26.44,50.18,40.47,106.35,40.47,164.68s-14.03,114.5-40.47,164.68c-26.44-50.18-40.47-106.35-40.47-164.68ZM686.53,457.38c-63.32,63.32-146.41,99.67-235.34,103.34,13.84-21.75,30.16-42.15,48.84-60.82,63.32-63.32,146.4-99.67,235.34-103.34-13.84,21.75-30.16,42.15-48.83,60.82ZM488.71,649.82c33.97,33.97,73.53,60.65,117.59,79.28,21.77,9.21,44.18,16.24,67.1,21.09-22.87,4.84-45.24,11.87-66.97,21.06-44.05,18.63-83.62,45.31-117.59,79.28-4.58,4.58-9.01,9.27-13.32,14.04,11.97-36.78,18.02-75.13,18.02-114.4s-6.03-77.46-17.94-114.16c4.25,4.7,8.61,9.31,13.12,13.81ZM450.84,939.1c89.06,3.59,172.28,39.95,235.68,103.35,18.82,18.82,35.27,39.4,49.18,61.35-89.06-3.59-172.28-39.95-235.68-103.35-18.83-18.82-35.27-39.4-49.18-61.35ZM709.25,930.78c0-58.33,14.03-114.5,40.47-164.68,26.44,50.18,40.47,106.35,40.47,164.68s-14.03,114.5-40.47,164.68c-26.44-50.18-40.47-106.35-40.47-164.68ZM1012.02,850.53c-33.97-33.97-73.54-60.65-117.59-79.28-21.77-9.21-44.18-16.24-67.1-21.09,22.87-4.84,45.24-11.87,66.97-21.06,44.05-18.63,83.62-45.31,117.59-79.28,3.88-3.88,7.65-7.84,11.33-11.86-11.5,36.11-17.32,73.72-17.32,112.21s5.8,75.95,17.25,112c-3.62-3.95-7.33-7.84-11.13-11.64ZM1000.57,638.5c-63.68,63.68-147.35,100.08-236.86,103.39,13.92-21.97,30.37-42.56,49.2-61.39,63.44-63.44,146.73-99.81,235.87-103.36-1.26,2.38-2.49,4.77-3.7,7.17-12.88,19.27-27.75,37.42-44.51,54.18ZM919.19,589.91c-44.05,18.63-83.62,45.31-117.59,79.28-4.71,4.71-9.27,9.54-13.7,14.47,12.06-36.91,18.16-75.4,18.16-114.82s-6.04-77.52-17.97-114.25c4.33,4.8,8.78,9.51,13.38,14.11,33.97,33.97,73.54,60.65,117.59,79.28,21.61,9.14,43.85,16.14,66.59,20.98-22.69,4.84-44.89,11.83-66.46,20.96ZM606.29,409.3c-44.05,18.63-83.62,45.31-117.59,79.28-4.58,4.58-9.01,9.27-13.32,14.04,11.97-36.78,18.02-75.13,18.02-114.4s-6.18-77.73-18.13-114.52c25.22,28.01,54.65,52.16,87.28,71.41,34.46,20.34,71.98,34.83,110.97,43.07-22.96,4.85-45.41,11.89-67.22,21.11ZM477.54,750.17c0,58.42-14.08,114.67-40.59,164.91-26.52-50.24-40.59-106.49-40.59-164.91s14.08-114.67,40.59-164.91c26.52,50.24,40.59,106.49,40.59,164.91ZM488.71,1011.76c33.97,33.97,73.53,60.65,117.59,79.28,21.48,9.09,43.59,16.06,66.19,20.9-38.61,8.24-75.76,22.62-109.92,42.72-32.37,19.05-61.62,42.94-86.72,70.63,11.66-36.39,17.69-74.6,17.69-113.17s-6.03-77.46-17.94-114.16c4.25,4.7,8.61,9.31,13.12,13.81ZM806.19,930.78c0-39.26-6.05-77.59-18.01-114.35,4.3,4.76,8.72,9.44,13.28,14,33.97,33.97,73.53,60.65,117.59,79.28,21.77,9.21,44.18,16.24,67.1,21.09-22.87,4.84-45.24,11.87-66.97,21.06-44.05,18.63-83.62,45.31-117.59,79.28-4.64,4.64-9.13,9.39-13.49,14.23,12.01-36.83,18.08-75.25,18.08-114.59ZM1048.37,560.73c-89.03-3.61-172.21-39.97-235.59-103.35-18.69-18.69-35.02-39.1-48.87-60.87,89.43,3.36,173.02,39.76,236.65,103.39,16.55,16.55,31.26,34.46,44.03,53.47,1.23,2.47,2.49,4.92,3.78,7.36ZM1011.88,488.58c-33.97-33.97-73.53-60.65-117.59-79.28-21.81-9.22-44.26-16.27-67.22-21.11,39.12-8.27,76.76-22.84,111.32-43.29,31.55-18.67,60.1-41.92,84.73-68.8-11.44,36.07-17.36,73.91-17.36,112.13s5.8,75.95,17.25,112c-3.62-3.95-7.33-7.84-11.13-11.64ZM735.57,379.91c-58.18-2.41-114.9-19.07-164.89-48.58-48.52-28.63-89.66-68.59-119.73-116.12,88.97,3.65,172.1,40,235.44,103.34,18.83,18.83,35.27,39.4,49.18,61.35ZM477.4,388.23c0,58.37-14.05,114.58-40.53,164.78-26.47-50.2-40.53-106.41-40.53-164.78s14.03-114.5,40.47-164.68c26.58,50.53,40.58,107.16,40.58,164.68ZM373.74,638.5c-63.7,63.7-147.42,100.11-236.97,103.4,13.92-21.97,30.37-42.56,49.21-61.4,63.7-63.7,147.42-100.11,236.97-103.4-13.92,21.97-30.37,42.56-49.21,61.4ZM267.46,729.1c44.05-18.63,83.62-45.31,117.59-79.28,4.58-4.58,9.01-9.27,13.32-14.04-11.97,36.78-18.02,75.13-18.02,114.4s6.03,77.46,17.94,114.16c-4.25-4.7-8.61-9.31-13.12-13.81-33.97-33.97-73.53-60.65-117.59-79.28-21.77-9.21-44.18-16.24-67.1-21.09,22.87-4.84,45.24-11.87,66.97-21.06ZM373.87,1000.45c-63.71,63.71-147.44,100.11-236.99,103.4,30.14-47.66,71.43-87.72,120.11-116.37,50.35-29.64,107.52-46.27,166.11-48.44-13.92,21.98-30.37,42.57-49.22,61.42ZM477.54,1112.11c0,56.74-13.63,112.66-39.53,162.67-.38.6-.77,1.21-1.15,1.81-26.37-50.13-40.37-106.23-40.37-164.48s14.05-114.58,40.53-164.78c26.47,50.2,40.53,106.41,40.53,164.78ZM451.87,1282.79c30.02-46.77,70.83-86.1,118.81-114.35,49.98-29.42,106.67-46.02,164.79-48.39-13.86,21.82-30.23,42.27-48.95,61-63.35,63.35-146.5,99.71-235.49,103.34.28-.53.56-1.07.83-1.6ZM937.3,1154.62c-34.04-20.03-71.06-34.37-109.53-42.62,22.71-4.84,44.93-11.84,66.52-20.97,44.05-18.63,83.62-45.31,117.59-79.28,3.88-3.88,7.65-7.84,11.33-11.86-11.5,36.11-17.32,73.72-17.32,112.21s5.94,76.2,17.42,112.34c-24.95-27.35-53.95-50.96-86.02-69.83ZM1000.57,1000.45c-63.68,63.68-147.35,100.08-236.86,103.39,13.92-21.97,30.37-42.56,49.2-61.39,63.44-63.44,146.73-99.81,235.87-103.36-1.26,2.38-2.49,4.77-3.7,7.18-12.88,19.27-27.75,37.42-44.51,54.18ZM1081.05,916.03c12.88-19.27,27.75-37.42,44.51-54.19,63.59-63.59,147.12-99.98,236.49-103.38-13.82,21.69-30.1,42.03-48.72,60.65-63.38,63.38-146.56,99.74-235.59,103.35,1.12-2.13,2.23-4.28,3.31-6.43ZM1125.43,638.5c-16.55-16.55-31.26-34.46-44.03-53.47-1.32-2.65-2.67-5.28-4.06-7.9,89.23,3.49,172.61,39.86,236.12,103.37,18.84,18.84,35.29,39.43,49.21,61.41-89.65-3.22-173.47-39.64-237.24-103.41ZM1081.05,554.08c12.88-19.27,27.75-37.42,44.51-54.19,63.6-63.6,147.15-99.99,236.53-103.38-30.11,47.43-71.27,87.3-119.77,115.84-49.95,29.4-106.61,45.99-164.7,48.38,1.16-2.21,2.31-4.42,3.43-6.65ZM1231.84,409.3c-44.05,18.63-83.62,45.31-117.59,79.28-3.88,3.88-7.65,7.84-11.33,11.86,11.5-36.11,17.32-73.72,17.32-112.21s-5.82-76.12-17.33-112.24c24.77,27.06,53.51,50.45,85.28,69.18,34.43,20.31,71.92,34.78,110.87,43.02-22.96,4.85-45.41,11.89-67.22,21.11ZM1104.24,388.23c0,55.59-12.74,109.22-36.82,157.57-1.47,2.22-2.92,4.45-4.35,6.7-1.59-2.51-3.21-5-4.86-7.47-23.83-48.15-36.44-101.5-36.44-156.79s12.71-108.85,36.92-157.55c1.49-2.24,2.94-4.5,4.38-6.77,1.4,2.22,2.83,4.42,4.28,6.61,24.13,48.39,36.89,102.07,36.89,157.71ZM919.06,227.97c-44.05,18.63-83.62,45.31-117.59,79.28-4.52,4.52-8.91,9.15-13.17,13.87,11.89-36.66,17.9-74.88,17.9-114.02s-6.32-78.59-18.53-115.75c25.61,28.56,55.59,53.15,88.85,72.62,34.44,20.17,71.93,34.52,110.86,42.65-23.33,4.85-46.16,11.97-68.31,21.34ZM749.65,371.91c-26.48-50.21-40.54-106.43-40.54-164.81s14-114.14,40.54-164.61c26.55,50.51,40.54,107.12,40.54,164.61s-14.06,114.6-40.54,164.81ZM693.12,207.11c0,39.22,6.04,77.52,17.97,114.25-4.33-4.8-8.78-9.51-13.38-14.11-33.97-33.97-73.53-60.65-117.59-79.28-21.65-9.16-43.94-16.17-66.72-21.01,38.74-8.25,76.02-22.67,110.29-42.87,32.77-19.31,62.32-43.57,87.62-71.71-11.99,36.87-18.2,75.64-18.2,114.72ZM380.35,388.23c0,39.19,6.03,77.46,17.94,114.16-4.25-4.7-8.61-9.31-13.12-13.81-33.97-33.97-73.53-60.65-117.59-79.28-21.81-9.22-44.27-16.27-67.22-21.11,38.94-8.23,76.4-22.7,110.83-42.99,32.55-19.19,61.92-43.25,87.11-71.15-11.92,36.71-17.95,74.99-17.95,114.18ZM137.57,396.52c89.3,3.45,172.75,39.83,236.3,103.37,18.69,18.69,35.03,39.11,48.88,60.88-58.45-2.22-115.48-18.84-165.73-48.4-47.49-27.94-87.96-66.75-117.9-112.87-.51-1-1.03-1.99-1.55-2.98ZM248.91,526.17c34.2,20.12,71.4,34.5,110.06,42.73-22.78,4.84-45.07,11.85-66.72,21.01-44.05,18.63-83.62,45.31-117.59,79.28-4.51,4.51-8.89,9.13-13.14,13.84,12.01-36.88,18.23-75.66,18.23-114.83s-5.96-76.34-17.48-112.54c25.09,27.64,54.31,51.48,86.64,70.51ZM137.7,758.47c89.25,3.48,172.65,39.85,236.17,103.37,18.63,18.63,34.91,38.97,48.73,60.66-89.47-3.34-173.1-39.74-236.76-103.39-17.4-17.4-32.74-36.3-45.95-56.4-.72-1.42-1.45-2.83-2.19-4.24ZM174.53,830.43c33.97,33.97,73.53,60.65,117.59,79.28,21.83,9.23,44.31,16.28,67.29,21.13-38.83,8.22-76.2,22.64-110.54,42.85-32.55,19.16-61.95,43.2-87.15,71.09,11.97-36.82,18.17-75.53,18.17-114.63s-5.95-76.24-17.44-112.39c3.92,4.31,7.95,8.53,12.09,12.68ZM267.59,1091.04c44.05-18.63,83.62-45.31,117.59-79.28,4.58-4.58,9.01-9.27,13.32-14.04-11.97,36.78-18.02,75.13-18.02,114.4s6.06,77.64,18.03,114.42c-25.34-28.12-54.92-52.35-87.71-71.62-34.31-20.17-71.65-34.56-110.43-42.76,22.96-4.85,45.42-11.89,67.22-21.11ZM580.25,1271.65c44.05-18.63,83.62-45.31,117.59-79.28,4.64-4.64,9.13-9.39,13.49-14.23-12.01,36.83-18.08,75.25-18.08,114.59s6.23,78.04,18.27,114.96c-25.37-28.27-55.04-52.63-87.94-72.01-34.36-20.24-71.76-34.67-110.62-42.9,22.98-4.85,45.46-11.9,67.29-21.13ZM749.72,1128.04c26.44,50.18,40.47,106.35,40.47,164.68s-13.96,114.01-40.47,164.48c-26.51-50.48-40.47-107.04-40.47-164.48s14.03-114.5,40.47-164.68ZM806.19,1292.72c0-39.34-6.08-77.76-18.08-114.59,4.36,4.84,8.85,9.6,13.49,14.23,33.97,33.97,73.53,60.65,117.59,79.28,21.81,9.22,44.27,16.27,67.23,21.11-38.69,8.18-75.93,22.51-110.16,42.6-33.02,19.37-62.8,43.77-88.27,72.1,11.99-36.86,18.2-75.61,18.2-114.74ZM1062.87,1276.27c-1.08-1.71-2.18-3.41-3.29-5.11-24.7-49.09-37.68-103.66-37.68-159.05s12.74-109.22,36.82-157.57c1.47-2.22,2.92-4.45,4.35-6.7,1.59,2.51,3.21,5,4.86,7.47,23.83,48.15,36.44,101.49,36.44,156.79s-12.35,107.5-35.69,155.25c-1.98,2.94-3.92,5.91-5.81,8.91ZM1120.37,1112.11c0-38.42-5.8-75.96-17.25-112,3.62,3.95,7.33,7.84,11.14,11.65,33.97,33.97,73.53,60.65,117.59,79.28,21.52,9.1,43.68,16.09,66.32,20.93-38.33,8.2-75.22,22.44-109.16,42.33-31.9,18.69-60.78,42.08-85.68,69.18,11.32-35.85,17.05-73.17,17.05-111.36ZM1249.37,972.98c-34.04-19.86-71.05-34.05-109.47-42.17,22.94-4.85,45.37-11.89,67.16-21.1,44.05-18.63,83.62-45.31,117.59-79.28,5.07-5.07,9.95-10.27,14.69-15.58-12.21,37.15-18.53,76.24-18.53,115.73s6.37,78.88,18.67,116.17c-25.91-29.07-56.33-54.05-90.11-73.76ZM1324.78,669.19c-33.97-33.97-73.53-60.65-117.59-79.28-21.67-9.16-43.98-16.18-66.78-21.02,38.65-8.24,75.84-22.62,110.03-42.74,33.17-19.53,63.06-44.13,88.58-72.69-12.09,36.99-18.34,75.89-18.34,115.17s6.34,78.72,18.59,115.93c-4.68-5.24-9.5-10.37-14.49-15.36ZM1362.55,379.97c-58.64-2.19-115.85-18.87-166.23-48.58-46.28-27.29-85.87-64.9-115.53-109.55-1.12-2.23-2.27-4.44-3.44-6.64,89.18,3.52,172.51,39.89,235.98,103.36,18.84,18.84,35.3,39.44,49.21,61.41ZM884.59,150.17c-48.55-28.43-89.81-68.22-120.02-115.58,89.19,3.51,172.53,39.89,236,103.36,18.5,18.5,34.69,38.69,48.44,60.22-57.96-2.32-114.53-18.78-164.42-48ZM615.57,150.31c-49.85,29.38-106.39,46-164.38,48.46,13.84-21.75,30.16-42.15,48.83-60.82,63.26-63.26,146.26-99.61,235.1-103.33-30.07,47.35-71.15,87.16-119.55,115.68ZM119.38,410.48c1.18-2.19,2.38-4.38,3.58-6.56.76,1.21,1.53,2.42,2.31,3.62,25.22,49.49,38.48,104.67,38.48,160.65s-14.15,114.76-41.01,165.5c-26.5-50.22-40.57-106.46-40.57-164.86s12.87-109.8,37.21-158.35ZM125.85,770.4c24.93,49.27,38.03,104.08,38.03,159.74s-14.15,114.77-41,165.5c-26.5-50.22-40.57-106.46-40.57-164.86s14.08-114.7,40.61-164.95c.96,1.53,1.94,3.05,2.93,4.57ZM137.24,1120.39c58.35,2.24,115.28,18.83,165.45,48.32,48.49,28.5,89.66,68.34,119.8,115.73-89.38-3.39-172.92-39.78-236.52-103.38-18.63-18.63-34.92-38.97-48.73-60.67ZM615.47,1349.46c48.62,28.64,89.87,68.66,119.99,116.27-88.92-3.68-172-40.03-235.3-103.34-18.82-18.82-35.26-39.39-49.17-61.35,58.02,2.43,114.6,19.03,164.49,48.41ZM884.35,1349.16c50.21-29.46,107.19-46,165.57-48.18-13.92,21.98-30.37,42.57-49.21,61.41-63.69,63.69-147.37,100.09-236.89,103.39,30.23-47.81,71.69-87.97,120.54-116.63ZM1082.19,1275.94c29.68-43.96,69.04-80.97,114.9-107.84,50.16-29.39,107.06-45.9,165.35-48.09-13.87,21.84-30.24,42.31-48.98,61.04-63.38,63.38-146.56,99.74-235.59,103.35,1.47-2.8,2.91-5.62,4.31-8.46ZM1377.07,1094.66c-26.37-50.36-40.26-106.84-40.26-164.1s13.85-113.55,40.16-163.88c26.24,50.03,40.16,105.98,40.16,164.09s-13.89,113.91-40.06,163.89ZM1376.95,732.71c-26.38-50.38-40.27-106.8-40.27-164.09s13.85-113.56,40.16-163.88c26.24,50.03,40.17,105.98,40.17,164.09s-13.89,113.9-40.05,163.88ZM1256.3,243.66c8.71,8.71,17.17,17.62,25.38,26.71-23.08-16.95-48.03-31.15-74.62-42.4-44.04-18.63-90.73-28.39-138.85-29.04-15.62-26.21-34.45-50.42-56.32-72.29-32.74-32.74-70.69-58.68-112.84-77.2,44.28,9.38,87.59,22.98,129.66,40.77,85.26,36.06,161.84,87.69,227.6,153.45ZM243.7,243.66c65.76-65.76,142.33-117.39,227.6-153.45,42.42-17.94,86.12-31.62,130.79-41-42.36,18.53-80.49,44.55-113.38,77.44-21.87,21.87-40.69,46.07-56.32,72.28-48.62.48-95.79,10.24-140.27,29.05-25.68,10.86-49.82,24.48-72.23,40.66,7.72-8.48,15.66-16.81,23.81-24.96ZM68.09,530.91c-1.27,12.53-1.91,25.18-1.91,37.92,0,49.94,9.78,98.39,29.08,144,5.39,12.75,11.48,25.11,18.21,37.09-6.67,11.9-12.72,24.18-18.08,36.85-19.29,45.61-29.08,94.06-29.08,144,0,13.11.68,26.12,2.02,39-22.82-70.68-34.35-144.37-34.35-219.82s11.45-148.6,34.11-219.05ZM243.7,1256.26c-8.53-8.53-16.81-17.24-24.86-26.13,22.74,16.56,47.28,30.46,73.41,41.52,44.35,18.76,91.37,28.52,139.84,29.05,15.71,26.49,34.68,50.94,56.75,73.01,32.43,32.43,69.97,58.19,111.64,76.68-44.11-9.37-87.27-22.94-129.18-40.67-85.26-36.06-161.84-87.69-227.6-153.45ZM1256.3,1256.26c-65.76,65.76-142.34,117.39-227.6,153.45-41.4,17.51-84,30.97-127.55,40.33,41.36-18.46,78.63-44.11,110.86-76.34,22.08-22.08,41.05-46.53,56.76-73.03,47.97-.7,94.5-10.46,138.42-29.03,26.76-11.32,51.84-25.62,75.04-42.7-8.38,9.3-17.02,18.41-25.93,27.31ZM1430.84,972.29c1.52-13.7,2.29-27.55,2.29-41.51,0-49.94-9.78-98.39-29.08-144-5.39-12.75-11.48-25.12-18.21-37.09,6.67-11.9,12.72-24.18,18.07-36.85,19.29-45.61,29.08-94.06,29.08-144,0-14.01-.77-27.9-2.3-41.65,23.45,71.58,35.32,146.27,35.32,222.77s-11.82,150.88-35.18,222.33Z"/></svg>