<?xml version="1.0" encoding="UTF-8"?><svg id="Layer_2" xmlns="http://www.w3.org/2000/svg" xmlns:xlink="http://www.w3.org/1999/xlink" viewBox="0 0 1500 1500"><defs><style>.cls-1{fill:url(#New_Gradient_Swatch_2);stroke-width:0px;}</style><linearGradient id="New_Gradient_Swatch_2" x1="140.32" y1="1102" x2="1359.68" y2="398" gradientUnits="userSpaceOnUse"><stop offset="0" stop-color="#56450d"/><stop offset=".21" stop-color="#e5c787"/><stop offset=".39" stop-color="#f7d976"/><stop offset=".99" stop-color="#725728"/></linearGradient></defs><path class="cls-1" d="M1457.15,750l-3.33-3.33c-.43-93.84-19.02-184.87-55.29-270.63-35.45-83.81-86.2-159.08-150.83-223.72-64.64-64.64-139.91-115.38-223.72-150.83-84.21-35.62-173.51-54.2-265.55-55.26-1.7-.02-3.39-.04-5.09-.04l-3.32-3.32-3.33,3.33c-93.84.43-184.87,19.02-270.63,55.29-83.81,35.45-159.08,86.2-223.72,150.83-64.64,64.64-115.38,139.91-150.83,223.72-36.27,85.76-54.86,176.8-55.29,270.63l-3.33,3.33,3.33,3.33c.43,93.84,19.02,184.87,55.29,270.63,35.45,83.81,86.2,159.08,150.83,223.72,64.64,64.64,139.91,115.38,223.72,150.83,85.76,36.27,176.8,54.86,270.63,55.29l3.33,3.33,3.32-3.32c1.7,0,3.4-.02,5.09-.04,92.04-1.07,181.34-19.64,265.55-55.26,83.81-35.45,159.08-86.2,223.72-150.83,64.64-64.64,115.38-139.91,150.83-223.72,36.27-85.76,54.86-176.8,55.29-270.63l3.33-3.33ZM1236.37,263.63c63.17,63.17,112.77,136.73,147.41,218.64,33.34,78.82,51.39,162.2,53.77,248.14l-217.82-217.82c-.21-62.6-12.58-123.33-36.78-180.54-23.58-55.74-57.32-105.8-100.31-148.78-36.4-36.4-77.88-66.18-123.58-88.76,19.81,6.32,39.38,13.56,58.67,21.72,81.91,34.64,155.47,84.24,218.64,147.41ZM1219.29,965.23c-2.39-55.94-14.58-110.23-36.34-161.67-7.82-18.5-16.78-36.37-26.81-53.56,10.03-17.2,18.98-35.06,26.81-53.56,21.76-51.44,33.95-105.73,36.34-161.67l215.23,215.23-215.23,215.23ZM65.48,750l218.43-218.43c2.06,57.06,14.3,112.45,36.47,164.86,7.82,18.5,16.78,36.37,26.81,53.56-10.03,17.2-18.98,35.06-26.81,53.56-22.17,52.42-34.41,107.8-36.47,164.86l-218.43-218.43ZM955.88,1228.64c-57.1,48.18-128.63,74.44-204.21,74.44-84.76,0-164.45-33.01-224.38-92.94s-92.94-139.62-92.94-224.38c0-38.24,6.74-75.44,19.62-110.27,34.89,28.83,73.59,52.31,115.5,70.04,57.71,24.41,119.01,36.79,182.2,36.79s124.49-12.38,182.2-36.79c41.91-17.73,80.61-41.21,115.5-70.04,12.88,34.83,19.62,72.03,19.62,110.27,0,75.58-26.26,147.11-74.44,204.21l-38.67,38.67ZM900.18,1284.34l-150.18,150.18-153.7-153.7c47.32,24.99,100.32,38.26,155.36,38.26s102.95-12.02,148.51-34.74ZM751.67,196.92c75.58,0,147.11,26.26,204.21,74.44l38.67,38.67c48.18,57.1,74.44,128.64,74.44,204.21,0,38.24-6.74,75.44-19.62,110.27-34.89-28.83-73.59-52.31-115.5-70.04-57.71-24.41-119.01-36.79-182.2-36.79s-124.49,12.38-182.2,36.79c-41.91,17.73-80.61,41.21-115.5,70.04-12.88-34.83-19.62-72.03-19.62-110.27,0-84.76,33.01-164.45,92.94-224.38,59.93-59.93,139.62-92.94,224.38-92.94ZM596.3,219.18l153.7-153.7,150.18,150.18c-45.56-22.72-96.11-34.74-148.51-34.74-55.04,0-108.04,13.27-155.36,38.26ZM751.67,831.47c-44.92,0-81.47-36.55-81.47-81.47s36.55-81.47,81.47-81.47,81.47,36.55,81.47,81.47-36.55,81.47-81.47,81.47ZM654.2,750c0,30.5,14.09,57.77,36.09,75.65-56.06-10.93-108-36.81-151.02-75.65,43.02-38.85,94.96-64.73,151.02-75.65-22,17.89-36.09,45.15-36.09,75.65ZM849.13,750c0-30.5-14.09-57.77-36.09-75.65,56.06,10.93,108,36.81,151.02,75.65-43.02,38.85-94.96,64.73-151.02,75.65,22-17.89,36.09-45.15,36.09-75.65ZM751.67,652.44c-79.84,0-155.37,27.9-215.52,79.04,4.28-50.79,26.1-97.98,62.56-134.44,40.86-40.86,95.18-63.36,152.96-63.36s112.1,22.5,152.96,63.36c36.46,36.46,58.29,83.65,62.56,134.44-60.15-51.15-135.69-79.04-215.52-79.04ZM751.67,847.56c79.83,0,155.37-27.9,215.52-79.04-4.28,50.79-26.1,97.98-62.56,134.44-40.86,40.86-95.18,63.36-152.96,63.36s-112.1-22.5-152.96-63.36c-36.46-36.46-58.29-83.65-62.56-134.44,60.15,51.15,135.69,79.04,215.52,79.04ZM915.94,585.73c-14.56-14.56-30.72-26.94-48.07-36.99,20.3,5.39,40.25,12.22,59.77,20.47,42.05,17.79,80.76,41.57,115.48,70.92-14.36,33.23-34.49,63.99-59.89,91.05-4.38-54.96-27.87-106.04-67.28-145.46ZM575.7,569.21c19.52-8.26,39.47-15.08,59.77-20.47-17.35,10.06-33.51,22.43-48.07,36.99-39.41,39.41-62.91,90.5-67.28,145.46-25.4-27.06-45.53-57.83-59.89-91.05,34.72-29.35,73.43-53.14,115.48-70.92ZM515.97,749.93s.05.04.07.07c-.02.02-.05.04-.07.07-29.01,29.01-51.99,62.42-68.36,98.73-5.3-4.83-10.51-9.79-15.61-14.89-25.5-25.5-47.62-53.57-66.18-83.9,18.56-30.33,40.68-58.41,66.18-83.9,5.1-5.1,10.3-10.06,15.61-14.89,16.37,36.31,39.36,69.72,68.36,98.73ZM520.11,768.81c4.38,54.96,27.87,106.04,67.28,145.46,14.56,14.56,30.72,26.94,48.07,36.99-20.3-5.39-40.25-12.22-59.77-20.47-42.05-17.79-80.76-41.57-115.48-70.92,14.36-33.23,34.49-63.99,59.89-91.05ZM927.63,930.79c-19.52,8.26-39.47,15.08-59.77,20.47,17.35-10.06,33.51-22.43,48.07-36.99,39.41-39.41,62.91-90.5,67.28-145.46,25.4,27.06,45.53,57.83,59.89,91.05-34.72,29.35-73.42,53.14-115.48,70.92ZM987.36,750.07s-.05-.04-.07-.07c.02-.02.05-.04.07-.07,29.01-29.01,51.99-62.42,68.36-98.73,5.3,4.83,10.51,9.79,15.61,14.89,25.5,25.5,47.62,53.57,66.18,83.9-18.56,30.33-40.68,58.41-66.18,83.9-5.1,5.1-10.3,10.06-15.61,14.89-16.37-36.31-39.36-69.72-68.36-98.73ZM1082.64,654.78c-6.62-6.62-13.4-13.02-20.35-19.19,14.9-38.16,22.7-79.16,22.7-121.35,0-52.4-12.02-102.95-34.74-148.51l153.46,153.46c-.63,59.28-12.56,116.8-35.49,171.02-6.42,15.18-13.62,29.92-21.58,44.19-18.25-28.64-39.64-55.26-63.99-79.62ZM1006.34,299.2c-6.01-7.1-12.33-14-18.99-20.65-6.65-6.65-13.55-12.97-20.65-18.99l-197.04-197.04c54.67,2.12,107.73,13.92,157.96,35.17,53.83,22.77,102.18,55.37,143.7,96.89,41.52,41.52,74.12,89.87,96.89,143.7,21.25,50.23,33.05,103.29,35.17,157.96l-197.04-197.04ZM730.18,62.67l-430.09,430.09c2.48-53.45,14.22-105.32,35.02-154.48,22.77-53.83,55.37-102.18,96.89-143.7,41.52-41.52,89.87-74.12,143.7-96.89,49.17-20.8,101.04-32.54,154.48-35.02ZM456.6,358.88c-24.99,47.32-38.26,100.32-38.26,155.36,0,42.2,7.8,83.19,22.7,121.35-6.95,6.18-13.74,12.57-20.35,19.19-24.35,24.35-45.74,50.98-63.99,79.62-7.96-14.28-15.16-29.02-21.58-44.19-23.36-55.23-35.3-113.87-35.51-174.33l157-157ZM335.11,809.8c6.42-15.18,13.62-29.92,21.58-44.19,18.25,28.64,39.64,55.26,63.99,79.62,6.62,6.62,13.4,13.02,20.35,19.19-14.9,38.16-22.7,79.16-22.7,121.35,0,55.04,13.27,108.04,38.26,155.36l-157-157c.21-60.45,12.15-119.1,35.51-174.33ZM730.18,1437.33c-53.45-2.48-105.32-14.22-154.48-35.02-53.83-22.77-102.18-55.37-143.7-96.89-41.52-41.52-74.12-89.87-96.89-143.7-20.8-49.17-32.54-101.04-35.02-154.48l430.09,430.09ZM769.67,1437.48l197.04-197.04c7.1-6.01,14-12.33,20.65-18.99s12.97-13.55,18.99-20.65l197.04-197.04c-2.12,54.67-13.92,107.73-35.17,157.96-22.77,53.83-55.37,102.18-96.89,143.7-41.52,41.52-89.87,74.12-143.7,96.89-50.23,21.25-103.29,33.05-157.96,35.17ZM1050.25,1134.27c22.72-45.56,34.74-96.11,34.74-148.51,0-42.2-7.8-83.19-22.7-121.35,6.95-6.18,13.73-12.57,20.35-19.19,24.35-24.35,45.74-50.98,63.99-79.62,7.96,14.28,15.16,29.02,21.58,44.19,22.93,54.22,34.86,111.73,35.49,171.02l-153.46,153.46ZM116.21,482.27c34.64-81.91,84.24-155.47,147.41-218.64,63.17-63.17,136.73-112.77,218.64-147.41,22.3-9.43,44.98-17.63,67.97-24.61-48.06,22.91-91.57,53.68-129.55,91.66-42.98,42.98-76.73,93.04-100.31,148.78-23.76,56.19-36.12,115.77-36.76,177.19l-221.18,221.18c2.38-85.94,20.43-169.32,53.77-248.14ZM263.63,1236.37c-63.17-63.17-112.77-136.73-147.41-218.64-33.34-78.82-51.39-162.2-53.77-248.14l221.18,221.18c.64,61.42,12.99,121,36.76,177.19,23.58,55.74,57.32,105.8,100.31,148.78,37.98,37.98,81.48,68.74,129.55,91.66-22.99-6.98-45.66-15.18-67.97-24.61-81.91-34.64-155.47-84.24-218.64-147.41ZM1383.79,1017.73c-34.64,81.91-84.24,155.47-147.41,218.64-63.17,63.17-136.73,112.77-218.64,147.41-19.29,8.16-38.86,15.39-58.67,21.72,45.7-22.59,87.17-52.36,123.58-88.76,42.98-42.98,76.73-93.04,100.31-148.78,24.2-57.21,36.56-117.94,36.78-180.54l217.82-217.82c-2.38,85.94-20.43,169.32-53.77,248.14Z"/></svg>
