<?xml version="1.0" encoding="UTF-8"?><svg id="Layer_2" xmlns="http://www.w3.org/2000/svg" xmlns:xlink="http://www.w3.org/1999/xlink" viewBox="0 0 1500 1500"><defs><style>.cls-1{fill:url(#New_Gradient_Swatch_2);stroke-width:0px;}</style><linearGradient id="New_Gradient_Swatch_2" x1="102.69" y1="1124.26" x2="1397.19" y2="376.88" gradientUnits="userSpaceOnUse"><stop offset="0" stop-color="#56450d"/><stop offset=".21" stop-color="#e5c787"/><stop offset=".39" stop-color="#f7d976"/><stop offset=".99" stop-color="#725728"/></linearGradient></defs><path class="cls-1" d="M109.6,1128.23h0l210.48-.25,103.79,179.76c1.43,2.48,4.07,4,6.93,4h207.06l105.46,183.18c1.43,2.48,4.07,4.01,6.93,4.01s5.5-1.53,6.93-4.01l105.46-183.18h207.71c2.86,0,5.5-1.52,6.93-4l104.37-180.77,207.75-.24c2.85,0,5.49-1.53,6.92-4,1.43-2.47,1.43-5.52,0-7.99l-103.66-180.05,104.39-180.81c1.43-2.48,1.43-5.52,0-8l-104.46-180.93,104.14-180.88c1.43-2.48,1.42-5.52,0-8s-4.07-4-6.93-4h-208.56l-103.96-180.06c-1.43-2.48-4.07-4-6.93-4h-207.57L757.73,5.55c-1.43-2.48-4.07-4.01-6.93-4.01h0c-2.86,0-5.5,1.52-6.93,4l-105.34,182.47h-207.73c-2.86,0-5.5,1.52-6.93,4l-103.96,180.06H110.69c-2.86,0-5.5,1.52-6.93,4s-1.43,5.52,0,8l104.46,181.45-104.13,180.36c-1.43,2.48-1.43,5.52,0,8l103.89,179.93-105.31,182.42c-1.43,2.48-1.43,5.53,0,8,1.43,2.47,4.07,4,6.93,4ZM139.28,1112.2l128.75-74.36,42.82,74.16-171.56.2ZM361.65,983.76l61.15-35.32v70.49h-40.84l-20.31-35.17ZM363.48,1018.93h-62.73l47.04-27.17,15.69,27.17ZM759.04,780.56l30.99,53.67h-30.99v-53.67ZM743.04,834.23h-31.94l31.94-55.32v55.32ZM772.43,771.75l47.18,27.25-15.72,27.23-31.46-54.49ZM780.41,757.88h62.94l-15.74,27.26-47.2-27.26ZM780.41,741.88l47.2-27.26,15.74,27.26h-62.94ZM772.43,728.01l31.46-54.49,15.72,27.23-47.18,27.25ZM759.04,719.2v-53.67h30.99l-30.99,53.67ZM743.04,720.85l-31.94-55.32h31.94v55.32ZM728.71,728.01l-47.18-27.25,15.72-27.23,31.46,54.49ZM720.73,741.88h-62.94l15.74-27.26,47.2,27.26ZM720.72,757.88l-47.09,27.2-15.69-27.2h62.79ZM728.71,771.75l-31.39,54.38-15.69-27.18,47.08-27.19ZM683.52,834.23h-62.99l47.25-27.29,15.75,27.29ZM743.04,850.23v55.14l-31.82-55.14h31.82ZM759.04,850.23h30.99l-30.99,53.67v-53.67ZM833.47,807l47.15,27.23h-62.87l15.72-27.23ZM841.47,793.14l15.74-27.26,31.49,54.55-47.23-27.28ZM841.47,706.62l47.23-27.28-31.49,54.55-15.74-27.26ZM833.47,692.76l-15.72-27.23h62.87l-47.15,27.23ZM759.04,649.53v-53.67l30.99,53.67h-30.99ZM743.04,649.53h-31.94l31.94-55.32v55.32ZM667.67,692.76l-47.15-27.23h62.87l-15.72,27.23ZM659.67,706.62l-15.66,27.13-31.31-54.25,46.97,27.13ZM659.78,793.08l-47.34,27.34,31.57-54.68,15.77,27.33ZM620.47,850.23h62.93l-15.73,27.25-47.19-27.25ZM659.66,891.33l-15.97,27.67-31.8-55.25,47.77,27.58ZM697.31,858.13l31.55,54.69-47.35-27.33,15.79-27.35ZM803.89,858.23l15.73,27.25-47.2,27.25,31.46-54.5ZM817.75,850.23h62.93l-47.19,27.25-15.73-27.25ZM887.52,864.75l-30.68,53.2-15.36-26.61,46.05-26.58ZM871.06,757.88h31.46v54.5l-31.46-54.5ZM871.06,741.88l31.46-54.5v54.5h-31.46ZM880.67,649.53h-62.93l15.73-27.25,47.19,27.25ZM841.48,608.42l15.37-26.63,30.79,53.28-46.16-26.65ZM803.89,641.53l-31.46-54.5,47.2,27.25-15.73,27.25ZM697.25,641.53l-15.73-27.25,47.2-27.25-31.46,54.5ZM683.4,649.53h-62.93l47.19-27.25,15.73,27.25ZM630.23,741.88h-31.62v-54.8l31.62,54.8ZM630.08,757.88l-31.46,54.5v-54.5h31.46ZM630.12,927.5h-31.51v-54.75l31.51,54.75ZM629.54,943.5l-30.93,53.57v-53.57h30.93ZM673.52,899.33l48.79,28.17h-65.06l16.26-28.17ZM827.62,899.33l16.26,28.17h-65.06l48.79-28.17ZM869.8,927.5l32.73-56.75v56.75h-32.73ZM902.53,943.5v53.57l-30.93-53.57h30.93ZM918.53,872.09l32,55.42h-32v-55.42ZM918.53,757.88h30.63l-30.63,53.11v-53.11ZM918.53,741.88v-53.35l30.83,53.35h-30.83ZM902.53,628.86l-32.34-55.97h32.34v55.97ZM918.53,572.89h31.63l-31.63,54.78v-54.78ZM871.23,556.89l31.3-54.21v54.21h-31.3ZM827.62,600.42l-47.7-27.54h63.59l-15.9,27.54ZM673.52,600.42l-15.9-27.54h63.59l-47.7,27.54ZM659.66,608.42l-48.93,28.25,32.6-56.53,16.33,28.29ZM582.61,741.88h-32.54l32.54-56.43v56.43ZM582.61,757.88v55l-31.65-55h31.65ZM582.61,927.5h-32l32-55.42v55.42ZM582.61,943.5v53.4l-30.81-53.4h30.81ZM643.67,951.04l15.56,27.04-46.76,27,31.2-54.04ZM657.79,943.5h61.32l-46.03,26.58-15.29-26.58ZM728.71,956.44l-31.79,55.06-15.86-27.55,47.65-27.51ZM743.04,963.62v55.32h-31.94l31.94-55.32ZM759.04,965.12l31.05,53.82h-31.05v-53.82ZM772.55,956.51l46.55,26.87-15.52,26.9-31.03-53.78ZM782.02,943.5h60.08l-15.01,26.02-45.07-26.02ZM856.85,949.96l31.82,55.12-47.72-27.55,15.9-27.57ZM918.53,943.5h30.93l-30.93,53.57v-53.57ZM963.85,918.58l-31.42-54.43,47.13,27.22-15.71,27.2ZM993.41,899.38l48.69,28.12h-64.93l16.24-28.12ZM940.3,850.23h63.01l-15.76,27.29-47.25-27.29ZM940.38,834.23l46.74-26.99,15.59,26.99h-62.34ZM931.19,821.06l31.93-55.36,16,27.69-47.93,27.67ZM977.08,757.88h63.55l-47.65,27.51-15.9-27.51ZM976.86,741.88l15.93-27.62,47.84,27.62h-63.77ZM963.11,733.7l-31.71-54.88,47.54,27.45-15.82,27.44ZM940.38,665.53h62.04l-15.5,26.87-46.54-26.87ZM940.3,649.53l47.25-27.29,15.76,27.29h-63.01ZM932.42,635.6l31.42-54.43,15.71,27.2-47.13,27.22ZM977.54,572.89h63.47l-47.59,27.49-15.87-27.49ZM918.53,556.89v-54.21l31.3,54.21h-31.3ZM856.85,549.81l-15.92-27.56,47.75-27.57-31.83,55.12ZM842.46,556.89h-61.53l46.14-26.64,15.39,26.64ZM772.43,543.32l31.08-53.84,15.55,26.91-46.64,26.93ZM759.04,534.5v-53.67h30.99l-30.99,53.67ZM743.04,536.14l-31.94-55.32h31.94v55.32ZM728.71,543.32l-48.13-27.79,16.03-27.81,32.1,55.59ZM720.21,556.89h-63.47l15.85-27.49,47.62,27.49ZM643.32,548.12l-30.85-53.44,46.27,26.71-15.41,26.73ZM629.91,556.89h-31.02v-53.73l31.02,53.73ZM629.04,572.89l-30.15,52.3v-52.3h30.15ZM582.89,627.82l-31.69-54.93h31.69v54.93ZM569.01,635.77l-47.32-27.33,15.77-27.34,31.54,54.67ZM560.84,649.53h-62.85l15.71-27.23,47.14,27.23ZM561.03,665.53l-47.46,27.4-15.77-27.4h63.23ZM566.94,680.59l-30.26,52.48-15.12-26.28,45.38-26.2ZM523.29,741.88h-62.5l46.91-27.08,15.59,27.08ZM522.38,757.88l-15.45,26.8-46.42-26.8h61.87ZM536.67,765.13l31.65,55-47.54-27.45,15.89-27.55ZM560.76,834.23h-63.93l15.97-27.69,47.96,27.69ZM560.84,850.23l-47.14,27.23-15.71-27.23h62.86ZM568.72,864.16l-31.36,54.32-15.67-27.15,47.03-27.16ZM524.1,927.5h-65.05l48.79-28.18,16.26,28.18ZM522.91,943.5l-15.13,26.2-45.39-26.2h60.52ZM537.35,950.48l31.42,54.44-47.14-27.21,15.72-27.23ZM667.21,991.95l15.53,26.99h-62.27l46.74-26.99ZM743.04,1034.93v56.7l-32.63-56.7h32.63ZM759.04,1034.93h30.32l-30.32,52.58v-52.58ZM832.96,991.39l47.72,27.55h-63.6l15.89-27.55ZM963.85,950.58l15.91,27.56-47.74,27.56,31.83-55.13ZM978.23,943.5h61.53l-46.14,26.64-15.38-26.64ZM1001.41,885.52l15.47-26.8,30.99,53.64-46.47-26.84ZM1000.98,799.24l47.64-27.51-31.76,55-15.89-27.5ZM1000.78,700.4l15.94-27.64,31.91,55.26-47.85-27.62ZM1001.41,614.23l45.89-26.51-30.58,53.02-15.31-26.52ZM977.87,556.89l15.5-26.84,46.48,26.84h-61.98ZM963.85,549.18l-31.32-54.26,46.99,27.13-15.66,27.13ZM832.92,508.4l-15.93-27.57h63.69l-47.75,27.57ZM759.04,464.83v-52.29l30.22,52.29h-30.22ZM743.04,464.83h-33.22l33.22-57.62v57.62ZM666.73,507.53l-46.26-26.71h61.66l-15.4,26.71ZM582.89,556.89h-31.45l31.45-54.51v54.51ZM507.83,600.44l-47.7-27.55h63.59l-15.9,27.55ZM499.84,614.3l-15.78,27.35-31.43-54.61,47.21,27.27ZM499.72,700.93l-47.08,27.18,31.4-54.42,15.68,27.24ZM498.94,798.54l-15.38,26.68-30.77-53.33,46.16,26.65ZM499.84,885.46l-48.81,28.19,32.53-56.41,16.28,28.22ZM499.78,983.57l-16.23,28.1-32.32-56.13,48.54,28.03ZM513.63,991.57l47.4,27.37h-63.2l15.8-27.37ZM683.4,1034.93l-15.66,27.13-46.99-27.13h62.65ZM696.9,1043.54l30.48,52.96-45.8-26.44,15.31-26.52ZM721.39,1111.51l-63.78.07,15.98-27.67,47.8,27.6ZM771.11,1098.61l32.47-56.3,16.25,28.17-48.73,28.13ZM827.84,1084.33l15.6,27.04-62.55.07,46.95-27.11ZM817.8,1034.93h63.6l-47.71,27.54-15.89-27.54ZM987.76,992l15.55,26.93h-62.19l46.65-26.93ZM1001.62,984l46.81-27.02-31.16,54.12-15.65-27.1ZM1062.48,905.67l-32.04-55.44h32.04v55.44ZM1078.48,850.23h31.4l-31.4,54.53v-54.53ZM1031.02,834.23l31.46-54.5v54.5h-31.46ZM1031.02,665.53h31.46v54.5l-31.46-54.5ZM1030.12,649.53l32.36-56.11v56.11h-32.36ZM1078.48,594.75l31.54,54.78h-31.54v-54.78ZM1001.36,516.19l15.97-27.66,31.8,55.24-47.77-27.58ZM987.51,508.19l-47.4-27.37h63.2l-15.8,27.37ZM817.75,464.83l15.66-27.13,46.99,27.13h-62.65ZM803.5,457.49l-32.14-55.61,48.19,27.82-16.05,27.8ZM779.46,388.08h64.12l-16.03,27.77-48.09-27.77ZM726.58,403.72l-29.98,51.99-15.02-26.01,45-25.98ZM673.59,415.84l-16.03-27.77h64.12l-48.09,27.77ZM683.4,464.83h-62.65l46.99-27.13,15.66,27.13ZM537.46,549.09l-15.66-27.14,46.96-27.11-31.31,54.25ZM523.49,556.89h-62.2l46.66-26.94,15.54,26.94ZM451.43,544.11l32.35-56.04,16.17,28.02-48.52,28.01ZM438.79,595.07l31.34,54.46h-31.34v-54.46ZM422.79,649.53h-32.23l32.23-55.82v55.82ZM470.28,665.53l-31.48,54.56v-54.56h31.48ZM470.28,834.23h-31.48v-54.56l31.48,54.56ZM469.13,850.23l-30.34,52.61v-52.61h30.34ZM422.79,906.14l-32.19-55.91h32.19v55.91ZM469.27,1018.93h-30.47v-52.93l30.47,52.93ZM470.12,1034.93l-31.32,54.26v-54.26h31.32ZM483.53,1043.7l15.48,26.88-46.49,26.84,31.02-53.73ZM496.94,1034.93h63.81l-47.89,27.65-15.92-27.65ZM568.76,1048.79l-31.96,55.36-15.95-27.7,47.91-27.66ZM659.73,1075.92l-15.77,27.31-31.51-54.61,47.28,27.29ZM658.02,1127.59l63.03-.07-47.31,27.31-15.72-27.24ZM659.88,1162.83l-47.78,27.58,31.86-55.18,15.92,27.59ZM843.3,1127.37l-15.61,27.04-46.71-26.97,62.32-.07ZM857.22,1135.26l31.32,54.28-47-27.13,15.68-27.15ZM841.69,1076.33l46.61-26.91-31.08,53.83-15.53-26.92ZM940.38,1034.93h63.16l-15.76,27.37-47.4-27.37ZM979.8,1076.17l-15.78,27.42-31.64-54.79,47.42,27.38ZM1017.28,1043.14l31.35,54.29-46.99-27.13,15.64-27.17ZM1031.02,1034.93h31.46v54.5l-31.46-54.5ZM1031.22,1018.93l31.27-54.31v54.31h-31.27ZM1123.77,858.17l15.95,27.62-47.71,27.54,31.76-55.17ZM1137.66,850.23h63.66l-47.74,27.56-15.91-27.56ZM1078.48,834.23v-54.5l31.46,54.5h-31.46ZM1078.48,665.53h31.46l-31.46,54.5v-54.5ZM1123.84,641.46l-31.12-54.05,46.74,26.99-15.62,27.06ZM1153.32,622.4l46.99,27.13h-62.65l15.66-27.13ZM1031.36,480.83h31.13v54.07l-31.13-54.07ZM1031.02,464.83l31.46-54.5v54.5h-31.46ZM1017.35,456.5l-15.6-27.1,46.88-27.07-31.28,54.17ZM1003.68,464.83h-63.3l47.51-27.43,15.79,27.43ZM932.38,450.97l31.71-54.92,15.82,27.48-47.52,27.44ZM841.41,423.84l15.8-27.37,31.6,54.74-47.4-27.37ZM843.12,372.08h-61.73l46.3-26.73,15.43,26.73ZM841.55,337.35l46.99-27.13-31.32,54.26-15.66-27.13ZM658.08,372.08l15.41-26.71,46.26,26.71h-61.67ZM643.96,364.52l-31.35-54.3,47.02,27.15-15.67,27.16ZM659.73,423.84l-47.28,27.29,31.51-54.61,15.77,27.31ZM513.81,508.09l-15.73-27.27h62.96l-47.23,27.27ZM469.49,480.83l-30.69,53.16v-53.16h30.69ZM438.79,464.83v-54.72l31.57,54.72h-31.57ZM377.14,640.8l-15.29-26.49,45.87-26.49-30.59,52.98ZM363.7,649.53h-62.87l47.16-27.23,15.71,27.23ZM422.79,665.53v54.4l-31.39-54.4h31.39ZM422.79,834.23h-31.39l31.39-54.4v54.4ZM377.15,858.93l30.49,52.97-45.8-26.44,15.31-26.52ZM347.99,877.46l-47.16-27.23h62.87l-15.71,27.23ZM422.79,1034.93v54.74l-31.6-54.74h31.6ZM506.99,1084.45l15.72,27.3-63.12.07,47.41-27.37ZM582.61,1056.79v54.89l-31.71.04,31.71-54.93ZM598.61,1056.65l31.72,54.98-31.72.04v-55.01ZM629.88,1127.62l-31.27,54.16v-54.12l31.27-.04ZM667.88,1176.69l15.55,26.95h-62.23l46.68-26.95ZM681.74,1168.69l61.31-35.4v70.35h-41.14l-20.17-34.95ZM743.04,1219.64v55.3l-31.91-55.3h31.91ZM759.04,1219.64h30.99l-30.99,53.67v-53.67ZM759.04,1203.64v-70.38l60.65,35.01-20.42,35.37h-40.23ZM833.55,1176.27l47.4,27.37h-63.2l15.8-27.37ZM871.12,1127.34l31.4-.04v54.46l-31.4-54.43ZM871.03,1111.34l31.49-54.55v54.51l-31.49.04ZM918.53,1056.79l31.44,54.46-31.44.04v-54.49ZM993.66,1084.17l46.72,26.97-62.29.07,15.57-27.04ZM1078.48,1034.93h31.46l-31.46,54.5v-54.5ZM1078.48,1018.93v-70.41l61.01,35.24-20.31,35.17h-40.7ZM1153.35,991.76l47.04,27.17h-62.73l15.69-27.17ZM1161.35,977.91l15.78-27.32,31.56,54.67-47.34-27.34ZM1147.49,969.9l-60.71-35.07,60.94-35.18,20.17,34.93-20.39,35.32ZM1161.57,891.65l46.65-26.93-31.1,53.86-15.55-26.93ZM1137.55,834.23l15.72-27.31,47.31,27.31h-63.03ZM1123.75,826.14l-31.41-54.41,47.08,27.18-15.67,27.22ZM1100.34,757.88h62.71l-15.64,27.17-47.07-27.17ZM1100.34,741.88l47.17-27.23,15.68,27.23h-62.85ZM1092.34,728.02l31.48-54.53,15.71,27.28-47.19,27.24ZM1137.69,665.53h62.89l-47.2,27.25-15.69-27.25ZM1161.32,608.54l15.8-27.37,31.6,54.74-47.4-27.37ZM1147.47,600.55l-61.19-35.33,61.22-35.36,20.39,35.32-20.42,35.37ZM1161.35,521.85l47.34-27.34-31.56,54.67-15.78-27.33ZM1153.35,508l-15.69-27.17h62.73l-47.04,27.17ZM1139.49,516l-61.01,35.24v-70.41h40.7l20.31,35.17ZM1078.48,464.83v-54.5l31.46,54.5h-31.46ZM993.76,415.53l-15.81-27.45h63.36l-47.55,27.45ZM918.53,442.97v-54.89h31.69l-31.69,54.89ZM902.53,442.97l-31.69-54.89h31.69v54.89ZM871.29,372.08l31.23-54.1v54.1h-31.23ZM833.55,323.49l-15.8-27.37h63.2l-47.4,27.37ZM819.69,331.49l-60.65,35.01v-70.38h40.23l20.42,35.37ZM759.04,280.12v-53.67l30.99,53.67h-30.99ZM743.04,280.12h-31.91l31.91-55.3v55.3ZM743.04,296.12v70.93l-61.56-35.54,20.42-35.39h41.14ZM667.63,323.51l-47.43-27.39h63.24l-15.8,27.39ZM629.85,372.08h-31.23v-54.1l31.23,54.1ZM630.37,388.08l-31.76,55.04v-55.04h31.76ZM582.61,442.97l-31.69-54.89h31.69v54.89ZM568.62,450.73l-47.46-27.4,15.82-27.4,31.64,54.81ZM561.03,464.83h-63.84l15.96-27.64,47.88,27.64ZM483.78,456.06l-31.01-53.74,46.52,26.86-15.52,26.88ZM422.79,464.83h-31.32l31.32-54.26v54.26ZM422.79,480.83v70.49l-60.94-35.2,20.38-35.29h40.56ZM348,508.12l-47.25-27.29h63.01l-15.76,27.29ZM340,521.97l-15.72,27.23-31.42-54.46,47.14,27.23ZM353.86,529.98l61.01,35.24-61.02,35.23-20.33-35.24,20.34-35.23ZM339.99,608.44l-47.16,27.23,31.45-54.47,15.72,27.24ZM362.86,665.53l-15.51,26.86-46.52-26.86h62.02ZM377.13,672.81l31.82,55.14-47.74-27.56,15.92-27.58ZM401.08,741.88h-63.82l15.95-27.64,47.87,27.64ZM400.8,757.88l-47.56,27.46-15.81-27.46h63.36ZM409.09,771.57l-31.92,55.32-15.94-27.69,47.86-27.63ZM362.93,834.23h-62.38l46.81-27.03,15.56,27.03ZM339.99,891.32l-15.85,27.48-31.72-54.95,47.58,27.47ZM353.85,899.32l61.02,35.23-61.22,35.36-20.27-35.11,20.47-35.48ZM339.79,977.91l-46.93,27.11,31.28-54.22,15.65,27.11ZM372.72,1034.93l36.08,62.5-108.24-62.5h72.16ZM523.17,1127.75l-84.38,146.14v-146.05l84.38-.1ZM582.61,1127.68v56.06l-32.25-56.02,32.25-.04ZM692.66,1219.64l36.06,62.5-108.26-62.5h72.19ZM808.51,1219.64h72.16l-108.24,62.5,36.08-62.5ZM918.53,1127.28l31.87-.04-31.87,55.35v-55.32ZM1062.48,1127.11v147.02l-84.82-146.92,84.82-.1ZM1128.42,1034.93h72.16l-108.24,62.5,36.08-62.5ZM1186.36,934.58l36.08-62.5v124.99l-36.08-62.5ZM1161.26,793.05l15.7-27.26,31.32,54.41-47.02-27.15ZM1161.37,706.65l46.7-26.96-31.11,54.04-15.59-27.08ZM1186.36,565.18l36.08-62.5v124.99l-36.08-62.5ZM1128.42,464.83l-36.08-62.5,108.24,62.5h-72.16ZM977.93,372.08l84.55-146.45v146.45h-84.55ZM918.53,372.08v-55.16l31.76,55.16h-31.76ZM808.51,280.12l-36.08-62.5,108.24,62.5h-72.16ZM692.66,280.12h-72.19l108.26-62.5-36.06,62.5ZM582.61,372.08h-31.87l31.87-55.21v55.21ZM507.3,415.33l-47.2-27.25h62.93l-15.73,27.25ZM373,464.83h-72.16l108.24-62.5-36.08,62.5ZM315.04,565.2l-36.07,62.47v-124.97l36.07,62.51ZM339.35,706.24l-15.84,27.45-31.56-54.81,47.4,27.37ZM339.39,793.34l-47.75,27.57,31.86-55.18,15.9,27.61ZM314.9,934.8l-36.21,62.75v-125.46l36.21,62.71ZM401.85,1111.89l-72.53.08-36.34-62.94,108.88,62.86ZM536.77,1136.18l42.22,73.34-126.85,73.24,84.63-146.58ZM720.3,1295.75h-73.2l-36.44-63.3,109.64,63.3ZM889.5,1233.01l-36.12,62.73h-72.54l108.66-62.73ZM964.04,1135.62l84.45,146.27-126.59-73.09,42.14-73.19ZM1208.17,1049.03l-35.77,61.95-71.68.08,107.45-62.04ZM1238.44,872.59l35.75,62.09-35.75,61.92v-124.01ZM1233.38,831.72l-42.51-73.84h170.41l-127.9,73.84ZM1190.72,741.88l42.3-73.46,127.24,73.46h-169.54ZM1238.44,503.16l35.68,61.8-35.68,61.97v-123.77ZM1099.65,388.08h72.34l36.17,62.65-108.52-62.65ZM964.11,364.02l-42.1-73.13,126.48-73.02-84.38,146.15ZM780.84,204.01h72.68l36.19,62.86-108.87-62.86ZM611.5,266.82l36.26-62.81h72.53l-108.79,62.81ZM536.97,363.92l-84.32-146.05,126.48,73.03-42.16,73.03ZM523.21,372.08h-84.41v-146.21l84.41,146.21ZM292.83,450.97l36.31-62.89h72.62l-108.93,62.89ZM262.98,628.55l-36.28-63.02,36.28-62.85v125.87ZM267.63,668.7l42.13,73.18h-168.89l126.75-73.18ZM309.54,757.88l-42.16,73.04-126.5-73.04h168.67ZM262.7,996.6l-36.25-62.78,36.25-62.79v125.57ZM422.79,1127.86v146.03l-84.25-145.93,84.25-.1ZM461.66,1295.75l125.32-72.35,41.66,72.35h-166.98ZM743.04,1311.75v150.65l-86.73-150.65h86.73ZM759.04,1459.61v-147.86h85.13l-85.13,147.86ZM913.92,1222.67l126.57,73.08h-168.64l42.07-73.08ZM1078.48,1273.65v-146.56l84.67-.1-84.67,146.65ZM1233.11,1037.83l126.27,72.93-168.49.2,42.22-73.13ZM1367.7,1097.1l-126.59-73.12,42.31-73.28,84.28,146.4ZM1241.36,845.59l126.4-72.98-84.33,146.06-42.07-73.08ZM1368.26,728.02l-127.26-73.47,42.36-73.58,84.9,147.05ZM1241.11,475.78l126.38-73-84.14,146.15-42.24-73.16ZM1360.96,388.08l-127.85,73.85-42.64-73.85h170.49ZM1078.48,372.08v-145.97l84.27,145.97h-84.27ZM1040.49,204.01l-126.47,73.01-42.04-73.01h168.5ZM759.04,188.01V39.91l85.27,148.1h-85.27ZM743.04,38.97v149.04h-86.04l86.04-149.04ZM587.13,277.04l-126.48-73.02h168.64l-42.16,73.02ZM422.79,225.87v146.21h-84.41l84.41-146.21ZM268.03,461.93l-127.85-73.85h170.49l-42.64,73.85ZM132.67,402.22l127.36,73.56-42.56,73.72-84.8-147.29ZM259.65,654.83l-126.77,73.19,84.57-146.48,42.2,73.29ZM132.88,771.74l126.5,73.04-42.17,73.04-84.34-146.08ZM260.03,1023.98l-128.47,74.2,85.65-148.37,42.82,74.16Z"/></svg>
