<?xml version="1.0" encoding="UTF-8"?><svg id="Layer_2" xmlns="http://www.w3.org/2000/svg" xmlns:xlink="http://www.w3.org/1999/xlink" viewBox="0 0 1500 1500"><defs><style>.cls-1{fill:url(#New_Gradient_Swatch_2);stroke-width:0px;}</style><linearGradient id="New_Gradient_Swatch_2" x1="122.76" y1="1111.5" x2="1377.25" y2="387.22" gradientUnits="userSpaceOnUse"><stop offset="0" stop-color="#56450d"/><stop offset=".21" stop-color="#e5c787"/><stop offset=".39" stop-color="#f7d976"/><stop offset=".99" stop-color="#725728"/></linearGradient></defs><path class="cls-1" d="M1262.02,237.33c-66.5-66.5-143.94-118.71-230.16-155.18-82.58-34.93-169.92-53.92-259.92-56.57-6.6-.35-13.24-.54-19.9-.54-5.13,0-10.25.13-15.35.34-93.05,1.66-183.33,20.73-268.55,56.77-86.23,36.47-163.67,88.68-230.16,155.18-66.5,66.5-118.71,143.94-155.18,230.16-37.76,89.28-56.91,184.11-56.91,281.86s19.15,192.58,56.91,281.86c36.47,86.23,88.68,163.67,155.18,230.16,66.5,66.5,143.94,118.71,230.16,155.18,89.28,37.76,184.11,56.91,281.86,56.91s192.58-19.15,281.86-56.91c86.23-36.47,163.67-88.68,230.16-155.18s118.71-143.94,155.18-230.16c37.76-89.28,56.91-184.11,56.91-281.86s-19.15-192.58-56.91-281.86c-36.47-86.23-88.68-163.67-155.18-230.16ZM1302.89,1174.1c-60.93,60.93-140.53,96.41-225.9,101.14,4.34-8.39,8.38-16.96,12.09-25.72,19.08-45.12,28.76-93.04,28.76-142.44s-9.68-97.32-28.76-142.44c-4.41-10.43-9.29-20.6-14.61-30.51,44.03-1.68,86.76-11.14,127.21-28.25,43.26-18.29,82.1-44.49,115.46-77.84,18.34-18.34,34.49-38.34,48.38-59.82,25.53,48.92,39.08,103.59,39.08,160.35,0,92.75-36.12,179.95-101.7,245.54ZM96.51,928.8c0-56.38,13.33-110.7,38.46-159.39,13.76,21.1,29.71,40.79,47.78,58.85,33.48,33.48,72.46,59.76,115.88,78.12,41.42,17.52,85.21,27.06,130.34,28.45-5.17,9.69-9.93,19.62-14.24,29.8-19.08,45.12-28.76,93.04-28.76,142.44s9.68,97.32,28.76,142.44c3.91,9.23,8.19,18.25,12.8,27.08-86.55-4.18-167.33-39.87-229.02-101.57-65.77-65.77-101.99-153.21-101.99-246.22ZM194.06,324.01c62.7-62.7,145.09-98.55,233.22-101.82-4.47,8.59-8.62,17.37-12.42,26.35-19.08,45.12-28.76,93.04-28.76,142.44s9.68,97.32,28.76,142.44c4.56,10.77,9.6,21.27,15.12,31.48-43.96,1.74-86.63,11.22-127.03,28.31-43.37,18.34-82.32,44.6-115.77,78.05-20.23,20.23-37.8,42.48-52.61,66.49-27.81-50.7-42.61-107.84-42.61-167.27,0-93.1,36.26-180.63,102.09-246.47ZM950.38,581.32c-4.98,1.53-9.92,3.2-14.84,4.95.12-1.64.21-3.29.29-4.95h14.55ZM1023.97,916.54c-31.02-3.2-61.15-10.5-89.75-21.63-2.59-14-6.76-27.46-12.31-40.18l107.98,61.78-5.92.03ZM936.93,916.91c-.09-1.37-.19-2.73-.3-4.09,3.93,1.42,7.88,2.76,11.84,4.04l-11.54.05ZM903.25,1004.97c-36.15-.25-69.64-11.93-97.01-31.61,1.6-13.17,2.47-26.48,2.64-39.9l112.39-.48c-.63,25.83-7.06,50.24-18.02,71.99ZM581.78,934.43l112.4-.48c.2,13.6,1.11,27.09,2.78,40.42-27.45,19.45-60.94,30.9-97.05,30.93-10.86-21.43-17.3-45.45-18.14-70.88ZM549.15,918.57c5.78-1.81,11.52-3.76,17.22-5.86-.17,1.92-.31,3.85-.41,5.79l-16.81.07ZM567.16,581.32c.07,1.49.16,2.98.26,4.47-4.4-1.58-8.82-3.07-13.27-4.47h13.01ZM737.87,662.06c0-14.93,1.96-29.41,5.62-43.2v86.4c-3.66-13.79-5.62-28.27-5.62-43.2ZM759.5,705.61v-87.77c3.78,14,5.81,28.71,5.81,43.89s-2.03,29.89-5.81,43.89ZM722.22,650.91c-5.29-22.61-8.33-45.9-9.01-69.59h27.29c-10.38,21.24-16.79,44.76-18.28,69.59ZM743.5,786.26v100.37c-4.96-15.86-7.63-32.71-7.63-50.18s2.67-34.32,7.63-50.18ZM759.5,782.99c5.7,16.9,8.8,34.98,8.8,53.78s-3.1,36.88-8.8,53.78v-107.56ZM780.71,646.93c-1.86-23.36-8.09-45.5-17.86-65.62h26.05c-.68,22.31-3.43,44.25-8.18,65.62ZM734.93,565.32h-21.81c.13-8.12.55-16.19,1.23-24.21,7.59,7.4,14.48,15.51,20.58,24.21ZM716.58,521.48c4.6-32.29,13.68-63.5,26.92-92.89v121.35c-7.95-10.41-16.98-19.95-26.92-28.46ZM697.12,565.32h-42.93l-41.21-71.36c32.4,3.11,62.14,15.43,86.59,34.3-1.44,12.24-2.25,24.6-2.45,37.06ZM697.2,581.32c.7,25.85,4.11,51.25,10.14,76.03l-43.91-76.03h33.77ZM724.13,723.15l-89.74-51.34c35.17,7.38,66.34,25.75,89.74,51.34ZM602.89,652.26c-6.91-12.88-12.21-26.74-15.59-41.34,32.25,14.48,62.31,33.97,89.24,58.05-22.5-10.34-47.41-16.27-73.65-16.71ZM630.4,826.89l91.87-52.81c-23.74,26.49-55.72,45.46-91.87,52.81ZM603.2,846.14c25.19-.87,49.11-6.81,70.77-16.83-26.29,23.77-55.63,43.11-87.08,57.68,3.67-14.44,9.2-28.14,16.31-40.85ZM720.09,845.43c1.25,25.85,7.84,50.32,18.69,72.33l-28.49.12c.74-24.69,4.05-48.94,9.79-72.45ZM783.86,849.34c5.15,22.17,8.14,44.98,8.88,68.18l-27.13.12c10.22-20.87,16.61-43.95,18.26-68.3ZM916.17,887.28c-32.05-14.63-61.92-34.22-88.63-58.4,22.1,10.49,46.61,16.72,72.45,17.61,7.06,12.69,12.55,26.38,16.19,40.79ZM874.36,827.54c-37.13-7.18-69.95-26.58-94.1-53.83l94.1,53.83ZM867.95,671.88l-87.12,50.08c22.9-24.7,53.09-42.54,87.12-50.08ZM826.52,669.17c26.88-23.98,56.88-43.38,89.06-57.78-3.36,14.3-8.56,27.91-15.31,40.56-26.3.58-51.25,6.7-73.75,17.22ZM795.12,655.43c5.78-24.17,9.06-48.93,9.79-74.11h33.54l-43.32,74.11ZM805.01,565.32c-.17-12.12-.92-24.15-2.26-36.06,24.37-19.06,54.09-31.58,86.49-34.87l-41.46,70.93h-42.78ZM789.02,565.32h-20.53c5.8-8.24,12.31-15.94,19.46-23.01.61,7.62.96,15.3,1.07,23.01ZM759.5,550.53v-121.04c13.03,29.45,21.88,60.7,26.3,93.01-9.71,8.4-18.52,17.8-26.3,28.03ZM725.6,429.79c-10.99,25.99-18.82,52.92-23.47,80.52-25.89-18.07-56.61-29.68-89.8-32.47,27.87-40.7,73.1-68.61,124.94-72.97-4.19,8.13-8.09,16.43-11.67,24.91ZM635.72,565.32h-52.59c1-22.74,6.53-44.32,15.7-63.87l36.89,63.87ZM644.96,581.32l45.35,78.52c-30.66-28.05-65.51-50.43-103.81-66.63-.8-.34-1.61-.65-2.41-.99-.42-3.6-.73-7.24-.91-10.91h61.79ZM569.52,603.53c2.16,12.86,5.65,25.27,10.33,37.08l-102.22-58.48c31.76,2.96,62.61,10.18,91.89,21.4ZM717.81,737.97c-35.89-7.31-67.67-26.06-91.35-52.26l91.35,52.26ZM633.85,806.45c19.84-19.09,44.29-33.41,71.5-41.1l-71.5,41.1ZM568.81,894.74c-30.55,12.08-62.85,19.79-96.15,22.82l108.13-62.16c-5.38,12.47-9.44,25.64-11.98,39.34ZM583.2,906.04c43.1-18.35,81.82-44.51,115.1-77.78,5.07-5.07,9.95-10.28,14.69-15.6-11.42,33.89-17.68,69.17-18.71,105.29l-112.28.48c.25-4.17.65-8.31,1.2-12.39ZM710.18,933.88l27.33-.12c-7.46,10.57-16.11,20.24-25.75,28.83-.92-9.49-1.43-19.07-1.58-28.71ZM743.5,952.35v125.17c-14.39-30.26-24.29-62.54-29.38-96.02,10.85-8.59,20.7-18.37,29.38-29.14ZM759.5,950.58c8.72,11.05,18.68,21.07,29.66,29.87-5.03,34.06-15.04,66.89-29.66,97.65v-127.52ZM766.79,933.64l26.08-.11c-.12,9.35-.61,18.65-1.46,27.86-9.18-8.31-17.45-17.62-24.63-27.75ZM808.74,917.46c-1.07-35.28-7.13-69.75-18.1-102.9,4.14,4.58,8.4,9.08,12.8,13.47,33.36,33.36,72.2,59.55,115.46,77.84.3.13.61.25.92.37.47,3.54.83,7.12,1.08,10.73l-112.16.48ZM798.13,765.49c26.62,7.61,50.59,21.58,70.15,40.14l-70.15-40.14ZM877.08,685.09c-23.77,26.56-55.81,45.56-92.04,52.91l92.04-52.91ZM933.39,604.02c28.43-10.85,58.34-17.93,89.12-20.98l-99.15,56.99c4.51-11.49,7.89-23.54,10.02-36.02ZM918.86,592.68c-.96.4-1.94.78-2.9,1.18-39.71,16.79-75.68,40.26-107.12,69.79l48.13-82.34h62.85c-.19,3.82-.52,7.61-.96,11.37ZM866.33,565.32l37.61-64.35c9.31,19.67,14.92,41.42,15.93,64.35h-53.54ZM800.27,511.19c-4.63-28.33-12.58-55.97-23.85-82.62-3.41-8.06-7.1-15.97-11.05-23.72,52.13,4.27,97.61,32.36,125.52,73.33-33.54,2.81-64.56,14.62-90.62,33.01ZM598.76,469.34l-142.68-247.07c87.26,3.81,168.75,39.58,230.91,101.73,19.77,19.77,36.85,41.51,51.1,64.75-57.89,4.18-108.46,35.16-139.33,80.58ZM567.12,565.32h-99.45c-2.92-.18-5.84-.33-8.77-.44,28.38-40.28,73.95-67.63,125.95-71.28-10.44,21.89-16.69,46.14-17.72,71.72ZM571.66,654.36c-13.17,2.02-25.87,5.45-37.98,10.1-10.09-8.09-19.81-16.76-29.09-26.04-13.67-13.67-26.04-28.28-37.11-43.67l104.18,59.6ZM593.66,668.35c13.66,22.48,31.98,41.81,53.61,56.67-35.06-10.95-68.18-27.42-98.3-48.97,14.18-4.49,29.17-7.15,44.69-7.7ZM609.6,728.16c21.56,9.12,43.76,16.06,66.45,20.86-22.74,4.79-44.99,11.75-66.59,20.89-28.62,12.11-55.31,27.66-79.79,46.42-31.11-13.55-57.36-36.22-75.36-64.62,17.76-30.24,44.67-54.48,76.9-68.89,24.1,18.28,50.31,33.48,78.39,45.35ZM653.12,771.22c-23.4,14.66-43.32,34.37-58.2,57.61l-2.4,1.38c-15.6-.39-30.68-2.91-44.96-7.28,32.17-23.24,67.79-40.65,105.57-51.71ZM568.38,844.08l-99.63,57.27c10.71-14.67,22.61-28.63,35.7-41.72,8.88-8.88,18.17-17.21,27.81-25.01,11.54,4.32,23.62,7.52,36.12,9.46ZM471.1,934.91l94.67-.41c.69,22.68,5.46,44.35,13.61,64.31l-108.28-63.9ZM699.6,991.9c4.7,26.74,12.4,52.84,23.07,78.05,2.63,6.22,5.45,12.34,8.4,18.37l-114.82-67.76c30.51-2.72,58.91-12.88,83.35-28.67ZM780.31,1070.57c10.87-25.7,18.66-52.32,23.34-79.59,23.51,15.38,50.72,25.54,79.99,28.84l-110.97,67.6c2.68-5.54,5.23-11.15,7.64-16.84ZM937.27,932.91l85.82-.37c1.1.11,2.21.2,3.32.31l-101.05,61.56c7.27-19.2,11.45-39.9,11.92-61.5ZM935.81,844.26c12.39-1.99,24.37-5.22,35.82-9.56,9.6,7.77,18.86,16.08,27.72,24.94,12.93,12.93,24.7,26.7,35.31,41.17l-98.84-56.55ZM911.79,830.51l-4.17-2.39c-14.99-23.16-34.98-42.78-58.44-57.34,38.4,11.05,74.59,28.65,107.23,52.25-14.17,4.41-29.13,6.98-44.61,7.47ZM894.34,769.9c-21.56-9.12-43.76-16.06-66.45-20.86,22.74-4.79,44.99-11.75,66.59-20.89,28.19-11.92,54.51-27.2,78.69-45.58,31.97,14.35,58.69,38.37,76.41,68.33-17.89,28.72-44.17,51.69-75.39,65.46-24.5-18.78-51.2-34.35-79.85-46.47ZM854.81,725.65c22.15-15.02,40.87-34.72,54.74-57.67,15.95.48,31.35,3.19,45.89,7.82-30.78,22.08-64.7,38.86-100.63,49.85ZM931.38,653.87l106.9-61.45c-11.49,16.25-24.44,31.63-38.8,45.99-9.19,9.19-18.81,17.78-28.79,25.8-12.51-4.83-25.67-8.34-39.31-10.34ZM935.87,565.32c-1.02-25.44-7.21-49.58-17.56-71.37,52.05,3.65,97.66,31.03,126.04,71.37h-108.48ZM764.71,388.75c14.03-22.63,30.75-43.81,50.04-63.1,62.48-62.48,144.59-98.2,232.42-101.44l-143.13,244.87c-30.92-45.32-81.48-76.22-139.33-80.33ZM918.9,236.49c-43.26,18.29-82.1,44.48-115.46,77.84-16.42,16.42-31.09,34.17-43.95,53.12v-145.07l198.13.29c-13.11,3.86-26.04,8.45-38.73,13.82ZM743.5,367.61c-13.16-19.62-28.25-37.98-45.19-54.92-33.48-33.48-72.46-59.76-115.88-78.12-11.24-4.75-22.65-8.92-34.22-12.5l195.29.28v145.26ZM585.03,477.56c-54.98,3.46-103.49,31.11-135.02,72.39V243.77l135.02,233.79ZM493.28,649.74c7.71,7.71,15.73,15.03,24.01,21.97-26.79,13.44-49.87,33.2-67.28,57.32v-131.34c12.71,18.54,27.15,35.94,43.26,52.05ZM515.77,827.51c-7.79,6.6-15.35,13.52-22.63,20.8-16.06,16.06-30.44,33.39-43.12,51.85v-126.68c17.35,22.73,39.86,41.33,65.76,54.03ZM541.02,994.75c-18.71-6.98-35.86-17.19-50.77-29.96l50.77,29.96ZM706.97,1092.69c-29.72-8.08-56.22-24.05-77.11-45.51l77.11,45.51ZM877.97,1042c-22.07,24.64-51.21,42.81-84.21,51.3l84.21-51.3ZM1028.65,950.21c-21.32,23.26-49.07,40.53-80.41,48.98l80.41-48.98ZM1010.66,848.32c-7.27-7.27-14.82-14.19-22.61-20.78,26.01-12.89,48.58-31.72,65.89-54.73v127.59c-12.72-18.55-27.16-35.96-43.28-52.08ZM987.06,671.47c8.18-6.87,16.11-14.11,23.74-21.74,16.07-16.06,30.46-33.41,43.14-51.88v130.57c-17.34-23.94-40.28-43.57-66.88-56.95ZM917.45,477.86l136.49-233.51v306.97c-31.63-42.03-80.78-70.15-136.49-73.46ZM759.5,206.38V47.19l272.86,159.58-272.86-.4ZM743.5,206.35l-271.98-.4L743.5,47.18v159.17ZM434.02,537.37c-20.89-45.32-31.92-95.01-31.92-146.4s11.03-101.08,31.92-146.4v292.79ZM434.02,705.58c-3.77-13.99-5.8-28.69-5.8-43.86s2.03-29.87,5.8-43.86v87.72ZM434.02,867.46c-1.84-9.96-2.81-20.21-2.81-30.69s.97-20.74,2.81-30.69v61.39ZM610.05,1235.43c-49.88,26.98-105.94,41.39-164.22,41.57-28.63-51.39-43.87-109.48-43.87-169.92s13.99-113.7,40.35-163.47l167.73,291.82ZM480,977.06c28.76,24.58,65.13,40.5,105.03,43.66l7.69,4.54c30.71,50.35,84.68,85.01,146.87,88.96-13.74,21.76-30.01,42.15-48.65,60.79-20.41,20.41-42.9,37.96-67,52.48l-143.95-250.44ZM702.26,1186.33c15.27-15.27,29.03-31.71,41.24-49.18v298.33l-111.61-194.18c25.5-15.29,49.06-33.67,70.37-54.98ZM759.5,1136.53c12.15,17.36,25.83,33.69,41.01,48.87,21.11,21.11,44.42,39.34,69.65,54.52l-110.66,195.2v-298.6ZM811.82,1174.1c-18.38-18.38-34.45-38.47-48.05-59.89,63.86-4.18,119.01-40.76,149.14-93.42,38.33-1.75,73.64-15.23,102.42-36.95l-137.31,242.21c-23.8-14.4-46.03-31.78-66.2-51.95ZM1069.94,804.69c1.97,10.29,3.01,20.9,3.01,31.75s-1.04,21.46-3.01,31.75v-63.5ZM1069.94,621.2c3.27,13.09,5.02,26.77,5.02,40.86s-1.75,27.77-5.02,40.86v-81.72ZM1069.94,244.32c20.97,45.39,32.04,95.17,32.04,146.66s-11.07,101.27-32.04,146.66V244.32ZM783.01,42.41c81.79,7.13,157.73,42.39,216.47,101.13,15.42,15.42,29.21,32.05,41.31,49.64L783.01,42.41ZM464.35,191.61c11.84-17.01,25.27-33.11,40.24-48.08,58.42-58.42,133.86-93.62,215.14-101.01l-255.38,149.09ZM198.5,682.57c62.5-62.5,144.57-98.29,232.4-101.7-11.95,24.43-18.68,51.86-18.68,80.84,0,31.41,7.9,61.01,21.8,86.93v7c-12.04,24.49-18.81,52.02-18.81,81.11s6.77,56.61,18.81,81.11v1.07c-90.67-1.65-175.66-37.71-239.96-102.01-19.41-19.41-36.22-40.72-50.32-63.48,14.95-25.56,33.27-49.39,54.76-70.88ZM586.49,1264.39c10.78-4.56,21.29-9.61,31.5-15.14l119.23,207.44c-87.96-3.6-170.15-39.55-232.77-102.17-18.9-18.9-35.36-39.59-49.25-61.67,45.46-1.27,89.58-10.82,131.28-28.46ZM884.04,1247.88c10.35,5.62,21,10.75,31.93,15.37,42.33,17.9,87.15,27.45,133.33,28.45-14.04,22.51-30.73,43.59-49.95,62.82-62.84,62.84-145.38,98.82-233.7,102.21l118.39-208.85ZM1057.36,1275.8c-58.74,0-115.25-14.51-165.46-41.79l167.16-294.88c27.92,50.9,42.78,108.27,42.78,167.94s-15.01,117.62-43.2,168.71c-.43,0-.85.02-1.28.02ZM1305.83,816.72c-63.31,63.31-146.75,99.15-235.89,101.56v-.32c12.16-24.6,19.01-52.27,19.01-81.52s-6.85-56.92-19.01-81.52v-7.41c13.41-25.57,21.02-54.64,21.02-85.46,0-28.8-6.64-56.09-18.46-80.4,87.06,3.71,168.39,39.36,230.39,101.36,21.04,21.04,39.03,44.32,53.79,69.28-14.19,23.12-31.18,44.75-50.85,64.41ZM1314.21,671.71c-33.36-33.36-72.2-59.55-115.46-77.84-39.8-16.83-81.81-26.28-125.08-28.17,5.69-10.46,10.88-21.22,15.55-32.27,19.08-45.12,28.76-93.04,28.76-142.44s-9.68-97.32-28.76-142.44c-3.47-8.21-7.23-16.26-11.26-24.15,86.12,4.29,166.47,39.86,227.87,101.26,65.59,65.58,101.7,152.79,101.7,245.54,0,58.72-14.49,115.2-41.76,165.39-14.58-23.39-31.81-45.1-51.57-64.86ZM1250.71,248.65c12.25,12.25,24,24.88,35.25,37.88-25.67-20.4-53.88-37.18-84.28-50.03-42.11-17.81-86.69-27.36-132.63-28.44-15.94-27.6-35.43-52.99-58.26-75.83-31.13-31.13-67.02-56.06-106.78-74.21,41.49,9.21,82.11,22.17,121.61,38.88,84.32,35.66,160.05,86.72,225.08,151.76ZM249.29,248.65c65.03-65.03,140.76-116.09,225.08-151.76,42-17.76,85.26-31.3,129.49-40.58-41.28,18.29-78.46,43.79-110.58,75.91-22.26,22.26-41.33,46.96-57.04,73.75-47.7.54-93.98,10.14-137.63,28.6-28.62,12.11-55.3,27.68-79.77,46.46,9.78-11.07,19.93-21.87,30.44-32.39ZM41.89,749.35c0-78.17,12.53-154.43,37.28-227.36-2.12,15.97-3.2,32.14-3.2,48.48,0,49.21,9.64,96.96,28.65,141.9,6.04,14.27,12.94,28.05,20.66,41.32-5.92,10.79-11.32,21.9-16.15,33.33-18.99,44.91-28.62,92.61-28.62,141.77,0,24.02,2.31,47.68,6.88,70.84-30.2-79.82-45.5-163.88-45.5-250.28ZM249.29,1250.06c-13.94-13.94-27.23-28.37-39.86-43.26,28.1,23.84,59.44,43.17,93.52,57.58,42.43,17.95,87.35,27.52,133.64,28.53,15.62,26.47,34.52,50.89,56.55,72.92,32.83,32.83,70.95,58.75,113.33,77.11-45.14-9.29-89.27-23.01-132.09-41.12-84.32-35.66-160.05-86.72-225.08-151.76ZM1250.71,1250.06c-65.03,65.03-140.76,116.09-225.08,151.76-40.5,17.13-82.17,30.34-124.76,39.58,40.96-18.26,77.87-43.65,109.79-75.57,22.38-22.38,41.54-47.23,57.3-74.2,45.29-1.29,89.24-10.81,130.79-28.38,33.1-14,63.62-32.64,91.07-55.57-12.41,14.58-25.45,28.72-39.11,42.38ZM1414.73,993.96c3.89-21.42,5.87-43.26,5.87-65.4,0-49.03-9.6-96.6-28.55-141.39-5.04-11.91-10.69-23.47-16.91-34.68,7.4-12.84,14.03-26.15,19.85-39.91,18.94-44.79,28.55-92.36,28.55-141.39,0-17.59-1.26-34.99-3.72-52.14,25.42,73.83,38.29,151.09,38.29,230.32,0,84.36-14.59,166.48-43.38,244.61Z"/></svg>