<?xml version="1.0" encoding="UTF-8"?><svg id="Layer_2" xmlns="http://www.w3.org/2000/svg" xmlns:xlink="http://www.w3.org/1999/xlink" viewBox="0 0 1500 1500"><defs><style>.cls-1{fill:url(#New_Gradient_Swatch_2);stroke-width:0px;}</style><linearGradient id="New_Gradient_Swatch_2" x1="133.41" y1="1105.95" x2="1366.46" y2="394.05" gradientUnits="userSpaceOnUse"><stop offset="0" stop-color="#56450d"/><stop offset=".21" stop-color="#e5c787"/><stop offset=".39" stop-color="#f7d976"/><stop offset=".99" stop-color="#725728"/></linearGradient></defs><path class="cls-1" d="M1461.73,750.11c0-96.08-18.82-189.29-55.93-277.04-35.85-84.75-87.17-160.87-152.53-226.23-44.97-44.97-95.04-83.3-149.51-114.51-24.83-14.25-50.57-27.03-77.16-38.27-87.69-37.09-180.84-55.9-276.86-55.9s-189.17,18.81-276.86,55.9c-84.7,35.82-160.77,87.11-226.08,152.43-65.32,65.32-116.6,141.39-152.43,226.08-8.13,19.23-15.39,38.72-21.76,58.45-22.81,70.45-34.34,143.89-34.34,219.1,0,96.08,18.82,189.29,55.94,277.04,35.85,84.75,87.17,160.87,152.53,226.23s141.48,116.68,226.23,152.53c87.75,37.12,180.96,55.93,277.04,55.93s189.29-18.82,277.04-55.93c84.75-35.85,160.87-87.17,226.23-152.53,65.36-65.36,116.68-141.48,152.53-226.23,37.12-87.75,55.93-180.96,55.93-277.04ZM1250.21,406.36c-11.28,3.5-22.4,7.57-33.36,12.2-42.76,18.09-81.16,43.98-114.14,76.95-3.44,3.44-6.79,6.96-10.07,10.52,10.04-32.16,15.43-65.54,16.11-99.67h141.47ZM1108.73,1092.52c-.74-34.28-6.27-67.8-16.46-100.09,3.4,3.69,6.87,7.34,10.44,10.91,32.98,32.98,71.38,58.87,114.14,76.95,10.98,4.65,22.14,8.72,33.44,12.23h-141.56ZM252.02,1092.52c10.12-3.25,20.13-6.94,30-11.11,42.76-18.09,81.16-43.98,114.14-76.95,3.71-3.71,7.31-7.49,10.84-11.33-10.06,32.08-15.5,65.36-16.24,99.4h-138.73ZM273.55,978.14c43.84-25.49,92.98-40.86,143.58-45.09l-252.2,145.61,2.53-4.38c28.18-38.99,64.4-71.89,106.09-96.14ZM390.74,406.36c.69,35.09,6.39,69.39,16.98,102.39-3.76-4.12-7.61-8.16-11.57-12.12-32.98-32.98-71.38-58.87-114.14-76.95-12.16-5.15-24.54-9.57-37.09-13.31h145.82ZM788.84,222.43c0,50.85-11.01,100.01-31.86,144.77V80.91l5.55,9.61c17.29,41.58,26.31,86.47,26.31,131.91ZM1226.95,520.59c-43.53,25.6-92.31,41.18-142.62,45.74l248.71-143.59-1.56,2.7c-27.82,38.47-63.47,71.01-104.53,95.16ZM1332.74,1078.16l.29.51-247.82-143.08c50.01,4.66,98.47,20.2,141.75,45.66,41.68,24.52,77.78,57.67,105.78,96.91ZM740.98,82.4v284.74c-20.17-44.15-30.81-92.5-30.81-142.49s10.58-97.83,30.81-142.25ZM1025.37,545.77l4.68,8.11-251.72-145.61c80.86,6.63,155.99,41.29,214,99.3,12.03,12.03,23.05,24.8,33.03,38.2ZM1092.83,750.17c0,49.08-10.25,96.58-29.71,140.08l-2.91,5.04-.24-289.6,5.03,8.71c18.24,42.32,27.83,88.31,27.83,135.78ZM992.34,992.77c-57.48,57.48-131.78,92.03-211.8,99.11l249.25-143.9-1.47,2.54c-10.75,14.88-22.75,29.02-35.98,42.25ZM946.77,583.79c-11.25,3.49-22.35,7.55-33.29,12.18-42.76,18.09-81.16,43.98-114.14,76.95-4.29,4.29-8.46,8.68-12.51,13.15,10.89-32.95,16.87-67.21,17.85-102.28h142.08ZM608.66,840.95l115.3-66.57c-10.65,14.69-22.52,28.65-35.6,41.73-19.72,19.72-41.42,36.72-64.64,50.86l-15.05-26.02ZM609.85,874.97c-39.74,21.7-83.49,35.29-129.19,39.88l114.14-65.9,15.05,26.02ZM694.27,583.79c.73,33.43,5.99,66.13,15.71,97.67-3.36-3.65-6.78-7.24-10.31-10.77-32.98-32.98-71.38-58.87-114.14-76.95-8.7-3.68-17.5-6.99-26.4-9.95h135.14ZM740.98,583.79v134.44c-19.09-41.78-29.64-87.31-30.72-134.44h30.72ZM710.27,567.79c1.07-47.16,11.62-92.73,30.72-134.53v134.53h-30.72ZM485.37,583.79c76.65,8.76,147.62,42.85,202.99,98.22,14.72,14.72,27.92,30.55,39.56,47.29l-252.03-145.51h9.48ZM710.17,926.83c0-49.99,10.64-98.34,30.81-142.49v284.97c-20.17-44.15-30.81-92.5-30.81-142.49ZM756.98,1069.37v-289.54c20.85,44.76,31.86,93.92,31.86,144.77s-11.01,100.01-31.86,144.77ZM992.34,641.68c-57.03,57.03-130.62,91.5-209.92,98.95l246.86-142.52c-10.99,15.37-23.31,29.95-36.94,43.58ZM774.5,726.73c10.8-14.97,22.85-29.19,36.16-42.5,56.73-56.73,129.83-91.15,208.65-98.84l-244.81,141.34ZM715.26,740.47c-78.62-7.79-151.52-42.18-208.12-98.78-13.18-13.18-25.14-27.26-35.85-42.08l243.97,140.86ZM699.67,827.43c4.29-4.29,8.46-8.68,12.51-13.15-11.95,36.16-18.01,73.89-18.01,112.55,0,25.75,2.71,51.08,8.03,75.82l-70.49-121.85c24.6-14.9,47.34-32.75,67.96-53.37ZM796.1,1003.74c5.8-25.79,8.74-52.24,8.74-79.14,0-36.23-5.31-71.65-15.81-105.71,3.36,3.65,6.78,7.24,10.31,10.77,20.28,20.28,42.62,37.87,66.75,52.62l-69.99,121.47ZM810.66,818.34c-13.91-13.91-26.46-28.8-37.62-44.52l116.72,67.39-15.69,27.23c-22.76-13.99-44.04-30.73-63.41-50.1ZM903.61,849.21l118.07,68.17c-47.39-4.3-92.75-18.24-133.79-40.89l15.72-27.28ZM1031.43,904.53l-119.83-69.18,16.25-28.2c23.17,14.12,44.82,31.09,64.49,50.76,14.52,14.52,27.57,30.13,39.1,46.62ZM897.75,827.35l-118.98-68.69c47.88,3.99,93.74,17.81,135.23,40.49l-16.25,28.2ZM889.51,769.65c-20.25-8.56-41.08-15.17-62.35-19.85,21.27-4.68,42.1-11.29,62.35-19.85,37.64-15.92,71.89-37.89,102.05-65.41l-69.61,120.8c-10.51-5.74-21.32-10.99-32.44-15.69ZM756.98,718.29v-134.5h31.69c-1.38,47.2-12.25,92.76-31.69,134.5ZM756.98,567.79v-139.04c20.07,43.08,31,90.23,31.79,139.04h-31.79ZM694.27,567.79h-149.82c13.92-3.98,27.63-8.8,41.09-14.49,42.76-18.09,81.16-43.98,114.14-76.95,4.29-4.29,8.46-8.68,12.51-13.15-11.12,33.67-17.14,68.72-17.91,104.6ZM609.96,729.95c20.25,8.56,41.08,15.17,62.35,19.85-21.27,4.68-42.1,11.29-62.35,19.85-11.39,4.82-22.47,10.21-33.22,16.12l-71.66-123.88c30.84,28.75,66.06,51.63,104.88,68.05ZM718.93,758.81l-118.28,68.29-15.93-27.53c41.17-22.65,86.68-36.56,134.21-40.76ZM586.79,835.1l-117.74,67.97c11.27-15.95,23.99-31.06,38.08-45.16,19.46-19.46,40.86-36.28,63.75-50.31l15.9,27.49ZM585.53,904.38c11.07-4.68,21.84-9.9,32.3-15.61l69.95,120.92c-30.2-27.61-64.53-49.65-102.25-65.6-20.25-8.56-41.08-15.17-62.35-19.85,21.27-4.68,42.1-11.29,62.35-19.85ZM879.94,890.3c10.86,5.98,22.04,11.44,33.54,16.3,20.25,8.56,41.08,15.17,62.35,19.85-21.27,4.68-42.1,11.29-62.35,19.85-38.96,16.48-74.28,39.45-105.2,68.34l71.65-124.35ZM1003.65,846.6c-20.58-20.58-43.28-38.4-67.83-53.29l70.18-121.8c-5.62,25.4-8.48,51.44-8.48,77.91,0,37.07,5.57,73.29,16.56,108.08-3.4-3.7-6.87-7.34-10.44-10.91ZM804.77,567.79c-.53-34.23-5.79-67.72-15.74-99.98,3.36,3.65,6.78,7.24,10.31,10.76,32.98,32.98,71.38,58.87,114.14,76.95,11.03,4.66,22.22,8.75,33.57,12.27h-142.28ZM688.35,465.03c-55.83,55.83-127.52,90.03-204.91,98.43l238.56-137.47c-10.14,13.71-21.37,26.76-33.65,39.04ZM562.89,793.79c-24.26,14.79-46.7,32.45-67.07,52.81-3.71,3.71-7.31,7.49-10.84,11.33,10.84-34.58,16.34-70.57,16.34-107.4,0-26.43-2.84-52.42-8.45-77.78l70.01,121.03ZM688.35,1032.35c14.33,14.33,27.23,29.71,38.65,45.96l-252.57-145.26c80.83,6.65,155.93,41.3,213.92,99.29ZM810.66,1034.57c56.64-56.64,129.59-91.03,208.26-98.8l-244.2,140.99c10.74-14.86,22.72-28.97,35.93-42.19ZM1013.53,749.43c0-49.68,10.51-97.73,30.43-141.66l.24,283.83c-20.08-44.07-30.67-92.3-30.67-142.18ZM810.66,467.25c-13.42-13.42-25.57-27.76-36.43-42.87l244.96,141.7c-78.77-7.72-151.82-42.13-208.53-98.83ZM507.14,507.57c57.89-57.89,132.83-92.52,213.49-99.25l-252.22,145.33c11.43-16.29,24.36-31.71,38.73-46.08ZM485.33,750.54c0,50.17-10.72,98.69-31.04,142.97l-.24-286.47c20.47,44.42,31.28,93.12,31.28,143.49ZM718.42,1091.83c-79.82-7.18-153.92-41.7-211.28-99.06-13.68-13.68-26.05-28.33-37.08-43.77l248.36,142.83ZM609.96,419.31c-37.7,15.95-72.01,37.97-102.21,65.56l45.32-78.5h92.72c-12.12,3.67-24.08,7.97-35.84,12.94ZM438.05,606.4l.24,288.06c-20.71-44.64-31.64-93.62-31.64-144.29s10.85-99.27,31.4-143.77ZM609.96,1081.04c10.24,4.33,20.63,8.14,31.15,11.48h-89.48l-45.19-78.27c30.51,28.16,65.27,50.6,103.52,66.78ZM889.51,1081.04c36.92-15.62,70.58-37.06,100.31-63.85l-43.49,75.33h-87.97c10.52-3.34,20.91-7.15,31.15-11.48ZM1101.15,824.38c5.09-24.22,7.68-49.02,7.68-74.2s-2.46-48.84-7.32-72.53l42.18,73.05-42.54,73.68ZM889.51,419.31c-11.76-4.97-23.72-9.28-35.84-12.94h91.21l43.7,75.69c-29.43-26.27-62.66-47.35-99.07-62.74ZM562.32,390.36l15.59-27c20.25,11.05,41.5,20.07,63.41,27h-79ZM543.84,390.36h-42.64c-.87-34.33-6.63-68.25-17.02-100.68,23.26,25.54,50.17,47.73,79.85,65.7l-20.19,34.97ZM534.61,406.36l-42.2,73.1c5.43-23.85,8.38-48.28,8.84-73.1h33.36ZM423.06,553.29l-250.24-144.47c80.1,7.03,154.48,41.59,212.02,99.13,14.15,14.15,26.91,29.32,38.22,45.35ZM398.87,673.47c-5.45,25.02-8.22,50.65-8.22,76.7s2.89,52.83,8.58,78.38l-44.95-77.85,44.59-77.23ZM384.84,993.14c-57.38,57.38-131.52,91.92-211.38,99.07l249.21-143.88c-11.21,15.83-23.84,30.82-37.83,44.81ZM533.16,1092.52h-31.93c-.54-23.74-3.38-47.11-8.46-69.96l40.39,69.96ZM542.39,1108.52l20.87,36.15c-29.23,17.8-55.74,39.7-78.73,64.86,10.31-32.55,15.97-66.58,16.7-101.01h41.16ZM560.87,1108.52h82.72c-23,7.1-45.28,16.52-66.47,28.15l-16.25-28.15ZM710.17,1277.17c0-49.99,10.64-98.34,30.81-142.49v284.74c-20.23-44.43-30.81-93.01-30.81-142.26ZM756.98,1419.47v-289.29c20.85,44.76,31.86,93.92,31.86,144.77s-10.96,99.49-31.86,144.52ZM937.1,1108.52l-15.89,27.51c-20.84-11.34-42.72-20.54-65.3-27.51h81.19ZM955.57,1108.52h42.08c.83,34.31,6.55,68.17,16.88,100.56-23.18-25.29-49.93-47.26-79.44-65.08l20.48-35.48ZM964.81,1092.52l41.44-71.77c-5.26,23.43-8.15,47.41-8.63,71.77h-32.81ZM1078.21,950.02l243.85,140.79c-78.59-7.81-151.46-42.19-208.04-98.78-13.16-13.16-25.1-27.22-35.81-42.01ZM1152.92,766.7l15.65,27.1c-19.86,12.22-38.49,26.37-55.75,42.37l40.11-69.46ZM1162.16,750.7l21.65-37.51c10.69,5.87,21.7,11.23,33.03,16.02,20.25,8.56,41.08,15.17,62.35,19.85-21.27,4.68-42.1,11.29-62.35,19.85-11.83,5-23.32,10.63-34.46,16.81l-20.22-35.03ZM1152.92,734.7l-44.21-76.58c18.8,17.96,39.28,33.69,61.25,47.07l-17.04,29.51ZM1075.12,553.17c11.48-16.39,24.46-31.89,38.9-46.34,57.83-57.83,132.66-92.44,213.23-99.23l-252.13,145.57ZM963.36,406.36h34.27c.56,26.03,3.9,51.61,9.93,76.55l-44.2-76.55ZM954.12,390.36l-19.8-34.3c29.51-17.72,56.29-39.59,79.51-64.78-9.96,31.97-15.45,65.34-16.2,99.09h-43.51ZM935.65,390.36h-77.49c21.5-6.79,42.36-15.61,62.26-26.37l15.23,26.37ZM702.52,147.52c-5.53,25.21-8.35,51.07-8.35,77.13,0,36.23,5.31,71.65,15.81,105.71-3.36-3.65-6.78-7.24-10.31-10.76-20.15-20.15-42.33-37.63-66.28-52.33l69.14-119.75ZM688.35,330.92c15.65,15.65,29.58,32.55,41.74,50.47,1.46,3.02,2.98,6.01,4.52,8.98h-7.06c-49.67-3.21-98.07-17.14-141.65-40.85l39.5-68.41c22.58,13.93,43.72,30.58,62.95,49.82ZM572.04,341.53c-45.4-27.54-83.96-65.41-112.35-110.23,2.06-.07,4.12-.17,6.18-.28,51.72,2.97,101.27,17.37,145.73,41.99l-39.56,68.51ZM446.17,240.16c24.25,46.23,37.64,97.71,39.03,150.21h-78.44c1.27-51.25,13.72-100.61,36.2-145.28,1.08-1.63,2.15-3.28,3.2-4.93ZM485.24,406.36c-1.03,52.61-13.84,103.25-37.18,148.93-.74,1.14-1.46,2.28-2.18,3.42-24.53-46.55-38.03-98.42-39.14-152.35h78.5ZM408.76,563.51c-47.49-5.13-93.51-20.1-134.82-44.05-41.18-23.87-77.05-56.19-105.12-94.48l239.94,138.53ZM345.04,734.7l-16.33-28.28c20.75-12.62,40.16-27.35,58.1-44.06l-41.77,72.35ZM335.8,750.7l-20.49,35.49c-10.78-5.93-21.88-11.33-33.3-16.17-20.25-8.56-41.08-15.17-62.35-19.85,21.27-4.68,42.1-11.29,62.35-19.85,11.26-4.76,22.2-10.08,32.84-15.91l20.95,36.29ZM345.04,766.7l40.45,70.07c-17.44-16.09-36.26-30.31-56.34-42.56l15.88-27.51ZM442.29,947.89c1.29-1.96,2.56-3.92,3.81-5.9.51.8,1.01,1.6,1.52,2.39l.91,1.58c22.83,45.01,35.46,94.83,36.69,146.56h-78.48c1.16-50.99,13.39-100.12,35.54-144.63ZM485.23,1108.52c-1.16,52.05-14.1,103.14-37.75,149.15-.49.76-.98,1.53-1.46,2.29-.41-.63-.81-1.27-1.22-1.9-23.73-45.8-36.85-96.67-38.05-149.54h78.48ZM461.34,1265.7c28.06-43.43,65.74-80.2,109.93-107.17l38.89,67.36c-45.64,24.98-96.58,39.24-149.69,41.47.29-.55.58-1.1.87-1.66ZM585.12,1150.53c45.61-24.97,96.53-39.22,148.68-41.63.48.02.95.03,1.43.05-13.32,20.82-28.98,40.36-46.88,58.26-19.63,19.63-41.24,36.57-64.35,50.68l-38.89-67.35ZM699.67,1178.52c4.16-4.16,8.2-8.4,12.13-12.73-11.69,35.8-17.63,73.14-17.63,111.39,0,25.81,2.78,51.45,8.22,76.46l-70.39-121.92c24.49-14.87,47.14-32.66,67.68-53.19ZM796.47,1352.09c5.53-25.23,8.37-51.1,8.37-77.14,0-35.84-5.21-70.89-15.48-104.63,3.26,3.53,6.58,7.01,9.99,10.42,20.06,20.06,42.13,37.47,65.96,52.13l-68.83,119.22ZM810.66,1169.43c-15.15-15.15-28.68-31.47-40.56-48.75-1.88-3.95-3.84-7.86-5.85-11.73.48-.02.95-.03,1.43-.05,51.73,2.39,102.22,16.42,147.54,41l-39.92,69.15c-22.46-13.89-43.48-30.47-62.63-49.62ZM927.09,1157.86c44.61,26.99,82.62,63.92,110.9,107.61.73,1.4,1.46,2.79,2.21,4.18-54.39-2.02-106.55-16.66-153.1-42.51l40-69.28ZM1051.81,1257.38c-23.76-45.91-36.84-96.83-38.15-148.86h79.07c-1.22,53.68-14.72,105.3-39.15,151.65-.59-.93-1.18-1.87-1.77-2.79ZM1013.62,1092.52c1.02-49.41,12.43-97.09,33.19-140.53,2.26-3.32,4.46-6.67,6.6-10.06,1.13,1.78,2.29,3.54,3.45,5.29,22.36,44.69,34.71,94.06,35.87,145.3h-79.11ZM1235.08,967.45c-32.51-19.13-67.82-32.91-104.51-40.97,21.31-4.68,42.18-11.3,62.46-19.88,10.89-4.61,21.5-9.73,31.81-15.34l68.81,119.19c-17.98-16.22-37.6-30.66-58.58-43ZM1069.24,918.45c-.72-.03-1.45-.06-2.17-.09,2.11-3.97,4.15-7.98,6.12-12.04,11.95-17.42,25.57-33.88,40.83-49.15,19.12-19.12,40.1-35.68,62.53-49.56l40.32,69.84c-45.07,24.52-95.28,38.61-147.63,40.99ZM1190.35,799.52c45.75-25.42,96.91-40.02,150.28-42.46,1.31.06,2.62.1,3.92.14-13.7,21.9-29.98,42.41-48.69,61.13-19.85,19.85-41.71,36.95-65.11,51.15l-40.4-69.97ZM1340.63,741.05c-52.82-2.41-103.46-16.73-148.84-41.66l38.46-66.62c23.59,14.26,45.62,31.47,65.61,51.46,17.47,17.47,32.81,36.51,45.92,56.78-.38.02-.77.03-1.15.04ZM1177.94,691.36c-22.95-14.05-44.41-30.91-63.92-50.42-17.2-17.2-32.32-35.91-45.3-55.82-.18-.35-.37-.69-.55-1.04,52.53,2.23,102.94,16.23,148.18,40.75l-38.41,66.53ZM1193.03,595.96c-20.83-8.81-42.28-15.55-64.2-20.25,37.31-8.01,73.21-21.91,106.23-41.34,20.78-12.22,40.23-26.51,58.08-42.54l-68.81,119.18c-10.15-5.5-20.59-10.52-31.3-15.05ZM1058.27,549.49c-1.81,2.7-3.58,5.43-5.32,8.18-.57-.9-1.15-1.78-1.73-2.67-23.44-45.57-36.39-96.11-37.59-148.64h79.11c-1.04,50.4-12.91,98.99-34.47,143.12ZM1013.64,390.36c1.16-49.8,13.11-98.74,34.9-143.15,1.59-2.38,3.15-4.78,4.68-7.2,1.14,1.81,2.29,3.62,3.46,5.41,22.37,44.58,34.77,93.82,36.04,144.94h-79.08ZM1034.67,239.16c-28.08,41.75-65.15,77.05-108.35,103.04l-38.72-67.06c45.74-25.29,96.87-39.79,150.19-42.14-1.06,2.04-2.1,4.09-3.12,6.15ZM912.42,350.13c-43.28,23.33-91.26,37.06-140.49,40.23h-7.48c13.17-20.43,28.61-39.62,46.21-57.22,19.29-19.29,40.48-35.97,63.13-49.93l38.63,66.91ZM799.34,321.83c-4.29,4.29-8.46,8.68-12.51,13.15,11.95-36.16,18.01-73.89,18.01-112.55,0-23.87-2.39-47.6-7.04-70.82l68,117.79c-24.02,14.72-46.26,32.24-66.46,52.44ZM619.56,259.22c-11.01-6.09-22.35-11.63-34.03-16.57-19.85-8.4-40.26-14.92-61.1-19.58,36.71-8.11,72.02-21.94,104.53-41.12,22.24-13.12,42.96-28.6,61.8-46.07l-71.21,123.34ZM390.76,390.36h-141.43c26.35-8.13,51.75-19.28,75.64-33.33,30.66-18.02,58.43-40.51,82.41-66.53-10.23,32.21-15.81,65.65-16.61,99.86ZM265.92,533.31c32.46,18.82,67.69,32.34,104.25,40.19-21.91,4.7-43.36,11.44-64.19,20.25-11.34,4.8-22.36,10.16-33.06,16.04l-71.99-124.69c19.74,18.41,41.54,34.63,64.99,48.22ZM432.51,581.79c-.74,1.39-1.48,2.78-2.2,4.18-13.01,20.01-28.19,38.81-45.47,56.08-19.57,19.57-41.09,36.46-64.11,50.53l-39.84-69.01c46.18-25.37,97.8-39.75,151.62-41.78ZM306.89,700.61c-45.34,24.87-95.92,39.16-148.66,41.56-1.03-.04-2.06-.08-3.09-.11,13.56-21.5,29.62-41.64,48.03-60.05,19.5-19.5,40.95-36.35,63.89-50.4l39.84,69ZM158.22,758.18c52.92,2.41,103.67,16.79,149.12,41.81l-38.9,67.38c-23.47-14.22-45.39-31.36-65.29-51.26-17.79-17.79-33.37-37.2-46.63-57.88.57-.02,1.13-.04,1.7-.06ZM321.18,808.03c22.85,14.02,44.22,30.82,63.66,50.26,17.25,17.25,32.41,36.03,45.41,56l.12.21c.29.56.59,1.11.88,1.67-.5.02-1,.04-1.5.06-52.27-2.38-102.41-16.43-147.43-40.89l38.86-67.3ZM305.98,904.38c20.29,8.58,41.16,15.2,62.48,19.88-36.11,7.94-70.89,21.4-102.96,40.05-21.36,12.42-41.35,27.01-59.65,43.46l68.49-118.63c10.25,5.57,20.8,10.66,31.63,15.24ZM390.75,1108.52c.75,34.86,6.46,68.92,16.99,101.71-24.3-26.44-52.5-49.25-83.65-67.44-25.1-14.66-51.87-26.14-79.64-34.27h146.3ZM585.53,1255.47c11.17-4.73,22.04-10,32.59-15.77l70.42,121.97c-18.43-16.8-38.62-31.71-60.23-44.39-33.35-19.58-69.65-33.54-107.35-41.47,22.04-4.7,43.62-11.47,64.56-20.33ZM879.12,1240.94c11.11,6.16,22.56,11.77,34.36,16.76,20.73,8.77,42.07,15.48,63.87,20.18-36.64,8.01-71.91,21.72-104.39,40.76-25.13,14.73-48.34,32.46-69.12,52.69l75.28-130.38ZM1108.73,1108.52h143.96c-26.71,8.14-52.46,19.39-76.66,33.61-31.55,18.53-60.05,41.78-84.5,68.76,10.66-32.99,16.44-67.27,17.2-102.36ZM1238.72,883.31c24.79-14.96,47.69-32.9,68.45-53.66,5.34-5.34,10.47-10.83,15.43-16.45-12.35,36.75-18.75,75.51-18.75,114.65,0,29.29,3.58,58.37,10.57,86.56l-75.7-131.11ZM1307.17,672.92c-20.89-20.89-43.97-38.93-68.95-53.95l79.32-137.38c-8.55,31.03-12.96,63.26-12.96,95.7,0,38.12,6.08,75.93,17.83,111.86-4.9-5.54-9.97-10.96-15.23-16.23ZM1108.72,390.36c-.8-33.82-6.26-66.9-16.27-98.78,23.82,26.07,51.44,48.64,81.97,66.79,22.23,13.21,45.77,23.91,70.17,31.99h-135.88ZM913.48,244.88c-11.62,4.91-22.9,10.42-33.85,16.47l-75.73-131.18c20.35,19.92,43.06,37.46,67.68,52.12,33.23,19.79,69.39,33.97,107,42.14-22.23,4.7-43.98,11.51-65.09,20.44ZM620.83,168.17c-41.99,24.77-88.88,40.2-137.33,45.4l240.34-138.76c-27.57,37.67-62.66,69.56-103.01,93.37ZM316.86,343.24c-41.6,24.45-88,39.75-135.95,45.02l238.87-137.91c-27.59,37.49-62.65,69.22-102.92,92.89ZM259.06,617.78c-24.32,14.81-46.81,32.5-67.22,52.91-5.11,5.11-10.04,10.37-14.81,15.75,12.18-36.52,18.49-75,18.49-113.87,0-27.28-3.11-54.36-9.17-80.71l72.71,125.93ZM191.84,827.43c20.8,20.8,43.77,38.78,68.62,53.76l-75.37,130.55c6.89-28.02,10.43-56.92,10.43-86.02,0-38.94-6.33-77.52-18.57-114.12,4.79,5.4,9.74,10.69,14.88,15.83ZM316.02,1156.61c41.26,24.09,77.12,56.66,105.1,95.21l-242.46-139.98c48.42,5.01,95.33,20.23,137.35,44.77ZM620.21,1331.07c41.7,24.48,77.83,57.6,105.86,96.82l-246.36-142.23c49.55,4.76,97.58,20.22,140.49,45.42ZM881.05,1332.44c40.85-23.94,86.32-39.07,133.32-44.55l-235.29,135.84c27.47-36.82,62.2-67.98,101.96-91.29ZM1184.13,1155.93c41.87-24.59,88.59-39.91,136.86-45.07l-240.49,138.85c27.71-37.88,63.03-69.93,103.63-93.78ZM1319.85,927.86c0-46.07,9.28-91.58,27.04-133.64v267.29c-17.76-42.06-27.04-87.59-27.04-133.65ZM1320.58,577.28c0-45.41,9.03-90.35,26.32-131.93v263.85c-17.29-41.58-26.32-86.52-26.32-131.93ZM1318.8,390.36c-48.09-5.45-94.56-20.99-136.21-45.74-40.04-23.8-74.84-55.54-102.2-92.99l240.29,138.73h-1.89ZM879.76,168.55c-39.16-23.32-73.28-54.25-100.33-90.68l236.5,136.54c-48.08-5.5-94.54-21.07-136.17-45.87ZM467.01,204.61c11.78-17.05,25.17-33.16,40.13-48.13,58.35-58.35,134.03-93.08,215.43-99.42l-255.56,147.55ZM161.8,380.83c12.07-17.71,25.87-34.42,41.36-49.91,58.87-58.87,135.36-93.7,217.58-99.59l-258.94,149.5ZM179.53,572.56c0,47.29-9.77,93.98-28.45,136.96v-273.91c18.69,42.98,28.45,89.66,28.45,136.96ZM179.53,925.72c0,47.27-9.77,93.97-28.45,136.95v-273.89c18.68,42.97,28.45,89.67,28.45,136.95ZM414.1,1266.24c-79.69-7.24-153.66-41.76-210.94-99.04-13.88-13.88-26.42-28.75-37.56-44.44l248.51,143.48ZM718.91,1442.22c-80.01-7.08-154.29-41.63-211.77-99.11-14.09-14.09-26.8-29.19-38.07-45.14l249.85,144.25ZM1031.42,1296.51c-11.52,16.48-24.57,32.08-39.09,46.6-57.9,57.9-132.87,92.54-213.55,99.26l252.64-145.86ZM1336.7,1120.26c-11.95,17.43-25.58,33.9-40.85,49.17-58.66,58.66-134.81,93.46-216.7,99.53l257.55-148.69ZM1362.89,778.69c21.89,45.66,33.45,96.01,33.45,148.14s-11.56,102.48-33.45,148.14v-296.28ZM1362.89,723.88v-296.28c21.89,45.66,33.45,96.01,33.45,148.14s-11.56,102.48-33.45,148.14ZM1335.37,380.36l-253.83-146.55c80.98,6.57,156.23,41.24,214.31,99.32,14.7,14.7,27.89,30.51,39.51,47.22ZM775.15,56.92c82.07,5.97,158.42,40.79,217.19,99.57,15.39,15.39,29.11,31.99,41.13,49.58L775.15,56.92ZM609.02,68.63c-42.38,18.07-80.46,43.81-113.19,76.54-20.99,20.99-39.1,44.19-54.16,69.31-47.03.52-92.66,9.97-135.68,28.17-25.7,10.87-49.82,24.58-72.14,40.94,7.83-8.65,15.9-17.13,24.2-25.44,63.9-63.9,138.3-114.06,221.15-149.1,42.09-17.8,85.46-31.29,129.83-40.41ZM135.07,427.56v291.91c-21.21-45.08-32.4-94.66-32.4-145.96s11.19-100.88,32.4-145.96ZM135.07,778.65v291.91c-21.21-45.08-32.4-94.66-32.4-145.96s11.19-100.88,32.4-145.96ZM305.98,1255.47c42.76,18.09,88.09,27.53,134.8,28.16,15.24,25.69,33.64,49.39,55.04,70.8,32.19,32.19,69.57,57.61,111.11,75.63-43.67-9.12-86.38-22.46-127.83-39.99-82.79-35.02-157.15-85.15-221-149.01-9.27-9.27-18.24-18.77-26.93-28.47,23.06,17.22,48.08,31.58,74.8,42.88ZM892.54,1430.06c41.54-18.02,78.92-43.44,111.11-75.63,20.79-20.79,38.75-43.73,53.73-68.57,47.02-.52,92.63-9.98,135.65-28.17,24.99-10.57,48.48-23.83,70.28-39.58-7.12,7.79-14.43,15.45-21.94,22.95-63.85,63.86-138.21,113.99-221,149.01-41.46,17.53-84.16,30.87-127.83,39.99ZM1384.12,787.05c-5.2-12.3-11.07-24.22-17.54-35.77,6.47-11.55,12.34-23.47,17.54-35.77,18.73-44.28,28.22-91.3,28.22-139.78,0-15.8-1.03-31.45-3.04-46.9,23.71,70.81,35.71,144.78,35.71,220.59s-11.76,148.3-35.01,218.47c1.54-13.55,2.34-27.25,2.34-41.07,0-48.47-9.5-95.5-28.22-139.78ZM1241.37,257.8c11.08,11.08,21.74,22.49,31.99,34.19-24.57-19.11-51.45-34.9-80.33-47.11-42.48-17.97-87.5-27.41-133.89-28.15-15.32-25.98-33.87-49.94-55.49-71.55-32.85-32.85-71.1-58.67-113.67-76.75,44.71,9.13,88.42,22.69,130.83,40.62,25.84,10.93,50.86,23.33,75,37.16,53.02,30.44,101.76,67.78,145.56,111.58ZM89.02,532.35c-1.54,13.58-2.35,27.31-2.35,41.16,0,48.47,9.5,95.5,28.22,139.78,5.2,12.3,11.07,24.22,17.54,35.77-6.47,11.55-12.34,23.47-17.54,35.77-18.73,44.28-28.22,91.3-28.22,139.78,0,14.24.84,28.34,2.47,42.29-23.02-69.86-34.68-142.77-34.68-217.47s11.21-144.85,33.37-213.5c.39-1.19.79-2.39,1.18-3.58Z"/></svg>