<?xml version="1.0" encoding="UTF-8"?><svg id="Layer_2" xmlns="http://www.w3.org/2000/svg" xmlns:xlink="http://www.w3.org/1999/xlink" viewBox="0 0 1500 1500"><defs><style>.cls-1{fill:url(#New_Gradient_Swatch_2);stroke-width:0px;}</style><linearGradient id="New_Gradient_Swatch_2" x1="107.11" y1="1121.18" x2="1392.9" y2="378.83" gradientUnits="userSpaceOnUse"><stop offset="0" stop-color="#56450d"/><stop offset=".21" stop-color="#e5c787"/><stop offset=".39" stop-color="#f7d976"/><stop offset=".99" stop-color="#725728"/></linearGradient></defs><path class="cls-1" d="M1392.89,378.82l-172.26-99.45-99.45-172.26h-198.91L750,7.66l-172.27,99.45h-198.9l-99.46,172.26-172.26,99.45v198.92L7.66,750l99.45,172.26v198.92l172.26,99.45,99.46,172.26h198.9l172.27,99.45,172.27-99.45h198.91l99.45-172.26,172.26-99.45v-198.91l99.45-172.27-99.45-172.27v-198.91ZM1376.89,388.06v161.95l-11.95-20.7h0l-99.15-171.73-22.42-38.84h0l-.61-1.05h0l-6.12-10.61,140.26,80.98ZM563.02,630.36l-4.39-2.54,8.79-5.07-4.39,7.61ZM919.45,640.48l-141.79,81.86,81.86-141.79,38,21.94,21.94,37.99ZM760.12,712.23v-163.74h43.89l37.99,21.93-81.88,141.8ZM739.88,712.23l-81.87-141.8,37.98-21.93h43.89v163.73ZM640.48,580.55l81.86,141.78-141.79-81.86,21.93-37.98,38-21.94ZM528.25,739.88h-5.1l5.1-8.83v8.83ZM528.25,760.12v8.83l-5.1-8.83h5.1ZM580.55,859.52l141.79-81.86-81.86,141.78-38-21.94-21.93-37.98ZM739.88,787.77v163.73h-43.89l-37.98-21.93,81.87-141.8ZM760.12,951.5v-163.74l81.88,141.8-37.99,21.93h-43.89ZM859.52,919.45l-81.86-141.79,141.79,81.86-21.94,37.99-38,21.94ZM971.76,760.12h5.09l-5.09,8.81v-8.81ZM971.76,739.88v-8.81l5.09,8.81h-5.09ZM570.43,658.01l141.81,81.88h-163.74v-43.89l20.66-35.78,1.27-2.21ZM548.5,804v-43.89h163.74l-141.81,81.88-1.93-3.34-20-34.65ZM567.41,877.25l-8.79-5.07,4.39-2.54,4.39,7.61ZM932.58,877.26l4.4-7.62,4.4,2.54-8.8,5.08ZM787.77,760.12h163.73v43.89l-21.93,37.99-141.8-81.87ZM951.5,739.88h-163.73l141.8-81.87,21.93,37.99v43.89ZM932.58,622.74l8.8,5.08-4.4,2.54-4.4-7.62ZM760.12,528.25v-5.1l8.84,5.1h-8.84ZM739.88,528.25h-8.83l8.83-5.1v5.1ZM739.88,971.75v5.1l-8.83-5.1h8.83ZM760.12,971.75h8.84l-8.84,5.1v-5.1ZM869.65,936.99l7.62-4.4-5.08,8.8-2.54-4.4ZM877.26,567.41l-7.62-4.4,2.54-4.4,5.08,8.8ZM630.36,563.02l-7.62,4.4,5.08-8.8,2.54,4.4ZM630.36,936.98l-2.54,4.4-5.08-8.8,7.62,4.4ZM852.12,552.9l-7.62-4.4h10.16l-2.54,4.4ZM647.89,552.9l-2.54-4.4h10.16l-7.62,4.4ZM552.9,647.88l-4.4,7.62v-10.17l4.4,2.54ZM552.9,852.12l-4.4,2.54v-10.17l4.4,7.62ZM647.89,947.1l7.62,4.4h-10.16l2.54-4.4ZM852.12,947.1l2.54,4.4h-10.16l7.62-4.4ZM947.11,852.11l4.4-7.62v10.16l-4.4-2.54ZM947.11,647.89l4.4-2.54v10.16l-4.4-7.62ZM971.76,610.27v-61.78h107.01l-107.01,61.78ZM951.5,610.27l-39.17-22.62-11.04-19.11-11.57-20.05h61.78v61.78ZM872.18,518.12l-30.9-53.51,92.7-53.52-61.8,107.03ZM854.66,528.25h-45.22l-39.19-22.62,53.51-30.89,30.9,53.52ZM760.12,488.1v-123.59l53.52,92.7-53.52,30.9ZM739.88,488.1l-53.51-30.9,53.51-92.69v123.59ZM729.76,505.63l-39.18,22.62h-45.22l30.9-53.52,53.51,30.89ZM627.82,518.12l-61.8-107.03,92.7,53.52-30.9,53.51ZM600.03,566.25l-12.37,21.42-39.17,22.61v-61.78h61.78l-10.25,17.75ZM528.25,610.28l-107.02-61.79h107.02v61.79ZM518.12,627.82l-53.51,30.89-53.51-92.69,107.02,61.79ZM528.25,645.34v45.22l-22.62,39.19-30.89-53.51,53.52-30.9ZM488.1,739.88h-123.59l92.7-53.52,30.9,53.52ZM488.1,760.12l-30.9,53.52-92.7-53.52h123.59ZM505.63,770.25l22.62,39.19v45.22l-53.52-30.9,30.89-53.51ZM518.12,872.18l-107.02,61.79,53.51-92.69,53.51,30.89ZM528.25,889.72v61.79h-107.02l107.02-61.79ZM548.5,889.72l39.17,22.61,12.37,21.42,10.25,17.75h-61.78v-61.78ZM627.82,981.88l30.9,53.51-92.7,53.52,61.8-107.03ZM645.35,971.75h45.22l39.18,22.62-53.51,30.89-30.9-53.52ZM739.88,1011.9v123.59l-53.51-92.69,53.51-30.9ZM760.12,1011.9l53.52,30.9-53.52,92.69v-123.59ZM770.25,994.37l39.19-22.62h45.22l-30.9,53.52-53.51-30.89ZM872.18,981.88l61.8,107.03-92.7-53.52,30.9-53.51ZM901.3,931.46l11.04-19.11,39.17-22.62v61.78h-61.78l11.57-20.05ZM971.76,889.73l107.01,61.78h-107.01v-61.78ZM981.89,872.18l53.51-30.89,53.51,92.69-107.02-61.8ZM971.76,854.65v-45.24l22.62-39.18,30.9,53.51-53.51,30.9ZM1011.9,760.12h123.59l-92.7,53.52-30.9-53.52ZM1011.9,739.88l30.9-53.52,92.7,53.52h-123.59ZM994.37,729.76l-22.62-39.18v-45.24l53.51,30.9-30.9,53.51ZM981.89,627.82l107.02-61.8-53.51,92.69-53.51-30.89ZM889.72,528.25l61.79-107.02v107.02h-61.79ZM610.28,528.25h-61.79v-107.02l61.79,107.02ZM610.28,971.75l-61.79,107.02v-107.02h61.79ZM889.72,971.75h61.79v107.02l-61.79-107.02ZM1100.25,528.25h-128.49v-128.5l81.46,47.03,47.04,81.47ZM942.46,382.83l-111.29,64.25-64.25-111.28h94.08l81.47,47.03ZM733.08,335.8l-64.25,111.28-111.28-64.25,81.46-47.03h94.07ZM528.25,399.76v128.5h-128.5l47.03-81.46,81.47-47.03ZM382.84,557.54l64.25,111.29-111.28,64.25v-94.07l47.03-81.47ZM335.8,766.92l111.28,64.25-64.25,111.29-47.03-81.47v-94.07ZM399.75,971.75h128.5v128.5l-81.47-47.03-47.03-81.46ZM557.55,1117.17l111.28-64.25,64.25,111.28h-94.07l-81.46-47.03ZM766.92,1164.2l64.25-111.28,111.29,64.25-81.46,47.03h-94.08ZM971.76,1100.24v-128.5h128.49l-47.04,81.47-81.46,47.03ZM1117.16,942.46l-64.25-111.28,111.28-64.25v94.07l-47.03,81.47ZM1164.2,733.08l-111.28-64.25,64.25-111.28,47.03,81.47v94.07ZM1131.03,545.31h33.17v57.45l-33.17-57.45ZM1152.48,529.31l11.72-6.76v6.76h-11.72ZM1142.39,511.76l5.84-10.12,5.84,3.37-11.69,6.75ZM1117.78,522.39l-33.18-57.48,49.78,28.74-16.59,28.74ZM977.61,382.22l28.74-16.59,28.74,49.78-57.48-33.18ZM988.24,357.61l6.75-11.69,3.37,5.84-10.12,5.84ZM970.69,347.52v-11.72h6.77l-6.77,11.72ZM954.69,368.97l-57.45-33.17h57.45v33.17ZM763.24,317.69l16.6-28.74,49.79,28.74h-66.38ZM760.12,291.09v-13.53l5.86,3.38-5.86,10.15ZM739.88,291.09l-5.86-10.15,5.86-3.38v13.53ZM736.76,317.69h-66.38l49.78-28.74,16.59,28.74ZM545.31,368.97v-33.17h57.46l-57.46,33.17ZM529.31,347.52l-6.76-11.72h6.76v11.72ZM522.39,382.22l-57.49,33.19,28.74-49.78,28.75,16.6ZM501.64,351.77l3.37-5.84,6.75,11.69-10.12-5.84ZM382.23,522.38l-16.59-28.74,49.77-28.73-33.18,57.47ZM357.63,511.77l-11.7-6.75,5.85-3.38,5.85,10.13ZM368.98,545.31l-33.18,57.47v-57.47h33.18ZM335.8,529.31v-6.77l11.72,6.77h-11.72ZM317.69,736.76l-28.74-16.59,28.74-49.78v66.38ZM291.09,739.88h-13.53l3.38-5.86,10.15,5.86ZM291.09,760.12l-10.15,5.86-3.38-5.86h13.53ZM317.69,763.24v66.38l-28.74-49.78,28.74-16.59ZM368.98,954.69h-33.18v-57.47l33.18,57.47ZM347.52,970.69l-11.72,6.77v-6.77h11.72ZM357.63,988.23l-5.85,10.13-5.85-3.38,11.7-6.75ZM382.23,977.62l33.18,57.47-49.77-28.73,16.59-28.74ZM522.39,1117.78l-28.75,16.6-28.74-49.78,57.49,33.19ZM511.76,1142.39l-6.75,11.69-3.37-5.84,10.12-5.84ZM545.31,1131.03l57.46,33.17h-57.46v-33.17ZM529.31,1164.2h-6.76l6.76-11.72v11.72ZM736.76,1182.31l-16.59,28.74-49.78-28.74h66.38ZM739.88,1208.91v13.53l-5.86-3.38,5.86-10.15ZM763.24,1182.31h66.38l-49.79,28.74-16.6-28.74ZM765.98,1219.06l-5.86,3.38v-13.53l5.86,10.15ZM954.69,1131.03v33.17h-57.45l57.45-33.17ZM970.69,1152.48l6.77,11.72h-6.77v-11.72ZM988.24,1142.39l10.12,5.84-3.37,5.84-6.75-11.69ZM977.61,1117.78l57.48-33.18-28.74,49.78-28.74-16.59ZM1117.78,977.61l16.59,28.74-49.78,28.74,33.18-57.48ZM1142.39,988.24l11.69,6.75-5.84,3.37-5.84-10.12ZM1131.03,954.69l33.17-57.45v57.45h-33.17ZM1164.2,970.69v6.76l-11.71-6.76h11.71ZM1182.31,763.24l28.74,16.59-28.74,49.78v-66.38ZM1208.91,760.12h13.53l-3.38,5.86-10.15-5.86ZM1208.91,739.88l10.15-5.86,3.38,5.86h-13.53ZM1182.31,736.76v-66.38l28.74,49.78-28.74,16.59ZM1182.31,520.09l15.96,9.22h-15.96v-9.22ZM1157.29,485.95l7.97-13.8v18.4l-7.97-4.6ZM1143.44,477.95l-76.96-44.43-44.43-76.96,37.8-21.82h105.4v105.4l-21.82,37.8ZM1014.05,342.71l-4.6-7.97h18.4l-13.8,7.97ZM970.69,317.69v-15.96l9.22,15.96h-9.22ZM954.69,317.69h-88.82l-76.97-44.44,21.83-37.81,91.27-52.69,52.7,91.27v43.68ZM775.04,265.25l-7.98-4.6,15.95-9.21-7.98,13.81ZM724.97,265.25l-7.98-13.82,15.96,9.21-7.98,4.61ZM711.11,273.25l-76.97,44.44h-88.83v-43.66l52.7-91.29,91.27,52.69,21.84,37.82ZM529.31,317.69h-9.21l9.21-15.95v15.95ZM485.95,342.71l-13.8-7.97h18.4l-4.6,7.97ZM477.95,356.56l-44.43,76.96-76.95,44.42-21.83-37.81v-105.39h105.4l37.8,21.82ZM342.71,485.94l-7.97,4.6v-18.41l7.97,13.81ZM317.69,529.31h-15.96l15.96-9.22v9.22ZM317.69,545.31v88.84l-44.44,76.96-37.81-21.83-52.7-91.27,91.27-52.7h43.68ZM265.25,724.96l-4.6,7.97-9.21-15.95,13.81,7.97ZM265.25,775.04l-13.81,7.97,9.21-15.95,4.6,7.97ZM273.25,788.89l44.44,76.96v88.84h-43.68l-91.27-52.7,52.7-91.27,37.81-21.83ZM317.69,970.69v9.22l-15.96-9.22h15.96ZM342.71,1014.06l-7.97,13.81v-18.41l7.97,4.6ZM356.57,1022.06l76.95,44.42,44.43,76.96-37.8,21.82h-105.4v-105.39l21.83-37.81ZM485.95,1157.29l4.6,7.97h-18.4l13.8-7.97ZM529.31,1182.31v15.95l-9.21-15.95h9.21ZM545.31,1182.31h88.83l76.97,44.44-21.84,37.82-91.27,52.69-52.7-91.29v-43.66ZM724.97,1234.75l7.98,4.61-15.96,9.21,7.98-13.82ZM775.04,1234.75l7.98,13.81-15.95-9.21,7.98-4.6ZM788.89,1226.75l76.97-44.44h88.82v43.68l-52.7,91.27-91.27-52.69-21.83-37.81ZM970.69,1182.31h9.22l-9.22,15.96v-15.96ZM1014.05,1157.29l13.8,7.97h-18.4l4.6-7.97ZM1022.05,1143.44l44.43-76.96,76.96-44.43,21.82,37.8v105.4h-105.4l-37.8-21.82ZM1157.29,1014.05l7.97-4.6v18.4l-7.97-13.8ZM1182.31,970.69h15.96l-15.96,9.22v-9.22ZM1182.31,954.69v-88.83l44.44-76.97,37.82,21.84,52.69,91.26-91.27,52.7h-43.68ZM1234.75,775.04l4.61-7.98,9.21,15.96-13.82-7.98ZM1234.75,724.96l13.82-7.98-9.22,15.96-4.61-7.98ZM1226.75,711.11l-44.44-76.97v-88.83h43.68l91.27,52.7-52.69,91.26-37.82,21.84ZM1325.79,583.23l-65.68-37.92h87.58l-21.89,37.92ZM1182.31,334.74h43.8l-43.8,75.87v-75.87ZM1165.26,317.69h-75.87l75.87-43.8v43.8ZM916.77,174.21l37.92-21.89v87.57l-37.92-65.68ZM827.79,205.89l43.79-75.84,21.89,37.92-65.68,37.92ZM606.54,167.97l21.89-37.92,43.79,75.85-65.68-37.92ZM583.23,174.21l-37.92,65.69v-87.58l37.92,21.89ZM334.74,317.69v-43.8l75.87,43.8h-75.87ZM317.69,334.74v75.86l-43.8-75.86h43.8ZM174.21,583.23l-21.89-37.92h87.58l-65.68,37.92ZM167.97,606.53l37.92,65.68-75.84-43.79,37.92-21.89ZM167.97,893.47l-37.92-21.89,75.84-43.79-37.92,65.68ZM174.21,916.77l65.68,37.92h-87.58l21.89-37.92ZM317.69,1165.26h-43.8l43.8-75.86v75.86ZM334.74,1182.31h75.87l-75.87,43.8v-43.8ZM583.23,1325.79l-37.92,21.89v-87.58l37.92,65.69ZM672.22,1294.11l-43.79,75.85-21.89-37.92,65.68-37.92ZM893.47,1332.03l-21.89,37.92-43.79-75.84,65.68,37.92ZM916.77,1325.79l37.92-65.68v87.57l-37.92-21.89ZM1165.26,1182.31v43.8l-75.87-43.8h75.87ZM1182.31,1165.26v-75.87l43.8,75.87h-43.8ZM1325.79,916.77l21.89,37.92h-87.58l65.68-37.92ZM1332.03,893.47l-37.92-65.68,75.84,43.79-37.92,21.89ZM1332.03,606.53l37.92,21.89-75.84,43.79,37.92-65.68ZM1346.45,529.31h-114.05l-50.08-28.91v-57.79l57.04-98.81,15.75,27.28,91.34,158.23ZM1182.31,317.69v-41.97l26.61,15.36,15.36,26.61h-41.97ZM1156.2,260.64l-98.81,57.04h-57.79l-28.91-50.08v-114.05l175.34,101.22,10.16,5.87ZM908.25,159.44l-20.97-36.33h30.71l26.6,15.35-36.34,20.98ZM800.07,221.89l-50.07,28.91-50.07-28.91-57.03-98.78h214.2l-57.03,98.78ZM591.76,159.44l-36.33-20.98,26.59-15.35h30.71l-20.97,36.33ZM529.31,153.56v114.05l-28.91,50.08h-57.79l-98.81-57.04,13.04-7.53,172.47-99.56ZM317.69,317.69h-41.97l15.36-26.61,26.6-15.36v41.97ZM260.65,343.81l57.04,98.79v57.79l-50.08,28.91h-114.05l55.43-96.01,51.67-89.48ZM138.47,555.43l20.97,36.33-36.33,20.97v-30.7l15.36-26.6ZM221.89,699.93l28.91,50.07-28.91,50.07-98.78,57.03v-214.21l98.78,57.03ZM159.44,908.25l-20.97,36.33-15.36-26.6v-30.7l36.33,20.97ZM153.55,970.69h114.05l50.08,28.91v57.79l-57.04,98.79-51.59-89.34-55.51-96.16ZM317.69,1182.31v41.97l-26.6-15.36-15.36-26.61h41.97ZM343.8,1239.36l98.81-57.04h57.79l28.91,50.08v114.05l-172.54-99.6-12.97-7.49ZM591.76,1340.56l20.97,36.33h-30.71l-26.59-15.35,36.33-20.98ZM699.93,1278.11l50.07-28.91,50.07,28.91,57.03,98.78h-214.2l57.03-98.78ZM908.25,1340.56l36.34,20.98-26.6,15.35h-30.71l20.97-36.33ZM970.69,1346.45v-114.05l28.91-50.08h57.79l98.81,57.04-10.16,5.87-175.35,101.22ZM1182.31,1182.31h41.97l-15.36,26.61-26.61,15.36v-41.97ZM1239.36,1156.2l-57.04-98.81v-57.79l50.08-28.91h114.05l-91.65,158.77-15.44,26.74ZM1361.54,944.58l-20.98-36.34,36.33-20.97v30.71l-15.35,26.6ZM1278.11,800.07l-28.91-50.07,28.91-50.07,98.78-57.03v214.21l-98.78-57.03ZM1340.56,591.75l20.98-36.34,15.35,26.6v30.71l-36.33-20.97ZM1111.94,123.11l80.98,140.26-10.61-6.12h0l-1.05-.61h0s-27.74-16.02-27.74-16.02l-191.88-110.79h0s-11.65-6.72-11.65-6.72h161.95ZM750,26.13l140.27,80.98h-280.54l140.27-80.98ZM388.07,123.11h161.94l-20.7,11.95h0s-180.01,103.94-180.01,103.94l-30.55,17.64h0s-1.05.61-1.05.61h0s-10.6,6.12-10.6,6.12l80.98-140.26ZM123.11,388.06l140.26-80.98-6.73,11.66h0l-61.12,105.88-65.68,113.75h0s-6.73,11.66-6.73,11.66v-161.97ZM26.13,750l80.98-140.26v280.52l-80.98-140.26ZM123.11,1111.94v-161.97l6.73,11.65h0s65.91,114.16,65.91,114.16l60.89,105.47h0l6.73,11.66-140.26-80.98ZM388.07,1376.89l-80.98-140.26,11.65,6.73h0s31.13,17.97,31.13,17.97l179.44,103.6h0s20.7,11.96,20.7,11.96h-161.94ZM750,1473.87l-140.27-80.98h280.54l-140.27,80.98ZM1111.94,1376.89h-161.95l11.65-6.72h0s191.89-110.79,191.89-110.79l27.73-16.01h0s1.05-.61,1.05-.61h0l10.61-6.12-80.98,140.26ZM1376.89,1111.94l-140.26,80.98,6.12-10.61h0l.61-1.05h0l22.09-38.26,99.48-172.3h0l11.95-20.7v161.95ZM1473.87,750l-80.97,140.27v-280.54l80.97,140.27Z"/></svg>