<?xml version="1.0" encoding="UTF-8"?><svg id="Layer_2" xmlns="http://www.w3.org/2000/svg" xmlns:xlink="http://www.w3.org/1999/xlink" viewBox="0 0 1500 1500"><defs><style>.cls-1{fill:url(#New_Gradient_Swatch_2);stroke-width:0px;}</style><linearGradient id="New_Gradient_Swatch_2" x1="12.22" y1="1386.95" x2="1122.43" y2="745.97" gradientUnits="userSpaceOnUse"><stop offset="0" stop-color="#56450d"/><stop offset=".21" stop-color="#e5c787"/><stop offset=".39" stop-color="#f7d976"/><stop offset=".99" stop-color="#725728"/></linearGradient></defs><path class="cls-1" d="M1486.43,1376.66L756.93,113.13c-1.43-2.48-4.07-4-6.93-4s-5.5,1.52-6.93,4L13.57,1376.67l-1.21,1.89c-1.68,2.63-1.69,6,0,8.63,1.68,2.63,4.74,4.04,7.83,3.61l1.88-.26,727.93-99.67,727.92,99.66,1.89.26c.37.05.73.08,1.1.08,2.7,0,5.25-1.37,6.74-3.69,1.68-2.63,1.68-6,0-8.63l-1.21-1.89ZM1354.74,1255.36l-44.56-41.19,6.49-.89,38.07,42.08ZM1335.87,1210.65l3.1-.42,18.86,24.69-21.96-24.27ZM1294.96,1200.11l-195.95-181.12,31.9-11,172.75,190.93-8.7,1.19ZM1085.68,1006.66l-131.15-121.23,43.96-23.8,120.76,133.46-33.56,11.57ZM942.11,873.96l-98.04-90.62,50.09-37,93.27,103.08-45.32,24.54ZM832.12,772.29l-70.33-65.01,52.84-48.84,68.75,75.98-51.26,37.87ZM826.38,647.57l48.53-44.86,67.37,88.19-45.96,33.96-69.93-77.29ZM815.64,635.71l-54.85-60.62,50.44-55.74,53.93,70.6-49.51,45.77ZM803.89,646.57l-53.89,49.81-53.89-49.81,53.89-59.56,53.89,59.56ZM183.33,1213.28l6.49.89-44.56,41.19,38.07-42.08ZM142.17,1234.92l18.86-24.69,3.1.42-21.96,24.27ZM196.33,1198.91l172.75-190.93,31.9,11-195.95,181.12-8.7-1.19ZM380.76,995.09l120.76-133.46,43.96,23.8-131.15,121.23-33.56-11.57ZM512.56,849.42l93.27-103.08,50.09,37-98.04,90.62-45.32-24.54ZM616.62,734.42l68.75-75.98,52.84,48.84-70.33,65.01-51.26-37.87ZM684.36,635.71l-49.51-45.77,53.93-70.6,50.44,55.74-54.85,60.62ZM673.62,647.57l-69.93,77.29-45.96-33.96,67.37-88.19,48.53,44.86ZM592.9,736.79l-94.82,104.79-39.22-21.24,89.15-116.71,44.89,33.16ZM487.03,853.79l-122.72,135.63-27.39-9.44,112.11-146.77,38.01,20.58ZM352.64,1002.32l-175.51,193.97-4.93-.68,154.48-202.24,25.95,8.95ZM210.35,1216.98l16.73,2.29-95.67,70.68,78.94-72.97ZM225.57,1202.92l192.59-178.01,49.1,16.93-221.74,163.81-19.95-2.73ZM431.49,1012.58l128.85-119.1,62.17,33.66-139.63,103.15-51.39-17.72ZM572.75,882.01l96.27-88.99,67.52,49.88-99.82,73.75-63.96-34.64ZM680.98,781.97l69.02-63.79,69.02,63.79-69.02,50.99-69.02-50.99ZM830.98,793.02l96.27,88.99-63.96,34.64-99.82-73.75,67.52-49.88ZM939.66,893.48l128.85,119.1-51.39,17.72-139.63-103.15,62.17-33.66ZM1081.85,1024.91l192.59,178.01-19.95,2.73-221.74-163.81,49.1-16.93ZM1289.65,1216.98l78.94,72.97-95.67-70.68,16.73-2.29ZM1322.87,1196.29l-175.51-193.97,25.95-8.95,154.48,202.24-4.93.68ZM1135.69,989.42l-122.72-135.63,38.01-20.58,112.11,146.77-27.39,9.44ZM1001.92,841.58l-94.82-104.79,44.89-33.16,89.15,116.71-39.22,21.24ZM964.86,694.11l34.28-25.33,84.86,128.34-28.62,15.5-90.52-118.51ZM955.15,681.4l-68.44-89.59,38.19-35.3,65.41,98.92-35.16,25.98ZM876.96,579.03l-54.81-71.76,40.56-44.83,53.25,80.54-39,36.05ZM812.27,494.35l-52.2-68.34,42.1-55.12,51.43,77.78-41.33,45.68ZM801.35,506.41l-51.35,56.75-51.35-56.75,51.35-67.22,51.35,67.22ZM687.73,494.35l-41.33-45.68,51.43-77.78,42.1,55.12-52.2,68.34ZM677.86,507.28l-54.81,71.76-39-36.05,53.25-80.54,40.56,44.83ZM613.29,591.81l-68.44,89.59-35.16-25.98,65.41-98.92,38.19,35.3ZM535.14,694.11l-90.52,118.51-28.62-15.5,84.86-128.34,34.28,25.33ZM434.78,825.49l-113.8,148.98-18.12-6.25,104.28-157.71,27.65,14.97ZM310.75,987.87l-155.42,203.46,138.41-209.33,17.01,5.86ZM249.79,1222.38l39.01,5.34-173.17,93.77,134.16-99.12ZM268.24,1208.76l217.38-160.59,82.35,28.39-255.36,138.27-44.38-6.08ZM501.23,1036.63l136.81-101.07,95.16,51.53-146.14,79.13-85.83-29.59ZM652.25,925.06l97.75-72.21,97.75,72.21-97.75,52.93-97.75-52.93ZM861.96,935.56l136.81,101.07-85.83,29.59-146.14-79.13,95.16-51.53ZM1014.39,1048.17l217.38,160.59-44.38,6.08-255.36-138.27,82.35-28.39ZM1250.21,1222.38l134.16,99.12-173.17-93.77,39.01-5.34ZM1189.25,987.87l17-5.86,138.41,209.33-155.42-203.46ZM1179.02,974.48l-113.8-148.98,27.65-14.97,104.28,157.71-18.12,6.25ZM1106.99,802.88l22.62-12.25,96.73,167.54-13.57,4.68-105.77-159.97ZM1098.13,789.48l-86.1-130.21,29.26-21.61,80.32,139.11-23.47,12.71ZM1003.19,645.9l-66.39-100.4,33.43-30.9,62.99,109.11-30.04,22.19ZM927.86,531.98l-54.08-81.78,36.18-39.99,52.07,90.18-34.17,31.59ZM864.68,436.42l-52.23-78.99,38.19-49.99,50.93,88.21-36.89,40.77ZM803.11,343.3l-43.52-65.81,39.37-59.55,43.01,74.49-38.86,50.88ZM792.83,356.76l-42.83,56.07-42.83-56.07,42.83-64.77,42.83,64.77ZM696.89,343.3l-38.86-50.88,43-74.49,39.38,59.55-43.52,65.81ZM687.55,357.43l-52.23,78.99-36.89-40.77,50.93-88.21,38.19,49.99ZM626.21,450.2l-54.08,81.78-34.17-31.59,52.07-90.18,36.18,39.99ZM563.19,545.5l-66.39,100.4-30.04-22.19,62.99-109.11,33.43,30.9ZM487.97,659.27l-86.1,130.21-23.47-12.71,80.32-139.11,29.26,21.61ZM393.01,802.88l-105.77,159.97-13.57-4.68,96.73-167.54,22.62,12.25ZM278.12,976.62l-119.16,180.22,106.56-184.56,12.61,4.35ZM315.63,1231.4l84.64,11.59-291.9,100.64,207.26-112.23ZM339.43,1218.51l249.06-134.87,136.96,47.22-291.67,100.56-94.36-12.92ZM607.59,1073.3l142.41-77.11,142.41,77.11-142.41,49.1-142.41-49.1ZM911.5,1083.64l249.06,134.87-94.36,12.92-291.67-100.56,136.96-47.22ZM1184.37,1231.4l207.26,112.23-291.9-100.64,84.64-11.59ZM1221.88,976.62l12.61-4.35,106.56,184.56-119.16-180.22ZM750,133.13l40.02,69.32-40.02,60.53-40.02-60.53,40.02-69.32ZM98.66,1363.9l336.74-116.1,255.63,35-592.37,81.1ZM468.92,1236.24l281.08-96.91,281.08,96.91-281.08,38.48-281.08-38.48ZM1064.6,1247.79l336.74,116.1-592.37-81.1,255.63-35Z"/></svg>