<?xml version="1.0" encoding="UTF-8"?><svg id="Layer_2" xmlns="http://www.w3.org/2000/svg" xmlns:xlink="http://www.w3.org/1999/xlink" viewBox="0 0 1500 1500"><defs><style>.cls-1{fill:url(#New_Gradient_Swatch_2);stroke-width:0px;}</style><linearGradient id="New_Gradient_Swatch_2" x1="94.68" y1="1128.35" x2="1405.31" y2="371.65" gradientUnits="userSpaceOnUse"><stop offset="0" stop-color="#56450d"/><stop offset=".21" stop-color="#e5c787"/><stop offset=".39" stop-color="#f7d976"/><stop offset=".99" stop-color="#725728"/></linearGradient></defs><path class="cls-1" d="M1496.54,744.14l-97.09-168.16v-194.18l5.86-10.14h-11.71l-168.16-97.08-97.1-168.18v-11.71l-10.14,5.86h-194.21L755.85,3.46l-5.86-10.14-5.86,10.14-168.14,97.08h-194.2l-10.14-5.86v11.71l-97.09,168.17-168.17,97.09h-11.71l5.86,10.14v194.2L3.46,744.14l-10.14,5.86,10.14,5.86,97.08,168.14v194.21l-5.86,10.14h11.71l168.18,97.1,97.08,168.16v11.71l10.14-5.86h194.18l168.16,97.09,5.86,10.14,5.86-10.14,168.16-97.09h194.19l10.14,5.86v-11.71l97.09-168.16,168.17-97.09h11.71l-5.86-10.14v-194.19l97.09-168.16,10.14-5.86-10.14-5.86ZM1272.25,1112.35h-132.61l150.86-150.86,34.42,59.62-52.67,91.24ZM1334.16,1037.11l43.44,75.24h-86.88l43.44-75.24ZM1112.35,1377.6l-75.24-43.44,75.24-43.44v86.88ZM1021.11,1324.92l-59.62-34.42,150.86-150.86v132.61l-91.24,52.67ZM387.66,1290.73l75.23,43.43-75.23,43.44v-86.87ZM387.66,1272.25v-132.61l150.85,150.85-59.62,34.42-91.23-52.67ZM175.07,1021.1l34.42-59.62,150.86,150.86h-132.6l-52.68-91.25ZM209.28,1112.35h-86.89l43.44-75.25,43.44,75.25ZM227.75,387.65h132.6l-150.85,150.85-34.42-59.61,52.68-91.24ZM165.83,462.89l-43.44-75.24h86.88l-43.44,75.24ZM387.66,122.39l75.24,43.44-75.24,43.44v-86.88ZM478.89,175.07l59.61,34.42-150.85,150.85v-132.6l91.24-52.68ZM1112.35,209.28l-75.25-43.44,75.25-43.44v86.88ZM1112.35,227.75v132.6l-150.86-150.86,59.61-34.42,91.25,52.68ZM1324.93,478.89l-34.42,59.62-150.85-150.85h132.6l52.67,91.23ZM1290.73,387.65h86.87l-43.44,75.23-43.43-75.23ZM749.99,1474.69l-43.43-75.23h86.87l-43.43,75.23ZM697.32,1383.46l-71.95-124.63,124.63-71.96,124.63,71.95-71.96,124.63h-105.34ZM116.53,697.33l124.63-71.96,71.95,124.62-71.95,124.62-124.63-71.96v-105.33ZM100.53,793.42l-75.22-43.43,75.22-43.43v86.86ZM793.42,100.54h-86.86l43.43-75.22,43.43,75.22ZM802.66,116.54l71.96,124.63-124.62,71.95-124.63-71.95,71.96-124.63h105.33ZM388.74,764.48l97.38,56.22-55.93,96.87-12.43-23.01-19.63-58.22-9.54-60.73.16-11.13ZM591.49,424.19l57.34-22.09,60.25-12.1,26.14-.74-55.92,96.85-97.37-56.21,9.56-5.71ZM702.52,927.17l-75.05-43.33,122.53-122.53h0s0,0,0,0l122.53,122.53-75.05,43.33h-94.96ZM769.77,943.17l-19.77,11.41-19.77-11.41h39.54ZM797.48,572.83l75.05,43.33-81.76,81.76-40.77,40.77h0l-122.53-122.53,75.05-43.33h94.96ZM730.23,556.83l19.77-11.41,19.77,11.41h-39.54ZM887.27,601.41l-16.5-28.59h45.09l-28.59,28.59ZM863.69,592.58l-34.21-19.75h22.81l11.4,19.75ZM636.3,592.58l11.41-19.76h22.81l-34.22,19.76ZM612.72,601.41l-28.58-28.58h45.09l-16.5,28.58ZM601.41,612.72l-28.59,16.5v-45.09l28.59,28.59ZM592.58,636.3l-19.76,34.22v-22.81l19.76-11.41ZM616.16,627.47l122.53,122.53-122.53,122.53-43.33-75.05v-94.96l43.33-75.05ZM592.58,863.69l-19.75-11.4v-22.81l19.75,34.21ZM601.41,887.27l-28.59,28.59v-45.09l28.59,16.5ZM612.72,898.58l16.5,28.58h-45.08l28.58-28.58ZM636.29,907.4l34.23,19.76h-22.82l-11.41-19.76ZM863.7,907.41l-11.41,19.76h-22.81l34.22-19.76ZM887.27,898.58l28.58,28.58h-45.09l16.5-28.58ZM898.58,887.27l28.58-16.5v45.08l-28.58-28.58ZM907.41,863.7l19.76-34.22v22.81l-19.76,11.41ZM883.84,872.52l-122.53-122.53,119.68-119.68,2.85-2.85,43.33,75.05v94.96l-43.33,75.04ZM907.4,636.29l19.76,11.41v22.82l-19.76-34.23ZM898.58,612.72l28.58-28.58v45.08l-28.58-16.5ZM943.16,545.51v-101.91l1.14.6,48.88,37.23,6.78,7.28-56.81,56.81ZM861.52,556.83l-32.82-56.85,98.47-56.85v113.7h-65.64ZM843.05,556.83h-41.28l-35.77-20.65,48.85-28.2,28.21,48.85ZM750,526.94l-56.85-32.82,56.85-98.46,56.85,98.46-56.85,32.82ZM734,536.17l-35.77,20.65h-41.29l28.21-48.85,48.85,28.2ZM638.47,556.83h-65.64v-113.7l98.47,56.85-32.83,56.85ZM500.05,488.73l38.65-33.05,18.13-10.81v100.64l-56.78-56.78ZM556.83,638.47l-56.85,32.83-56.85-98.47h113.7v65.64ZM556.83,656.94v41.29l-20.65,35.77-28.2-48.85,48.85-28.21ZM556.83,730.23v39.54l-11.41-19.77,11.41-19.77ZM556.83,801.77v41.28l-48.85-28.21,28.2-48.85,20.65,35.77ZM556.83,861.52v65.64h-113.7l56.85-98.47,56.85,32.82ZM556.83,954.48v100.5l-26.38-16.75-30.1-27.27,56.48-56.48ZM638.46,943.17l32.83,56.86-98.46,56.85v-113.7h65.64ZM656.94,943.17h41.29l35.77,20.65-48.85,28.21-28.21-48.86ZM750,973.05l56.85,32.82-56.85,98.47-56.85-98.47,56.85-32.82ZM766,963.82l35.77-20.65h41.29l-28.21,48.85-48.85-28.2ZM861.53,943.17h65.64v113.7l-98.46-56.85,32.83-56.85ZM943.16,954.48l56.49,56.49-14.17,14.38-42.32,30.39v-101.26ZM943.16,861.53l56.86-32.83,56.85,98.46h-113.7v-65.64ZM943.16,843.05v-41.29l20.65-35.77,28.2,48.85-48.85,28.21ZM943.16,769.77v-39.54l11.41,19.77-11.41,19.77ZM943.16,698.23v-41.29l48.86,28.21-28.21,48.85-20.65-35.77ZM943.16,638.46v-65.64h113.7l-56.85,98.46-56.86-32.83ZM1070.36,581.45l22.94,52.69,14.64,59.69,2.93,41.45-96.99-56,56.48-97.83ZM954.48,556.83l56.4-56.4,24.2,25.98,19.94,30.43h-100.54ZM820.7,486.12l-56.4-97.68,6.2-.18,60.83,8.67,58.49,18.81,27.7,14.47-96.83,55.9ZM452.72,542.88l35.78-43.06,57.01,57.01h-100.85l8.06-13.95ZM400.71,653.76l21.28-57.65,8.05-13.94,56.08,97.13-96.97,55.98.3-21.11,11.26-60.41ZM526.94,750l-32.82,56.85-98.46-56.85,98.46-56.85,32.82,56.85ZM545.51,943.17l-57.04,57.04-3.58-3.24-37.93-48.34-2.95-5.46h101.49ZM679.29,1013.88l55.92,96.86-36.31-2.06-59.88-13.8-56.69-23.71-1.09-.69,98.05-56.61ZM820.7,1013.88l97,56-37.38,18.17-59,17.18-57.1,6.48,56.48-97.83ZM1028.63,981.57l-17.74,18-56.41-56.41h100.92l-26.77,38.41ZM1013.88,820.7l97.47-56.27-5.13,51.85-16.35,59.24-19.87,42.38-56.11-97.19ZM973.05,750l32.82-56.85,98.47,56.85-98.47,56.85-32.82-56.85ZM1084.58,572.83h0l-1.37-2.38-12.48-21.62h0l-27.76-48.09,69.38,40.06v80.12l-27.76-48.09ZM1034.14,477.17l78.21-78.21v123.36l-78.21-45.15ZM1022.82,465.86l-45.15-78.2h123.35l-78.2,78.2ZM999.25,457.03l-70.66-40.8-49.49-28.57h80.1l40.05,69.37ZM763.85,371.65h-83.24l69.39-40.06,69.39,40.06h-55.53ZM572.83,415.41h0l-2.26,1.3-21.74,12.55h0l-48.08,27.76,40.05-69.37h80.1l-48.07,27.75ZM477.17,465.85l-28.45-28.45-49.75-49.75h123.35l-45.15,78.2ZM465.86,477.17l-78.2,45.15v-123.35l78.2,78.2ZM457.03,500.74l-27.76,48.08h0l-12.48,21.62-1.37,2.38h0l-27.75,48.07v-80.1l69.37-40.05ZM371.66,736.14v83.25l-40.06-69.39,40.06-69.39v55.53ZM420.03,935.18l36.99,64.07-69.37-40.05v-80.1l32.38,56.08ZM465.86,1022.82l-78.2,78.2v-123.35l78.2,45.15ZM477.17,1034.14l45.15,78.21h-123.36l78.21-78.21ZM500.74,1042.96l48.09,27.76h0l10.51,6.07,13.49,7.79h0l48.09,27.76h-80.12l-40.06-69.38ZM736.14,1128.35h83.23l-69.37,40.05-69.37-40.05h55.51ZM927.16,1084.58h0l16.61-9.59h.02s.01-.02.01-.02l55.44-32.01-40.06,69.38h-80.11l48.09-27.76ZM1022.82,1034.13l78.21,78.21h-123.36l45.15-78.21ZM1112.35,1101.03l-78.21-78.21,78.21-45.15v123.36ZM1042.96,999.25l34.52-59.79.2-.28.15-.31,2.13-3.69,32.39-56.1v80.11l-69.38,40.06ZM1128.35,763.85v-83.23l40.05,69.37-40.05,69.37v-55.51ZM1128.35,648.63v-98.59l116.63,67.33-67.34,116.63-49.29-85.37ZM1128.35,531.56v-132.58l153.88,153.87-29.25,50.66-124.63-71.95ZM968.43,371.65l-71.96-124.63,50.66-29.25,153.88,153.88h-132.59ZM949.96,371.65h-98.58l-85.39-49.3,116.62-67.33,67.34,116.63ZM734,322.36l-85.39,49.3h-98.58l67.34-116.63,116.63,67.33ZM531.56,371.65h-132.59l153.88-153.88,50.66,29.25-71.96,124.63ZM371.66,531.56l-124.63,71.96-29.25-50.66,153.88-153.88v132.59ZM371.66,550.03v98.58l-49.3,85.39-67.33-116.62,116.63-67.34ZM322.36,766l49.3,85.39v98.58l-116.63-67.34,67.33-116.62ZM371.66,968.43v132.59l-153.88-153.88,29.25-50.66,124.63,71.96ZM531.56,1128.35l71.95,124.63-50.66,29.25-153.87-153.87h132.58ZM550.04,1128.35h98.59l85.37,49.29-116.63,67.34-67.33-116.62ZM766,1177.63l85.37-49.29h98.59l-67.33,116.62-116.63-67.33ZM968.43,1128.35h132.58l-153.87,153.87-50.66-29.25,71.95-124.62ZM1128.35,968.43l124.62-71.95,29.25,50.66-153.87,153.87v-132.58ZM1128.35,949.95v-98.59l49.29-85.37,67.33,116.63-116.62,67.33ZM1186.87,750l71.96-124.63,124.63,71.95v105.34l-124.63,71.96-71.95-124.63ZM1399.45,706.56l75.23,43.43-75.23,43.43v-86.87ZM1399.45,688.09v-18l42.59,42.59-42.59-24.59ZM1383.45,678.85l-116.63-67.34,27.11-46.95,89.52,89.52v24.76ZM1302.21,550.22l31.95-55.33,49.29,85.38v51.2l-81.24-81.24ZM1128.35,371.65v-134.67l85.38,49.3,49.29,85.37h-134.67ZM949.77,197.78l-81.24-81.24h51.18l85.39,49.3-55.33,31.94ZM935.43,206.06l-46.95,27.11-67.34-116.63h24.77l89.52,89.52ZM811.9,100.54l-24.59-42.6,42.6,42.6h-18ZM688.09,100.54h-18l42.59-42.59-24.59,42.59ZM678.85,116.54l-67.34,116.63-46.95-27.11,89.52-89.52h24.76ZM550.22,197.78l-55.33-31.94,85.39-49.3h51.18l-81.24,81.24ZM371.66,371.65h-134.67l49.29-85.38,85.38-49.29v134.67ZM197.78,550.22l-81.24,81.24v-51.18l49.3-85.39,31.94,55.33ZM206.06,564.57l27.11,46.95-116.63,67.34v-24.76l89.52-89.52ZM100.53,688.09l-42.59,24.59,42.59-42.59v18ZM100.53,811.9v18l-42.59-42.59,42.59,24.59ZM116.53,821.14l116.63,67.34-27.11,46.95-89.53-89.53v-24.76ZM197.78,949.77l-31.94,55.33-49.3-85.39v-51.18l81.24,81.24ZM371.66,1128.35v134.67l-85.37-49.29-49.3-85.38h134.67ZM550.22,1302.21l81.24,81.24h-51.2l-85.38-49.29,55.34-31.95ZM564.57,1293.93l46.95-27.1,67.34,116.63h-24.76l-89.52-89.52ZM688.09,1399.46l24.58,42.58-42.58-42.58h18ZM811.9,1399.46h18l-42.58,42.58,24.59-42.58ZM821.14,1383.46l67.34-116.63,46.95,27.11-89.52,89.52h-24.76ZM949.77,1302.21l55.34,31.95-85.38,49.29h-51.2l81.24-81.24ZM1128.35,1128.35h134.67l-49.29,85.38-85.38,49.29v-134.67ZM1302.21,949.77l81.24-81.24v51.2l-49.29,85.38-31.95-55.34ZM1293.93,935.43l-27.11-46.95,116.63-67.34v24.76l-89.52,89.52ZM1399.45,811.9l42.59-24.59-42.59,42.59v-18ZM1453.39,701.39l-53.93-53.93v-39.48l53.93,93.41ZM1383.45,548.26l-40.05-69.38,40.05-69.38v138.75ZM1361.6,371.65h-80.11l-40.05-69.37,120.16,69.37ZM1197.73,258.57l-69.39-40.06v-80.12l69.39,120.18ZM1090.49,116.54l-69.39,40.06-69.39-40.06h138.78ZM852.53,100.54l-53.91-53.91,93.37,53.91h-39.47ZM701.38,46.62l-53.91,53.91h-39.47l93.38-53.91ZM548.28,116.54l-69.39,40.06-69.38-40.06h138.77ZM371.66,138.39v80.12l-69.38,40.06,69.38-120.17ZM258.56,302.27l-40.06,69.38h-80.12l120.17-69.38ZM116.53,409.51l40.06,69.38-40.06,69.39v-138.77ZM100.53,647.46l-53.91,53.91,53.91-93.38v39.47ZM46.62,798.61l53.91,53.91v39.47l-53.91-93.38ZM116.53,951.71l40.06,69.39-40.06,69.39v-138.78ZM138.39,1128.35h80.12l40.06,69.38-120.18-69.38ZM302.28,1241.44l69.37,40.05v80.11l-69.37-120.16ZM409.51,1383.46l69.37-40.05,69.38,40.05h-138.75ZM647.46,1399.46l53.94,53.94-93.42-53.94h39.49ZM798.6,1453.39l53.93-53.93h39.48l-93.41,53.93ZM951.73,1383.46l69.38-40.06,69.38,40.06h-138.76ZM1128.35,1361.6v-80.11l69.38-40.05-69.38,120.17ZM1241.43,1197.72l40.05-69.38h80.11l-120.17,69.38ZM1383.45,1090.49l-40.06-69.38,40.06-69.38v138.76ZM1399.45,852.53l53.93-53.93-53.93,93.41v-39.48Z"/></svg>
