<?xml version="1.0" encoding="UTF-8"?><svg id="Layer_2" xmlns="http://www.w3.org/2000/svg" xmlns:xlink="http://www.w3.org/1999/xlink" viewBox="0 0 1500 1500"><defs><style>.cls-1{fill:url(#New_Gradient_Swatch_2);stroke-width:0px;}</style><linearGradient id="New_Gradient_Swatch_2" x1="115.61" y1="1116.72" x2="1384.09" y2="384.36" gradientUnits="userSpaceOnUse"><stop offset="0" stop-color="#56450d"/><stop offset=".21" stop-color="#e5c787"/><stop offset=".39" stop-color="#f7d976"/><stop offset=".99" stop-color="#725728"/></linearGradient></defs><path class="cls-1" d="M1267.61,232.84c-67.22-67.22-145.51-120-232.68-156.87-90.25-38.17-186.12-57.53-284.94-57.53s-194.68,19.36-284.94,57.53c-87.17,36.87-165.45,89.65-232.68,156.87-40.07,40.07-75,84.06-104.49,131.53-8.86,13.27-16.83,27.1-23.89,41.46-10.35,19.4-19.86,39.3-28.49,59.69-38.17,90.25-57.53,186.12-57.53,284.94s19.36,194.68,57.53,284.94c8.77,20.73,18.45,40.96,29,60.66,6.81,13.71,14.44,26.94,22.86,39.65,29.6,47.78,64.71,92.07,105.01,132.37,67.22,67.22,145.51,120,232.68,156.87,90.25,38.17,186.12,57.53,284.94,57.53s194.68-19.36,284.94-57.53c87.17-36.87,165.45-89.65,232.68-156.87s120-145.51,156.87-232.68c38.17-90.25,57.53-186.12,57.53-284.94s-19.36-194.68-57.53-284.94c-36.87-87.17-89.65-165.45-156.87-232.68ZM812.13,681.05c59.43-59.43,136.28-95.11,219.04-102.31l-258.4,149.15.46-.8c11.53-16.26,24.51-31.66,38.89-46.04ZM740.29,784.24l.99-1.71v298.12c-21.49-46.16-32.83-96.85-32.83-149.28s11-101.54,31.84-147.13ZM708.44,569.36c0-52.43,11.34-103.12,32.83-149.28v298.56c-21.49-46.16-32.83-96.85-32.83-149.28ZM717.58,740.98c-82.32-7.43-158.74-43.05-217.9-102.21-14.37-14.37-27.34-29.76-38.87-46l256.77,148.21ZM468.92,578.98c82.12,7.53,158.33,43.13,217.37,102.16,14.24,14.24,27.1,29.48,38.54,45.55l-255.91-147.72ZM725.06,773.91c-11.5,16.19-24.44,31.54-38.77,45.86-59.12,59.12-135.48,94.73-217.73,102.19l256.5-148.06ZM461.04,907.84c11.47-16.13,24.37-31.42,38.64-45.69,59.07-59.07,135.35-94.68,217.53-102.18l-256.17,147.87ZM757.27,782.46c21.41,46.09,32.7,96.68,32.7,149.01s-11.3,102.92-32.7,149.01v-298.01ZM782.42,759.94c82.32,7.43,158.74,43.05,217.9,102.21,14.37,14.37,27.34,29.76,38.87,46l-256.77-148.21ZM1031.17,921.99c-82.75-7.2-159.6-42.87-219.04-102.31-14.65-14.65-27.86-30.36-39.56-46.96l258.59,149.27ZM1039.41,592.46c-11.58,16.36-24.63,31.85-39.09,46.31-59.25,59.25-135.81,94.89-218.27,102.24l257.36-148.55ZM757.27,718.46v-298.01c21.41,46.09,32.7,96.68,32.7,149.01s-11.3,102.92-32.7,149ZM721.52,425.34c-19.3,45.62-29.08,94.08-29.08,144.03,0,27.81,3.04,55.16,9.06,81.82l-98.23-169.78,125.54-72.2c-2.55,5.31-4.98,10.68-7.28,16.13ZM689,661.53c-32-30.04-68.61-53.9-109.01-70.99-37.51-15.87-76.94-25.29-117.54-28.15l126.94-73.01,99.6,172.14ZM488.36,650.09c33.98,33.98,73.55,60.66,117.61,79.29,11.34,4.8,22.86,9,34.53,12.62h-196.53v-145.49c13.01,19.1,27.83,37.01,44.4,53.57ZM643.53,758c-12.71,3.82-25.23,8.33-37.55,13.54-44.06,18.64-83.63,45.31-117.61,79.29-16.57,16.57-31.39,34.47-44.4,53.57v-146.41h199.56ZM575.2,912.37c43.17-17.51,82.16-42.74,116.02-75.05l-100.54,174.4-127.22-73.27c38.43-2.82,75.91-11.55,111.74-26.08ZM700.79,852.75c-5.55,25.65-8.35,51.92-8.35,78.63,0,49.95,9.78,98.4,29.08,144.03,2.25,5.32,4.63,10.58,7.11,15.77l-124.09-71.47,96.25-166.96ZM776.9,1075.49c19.3-45.62,29.08-94.08,29.08-144.03,0-28.74-3.25-56.99-9.68-84.49l99.43,171.85-126.29,73.15c2.61-5.42,5.1-10.92,7.45-16.49ZM811.43,841.17c31.52,29.16,67.44,52.39,106.99,69.12,37.11,15.7,76.1,25.1,116.25,28.06l-125.09,72.46-98.15-169.63ZM1011.64,850.83c-33.98-33.98-73.55-60.66-117.61-79.29-12.32-5.21-24.85-9.72-37.55-13.54h199.11v145.75c-12.9-18.85-27.57-36.54-43.94-52.92ZM859.5,742c11.67-3.62,23.19-7.82,34.53-12.62,44.06-18.64,83.63-45.31,117.61-79.29,16.38-16.38,31.04-34.07,43.94-52.92v144.83h-196.08ZM918.43,590.44c-38.89,16.45-74.27,39.17-105.41,67.64l96.61-167.58,124.73,71.9c-40.03,2.99-78.92,12.38-115.94,28.04ZM795.8,655.92c6.76-28.17,10.18-57.09,10.18-86.47,0-48.05-9.12-94.9-27.09-139.23-2.78-6.86-5.78-13.6-8.95-20.25l125.84,72.54-99.97,173.41ZM595.25,467.56l-15.87-27.43c41.96-23.15,88.3-37.5,136.72-42.07l-120.85,69.5ZM581.39,475.53l-119.01,68.44c11.14-15.44,23.57-30.11,37.3-43.84,20.11-20.11,42.22-37.48,65.87-51.97l15.83,27.37ZM427.97,742h-31.87c1.13-48.72,12.09-95.79,31.87-138.96v138.96ZM427.97,758v139.88c-19.91-43.44-30.87-90.83-31.88-139.88h31.88ZM582.69,1025.58l-16.05,27.84c-24.06-14.62-46.54-32.22-66.96-52.64-14.06-14.06-26.77-29.1-38.1-44.95l121.11,69.75ZM596.55,1033.57l120.46,69.38c-48.32-4.44-94.59-18.6-136.52-41.53l16.05-27.84ZM903.75,1032.68l16.41,28.37c-42.29,23.25-89.01,37.56-137.82,41.95l121.4-70.32ZM917.59,1024.66l122.28-70.83c-11.69,16.59-24.9,32.3-39.55,46.95-20.23,20.23-42.5,37.7-66.32,52.24l-16.41-28.37ZM1071.58,758h32.34c-1.03,49.42-12.14,97.16-32.34,140.87v-140.87ZM1071.58,742v-139.95c20.08,43.44,31.18,90.85,32.33,139.95h-32.33ZM917.62,476.64l16.53-28.66c23.77,14.53,45.98,31.96,66.18,52.16,14.66,14.66,27.88,30.39,39.58,47l-122.29-70.49ZM903.76,468.65l-122.93-70.86c49.41,4.23,96.71,18.62,139.48,42.16l-16.55,28.7ZM894.03,409.53c-37.32-15.78-76.54-25.2-116.91-28.11l264.69-152.23-113.54,196.95c-11.08-6.09-22.49-11.65-34.24-16.62ZM605.97,409.53c-11.86,5.02-23.38,10.63-34.57,16.8l-113.55-196.25,262.84,151.51c-39.6,3.09-78.07,12.44-114.71,27.94ZM557.56,434.35c-25.03,15.25-48.18,33.46-69.19,54.47-16.57,16.57-31.39,34.47-44.4,53.57V238.03l113.59,196.32ZM409.07,606.43c-18.21,43.04-27.94,88.61-28.98,135.57h-229.94l267.17-153.65c-2.9,5.94-5.65,11.96-8.24,18.08ZM380.07,758c.94,47.28,10.68,93.16,29,136.49,2.45,5.79,5.04,11.49,7.77,17.12l-266.72-153.61h229.96ZM488.36,1012.09c21.32,21.32,44.85,39.77,70.3,55.15l-114.7,198.95v-307.68c13.01,19.1,27.83,37.01,44.4,53.57ZM572.54,1075.22c10.83,5.92,21.98,11.32,33.43,16.17,37.06,15.67,75.99,25.07,116.07,28.05l-262.72,152.18,113.22-196.39ZM894.03,1091.39c11.7-4.95,23.07-10.48,34.12-16.55l113.87,196.81-264.27-152.19c40.16-2.96,79.16-12.36,116.28-28.06ZM942,1066.84c25.2-15.31,48.5-33.61,69.63-54.75,16.38-16.38,31.04-34.07,43.94-52.92v303.96l-113.58-196.29ZM1090.93,894.49c18.32-43.32,28.06-89.2,29-136.49h226.11l-261.99,151.75c2.4-5.03,4.7-10.11,6.88-15.26ZM1119.91,742c-1.04-46.96-10.78-92.53-28.98-135.57-2.2-5.21-4.53-10.34-6.95-15.42l261.94,150.99h-226ZM1011.64,488.82c-21.1-21.1-44.36-39.38-69.52-54.68l113.46-196.81v304.4c-12.9-18.85-27.57-36.54-43.94-52.92ZM773.09,365.28c11.57-16.33,24.6-31.8,39.04-46.24,59.49-59.49,136.44-95.18,219.28-102.33l-258.32,148.56ZM466.83,216.79c82.91,7.12,159.92,42.81,219.46,102.34,14.66,14.66,27.87,30.37,39.56,46.97l-259.02-149.31ZM427.97,241.03v294.84c-20.93-45.66-31.98-95.69-31.98-147.42s11.05-101.76,31.98-147.42ZM148.84,724.3c11.01-15.19,23.28-29.63,36.81-43.15,58.61-58.61,134.16-94.14,215.61-102.01l-252.41,145.17ZM402.67,921.91c-81.99-7.6-158.07-43.18-217.02-102.13-13.98-13.98-26.62-28.93-37.91-44.68l254.94,146.82ZM427.97,1259.89c-20.93-45.66-31.98-95.69-31.98-147.42s11.05-101.76,31.98-147.42v294.84ZM724.74,1136.36c-11.42,16.03-24.25,31.22-38.45,45.42-58.75,58.75-134.51,94.29-216.17,102.06l254.62-147.48ZM1031.45,1284.03c-82.86-7.14-159.82-42.83-219.32-102.33-14.55-14.55-27.68-30.15-39.31-46.62l258.64,148.95ZM1071.58,1260.88v-296.82c21.23,45.93,32.43,96.3,32.43,148.41s-11.2,102.48-32.43,148.41ZM1352.19,772.93c-11.66,16.52-24.82,32.17-39.41,46.76-59.12,59.12-135.48,94.74-217.75,102.2l257.16-148.95ZM1094.91,578.85c82.31,7.43,158.71,43.05,217.86,102.21,14.26,14.26,27.14,29.52,38.6,45.63l-256.46-147.83ZM1071.58,240.04c21.23,45.93,32.43,96.3,32.43,148.41s-11.2,102.48-32.43,148.41V240.04ZM918.43,228.44c-44.06,18.64-83.63,45.31-117.61,79.29-16.21,16.21-30.74,33.71-43.54,52.34v-144.24l196.43-.25c-11.93,3.67-23.7,7.95-35.28,12.85ZM741.27,360.31c-12.82-18.67-27.39-36.21-43.67-52.49-35.32-35.32-76.5-62.66-122.4-81.28-9.64-3.91-19.41-7.38-29.28-10.44l195.35-.24v144.46ZM409.07,532.48c2.31,5.46,4.74,10.85,7.3,16.17l-126.18-72.83,99.42-171.6c-6.39,27.42-9.62,55.58-9.62,84.24,0,49.95,9.78,98.4,29.08,144.03ZM408.31,562.47c-40.19,2.95-79.22,12.36-116.37,28.07-40.71,17.22-77.57,41.31-109.74,71.67l99.97-172.55,126.14,72.81ZM296.74,912.37c35.7,14.48,73.04,23.2,111.32,26.05l-125.76,72.59-99.14-171.4c33.3,31.21,71.44,55.68,113.57,72.76ZM416.49,952.03c-2.6,5.4-5.07,10.87-7.42,16.42-19.3,45.62-29.08,94.08-29.08,144.03,0,28.56,3.2,56.62,9.55,83.96l-99.23-171.56,126.18-72.83ZM579.99,1272.39c44.06-18.64,83.63-45.31,117.61-79.29,16.26-16.26,30.83-33.82,43.67-52.52v145.37l-199.82.29c13.05-3.88,25.9-8.49,38.54-13.84ZM757.27,1140.67c12.81,18.64,27.33,36.13,43.54,52.34,33.98,33.98,73.55,60.66,117.61,79.29,12.09,5.12,24.39,9.56,36.86,13.33l-198.01.29v-145.25ZM1090.93,968.44c-2.31-5.46-4.74-10.85-7.3-16.16l125.34,72.35-98.44,171.52c6.3-27.24,9.48-55.22,9.48-83.68,0-49.95-9.78-98.4-29.08-144.03ZM1091.36,938.26c39.74-3.05,78.35-12.42,115.12-27.97,40.26-17.03,76.76-40.79,108.68-70.68l-98.22,171.14-125.57-72.48ZM1206.48,590.44c-36.77-15.55-75.37-24.92-115.12-27.97l125.58-72.49,98.81,171.71c-32.06-30.16-68.77-54.11-109.28-71.25ZM1083.75,548.39c2.51-5.24,4.91-10.54,7.18-15.92,19.3-45.62,29.08-94.08,29.08-144.03,0-28.29-3.14-56.1-9.37-83.19l98.33,170.86-125.22,72.28ZM1085.36,229.26l275.64,159.1-138.18,79.76-137.46-238.86ZM757.27,199.83V39.88l276.51,159.61-276.51.35ZM741.27,199.85l-276.36.35L741.27,40.71v159.14ZM276.33,467.81l-137.57-79.41,275.77-159.14-138.2,238.54ZM268.31,481.66l-137.63,237.55v-317l137.63,79.44ZM268.44,1019.01l-137.76,79.52v-317.69l137.76,238.17ZM276.45,1032.86l138.57,239.58-276.35-160.04,137.78-79.53ZM741.27,1301.94v159.44l-274.61-159.04,274.61-.4ZM757.27,1301.92l276.7-.4-276.7,159.88v-159.48ZM1222.83,1032.62l138.33,79.85-275.54,159.2,137.2-239.05ZM1230.79,1018.74l138.29-240.95.07,320.82-138.36-79.87ZM1230.8,481.99l138.2-79.77.07,320.04-138.27-240.27ZM1350.95,364.08l-254.93-147.15c81.89,7.65,157.87,43.22,216.76,102.11,14.08,14.08,26.82,29.16,38.17,45.04ZM782.42,35.92c82.32,7.43,158.74,43.05,217.9,102.21,14.37,14.37,27.34,29.76,38.87,46L782.42,35.92ZM460.86,184.06c11.51-16.22,24.47-31.58,38.82-45.93,59.16-59.16,135.57-94.78,217.89-102.21l-256.71,148.14ZM146.56,365.44c11.58-16.35,24.63-31.85,39.09-46.3,59.26-59.26,135.85-94.9,218.33-102.25l-257.42,148.55ZM114.69,420.4v298.12c-21.42-46.1-32.73-96.71-32.73-149.06s11.31-102.96,32.73-149.06ZM114.69,1080.52c-21.42-46.1-32.73-96.71-32.73-149.06s11.31-102.96,32.73-149.06v298.12ZM146.52,1135.42l256.45,148.52c-82.1-7.54-158.3-43.14-217.33-102.16-14.48-14.48-27.54-29.99-39.13-46.36ZM715.26,1464.8c-81.44-7.88-156.97-43.4-215.58-102.01-14.03-14.03-26.73-29.05-38.05-44.88l253.63,146.89ZM1038.95,1317.12c-11.47,16.12-24.35,31.4-38.62,45.67-58.99,58.99-135.15,94.59-217.2,102.15l255.83-147.82ZM1350.7,1136.99c-11.29,15.76-23.94,30.72-37.93,44.7-58.72,58.72-134.44,94.26-216.06,102.05l253.99-146.75ZM1385.15,1077.34l-.06-292.08c20.54,45.31,31.38,94.87,31.38,146.11s-10.81,100.7-31.31,145.97ZM1385.01,423.08c20.59,45.35,31.45,94.98,31.45,146.28s-10.84,100.82-31.39,146.14l-.06-292.42ZM1256.3,244.16c9.07,9.07,17.86,18.35,26.39,27.83-23.52-17.46-49.01-32.04-76.21-43.55-43.89-18.56-90.4-28.32-138.34-29.03-15.66-26.33-34.55-50.63-56.5-72.59-32.43-32.43-69.96-58.19-111.62-76.67,43.94,9.37,86.93,22.91,128.69,40.57,85.26,36.06,161.84,87.69,227.6,153.45ZM243.7,244.16c65.76-65.76,142.33-117.39,227.6-153.45,41.76-17.66,84.75-31.2,128.69-40.57-41.66,18.48-79.19,44.25-111.62,76.67-21.98,21.98-40.89,46.32-56.56,72.68-46.59.51-92.02,9.59-135.07,27.04-27.29,11.07-52.9,25.25-76.61,42.33,7.64-8.4,15.5-16.63,23.58-24.71ZM67.81,532.28c-1.23,12.3-1.85,24.69-1.85,37.17,0,48.05,9.12,94.9,27.09,139.23,5.85,14.42,12.56,28.37,20.1,41.82-6.69,11.92-12.75,24.23-18.12,36.93-19.3,45.62-29.08,94.08-29.08,144.03,0,12.46.61,24.82,1.82,37.07-22.44-70.15-33.8-143.24-33.8-218.08s11.36-148,33.83-218.18ZM243.7,1256.76c-8.09-8.09-15.95-16.34-23.61-24.74,22.3,16.06,46.32,29.58,71.85,40.38,44.36,18.76,91.4,28.53,139.88,29.06,15.67,26.35,34.57,50.68,56.54,72.66,32.43,32.43,69.96,58.19,111.62,76.67-43.94-9.37-86.93-22.91-128.69-40.57-85.26-36.06-161.84-87.69-227.6-153.45ZM1256.3,1256.76c-65.76,65.76-142.33,117.39-227.6,153.45-41.76,17.66-84.75,31.2-128.69,40.57,41.66-18.48,79.19-44.25,111.62-76.67,22.01-22.01,40.93-46.37,56.61-72.77,47.9-.73,94.38-10.48,138.23-29.03,27.38-11.58,53.03-26.28,76.68-43.89-8.67,9.66-17.62,19.11-26.86,28.35ZM1429.82,975.88c1.75-14.68,2.64-29.53,2.64-44.51,0-49.95-9.78-98.4-29.08-144.03-5.38-12.71-11.45-25.04-18.14-36.98,6.7-11.94,12.77-24.26,18.14-36.98,19.3-45.62,29.08-94.08,29.08-144.03,0-14.89-.88-29.64-2.61-44.23,24.01,72.36,36.16,147.91,36.16,225.32s-12.16,153.03-36.2,225.42Z"/></svg>