<?xml version="1.0" encoding="UTF-8"?><svg id="Layer_2" xmlns="http://www.w3.org/2000/svg" xmlns:xlink="http://www.w3.org/1999/xlink" viewBox="0 0 1500 1500"><defs><style>.cls-1{fill:url(#New_Gradient_Swatch_2);stroke-width:0px;}</style><linearGradient id="New_Gradient_Swatch_2" x1="115.9" y1="1116.1" x2="1384.1" y2="383.9" gradientUnits="userSpaceOnUse"><stop offset="0" stop-color="#56450d"/><stop offset=".21" stop-color="#e5c787"/><stop offset=".39" stop-color="#f7d976"/><stop offset=".99" stop-color="#725728"/></linearGradient></defs><path class="cls-1" d="M1267.62,232.39c-67.22-67.22-145.51-120-232.68-156.87-90.25-38.17-186.12-57.53-284.94-57.53s-194.69,19.36-284.94,57.53c-87.17,36.87-165.45,89.65-232.68,156.87s-120,145.51-156.87,232.68c-38.17,90.25-57.53,186.12-57.53,284.94s19.36,194.68,57.53,284.94c36.87,87.17,89.65,165.45,156.87,232.68,67.23,67.22,145.51,120,232.68,156.87,90.18,38.14,185.96,57.5,284.69,57.53l1.07.62,1.09-.63c98.14-.25,193.35-19.59,283.02-57.52,87.17-36.87,165.45-89.65,232.68-156.87,45.25-45.25,83.94-95.51,115.65-150.12l1.12-.65v-1.28c14.95-25.93,28.34-52.82,40.1-80.62,38.17-90.25,57.53-186.12,57.53-284.94s-19.36-194.68-57.53-284.94c-36.87-87.17-89.65-165.45-156.87-232.68ZM894.03,1209.35l-2,1.16c-6.09-8.33-12.92-16.1-20.4-23.22,10.5,2.53,21.39,4.06,32.55,4.47l-10.15,17.59ZM442.83,397.88c-3.8,7.15-7.09,14.6-9.81,22.32-2.42-7.42-5.34-14.62-8.73-21.56l1.32-.76h17.22ZM607.58,292.82l2.26-1.3c5.67,7.76,11.98,15.04,18.86,21.76-9.91-2.22-20.15-3.57-30.64-3.98l9.52-16.48ZM1076.12,397.88l1.68.97c-3.32,6.74-6.2,13.74-8.61,20.94-2.73-7.57-6-14.89-9.78-21.91h16.71ZM1152.51,509.9l-58.74,33.91c-8.14-15.6-13.66-32.72-16.01-50.8.34-2.99.59-6,.76-9.04h59.02l14.97,25.93ZM1156.02,483.98h41.4l-31.05,17.93-10.35-17.93ZM441.24,1018.13c-.06-.97-.13-1.93-.21-2.89,1.23-15.48,4.88-30.31,10.57-44.12l27.14,47.01h-37.5ZM440.93,483.98h37.81l-27.33,47.34c-5.64-13.3-9.38-27.57-10.87-42.48.16-1.61.29-3.24.4-4.86ZM1060.84,483.98c.19,3.03.46,6.05.81,9.04-1.72,13.84-5.38,27.1-10.71,39.51l-28.03-48.55h37.93ZM1042.29,549.54c-12.48,21.06-30.06,38.85-51.07,51.74l-67.73-117.3h80.94l37.85,65.56ZM1063.4,586.11c-4.1.1-8.15.36-12.17.74l9.45-5.46,2.72,4.71ZM1060.68,920.71l-9.45-5.46c4.02.39,8.08.64,12.17.74l-2.72,4.71ZM365.49,884.33l18-31.18,26.35,45.64c-15.73-2.57-30.65-7.51-44.35-14.46ZM392.73,837.15l40.47-70.1,68.41,118.49c-20.17,9.78-42.86,15.28-66.83,15.28-1.79,0-3.57-.04-5.35-.1l-36.7-63.57ZM408.86,605.01l-25.38,43.95-17.32-29.99c13.23-6.63,27.58-11.39,42.69-13.96ZM428.52,602.96c2.07-.08,4.16-.14,6.25-.14,23.7,0,46.14,5.37,66.14,14.94l-67.72,117.29-40.47-70.1,35.8-62ZM440.97,581.4l10.87,6.27c-4.62-.46-9.3-.73-14.02-.81l3.15-5.46ZM900.78,765.91c-2.01,19.01-7.59,36.98-16.05,53.21l-117.9-68.07,118.74-68.55c8.13,16.09,13.46,33.82,15.32,52.57-.52,5.26-.79,10.6-.79,15.99,0,5.01.24,9.96.69,14.86ZM758.83,899.92v-119.01l59.69,103.38c-18.12,9.08-38.33,14.6-59.69,15.62ZM602.01,763.02c.25-3.7.39-7.43.39-11.2,0-4.44-.18-8.84-.54-13.19,1.49-19.81,6.85-38.56,15.32-55.5l117.64,67.92-116.82,67.45c-8.7-16.89-14.28-35.65-16-55.49ZM604.14,826.51l-30.47,17.59c8.64-12.56,15.56-26.36,20.45-41.05,2.74,8.12,6.11,15.96,10.02,23.46ZM593.52,698.8c-5.2-15.03-12.54-29.1-21.67-41.84l31.45,18.16c-3.84,7.58-7.12,15.49-9.78,23.68ZM742.83,721.2l-60.31-104.46c18.24-9.49,38.67-15.33,60.31-16.58v121.03ZM668.74,624.87l60.23,104.33-103.89-59.98c11.31-17.64,26.21-32.76,43.66-44.35ZM728.97,772.91l-59.35,102.8c-17.32-11.32-32.16-26.12-43.53-43.4l102.89-59.4ZM683.45,883.75l59.37-102.83v118.92c-21.27-1.22-41.37-6.89-59.37-16.09ZM758.83,600.08c21.73,1.05,42.27,6.73,60.63,16.09l-60.63,105.02v-121.11ZM758.83,584.07v-40.45c7.75,16.55,18.19,31.63,30.79,44.69-9.95-2.34-20.24-3.78-30.79-4.24ZM742.83,584.13c-10.57.55-20.87,2.1-30.83,4.54,12.53-12.77,22.98-27.52,30.83-43.72v39.18ZM611.22,661.21l-40.34-23.29c6.74.81,13.59,1.24,20.55,1.24,14.23,0,28.05-1.76,41.25-5.06-8.05,8.25-15.25,17.34-21.46,27.11ZM585.82,738.84c-.25,3.69-.38,7.41-.38,11.16,0,4.45.18,8.85.53,13.21-3.62,46.86-29.4,87.73-67.04,112.49l-3.39,1.96-73.1-126.61,72.53-125.63c39.34,24.19,66.63,65.61,70.85,113.42ZM612.21,840.32c6.27,9.64,13.51,18.6,21.59,26.72-13.31-3.36-27.25-5.15-41.6-5.15-6.51,0-12.93.38-19.25,1.09l39.26-22.67ZM742.83,915.87v38.69c-8-16.08-18.58-30.69-31.21-43.32,10.08,2.5,20.51,4.08,31.21,4.63ZM758.83,915.93c11.49-.5,22.69-2.17,33.47-4.9-13.96,14.27-25.37,31.05-33.47,49.59v-44.7ZM832.42,876.38l-59.74-103.47,103.91,59.99c-11.55,17.37-26.61,32.2-44.17,43.48ZM890.47,840.91l36.7,21.19c-5.51-.56-11.11-.84-16.77-.84-13.92,0-27.44,1.74-40.37,4.99,7.6-7.75,14.45-16.23,20.43-25.34ZM772.68,729.2l60.62-105c17.69,11.54,32.81,26.7,44.29,44.43l-104.91,60.57ZM871.35,635.09c12.77,3.07,26.1,4.71,39.81,4.71,6.08,0,12.09-.33,18.01-.95l-37.7,21.76c-5.87-9.16-12.62-17.71-20.12-25.52ZM911.16,623.81c-24.58,0-47.82-5.78-68.37-16.03l66.85-115.79,67.52,116.95c-19.96,9.53-42.36,14.88-66,14.88ZM828.86,599.89c-39.24-25.02-66.02-67.36-69.04-115.91h135.96l-66.92,115.91ZM742.83,403.38c-.9-1.85-1.83-3.68-2.8-5.5h2.8v5.5ZM758.83,397.88h4.08c-1.43,2.66-2.79,5.36-4.08,8.11v-8.11ZM672.77,599.86l-66.9-115.88h136.85c-3.24,48.68-30.36,91.05-69.95,115.88ZM658.78,607.63c-20.3,9.94-43.17,15.54-67.35,15.54s-46.37-5.43-66.44-15.09l67.03-116.1,66.77,115.65ZM448.97,567.54l1.99-3.44c1.75,2.63,3.57,5.21,5.46,7.74l-7.44-4.3ZM423.96,751.05l-40.47,70.1-40.47-70.1,40.47-70.1,40.47,70.1ZM438.7,916.77c3.36-.08,6.7-.26,10.01-.53l-7.74,4.47-2.28-3.94ZM456.4,930.28c-1.87,2.54-3.68,5.13-5.41,7.78l-2.02-3.5,7.43-4.29ZM592.19,877.9c24.13,0,46.96,5.58,67.23,15.47l-67.41,116.76-67.33-116.62c20.34-9.98,43.27-15.61,67.51-15.61ZM673.42,901.13c37.68,23.58,64.1,63.06,69.41,108.75v8.25h-136.96l67.55-117ZM758.83,1092.53c1.74,3.98,3.63,7.88,5.67,11.7h-5.67v-11.7ZM742.83,1104.23h-2.59c.89-1.65,1.76-3.31,2.59-4.99v4.99ZM828.58,901.73l67.2,116.4h-134.46c2.73-48.64,28.84-91.14,67.26-116.4ZM842.4,893.66c20.41-10.48,43.53-16.4,68-16.4s46.7,5.7,66.82,15.81l-67.58,117.06-67.24-116.47ZM1052.68,934.57l-2.35,4.07c-1.92-3.04-3.93-6.01-6.03-8.91l8.39,4.84ZM898.59,827.13c3.98-7.55,7.4-15.44,10.19-23.62,5.14,15.06,12.44,29.16,21.53,41.94l-31.72-18.31ZM899.45,674.49l30.87-17.82c-8.88,12.49-16.05,26.23-21.17,40.91-2.66-7.98-5.9-15.69-9.69-23.08ZM1047.7,570.42c1.24-1.72,2.45-3.46,3.62-5.22l1.36,2.35-4.98,2.87ZM923.5,467.98l35.85-62.09,35.85,62.09h-71.7ZM909.64,459.98l-35.85-62.1h71.7l-35.85,62.1ZM895.78,467.98h-136.09c1.18-25.56,8.94-49.46,21.65-70.1h73.97l40.47,70.1ZM792.72,381.88c9.95-12.22,21.82-22.88,35.15-31.52l18.2,31.52h-53.35ZM772.72,381.88h-13.89v-19.06c11.69-.51,23.08-2.15,34.06-4.83-7.45,7.31-14.21,15.31-20.17,23.89ZM742.83,381.88h-12.5c-5.81-8.45-12.4-16.33-19.66-23.57,10.39,2.45,21.14,3.97,32.16,4.49v19.08ZM710.39,381.88h-54.81l18.72-32.43c13.73,8.84,25.93,19.81,36.09,32.43ZM721.63,397.88c12.27,20.14,19.83,43.35,21.2,68.15v1.95h-136.96l40.47-70.1h75.29ZM592.01,459.98l-35.85-62.1h71.7l-35.85,62.1ZM578.16,467.98h-71.7l35.85-62.1,35.85,62.1ZM578.16,483.98l-67.21,116.41c-20.98-12.97-38.53-30.83-50.94-51.96l37.21-64.44h80.94ZM441.66,548.21l-6.54,11.33-13.56-7.83c4.29-8.05,7.94-16.46,10.9-25.19,2.55,7.48,5.63,14.73,9.2,21.69ZM427.12,573.4l-8.18,14.17c-9.44.87-18.65,2.52-27.57,4.88,8.22-8.23,15.6-17.26,22.01-26.98l13.73,7.93ZM352.26,626.87l21.99,38.08-40.47,70.1-31.8-55.08c12.09-21.49,29.42-39.74,50.28-53.1ZM324.54,751.05l-31.3,54.21c-6.51-16.6-10.1-34.62-10.1-53.45s3.71-37.51,10.45-54.37l30.95,53.6ZM333.78,767.05l40.47,70.1-22.63,39.2c-20.83-13.48-38.1-31.85-50.08-53.45l32.24-55.84ZM419.87,916.16l7.25,12.55-13.34,7.7c-5.75-8.74-12.29-16.93-19.51-24.48,8.31,2.04,16.86,3.46,25.6,4.22ZM435.11,942.57l6.67,11.55c-3.46,6.9-6.45,14.08-8.91,21.48-2.96-8.81-6.63-17.31-10.94-25.42l13.18-7.61ZM460.09,953.83c12.25-21.31,29.68-39.38,50.61-52.53l67.45,116.83h-80.94l-37.12-64.3ZM578.16,1034.13l-35.85,62.1-35.85-62.1h71.7ZM592.01,1042.13l35.85,62.1h-71.7l35.85-62.1ZM605.87,1034.13h136.96v9.79c-2.54,21.88-9.92,42.34-21.07,60.31h-75.42l-40.47-70.1ZM710.3,1120.23c-10.24,12.48-22.47,23.32-36.23,32.03l-18.49-32.03h54.72ZM730.35,1120.23h12.48v19.07c-11.12.5-21.97,2.03-32.45,4.5,7.37-7.22,14.06-15.11,19.97-23.57ZM758.83,1120.23h15.42c6.07,8.8,12.97,16.99,20.59,24.44-11.58-2.98-23.63-4.82-36.01-5.37v-19.07ZM794.2,1120.23h51.88l-17.87,30.95c-12.87-8.52-24.35-18.97-34.01-30.95ZM782.91,1104.23c-12.61-20.62-20.35-44.52-21.63-70.1h134.51l-40.47,70.1h-72.41ZM909.64,1042.13l35.85,62.1h-71.7l35.85-62.1ZM923.5,1034.13h71.7l-35.85,62.09-35.85-62.09ZM923.5,1018.13l67.62-117.12c20.78,13.4,38.03,31.82,50.04,53.53l-36.72,63.6h-80.94ZM1049.45,972.16c5.65,14.38,9.12,29.84,10.02,45.97h-36.57l26.54-45.97ZM1059.39,954.95l7.15-12.38,12.63,7.29c-4.47,8.47-8.23,17.35-11.23,26.58-2.36-7.4-5.22-14.58-8.55-21.48ZM1074.54,928.71l7.67-13.28c8.37-.71,16.57-2.02,24.55-3.9-7.21,7.57-13.73,15.78-19.46,24.54l-12.75-7.36ZM1092.21,898.1l25.95-44.95,17.85,30.91c-13.56,6.75-28.29,11.55-43.8,14.04ZM1072.66,899.97c-1.64.05-3.28.09-4.94.09-24.1,0-46.89-5.56-67.14-15.43l67.88-117.57,40.47,70.1-36.27,62.82ZM986.58,876.87c-38.3-23.94-64.98-64.28-69.73-110.88.5-5.26.77-10.59.77-15.99,0-5-.23-9.94-.67-14.83,5-46.2,31.58-86.16,69.62-109.94l72.64,125.81-72.64,125.81ZM1000.58,617.49c20.25-9.87,43.05-15.43,67.14-15.43,1.65,0,3.3.04,4.94.09l36.27,62.82-40.47,70.1-67.88-117.57ZM1092.21,604.01c15.51,2.49,30.24,7.29,43.8,14.04l-17.85,30.91-25.95-44.95ZM1082.21,586.68l-7.67-13.28,13.49-7.79c5.92,9.06,12.69,17.54,20.19,25.32-8.44-2.07-17.12-3.5-26.01-4.26ZM1066.54,559.54l-5.87-10.17c3.49-6.76,6.52-13.78,9.06-21.03,2.81,8.12,6.23,15.96,10.19,23.48l-13.37,7.72ZM1078.63,467.98c-.18-4.35-.53-8.66-1.05-12.92,2.04-17.05,6.9-33.27,14.12-48.19l2,1.15,34.61,59.95h-49.67ZM1061.46,455.15c-.46,4.23-.75,8.51-.88,12.83h-46.9l-40.47-70.1h67.77c10.56,17.14,17.7,36.54,20.49,57.26ZM864.55,381.88l-22.81-39.52c20.81-10.58,44.42-16.56,69.42-16.56.66,0,1.31.02,1.97.02l32.36,56.05h-80.94ZM903.97,309.97c-10.78.45-21.3,1.9-31.46,4.27,7.21-6.93,13.81-14.47,19.71-22.53l1.81,1.04,9.94,17.21ZM878.29,283.66c-12.5,16.68-28.32,30.83-46.49,41.49l-24.56-42.54h69.23l1.82,1.05ZM817.59,332.55c-18.01,8.25-37.86,13.27-58.77,14.26v-64.2h29.94l28.83,49.94ZM758.83,266.61v-35.85l20.7,35.85h-20.7ZM742.83,266.61h-20.7l20.7-35.85v35.85ZM742.83,282.61v64.18c-20.87-1.06-40.68-6.14-58.65-14.44l28.72-49.74h29.94ZM669.99,324.91c-18.06-10.67-33.78-24.8-46.21-41.44l1.49-.86h69.15l-24.42,42.3ZM591.43,325.17c24.83,0,48.28,5.89,68.99,16.33l-23.32,40.38h-80.94l32.73-56.69c.85-.01,1.69-.03,2.54-.03ZM487.98,467.98h-46.71c-.09-3.36-.29-6.69-.57-10,2.41-21.77,9.6-42.15,20.53-60.09h67.22l-40.47,70.1ZM410.39,406.67c7.56,15.79,12.49,33.03,14.23,51.16-.34,3.35-.56,6.74-.69,10.15h-50.58l34.57-59.88,2.47-1.43ZM424.11,483.98c.1,1.61.22,3.21.36,4.8-2.09,19.62-7.92,38.17-16.77,54.93l-58.55-33.81,14.97-25.93h60ZM335.28,501.9l-31.05-17.93h41.4l-10.35,17.93ZM327.29,515.76l-10.35,17.93-20.7-35.85,31.05,17.93ZM341.14,523.76l58.36,33.69c-11.49,17.2-26.36,32.03-43.69,43.57l-29.64-51.34,14.97-25.93ZM342.06,609.21c-18.08,9.57-38.26,15.77-59.68,17.75v-1.42l34.55-59.85,25.13,43.52ZM282.38,643.02c10.9-.92,21.52-2.82,31.76-5.64-7.99,8.16-15.14,17.13-21.3,26.76l-10.46-18.11v-3.01ZM283.71,680.33c-.45.93-.89,1.86-1.33,2.8v-5.1l1.33,2.3ZM283.31,822.47l-.93,1.61v-3.57c.31.66.62,1.31.93,1.96ZM292.38,838.77c5.6,8.86,12.03,17.15,19.18,24.79-9.44-2.42-19.19-4.07-29.17-4.9v-2.58l9.99-17.31ZM282.38,874.72c21.51,1.95,41.77,8.16,59.92,17.76l-25.37,43.94-34.55-59.85v-1.85ZM356.06,900.66c17.4,11.58,32.32,26.48,43.84,43.77l-58.75,33.92-14.97-25.92,29.89-51.76ZM327.28,986.35l-31.05,17.92,20.7-35.85,10.35,17.92ZM335.28,1000.21l10.35,17.93h-41.4l31.05-17.93ZM349.14,992.21l58.93-34.03c9.17,17.42,15.06,36.76,16.91,57.23-.06.91-.13,1.81-.18,2.72h-60.7l-14.97-25.93ZM424.74,1034.13c.1,2.24.24,4.47.43,6.68-1.47,19.43-6.6,37.87-14.71,54.67l-2.54-1.46-34.57-59.88h51.39ZM424.35,1103.5c3.64-7.4,6.75-15.1,9.29-23.04,2.88,8.24,6.41,16.18,10.52,23.77h-18.55l-1.26-.73ZM441.22,1040.6c.14-2.15.26-4.3.32-6.47h46.44l40.47,70.1h-65.82c-11.71-18.87-19.26-40.49-21.42-63.62ZM528.45,1120.23l-18.39,31.86c-13.65-8.68-25.79-19.45-35.96-31.86h54.36ZM542.3,1128.23l26.5,45.9c-15.88-2.43-30.95-7.29-44.81-14.18l18.31-31.72ZM556.16,1120.23h80.94l23.01,39.86c-20.44,10.11-43.51,15.81-67.92,15.81-1.31,0-2.62-.02-3.92-.05l-32.11-55.62ZM597.49,1191.81c10.97-.34,21.69-1.71,32.04-4.04-7.27,6.98-13.93,14.58-19.88,22.71l-2.06-1.19-10.09-17.48ZM623.58,1218.53c12.47-16.66,28.23-30.78,46.34-41.45l24.49,42.42h-69.15l-1.68-.97ZM684.12,1169.66c17.99-8.28,37.82-13.33,58.71-14.35v64.19h-29.94l-28.77-49.84ZM742.83,1235.5v35.85l-20.7-35.85h20.7ZM758.83,1235.5h20.7l-20.7,35.85v-35.85ZM758.83,1219.5v-64.19c20.89,1.03,40.72,6.08,58.71,14.35l-28.77,49.84h-29.94ZM831.73,1177.08c18.12,10.67,33.89,24.81,46.36,41.48l-1.63.94h-69.23l24.49-42.42ZM910.4,1175.9c-24.64,0-47.9-6-68.4-16.61l22.55-39.06h80.94l-32.12,55.63c-.99.02-1.98.04-2.97.04ZM959.35,1128.23l18.28,31.66c-13.85,7.01-28.93,11.93-44.83,14.33l26.55-45.99ZM991.49,1151.9l-18.29-31.67h53.41c-9.95,12.32-21.8,23.03-35.12,31.67ZM973.2,1104.23l40.47-70.1h45.86c-1.28,25.58-9.03,49.47-21.63,70.1h-64.69ZM1067.34,1078.57c2.69,8.62,6.05,16.95,10.03,24.93l-1.24.72h-19.81c4.36-8.17,8.06-16.74,11.02-25.65ZM1091.24,1095.5c-9.15-18.69-14.59-39.46-15.4-61.37h52.47l-34.61,59.95-2.45,1.42ZM1076.08,1018.13c1.45-21.58,7.4-41.97,16.95-60.27l59.48,34.34-14.97,25.93h-61.46ZM1166.37,1000.21l31.05,17.93h-41.4l10.35-17.93ZM1174.37,986.35l10.35-17.92,20.7,35.85-31.05-17.92ZM1160.51,978.35l-59.34-34.26c11.54-17.43,26.53-32.45,44.03-44.12l30.28,52.45-14.97,25.92ZM1158.94,891.78c18.28-9.68,38.72-15.92,60.41-17.84v2.5l-34.63,59.98-25.77-44.64ZM1219.35,857.88c-9.6.77-18.98,2.31-28.08,4.56,6.73-7.23,12.82-15.05,18.17-23.38l9.9,17.15v1.67ZM1149.94,876.19l-22.54-39.04,40.47-70.1,32.45,56.2c-12.14,21.44-29.49,39.64-50.38,52.94ZM1118.16,821.15l-40.47-70.1,40.47-70.1,40.47,70.1-40.47,70.1ZM1127.4,664.96l22.54-39.04c20.88,13.3,38.24,31.5,50.38,52.94l-32.45,56.2-40.47-70.1ZM1190.56,638.92c9.32,2.39,18.93,4.02,28.78,4.86v2.12l-9.9,17.15c-5.54-8.61-11.87-16.69-18.88-24.13ZM1219.35,627.71c-21.57-2.01-41.89-8.29-60.06-17.99l25.43-44.04,34.63,59.98v2.05ZM1145.57,601.49c-17.34-11.64-32.21-26.58-43.67-43.89l58.61-33.84,14.97,25.93-29.91,51.8ZM1174.37,515.76l31.05-17.93-20.7,35.85-10.35-17.93ZM1146.78,467.98l-25.37-43.95,76.12,43.95h-50.75ZM1029.59,381.88h-56.39l18.8-32.56,6.41,3.7c11.73,8.14,22.22,17.87,31.18,28.86ZM978.15,341.32l-18.8,32.56-26.91-46.6c15.57,2.16,30.38,6.64,44.06,13.09l1.64.95ZM922.58,310.2l-.83-1.44,2.72,1.57c-.63-.05-1.26-.09-1.89-.13ZM798,266.61l-25.38-43.95,76.13,43.95h-50.75ZM703.65,266.61h-50.67l76.01-43.88-25.34,43.88ZM579.42,309.59c-.33.02-.67.04-1.01.07l1.45-.84-.45.77ZM569.53,326.73l-27.23,47.16-18.78-32.53,3.81-2.2c13.15-6.06,27.33-10.31,42.2-12.43ZM509.67,349.35l18.78,32.53h-55.98c8.77-10.89,19.05-20.56,30.54-28.68l6.66-3.85ZM354.87,467.98h-50.67l76.01-43.88-25.34,43.88ZM307.7,549.69l-25.32,43.85v-87.7l25.32,43.85ZM307.7,952.42l-25.32,43.85v-87.7l25.32,43.85ZM354.87,1034.13l25.34,43.88-76.01-43.88h50.67ZM454.04,1120.23c.16.23.33.47.49.7l-1.21-.7h.72ZM578.76,1191.36l1.11,1.92-3.73-2.15c.87.08,1.74.16,2.62.23ZM703.65,1235.5l25.34,43.88-76.01-43.88h50.67ZM798,1235.5h50.75l-76.13,43.95,25.38-43.95ZM922.86,1191.43c.88-.07,1.75-.15,2.62-.23l-3.73,2.15,1.11-1.93ZM1046.56,1120.23h1.85l-3.08,1.78c.42-.59.82-1.19,1.23-1.78ZM1146.78,1034.13h50.75l-76.12,43.95,25.37-43.95ZM1193.95,952.42l25.39-43.98v87.97l-25.39-43.98ZM1218.6,822.91c.25-.52.5-1.04.75-1.56v2.86l-.75-1.3ZM1208.73,805.83l-31.62-54.78,31.62-54.77c6.85,16.96,10.62,35.44,10.62,54.78s-3.77,37.81-10.62,54.77ZM1218.6,679.2l.75-1.3v2.86c-.25-.52-.5-1.04-.75-1.56ZM1193.95,549.69l25.39-43.98v87.97l-25.39-43.98ZM1227.33,466.71l-119.21-68.82h238.42l-119.21,68.82ZM1006.85,339.41c-2.17-1.49-4.38-2.93-6.62-4.32l25.68-44.48,51.79,89.7-70.85-40.9ZM986.24,327.31c-.76-.38-1.52-.76-2.29-1.12l-75.48-43.58h103.58l-25.81,44.7ZM758.83,196.22V58.57l119.21,206.47-119.21-68.82ZM742.83,196.26l-119.25,68.85,119.25-206.54v137.69ZM519.95,324.94c-1.55.72-3.09,1.46-4.62,2.23l-25.73-44.56h103.66l-73.32,42.33ZM475.75,290.61l25.65,44.43c-2.39,1.5-4.73,3.06-7.03,4.67l-70.45,40.67,51.83-89.77ZM274.36,466.73l-119.25-68.85h238.49l-119.25,68.85ZM266.38,480.6v137.72l-119.27-206.58,119.27,68.86ZM266.38,848.86l-56.47-97.81,56.47-97.81v195.61ZM266.38,1021.51l-119.27,68.86,119.27-206.57v137.72ZM274.36,1035.38l119.25,68.85h-238.49l119.25-68.85ZM501.67,1166.61l-25.92,44.89-51.83-89.77,77.75,44.89ZM515.52,1174.61l77.75,44.89h-103.66l25.92-44.89ZM742.83,1305.85v137.69l-119.25-206.54,119.25,68.85ZM758.83,1305.89l119.21-68.82-119.21,206.47v-137.65ZM986.15,1174.65l25.9,44.85h-103.58l77.69-44.85ZM1025.9,1211.5l-25.9-44.85,77.69-44.85-51.79,89.71ZM1227.33,1035.4l119.21,68.83h-238.42l119.21-68.83ZM1235.35,1021.56v-137.63l119.19,206.44-119.19-68.81ZM1235.35,653.38l56.39,97.67-56.39,97.67v-195.35ZM1235.35,480.55l119.19-68.81-119.19,206.44v-137.63ZM1346.54,381.88h-239.66c28.74-38.62,75.18-63.75,127.49-63.75.6,0,1.19.02,1.79.02l110.38,63.73ZM1279.14,324.5c24.89,7.25,47.22,20.37,65.35,37.73l-65.35-37.73ZM1092.65,374.22l-59.82-103.61-2.31-4h-123.03c11.2-22.6,17.49-47.97,17.49-74.75,0-20.97-3.86-41.07-10.9-59.65l296.99,171.47c-48.74,6.45-91.14,32.84-118.42,70.55ZM908.98,191.86c0,24.18-5.66,47.09-15.75,67.51l-120.55-208.8,117.43,67.8c12.03,21.89,18.87,46.92,18.87,73.49ZM788.19,41.05c30.66,7.28,57.86,23.38,78.65,45.41l-78.65-45.41ZM728.97,50.57l-120.25,208.28c-9.93-20.29-15.49-43.01-15.49-66.99,0-26.76,6.93-51.96,19.12-73.96l116.62-67.33ZM636.05,85.74c20.48-21.43,47.07-37.16,77.02-44.47l-77.02,44.47ZM594.72,266.61h-123.58l-61.81,107.05c-27.1-37.57-69.2-63.95-117.64-70.63l296.61-171.25c-7.14,18.7-11.07,38.94-11.07,60.07,0,26.79,6.29,52.15,17.49,74.75ZM267.46,317.36c52.65,0,99.36,25.47,128.06,64.52h-240.4l111.74-64.51c.2,0,.4,0,.61,0ZM155.62,363.12c18.96-18.72,42.75-32.72,69.35-40.04l-69.35,40.04ZM117.26,424.72v95.58c-4.97-15.06-7.67-31.12-7.67-47.79s2.7-32.73,7.67-47.79ZM133.26,419.74l119.66,207.25c-50.51-4.56-94.2-32.58-119.66-72.86v-134.39ZM253.75,643.12l-62.32,107.93,62.1,107.57c-48.36,3.86-91.19,27.29-120.28,62.21v-339.62c29.19,34.85,72.09,58.18,120.49,61.91ZM253.15,874.72l-119.89,207.65v-134.36c25.41-40.5,69.22-68.7,119.89-73.29ZM117.26,1076.15c-4.8-14.82-7.4-30.59-7.4-46.95s2.6-32.13,7.4-46.95v93.9ZM155.12,1120.23h240.38c-28.72,38.82-75.29,64.11-127.76,64.11-.54,0-1.07-.01-1.61-.02l-111.01-64.09ZM223.31,1178.08c-25.15-7.26-47.71-20.52-65.97-38.09l65.97,38.09ZM409.32,1128.43l61.82,107.07h123.31c-11.2,22.6-17.49,47.97-17.49,74.75,0,21.05,3.89,41.22,10.98,59.86l-296.76-171.34c48.6-6.47,90.89-32.78,118.14-70.35ZM592.95,1310.25c0-24.08,5.61-46.9,15.62-67.25l120.4,208.54-117.03-67.56c-12.11-21.94-18.99-47.06-18.99-73.72ZM713.26,1460.95c-30.3-7.3-57.19-23.21-77.83-44.93l77.83,44.93ZM772.68,1451.54l120.4-208.54c10.01,20.36,15.62,43.17,15.62,67.25,0,26.67-6.88,51.78-18.99,73.72l-117.03,67.56ZM866.22,1416.01c-20.64,21.73-47.53,37.64-77.83,44.94l77.83-44.94ZM907.21,1235.5h123.31l61.92-107.24c27.52,37.6,70.12,63.81,119.02,69.96l-297.74,171.9c7.09-18.64,10.98-38.81,10.98-59.86,0-26.79-6.29-52.15-17.49-74.75ZM1233.6,1183.59c-52.13,0-98.44-24.97-127.2-63.37h240.14l-109.69,63.33c-1.08.02-2.17.04-3.25.04ZM1341.44,1141.64c-16.96,15.61-37.42,27.6-60.08,34.69l60.08-34.69ZM1384.39,1074.43v-91.95c4.6,14.53,7.08,29.98,7.08,45.98s-2.48,31.44-7.08,45.98ZM1368.39,1082.37l-120.32-208.4c50.93,4.57,94.94,33,120.32,73.8v134.6ZM1248.5,857.94l61.71-106.89-61.89-107.19c48.2-3.79,90.93-27.01,120.06-61.69v338.3c-28.96-34.96-71.64-58.48-119.89-62.53ZM1248.26,627.81l120.13-208.07v135.42c-25.59,40.3-69.46,68.28-120.13,72.65ZM1384.39,424.97c5.08,15.21,7.84,31.44,7.84,48.3s-2.76,33.09-7.84,48.3v-96.6ZM1256.3,243.7c27.24,27.24,52.04,56.33,74.32,87.13-25.96-17.05-56.81-27.41-90.01-28.57l-338.73-195.57c-17.28-29.52-43.26-53.52-74.46-68.58,69.35,7.42,136.79,24.86,201.29,52.14,85.26,36.06,161.84,87.69,227.6,153.45ZM243.7,243.7c65.76-65.76,142.33-117.39,227.6-153.45,65.37-27.65,133.76-45.19,204.1-52.44-31.3,14.96-57.38,38.9-74.77,68.39l-338.18,195.25c-34.73.97-66.93,12.02-93.71,30.27,22.45-31.12,47.46-60.51,74.96-88.01ZM33.98,750c0-96.67,18.93-190.43,56.26-278.7,1.19-2.81,2.4-5.61,3.62-8.4-.18,3.18-.28,6.38-.28,9.61,0,31.38,8.63,60.81,23.67,86.13v384.89c-14.87,25.21-23.4,54.47-23.4,85.67,0,2.81.07,5.6.21,8.38-1.29-2.95-2.57-5.9-3.83-8.87-37.33-88.27-56.26-182.04-56.26-278.7ZM243.7,1256.3c-26.62-26.62-50.93-55.02-72.82-85.05,26.13,17.32,57.27,27.83,90.8,28.97l338.53,195.45c16.38,27.88,40.53,50.81,69.51,65.92-68.35-7.59-134.81-24.94-198.42-51.84-85.26-36.06-161.84-87.69-227.6-153.45ZM1256.3,1256.3c-65.76,65.76-142.34,117.39-227.6,153.45-62.95,26.62-128.7,43.88-196.3,51.6,28.77-15.11,52.75-37.94,69.04-65.68l339.93-196.26c32.23-1.4,62.21-11.49,87.58-27.93-21.85,29.94-46.1,58.26-72.65,84.81ZM1409.75,1028.7c-.79,1.86-1.59,3.71-2.39,5.57.07-1.93.11-3.87.11-5.82,0-30.97-8.4-60.04-23.08-85.13v-383.63c15.14-25.38,23.84-54.91,23.84-86.41,0-1.93-.04-3.85-.11-5.76.54,1.26,1.09,2.52,1.63,3.78,37.33,88.27,56.26,182.04,56.26,278.7s-18.93,190.43-56.26,278.7Z"/></svg>