<?xml version="1.0" encoding="UTF-8"?><svg id="Layer_2" xmlns="http://www.w3.org/2000/svg" xmlns:xlink="http://www.w3.org/1999/xlink" viewBox="0 0 1500 1500"><defs><style>.cls-1{fill:url(#New_Gradient_Swatch_2);stroke-width:0px;}</style><linearGradient id="New_Gradient_Swatch_2" x1="125.19" y1="1110.73" x2="1374.81" y2="389.27" gradientUnits="userSpaceOnUse"><stop offset="0" stop-color="#56450d"/><stop offset=".21" stop-color="#e5c787"/><stop offset=".39" stop-color="#f7d976"/><stop offset=".99" stop-color="#725728"/></linearGradient></defs><path class="cls-1" d="M239.97,1260.03c66.24,66.24,143.38,118.25,229.27,154.58,88.93,37.61,183.39,56.69,280.76,56.69s191.83-19.07,280.76-56.69c85.89-36.33,163.03-88.34,229.27-154.58s118.25-143.38,154.58-229.27c37.61-88.93,56.69-183.39,56.69-280.76s-19.07-191.83-56.69-280.76c-36.33-85.89-88.34-163.03-154.58-229.27s-143.38-118.25-229.27-154.58c-88.93-37.61-183.39-56.69-280.76-56.69s-191.83,19.07-280.76,56.69c-85.89,36.33-163.03,88.34-229.27,154.58s-118.25,143.38-154.58,229.27c-37.61,88.93-56.69,183.39-56.69,280.76s19.07,191.83,56.69,280.76c36.33,85.89,88.34,163.03,154.58,229.27ZM615.46,179.24c0-74.05,60.24-134.29,134.29-134.29s134.29,60.24,134.29,134.29c0,2.47-.07,4.92-.2,7.35-18.6-4.4-37.42-7.88-56.42-10.41-.93-42.05-35.4-75.97-77.66-75.97s-76.77,33.96-77.67,76.04c-19,2.55-37.82,6.04-56.41,10.46-.14-2.47-.21-4.96-.21-7.47ZM1244.27,1169.84c-27.14,0-52.42-8.1-73.57-22,13.46-14.22,26.14-29.03,38.01-44.4,10.82,5.72,23.13,8.98,36.2,8.98,42.85,0,77.71-34.86,77.71-77.71,0-27.69-14.57-52.03-36.43-65.79,7.14-17.47,13.39-35.19,18.75-53.15,43.65,22.2,73.62,67.55,73.62,119.78,0,74.05-60.24,134.29-134.29,134.29ZM220.41,984.39c16.76,37.84,37.35,73.51,61.6,106.7-8.44,4.34-17.99,6.8-28.12,6.8-34.03,0-61.71-27.68-61.71-61.71,0-21.69,11.26-40.79,28.23-51.8ZM1113.25,540.13c11.04,19.49,17.35,42,17.35,65.95,0,46.56-23.82,87.65-59.91,111.75l-27.85-48.24c19.29-14.15,31.85-36.98,31.85-62.68,0-29.63-16.67-55.43-41.12-68.53,4.93-18.93,7.99-38.45,9.06-58.35,28.5,10.51,52.48,30.42,68.17,55.95.82,1.38,1.65,2.76,2.45,4.16ZM1306.62,1034.7c0,34.03-27.68,61.71-61.71,61.71-9.46,0-18.42-2.15-26.44-5.96,24.16-33.17,44.67-68.79,61.36-106.59,16.17,11.14,26.79,29.77,26.79,50.84ZM1183.86,1043.6h46.69c-7.98,13.05-16.49,25.77-25.52,38.13-11.19-9.51-18.96-22.93-21.16-38.13ZM1110.23,1027.6c1.1-18.75,6.06-36.47,14.1-52.39l49.35,28.5c-3.25,7.44-5.37,15.47-6.13,23.9h-57.32ZM1085.02,1027.6c3.58-4.3,7.05-8.68,10.45-13.1-.61,4.31-1.04,8.68-1.27,13.1h-9.18ZM749.73,1309.88c-73.5,0-142.61-28.62-194.58-80.6-38.2-38.2-63.76-85.66-74.64-137.31,30.42,23.99,63.8,43.74,99.73,58.93,53.69,22.71,110.73,34.23,169.51,34.23s115.82-11.52,169.51-34.23c35.91-15.19,69.28-34.92,99.69-58.9-10.88,51.64-36.45,99.08-74.64,137.27-51.97,51.97-121.08,80.6-194.58,80.6ZM405.28,1027.6c-.21-4.4-.62-8.74-1.2-13.03,3.38,4.4,6.84,8.75,10.4,13.03h-9.2ZM331.11,1027.6c-.92-8.32-3.16-16.24-6.51-23.56l50.64-29.21c8.06,16.03,13,33.89,14.02,52.77h-58.15ZM314.99,1027.6h-31.22l26.92-15.53c2.08,4.89,3.54,10.1,4.3,15.53ZM455.91,481.66c1.16,19.51,4.22,38.65,9.1,57.22-23.95,13.25-40.21,38.78-40.21,68.03,0,25.5,12.34,48.16,31.37,62.34l-28.4,49.19c-35.53-24.19-58.91-64.95-58.91-111.08,0-57.43,36.24-106.55,87.05-125.71ZM689.74,192.28c7.65-1.66,15.39-3,23.21-4.01,7.13-.46,14.29-.79,21.47-.98l-22.65,39.22c-10.81-8.47-18.74-20.46-22.03-34.23ZM809.7,192.49c-3.38,13.89-11.46,25.95-22.46,34.39l-22.88-39.63c6.62.16,13.22.45,19.8.84,8.61,1.07,17.13,2.55,25.54,4.4ZM1034.78,655.64l-28.46-49.29c9.25-16.63,16.83-34.09,22.66-52.19,17.8,10.84,29.71,30.43,29.71,52.75,0,19.79-9.38,37.43-23.91,48.73ZM899.54,1027.6c-.34-7.84-1.29-15.53-2.79-23.01.06-.04.12-.07.18-.11,10.3,9.2,21.86,17.01,34.39,23.12h-31.78ZM749.4,1168.56c-70.91,0-129.15-55.25-133.96-124.96h57.1c4.43,38.67,37.34,68.82,77.19,68.82s72.76-30.14,77.18-68.82h56.45c-4.81,69.71-63.05,124.96-133.96,124.96ZM568.24,1027.6c12.27-6,23.61-13.62,33.74-22.58-1.46,7.35-2.37,14.89-2.71,22.58h-31.03ZM390.78,966.89c-.15-.25-.3-.52-.45-.77l95.68-55.2c-15.87,33.76-25.12,70.49-27.06,108.57-28.06-9.65-51.95-28.35-68.16-52.61ZM368.22,892.47c0-57.59,36.45-106.83,87.49-125.87,2.38,43.69,14.28,85.6,34.7,123.32l-108.06,62.34c-.19-.35-.39-.69-.58-1.04-8.68-17.76-13.55-37.69-13.55-58.75ZM440.8,606.91c0-21.95,11.53-41.25,28.84-52.19,5.84,18.01,13.42,35.39,22.66,51.95l-28.06,48.6c-14.26-11.31-23.44-28.78-23.44-48.36ZM614.93,463.79c0-68.47,51.51-125.13,117.81-133.28,2.88-.11,5.77-.2,8.66-.25v126.16c-43.88,1.13-86.14,11.83-124.37,31.11-1.38-7.71-2.1-15.64-2.1-23.74ZM883.51,463.79c0,8.11-.72,16.06-2.11,23.78-38.12-19.24-80.25-29.94-124-31.13v-126.19c2.59.05,5.17.11,7.75.2,66.56,7.91,118.36,64.68,118.36,133.34ZM1131.24,892.42c0,21.47-5.07,41.77-14.07,59.79-.05.1-.11.2-.17.3l-108.89-62.87c20.4-37.77,32.25-79.73,34.57-123.48,51.6,18.75,88.55,68.27,88.55,126.27ZM996.95,1026.7c-32.6,0-62.52-11.68-85.8-31.07,16.33-10.83,31.7-23.37,45.88-37.54,14.6-14.61,27.47-30.49,38.52-47.38,17.6,34.82,27.59,73.21,29.13,113.1-8.95,1.89-18.22,2.88-27.72,2.88ZM474.78,1023.87c1.52-39.55,11.34-77.62,28.66-112.2,10.91,16.54,23.56,32.09,37.9,46.43s29.96,27.04,46.53,37.96c-23.22,19.17-52.97,30.69-85.36,30.69-9.5,0-18.78-1-27.73-2.89ZM551.46,569.41l-24.9,14.38c5.65-7.53,11.72-14.8,18.18-21.81,2.43,2.29,4.68,4.77,6.72,7.43ZM954.15,562.55c5.93,6.46,11.52,13.16,16.76,20.07l-22.89-13.21c1.87-2.44,3.92-4.73,6.12-6.86ZM552.65,946.78c-10.11-10.11-19.33-20.87-27.66-32.17l89.59,51.73c-4.35,6.58-9.26,12.76-14.67,18.47-16.9-10.8-32.75-23.51-47.27-38.03ZM615.46,749.65c0-7.85.68-15.55,1.98-23.04,21.44,10.78,44.15,18.86,67.7,24.07-23.42,5.28-45.98,13.43-67.28,24.27-1.57-8.2-2.4-16.65-2.4-25.3ZM884.03,749.65c0,8.65-.83,17.11-2.4,25.31-21.46-10.92-44.2-19.12-67.8-24.4,23.71-5.29,46.57-13.51,68.13-24.45,1.36,7.64,2.07,15.51,2.07,23.54ZM621.94,790.87c27.98-14.71,58.35-24.45,90.02-28.77l-82.35,47.51c-3.01-6.01-5.58-12.27-7.67-18.74ZM877.55,790.88c-2.11,6.52-4.7,12.83-7.74,18.88l-82.61-47.7c31.79,4.3,62.27,14.06,90.35,28.82ZM782.92,739.63l86.87-50.11c3.3,6.57,6.09,13.45,8.29,20.58-29.51,15.48-61.65,25.51-95.16,29.54ZM621.26,710.57c2.22-7.28,5.04-14.29,8.41-20.99l86.9,50.18c-33.55-3.9-65.73-13.81-95.3-29.18ZM602.04,802.42c4.52,4.99,8.66,10.32,12.4,15.95l-81.82,47.2c6.93-8.86,14.45-17.35,22.53-25.43,14.4-14.4,30.13-27.01,46.89-37.71ZM741.4,763.59v120.09c-43.34-2.67-81.18-25.99-103.78-60.21l103.78-59.87ZM757.4,763.33l104.38,60.27c-22.74,34.33-60.81,57.66-104.38,60.12v-120.39ZM896.8,718.6c15.52,13.74,33.89,24.33,54.11,30.75-20.21,6.52-38.56,17.21-54.04,31.05,2.07-9.93,3.17-20.22,3.17-30.75s-1.12-21.03-3.23-31.06ZM757.4,735.89v-120.3c43.56,2.46,81.62,25.77,104.36,60.09l-104.36,60.21ZM741.4,735.62l-103.71-59.89c22.61-34.17,60.42-57.43,103.71-60.1v119.99ZM602.65,780.5c-15-13.43-32.71-23.91-52.2-30.49,19.34-6.43,36.95-16.69,51.92-29.88-1.91,9.55-2.92,19.42-2.92,29.52s1.1,20.89,3.19,30.85ZM590.32,790.95c-16.57,10.88-32.15,23.52-46.49,37.86-12.39,12.39-23.51,25.71-33.33,39.78v-110.17c30.41,1.8,58.14,13.75,79.82,32.53ZM622.48,832.19c9.15,18.14,14.31,38.61,14.31,60.27s-5.12,41.96-14.19,60.03l-104.29-60.21,104.17-60.09ZM649.6,861.61c14.85,13.3,32.36,23.7,51.61,30.29-19.11,6.48-36.49,16.72-51.29,29.81,1.87-9.46,2.87-19.24,2.87-29.25,0-10.57-1.1-20.89-3.19-30.85ZM849.83,861.66c-2.07,9.93-3.17,20.22-3.17,30.75s1.04,20.31,3.01,30.01c-14.88-13.36-32.43-23.8-51.75-30.4,19.37-6.57,36.97-17,51.9-30.36ZM897.39,802.4c16.77,10.71,32.51,23.32,46.92,37.73,8.2,8.2,15.82,16.84,22.84,25.85l-82.24-47.49c3.76-5.68,7.93-11.05,12.48-16.08ZM955.62,828.81c-14.35-14.35-29.94-27-46.52-37.88,21.69-18.8,49.44-30.77,79.88-32.56v110.27c-9.83-14.09-20.96-27.43-33.36-39.83ZM910.66,709.43c16.05-10.59,31.17-22.84,45.14-36.66,9.81,6.16,21.08,10.2,33.18,11.44v55.96c-29.67-1.6-56.82-12.88-78.32-30.74ZM967.17,660.91c7.85-8.66,15.12-17.72,21.81-27.11v34.28c-7.82-1.02-15.19-3.5-21.81-7.17ZM954.23,651.34c-2.24-2.16-4.32-4.48-6.21-6.95l23.13-13.34c-5.29,6.99-10.93,13.76-16.91,20.29ZM943.09,662.81c-13.74,13.4-28.63,25.21-44.44,35.34-5.07-5.37-9.7-11.15-13.83-17.3l49.25-28.41c2.7,3.72,5.72,7.19,9.02,10.37ZM849.26,637.13c-15.32-13.56-33.42-24.05-53.32-30.5,19.83-6.5,37.86-17.02,53.11-30.6-1.98,9.71-3.02,19.76-3.02,30.04s1.12,21.03,3.23,31.06ZM757.4,597.82v-120l103.83,59.95c-22.65,34.18-60.5,57.43-103.83,60.05ZM741.4,597.84c-43.3-2.5-81.16-25.6-103.9-59.63l103.9-59.99v119.62ZM703.03,606.81c-19.58,6.42-37.39,16.75-52.52,30.08,1.91-9.55,2.92-19.42,2.92-29.52s-1.08-20.66-3.12-30.52c15.19,13.3,33.07,23.6,52.71,29.96ZM601.17,699.04c-16.13-10.2-31.31-22.14-45.31-35.72,3.5-3.31,6.7-6.95,9.53-10.85l49.83,28.77c-4.19,6.33-8.89,12.28-14.06,17.8ZM544.71,651.87c-6.47-7.02-12.55-14.32-18.21-21.87l24.96,14.41c-2.05,2.67-4.31,5.16-6.76,7.46ZM531.62,661.3c-6.44,3.46-13.57,5.8-21.12,6.78v-32.83c6.51,9.02,13.54,17.72,21.12,26.05ZM543.05,673.17c14.28,14.06,29.74,26.49,46.16,37.19-21.56,18.05-48.85,29.47-78.71,31.09v-57.24c11.83-1.22,22.88-5.1,32.55-11.04ZM741.4,900.22v57.22c-22.53,2.41-42.2,14.5-54.79,32.01l-49.58-28.63c22.64-34.52,60.73-58.03,104.37-60.6ZM741.4,973.57v47.51l-40.86-23.59c9.69-12.78,24.23-21.67,40.86-23.92ZM718.86,1026.54c-9.95-1.07-19.78-2.67-29.46-4.78.77-3.58,1.85-7.05,3.21-10.38l26.25,15.16ZM780.9,1026.39l25.96-14.99c1.33,3.25,2.39,6.64,3.15,10.14-9.57,2.13-19.28,3.73-29.11,4.84ZM757.4,1021.48v-47.99c16.91,2.11,31.71,11.07,41.52,24.02l-41.52,23.97ZM757.4,957.38v-57.15c43.76,2.58,81.95,26.21,104.56,60.89l-49.11,28.35c-12.71-17.68-32.64-29.84-55.45-32.09ZM862.66,892.42c0-21.59,5.13-42,14.22-60.09l104.07,60.09-104.07,60.09c-9.09-18.09-14.22-38.5-14.22-60.09ZM1004.98,641.23c3.48,8.15,6.55,16.47,9.23,24.93-2.99.87-6.07,1.52-9.23,1.93v-26.86ZM980.98,606.91l-40.99,23.64c-3.03-7.29-4.72-15.27-4.72-23.64s1.69-16.37,4.72-23.66l40.98,23.66ZM926.06,638.59l-49.36,28.48c-9.38-18.31-14.67-39.05-14.67-60.99s5.06-41.74,14.05-59.74l50,28.87c-4.35,9.69-6.79,20.42-6.79,31.71s2.44,22,6.78,31.68ZM869.26,523.93l-85.8-49.54c33.09,4.05,64.84,13.95,94.03,29.18-2.19,7.05-4.96,13.85-8.23,20.36ZM629.41,524.4c-3.38-6.66-6.23-13.63-8.47-20.87,29.58-15.42,61.79-25.36,95.36-29.3l-86.88,50.16ZM637.43,607.36c0,21.56-5.12,41.95-14.19,60.03l-49.83-28.77c4.35-9.69,6.79-20.42,6.79-31.71s-2.44-22.02-6.79-31.71l49.48-28.56c9.29,18.25,14.54,38.89,14.54,60.73ZM564.21,606.91c0,8.38-1.69,16.37-4.73,23.67l-40.98-23.67,40.99-23.66c3.04,7.29,4.72,15.28,4.72,23.66ZM494.5,638.59v29.49c-3.52-.46-6.95-1.2-10.26-2.22,2.94-9.27,6.36-18.37,10.26-27.27ZM494.5,758.42v103.49c-13.74-31.31-21.59-65.13-23.01-100.11,7.45-1.77,15.14-2.91,23.01-3.38ZM629.07,974.71l49.59,28.63c-2.06,4.64-3.67,9.51-4.79,14.58-18.52-5.18-36.39-12.28-53.41-21.19,2.23-7.64,5.12-15,8.61-22.01ZM730.65,1043.6c6.14.38,12.32.59,18.53.59.08,0,.16,0,.23,0l.33.19.35-.2c5.9-.02,11.77-.22,17.62-.58h43.08c-4.32,29.83-30.05,52.82-61.06,52.82s-56.74-22.99-61.06-52.82h41.98ZM820.81,1003.35l49.08-28.34c3.39,6.86,6.21,14.05,8.39,21.51-16.81,8.84-34.47,15.9-52.76,21.09-1.12-4.95-2.7-9.72-4.71-14.26ZM884.9,966.34l87.64-50.6c-8.1,10.89-17.06,21.26-26.83,31.04-14.32,14.32-29.93,26.86-46.55,37.56-5.24-5.57-10.02-11.6-14.26-18ZM1004.98,859.28v-100.9c7.48.44,14.79,1.5,21.89,3.12-1.35,34.11-8.82,67.13-21.89,97.78ZM1004.98,740.08v-55.87c4.67-.48,9.22-1.4,13.61-2.67,4.55,17.96,7.31,36.48,8.2,55.34-7.07,1.65-14.36,2.73-21.81,3.21ZM934.09,561.36l-50.03-28.89c4.04-6.15,8.58-11.94,13.54-17.33,16.18,10.26,31.39,22.28,45.42,35.94-3.26,3.16-6.25,6.59-8.93,10.27ZM600.7,515.18c5.17,5.47,9.89,11.38,14.1,17.66l-49.4,28.52c-2.83-3.9-6.01-7.51-9.5-10.82,13.86-13.42,28.86-25.25,44.79-35.36ZM501.72,590.35c-6.99-13.63-12.81-27.8-17.43-42.4,5.76-1.78,11.88-2.75,18.22-2.75,8.04,0,15.71,1.56,22.76,4.37l-23.55,40.78ZM494.5,684.21v57.16c-7.86-.5-15.54-1.68-22.98-3.48.84-19.31,3.64-38.27,8.32-56.65,4.72,1.44,9.62,2.45,14.66,2.97ZM616.83,1012.87c11.2,5.66,22.75,10.57,34.57,14.73h-36.12c.25-4.99.77-9.9,1.55-14.73ZM846.96,1027.6c11.97-4.21,23.66-9.2,34.98-14.94.8,4.9,1.33,9.88,1.58,14.94h-36.57ZM1013.6,911.27l95.39,55.08c-16.22,24.49-40.23,43.38-68.49,53.1-1.95-37.94-11.14-74.53-26.9-108.18ZM1043.11,749.39c0-.16,0-.33,0-.49,7.54-2.48,14.82-5.53,21.79-9.11l16.3,28.23c-11.64-7.9-24.43-14.21-38.08-18.63ZM1042.55,732.16c-.81-13.51-2.52-26.86-5.13-39.95l19.46,33.7c-4.63,2.35-9.41,4.44-14.33,6.25ZM996.9,590.02l-23.23-40.23c7.2-2.95,15.07-4.59,23.32-4.59,5.99,0,11.78.87,17.26,2.47-4.6,14.58-10.39,28.74-17.35,42.35ZM996.99,529.2c-11.16,0-21.77,2.38-31.37,6.64l-28.91-50.07c17.97-8.94,38.21-13.98,59.6-13.98,10.5,0,20.71,1.21,30.52,3.5-.79,19.43-3.55,38.51-8.22,57-6.87-2-14.13-3.09-21.63-3.09ZM943.72,529.91c-10.86-9.61-22.31-18.34-34.28-26.16,4.24-3.61,8.71-6.96,13.39-10.02l20.89,36.18ZM896.49,493.83c1.98-9.71,3.02-19.76,3.02-30.04,0-3.76-.14-7.48-.42-11.17l15.73,27.24c-6.47,4.19-12.59,8.87-18.33,13.97ZM831.55,338.12c.54.11,1.08.21,1.62.32l.72,1.25c-.77-.53-1.56-1.05-2.34-1.57ZM807.55,317.96c3.7-1.55,7.33-3.24,10.87-5.07l4.23,7.33c-5.02-.84-10.05-1.6-15.1-2.27ZM757.4,313.31v-58.06c8.49-.83,16.57-3.05,24.04-6.41l28.97,50.18c-16.09,8.18-34.03,13.21-53.01,14.28ZM757.4,239.14v-31.94l16,27.71c-5.03,2.1-10.4,3.53-16,4.23ZM741.4,207.2v31.85c-5.55-.75-10.88-2.24-15.86-4.37l15.86-27.48ZM741.4,255.18v58.09c-18.94-1.17-36.83-6.27-52.86-14.51l28.96-50.16c7.42,3.4,15.46,5.67,23.9,6.58ZM691.94,317.96c-5.31.7-10.6,1.5-15.87,2.4l4.47-7.74c3.71,1.93,7.51,3.72,11.4,5.34ZM666.45,338.41c-.43.29-.87.57-1.3.86l.39-.67c.3-.06.61-.13.91-.19ZM602.05,494.3c-5.77-5.06-11.93-9.68-18.43-13.81l15.68-27.16c-.24,3.46-.37,6.95-.37,10.46,0,10.45,1.08,20.66,3.12,30.52ZM588.68,503.91c-11.55,7.56-22.61,15.97-33.13,25.2l20.07-34.76c4.55,2.93,8.91,6.12,13.06,9.56ZM533.33,535.59c-9.46-4.1-19.88-6.39-30.83-6.39-7.86,0-15.45,1.18-22.61,3.36-4.59-18.09-7.36-36.75-8.23-55.75,10.1-2.44,20.64-3.74,31.48-3.74,20.97,0,40.82,4.83,58.52,13.44l-28.34,49.08ZM460.72,693.36c-2.54,13-4.19,26.24-4.96,39.65-4.89-1.85-9.65-3.98-14.25-6.37l19.22-33.29ZM455.2,749.81c-13.66,4.54-26.45,11-38.07,19.04l16.36-28.34c6.94,3.64,14.19,6.77,21.7,9.3ZM434.64,1026.53c.71.36,1.42.71,2.14,1.06h-1.19c-.31-.35-.63-.71-.94-1.06ZM458.7,1043.6c.08,2.84.22,5.66.38,8.49-2-1.92-3.99-3.85-5.95-5.81-.88-.88-1.74-1.79-2.61-2.67h8.18ZM474.71,1043.6h124.7c3.05,49.63,30.3,92.81,70.06,117.89-28.4-5.5-56.14-13.95-83.01-25.31-40.15-16.98-77-39.87-109.93-68.2-.96-8.05-1.57-16.19-1.83-24.38ZM913.02,1136.17c-27.18,11.5-55.26,20.01-84.01,25.51,39.93-25.04,67.31-68.32,70.38-118.08h125.35c-.26,8.2-.87,16.35-1.83,24.41-32.92,28.31-69.76,51.19-109.89,68.16ZM1040.76,1043.6h8.22c-.87.89-1.73,1.79-2.61,2.67-1.98,1.98-3.98,3.92-5.99,5.85.17-2.83.3-5.67.38-8.52ZM1062.58,1027.6c.8-.39,1.59-.78,2.38-1.18-.35.4-.7.79-1.05,1.18h-1.33ZM1187.65,1011.77l27.42,15.83h-31.43c.64-5.53,2.01-10.84,4.02-15.83ZM1244.66,1019.16l-23.82-41.27c7.4-3.15,15.54-4.89,24.08-4.89,7.24,0,14.19,1.26,20.65,3.56-6.39,14.53-13.36,28.74-20.9,42.59ZM1223.06,1013.74l-27.58-15.92c3.31-4.43,7.22-8.39,11.58-11.79l16,27.71ZM1181.57,989.78l-49.18-28.4c10.09-15.17,23.17-28.17,38.41-38.17l28.21,48.86c-6.71,4.93-12.6,10.92-17.43,17.72ZM1151.85,917.12c2.19-5.26,4.28-10.55,6.26-15.87l4.67,8.09c-3.76,2.44-7.41,5.03-10.93,7.79ZM1147.04,884.64c-.05-.96-.12-1.92-.18-2.88l.73,1.27c-.18.54-.37,1.08-.55,1.61ZM1078.7,731.71c39.08-25.72,65.5-69.15,67.74-118.79,15.13,43.83,22.79,89.7,22.79,136.74,0,38.43-5.11,76.08-15.23,112.47l-75.3-130.42ZM1043.08,463.25c0-4.6-.12-9.18-.34-13.75,1.21,1.18,2.43,2.34,3.62,3.54,6.16,6.16,12.08,12.5,17.81,18.97-6.75-3.43-13.8-6.37-21.1-8.76ZM1027.03,458.95c-9.92-2.07-20.19-3.16-30.72-3.16-24.31,0-47.28,5.81-67.62,16.1l-74.22-128.56c19.91,5.12,39.45,11.73,58.55,19.81,41.17,17.41,78.86,41.03,112.42,70.36.91,8.41,1.44,16.9,1.58,25.45ZM919.26,348.4c-24.61-10.41-49.93-18.46-75.8-24.14l-11.23-19.45c28.19-18.58,49.79-46.4,60.44-79.11,19.06,11.53,36.87,25.45,53.03,41.61,39.48,39.48,65.61,88.74,76.13,142.31-31.19-25.02-65.52-45.55-102.58-61.23ZM824.22,290.93l-28.93-50.1c14.67-10.65,25.48-26.3,29.92-44.42,18.45,5.21,36.26,12.33,53.21,21.25-9.05,30.27-28.51,56.08-54.21,73.27ZM785.7,172.15c-12.01-1.48-24.18-2.23-36.48-2.23s-25.43.82-37.91,2.42c-7.75.51-15.47,1.17-23.16,1.98,1.87-32.36,28.78-58.11,61.6-58.11s59.7,25.73,61.59,58.06c-8.51-.89-17.06-1.6-25.64-2.12ZM674.21,196.12c4.35,18.05,15,33.66,29.5,44.36l-28.94,50.12c-25.59-17.28-44.92-43.14-53.85-73.42,16.98-8.86,34.81-15.92,53.29-21.07ZM666.76,304.48l-11.52,19.96c-25.59,5.67-50.64,13.66-75.01,23.96-37.54,15.88-72.3,36.75-103.81,62.22,10.4-53.96,36.6-103.59,76.32-143.31,16.41-16.41,34.5-30.51,53.9-42.14,10.53,32.75,32.02,60.63,60.12,79.32ZM586.47,363.13c18.84-7.97,38.12-14.5,57.74-19.59l-74.53,129.09c-20.07-9.95-42.66-15.56-66.53-15.56-10.89,0-21.51,1.18-31.75,3.39.1-8.72.6-17.37,1.49-25.93,33.85-29.8,71.94-53.78,113.58-71.39ZM455.37,464.86c-7.68,2.58-15.08,5.77-22.15,9.5,6.37-7.31,13-14.43,19.91-21.33.84-.84,1.69-1.65,2.53-2.47-.19,4.39-.3,8.8-.3,13.23,0,.36.01.72.01,1.07ZM352.98,613.13c1.88,49.65,27.96,93.21,66.77,119.2l-74.47,128.99c-9.97-36.14-15.01-73.52-15.01-111.66,0-46.97,7.64-92.76,22.71-136.52ZM352.7,880.46c-.11,1.36-.2,2.73-.27,4.11-.26-.76-.52-1.53-.77-2.3l1.04-1.81ZM347.27,916.23c-3.48-2.71-7.08-5.27-10.8-7.67l4.64-8.04c1.95,5.27,4,10.5,6.16,15.71ZM367.22,960.98l-50.71,29.26c-4.84-6.57-10.68-12.35-17.31-17.12l29.26-50.68c15.4,10.07,28.61,23.21,38.76,38.54ZM302.54,998.29l-26.8,15.46,15.42-26.71c4.26,3.24,8.09,7.03,11.38,11.25ZM254.76,1018.09c-7.16-13.22-13.79-26.76-19.9-40.59,6-1.95,12.39-3.02,19.04-3.02,8.27,0,16.17,1.65,23.38,4.61l-22.52,39ZM269.46,1043.6h45.68c-1.82,15.17-9.16,28.66-19.96,38.4-9.11-12.45-17.69-25.26-25.73-38.4ZM331.24,1043.6h57.93c-2.42,37.63-20.39,71.08-47.55,93.99-13.02-13.71-25.29-27.98-36.79-42.79,14.63-12.73,24.47-30.83,26.4-51.2ZM405.2,1043.6h23.24c4.35,4.74,8.79,9.41,13.37,13.99,6.38,6.38,12.94,12.51,19.65,18.45,8.77,62.1,37.25,119.44,82.38,164.57,25.29,25.29,54.43,45.35,86.08,59.64-33.81-7.35-66.9-17.84-99.05-31.44-66.65-28.19-126.54-68.48-178.04-119.75,30.14-25.82,49.97-63.34,52.38-105.46ZM955.62,1240.6c45.12-45.12,73.59-102.45,82.37-164.53,6.72-5.95,13.3-12.09,19.68-18.48,4.57-4.57,9.02-9.24,13.37-13.99h23.16c2.25,42.35,22.11,80.1,52.37,106.05-51.37,50.99-111.05,91.08-177.44,119.15-32.49,13.74-65.93,24.31-100.1,31.67,31.85-14.31,61.16-34.45,86.59-59.88ZM1110.23,1043.6h57.5c2.34,20.41,12.6,38.45,27.65,50.93-11.73,15.12-24.26,29.7-37.58,43.67-27.3-23.03-45.32-56.73-47.57-94.61ZM1271.81,961.8c-8.38-3.1-17.44-4.8-26.89-4.8-11.45,0-22.32,2.51-32.12,6.98l-28.14-48.73c17.97-8.94,38.21-13.98,59.61-13.98,16.11,0,31.56,2.85,45.89,8.08-5.23,17.73-11.35,35.22-18.36,52.46ZM1244.27,885.26c-24.31,0-47.29,5.81-67.62,16.1l-11.64-20.16c13.42-42.34,20.22-86.42,20.22-131.55,0-58.79-11.51-115.82-34.23-169.51-7.02-16.6-15.02-32.65-23.95-48.12-.8-1.41-1.63-2.81-2.47-4.2-18.51-31.25-40.87-60.08-66.9-86.11-5.55-5.55-11.25-10.93-17.05-16.15-8.26-64.01-37.22-123.19-83.61-169.58-18.21-18.21-38.4-33.72-60.07-46.36.21-1.01.4-2.03.59-3.06,24.31,6.59,48.2,14.84,71.6,24.74,67.04,28.35,127.25,68.95,178.95,120.66s92.3,111.92,120.66,178.95c29.36,69.4,44.24,143.13,44.24,219.14,0,49.08-6.22,97.2-18.52,143.83-15.71-5.58-32.6-8.63-50.2-8.63ZM602.44,209.09c-22.03,12.74-42.54,28.43-61.01,46.91-46.65,46.65-75.67,106.22-83.75,170.64-5.39,4.89-10.69,9.91-15.86,15.09-39.99,39.99-71.39,86.56-93.32,138.42-22.71,53.69-34.23,110.73-34.23,169.51,0,44.85,6.71,88.68,19.97,130.78l-11.65,20.18c-20.29-10.23-43.19-15.99-67.41-15.99-17.46,0-34.24,3-49.84,8.51-12.17-46.39-18.32-94.26-18.32-143.07,0-76.01,14.88-149.73,44.24-219.14,28.35-67.04,68.95-127.25,120.66-178.95s111.92-92.3,178.95-120.66c23.25-9.83,46.98-18.03,71.12-24.6.15.79.3,1.59.46,2.37ZM255.17,900.62c21.31,0,41.48,5,59.4,13.88l-29.24,50.65c-9.62-4.27-20.25-6.67-31.44-6.67-8.86,0-17.38,1.51-25.32,4.26-7.27-17.79-13.58-35.85-18.95-54.16,14.23-5.15,29.57-7.96,45.55-7.96ZM214.05,969.5c-22.67,13.59-37.87,38.39-37.87,66.69,0,42.85,34.86,77.71,77.71,77.71,13.74,0,26.64-3.6,37.85-9.88,11.57,14.94,23.9,29.34,36.97,43.19-21.14,13.89-46.41,21.98-73.54,21.98-74.05,0-134.29-60.24-134.29-134.29,0-52.35,30.12-97.8,73.94-119.94,5.48,18.43,11.89,36.62,19.23,54.53ZM1248.72,1248.72c-64.78,64.78-140.2,115.63-224.19,151.15-86.95,36.78-179.31,55.42-274.53,55.42s-187.58-18.65-274.53-55.42c-83.99-35.52-159.41-86.38-224.19-151.15-26.33-26.33-50.36-54.42-72-84.14,22.29,13.09,48.22,20.62,75.89,20.62,31.46,0,60.69-9.72,84.85-26.31.19.19.38.39.57.58,53.17,53.17,115.09,94.92,184.03,124.08,71.39,30.19,147.21,45.5,225.37,45.5s153.98-15.31,225.37-45.5c68.93-29.16,130.84-70.89,184.01-124.05,24.17,16.61,53.42,26.35,84.9,26.35,27.73,0,53.72-7.56,76.04-20.71-21.53,29.51-45.43,57.42-71.6,83.59ZM1248.72,251.28c64.78,64.78,115.63,140.2,151.15,224.19,36.78,86.95,55.42,179.31,55.42,274.53s-18.65,187.58-55.42,274.53c-1.74,4.1-3.52,8.18-5.33,12.24,0-.41.02-.81.02-1.22,0-59.56-34.82-111.14-85.18-135.44,13.03-48.62,19.6-98.83,19.6-150.05,0-78.16-15.31-153.98-45.5-225.37-29.16-68.95-70.91-130.86-124.08-184.03-53.17-53.17-115.09-94.92-184.03-124.08-24.75-10.47-50.03-19.14-75.76-26.02.28-3.74.42-7.51.42-11.32,0-55.96-30.75-104.87-76.23-130.74,69.18,7.16,136.44,24.43,200.73,51.62,83.99,35.52,159.41,86.38,224.19,151.15ZM100.13,475.47c35.52-83.99,86.38-159.41,151.15-224.19,64.78-64.78,140.2-115.63,224.19-151.15,64.1-27.11,131.14-44.36,200.1-51.55-45.42,25.88-76.11,74.76-76.11,130.67,0,3.85.15,7.67.43,11.45-25.56,6.85-50.67,15.48-75.26,25.88-68.95,29.16-130.86,70.91-184.03,124.08-53.17,53.17-94.92,115.09-124.08,184.03-30.19,71.39-45.5,147.21-45.5,225.37,0,50.93,6.51,100.88,19.39,149.25-50.54,24.24-85.53,75.91-85.53,135.6,0,.2,0,.39,0,.59-1.61-3.64-3.21-7.3-4.76-10.97-36.78-86.95-55.42-179.31-55.42-274.53s18.65-187.58,55.42-274.53Z"/></svg>
