<?xml version="1.0" encoding="UTF-8"?><svg id="Layer_2" xmlns="http://www.w3.org/2000/svg" xmlns:xlink="http://www.w3.org/1999/xlink" viewBox="0 0 1500 1500"><defs><style>.cls-1{fill:url(#New_Gradient_Swatch_2);stroke-width:0px;}</style><linearGradient id="New_Gradient_Swatch_2" x1="120.06" y1="1113.85" x2="1380.46" y2="386.16" gradientUnits="userSpaceOnUse"><stop offset="0" stop-color="#56450d"/><stop offset=".21" stop-color="#e5c787"/><stop offset=".39" stop-color="#f7d976"/><stop offset=".99" stop-color="#725728"/></linearGradient></defs><path class="cls-1" d="M1477.72,740.52c-1.2-94.86-20.4-186.9-57.11-273.71-36.64-86.63-89.1-164.44-155.91-231.25-66.81-66.81-144.61-119.27-231.25-155.91-89.7-37.94-184.98-57.18-283.19-57.18s-193.49,19.24-283.19,57.18c-27.19,11.5-53.52,24.57-78.91,39.14,0,0,0,0-.01,0-55.48,31.85-106.49,70.93-152.33,116.76-66.81,66.81-119.27,144.62-155.91,231.25-36.38,86.02-55.55,177.17-57.07,271.12-.19,4-.29,8.02-.29,12.05s.1,8.02.29,12c1.5,93.98,20.67,185.16,57.07,271.21,36.64,86.63,89.1,164.44,155.91,231.25s144.62,119.27,231.25,155.91c89.7,37.94,184.98,57.18,283.19,57.18s193.49-19.24,283.19-57.18c86.63-36.64,164.44-89.1,231.25-155.91s119.27-144.62,155.91-231.25c36.61-86.57,55.8-178.34,57.1-272.92.13-3.35.22-6.7.22-10.07s-.08-6.46-.2-9.68ZM1367.19,958.23c-.36-.24-.73-.48-1.1-.72.21-.14.43-.28.64-.42,22.11-11,45.97-18.43,70.75-21.9-3.85,14.31-8.16,28.5-12.92,42.57-19.98-3.97-39.26-10.57-57.38-19.54ZM1419.21,993.01c-.99,2.72-2,5.44-3.02,8.15-3.45-3.93-7.01-7.73-10.67-11.41,4.53,1.22,9.09,2.31,13.69,3.27ZM1283.64,1196.41c5.72,1.6,11.51,3,17.35,4.19-2.05,2.5-4.12,5-6.21,7.48-3.6-4.02-7.31-7.92-11.14-11.67ZM205.9,1208.26c-2.12-2.51-4.22-5.04-6.3-7.58,5.92-1.19,11.78-2.59,17.57-4.21-3.87,3.79-7.62,7.72-11.26,11.79ZM216.28,302.83c-5.4-1.48-10.85-2.79-16.36-3.9,1.96-2.38,3.93-4.76,5.92-7.12,3.38,3.79,6.86,7.46,10.44,11.02ZM1295,292.19c1.89,2.24,3.76,4.49,5.62,6.75-5.22,1.06-10.4,2.28-15.52,3.68,3.39-3.37,6.69-6.84,9.91-10.43ZM150.53,725.68c36.4,0,71.51,8.34,103.17,24.09-31.66,15.75-66.77,24.09-103.17,24.09s-71.17-8.29-103.03-24.09c31.85-15.79,67.18-24.09,103.03-24.09ZM1154.06,1000.78c40.4,40.4,64.04,93.08,67.48,149.62-17.1-11.45-32.75-25.21-46.44-41.01-33.32-38.46-52.95-86.77-56.1-137.36.19.1.38.19.57.28,12.25,8.28,23.79,17.78,34.48,28.47ZM1030.02,1282.44c-18.34-31.12-29.09-66.22-31.46-102.33,12.78,8.5,24.81,18.33,35.92,29.44,40.18,40.18,63.79,92.51,67.42,148.7-29.3-19.46-53.98-45.43-71.88-75.8ZM399.14,1357.84c3.74-56.01,27.33-108.14,67.39-148.21,10.94-10.94,22.78-20.66,35.36-29.07-2.44,36.04-13.23,71.06-31.59,102.11-17.78,30.07-42.19,55.81-71.17,75.17ZM381.61,971.75c.14-.07.28-.14.42-.21-3.07,51.12-22.95,99.89-56.79,138.61-13.75,15.73-29.43,29.42-46.56,40.79,3.34-56.71,27-109.57,67.51-150.07,10.96-10.96,22.83-20.69,35.43-29.12ZM1102.23,141.16c-3.45,56.53-27.09,109.19-67.48,149.58-11.2,11.2-23.34,21.1-36.25,29.65,2.25-36.46,13.05-71.92,31.58-103.32,17.96-30.45,42.74-56.46,72.15-75.91ZM346.19,914.28c-40.5-40.5-64.17-93.36-67.51-150.06,12.76,8.49,24.77,18.31,35.85,29.39,40.4,40.4,64.05,93.09,67.48,149.64-.72-.36-1.44-.7-2.16-1.06-11.94-8.15-23.22-17.46-33.67-27.91ZM1093.92,957.53c-.34.22-.68.44-1.02.66-31.58,15.65-66.58,23.93-102.85,23.93s-71.27-8.28-102.85-23.93c-.34-.22-.68-.44-1.01-.66.51-.33,1.02-.66,1.52-.99,31.45-15.49,66.26-23.69,102.35-23.69s70.9,8.2,102.35,23.69c.5.34,1.01.66,1.52.99ZM879.64,942.67c-.33.17-.67.32-1,.49,3.43-56.54,27.08-109.23,67.48-149.63,10.98-10.98,22.87-20.72,35.49-29.16-3.39,56.62-27.04,109.38-67.49,149.83-10.68,10.69-22.23,20.19-34.48,28.47ZM750.12,982.13c-36.28,0-71.27-8.28-102.85-23.93-.31-.21-.63-.41-.95-.62.48-.32.97-.63,1.45-.95,31.45-15.49,66.27-23.69,102.35-23.69s71.27,8.28,102.85,23.93c.31.21.63.41.95.62-.48.32-.97.63-1.45.95-31.45,15.49-66.26,23.69-102.35,23.69ZM861.85,556.84c-3.53,56.37-27.16,108.88-67.45,149.18-11.07,11.07-23.06,20.87-35.8,29.36,3.53-56.37,27.16-108.88,67.45-149.18,11.07-11.07,23.06-20.87,35.8-29.36ZM706.33,705.93c-40.17-40.17-63.78-92.49-67.42-148.67,12.55,8.4,24.36,18.1,35.28,29.02,40.17,40.17,63.78,92.49,67.42,148.67-12.55-8.4-24.36-18.1-35.28-29.02ZM695.02,717.24c.42.42.86.83,1.28,1.25-21.2-5.81-43.32-8.81-65.9-8.81s-44.61,2.99-65.78,8.78c.38-.38.78-.75,1.16-1.13,31.65-31.64,53.67-70.34,64.63-112.54,10.97,42.17,32.98,80.83,64.61,112.46ZM630.4,725.68c36.43,0,71.57,8.35,103.26,24.13-31.68,15.78-66.83,24.13-103.26,24.13s-71.57-8.35-103.26-24.13c31.68-15.78,66.83-24.13,103.26-24.13ZM870.33,709.59c-22.49,0-44.53,2.98-65.66,8.75.34-.34.7-.67,1.04-1.01,31.57-31.57,53.56-70.15,64.55-112.23,10.99,42.08,32.98,80.67,64.55,112.23.33.33.66.64.99.96-21.07-5.73-43.04-8.7-65.46-8.7ZM973.59,749.73c-31.68,15.78-66.83,24.13-103.26,24.13s-71.57-8.35-103.26-24.13c31.68-15.78,66.83-24.13,103.26-24.13s71.57,8.35,103.26,24.13ZM946.12,706.02c-40.24-40.24-63.85-92.66-67.44-148.95,12.61,8.43,24.47,18.16,35.44,29.12,40.24,40.24,63.85,92.66,67.44,148.95-12.61-8.43-24.47-18.16-35.44-29.12ZM814.74,574.88c-31.65,31.64-53.67,70.34-64.63,112.54-10.97-42.17-32.98-80.83-64.61-112.46-.35-.35-.71-.69-1.06-1.04,21.14,5.77,43.18,8.75,65.68,8.75s44.46-2.97,65.56-8.72c-.31.31-.63.61-.94.92ZM621.92,556.84c-3.53,56.37-27.16,108.88-67.45,149.18-11.07,11.07-23.06,20.87-35.8,29.36,3.53-56.37,27.16-108.88,67.45-149.18,11.07-11.07,23.06-20.87,35.8-29.36ZM630.4,789.95c22.49,0,44.53-2.98,65.66-8.75-.34.34-.7.67-1.04,1.01-31.64,31.65-53.67,70.34-64.63,112.54-10.97-42.17-32.98-80.83-64.61-112.46-.38-.38-.77-.75-1.16-1.13,21.17,5.79,43.24,8.78,65.78,8.78ZM638.85,943.17c3.43-56.55,27.08-109.24,67.48-149.65,10.94-10.94,22.78-20.65,35.35-29.07-3.39,56.62-27.04,109.38-67.49,149.83-10.68,10.68-22.23,20.19-34.48,28.47-.29.14-.58.28-.86.42ZM750.13,813.06c10.96,42.11,32.92,80.72,64.48,112.32-20.77-5.56-42.41-8.44-64.49-8.44s-43.64,2.87-64.38,8.41c31.51-31.6,53.45-70.2,64.39-112.29ZM826.05,914.2c-40.48-40.48-64.14-93.3-67.5-149.97,12.76,8.49,24.76,18.31,35.85,29.39,40.44,40.44,64.1,93.2,67.49,149.81-.31-.16-.61-.31-.92-.46-12.41-8.35-24.1-17.95-34.91-28.77ZM805.71,782.3c-.42-.42-.86-.83-1.28-1.25,21.2,5.81,43.32,8.81,65.9,8.81s44.48-2.98,65.58-8.73c-.37.36-.74.71-1.11,1.08-31.58,31.58-53.57,70.18-64.56,112.28-11-42.06-32.98-80.63-64.54-112.19ZM925.44,574.88c-.35-.35-.71-.69-1.06-1.04,21.14,5.77,43.18,8.75,65.68,8.75s44.54-2.99,65.68-8.75c-.35.35-.71.69-1.06,1.04-31.63,31.63-53.65,70.32-64.62,112.5-10.97-42.18-32.98-80.87-64.62-112.5ZM990.06,566.6c-36.46,0-71.63-8.36-103.33-24.17,31.7-15.8,66.87-24.17,103.33-24.17s71.63,8.36,103.33,24.17c-31.7,15.8-66.87,24.17-103.33,24.17ZM750.12,566.68c-36.49,0-71.69-8.38-103.42-24.21,31.73-15.83,66.93-24.21,103.42-24.21s71.69,8.38,103.42,24.21c-31.73,15.83-66.93,24.21-103.42,24.21ZM510.19,582.68c22.46,0,44.46-2.97,65.56-8.72-.31.31-.63.61-.94.92-31.49,31.49-53.45,69.97-64.47,111.93-11-42.05-32.98-80.6-64.53-112.15-.18-.18-.36-.35-.54-.53,20.91,5.63,42.69,8.55,64.92,8.55ZM406.86,542.52c31.7-15.8,66.87-24.17,103.33-24.17s71.63,8.36,103.33,24.17c-31.7,15.8-66.87,24.17-103.33,24.17s-71.63-8.36-103.33-24.17ZM586.12,914.2c-40.48-40.48-64.14-93.3-67.5-149.97,12.76,8.49,24.76,18.31,35.85,29.39,40.44,40.44,64.1,93.2,67.49,149.81-.31-.16-.61-.31-.92-.46-12.41-8.35-24.1-17.95-34.91-28.77ZM574.68,925.38c-20.77-5.56-42.41-8.44-64.49-8.44s-43.69,2.88-64.46,8.43c.03-.03.05-.05.08-.08,31.49-31.49,53.45-69.97,64.47-111.93,10.98,41.99,32.92,80.49,64.4,112.02ZM998.54,735.28c3.55-56.34,27.17-108.82,67.45-149.09,11.07-11.07,23.06-20.87,35.79-29.35-3.55,56.34-27.17,108.82-67.45,149.09-11.07,11.07-23.06,20.87-35.79,29.35ZM990.06,502.26c-22.46,0-44.46,2.97-65.56,8.72.31-.31.63-.61.94-.92,31.63-31.63,53.65-70.32,64.62-112.5,10.97,42.18,32.98,80.87,64.62,112.5.31.31.63.61.94.92-21.1-5.75-43.1-8.72-65.56-8.72ZM981.62,348.85c-3.37,56.65-27.03,109.44-67.5,149.9-10.98,10.98-22.87,20.72-35.5,29.16,3.37-56.65,27.03-109.44,67.5-149.9,10.98-10.98,22.87-20.72,35.5-29.16ZM826.05,498.67c-40.5-40.5-64.16-93.34-67.5-150.05,12.76,8.49,24.77,18.31,35.85,29.39,40.5,40.5,64.16,93.34,67.5,150.05-12.76-8.49-24.77-18.31-35.85-29.39ZM814.74,509.98c.35.35.71.69,1.06,1.03-21.14-5.77-43.18-8.75-65.68-8.75s-44.46,2.97-65.56,8.72c.31-.31.63-.61.94-.92,31.65-31.64,53.67-70.34,64.63-112.54,10.97,42.17,32.98,80.83,64.61,112.46ZM741.69,348.85c-3.38,56.65-27.03,109.43-67.5,149.9-10.94,10.94-22.78,20.65-35.36,29.07,3.38-56.65,27.03-109.43,67.5-149.9,10.94-10.94,22.78-20.65,35.36-29.07ZM586.12,498.75c-40.52-40.52-64.19-93.4-67.51-150.14,12.76,8.49,24.77,18.31,35.86,29.4,40.52,40.52,64.19,93.4,67.51,150.14-12.76-8.49-24.77-18.31-35.85-29.4ZM574.81,510.07c.35.35.71.69,1.06,1.04-21.14-5.77-43.18-8.75-65.68-8.75s-44.54,2.99-65.68,8.75c.35-.35.71-.69,1.06-1.04,31.63-31.63,53.65-70.32,64.62-112.5,10.97,42.18,32.98,80.87,64.62,112.5ZM434.5,585.98c40.31,40.31,63.94,92.84,67.46,149.24-12.65-8.45-24.56-18.2-35.56-29.2-40.31-40.31-63.94-92.84-67.46-149.24,12.65,8.45,24.56,18.2,35.56,29.2ZM501.97,764.4c-3.44,56.53-27.09,109.19-67.48,149.58-10.96,10.96-22.82,20.69-35.42,29.11-.05.03-.1.05-.15.08,3.45-56.52,27.09-109.17,67.47-149.56,11-11.01,22.92-20.77,35.58-29.22ZM406.43,957.4c.18-.12.36-.23.53-.35,31.68-15.77,66.81-24.12,103.23-24.12s71.27,8.28,102.85,23.93c.34.22.68.44,1.01.66-.51.33-1.02.66-1.52.99-31.45,15.49-66.26,23.69-102.35,23.69s-70.12-8.02-101.29-23.17c-.82-.55-1.64-1.1-2.47-1.64ZM510.19,998.22c22.04,0,43.64-2.87,64.38-8.41-31.38,31.47-53.27,69.88-64.25,111.77-10.96-41.84-32.8-80.22-64.12-111.67,20.62,5.47,42.09,8.31,63.99,8.31ZM518.61,1151.01c3.32-56.74,26.99-109.62,67.51-150.14,10.69-10.69,22.23-20.19,34.48-28.47.45-.23.91-.45,1.36-.68-3.38,56.64-27.03,109.43-67.5,149.89-11.08,11.08-23.1,20.9-35.86,29.4ZM639.28,972.11c12.41,8.35,24.1,17.95,34.91,28.77,40.42,40.42,64.07,93.14,67.49,149.72-12.57-8.41-24.41-18.12-35.35-29.06-40.4-40.4-64.05-93.09-67.48-149.63.14.07.28.14.43.21ZM685.63,989.69c20.77,5.56,42.41,8.44,64.49,8.44s43.64-2.87,64.38-8.41c-31.51,31.6-53.45,70.2-64.39,112.29-10.96-42.11-32.92-80.72-64.48-112.32ZM758.54,1151.02c3.3-56.77,26.97-109.69,67.52-150.23,10.68-10.68,22.23-20.19,34.48-28.47.46-.23.91-.45,1.37-.68-3.36,56.68-27.02,109.5-67.5,149.98-11.09,11.09-23.1,20.91-35.86,29.4ZM879.21,972.11c12.41,8.35,24.1,17.95,34.91,28.77,40.45,40.45,64.1,93.2,67.49,149.82-12.62-8.44-24.51-18.18-35.49-29.16-40.42-40.42-64.07-93.13-67.48-149.71.19.1.38.19.57.28ZM925.57,989.69c20.77,5.56,42.41,8.44,64.49,8.44s43.71-2.88,64.49-8.44c-31.56,31.61-53.54,70.24-64.49,112.37-10.95-42.13-32.92-80.76-64.49-112.37ZM990.06,916.85c-22.04,0-43.64,2.87-64.38,8.41,31.5-31.59,53.44-70.18,64.38-112.25,10.94,42.07,32.87,80.66,64.38,112.25-20.74-5.54-42.34-8.41-64.38-8.41ZM1045.65,717.24c31.57-31.57,53.56-70.15,64.55-112.23,10.99,42.08,32.98,80.67,64.55,112.23.38.38.77.75,1.16,1.13-21.17-5.79-43.24-8.78-65.78-8.78s-44.48,2.98-65.58,8.73c.37-.36.74-.71,1.11-1.08ZM1065.99,498.75c-40.54-40.54-64.21-93.46-67.52-150.23,12.76,8.49,24.78,18.31,35.86,29.4,40.54,40.54,64.21,93.46,67.52,150.23-12.76-8.49-24.77-18.31-35.86-29.4ZM934.81,366.7c-31.57,31.57-53.56,70.15-64.55,112.23-10.99-42.08-32.98-80.67-64.55-112.23-.28-.28-.57-.55-.85-.83,21.2,5.81,43.32,8.81,65.89,8.81s43.75-2.89,64.55-8.46c-.16.16-.33.32-.49.48ZM695.02,366.61c-31.65,31.64-53.67,70.34-64.63,112.54-10.97-42.17-32.98-80.83-64.61-112.46-.24-.24-.49-.47-.73-.71,21.16,5.78,43.24,8.78,65.77,8.78s43.72-2.88,64.49-8.44c-.1.1-.2.19-.3.29ZM501.75,348.94c-3.4,56.61-27.05,109.36-67.49,149.81-10.94,10.94-22.78,20.65-35.35,29.07,3.4-56.61,27.05-109.36,67.49-149.81,10.94-10.94,22.78-20.65,35.35-29.07ZM455.08,717.33c.38.38.77.75,1.16,1.13-21.17-5.79-43.24-8.78-65.78-8.78s-44.7,3-65.9,8.81c.42-.42.86-.83,1.28-1.25,31.62-31.62,53.64-70.29,64.61-112.46,10.96,42.2,32.98,80.9,64.63,112.54ZM493.72,749.81c-31.68,15.78-66.83,24.13-103.26,24.13s-71.57-8.35-103.26-24.13c31.68-15.78,66.83-24.13,103.26-24.13s71.57,8.35,103.26,24.13ZM390.46,789.95c22.54,0,44.61-2.99,65.78-8.78-.38.38-.78.75-1.16,1.13-31.63,31.63-53.65,70.32-64.62,112.5-10.97-42.18-32.98-80.87-64.62-112.5-.38-.38-.77-.75-1.16-1.13,21.17,5.79,43.24,8.78,65.78,8.78ZM400.83,972.92c11.94,8.15,23.22,17.46,33.67,27.91,40.49,40.49,64.15,93.33,67.5,150.02-12.67-8.45-24.59-18.22-35.61-29.23-40.4-40.4-64.05-93.09-67.48-149.63.63.32,1.28.62,1.91.94ZM565.78,1132.93c31.64-31.65,53.67-70.34,64.63-112.54,10.97,42.17,32.98,80.83,64.61,112.46.6.6,1.21,1.18,1.81,1.77-21.32-5.88-43.57-8.91-66.29-8.91s-45.15,3.06-66.55,8.99c.6-.59,1.2-1.16,1.8-1.75ZM805.71,1132.93c31.58-31.58,53.57-70.18,64.56-112.28,11,42.06,32.98,80.63,64.54,112.19.54.54,1.09,1.06,1.64,1.6-21.23-5.82-43.37-8.83-65.97-8.83s-45.06,3.05-66.43,8.95c.56-.54,1.12-1.08,1.67-1.63ZM998.48,1150.92c3.34-56.7,27-109.55,67.51-150.05,10.81-10.81,22.51-20.42,34.91-28.77.31-.15.62-.31.93-.46-3.38,56.64-27.03,109.43-67.49,149.89-11.08,11.08-23.09,20.9-35.85,29.39ZM1100.47,942.67c-12.25-8.28-23.8-17.78-34.48-28.47-40.5-40.5-64.17-93.36-67.51-150.06,12.76,8.49,24.77,18.31,35.85,29.39,40.44,40.44,64.1,93.2,67.49,149.81-.45-.23-.9-.45-1.35-.67ZM1110.12,725.59c36.46,0,71.64,8.37,103.35,24.18-31.71,15.81-66.88,24.18-103.35,24.18s-71.64-8.37-103.35-24.18c31.71-15.81,66.88-24.18,103.35-24.18ZM1186.06,705.93c-40.22-40.22-63.83-92.6-67.43-148.86,12.6,8.43,24.47,18.16,35.43,29.12,40.22,40.22,63.83,92.6,67.43,148.86-12.6-8.43-24.47-18.16-35.43-29.12ZM1045.65,366.61c-.23-.23-.46-.45-.69-.67,21.07,5.73,43.03,8.69,65.45,8.69s44.03-2.97,64.97-8.64c-4.21,4.18-8.29,8.51-12.21,13-25.32,29.02-43.3,63.31-52.93,100.03-10.98-42.15-32.98-80.8-64.6-112.41ZM870.75,358.67c-36.67,0-72.05-8.46-103.89-24.44,31.74-15.85,66.96-24.24,103.47-24.24s72.05,8.46,103.89,24.44c-31.74,15.85-66.96,24.24-103.47,24.24ZM630.82,358.76c-36.67,0-72.05-8.46-103.89-24.44,31.74-15.85,66.96-24.24,103.47-24.24s72.05,8.46,103.89,24.44c-31.74,15.85-66.96,24.24-103.47,24.24ZM455.08,366.7c-31.67,31.67-53.7,70.4-64.65,112.64-9.61-36.85-27.63-71.26-53.03-100.36-3.94-4.51-8.04-8.86-12.26-13.06,21.17,5.8,43.25,8.84,65.75,8.84s43.8-2.89,64.62-8.47c-.14.14-.28.27-.42.41ZM381.97,556.93c-3.57,56.31-27.19,108.75-67.44,149-11.06,11.06-23.05,20.87-35.79,29.35,3.57-56.31,27.19-108.75,67.44-149,11.06-11.06,23.05-20.87,35.79-29.35ZM455.08,1132.93c.56.56,1.13,1.1,1.69,1.65-21.28-5.85-43.49-8.88-66.16-8.88s-45.2,3.12-66.65,9.09c4.61-4.51,9.07-9.21,13.34-14.1,25.44-29.12,43.5-63.55,53.12-100.43,10.95,42.25,32.99,81,64.67,112.68ZM630.54,1141.7c36.24,0,71.21,8.27,102.77,23.89-31.59,15.67-66.61,23.96-102.91,23.96s-71.21-8.27-102.77-23.89c31.59-15.67,66.61-23.96,102.91-23.96ZM870.47,1141.61c36.24,0,71.21,8.27,102.77,23.89-31.59,15.67-66.61,23.96-102.91,23.96s-71.21-8.27-102.77-23.89c31.59-15.67,66.61-23.96,102.91-23.96ZM1045.65,1132.84c31.8-31.8,53.89-70.73,64.8-113.18,9.5,36.76,27.37,71.12,52.56,100.21,4.46,5.15,9.13,10.09,13.97,14.83-21.51-6-43.96-9.14-66.85-9.14s-44.84,3.02-66.1,8.87c.54-.53,1.09-1.05,1.63-1.59ZM1045.65,782.21c-.33-.33-.66-.64-.99-.96,21.07,5.73,43.04,8.7,65.46,8.7s45.01-3.04,66.36-8.93c-.44.43-.88.85-1.32,1.28-31.76,31.76-53.82,70.62-64.75,112.99-10.92-42.41-32.99-81.3-64.77-113.08ZM1165.37,574.88c-.31-.31-.63-.61-.94-.92,21.1,5.75,43.1,8.72,65.56,8.72s44.58-3.02,65.7-8.78c-4.97,4.91-9.76,10.04-14.32,15.38-24.48,28.64-41.91,62.34-51.31,98.34-10.95-42.28-32.99-81.05-64.68-112.75ZM1229.99,566.68c-36.49,0-71.69-8.38-103.42-24.21,31.73-15.83,66.93-24.21,103.42-24.21s71.7,8.38,103.43,24.22c-31.63,15.76-66.86,24.21-103.43,24.21ZM1118.57,527.83c3.1-51,22.94-99.66,56.66-138.31,13.68-15.68,29.28-29.33,46.32-40.68-3.39,56.62-27.04,109.38-67.49,149.83-10.98,10.98-22.87,20.72-35.49,29.16ZM1110.41,358.63c-36.6,0-71.89-8.42-103.69-24.34,31.72-15.83,66.92-24.21,103.41-24.21s71.84,8.41,103.62,24.31c-31.69,15.77-66.94,24.24-103.34,24.24ZM946.4,290.7c-40.22-40.22-63.84-92.62-67.43-148.88,12.5,8.38,24.27,18.05,35.15,28.93,40.22,40.22,63.84,92.62,67.43,148.88-12.5-8.38-24.27-18.05-35.15-28.93ZM935.09,302.01c.23.23.46.45.69.67-21.07-5.73-43.03-8.69-65.45-8.69s-43.72,2.88-64.49,8.44c.1-.1.2-.19.3-.29,31.52-31.52,53.49-70.03,64.49-112.03,11.02,41.95,32.98,80.42,64.46,111.9ZM630.4,294.08c-22.13,0-43.8,2.89-64.62,8.47.14-.14.28-.27.42-.41,31.65-31.64,53.67-70.34,64.63-112.54,10.97,42.17,32.98,80.83,64.61,112.46.28.28.57.55.85.83-21.2-5.81-43.32-8.81-65.89-8.81ZM390.89,358.76c-36.6,0-72.02-8.55-103.83-24.48,31.72-15.83,66.92-24.21,103.41-24.21s72.05,8.46,103.89,24.44c-31.74,15.85-66.96,24.24-103.47,24.24ZM325.34,389.5c33.81,38.74,53.66,87.53,56.7,138.65-12.76-8.49-24.77-18.31-35.85-29.4-40.53-40.53-64.19-93.41-67.51-150.16,17.17,11.4,32.9,25.12,46.67,40.9ZM166.73,542.42c31.82-15.94,67.14-24.38,103.76-24.38s71.77,8.4,103.52,24.26c-31.81,15.94-67.14,24.38-103.76,24.38s-71.86-8.47-103.52-24.26ZM270.25,582.68c22.5,0,44.54-2.99,65.68-8.75-.35.35-.71.69-1.06,1.04-31.65,31.65-53.67,70.35-64.63,112.55-9.38-36.02-26.79-69.74-51.24-98.4-4.48-5.25-9.16-10.28-14.03-15.11,20.99,5.69,42.9,8.67,65.28,8.67ZM334.49,925.21c-20.62-5.47-42.09-8.31-63.99-8.31s-44.16,2.96-65.1,8.61c4.71-4.69,9.25-9.58,13.59-14.67,24.39-28.58,41.77-62.19,51.17-98.1,10.89,42.15,32.81,80.81,64.33,112.47ZM166.47,957.4c31.78-15.95,67.22-24.51,104.03-24.51s70.12,8.02,101.29,23.17c.75.51,1.51,1.01,2.27,1.51-.11.07-.22.14-.33.22-31.68,15.77-66.81,24.12-103.23,24.12s-72.14-8.48-104.03-24.51ZM390.6,1141.7c36.24,0,71.21,8.27,102.77,23.89-31.59,15.67-66.61,23.96-102.91,23.96s-71.16-8.26-102.69-23.86c31.56-15.61,66.62-24,102.83-24ZM554.61,1209.63c40.17,40.17,63.78,92.49,67.42,148.68-12.78-8.5-24.81-18.33-35.91-29.43-40.17-40.17-63.78-92.49-67.42-148.68,12.78,8.5,24.81,18.33,35.91,29.43ZM565.92,1198.31c-.56-.56-1.13-1.1-1.69-1.65,21.28,5.86,43.49,8.88,66.16,8.88s45.06-3.05,66.43-8.95c-.56.54-1.12,1.08-1.67,1.63-31.64,31.65-53.67,70.34-64.63,112.54-10.97-42.17-32.98-80.83-64.61-112.46ZM870.33,1205.46c22.65,0,44.84-3.02,66.1-8.87-.54.53-1.09,1.05-1.63,1.59-31.52,31.52-53.49,70.03-64.49,112.03-11.02-41.95-32.98-80.42-64.46-111.9-.6-.6-1.21-1.18-1.81-1.77,21.32,5.88,43.57,8.91,66.29,8.91ZM878.71,1357.98c3.68-56.11,27.28-108.36,67.41-148.48,10.96-10.96,22.82-20.68,35.41-29.11-3.68,56.11-27.28,108.35-67.41,148.48-10.96,10.96-22.82,20.68-35.41,29.11ZM1110.12,1141.57c36.22,0,71.27,8.38,102.81,23.98-31.57,15.64-66.55,23.92-102.81,23.92s-71.29-8.29-102.88-23.95c31.59-15.66,66.59-23.95,102.88-23.95ZM1119.01,943.03c3.48-56.46,27.12-109.07,67.47-149.42,10.85-10.85,22.59-20.49,35.05-28.86-3.48,56.47-27.11,109.09-67.47,149.44-10.81,10.81-22.5,20.42-34.91,28.77-.04.02-.09.04-.13.06ZM1230.03,812.85c9.39,36,26.81,69.71,51.27,98.36,4.19,4.9,8.56,9.61,13.09,14.15-20.72-5.53-42.33-8.42-64.4-8.42s-43.71,2.88-64.49,8.44c31.6-31.65,53.59-70.34,64.53-112.53ZM1238.48,735.27c3.23-49.83,22.49-97.5,55.05-135.59,14.06-16.46,30.27-30.74,48.03-42.56-3.59,56.27-27.21,108.67-67.43,148.9-11.02,11.02-22.96,20.8-35.65,29.26ZM1229.99,502.26c-22.5,0-44.54,2.99-65.68,8.75.35-.35.71-.68,1.06-1.03,31.65-31.65,53.67-70.35,64.63-112.55,10.12,38.84,29.61,74.87,57.27,104.98,2.69,2.93,5.44,5.78,8.25,8.57-21.09-5.74-43.09-8.72-65.54-8.72ZM1110.12,294.08c-22.1,0-43.75,2.89-64.55,8.46.16-.16.33-.32.49-.48,31.57-31.57,53.56-70.17,64.55-112.25,10.99,42.07,32.98,80.65,64.54,112.21.3.3.61.59.91.89-21.22-5.82-43.36-8.83-65.96-8.83ZM1016.3,208.94c-11.66,19.76-20.45,41.03-26.21,63.13-10.96-42.24-32.99-80.97-64.65-112.63-.54-.54-1.1-1.07-1.65-1.61,21.35,5.93,43.7,9.04,66.55,9.04s44.48-3.02,65.82-8.88c-15.39,15.14-28.83,32.26-39.86,50.95ZM862.31,141c-3.39,56.62-27.04,109.38-67.49,149.83-11.18,11.18-23.32,21.08-36.2,29.62-.02,0-.04.02-.05.03,3.39-56.62,27.04-109.37,67.49-149.82,11.2-11.2,23.35-21.11,36.26-29.66ZM706.75,290.74c-40.19-40.19-63.79-92.52-67.42-148.72,12.39,8.34,24.07,17.93,34.86,28.73,40.19,40.19,63.79,92.52,67.42,148.72-12.39-8.34-24.07-17.93-34.86-28.73ZM622.37,141.09c-3.41,56.58-27.06,109.31-67.49,149.73-11.2,11.2-23.35,21.1-36.25,29.65,3.41-56.58,27.06-109.31,67.49-149.73,11.2-11.2,23.35-21.1,36.25-29.65ZM466.82,290.83c-40.19-40.19-63.8-92.54-67.43-148.76,28.85,19.38,53.16,45.11,70.85,75.14,18.34,31.13,29.09,66.24,31.45,102.36-12.39-8.34-24.07-17.94-34.87-28.74ZM455.5,302.14c.24.24.49.47.73.71-21.16-5.78-43.24-8.78-65.77-8.78s-43.8,2.89-64.62,8.47c.14-.14.28-.27.42-.41,31.63-31.63,53.65-70.32,64.62-112.5,10.97,42.18,32.98,80.87,64.62,112.5ZM334.87,510.07c.18.18.36.35.54.53-20.91-5.63-42.69-8.55-64.92-8.55s-44.31,2.96-65.35,8.67c2.75-2.73,5.45-5.54,8.09-8.41,27.52-29.97,46.95-65.8,57.1-104.42,11,42.06,32.98,80.63,64.53,112.18ZM206.83,599.51c32.51,38.09,51.73,85.74,54.94,135.54-12.56-8.41-24.38-18.11-35.31-29.04-40.24-40.24-63.86-92.68-67.44-148.97,17.68,11.81,33.81,26.06,47.81,42.47ZM261.79,764.56c-3.15,49.92-22.38,97.71-54.96,135.89-14,16.41-30.13,30.67-47.82,42.48,3.5-56.43,27.13-108.99,67.46-149.32,10.93-10.93,22.76-20.64,35.33-29.05ZM270.5,997.91c22.07,0,43.69-2.88,64.46-8.43-.03.03-.05.05-.08.08-31.66,31.66-53.68,70.37-64.64,112.59-10.12-38.79-29.58-74.78-57.19-104.87-2.5-2.72-5.05-5.38-7.66-7.98,20.97,5.67,42.81,8.61,65.12,8.61ZM390.46,1205.55c22.81,0,45.15-3.06,66.55-8.99-.6.59-1.2,1.16-1.8,1.75-31.63,31.63-53.65,70.32-64.62,112.5-10.97-42.18-32.98-80.87-64.62-112.5-.56-.56-1.13-1.1-1.69-1.65,21.28,5.86,43.49,8.88,66.17,8.88ZM484.08,1290.81c11.63-19.67,20.41-40.83,26.19-62.82,10.99,42.07,32.98,80.64,64.54,112.2.45.45.91.89,1.36,1.33-21.13-5.8-43.24-8.85-65.84-8.85s-44.62,3.04-66.01,8.93c15.35-15.09,28.75-32.16,39.77-50.8ZM639.08,1357.78c3.74-56.02,27.33-108.17,67.39-148.24,10.87-10.87,22.63-20.52,35.11-28.9-3.74,56.02-27.32,108.17-67.39,148.24-10.87,10.87-22.63,20.53-35.11,28.9ZM794.54,1209.63c40.15,40.15,63.75,92.44,67.42,148.59-12.78-8.5-24.8-18.33-35.9-29.43-40.15-40.15-63.76-92.44-67.42-148.59,12.78,8.5,24.8,18.33,35.9,29.43ZM925.44,1340.19c31.67-31.67,53.7-70.4,64.65-112.64,5.75,22.05,14.51,43.28,26.14,63.01,11,18.66,24.4,35.77,39.75,50.89-21.32-5.85-43.45-8.87-65.78-8.87s-44.89,3.07-66.11,8.92c.45-.44.9-.87,1.35-1.32ZM1045.79,1198.23c-.54-.54-1.09-1.06-1.64-1.6,21.23,5.82,43.37,8.83,65.97,8.83s45.39-3.1,66.89-9.08c-.62.6-1.24,1.2-1.85,1.81-31.71,31.71-53.75,70.49-64.69,112.79-10.95-42.28-32.99-81.05-64.68-112.75ZM1165.62,989.72c20.74,5.54,42.34,8.41,64.38,8.41s43.72-2.88,64.5-8.44c-2.44,2.44-4.84,4.94-7.19,7.49-27.65,30.1-47.15,66.11-57.28,104.93-10.93-42.13-32.87-80.76-64.41-112.38ZM1229.99,982.13c-36.08,0-70.9-8.2-102.35-23.69-.48-.32-.97-.63-1.45-.95.32-.21.63-.41.95-.62,31.58-15.65,66.58-23.93,102.85-23.93s71.34,8.34,102.81,23.9c.36.24.72.49,1.08.73-.24.16-.48.32-.72.48-31.66,15.75-66.78,24.09-103.17,24.09ZM1340.82,942.95c-17.5-11.74-33.47-25.88-47.35-42.13-32.75-38.36-52.03-86.4-55.05-136.59,12.7,8.47,24.66,18.26,35.7,29.3,40.45,40.45,64.1,93.21,67.49,149.82-.27-.13-.53-.27-.8-.4ZM1350.48,709.68c-22.74,0-45.01,3.04-66.36,8.93.44-.43.88-.85,1.32-1.28,31.87-31.87,53.98-70.89,64.87-113.44,5.71,22.21,14.48,43.59,26.14,63.45,11.04,18.8,24.52,36.03,39.97,51.25-21.37-5.88-43.56-8.91-65.93-8.91ZM1453.29,749.67c-31.91,15.86-67.31,24.19-103.23,24.19s-71.35-8.3-102.96-23.99c31.72-15.82,66.9-24.19,103.38-24.19s71.02,8.26,102.81,23.99ZM1299.06,491.59c-36.22-39.44-57.46-89.73-60.63-142.88,12.7,8.47,24.66,18.26,35.7,29.3,40.49,40.49,64.14,93.31,67.5,149.99-15.46-10.28-29.77-22.47-42.57-36.41ZM1186.48,290.7c-40.22-40.22-63.83-92.61-67.43-148.87,12.45,8.36,24.17,17.99,35.01,28.83,40.22,40.22,63.83,92.61,67.43,148.87-12.45-8.36-24.17-17.99-35.01-28.83ZM1093.26,126.83c-31.83,15.76-67.11,24.04-102.92,24.04s-71.75-8.52-103.23-24.16c31.6-15.68,66.64-23.98,102.95-23.98s71.53,8.34,103.2,24.1ZM814.74,159.35c-31.65,31.64-53.67,70.34-64.63,112.54-10.97-42.17-32.98-80.83-64.61-112.46-.52-.52-1.06-1.03-1.58-1.55,21.57,5.98,43.98,9.07,66.48,9.07s44.29-3,65.58-8.82c-.41.41-.83.8-1.24,1.21ZM574.81,159.43c-31.67,31.67-53.7,70.4-64.65,112.64-5.74-22.04-14.51-43.26-26.13-62.98-11.07-18.79-24.57-35.99-40.05-51.19,21.54,5.98,43.92,9.06,66.49,9.06s44.57-3.03,65.64-8.8c-.43.43-.88.84-1.31,1.28ZM314.95,290.83c-11.2,11.2-23.35,21.1-36.25,29.65,3.41-56.58,27.06-109.31,67.49-149.73,11.2-11.2,23.35-21.1,36.25-29.65-3.41,56.58-27.06,109.31-67.49,149.73ZM262.05,348.79c-3.21,53.08-24.43,103.3-60.6,142.69-12.78,13.92-27.06,26.08-42.48,36.36,3.39-56.62,27.04-109.38,67.49-149.83,11.01-11.01,22.93-20.77,35.59-29.23ZM215.15,717.33c.38.38.77.75,1.16,1.13-21.17-5.79-43.24-8.78-65.78-8.78s-44.21,2.98-65.42,8.77c15.18-14.97,28.44-31.89,39.37-50.33,11.63-19.62,20.42-40.73,26.22-62.67,11.02,41.94,32.98,80.4,64.45,111.87ZM150.53,789.86c22.58,0,44.7-3,65.9-8.81-.42.42-.86.83-1.28,1.25-31.47,31.47-53.42,69.91-64.44,111.83-5.75-21.77-14.45-42.72-25.94-62.22-10.98-18.64-24.36-35.72-39.68-50.83,21.22,5.79,43.24,8.77,65.44,8.77ZM201.25,1008.1c36.13,39.37,57.34,89.55,60.56,142.58-12.57-8.41-24.41-18.13-35.35-29.06-40.43-40.43-64.08-93.16-67.49-149.75,15.35,10.25,29.55,22.38,42.27,36.24ZM314.67,1209.63c40.17,40.17,63.78,92.49,67.42,148.68-12.78-8.5-24.81-18.33-35.91-29.43-40.17-40.17-63.78-92.49-67.42-148.68,12.78,8.5,24.81,18.33,35.91,29.43ZM407.21,1372.81c31.88-15.83,67.23-24.14,103.12-24.14s71.61,8.48,103.03,24.04c-31.66,15.75-66.78,24.09-103.17,24.09s-71.37-8.31-102.98-24ZM685.5,1340.19c31.65-31.65,53.67-70.34,64.63-112.54,10.97,42.17,32.98,80.83,64.61,112.46.51.51,1.04,1.01,1.56,1.52-21.43-5.9-43.69-8.95-66.03-8.95s-44.79,3.07-66.3,9.02c.51-.5,1.03-1,1.54-1.5ZM990.2,1348.59c35.84,0,71.14,8.28,102.98,24.06-31.65,15.74-66.75,24.07-103.12,24.07s-71.41-8.31-103.03-24.02c31.46-15.6,66.63-24.11,103.17-24.11ZM1186.48,1209.5c10.83-10.83,22.54-20.45,34.97-28.8-3.77,55.96-27.35,108.06-67.39,148.09-10.83,10.83-22.54,20.45-34.97,28.8,3.77-55.96,27.35-108.06,67.39-148.09ZM1238.43,1150.82c3.2-53.13,24.44-103.4,60.66-142.82,12.65-13.77,26.77-25.82,42.01-36.02.17-.09.35-.17.52-.26-3.39,56.61-27.05,109.37-67.49,149.81-11.04,11.04-23,20.83-35.7,29.29ZM1285.44,782.21c-.38-.38-.77-.75-1.16-1.13,21.17,5.79,43.24,8.78,65.78,8.78s44.96-3.09,66.51-9.07c-15.48,15.23-28.99,32.46-40.05,51.28-11.7,19.9-20.49,41.33-26.21,63.58-10.88-42.55-33-81.57-64.87-113.44ZM1390.24,659.24c-18.2-31-28.88-65.94-31.25-101.87,12.44,8.36,24.17,17.99,35,28.83,40.15,40.15,63.75,92.44,67.42,148.58-29.01-19.46-53.44-45.34-71.17-75.54ZM1404.2,511.18c4.09-4.05,8.06-8.24,11.9-12.6,1.12,2.97,2.23,5.95,3.31,8.94-5.11,1.06-10.18,2.29-15.2,3.67ZM1424.74,522.76c4.65,13.77,8.85,27.66,12.63,41.65-24.73-3.48-48.54-10.9-70.61-21.87,18.29-9.1,37.78-15.79,57.98-19.79ZM1285.44,366.7c-.3-.3-.61-.59-.91-.89,21.22,5.82,43.36,8.83,65.96,8.83,1.46,0,2.93-.01,4.39-.04,8.08,12.99,15.73,26.25,22.96,39.77-12.37,20.55-21.6,42.7-27.53,65.76-10.89-42.54-33-81.55-64.86-113.42ZM1246.73,334.26c20.46-10.2,42.43-17.37,65.22-21.14,11.49,14.73,22.38,29.89,32.64,45.44-34.51-.85-67.76-9.22-97.86-24.3ZM1194.21,193.89c16.62,13.3,32.69,27.39,48.18,42.24-5.07,11.67-9.19,23.62-12.38,35.81-7.24-27.89-19.32-54.25-35.81-78.05ZM990.06,86.73c-22.43,0-44.39,2.97-65.47,8.7,9.03-8.91,17.37-18.51,24.94-28.69,20.58,6,40.92,12.94,60.98,20.84-6.77-.55-13.59-.84-20.45-.84ZM878.93,112.07c1.27-20.44,5.2-40.47,11.74-59.79,14.18,2.84,28.27,6.11,42.25,9.82-15.22,19.37-33.53,36.3-53.99,49.96ZM870.6,63.54c-1.4-5.3-2.98-10.55-4.73-15.76,2.98.49,5.96.99,8.94,1.52-1.55,4.71-2.95,9.46-4.21,14.24ZM862.3,112.42c-27.98-18.52-51.99-43.16-70.02-72.72,18.68,1.08,37.24,2.87,55.65,5.39,8.15,21.62,12.95,44.19,14.37,67.32ZM853.32,126.92c-31.77,15.74-67.21,24.04-102.91,24.04s-71.35-8.35-103.19-24.18c31.59-15.67,66.61-23.96,102.91-23.96s71.53,8.34,103.19,24.1ZM639.29,111.99c1.44-23.04,6.25-45.51,14.37-67.03,18.17-2.46,36.49-4.21,54.93-5.27-17.86,29.33-41.62,53.83-69.29,72.3ZM630.8,64.11c-1.31-5.02-2.77-10-4.4-14.93,3.1-.54,6.21-1.06,9.33-1.57-1.84,5.45-3.48,10.95-4.93,16.5ZM622.37,112.41c-20.68-13.74-39.18-30.81-54.53-50.36,14.12-3.74,28.36-7.04,42.69-9.89,6.62,19.46,10.58,39.64,11.84,60.25ZM510.47,150.96c-35.92,0-71.3-8.32-103.2-24.17,31.6-15.67,66.62-23.97,102.92-23.97s71.56,8.35,103.24,24.12c-31.42,15.54-66.51,24.02-102.96,24.02ZM270.37,271.48c-3.17-12.03-7.24-23.82-12.24-35.35,15.34-14.71,31.25-28.67,47.7-41.86-16.28,23.57-28.23,49.63-35.45,77.2ZM254.4,334.53c-30.32,15.14-63.81,23.45-98.57,24.17,10.29-15.61,21.22-30.82,32.74-45.6,23.02,3.8,45.19,11.08,65.82,21.43ZM150.95,374.76c22.13,0,43.8-2.89,64.62-8.47-.14.14-.28.27-.42.41-31.45,31.45-53.39,69.86-64.42,111.76-6.01-22.77-15.26-44.64-27.58-64.94,7.08-13.19,14.56-26.13,22.44-38.82,1.79.04,3.58.06,5.36.06ZM133.82,542.41c-22.08,10.99-45.9,18.42-70.64,21.91,3.79-14.04,8.02-27.98,12.68-41.79,20.2,4.03,39.68,10.75,57.96,19.88ZM81.21,507.29c1.03-2.83,2.08-5.66,3.14-8.48,3.64,4.13,7.4,8.11,11.27,11.96-4.76-1.3-9.57-2.46-14.41-3.47ZM142.49,556.49c-2.29,36.53-13.15,72.04-31.78,103.48-17.9,30.21-42.5,56.04-71.68,75.4,3.49-56.45,27.12-109.04,67.46-149.39,11.12-11.12,23.18-20.97,36-29.49ZM110.98,840.04c18.53,31.44,29.31,66.94,31.53,103.45-12.82-8.52-24.89-18.37-36.02-29.5-40.44-40.44-64.09-93.19-67.49-149.8,29.34,19.46,54.06,45.45,71.98,75.86ZM95.43,989.25c-3.81,3.82-7.53,7.76-11.12,11.85-1.06-2.8-2.1-5.61-3.12-8.42,4.79-1,9.53-2.15,14.24-3.43ZM75.85,977.43c-4.71-13.95-8.97-28.02-12.79-42.19,24.9,3.52,48.86,11.04,71.06,22.16-18.37,9.21-37.96,15.98-58.27,20.03ZM215.15,1132.93c.56.56,1.13,1.1,1.69,1.65-21.28-5.86-43.49-8.88-66.17-8.88-1.6,0-3.2.02-4.81.05-8.03-12.91-15.64-26.08-22.84-39.51,12.37-20.35,21.66-42.27,27.7-65.11,11.03,41.91,32.98,80.34,64.43,111.8ZM253.34,1165.54c-20.42,10.12-42.34,17.22-65.08,20.95-11.3-14.51-22.01-29.42-32.12-44.73,34.25.79,67.26,8.97,97.2,23.78ZM306.4,1306.18c-16.76-13.41-32.96-27.62-48.58-42.61,5.09-11.71,9.23-23.7,12.42-35.93,7.29,28.08,19.49,54.61,36.16,78.54ZM510.19,1412.81c22.68,0,44.9-3.03,66.19-8.89-9.24,9.09-17.77,18.9-25.49,29.31-21.02-6.13-41.79-13.25-62.27-21.36,7.13.61,14.33.94,21.57.94ZM622.13,1387.29c-1.2,20.7-5.12,40.98-11.72,60.53-14.41-2.87-28.72-6.19-42.93-9.96,15.37-19.64,33.91-36.77,54.65-50.57ZM630.54,1436.27c1.41,5.4,3.01,10.75,4.79,16.06-3.02-.49-6.04-1-9.05-1.53,1.57-4.8,2.99-9.65,4.27-14.53ZM638.97,1387.51c27.87,18.57,51.78,43.25,69.71,72.81-18.6-1.06-37.09-2.84-55.42-5.33-8.13-21.67-12.92-44.3-14.29-67.48ZM647.15,1372.81c31.82-15.8,67.33-24.14,103.11-24.14s71.19,8.31,102.98,24.07c-31.65,15.74-66.74,24.06-103.12,24.06s-71.36-8.3-102.97-23.99ZM862.08,1387.08c-1.33,23.31-6.1,46.06-14.26,67.84-18.53,2.53-37.21,4.33-56.02,5.4,18.05-29.79,42.16-54.62,70.28-73.25ZM870.35,1436.79c1.24,4.69,2.61,9.35,4.12,13.97-2.91.51-5.83,1.01-8.75,1.48,1.71-5.11,3.25-10.26,4.62-15.45ZM878.61,1387.44c20.65,13.77,39.11,30.85,54.43,50.42-14.13,3.75-28.36,7.06-42.69,9.92-6.59-19.49-10.52-39.7-11.74-60.34ZM924.13,1403.9c21.21,5.81,43.34,8.82,65.93,8.82,7.46,0,14.86-.34,22.2-.99-20.6,8.17-41.48,15.34-62.62,21.51-7.72-10.42-16.26-20.24-25.51-29.33ZM1229.99,1227.6c3.21,12.31,7.38,24.38,12.52,36.16-15.79,15.14-32.17,29.49-49.13,43.02,16.9-24.1,29.25-50.85,36.61-79.18ZM1247.6,1165.51c29.83-14.79,62.72-23,96.86-23.87-10.12,15.32-20.83,30.25-32.14,44.77-22.61-3.74-44.4-10.83-64.72-20.9ZM1350.48,1125.57c-22.93,0-45.39,3.1-66.89,9.08.62-.6,1.24-1.2,1.85-1.81,31.86-31.86,53.97-70.88,64.86-113.42,5.95,23.14,15.23,45.36,27.66,65.97-7.31,13.67-15.04,27.08-23.21,40.21-1.42-.02-2.85-.04-4.27-.04ZM1358.94,943.06c2.26-36.29,12.99-71.59,31.38-102.88,17.73-30.17,42.15-56.02,71.15-75.46-3.47,56.49-27.11,109.11-67.47,149.47-10.85,10.85-22.59,20.49-35.06,28.86ZM1405.31,574.88c-.34-.34-.68-.66-1.02-1,12.18,3.34,24.67,5.76,37.37,7.2,5.01,20.57,9.1,41.36,12.25,62.35-12-25.12-28.32-48.29-48.59-68.56ZM1409.45,481.66c-14.73,17.99-31.76,33.42-50.52,46,2.08-33.86,11.51-66.72,27.66-96.39,6.85,13.68,13.29,27.6,19.28,41.78,1.21,2.87,2.4,5.74,3.58,8.61ZM1284.47,279.98c-13.66,15.51-29.16,28.95-46.01,40.12,1.53-24.84,6.96-48.93,16.23-71.91,10.28,10.33,20.21,20.93,29.78,31.79ZM773.29,38.85c11.76,21.26,26.34,40.34,43.12,56.88-21.32-5.88-43.57-8.91-66.29-8.91s-44.35,2.96-65.4,8.68c16.68-16.49,31.16-35.49,42.85-56.65,7.54-.23,15.11-.37,22.69-.37s15.37.13,23.02.38ZM551.23,66.67c7.68,10.33,16.15,20.06,25.33,29.08-21.35-5.89-43.62-8.93-66.37-8.93-6.84,0-13.63.29-20.38.84,20.21-7.96,40.69-14.95,61.42-20.98ZM245.84,248.2c9.2,22.85,14.61,46.8,16.17,71.49-16.71-11.19-32.07-24.61-45.62-40.08,9.47-10.73,19.29-21.2,29.45-31.41ZM114.4,430.36c16.57,30.15,26.18,63.61,28.16,98.11-19.17-12.67-36.56-28.3-51.57-46.58,1.2-2.95,2.42-5.9,3.67-8.85,6.13-14.49,12.72-28.71,19.74-42.68ZM58.9,580.99c12.61-1.44,25.01-3.84,37.12-7.15-.28.27-.56.54-.83.81-20.21,20.21-36.49,43.3-48.49,68.34,3.14-20.87,7.21-41.55,12.2-62.01ZM95.18,925.29c.11.11.22.22.33.33-11.98-3.26-24.25-5.64-36.73-7.06-4.94-20.34-8.98-40.89-12.1-61.63,11.99,25.05,28.28,48.15,48.5,68.37ZM90.95,1018.02c15.01-18.35,32.41-34.03,51.59-46.76-2.02,34.51-11.66,67.98-28.27,98.13-6.98-13.89-13.53-28.04-19.62-42.44-1.26-2.97-2.49-5.95-3.7-8.93ZM216.45,1220.46c13.46-15.3,28.69-28.58,45.26-39.67-1.64,24.42-7.05,48.1-16.17,70.7-10.03-10.09-19.73-20.44-29.09-31.04ZM727.64,1461.16c-11.74-21.33-26.31-40.48-43.1-57.08,21.11,5.75,43.12,8.73,65.58,8.73s44.66-3,65.84-8.8c-16.81,16.61-31.38,35.79-43.13,57.15-7.51.23-15.03.36-22.58.36s-15.1-.13-22.62-.36ZM1254.79,1251.7c-9.23-22.81-14.68-46.73-16.28-71.39,16.75,11.15,32.13,24.54,45.72,39.98-9.47,10.73-19.28,21.2-29.44,31.41ZM1386.71,1068.49c-16.2-29.7-25.67-62.59-27.77-96.5.06.03.13.06.19.1,18.72,12.58,35.71,28.02,50.42,45.99-1.21,2.96-2.43,5.92-3.68,8.87-5.96,14.09-12.36,27.94-19.16,41.54ZM1441.75,918.52c-12.35,1.4-24.51,3.73-36.38,6.92,20.19-20.21,36.46-43.29,48.44-68.32-3.11,20.66-7.14,41.14-12.06,61.39Z"/></svg>
