<?xml version="1.0" encoding="UTF-8"?><svg id="Layer_2" xmlns="http://www.w3.org/2000/svg" xmlns:xlink="http://www.w3.org/1999/xlink" viewBox="0 0 1500 1500"><defs><style>.cls-1{fill:url(#New_Gradient_Swatch_2);stroke-width:0px;}</style><linearGradient id="New_Gradient_Swatch_2" x1="394.14" y1="954.62" x2="1242.76" y2="464.66" gradientUnits="userSpaceOnUse"><stop offset="0" stop-color="#56450d"/><stop offset=".21" stop-color="#e5c787"/><stop offset=".39" stop-color="#f7d976"/><stop offset=".99" stop-color="#725728"/></linearGradient></defs><path class="cls-1" d="M382.84,910.97c0,49.63,40.38,90.01,90.01,90.01,13.56,0,26.43-3.02,37.98-8.42l186.18,321.7c-23.09,16.31-38.19,43.2-38.19,73.56,0,49.63,40.38,90.01,90.01,90.01s90.01-40.38,90.01-90.01c0-29.62-14.38-55.94-36.53-72.35l186.88-322.9c11.55,5.4,24.41,8.42,37.98,8.42,49.63,0,90.01-40.38,90.01-90.01,0-46.93-36.11-85.58-82.01-89.65v-140.6c45.9-4.06,82.01-42.71,82.01-89.65s-36.11-85.58-82.01-89.65v-140.6c45.9-4.06,82.01-42.71,82.01-89.65,0-49.63-40.38-90.01-90.01-90.01-30.46,0-57.43,15.21-73.72,38.43l-121.91-70.03c5.23-11.4,8.15-24.07,8.15-37.41,0-49.63-40.38-90.01-90.01-90.01s-90.01,40.38-90.01,90.01c0,13.46,2.97,26.23,8.29,37.71l-121.39,69.73c-16.29-23.22-43.26-38.43-73.72-38.43-49.63,0-90.01,40.38-90.01,90.01,0,46.93,36.11,85.58,82.01,89.65v140.6c-45.9,4.06-82.01,42.71-82.01,89.65s36.11,85.58,82.01,89.65v140.6c-45.9,4.06-82.01,42.71-82.01,89.65ZM472.85,984.98c-40.81,0-74.01-33.2-74.01-74.01,0-38.1,28.95-69.56,66.01-73.57v73.76c0,1.91.67,3.66,1.78,5.04l36.13,62.43c-9.16,4.06-19.27,6.34-29.92,6.34ZM742,279.19v62.59c-27.07,2.29-50.76,16.61-65.7,37.59l-121.82-70.3c4.3-9.22,7.07-19.29,8.01-29.88h179.51ZM937.51,279.19c.94,10.59,3.71,20.65,8.01,29.88l-122.29,70.57c-14.8-20.95-38.32-35.32-65.22-37.8v-62.65h179.51ZM824.01,1069.37c0,38.1-28.95,69.56-66.01,73.57v-68.92l59.83-34.19c3.96,9.06,6.18,19.05,6.18,29.55ZM718.9,1320.15c7.18-3.19,14.94-5.27,23.1-6.01v45.92l-23.1-39.91ZM758,1314.4c8,.99,15.61,3.25,22.61,6.6l-22.61,39.06v-45.66ZM682.17,1039.82l59.83,34.19v68.92c-37.06-4-66.01-35.46-66.01-73.57,0-10.5,2.21-20.49,6.18-29.55ZM675.86,750.92c0-10.6,2.26-20.69,6.29-29.81l51.84,29.92-51.77,29.88c-4.08-9.17-6.37-19.31-6.37-29.98ZM494.7,293.04l37.83,21.83c-4.48,6.11-9.88,11.51-15.99,15.99l-21.84-37.83ZM502.7,338.89c-6.81,3.02-14.15,5.04-21.85,5.87v-43.71l21.85,37.84ZM546.47,322.92l121.75,70.26c-5.48,11.62-8.56,24.6-8.56,38.28s2.99,26.28,8.32,37.78l-53.66,30.97-89.74-155.4c8.49-5.98,15.9-13.4,21.88-21.88ZM975.38,344.78l-89.8,155.37-54.08-31.21c5.25-11.42,8.18-24.11,8.18-37.47s-3.02-26.43-8.42-37.98l122.28-70.57c5.97,8.48,13.37,15.88,21.85,21.86ZM967.46,314.88l37.81-21.82-21.85,37.8c-6.1-4.48-11.49-9.87-15.96-15.98ZM823.87,750.92c0,10.62-2.27,20.72-6.31,29.85l-51.55-29.75,51.63-29.79c4,9.09,6.24,19.13,6.24,29.69ZM997.29,902.97h-43.7c.83-7.69,2.85-15.03,5.86-21.83l37.84,21.83ZM967.46,867.29c11.99-16.34,30.51-27.6,51.69-29.88v59.71l-51.69-29.83ZM937.51,902.97h-179.51v-62.41c27.02-2.43,50.64-16.85,65.47-37.89l122.05,70.43c-4.3,9.22-7.07,19.29-8.01,29.88ZM757.86,677.36c7.71.83,15.06,2.86,21.88,5.88l-21.88,37.85v-43.74ZM757.86,661.28v-62.19h70.53l-40.59,70.23c-9.24-4.31-19.32-7.1-29.93-8.04ZM741.86,661.28c-10.6.94-20.67,3.72-29.9,8.02l-40.54-70.21h70.44v62.19ZM741.86,677.36v43.71l-21.85-37.84c6.81-3.02,14.15-5.04,21.85-5.87ZM758,824.47v-59.59l51.54,29.74c-11.96,16.29-30.43,27.53-51.54,29.85ZM771.58,729.34l22.01-38.07c6.14,4.51,11.56,9.95,16.06,16.11l-38.06,21.97ZM801.64,677.34l45.23-78.26h90.64c.94,10.59,3.71,20.65,8.01,29.88l-121.94,70.37c-5.99-8.53-13.42-15.98-21.94-21.99ZM953.59,599.08h43.7l-37.84,21.83c-3.01-6.81-5.03-14.14-5.86-21.83ZM997.29,583.08h-43.7c.83-7.69,2.85-15.03,5.86-21.83l37.84,21.83ZM967.46,547.4c11.99-16.34,30.51-27.6,51.69-29.88v59.71l-51.69-29.83ZM937.51,583.08h-81.39l35.31-61.09,54.09,31.21c-4.3,9.22-7.07,19.29-8.01,29.88ZM837.64,583.08h-79.77v-62c27.16-2.46,50.87-17.04,65.68-38.27l54.03,31.18-39.93,69.09ZM741.86,505.05c-21.3-2.24-39.92-13.56-51.95-30l51.95-29.98v59.98ZM757.86,444.91l51.75,29.87c-11.94,16.48-30.5,27.87-51.75,30.22v-60.09ZM823.67,431.46c0,10.46-2.19,20.4-6.12,29.43l-51.55-29.75,51.32-29.62c4.07,9.16,6.35,19.28,6.35,29.94ZM758,417.29v-59.35c21,2.36,39.36,13.55,51.29,29.75l-51.29,29.6ZM742,417.29l-51.76-29.87c12.06-16.23,30.6-27.38,51.76-29.56v59.44ZM734,431.14l-52.08,30.05c-4.01-9.11-6.26-19.16-6.26-29.73s2.33-21,6.49-30.24l51.85,29.92ZM675.99,483.09c14.89,21.19,38.67,35.69,65.88,38.03v61.96h-79.68l-39.86-69.03,53.66-30.97ZM643.71,583.08h-81.21c-.94-10.59-3.71-20.65-8.01-29.88l53.98-31.15,35.24,61.03ZM546.41,583.08h-43.7l37.84-21.83c3.01,6.81,5.03,14.14,5.86,21.83ZM502.71,599.08h43.7c-.83,7.69-2.85,15.03-5.86,21.83l-37.84-21.83ZM532.54,634.77c-11.99,16.34-30.51,27.6-51.69,29.88v-59.71l51.69,29.83ZM562.49,599.08h90.45l45.18,78.23c-8.49,5.99-15.91,13.41-21.89,21.9l-121.75-70.26c4.3-9.22,7.07-19.29,8.01-29.88ZM706.17,691.25l21.87,37.87-37.87-21.85c4.49-6.12,9.89-11.52,16-16.01ZM742,764.88v59.63c-21.18-2.25-39.71-13.47-51.73-29.77l51.73-29.85ZM742,840.58v62.39h-179.51c-.94-10.59-3.71-20.65-8.01-29.88l121.85-70.32c14.89,21.05,38.58,35.45,65.66,37.81ZM546.41,902.97h-43.7l37.84-21.83c3.01,6.81,5.03,14.14,5.86,21.83ZM502.97,918.97h43.45c-.82,7.58-2.79,14.83-5.74,21.55l-37.71-21.55ZM532.72,954.4c-4.51,6.19-9.94,11.67-16.11,16.21l-21.98-37.97,38.09,21.77ZM562.49,918.97h179.51v60.75c-27.22,2.41-50.99,16.98-65.83,38.23l-121.52-69.45c4.21-9.13,6.92-19.08,7.85-29.53ZM742,995.8v59.78l-51.87-29.64c11.98-16.48,30.58-27.84,51.87-30.14ZM758,1055.58v-59.78c21.29,2.3,39.88,13.66,51.87,30.14l-51.87,29.64ZM758,979.72v-60.75h179.51c.93,10.46,3.64,20.4,7.85,29.53l-121.52,69.45c-14.84-21.25-38.62-35.83-65.83-38.23ZM953.59,918.97h43.45l-37.71,21.55c-2.94-6.73-4.92-13.97-5.74-21.55ZM1005.37,932.63l-21.98,37.97c-6.17-4.54-11.61-10.01-16.11-16.21l38.09-21.77ZM953.53,859.25l-122.04-70.43c5.37-11.52,8.38-24.36,8.38-37.9s-2.98-26.25-8.3-37.73l121.97-70.39c14.86,21.09,38.53,35.53,65.62,37.92v140.6c-27.09,2.4-50.76,16.84-65.62,37.92ZM967.46,634.77l51.69-29.83v59.71c-21.18-2.29-39.7-13.54-51.69-29.88ZM953.53,539.36l-54.1-31.22,89.79-155.34c9.24,4.31,19.32,7.1,29.93,8.04v140.6c-27.09,2.4-50.76,16.84-65.62,37.92ZM997.27,338.88l21.88-37.85v43.74c-7.71-.83-15.06-2.86-21.88-5.88ZM997.29,279.19l-37.84,21.83c-3.01-6.81-5.03-14.14-5.86-21.83h43.7ZM953.59,263.19c.83-7.64,2.82-14.93,5.8-21.7l37.78,21.7h-43.58ZM540.55,301.03l-37.84-21.83h43.7c-.83,7.69-2.85,15.03-5.86,21.83ZM502.84,263.19l37.78-21.7c2.98,6.77,4.98,14.06,5.8,21.7h-43.58ZM510.74,352.82l89.72,155.38-54,31.16c-14.86-21.09-38.53-35.53-65.62-37.92v-140.6c10.6-.94,20.67-3.72,29.9-8.02ZM532.54,547.4l-51.69,29.83v-59.71c21.18,2.29,39.7,13.54,51.69,29.88ZM546.47,642.81l121.75,70.26c-5.36,11.51-8.36,24.34-8.36,37.86s3.03,26.46,8.44,38.02l-121.83,70.31c-14.86-21.09-38.53-35.53-65.62-37.92v-140.6c27.09-2.4,50.76-16.84,65.62-37.92ZM532.54,867.29l-51.69,29.83v-59.71c21.18,2.29,39.7,13.54,51.69,29.88ZM524.66,984.53c8.56-6.05,16.02-13.55,22.02-22.14l121.52,69.45c-5.27,11.43-8.21,24.14-8.21,37.53,0,46.93,36.11,85.58,82.01,89.65v139.05c-11.06.83-21.56,3.68-31.16,8.16l-186.18-321.7ZM822.83,1387.82c0,40.81-33.2,74.01-74.01,74.01s-74.01-33.2-74.01-74.01c0-24.45,11.92-46.15,30.25-59.64l38.01,65.68c1.43,2.47,4.07,3.99,6.92,3.99s5.49-1.52,6.92-3.99l37.29-64.43c17.39,13.55,28.61,34.68,28.61,58.39ZM788.64,1307.11c-9.41-4.66-19.74-7.73-30.64-8.84v-139.26c45.9-4.06,82.01-42.71,82.01-89.65,0-13.39-2.94-26.1-8.21-37.53l121.52-69.45c6,8.59,13.46,16.1,22.02,22.14l-186.7,322.59ZM1101.16,910.97c0,40.81-33.2,74.01-74.01,74.01-10.65,0-20.76-2.28-29.92-6.34l36.84-63.66c.71-1.22,1.08-2.6,1.08-4.01v-73.57c37.06,4,66.01,35.46,66.01,73.57ZM1101.16,591.08c0,38.1-28.95,69.56-66.01,73.57v-147.13c37.06,4,66.01,35.46,66.01,73.57ZM1027.15,197.19c40.81,0,74.01,33.2,74.01,74.01,0,38.1-28.95,69.56-66.01,73.57v-73.57c0-2.86-1.53-5.51-4.02-6.94l-63.76-36.62c13.47-18.44,35.24-30.44,59.77-30.44ZM945.44,233.48c-4.25,9.18-7,19.19-7.93,29.71h-179.51v-61.39c27.13-2.5,50.8-17.09,65.58-38.32l121.86,70ZM758,125.81l51.64,29.66c-11.92,16.46-30.43,27.85-51.64,30.23v-59.89ZM742,185.79c-21.37-2.21-40.06-13.56-52.11-30.05l52.11-29.93v59.98ZM675.66,112.18c0-40.81,33.2-74.01,74.01-74.01s74.01,33.2,74.01,74.01c0,10.44-2.19,20.38-6.1,29.4l-63.58-36.52c-2.47-1.42-5.5-1.42-7.97,0l-64.11,36.83c-4-9.1-6.24-19.14-6.24-29.7ZM675.95,163.76c14.91,21.25,38.77,35.79,66.05,38.1v61.33h-179.51c-.93-10.52-3.68-20.53-7.93-29.71l121.39-69.73ZM398.84,271.19c0-40.81,33.2-74.01,74.01-74.01,24.53,0,46.3,12.01,59.77,30.44l-63.76,36.62c-2.48,1.43-4.02,4.07-4.02,6.94v73.57c-37.06-4-66.01-35.46-66.01-73.57ZM398.84,591.08c0-38.1,28.95-69.56,66.01-73.57v147.13c-37.06-4-66.01-35.46-66.01-73.57Z"/></svg>