<?xml version="1.0" encoding="UTF-8"?><svg id="Layer_2" xmlns="http://www.w3.org/2000/svg" xmlns:xlink="http://www.w3.org/1999/xlink" viewBox="0 0 1500 1500"><defs><style>.cls-1{fill:url(#New_Gradient_Swatch_2);stroke-width:0px;}</style><linearGradient id="New_Gradient_Swatch_2" x1="126.82" y1="1109.4" x2="1372.69" y2="390.09" gradientUnits="userSpaceOnUse"><stop offset="0" stop-color="#56450d"/><stop offset=".21" stop-color="#e5c787"/><stop offset=".39" stop-color="#f7d976"/><stop offset=".99" stop-color="#725728"/></linearGradient></defs><path class="cls-1" d="M1258.31,241.3c-66.02-66.02-142.89-117.85-228.49-154.05-88.63-37.49-182.77-56.49-279.81-56.49-.66,0-1.32.01-1.98.01-.33,0-.66-.01-.99-.01-.99,0-1.98.03-2.97.04-94.94.76-187.05,19.74-273.87,56.46-85.6,36.21-162.48,88.04-228.49,154.05-31.45,31.45-59.67,65.36-84.52,101.51-21.91,26.76-39.8,56.37-53.35,88.41-2.46,5.82-4.76,11.68-6.9,17.59-3.2,6.94-6.3,13.93-9.28,20.98-37.49,88.63-56.49,182.77-56.49,279.81s19.01,191.18,56.49,279.81c7.73,18.28,16.18,36.15,25.32,53.61,8.31,17.52,17.96,34.25,28.9,50.13,28.37,44.92,61.74,86.65,99.84,124.75,66.02,66.02,142.89,117.85,228.49,154.05,78.25,33.1,160.79,51.78,245.84,55.7,11.24,1.04,22.57,1.58,33.98,1.58s22.74-.54,33.98-1.58c85.04-3.93,167.59-22.61,245.84-55.7,85.6-36.21,162.48-88.04,228.49-154.05,39.48-39.48,73.88-82.85,102.91-129.64,8.45-12.71,16.08-25.95,22.88-39.68,10.28-19.22,19.72-38.95,28.27-59.18,37.49-88.63,56.49-182.77,56.49-279.81s-19.01-191.18-56.49-279.81c-36.21-85.6-88.04-162.48-154.05-228.49ZM1304.01,1172.99c-62.39,62.39-144.33,98.1-232,101.47,4.64-8.85,8.94-17.91,12.86-27.17,18.02-42.61,27.58-87.74,28.48-134.25h238.45c-1.55,2.56-3.11,5.12-4.7,7.66-12.5,18.59-26.89,36.1-43.08,52.29ZM155.65,1125.04c-2.52-3.98-5-7.98-7.43-12h238.45c.9,46.51,10.45,91.64,28.48,134.25,3.92,9.27,8.23,18.33,12.87,27.18-87.77-3.31-169.81-39.03-232.25-101.48-14.92-14.92-28.31-30.98-40.1-47.95ZM93.99,927.32c0-56.23,13.29-110.41,38.34-158.98,14.1,22.05,30.6,42.56,49.37,61.32,21.58,21.58,45.47,40.14,71.35,55.53l-118.21,204.74c-2.95-5.33-5.83-10.71-8.65-16.13-21.08-45.3-32.21-95.04-32.21-146.49ZM111.33,455.77c6.52-14.16,13.47-28.06,20.88-41.69l117.89,204.18c-23.7,14.69-45.67,32.08-65.66,52.07-20.11,20.11-37.6,42.23-52.35,66.1-26.67-49.79-40.83-105.68-40.83-163.76,0-40.47,6.88-79.88,20.07-116.91ZM193.02,327.01c62.39-62.39,144.33-98.1,232-101.47-4.64,8.85-8.94,17.91-12.86,27.17-18.02,42.61-27.58,87.74-28.48,134.25h-235.94c7.11-11.79,14.56-23.36,22.35-34.7,7.19-8.73,14.83-17.16,22.93-25.25ZM1113.32,1097.03c-1.08-45.96-10.64-90.55-28.46-132.68-2.31-5.47-4.75-10.86-7.31-16.19l259.14,148.86h-223.37ZM165.27,1097.03l257.38-149.27c-2.64,5.46-5.15,10.99-7.52,16.59-17.82,42.13-27.38,86.72-28.46,132.68h-221.41ZM383.71,402.97c1.08,45.96,10.64,90.55,28.46,132.68,2.31,5.47,4.75,10.86,7.31,16.19l-259.14-148.86h223.37ZM1331.76,402.97l-257.38,149.27c2.64-5.46,5.15-10.99,7.52-16.59,17.82-42.13,27.38-86.72,28.46-132.68h221.41ZM1098.42,749.61c0,43.72-8.03,86.2-23.37,125.77l-19.43,33.66c-13.94-21.62-30.19-41.75-48.63-60.2-33.37-33.37-72.24-59.58-115.52-77.88-22.24-9.41-45.17-16.51-68.62-21.28,22.41-4.76,44.35-11.63,65.64-20.64,43.28-18.3,82.14-44.51,115.52-77.88,20.3-20.3,37.94-42.65,52.77-66.78l.18.31c27.08,50.08,41.46,106.39,41.46,164.91ZM720.5,775.96c-10.81,14.92-22.86,29.1-36.15,42.39-56.93,56.93-130.13,91.65-209.11,99.85l245.26-142.24ZM739.02,1064.65c-18.42-42.81-28.11-89.32-28.11-137.33s9.69-94.52,28.11-137.33v274.65ZM776.52,724.04c10.81-14.92,22.86-29.1,36.15-42.39,56.93-56.93,130.13-91.65,209.11-99.85l-245.26,142.24ZM758,435.35c18.42,42.81,28.11,89.32,28.11,137.33s-9.69,94.52-28.11,137.33v-274.65ZM739.02,716.19c-20.19-44.5-30.84-93.18-30.84-143.51s10.65-99.01,30.84-143.51v287.01ZM725.88,727.7l-255.15-146.57c81.74,6.79,157.69,41.86,216.35,100.52,14.37,14.37,27.32,29.78,38.79,46.05ZM715.19,740.15c-80.78-7.29-155.77-42.25-213.83-100.31-13.74-13.74-26.17-28.45-37.27-43.94l251.1,144.25ZM467.78,903.09c10.91-15.12,23.1-29.49,36.55-42.94,57.09-57.09,130.55-91.85,209.8-99.93l-246.34,142.87ZM580.15,907.54c43.28-18.3,82.14-44.51,115.52-77.88,6.56-6.56,12.83-13.34,18.83-20.32-13,37.83-19.59,77.4-19.59,117.97,0,49.06,9.61,96.65,28.56,141.46,4.03,9.54,8.47,18.84,13.27,27.94-87.45-3.51-169.17-39.2-231.42-101.45-18.31-18.31-34.32-38.31-47.9-59.64,42.44-2.14,83.64-11.56,122.73-28.09ZM758,783.81c20.19,44.5,30.84,93.18,30.84,143.51s-10.65,99.01-30.84,143.51v-287.01ZM771.14,772.3l255.15,146.57c-81.74-6.79-157.69-41.86-216.35-100.52-14.37-14.37-27.32-29.77-38.8-46.05ZM781.84,759.85c80.78,7.29,155.77,42.25,213.83,100.31,13.74,13.74,26.18,28.45,37.27,43.94l-251.1-144.25ZM1029.24,596.91c-10.91,15.12-23.1,29.49-36.55,42.94-57.09,57.09-130.55,91.85-209.8,99.93l246.34-142.87ZM996.66,503.94c18.48,18.48,34.62,38.67,48.27,60.22-44.32,1.59-87.34,11.07-128.06,28.3-43.28,18.3-82.14,44.51-115.52,77.88-6.56,6.56-12.83,13.34-18.83,20.32,13-37.83,19.59-77.4,19.59-117.97,0-49.06-9.61-96.65-28.56-141.46-4.08-9.64-8.57-19.06-13.43-28.25h14.18c84.02,5.53,162.26,40.88,222.35,100.97ZM860.46,402.97h91.57l46.55,80.63c-31.21-29.09-66.84-52.24-106.13-68.85-10.52-4.45-21.19-8.36-32-11.78ZM734.17,402.97c-4.85,9.19-9.35,18.6-13.43,28.25-18.95,44.81-28.56,92.41-28.56,141.46,0,37.13,5.51,73.41,16.41,108.29-3.32-3.6-6.71-7.15-10.19-10.63-33.37-33.37-72.24-59.58-115.52-77.88-40.05-16.94-82.33-26.39-125.88-28.21,13.67-21.58,29.82-41.8,48.32-60.3,60.09-60.09,138.33-95.44,222.35-100.97h6.49ZM609.53,414.74c-39.29,16.62-74.92,39.76-106.13,68.85l46.55-80.63h91.57c-10.81,3.42-21.48,7.33-32,11.78ZM441.59,591.24c13.9,21.52,30.08,41.56,48.45,59.93,33.37,33.37,72.24,59.58,115.52,77.88,22.24,9.41,45.17,16.51,68.62,21.28-22.41,4.76-44.35,11.63-65.64,20.64-43.28,18.3-82.14,44.51-115.52,77.88-19,19-35.66,39.78-49.87,62.13-25.85-49.18-39.58-104.21-39.58-161.36s13.18-109.95,38.03-158.37ZM494.01,1006.59c33.37,33.37,72.24,59.58,115.52,77.88,11.32,4.79,22.81,8.97,34.46,12.56h-99l-54.01-93.54c1.01,1.03,2,2.08,3.03,3.1ZM996.66,995.27c-62.79,62.79-145.38,98.56-233.69,101.53,4.81-9.12,9.26-18.46,13.31-28.02,18.95-44.81,28.56-92.41,28.56-141.46,0-37.13-5.51-73.41-16.41-108.29,3.32,3.6,6.71,7.15,10.19,10.63,33.37,33.37,72.24,59.58,115.52,77.88,40.1,16.96,82.43,26.41,126.04,28.22l-17.71,30.67c-8.02,10-16.62,19.64-25.82,28.84ZM989.17,1024.12l-42.1,72.92h-89.08c11.65-3.59,23.15-7.78,34.46-12.56,35.39-14.97,67.82-35.22,96.72-60.35ZM1056.64,552.14l-86.13-149.18h123.83c-1.3,52.69-14.29,103.4-37.71,149.18ZM961.27,386.97l-69.7-120.73c48.48-26.03,102.78-40.17,159.24-40.93,27.34,49.01,42.39,104.18,43.56,161.66h-133.09ZM942.8,386.97h-168.01c-4.17-.27-8.36-.47-12.55-.6,13.54-21.22,29.48-41.13,47.71-59.36,20.6-20.6,43.34-38.3,67.71-52.88l65.15,112.84ZM798.63,315.7c-15.02,15.02-28.58,31.16-40.63,48.31V66.89l111.69,193.45c-25.77,15.35-49.56,33.86-71.06,55.36ZM742,372.39c-13.42-20.29-28.89-39.25-46.33-56.69-19.91-19.91-41.79-37.24-65.37-51.89l111.71-193.48v302.07ZM684.36,327.01c18.31,18.31,34.32,38.31,47.9,59.64-1.69.09-3.37.2-5.05.31h-168.01l63.13-109.35c22.23,13.89,43.04,30.4,62.04,49.39ZM540.71,386.97h-141.03c1.16-57.48,16.22-112.65,43.56-161.66,58.83.75,115.3,16.02,165.32,44.14l-67.85,117.52ZM531.47,402.97l-90.28,156.37c-25.8-47.63-40.12-100.9-41.49-156.37h131.77ZM410.62,565.2c-38.19,3.19-75.3,12.3-110.67,27.26-12.4,5.24-24.42,11.16-36.07,17.68l-111.65-193.38,258.39,148.43ZM429.19,580.13l-91.32,158.17-66.03-114.37c47.76-26.79,101.4-41.88,157.35-43.8ZM396.62,668.55c-6.02,26.4-9.05,53.5-9.05,81.06,0,33.42,4.47,66.16,13.3,97.8l-53.76-93.11,49.51-85.75ZM424.18,919.79c-52.86-2.16-103.62-16.06-149.24-40.5l62.93-108.99,86.31,149.5ZM297.22,907.54c36.78,15.56,75.45,24.81,115.25,27.63l-255.26,148.04,109.78-190.14c9.82,5.26,19.9,10.1,30.23,14.47ZM440.39,947.86l86.13,149.18h-123.83c1.3-52.69,14.29-103.4,37.71-149.18ZM535.75,1113.03l69.7,120.73c-48.48,26.03-102.78,40.17-159.24,40.93-27.34-49.01-42.39-104.18-43.56-161.66h133.09ZM554.23,1113.03h180.96c-13.62,21.45-29.7,41.55-48.1,59.95-20.6,20.6-43.34,38.3-67.71,52.88l-65.15-112.84ZM698.4,1184.3c15.02-15.02,28.58-31.16,40.63-48.31v297.12l-111.69-193.45c25.77-15.35,49.56-33.86,71.06-55.36ZM755.02,1127.61c13.42,20.29,28.89,39.25,46.33,56.69,19.91,19.91,41.79,37.24,65.37,51.89l-111.7,193.48v-302.06ZM812.67,1172.99c-18.4-18.4-34.48-38.51-48.1-59.95h173.27l-63.13,109.35c-22.23-13.89-43.04-30.4-62.04-49.39ZM956.31,1113.03h141.03c-1.16,57.48-16.22,112.65-43.56,161.66-58.83-.75-115.3-16.02-165.32-44.14l67.85-117.52ZM965.55,1097.03l70.19-121.57c7.92-9.96,15.3-20.3,22.11-31,24.53,46.66,38.14,98.58,39.47,152.58h-131.77ZM1086.4,934.8c38.19-3.19,75.3-12.3,110.67-27.26,12.4-5.24,24.42-11.16,36.07-17.68l111.65,193.38-258.39-148.43ZM1072.22,919.71c4.94-9.32,9.5-18.86,13.63-28.64,1.16-2.74,2.28-5.48,3.37-8.24l69.93-121.12,66.03,114.37c-46.51,26.09-98.6,41.1-152.96,43.64ZM1107.9,818.48c4.32-22.54,6.52-45.54,6.52-68.88,0-27.56-3.03-54.66-9.05-81.06l44.55,77.16-42.02,72.78ZM1072.84,580.21c52.86,2.16,103.62,16.06,149.24,40.5l-62.93,108.99-86.31-149.49ZM1199.8,592.46c-36.78-15.56-75.45-24.81-115.25-27.63l255.26-148.04-109.78,190.14c-9.82-5.26-19.9-10.1-30.24-14.47ZM1349.38,386.97h-239.01c-.9-46.51-10.45-91.64-28.47-134.25-3.92-9.27-8.23-18.33-12.87-27.18,87.77,3.31,169.81,39.03,232.25,101.48,18.4,18.4,34.48,38.51,48.1,59.96ZM914.14,237.82c-10.44,4.42-20.62,9.3-30.54,14.63l-118.49-205.23c86,4.38,166.24,39.95,227.57,101.29,18.71,18.71,35.01,39.18,48.78,61.04-44.06,1.67-86.83,11.14-127.33,28.27ZM616.52,255.66c-11.74-6.59-23.86-12.56-36.37-17.85-40.56-17.16-83.42-26.63-127.57-28.28,13.76-21.85,30.06-42.32,48.77-61.03,63.26-63.26,146.63-99.11,235.69-101.61l-120.53,208.76ZM195.75,681.65c19.08-19.08,39.99-35.64,62.33-49.57l70.56,122.21-67.61,117.11c-24.48-14.62-47.32-32.37-68-53.05-20.13-20.13-37.48-42.31-51.87-66.05,14.91-25.48,33.17-49.22,54.6-70.65ZM582.88,1262.18c10.44-4.42,20.62-9.3,30.54-14.63l118.17,204.67c-4.87-.12-9.73-.3-14.58-.53-80.34-7.52-154.89-42.43-212.67-100.21-18.71-18.71-35.01-39.18-48.78-61.04,44.06-1.67,86.83-11.14,127.33-28.27ZM760.39,1452.38l120.11-208.04c11.74,6.59,23.86,12.56,36.37,17.85,40.56,17.16,83.42,26.63,127.57,28.28-13.76,21.85-30.06,42.32-48.77,61.03-57.78,57.78-132.33,92.69-212.67,100.21-7.52.34-15.05.57-22.61.68ZM1371.12,1078.91c-1.65,3.1-3.31,6.19-5,9.26l-119.19-206.44c23.7-14.69,45.67-32.08,65.66-52.07,20.11-20.11,37.6-42.23,52.35-66.1,26.67,49.79,40.83,105.68,40.83,163.76,0,53.39-11.99,104.94-34.65,151.59ZM1301.28,818.35c-19.08,19.08-39.99,35.64-62.33,49.57l-70.56-122.21,67.61-117.11c24.48,14.62,47.32,32.37,68,53.05s37.48,42.31,51.87,66.05c-14.91,25.48-33.17,49.22-54.6,70.65ZM1315.32,670.34c-21.58-21.58-45.47-40.14-71.35-55.53l118.54-205.32c26.48,49.64,40.53,105.34,40.53,163.19s-13.29,110.41-38.34,158.98c-14.1-22.05-30.6-42.56-49.37-61.32ZM1246.99,252.61c10.29,10.29,20.23,20.86,29.81,31.68-24.45-18.8-51.12-34.38-79.73-46.48-43.48-18.39-89.58-27.95-137.09-28.51-15.47-26.17-34.19-50.32-55.98-72.11-32.22-32.22-69.58-57.74-111.06-75.93,44.64,9.22,88.28,22.81,130.64,40.72,83.69,35.4,158.86,86.08,223.41,150.63ZM253.01,252.61c64.55-64.55,139.72-115.23,223.41-150.63,38.72-16.38,78.52-29.13,119.16-38.25-39.28,18.01-74.75,42.68-105.54,73.46-21.79,21.79-40.5,45.94-55.98,72.11-47.42.59-93.44,10.15-136.84,28.51-22.25,9.41-43.32,20.92-63.09,34.41,6.15-6.64,12.44-13.18,18.87-19.61ZM76.01,549.51c-.48,7.68-.75,15.41-.75,23.17,0,49.06,9.61,96.65,28.56,141.46,5.58,13.19,11.9,25.96,18.93,38.3-5.94,10.82-11.35,21.95-16.2,33.41-18.95,44.81-28.56,92.41-28.56,141.46,0,11.41.54,22.73,1.58,33.97-21.53-68.13-32.42-139.07-32.42-211.68,0-68.5,9.69-135.52,28.86-200.1ZM253.01,1246.6c-7.41-7.41-14.62-14.96-21.66-22.64,21.35,15.15,44.28,27.94,68.6,38.22,43.48,18.39,89.58,27.95,137.09,28.51,15.47,26.17,34.19,50.32,55.98,72.11,30.65,30.65,65.94,55.23,105.02,73.22-41.5-9.15-82.12-22.09-121.61-38.79-83.69-35.4-158.86-86.08-223.41-150.63ZM1246.99,1246.6c-64.55,64.55-139.72,115.23-223.41,150.63-39.5,16.71-80.12,29.64-121.61,38.79,39.08-17.99,74.37-42.57,105.02-73.22,21.79-21.79,40.5-45.94,55.98-72.11,47.42-.59,93.44-10.15,136.84-28.51,24.61-10.41,47.78-23.38,69.34-38.76-7.19,7.87-14.57,15.6-22.15,23.17ZM1420.09,962.36c1.1-11.58,1.67-23.27,1.67-35.03,0-49.06-9.61-96.65-28.56-141.46-5.58-13.19-11.9-25.96-18.93-38.3,5.94-10.82,11.35-21.95,16.2-33.41,18.95-44.81,28.56-92.41,28.56-141.46,0-16.54-1.12-32.92-3.3-49.08,24.64,72.49,37.12,148.3,37.12,226.01,0,72.99-11.01,144.29-32.76,212.75Z"/></svg>
