<?xml version="1.0" encoding="UTF-8"?><svg id="Layer_2" xmlns="http://www.w3.org/2000/svg" xmlns:xlink="http://www.w3.org/1999/xlink" viewBox="0 0 1500 1500"><defs><style>.cls-1{fill:url(#New_Gradient_Swatch_2);stroke-width:0px;}</style><linearGradient id="New_Gradient_Swatch_2" x1="114.95" y1="1116.67" x2="1384.98" y2="383.41" gradientUnits="userSpaceOnUse"><stop offset="0" stop-color="#56450d"/><stop offset=".21" stop-color="#e5c787"/><stop offset=".39" stop-color="#f7d976"/><stop offset=".99" stop-color="#725728"/></linearGradient></defs><path class="cls-1" d="M1404.69,456.87c0-79.97-64.21-145.24-143.81-146.95-.26-.43-.51-.86-.78-1.29-20.71-33.36-53.17-56.66-91.4-65.6s-77.66-2.47-111.02,18.24c-18.59,11.54-34.05,26.73-45.65,44.54l-8.44-4.87c10.16-19.97,15.9-42.54,15.9-66.44h0c0-80.01-64.25-145.29-143.86-146.96-25.82-42.4-72.48-70.77-125.64-70.77-53.17,0-99.83,28.37-125.65,70.77-79.61,1.68-143.85,66.95-143.86,146.95,0,23.5,5.48,46.15,15.82,66.51l-8.37,4.83c-5.51-8.42-11.93-16.33-19.21-23.61-57.31-57.31-150.57-57.31-207.88,0-8.52,8.52-15.77,17.85-21.76,27.72-79.58,1.72-143.79,66.99-143.79,146.97,0,25.62,6.6,49.73,18.17,70.72-11.58,21-18.17,45.11-18.17,70.74,0,39.27,15.3,76.18,43.06,103.94,25.86,25.86,59.67,40.89,95.91,42.83v9.77c-77.34,4.18-138.98,68.43-138.98,146.79,0,25.17,6.3,49.37,18.12,70.81-11.54,20.98-18.12,45.06-18.12,70.65,0,39.27,15.3,76.18,43.06,103.95,27.01,27.01,62.68,42.2,100.74,43.01,5.98,9.86,13.22,19.17,21.73,27.68,28.66,28.66,66.3,42.98,103.94,42.98s75.28-14.33,103.94-42.98c7.33-7.33,13.72-15.26,19.18-23.62l8.47,4.89c-10.16,19.97-15.9,42.55-15.9,66.45,0,80,64.24,145.27,143.85,146.96,25.81,42.41,72.48,70.79,125.66,70.79s99.85-28.38,125.66-70.79c79.61-1.68,143.85-66.95,143.85-146.96,0-23.9-5.74-46.48-15.9-66.45l8.47-4.89c5.46,8.36,11.84,16.28,19.18,23.61,28.66,28.66,66.3,42.98,103.94,42.98s75.29-14.33,103.94-42.98c8.51-8.51,15.75-17.82,21.73-27.69,38.08-.8,73.76-16,100.78-43.02,27.76-27.77,43.05-64.68,43.05-103.95,0-25.58-6.58-49.65-18.12-70.62,11.83-21.45,18.12-45.66,18.12-70.84-.01-78.35-61.65-142.59-138.99-146.77v-9.77c36.26-1.93,70.08-16.97,95.95-42.84,27.76-27.77,43.05-64.68,43.05-103.95,0,0,0,0,0,0,0-25.58-6.58-49.65-18.12-70.63,11.83-21.45,18.12-45.66,18.12-70.83,0,0,0,0,0,0ZM1251.56,1173.99c-43-1.99-80.65-24.81-103.08-58.58l103.94-60.01c18.53,37.25,18.24,81.55-.87,118.59ZM866.36,1396.35c-42.99-2-80.63-24.81-103.05-58.57l103.88-59.98c8.82,17.61,13.79,37.46,13.79,58.45,0,21.65-5.29,42.08-14.63,60.09ZM619,1336.26c0-20.99,4.97-40.84,13.79-58.45l103.89,59.98c-22.42,33.76-60.06,56.57-103.05,58.57-9.34-18.01-14.62-38.45-14.62-60.09ZM251.31,1048.4c35.24-2.11,68.11-16.61,93.55-41.41-8.51,33.8-4.88,70.05,10.9,101.75-5.66,9.75-12.62,18.83-20.81,27.02-23.3,23.3-53.83,36.74-86.54,38.23-20.32-39.38-19.36-86.99,2.89-125.59ZM248.4,326.02c43.01,1.97,80.67,24.79,103.1,58.56l-103.95,60.01c-18.53-37.24-18.25-81.54.84-118.57ZM633.63,103.63c42.99,2,80.63,24.81,103.05,58.57l-103.9,59.98c-8.81-17.61-13.79-37.46-13.78-58.45,0-21.65,5.29-42.09,14.63-60.1ZM880.99,163.75c0,20.63-4.75,40.54-13.71,58.47l-103.97-60.02c22.42-33.76,60.06-56.57,103.04-58.57,9.35,18.02,14.64,38.46,14.64,60.12ZM374.93,1110.46c-.34-.57-.67-1.13-1-1.7,10.06-20.13,15.39-42.48,15.38-65.64v-.02c0-12.44-1.56-24.53-4.49-36.07,26.14,25.43,59.47,39.18,93.39,41.27,4.67,8.08,8.41,16.55,11.21,25.27-5.78,15.76-8.94,32.77-8.94,50.5,0,13.73,1.9,27.02,5.43,39.64-1.19,2.9-2.48,5.76-3.89,8.59l-107.09-61.83ZM1232.34,743.15c2.04,2.25,4,4.57,5.88,6.96-1.82,2.31-3.71,4.55-5.69,6.73-31.04,5.38-58.76,20.52-79.9,42.13-3.13.42-6.27.72-9.43.91v-99.69c3.2.19,6.36.5,9.49.92,21.09,21.54,48.72,36.64,79.65,42.04ZM758.47,1265.51c0,16.32-3.01,31.94-8.48,46.36-5.48-14.42-8.48-30.05-8.48-46.36s3.01-31.94,8.48-46.37c5.47,14.42,8.48,30.04,8.48,46.35v.02ZM514.87,1171.14c-2.99.64-5.99,1.17-9,1.6-1.11-2.76-2.12-5.56-3.04-8.41,10.53-28.93,11.7-60.53,3.5-90.05,1.21-2.94,2.53-5.83,3.95-8.66l86.28,49.81c-1.72,2.6-3.54,5.15-5.47,7.65-30.22,7.73-56.72,24.85-76.2,48.06ZM373.32,1043.12c0,3.93-.18,7.83-.52,11.7v-23.38c.34,3.86.52,7.74.52,11.66v.02ZM267.57,756.85c-2-2.22-3.91-4.49-5.74-6.81,1.85-2.35,3.79-4.64,5.79-6.86,29.64-5.11,56.94-19.2,78.65-40.91.39-.39.77-.79,1.16-1.19,3.09-.41,6.22-.71,9.37-.9v99.55c-3.2-.19-6.4-.51-9.58-.93-21.1-21.51-48.73-36.58-79.65-41.95ZM1124.97,389.48c.38.63.76,1.27,1.13,1.91-9.86,19.73-15.42,41.98-15.42,65.5,0,12.4,1.55,24.44,4.46,35.95-18.92-18.44-42.56-31.45-68.94-37.63-8.12-1.9-16.29-3.1-24.44-3.62-4.65-8.05-8.4-16.46-11.22-25.12,5.79-15.77,8.96-32.79,8.96-50.54h0c0-13.74-1.9-27.04-5.44-39.66,1.19-2.92,2.49-5.78,3.88-8.59l107.03,61.79ZM985.18,1171.21c-19.49-23.25-46.01-40.4-76.27-48.14-1.9-2.48-3.71-5.03-5.45-7.66l86.26-49.8c1.42,2.83,2.73,5.71,3.94,8.65-8.2,29.53-7.03,61.13,3.5,90.07-.93,2.87-1.95,5.7-3.07,8.48-2.97-.43-5.94-.97-8.91-1.6ZM373.32,456.83v.04c0,3.92-.18,7.79-.52,11.62v-23.24c.34,3.82.52,7.67.52,11.58ZM514.71,328.77c2.79,3.32,5.72,6.54,8.82,9.64,18.95,18.95,42.16,32.08,67.47,38.52,1.92,2.49,3.75,5.04,5.5,7.67l-86.22,49.78c-1.39-2.78-2.69-5.62-3.89-8.51,3.56-12.77,5.41-26.11,5.41-39.73,0-17.55-3.06-34.62-8.92-50.62.91-2.81,1.92-5.59,3.02-8.31,2.97.42,5.91.95,8.82,1.57ZM985.15,328.79c2.94-.63,5.93-1.16,8.94-1.59,1.11,2.77,2.13,5.59,3.06,8.44-2.01,5.52-3.7,11.2-5.06,17.01-5.74,24.53-5.12,49.56,1.53,73.15-1.2,2.91-2.51,5.76-3.91,8.56l-86.22-49.78c1.75-2.64,3.6-5.21,5.54-7.72,30.2-7.75,56.67-24.88,76.13-48.08ZM1012.67,1032.6c-9.25,0-18.5-.98-27.58-2.92-19.47-23.19-45.96-40.31-76.17-48.04-1.93-2.5-3.76-5.06-5.49-7.67l14.15-8.17,92.95-53.66c.64,0,1.28-.03,1.92-.03.09,0,.17,0,.26,0,19.22,28.9,48.37,50.64,82.55,60.3-23.46,6.58-45.59,19.07-64.02,37.49-7.06,7.06-13.25,14.68-18.58,22.7ZM895.45,1101.56c-1.41-2.82-2.71-5.67-3.91-8.56,3.54-12.63,5.44-25.93,5.44-39.68h0c0-17.72-3.15-34.72-8.93-50.46.92-2.87,1.93-5.69,3.04-8.47,2.98.42,5.92.95,8.83,1.57,2.77,3.31,5.7,6.53,8.81,9.64,19.29,19.29,42.66,32.08,67.36,38.39,1.95,2.52,3.82,5.12,5.59,7.78l-86.24,49.79ZM468.73,1009.9c-18.42-18.42-40.55-30.91-64.01-37.49,29.74-8.41,55.68-25.96,74.57-49.42v98.68c-3.28-4.06-6.79-8-10.57-11.77ZM1030.13,728.24c-3.13.42-6.29.72-9.45.91v-116.97l101.31,58.49c-3.59,5.43-7.59,10.59-11.97,15.43-31.04,5.38-58.76,20.52-79.9,42.14ZM758.47,1124.07c0,16.32-3.01,31.94-8.48,46.36-5.48-14.42-8.48-30.05-8.48-46.36s3.01-31.94,8.48-46.37c5.47,14.42,8.48,30.04,8.48,46.35v.02ZM523.89,1043.99c24.7-6.3,48.06-19.09,67.35-38.38,3.11-3.11,6.03-6.32,8.8-9.63,2.91-.62,5.86-1.15,8.85-1.57,1.11,2.78,2.13,5.59,3.04,8.43-5.78,15.75-8.94,32.76-8.94,50.49,0,13.73,1.9,27.03,5.44,39.65-1.19,2.9-2.49,5.77-3.89,8.59l-86.25-49.79c1.77-2.67,3.64-5.27,5.59-7.79ZM468.73,772.99c.39-.39.76-.78,1.15-1.18,3.12-.41,6.26-.71,9.42-.9v116.89l-101.24-58.45c3.59-5.42,7.62-10.62,12.1-15.57,28.8-5.01,56.38-18.6,78.57-40.79ZM514.89,470.31c19.48,23.19,45.96,40.31,76.17,48.04,1.93,2.5,3.76,5.06,5.49,7.67l-101.25,58.45v-116.82c6.57.4,13.12,1.28,19.59,2.67ZM1095.33,527.62c-29.27,8.31-55.47,25.56-74.65,49.32v-98.63c19.1,23.84,44.97,40.97,74.65,49.31ZM741.51,375.9c0-16.31,3.01-31.93,8.48-46.34,5.48,14.42,8.48,30.05,8.48,46.36v.02c0,16.35-3.02,32-8.52,46.44-5.55-14.65-8.45-30.34-8.45-46.48ZM976.17,455.9c-14.29,3.68-28.09,9.55-40.99,17.56-13.52,8.4-25.39,18.72-35.33,30.58-2.89.62-5.81,1.14-8.76,1.56-1.1-2.73-2.1-5.51-3.02-8.32,5.85-16,8.91-33.06,8.91-50.6h0c0-13.73-1.9-27.03-5.44-39.64,1.2-2.92,2.51-5.78,3.92-8.59l86.22,49.78c-1.75,2.63-3.59,5.19-5.51,7.69ZM1000.98,728.83c-6.05-.56-12.1-1.53-18.12-2.94-70.33-16.46-114.16-87.06-97.7-157.4,2.06-8.79,4.97-17.24,8.67-25.25,25.08,34.41,64.72,57.57,109.78,60.33-4.97,9.98-8.87,20.69-11.52,32-7.59,32.45-3.74,64.94,8.9,93.25ZM749.99,1042.93c-23.66-35.6-62.4-60.35-107.04-65.04,23.74-33.58,62.87-55.56,107.03-55.56,44.16,0,83.29,21.98,107.03,55.56-44.63,4.69-83.37,29.44-107.03,65.04ZM816.69,1005.57l-18.52,10.69c5.85-4.05,12.04-7.63,18.52-10.69ZM701.84,1016.29l-18.58-10.73c6.5,3.07,12.72,6.67,18.58,10.73ZM873.05,973.04c-26.27-40.13-71.62-66.7-123.06-66.71-51.45,0-96.79,26.57-123.07,66.7l-8.51-4.91c27.91-55.16,18.86-124.37-27.17-170.4-25.87-25.87-59.69-40.9-95.94-42.84v-9.86c34.93-1.89,69.32-16.13,95.94-42.76,46.03-46.03,55.08-115.24,27.18-170.4l8.43-4.87c5.51,8.41,11.92,16.32,19.19,23.59,27.76,27.77,64.67,43.06,103.94,43.06h.01c39.26,0,76.17-15.29,103.93-43.05,7.28-7.28,13.69-15.19,19.21-23.61l8.42,4.86c-5.23,10.36-9.27,21.41-11.98,33-8.95,38.23-2.47,77.66,18.24,111.02s53.17,56.66,91.4,65.6c8.46,1.98,16.97,3.2,25.47,3.68v9.81c-34.93,1.89-69.32,16.13-95.94,42.76-46.03,46.03-55.08,115.24-27.17,170.4l-8.51,4.91ZM562.42,935.79l-19.68-11.36c6.81,3.17,13.39,6.96,19.68,11.36ZM496.34,896.48c9.88-19.75,15.45-42.01,15.45-65.55,0-21.26-4.54-41.47-12.7-59.74,30.54,2.71,58.89,15.9,80.83,37.84,39.85,39.85,48.61,99.21,26.27,147.63-4.45-6.12-9.43-11.97-14.95-17.49-26.36-26.36-60.33-40.59-94.9-42.7ZM749.93,457.14c5.38,8.08,11.6,15.69,18.61,22.71,24.1,24.11,55.11,38.81,88.56,42.27-4.29,6.07-9.13,11.81-14.49,17.17-24.74,24.74-57.63,38.36-92.62,38.36h0c-34.99,0-67.89-13.63-92.63-38.37-5.36-5.36-10.19-11.1-14.48-17.16,44.63-4.67,83.38-29.39,107.06-64.97ZM683.28,494.42l18.54-10.7c-5.85,4.05-12.05,7.64-18.54,10.7ZM797.26,483.19l20.25,11.69c-7.06-3.27-13.83-7.17-20.25-11.69ZM561.79,564.56c-5.94,4.12-12.24,7.77-18.84,10.88l18.84-10.88ZM938.16,564.54l18.91,10.92c-6.63-3.12-12.95-6.78-18.91-10.92ZM874.63,406.35c-5.78,15.76-8.94,32.78-8.94,50.52,0,13.77,1.91,27.11,5.47,39.76-1.19,2.88-2.48,5.72-3.88,8.51l-101.28-58.47,101.21-58.43c2.91,5.81,5.39,11.86,7.42,18.12ZM606.16,543.24c22.38,48.44,13.64,107.83-26.23,147.71-22.54,22.54-51.3,35.12-80.8,37.77,17.64-39.84,16.74-85.96-2.72-125.15,45.06-2.77,84.68-25.92,109.76-60.33ZM495.79,830.93c0,3.8-.17,7.57-.49,11.29v-22.59c.32,3.72.49,7.49.49,11.29ZM938.03,935.53c1.83-1.26,3.69-2.49,5.59-3.67,4.3-2.67,8.71-5.06,13.22-7.19l-18.81,10.86ZM935.18,918.26c-16.41,10.19-30.38,23.22-41.41,38.38-22.33-48.42-13.57-107.76,26.28-147.6,22.54-22.54,51.31-35.12,80.81-37.77-8.13,18.24-12.67,38.43-12.67,59.66,0,23.5,5.55,45.72,15.4,65.44-24,1.46-47.41,8.85-68.42,21.89ZM1004.68,658v22.13c-.62-7.28-.64-14.68,0-22.13ZM1004.68,584.47l-101.26-58.46c1.73-2.62,3.55-5.17,5.47-7.65,30.27-7.74,56.8-24.9,76.29-48.15,6.42-1.38,12.93-2.27,19.5-2.66v116.93ZM764.54,429.03c6.41-16.48,9.93-34.38,9.93-53.09v-.02c0-12.51-1.57-24.65-4.53-36.25,21.4,20.87,49.12,35.29,79.98,40.07l-85.39,49.3ZM740.86,441.48c-.36.62-.73,1.24-1.1,1.86l-107.05,61.8c-1.4-2.79-2.69-5.63-3.88-8.51,3.56-12.65,5.47-25.99,5.47-39.76,0-17.74-3.16-34.76-8.94-50.52,2.86-8.84,6.64-17.26,11.22-25.17,36.25-2.22,68.99-17.64,93.47-41.51-2.95,11.6-4.53,23.73-4.53,36.24,0,23.14,5.31,45.46,15.35,65.57ZM495.3,679.5v-20.91c.55,6.96.55,13.95,0,20.91ZM625.34,1093.6c10.53-28.93,11.7-60.53,3.49-90.06,1.21-2.94,2.53-5.83,3.94-8.65l1.65.95,99.56,57.48-101.21,58.43c-2.91-5.82-5.4-11.88-7.43-18.15ZM867.2,994.89c1.42,2.83,2.73,5.72,3.95,8.66-.56,2.02-1.09,4.05-1.57,6.11-6.63,28.33-4.78,57.31,5.04,84-2.03,6.25-4.51,12.29-7.42,18.09l-101.21-58.43,101.21-58.43ZM1004.2,830.93c0-3.77.17-7.5.48-11.18v22.37c-.31-3.69-.48-7.42-.48-11.18ZM1114,539.81c-19.8,24.14-48.04,41.1-80.17,46.34,20.13-24.53,48.72-41.13,80.17-46.34ZM1059.64,493.22l20.37,11.76c-7.16-3.31-13.97-7.24-20.37-11.76ZM798.09,342.22l18.69,10.79c-6.54-3.09-12.79-6.7-18.69-10.79ZM683.2,353.01l18.69-10.79c-5.9,4.09-12.15,7.7-18.69,10.79ZM608.43,407.02c-3.54,12.61-5.43,25.9-5.43,39.63,0,17.55,3.06,34.62,8.91,50.62-.92,2.82-1.92,5.59-3.02,8.32-2.98-.42-5.93-.95-8.84-1.57-2.77-3.31-5.7-6.53-8.81-9.64-19.29-19.29-42.66-32.08-67.36-38.39-1.95-2.52-3.82-5.12-5.59-7.78l86.22-49.78c1.4,2.81,2.71,5.67,3.92,8.58ZM479.3,576.88c-3.28-4.07-6.8-8-10.57-11.77-18.45-18.45-40.62-30.95-64.12-37.52,23.5-6.57,45.67-19.07,64.12-37.52,3.76-3.76,7.27-7.68,10.57-11.76v98.57ZM466.23,586.16c-32.14-5.22-60.4-22.18-80.22-46.32,26.16,4.26,51.27,16.45,71.41,36.58,3.13,3.13,6.06,6.38,8.81,9.73ZM384.86,562.18c21.38,20.8,49.05,35.17,79.85,39.95l-85.19,49.18c6.43-16.68,9.79-34.57,9.79-52.98v-.04c0-12.34-1.52-24.44-4.45-36.1ZM479.3,612.18v116.82c-3.21-.2-6.41-.51-9.61-.94-21.09-21.5-48.71-36.57-79.61-41.95-4.45-4.92-8.46-10.1-12.02-15.49l101.24-58.45ZM382.22,701.1c.38.39.75.78,1.14,1.17,22.17,22.17,49.72,35.76,78.48,40.77,2.05,2.26,4.02,4.59,5.91,6.99-1.82,2.31-3.72,4.58-5.72,6.79-29.65,5.11-56.97,19.19-78.68,40.9-.36.36-.71.73-1.06,1.09-3.16.42-6.32.73-9.5.92v-99.55c3.17.19,6.32.5,9.43.91ZM464.82,897.92c-29.18,4.48-57.25,17.73-79.92,39.76,2.92-11.64,4.42-23.71,4.42-36.02v-.02c0-18.7-3.52-36.58-9.92-53.05l85.42,49.32ZM466.08,913.91c-19.81,24.14-48.07,41.09-80.21,46.31,2.74-3.35,5.68-6.6,8.8-9.73,20.13-20.13,45.24-32.32,71.41-36.58ZM495.3,915.52l101.24,58.45c-1.73,2.61-3.56,5.17-5.49,7.67-30.21,7.73-56.69,24.84-76.16,48.03-6.46,1.38-13.01,2.27-19.59,2.67v-116.82ZM735.44,1070.96c-6.41,16.48-9.93,34.39-9.93,53.11,0,12.5,1.57,24.64,4.52,36.23-21.4-20.86-49.11-35.28-79.96-40.05l85.37-49.29ZM764.55,1070.96l85.37,49.29c-30.86,4.78-58.57,19.2-79.97,40.06,2.95-11.6,4.52-23.74,4.52-36.24v-.02c0-18.71-3.52-36.61-9.93-53.09ZM1033.89,913.89c2.89.48,5.78,1.04,8.66,1.72,28.5,6.67,53.39,22.29,71.57,44.62-32.15-5.22-60.42-22.18-80.23-46.34ZM1115.14,937.65c-18.92-18.44-42.56-31.46-68.95-37.63-3.65-.85-7.31-1.56-10.97-2.14l85.38-49.29c-6.4,16.48-9.92,34.38-9.92,53.09,0,12.41,1.55,24.45,4.46,35.97ZM1020.68,887.81v-116.82c3.2.19,6.39.5,9.56.93,18.88,19.33,43.27,33.69,71.47,40.28,2.72.64,5.45,1.19,8.18,1.67,4.45,4.92,8.45,10.1,12.02,15.48l-101.24,58.45ZM1117.77,798.91c-.39-.39-.76-.79-1.15-1.18-22.17-22.17-49.72-35.76-78.48-40.77-2.04-2.26-3.99-4.58-5.86-6.97,1.83-2.32,3.73-4.57,5.71-6.76,18.3-3.19,36-9.9,52.25-19.99,10.21-6.34,19.48-13.78,27.68-22.15,3.06-.41,6.16-.7,9.29-.89v99.66c-3.14-.2-6.28-.51-9.42-.94ZM1035.27,602.13c30.84-4.78,58.54-19.18,79.93-40.03-2.95,11.6-4.53,23.74-4.52,36.25,0,18.69,3.52,36.58,9.91,53.04l-85.32-49.25ZM1126.68,598.34c0-3.88.18-7.72.51-11.52v23.02c-.33-3.79-.51-7.63-.51-11.5ZM1067.85,479.48c7.2,3.32,14.05,7.28,20.49,11.83l-20.49-11.83ZM805.55,328.05c6.65,3.13,13,6.8,18.99,10.96l-18.99-10.96ZM675.4,339.04c6.01-4.18,12.39-7.87,19.07-11.01l-19.07,11.01ZM457.42,478.76c-20.16,20.16-45.3,32.35-71.5,36.6,2.73-3.33,5.64-6.56,8.75-9.66,20.16-20.15,45.31-32.35,71.51-36.59-2.74,3.34-5.66,6.56-8.76,9.66ZM373.32,598.29v.04c0,3.93-.18,7.83-.52,11.7v-23.39c.34,3.85.52,7.74.52,11.65ZM373.32,901.65v.02c0,3.93-.18,7.83-.52,11.7v-23.38c.34,3.86.52,7.74.52,11.66ZM439.97,1006.56l-19.84-11.45c6.86,3.19,13.51,7.01,19.84,11.45ZM702,1157.84l-18.92-10.92c6.63,3.12,12.95,6.78,18.92,10.92ZM851.33,1136.23c-19.8,24.15-48.04,41.12-80.17,46.37,19.79-24.15,48.04-41.12,80.17-46.37ZM1079.82,995.12l-19.8,11.43c6.32-4.43,12.95-8.25,19.8-11.43ZM1126.68,901.68c0-3.88.18-7.72.51-11.52v23.02c-.33-3.79-.51-7.63-.51-11.5ZM1126.68,456.89c0-3.88.18-7.72.51-11.52v23.02c-.33-3.79-.51-7.63-.51-11.5ZM976.15,314.47c-30.19,7.75-56.66,24.88-76.12,48.08-8.88,1.91-18.09,2.92-27.54,2.92-.01,0-.02,0-.03,0-19.19-28.84-48.27-50.56-82.38-60.25,23.9-6.73,45.8-19.5,63.84-37.53,7.04-7.04,13.27-14.66,18.66-22.76.69,0,1.37.02,2.06.03l107.05,61.8c-1.75,2.64-3.6,5.21-5.53,7.71ZM804.99,282.7l20.25-11.69c-6.42,4.52-13.19,8.42-20.25,11.69ZM797.87,268.33c6.03-4.2,12.44-7.9,19.15-11.05l-19.15,11.05ZM758.47,234.48c0,16.31-3.01,31.94-8.48,46.35-5.48-14.42-8.48-30.05-8.48-46.37,0-16.31,3.01-31.94,8.48-46.35,5.48,14.42,8.48,30.05,8.48,46.36h0ZM682.95,257.27c6.72,3.16,13.13,6.86,19.18,11.07l-19.18-11.07ZM694.22,282.25c-6.51-3.08-12.73-6.67-18.6-10.74l18.6,10.74ZM625.34,244.95c.71-.01,1.42-.03,2.14-.03.01,0,.02,0,.04,0,19.2,28.87,48.32,50.6,82.46,60.27-34.14,9.67-63.26,31.4-82.46,60.27-.02,0-.03,0-.05,0-9.35,0-18.55-.98-27.49-2.88-19.49-23.25-46.02-40.41-76.28-48.15-1.92-2.49-3.76-5.03-5.49-7.64l107.13-61.85ZM485.95,336.15c-3.56,12.65-5.47,25.98-5.47,39.75,0,17.78,3.17,34.84,8.98,50.63-2.83,8.75-6.58,17.18-11.2,25.15-33.91,2.07-67.22,15.8-93.36,41.2,2.92-11.63,4.42-23.71,4.42-36.01v-.04c0-23.13-5.33-45.45-15.37-65.56.35-.6.7-1.2,1.06-1.79l107.08-61.82c1.39,2.79,2.68,5.62,3.87,8.49ZM356.8,445.57v22.59c-.32-3.72-.49-7.49-.49-11.29s.17-7.57.49-11.29ZM356.8,587.79v21.07c-.56-7.01-.56-14.06,0-21.07ZM356.8,891.12v21.08c-.56-7.02-.56-14.07,0-21.08ZM431.84,1020.34c-6.79-3.17-13.37-6.95-19.65-11.34l19.65,11.34ZM694.38,1171.91c-6.63-3.12-12.95-6.78-18.92-10.92l18.92,10.92ZM817.03,1242.72c-6.72-3.15-13.13-6.86-19.17-11.07l19.17,11.07ZM805.89,1217.81c6.42,3.04,12.55,6.59,18.34,10.59l-18.34-10.59ZM874.64,1255.04c-.71.01-1.42.03-2.14.03-.02,0-.03,0-.05,0-19.21-28.87-48.34-50.6-82.49-60.27,34.16-9.67,63.29-31.4,82.5-60.28.01,0,.02,0,.04,0,9.39,0,18.54,1,27.37,2.89,19.66,23.63,46.09,40.4,76.3,48.13,1.93,2.5,3.77,5.06,5.52,7.7l-107.06,61.81ZM1087.82,1008.98c-6.31,4.42-12.92,8.22-19.75,11.4l19.75-11.4ZM1127.19,1031.62v23.02c-.33-3.79-.51-7.63-.51-11.5,0-3.88.18-7.72.51-11.52ZM1143.19,1054.82v-23.86c.73,7.89.73,15.87,0,23.86ZM1183.15,935.47c5.97-4.15,12.3-7.81,18.93-10.93l-18.93,10.93ZM1209.68,938.62c-5.94,4.12-12.24,7.77-18.84,10.88l18.84-10.88ZM1143.19,912.06v-20.8c.55,6.92.55,13.88,0,20.8ZM1143.19,610.02v-23.86c.73,7.89.73,15.87,0,23.86ZM1190.6,550.35c6.92,3.23,13.47,7.02,19.6,11.32l-19.6-11.32ZM1202.26,575.56c-6.76-3.17-13.2-6.9-19.27-11.13l19.27,11.13ZM1156.27,515.51c19.85-24.25,48.2-41.28,80.47-46.49-9.04,11.06-19.95,20.67-32.44,28.43-14.92,9.26-31.21,15.33-48.03,18.07ZM1143.19,468.05v-22.37c.31,3.69.48,7.42.48,11.18s-.17,7.5-.48,11.18ZM769.94,270.73c2.95-11.6,4.53-23.74,4.53-36.25h0c0-18.72-3.52-36.62-9.92-53.09l85.35,49.27c-30.85,4.78-58.56,19.2-79.95,40.06ZM725.51,234.46c0,12.51,1.57,24.66,4.53,36.26-21.39-20.86-49.1-35.28-79.95-40.06l85.34-49.27c-6.4,16.47-9.92,34.37-9.92,53.07ZM340.3,456.87c0,12.44,1.56,24.53,4.49,36.08-22.13-21.54-49.87-35.3-79.89-39.9l85.33-49.26c-6.4,16.47-9.92,34.37-9.92,53.08ZM343.72,515.37c-26.21-4.24-51.38-16.44-71.55-36.61-3.13-3.13-6.07-6.39-8.82-9.75,26.99,4.33,51.87,16.97,71.58,36.67,3.11,3.11,6.04,6.34,8.79,9.69ZM260.85,490.07c18.45,18.45,40.62,30.95,64.12,37.52-23.5,6.57-45.67,19.07-64.12,37.52-3.77,3.77-7.29,7.7-10.56,11.76v-98.57c3.28,4.06,6.79,8,10.57,11.77ZM343.63,539.83c-19.83,24.17-48.12,41.15-80.3,46.36,2.75-3.37,5.7-6.63,8.83-9.76,20.15-20.15,45.28-32.34,71.47-36.59ZM251.31,603.6c35.23-2.11,68.1-16.61,93.55-41.41-8.51,33.8-4.88,70.05,10.9,101.75-4.57,7.86-9.97,15.29-16.19,22.17-30.98,5.38-58.67,20.5-79.78,42.07-3.14.42-6.31.72-9.5.91v-123.7c.33-.6.68-1.2,1.03-1.8ZM259.7,771.82c.38.39.76.79,1.15,1.18,22.21,22.21,49.81,35.8,78.62,40.8,6.26,6.9,11.69,14.36,16.28,22.26-15.8,31.75-19.42,68.06-10.85,101.9-24.48-23.89-57.24-39.32-93.52-41.54-.37-.64-.73-1.29-1.09-1.94v-123.56c3.16.19,6.3.49,9.41.9ZM317.79,936.02l-20.74-11.97c7.24,3.33,14.18,7.33,20.74,11.97ZM309.1,949.48c-6.57-3.1-12.83-6.72-18.75-10.82l18.75,10.82ZM356.8,1032.6v21.03c-.56-7-.56-14.03,0-21.03ZM591.24,1147.06c3.11-3.11,6.05-6.34,8.83-9.66,8.84-1.89,18.01-2.89,27.41-2.89h0s.02,0,.03,0c19.21,28.88,48.34,50.61,82.5,60.28-34.15,9.66-63.28,31.4-82.49,60.27-.01,0-.03,0-.04,0-.71,0-1.43-.02-2.14-.03l-107.05-61.81c1.77-2.66,3.63-5.25,5.58-7.78,24.7-6.3,48.08-19.09,67.38-38.39ZM728.81,1206.99c-19.79,24.15-48.03,41.11-80.16,46.36,19.79-24.15,48.03-41.11,80.16-46.36ZM730.03,1229.27c-2.95,11.6-4.52,23.74-4.52,36.24,0,18.71,3.52,36.61,9.92,53.09l-85.34-49.27c30.85-4.78,58.55-19.2,79.94-40.06ZM774.47,1265.51v-.02c0-12.49-1.57-24.63-4.52-36.22,21.39,20.86,49.09,35.27,79.94,40.05l-85.35,49.27c6.4-16.48,9.92-34.38,9.92-53.09ZM1017.95,1172.3c-1.4-2.82-2.7-5.69-3.89-8.59,3.54-12.62,5.44-25.91,5.44-39.64,0-17.74-3.16-34.75-8.94-50.51,2.8-8.71,6.54-17.18,11.2-25.25,33.94-2.08,67.28-15.85,93.42-41.29-2.93,11.56-4.5,23.67-4.5,36.13,0,23.56,5.58,45.84,15.48,65.6-.32.55-.64,1.09-.97,1.64l-58.03,33.5-49.21,28.41ZM1155.83,1076.64c5.46-23.32,5.16-47.08-.59-69.65,21.38,20.8,49.04,35.17,79.84,39.94l-85.26,49.22c2.42-6.31,4.44-12.82,6.01-19.52ZM1156.37,984.63c26.18,4.25,51.3,16.44,71.44,36.58,3.14,3.14,6.08,6.4,8.84,9.77-32.17-5.22-60.45-22.19-80.28-46.35ZM1239.13,1009.9c-18.42-18.42-40.55-30.91-64.01-37.49,29.74-8.4,55.68-25.96,74.58-49.42v98.68c-3.28-4.07-6.8-8-10.57-11.77ZM1248.61,896.42c-36.29,2.22-69.05,17.66-93.54,41.56,8.56-33.81,4.97-70.09-10.8-101.82,4.62-7.97,10.06-15.41,16.2-22.2,18.3-3.19,36-9.9,52.26-20,10.21-6.34,19.47-13.78,27.67-22.15,3.06-.41,6.16-.7,9.29-.89v123.57c-.36.64-.72,1.28-1.09,1.92ZM1249.7,729.09c-3.2-.19-6.37-.5-9.51-.92-21.08-21.54-48.72-36.64-79.65-42.04-6.15-6.8-11.6-14.24-16.23-22.22,5.01-10.09,8.89-20.83,11.52-32.08,5.46-23.32,5.16-47.07-.58-69.63,24.46,23.79,57.15,39.17,93.34,41.39.37.65.75,1.29,1.11,1.95v123.55ZM1249.7,576.97c-18.53-23.08-44.1-40.75-74.43-49.33,13.04-3.71,25.64-9.26,37.47-16.61,14.28-8.86,26.7-19.88,36.96-32.58v98.51ZM1155.15,493.1c2.95-11.6,4.52-23.74,4.52-36.24,0-18.71-3.52-36.61-9.92-53.08l85.35,49.28c-30.85,4.78-58.56,19.18-79.96,40.04ZM1068.37,338.32c6.57,3.1,12.84,6.73,18.76,10.83l-18.76-10.83ZM928.06,257.31c6.66,3.13,13.02,6.81,19.01,10.98l-19.01-10.98ZM552.87,268.32c6.02-4.19,12.41-7.88,19.1-11.03l-19.1,11.03ZM412.8,349.18c5.95-4.13,12.25-7.77,18.86-10.89l-18.86,10.89ZM234.28,587.63c-42.86-2.61-80.23-25.91-102.2-60.02,21.97-34.12,59.33-57.42,102.2-60.02v120.04ZM234.28,658.51v21.09c-.56-7.02-.56-14.07,0-21.09ZM234.28,819.74v22.38c-.31-3.69-.48-7.42-.48-11.19s.17-7.5.48-11.19ZM242.29,912.13h.03s0,0,.01,0c19.22,28.89,48.36,50.62,82.54,60.28-23.46,6.58-45.59,19.07-64.01,37.49-7.09,7.09-13.3,14.73-18.63,22.78-46.16-.03-86.81-24.07-110.13-60.27,23.33-36.22,64.01-60.27,110.2-60.28ZM343.75,984.6c-2.75,3.35-5.68,6.59-8.79,9.7-19.72,19.73-44.63,32.38-71.65,36.7,2.76-3.38,5.71-6.65,8.86-9.79,20.18-20.18,45.36-32.38,71.58-36.61ZM431.92,1161.84c-6.84-3.18-13.46-6.99-19.77-11.41l19.77,11.41ZM572.01,1242.72c-6.73-3.16-13.15-6.87-19.2-11.08l19.2,11.08ZM947.14,1231.65c-6.04,4.2-12.44,7.91-19.16,11.06l19.16-11.06ZM1071.21,1160.03l16.87-9.74c-2.05,1.44-4.14,2.83-6.28,4.16-4.61,2.86-9.35,5.42-14.2,7.67l3.62-2.09ZM1265.7,912.38c42.9,2.6,80.29,25.93,102.26,60.09-5.03,7.79-10.91,15.11-17.63,21.83-22.85,22.85-52.65,36.21-84.63,38.13v-120.05ZM1265.7,842.22v-22.59c.32,3.72.49,7.49.49,11.29s-.17,7.57-.49,11.29ZM1265.7,680.6v-23.08c.68,7.59.69,15.31,0,23.08ZM1265.7,467.58c42.9,2.6,80.3,25.93,102.26,60.09-5.03,7.8-10.92,15.12-17.63,21.83-22.85,22.85-52.65,36.21-84.63,38.13v-120.05ZM1262.76,415.99c-2.35,10.04-5.81,19.62-10.28,28.63l-103.99-60.04c22.43-33.77,60.09-56.58,103.11-58.56,14.37,27.7,18.35,59.27,11.16,89.97ZM1066.13,274.85c21.01-13.04,44.71-19.75,68.84-19.75,10.01,0,20.1,1.16,30.09,3.49,31.57,7.39,58.72,25.77,77.22,52.08-44.66,4.67-83.43,29.42-107.1,65.04-23.67-35.62-62.45-60.37-107.11-65.04,10-14.2,22.85-26.39,38.06-35.82ZM1003.5,234.48c0,19.65-4.36,38.3-12.15,55.04-25.06-34.38-64.66-57.52-109.67-60.3,10.01-20.09,15.31-42.37,15.31-65.47h0c0-21.26-4.54-41.47-12.7-59.73,66.73,5.98,119.21,62.21,119.21,130.47ZM749.99,32.75c44.16,0,83.28,21.97,107.02,55.55-44.63,4.7-83.37,29.45-107.02,65.05-23.66-35.6-62.39-60.35-107.03-65.05,23.74-33.58,62.87-55.55,107.03-55.55ZM615.69,104.02c-8.15,18.26-12.69,38.46-12.69,59.71,0,23.52,5.56,45.75,15.42,65.49-45.09,2.76-84.75,25.94-109.83,60.38-7.92-17.05-12.1-35.77-12.1-55.13,0-68.25,52.48-124.47,119.21-130.45ZM272.17,293.5c25.54-25.54,59.08-38.31,92.63-38.31s67.09,12.77,92.63,38.31c5.36,5.36,10.2,11.11,14.49,17.17-44.62,4.66-83.36,29.37-107.04,64.94-5.38-8.08-11.61-15.69-18.63-22.71-24.1-24.09-55.09-38.77-88.52-42.23,4.25-6.03,9.07-11.78,14.46-17.17ZM111.31,456.89c0-68.25,52.46-124.47,119.17-130.47-17.66,39.85-16.77,86,2.7,125.21-45.04,2.77-84.65,25.92-109.73,60.31-7.79-16.75-12.15-35.4-12.15-55.05ZM111.31,598.34c0-19.66,4.36-38.31,12.15-55.07,25.07,34.39,64.68,57.53,109.71,60.31-19.46,39.21-20.35,85.37-2.67,125.22-30.53-2.71-58.87-15.9-80.81-37.83-24.75-24.74-38.37-57.64-38.38-92.63ZM111.31,901.68c0-68.25,52.46-124.48,119.18-130.47-8.15,18.26-12.69,38.47-12.69,59.72,0,23.52,5.56,45.76,15.42,65.49-45.06,2.76-84.68,25.91-109.76,60.32-7.79-16.75-12.15-35.4-12.15-55.05ZM111.31,1043.14c0-19.62,4.34-38.25,12.11-54.98,4.49,6.14,9.47,11.98,14.96,17.46,25.6,25.59,58.97,40.57,94.79,42.76-19.46,39.21-20.34,85.36-2.67,125.21-66.71-6-119.18-62.21-119.19-130.46ZM457.42,1206.47c-25.54,25.54-59.08,38.31-92.63,38.31-33.54,0-67.09-12.77-92.63-38.31-5.38-5.38-10.19-11.12-14.43-17.13,33.44-3.46,64.44-18.16,88.54-42.26,7-7,13.2-14.58,18.57-22.63,5.31,7.99,11.48,15.58,18.52,22.62,24.75,24.75,56.2,38.8,88.56,42.18-4.26,6.05-9.09,11.82-14.5,17.23ZM496.48,1265.51c0-19.65,4.36-38.3,12.14-55.05,25.08,34.41,64.72,57.56,109.79,60.32-9.86,19.73-15.42,41.97-15.42,65.48,0,21.25,4.54,41.45,12.68,59.71-66.72-5.99-119.2-62.2-119.2-130.46ZM749.99,1467.25c-44.17,0-83.3-21.98-107.04-55.57,44.64-4.69,83.38-29.44,107.04-65.05,23.66,35.6,62.4,60.35,107.03,65.05-23.74,33.59-62.87,55.57-107.03,55.57ZM884.3,1395.97c8.15-18.25,12.68-38.46,12.68-59.71h0c0-23.52-5.56-45.75-15.42-65.48,45.07-2.75,84.71-25.9,109.79-60.32,7.79,16.75,12.15,35.4,12.15,55.05,0,68.25-52.47,124.47-119.2,130.46ZM1227.81,1206.47c-25.54,25.54-59.08,38.31-92.63,38.31-33.54,0-67.09-12.77-92.63-38.31-5.36-5.36-10.15-11.07-14.38-17.06,21.77-2.29,42.91-9.48,62.05-21.37,18.27-11.34,33.51-26.21,45.04-43.62,23.68,35.53,62.39,60.23,106.98,64.9-4.25,6.02-9.06,11.76-14.44,17.14ZM1388.69,1043.12c0,34.99-13.62,67.89-38.36,92.64-21.94,21.95-50.3,35.14-80.85,37.85,17.68-39.85,16.8-86-2.66-125.22,35.84-2.18,69.22-17.17,94.83-42.78,5.48-5.48,10.46-11.31,14.94-17.45,7.76,16.72,12.11,35.34,12.11,54.96ZM1388.69,901.67c0,19.37-4.18,38.09-12.1,55.15-25.08-34.45-64.73-57.63-109.82-60.39,9.86-19.73,15.42-41.97,15.42-65.49,0-21.25-4.54-41.46-12.69-59.72,66.72,5.99,119.19,62.21,119.19,130.46ZM1388.69,598.33h0c0,34.99-13.62,67.89-38.36,92.64-21.93,21.93-50.26,35.12-80.77,37.84,3.7-8.37,6.65-17.14,8.78-26.24,8.11-34.65,3.17-69.36-11.6-98.96,35.86-2.17,69.28-17.16,94.9-42.78,5.48-5.48,10.46-11.32,14.94-17.45,7.76,16.72,12.1,35.34,12.1,54.96ZM1388.69,456.87c0,19.36-4.18,38.09-12.1,55.14-25.06-34.42-64.67-57.59-109.72-60.38,4.98-10.07,8.85-20.78,11.47-31.99,7.4-31.63,4.23-64.07-8.8-93.22,66.7,6.01,119.15,62.22,119.15,130.45h0Z"/></svg>
