<?xml version="1.0" encoding="UTF-8"?><svg id="Layer_2" xmlns="http://www.w3.org/2000/svg" xmlns:xlink="http://www.w3.org/1999/xlink" viewBox="0 0 1500 1500"><defs><style>.cls-1{fill:url(#New_Gradient_Swatch_2);stroke-width:0px;}</style><linearGradient id="New_Gradient_Swatch_2" x1="56.66" y1="1018.17" x2="1348.56" y2="272.3" gradientUnits="userSpaceOnUse"><stop offset="0" stop-color="#56450d"/><stop offset=".21" stop-color="#e5c787"/><stop offset=".39" stop-color="#f7d976"/><stop offset=".99" stop-color="#725728"/></linearGradient></defs><path class="cls-1" d="M286.48,38.4L.01,920.06l375.02,272.47.13.41h.43l374.4,272.02,374.4-272.02h.43l.13-.41,375.02-272.47L1213.52,38.4H286.48ZM1228.22,822.94l-67.57-21.89,48.45-78.69,41.9,30.44-22.79,70.14ZM1264.62,762.7l178.93,130-200.11-64.82,21.18-65.18ZM248.99,752.81l41.9-30.44,48.45,78.69-67.57,21.89-22.79-70.14ZM256.55,827.88l-200.11,64.82,178.93-130,21.18,65.18ZM1036.86,267.53l-40.33,55.57-59.54-70.16,39.89-28.98,59.97,43.57ZM990.5,214.07l180.14-130.88-124.38,171.39-55.76-40.51ZM729.1,661.26l-154.04-49.9,36.35-112.28,117.7,162.18ZM625.33,491.03h116.67v160.77l-116.67-160.77ZM758,651.8v-160.77h116.67l-116.67,160.77ZM888.6,499.08l36.35,112.28-154.04,49.9,117.7-162.18ZM758,475.03v-80.42l110.68,80.42h-110.68ZM742,475.03h-110.68l110.68-80.42v80.42ZM559.83,606.43l-75.65-24.51,109.28-79.4-33.63,103.91ZM554.91,621.65l-33.2,102.58-41.16-126.67,74.36,24.09ZM570.13,626.58l153.91,49.86-189.97,61.54,36.06-111.39ZM729.1,691.62l-95.1,131.05-95.42-69.33,190.52-61.72ZM742,701.09v200.05l-95.06-69.06,95.06-130.98ZM758,701.09l95.06,130.98-95.06,69.06v-200.05ZM770.9,691.62l190.52,61.72-95.42,69.33-95.1-131.04ZM775.96,676.44l153.91-49.86,36.06,111.39-189.97-61.54ZM945.09,621.65l74.36-24.09-41.16,126.67-33.2-102.58ZM940.17,606.43l-33.63-103.91,109.28,79.4-75.65,24.51ZM763.61,378.91l69.7-50.64,42.86,132.42-112.56-81.78ZM623.83,460.69l42.86-132.42,69.7,50.64-112.56,81.78ZM471.93,571.05l-26-80.02h136.14l-110.14,80.02ZM506.85,730.28l-113.43-82.41,70.1-50.93,43.33,133.34ZM624.6,835.62l-46.08,63.49-41.25-126.94,87.32,63.44ZM637.55,845.02l86.45,62.81h-132.03l45.58-62.81ZM862.45,845.02l45.58,62.81h-132.03l86.45-62.81ZM875.4,835.62l87.32-63.44-41.24,126.94-46.08-63.49ZM1036.48,596.94l70.1,50.93-113.43,82.41,43.33-133.34ZM917.93,491.03h136.14l-26,80.02-110.14-80.02ZM846.92,318.38l29.47-21.41,106.98,44.26-89.25,122.99-47.21-145.83ZM841.74,302.37l-7.38-22.79,24.69,10.21-17.31,12.58ZM828.13,312.26l-70.13,50.95v-115.22l56.95,23.56,13.18,40.71ZM770.93,236.02l28.68-11.86,8.87,27.4-37.55-15.53ZM758,224.05V95.62l36.66,113.27-36.66,15.17ZM742,224.05l-36.66-15.17,36.66-113.27v128.43ZM729.07,236.02l-37.55,15.53,8.87-27.4,28.68,11.86ZM742,247.99v115.22l-70.13-50.95,13.18-40.71,56.95-23.56ZM658.26,302.37l-17.31-12.58,24.69-10.21-7.38,22.79ZM653.08,318.38l-47.21,145.83-89.25-122.99,106.99-44.26,29.47,21.41ZM593.95,475.03h-153.22l-12.52-38.52,74.27-87.52,91.47,126.04ZM423.91,475.03h-28.38l20.52-24.18,7.86,24.18ZM429.11,491.03l26.53,81.65-112.14-36.33,38.46-45.32h47.15ZM337.64,518.53l-2.12-27.5h25.45l-23.33,27.5ZM322.44,529.53l-118.86-38.5h115.89l2.97,38.5ZM315.84,544.21l-24.83,29.26-92.65-67.31,117.48,38.05ZM324.67,558.53l3.22,41.73-23.9-17.36,20.68-24.37ZM340.23,552.11l109.12,35.35-69.54,50.52-34.92-25.37-4.66-60.5ZM366.2,647.87l-17.6,12.79-2.09-27.1,19.69,14.31ZM379.81,657.76l123.93,90.04-144.81,46.91-8.89-115.32,29.77-21.63ZM564.53,907.83h-85.44l42.64-131.73,42.8,131.73ZM726.76,923.83l-113.43,82.41-26.78-82.41h140.21ZM913.44,923.83l-26.78,82.41-113.43-82.41h140.21ZM978.27,776.1l42.64,131.73h-85.44l42.8-131.73ZM1120.19,657.76l29.77,21.63-8.89,115.32-144.81-46.91,123.93-90.04ZM1133.8,647.87l19.69-14.31-2.09,27.1-17.6-12.79ZM1120.19,637.98l-69.54-50.52,109.12-35.35-4.66,60.5-34.92,25.37ZM1175.33,558.53l20.68,24.37-23.9,17.36,3.22-41.73ZM1184.16,544.21l117.48-38.05-92.65,67.31-24.83-29.26ZM1177.56,529.53l2.97-38.5h115.89l-118.86,38.5ZM1162.36,518.53l-23.33-27.5h25.45l-2.12,27.5ZM1156.51,536.35l-112.14,36.33,26.53-81.65h47.15l38.46,45.32ZM1076.09,475.03l7.86-24.18,20.52,24.18h-28.38ZM1059.27,475.03h-153.22l91.47-126.04,74.27,87.52-12.52,38.52ZM972.37,319.36l-80.79-33.42,32.44-23.57,48.36,56.99ZM874.24,278.76l-46.34-19.17-13.45-41.57,53.25-22.03,45.94,54.14-39.4,28.62ZM809.5,202.75l-39.43-121.81,86.75,102.23-47.32,19.58ZM690.5,202.75l-47.32-19.58,86.75-102.23-39.43,121.81ZM685.56,218.02l-13.45,41.57-46.34,19.17-39.4-28.62,45.94-54.14,53.25,22.03ZM608.42,285.93l-80.79,33.42,48.36-56.99,32.44,23.57ZM503.47,323.1l-40.33-55.57,59.97-43.57,39.89,28.98-59.54,70.16ZM453.74,254.58l-124.38-171.39,180.14,130.88-55.76,40.51ZM440.79,263.98l-55.53,40.34-68.75-211.6,124.28,171.25ZM450.19,276.93l41.56,57.27-85.31,35.29-15.97-49.16,59.73-43.39ZM472.65,359.42l-50.24,59.21-11.01-33.87,61.25-25.34ZM410.24,432.96l-35.69,42.06h-40.26l-4.36-56.57,66.65-27.57,13.67,42.07ZM318.24,475.03h-125.05l121.19-50.13,3.86,50.13ZM280.63,585.71l-31.93,37.63-67.77-110.06,99.7,72.43ZM293.61,595.14l35.89,26.08,3.89,50.49-37.94,27.56-37.93-61.6,36.09-42.53ZM334.84,690.43l6.41,83.22-37.38-60.71,30.97-22.5ZM509.2,762.85l-46.93,144.98h-38.4l-60.23-97.82,145.56-47.15ZM457.1,923.83l-8.05,24.88-15.32-24.88h23.37ZM473.91,923.83h86.67l-68.63,94.57-31.89-51.79,13.85-42.78ZM474.21,1020.1l-29.17-7.08,8.55-26.41,20.62,33.49ZM478.09,1037.51l-73.97,101.93,35.98-111.15,37.99,9.23ZM490.87,1047.14l20.45,33.21-94.25,68.47,73.79-101.69ZM508.23,1044.83l38.97,9.46-22.9,16.64-16.07-26.1ZM505.06,1027.59l67.96-93.65,26.7,82.19-35.54,25.82-59.12-14.36ZM604.92,1032.13l6.96,21.41-27.3-6.63,20.34-14.78ZM618.53,1022.24l123.47-89.7v152.6l-111.86-27.17-11.61-35.73ZM758,932.53l123.47,89.7-11.61,35.73-111.86,27.17v-152.6ZM895.08,1032.13l20.34,14.78-27.3,6.63,6.96-21.41ZM900.28,1016.13l26.7-82.19,67.96,93.65-59.12,14.36-35.54-25.82ZM991.77,1044.83l-16.07,26.1-22.9-16.64,38.97-9.46ZM1009.13,1047.14l73.79,101.69-94.25-68.47,20.45-33.21ZM1021.91,1037.51l37.99-9.23,35.98,111.15-73.97-101.93ZM1025.79,1020.1l20.62-33.49,8.55,26.41-29.17,7.08ZM1008.04,1018.4l-68.63-94.57h86.67l13.85,42.78-31.89,51.79ZM1042.9,923.83h23.37l-15.32,24.88-8.05-24.88ZM1037.73,907.83l-46.93-144.98,145.56,47.15-60.23,97.82h-38.4ZM1158.75,773.65l6.41-83.22,30.97,22.5-37.38,60.71ZM1166.6,671.7l3.89-50.49,35.89-26.08,36.09,42.53-37.93,61.6-37.94-27.56ZM1219.37,585.71l99.7-72.43-67.77,110.06-31.93-37.63ZM1181.76,475.03l3.86-50.13,121.19,50.13h-125.05ZM1165.72,475.03h-40.26l-35.69-42.06,13.67-42.07,66.65,27.57-4.36,56.57ZM1077.59,418.63l-50.24-59.21,61.25,25.34-11.01,33.87ZM1008.25,334.2l41.56-57.27,59.73,43.39-15.97,49.16-85.31-35.29ZM1059.21,263.98l124.28-171.25-68.75,211.6-55.53-40.34ZM976.89,204.18l-46.8-34,217.36-89.92-170.56,123.92ZM963.28,214.07l-36.66,26.64-43.39-51.14,29.52-12.21,50.53,36.71ZM872.35,176.75l-63.61-74.96,88.82,64.53-25.21,10.43ZM627.65,176.75l-25.21-10.43,88.82-64.53-63.61,74.96ZM616.78,189.57l-43.39,51.14-36.66-26.64,50.53-36.71,29.52,12.21ZM523.11,204.18l-170.56-123.92,217.36,89.92-46.8,34ZM371.66,314.22l-47.13,34.24-18.12-235.06,65.25,200.82ZM376.86,330.22l14.75,45.41-62.98,26.05-2.66-34.49,50.89-36.97ZM313.08,408.11l-100.88,41.73,98.58-71.62,2.3,29.89ZM237.81,636.16l-19.33,22.78-37.26-114.68,56.59,91.91ZM246.64,650.5l35.84,58.2-38.69,28.11-19.49-59.98,22.34-26.33ZM230.18,746.7l-169.94,123.47,151.9-179.01,18.04,55.54ZM261.5,843.09l21.03,64.74H61.65l199.84-64.74ZM276.72,838.16l67.81-21.97,7.06,91.63h-52.24l-22.64-69.67ZM362.29,838.32l42.8,69.51h-37.44l-5.36-69.51ZM414.94,923.83l27.63,44.88-13.12,40.52-55.02-13.36-5.55-72.04h46.06ZM424.51,1024.49l-38.66,119.45-10.12-131.29,48.78,11.85ZM519.73,1094.02l26.24,42.61-127.52,30.97,101.28-73.58ZM532.71,1084.59l34.89-25.35,50.09,12.17,14.4,44.31-69.77,16.95-29.6-48.08ZM635.95,1075.85l80.15,19.47-68.43,16.62-11.73-36.09ZM742,1105.49v71.45h-73.2l-16.16-49.75,89.37-21.7ZM742,1192.94v209.3l-68-209.3h68ZM758,1192.94h68l-68,209.29v-209.29ZM758,1176.94v-71.45l89.37,21.7-16.16,49.75h-73.2ZM783.9,1095.31l80.15-19.47-11.73,36.09-68.43-16.62ZM882.31,1071.41l50.09-12.17,34.88,25.35-29.6,48.08-69.77-16.95,14.4-44.31ZM980.27,1094.02l101.28,73.58-127.52-30.97,26.24-42.61ZM1075.49,1024.49l48.79-11.85-10.12,131.29-38.66-119.45ZM1070.55,1009.23l-13.12-40.52,27.63-44.88h46.06l-5.55,72.04-55.02,13.36ZM1094.92,907.83l42.8-69.51-5.36,69.51h-37.44ZM1155.47,816.19l67.81,21.97-22.64,69.67h-52.24l7.06-91.63ZM1238.5,843.09l199.84,64.74h-220.88l21.03-64.74ZM1269.82,746.7l18.04-55.54,151.9,179.01-169.94-123.47ZM1256.21,736.81l-38.69-28.11,35.84-58.2,22.34,26.33-19.49,59.98ZM1262.19,636.16l56.59-91.91-37.26,114.68-19.33-22.78ZM1186.92,408.11l2.3-29.89,98.58,71.62-100.88-41.73ZM1171.37,401.68l-62.98-26.05,14.75-45.41,50.89,36.97-2.66,34.49ZM1128.34,314.22l65.25-200.82-18.12,235.06-47.13-34.24ZM914.91,159.14l-144.17-104.74h397.36l-253.19,104.74ZM585.09,159.14l-253.19-104.74h397.36l-144.17,104.74ZM309.33,359.5l-144.46,104.95,123.29-379.46,21.16,274.51ZM206.32,673.28L29.2,882.01l122.47-376.92,54.65,168.19ZM287.73,923.83l17.98,55.35-227.88-55.35h209.9ZM304.55,923.83h48.28l5.25,68.07-34.1-8.28-19.42-59.78ZM359.37,1008.67l8.48,109.95-38.06-117.14,29.58,7.19ZM554.79,1150.96l16,25.98h-122.97l106.97-25.98ZM571.13,1146.99l65.91-16.01,14.93,45.96h-62.4l-18.44-29.95ZM657.17,1192.94l64.52,198.57-122.27-198.57h57.75ZM842.83,1192.94h57.75l-122.27,198.57,64.52-198.57ZM848.03,1176.94l14.93-45.96,65.91,16.01-18.44,29.95h-62.4ZM945.21,1150.96l106.97,25.98h-122.97l16-25.98ZM1140.63,1008.67l29.58-7.19-38.06,117.14,8.48-109.95ZM1141.92,991.89l5.25-68.07h48.28l-19.42,59.78-34.1,8.28ZM1212.27,923.83h209.9l-227.88,55.35,17.98-55.35ZM1293.68,673.28l54.65-168.19,122.47,376.93-177.12-208.73ZM1190.67,359.5l21.16-274.51,123.3,379.46-144.46-104.95ZM43.66,931.99l267.87,65.06,55.1,169.59L43.66,931.99ZM580.64,1192.94l143.94,233.77-321.76-233.77h177.82ZM775.43,1426.71l143.94-233.77h177.82l-321.76,233.77ZM1188.48,997.05l267.87-65.06-322.97,234.65,55.1-169.59Z"/></svg>
