<?xml version="1.0" encoding="UTF-8"?><svg id="Layer_2" xmlns="http://www.w3.org/2000/svg" xmlns:xlink="http://www.w3.org/1999/xlink" viewBox="0 0 1500 1500"><defs><style>.cls-1{fill:url(#New_Gradient_Swatch_2);stroke-width:0px;}</style><linearGradient id="New_Gradient_Swatch_2" x1="147.47" y1="1097.5" x2="1352.41" y2="401.83" gradientUnits="userSpaceOnUse"><stop offset="0" stop-color="#56450d"/><stop offset=".21" stop-color="#e5c787"/><stop offset=".39" stop-color="#f7d976"/><stop offset=".99" stop-color="#725728"/></linearGradient></defs><path class="cls-1" d="M1334.74,404.7c-41.43-41.43-89.18-74.63-142.07-98.83-24.15-52.37-57.14-99.67-98.23-140.76-44.81-44.81-97-80-155.12-104.58-60.17-25.45-124.08-38.35-189.96-38.35s-129.79,12.9-189.96,38.35c-58.11,24.58-110.3,59.77-155.12,104.58-41.28,41.28-74.39,88.83-98.57,141.5-52.25,24.13-99.45,57.08-140.46,98.09-44.81,44.82-80,97-104.58,155.12-25.45,60.17-38.35,124.08-38.35,189.96s12.9,129.79,38.35,189.96c24.58,58.11,59.77,110.3,104.58,155.12,40.94,40.94,88.05,73.85,140.2,97.97,24.2,52.9,57.4,100.64,98.83,142.08,44.81,44.81,97,80,155.12,104.58,60.17,25.45,124.08,38.35,189.96,38.35s129.79-12.9,189.96-38.35c58.11-24.58,110.3-59.77,155.12-104.58,41.24-41.24,74.32-88.73,98.49-141.34,52.79-24.19,100.44-57.34,141.81-98.71,44.81-44.82,80-97,104.58-155.12,25.45-60.17,38.35-124.08,38.35-189.96s-12.9-129.79-38.35-189.96c-24.58-58.11-59.77-110.3-104.58-155.12ZM1184.28,326.46c24.61,58.19,37.09,120,37.09,183.72,0,41.03-5.18,81.26-15.43,120.24-10.18-18.38-22.77-35.57-37.63-51.14-.65-65.2-26.33-126.4-72.51-172.57-45.91-45.91-106.68-71.56-171.46-72.49-16.51-16.36-34.91-30.12-54.71-41.07,38.92-10.22,79.08-15.38,120.03-15.38,63.72,0,125.54,12.48,183.72,37.09,2.41,1.02,4.81,2.07,7.2,3.12,1.26,2.81,2.49,5.64,3.69,8.48ZM1180.84,1181.45c-2.47,1.1-4.96,2.18-7.45,3.24-58.19,24.61-120,37.09-183.72,37.09-40.79,0-80.79-5.12-119.57-15.26,18.24-10.14,35.3-22.66,50.76-37.42,64.78-.93,125.55-26.58,171.46-72.49s71.71-107.03,72.5-172.02c16.41-16.53,30.19-34.97,41.17-54.81,10.22,38.92,15.38,79.08,15.38,120.03,0,63.72-12.48,125.54-37.09,183.72-1.12,2.65-2.27,5.29-3.44,7.91ZM317.58,1180.75c-1.06-2.39-2.11-4.79-3.13-7.21-24.61-58.19-37.09-120-37.09-183.72,0-40.95,5.16-81.11,15.38-120.03,10.62,19.2,23.88,37.07,39.58,53.18.82,64.95,26.48,125.89,72.5,171.9,46.17,46.17,107.36,71.85,172.55,72.51,15.93,15.5,33.58,28.61,52.53,39.14-38.77,10.13-78.78,15.26-119.57,15.26-63.72,0-125.54-12.48-183.72-37.09-3.03-1.28-6.04-2.6-9.04-3.94ZM317.83,318.68c2.91-1.3,5.84-2.58,8.78-3.83,58.19-24.61,120-37.09,183.72-37.09,40.95,0,81.12,5.16,120.03,15.38-19.09,10.56-36.87,23.73-52.91,39.32-65.22.64-126.45,26.32-172.64,72.51-46.13,46.13-71.8,107.25-72.51,172.37-15.68,16.08-28.91,33.92-39.52,53.08-10.25-38.98-15.43-79.22-15.43-120.24,0-63.72,12.48-125.54,37.09-183.72,1.1-2.61,2.23-5.2,3.38-7.78ZM917.63,350.21c39.61,41.48,62.09,95.15,63.9,152.4-15.95.47-31.64,2.43-46.91,5.84-21.53-37.83-48.04-72.58-79.22-103.75-11.21-11.21-22.89-21.83-35.01-31.82,30.01-14.43,63.02-22.23,97.23-22.67ZM981.51,981.68c-13.3-.42-26.41-1.96-39.22-4.57,4.11-7.8,8-15.73,11.69-23.77,7.7-3.56,15.3-7.3,22.78-11.24,2.69,12.92,4.29,26.15,4.75,39.58ZM926.22,973.24c-3.98-1.11-7.92-2.34-11.82-3.66,5.75-2.07,11.46-4.25,17.14-6.54-1.73,3.42-3.51,6.82-5.32,10.2ZM963.62,930.89c2.05-5.13,4.02-10.28,5.89-15.46,1.19,3.52,2.29,7.07,3.31,10.65-3.05,1.64-6.11,3.25-9.2,4.82ZM945.25,933.49c-1.1,2.61-2.23,5.2-3.38,7.78-2.91,1.3-5.84,2.58-8.79,3.83-13.66,5.78-27.53,10.88-41.57,15.32-2.14-.99-4.26-2.01-6.37-3.07,14.01-9.23,27.2-19.93,39.34-32.07,12.3-12.3,23.12-25.67,32.43-39.89,1.2,2.36,2.34,4.75,3.45,7.16-4.39,13.83-9.43,27.49-15.12,40.95ZM747.76,1079.45c-22.83-24.45-39.81-53.01-50.21-83.97,17.11,1.8,34.39,2.71,51.81,2.71s33.17-.83,49.54-2.47c-10.71,30.93-27.98,59.43-51.15,83.73ZM523.12,942.7c7.63,3.99,15.38,7.79,23.25,11.38,3.55,7.71,7.29,15.31,11.23,22.79-12.76,2.67-25.83,4.27-39.09,4.76.46-13.21,2.01-26.22,4.62-38.94ZM527.01,926.66c1.06-3.78,2.23-7.52,3.48-11.23,1.97,5.45,4.04,10.87,6.21,16.27-3.25-1.64-6.48-3.32-9.69-5.03ZM568.78,963.68c5.16,2.06,10.34,4.02,15.55,5.9-3.54,1.2-7.12,2.32-10.72,3.34-1.64-3.06-3.25-6.14-4.83-9.24ZM565.64,945.1c-2.41-1.02-4.81-2.07-7.2-3.12-1.25-2.81-2.49-5.64-3.69-8.48-5.69-13.46-10.73-27.12-15.12-40.95.94-2.03,1.9-4.05,2.9-6.05,9.14,13.81,19.73,26.8,31.71,38.78,12.14,12.14,25.32,22.85,39.34,32.07-2.11,1.06-4.23,2.07-6.37,3.07-14.04-4.44-27.9-9.54-41.57-15.32ZM518.51,518.67c13.14.49,26.08,2.06,38.72,4.69-3.9,7.45-7.61,15.01-11.13,22.68-7.77,3.56-15.43,7.31-22.97,11.26-2.6-12.61-4.15-25.52-4.62-38.62ZM573.26,527.28c3.57,1.01,7.12,2.11,10.64,3.3-5.16,1.86-10.29,3.81-15.4,5.86,1.56-3.07,3.15-6.12,4.77-9.15ZM536.48,568.42c-2.11,5.27-4.13,10.56-6.05,15.88-1.22-3.63-2.35-7.28-3.39-10.97,3.13-1.67,6.27-3.31,9.44-4.91ZM554.75,566.05c1.12-2.65,2.27-5.29,3.44-7.91,2.47-1.1,4.96-2.18,7.45-3.24,13.53-5.72,27.27-10.78,41.17-15.19,2.27,1.05,4.53,2.12,6.76,3.25-14.01,9.23-27.2,19.93-39.34,32.07s-22.49,24.87-31.6,38.62c-1.06-2.12-2.08-4.27-3.08-6.42,4.41-13.91,9.47-27.64,15.19-41.17ZM751.12,424c21.52,23.55,37.67,50.81,47.84,80.29-16.39-1.65-32.93-2.48-49.6-2.48-15.8,0-31.48.75-47.02,2.23,10.47-29.45,26.94-56.62,48.78-80.04ZM577.82,688.11c31.22,30.22,69.01,51.29,110.12,61.85-41.07,10.55-78.84,31.59-110.04,61.77-18.32-.16-36.31-2.42-53.68-6.69-4.3-17.76-6.52-36.15-6.52-54.89s2.26-37.47,6.64-55.38c17.31-4.25,35.23-6.5,53.49-6.66ZM603.03,689.21c45.66,4.49,88.46,22.26,123.88,51.43-45.66-4.49-88.46-22.26-123.88-51.43ZM726.8,759.29c-35.37,29.09-78.09,46.82-123.66,51.33,35.37-29.09,78.09-46.82,123.66-51.33ZM685.57,924.51c31.19-31.45,52.92-69.79,63.79-111.58,10.69,41.07,31.87,78.81,62.21,109.95-.24,17.82-2.47,35.32-6.6,52.24-17.98,4.41-36.62,6.69-55.61,6.69s-39.1-2.46-57.73-7.22c-3.79-16.25-5.84-33.01-6.06-50.08ZM686.54,899.81c4.37-47.35,23-91.69,53.82-127.98-4.37,47.35-23,91.69-53.82,127.98ZM758.38,771.99c29.83,35.89,47.89,79.45,52.2,125.92-29.83-35.89-47.89-79.45-52.2-125.92ZM923.86,813.46c-31.54-31.11-69.96-52.75-111.81-63.5,40.31-10.36,77.45-30.81,108.31-60.1,18.64.25,36.93,2.68,54.56,7.18,4.02,17.21,6.1,35,6.1,53.11,0,19.55-2.41,38.74-7.09,57.21-16.25,3.8-33.01,5.87-50.08,6.1ZM899.09,812.5c-47.14-4.33-91.3-22.8-127.51-53.35,47.14,4.33,91.3,22.8,127.51,53.35ZM772.3,740.71c35.22-28.34,77.53-45.55,122.59-49.83-35.22,28.34-77.53,45.55-122.59,49.83ZM811.58,577.41c-30.34,31.14-51.53,68.88-62.21,109.96-10.46-40.22-30.99-77.26-60.32-108.02.2-18.69,2.58-37.03,7.06-54.72,17.26-4.04,35.1-6.13,53.27-6.13s37.71,2.29,55.73,6.72c4.09,16.91,6.29,34.4,6.49,52.21ZM810.54,602.45c-4.4,46.25-22.42,89.6-52.12,125.35,4.4-46.25,22.42-89.6,52.12-125.35ZM740.24,727.16c-28.4-35.12-45.71-77.34-50.11-122.33,28.4,35.12,45.71,77.34,50.11,122.33ZM673.62,564.5c-8.92-7.9-18.32-15.09-28.13-21.55,10.65-5.35,21.7-9.85,33.05-13.48-2.46,11.47-4.11,23.16-4.93,35.03ZM673.06,585.9c.69,43.22,12.39,84.64,33.77,121.04-36.71-21.97-78.62-34.03-122.38-34.81-12.76-13.03-23.8-27.29-33.01-42.52,9.5-15.54,20.9-30.07,34.11-43.27,13.41-13.41,28.17-24.96,43.98-34.55,15.63,9.48,30.24,20.89,43.53,34.11ZM563.14,672.65c-11.44.76-22.72,2.3-33.79,4.59,3.6-10.89,8.01-21.49,13.2-31.72,6.19,9.45,13.06,18.51,20.59,27.14ZM529.19,822.57c11.14,2.31,22.5,3.86,34.02,4.62-7.6,8.7-14.52,17.85-20.76,27.38-5.22-10.32-9.65-21.02-13.25-32.01ZM584.53,827.71c42.87-.77,83.96-12.39,120.12-33.53-22.27,37.04-34.43,79.4-35.07,123.63-12.34,11.78-25.77,22.05-40.05,30.71-15.81-9.59-30.57-21.14-43.98-34.55-13.26-13.26-24.7-27.85-34.23-43.46,9.25-15.34,20.36-29.69,33.21-42.79ZM670.14,938.83c.71,10.32,2.05,20.51,4,30.54-9.81-3.36-19.38-7.36-28.65-12.02,8.54-5.62,16.78-11.8,24.65-18.52ZM822.5,970.09c2.2-10.7,3.7-21.59,4.48-32.63,8.36,7.25,17.13,13.89,26.26,19.9-9.92,4.99-20.19,9.24-30.74,12.74ZM827.57,916.26c-.6-43.43-12.3-85.05-33.78-121.62,36.99,22.14,79.26,34.21,123.39,34.82,11.84,12.33,22.15,25.74,30.86,40.01-9.65,16-21.31,30.94-34.86,44.5-13.41,13.41-28.17,24.96-43.98,34.55-14.89-9.03-28.85-19.82-41.63-32.25ZM938.26,828.88c10.31-.72,20.49-2.06,30.5-4.02-3.33,9.8-7.3,19.35-11.93,28.61-5.64-8.52-11.84-16.74-18.58-24.59ZM935.25,674.47c7.86-8.84,15.03-18.14,21.48-27.85,5.3,10.59,9.75,21.56,13.35,32.85-11.4-2.47-23.03-4.15-34.83-4.99ZM913.87,673.86c-43.33.57-84.86,12.19-121.37,33.54,22.23-36.96,34.38-79.22,35.07-123.35,12.78-12.43,26.74-23.22,41.64-32.26,15.81,9.59,30.57,21.14,43.98,34.55,13.5,13.5,25.12,28.37,34.75,44.3-9.49,15.52-20.87,30.02-34.06,43.22ZM827.01,562.83c-.75-11.02-2.23-21.89-4.4-32.57,10.51,3.49,20.74,7.73,30.63,12.7-9.12,6-17.88,12.63-26.23,19.87ZM868.63,532.99c.26.07.51.13.77.2-.07.04-.13.07-.2.11-.19-.1-.38-.21-.57-.31ZM629.53,533.3c-.07-.04-.14-.07-.2-.11.26-.07.51-.13.77-.2-.19.1-.38.21-.57.31ZM501.66,749.77c0,16.58.82,33.03,2.45,49.33-30.08-10.39-57.84-27-81.71-49.18,23.86-22.17,51.61-38.78,81.68-49.17-1.61,16.2-2.41,32.55-2.41,49.02ZM966.53,869.41c.34-.62.68-1.23,1.02-1.85-.21.84-.44,1.67-.65,2.5-.12-.22-.24-.44-.36-.66ZM998.34,749.77c0-15.51-.72-30.91-2.15-46.19,29.59,10.71,56.87,27.48,80.29,49.69-23.69,21.58-51.14,37.73-80.8,47.85,1.77-16.96,2.66-34.09,2.66-51.36ZM966.43,630.71c.18-.32.36-.65.53-.97.32,1.22.64,2.45.96,3.68-.49-.91-.99-1.8-1.49-2.71ZM956.81,614.75c-9.28-14.16-20.07-27.47-32.32-39.72-12.14-12.14-25.32-22.85-39.34-32.07,2.24-1.12,4.49-2.2,6.76-3.25,13.91,4.41,27.64,9.47,41.17,15.19,3.03,1.28,6.04,2.6,9.04,3.94,1.06,2.39,2.11,4.79,3.13,7.21,5.72,13.53,10.78,27.27,15.19,41.17-1.17,2.53-2.38,5.04-3.64,7.53ZM931.83,537.08c-5.63-2.27-11.3-4.44-17-6.49,3.88-1.31,7.79-2.52,11.74-3.62,1.79,3.35,3.54,6.72,5.26,10.11ZM963.85,569.23c3,1.53,5.98,3.1,8.95,4.69-.99,3.49-2.07,6.95-3.22,10.39-1.82-5.05-3.73-10.08-5.73-15.08ZM954.24,546.77c-3.66-8.01-7.53-15.89-11.6-23.66,12.69-2.57,25.68-4.07,38.85-4.49-.48,13.32-2.08,26.45-4.75,39.26-7.39-3.89-14.89-7.59-22.5-11.11ZM844.1,416.01c29.13,29.13,54.04,61.47,74.47,96.61-9.43,2.78-18.67,6.13-27.68,10.02-24.33-7.37-49.16-12.81-74.4-16.27-10.73-34.56-29.03-66.47-54.06-93.7,13.1-12.28,27.39-22.86,42.6-31.66,13.59,10.89,26.62,22.56,39.07,35.01ZM751.23,401.23c-12.69-12.16-26.45-22.82-41.07-31.89,12.83-9.45,26.12-18.24,39.84-26.33,14.28,8.42,28.09,17.59,41.41,27.49-14.27,8.76-27.72,19.03-40.18,30.73ZM739.92,412.55c-25.41,27.09-44.08,58.94-55.14,93.49-26.11,3.44-51.79,8.98-76.94,16.61-8.66-3.74-17.53-6.98-26.59-9.7,20.46-35.26,45.44-67.71,74.65-96.92,12.91-12.91,26.46-24.99,40.59-36.22,15.54,9.08,30.12,20.03,43.43,32.75ZM644.59,404.7c-31.25,31.25-57.81,66.09-79.36,104.01-15.22-3.47-30.86-5.5-46.76-6.05,1.82-58.07,24.93-112.46,65.59-154.18,34.19.59,67.16,8.55,97.11,23.12-12.67,10.37-24.88,21.4-36.57,33.1ZM502.46,502.6c-56.88,1.62-110.49,22.34-153.45,59.09,4.29-54.94,27.74-106.02,67.13-145.4,39.44-39.44,90.61-62.9,145.63-67.15-36.84,42.94-57.63,96.56-59.31,153.46ZM502.5,518.61c.53,15.87,2.54,31.48,5.98,46.67-37.99,21.57-72.89,48.16-104.18,79.46-11.64,11.64-22.62,23.77-32.94,36.38-14.54-29.97-22.47-62.96-23.03-97.16,41.74-40.56,96.12-63.59,154.17-65.35ZM415.61,656.06c29.26-29.25,61.76-54.26,97.08-74.74,2.74,9.17,6.02,18.16,9.8,26.93-7.43,24.52-12.89,49.55-16.35,74.98-35.16,10.92-67.57,29.69-95.1,55.41-12.2-12.97-22.73-27.12-31.51-42.17,11.19-14.07,23.22-27.55,36.07-40.41ZM399.69,749.92c-11.66,12.36-21.91,25.72-30.67,39.88-9.45-12.82-18.24-26.1-26.33-39.8,8.11-13.73,16.91-27.03,26.38-39.88,8.75,14.13,18.98,27.46,30.62,39.8ZM411.04,761.21c27.54,25.73,59.97,44.5,95.14,55.42,3.47,25.4,8.94,50.4,16.38,74.89-3.82,8.84-7.13,17.9-9.89,27.15-35.31-20.48-67.81-45.48-97.06-74.73-12.87-12.87-24.92-26.38-36.12-40.47,8.78-15.09,19.34-29.26,31.56-42.26ZM404.29,855.26c31.29,31.29,66.18,57.88,104.17,79.45-3.46,15.29-5.47,31.01-5.98,46.99-58.04-1.76-112.42-24.79-154.16-65.35.49-34.33,8.41-67.45,22.98-97.52,10.33,12.63,21.33,24.78,32.98,36.44ZM502.47,997.7c1.76,56.72,22.51,110.16,59.22,152.99-55-4.26-106.14-27.71-145.56-67.14-39.27-39.27-62.69-90.15-67.08-144.91,42.96,36.73,96.56,57.43,153.42,59.05ZM583.98,1151.36c-40.52-41.62-63.59-95.82-65.5-153.71,16.03-.56,31.79-2.62,47.13-6.14,21.49,37.67,47.92,72.28,78.98,103.34,11.77,11.77,24.05,22.86,36.81,33.29-30.03,14.65-63.11,22.65-97.42,23.23ZM655.9,1083.53c-29.03-29.03-53.88-61.27-74.27-96.27,9.07-2.74,17.95-6.01,26.63-9.77,23.5,7.1,47.46,12.38,71.8,15.83,10.86,36.03,29.94,69.23,56.27,97.33-12.26,11.24-25.54,21.03-39.61,29.27-14.22-11.28-27.83-23.42-40.81-36.39ZM747.63,1101.99c12.22,11.5,25.41,21.61,39.39,30.28-11.96,8.67-24.3,16.77-37.02,24.27-13.64-8.04-26.85-16.78-39.62-26.17,13.17-8.19,25.64-17.67,37.25-28.38ZM759.07,1090.77c26.72-27.96,46.16-61.11,57.37-97.13,25.1-3.44,49.81-8.84,74.03-16.15,9.02,3.91,18.27,7.28,27.71,10.09-20.36,34.88-45.14,67.01-74.09,95.95-13.73,13.73-28.18,26.52-43.29,38.35-14.89-8.68-28.88-19.08-41.73-31.11ZM855.41,1094.84c30.99-30.99,57.37-65.51,78.83-103.07,15.39,3.46,31.2,5.45,47.28,5.92-1.95,58.69-25.63,113.59-67.21,155.42-34.54-.42-67.87-8.35-98.11-23.02,13.62-10.99,26.7-22.74,39.21-35.25ZM997.53,997.66c55.71-1.87,108.23-22.06,150.6-57.7-4.3,54.92-27.75,105.97-67.12,145.34-39.08,39.08-89.66,62.46-144.1,67.01,37.59-43.11,58.85-97.2,60.62-154.65ZM997.52,981.65c-.52-16.18-2.58-32.1-6.13-47.58,37.55-21.46,72.06-47.83,103.05-78.82,11.08-11.08,21.57-22.61,31.46-34.57,14.51,29.99,22.4,62.99,22.92,97.21-41.22,39.31-94.47,61.72-151.3,63.76ZM1083.12,843.94c-28.95,28.95-61.08,53.74-95.97,74.09-2.72-9.03-5.97-17.88-9.71-26.52,7.24-23.84,12.61-48.16,16.09-72.86,34.73-10.64,66.8-28.91,94.18-53.97,11.58,12.57,21.62,26.2,30.03,40.67-10.78,13.41-22.32,26.29-34.62,38.59ZM1099.17,753.51c12.25-12.72,22.97-26.52,32.1-41.19,8.86,12.16,17.12,24.73,24.77,37.69-8.5,14.41-17.77,28.34-27.78,41.77-8.36-13.54-18.08-26.35-29.09-38.26ZM1087.95,742.1c-27.09-25.81-59.03-44.8-93.73-56.11-3.43-26.38-9.01-52.33-16.71-77.73,3.7-8.57,6.92-17.34,9.62-26.3,34.9,20.36,67.03,45.15,95.99,74.11,13.49,13.49,26.09,27.68,37.75,42.52-9.12,15.58-20.13,30.19-32.92,43.52ZM1094.44,644.74c-30.99-30.99-65.5-57.37-103.06-78.83,3.52-15.38,5.59-31.19,6.13-47.26,58.45,2.09,113.1,25.73,154.79,67.15-.57,34.3-8.56,67.39-23.2,97.42-10.82-13.36-22.37-26.2-34.65-38.48ZM997.54,502.65c-1.65-56.12-21.89-109.05-57.78-151.69,54.68,4.43,105.5,27.84,144.72,67.07,39.36,39.36,62.8,90.39,67.12,145.29-42.95-37.49-96.82-58.75-154.06-60.67ZM806.59,361.9c-13.06-10-26.59-19.3-40.57-27.91,12.96-6.97,26.27-13.36,39.92-19.13,13.53-5.72,27.27-10.78,41.17-15.19,19.55,9.04,37.87,20.84,54.46,35.24-33.52,2.54-65.69,11.76-94.98,27ZM799.71,300.12c-17.1,7.23-33.67,15.39-49.71,24.43-16.03-9.04-32.61-17.2-49.71-24.43-8.1-3.42-16.26-6.61-24.49-9.58,23.59-7.95,48.57-12.09,74.2-12.09s50.61,4.14,74.2,12.09c-8.23,2.97-16.39,6.16-24.49,9.58ZM694.06,314.85c13.65,5.78,26.97,12.16,39.92,19.13-13.41,8.25-26.4,17.15-38.96,26.69-29.18-15.35-61.26-24.7-94.69-27.4,16.08-13.66,33.74-24.92,52.55-33.61,13.91,4.41,27.64,9.47,41.17,15.19ZM333.1,600.22c2.67,33.45,11.99,65.55,27.32,94.76-9.56,12.58-18.48,25.59-26.75,39.01-7.01-13.01-13.42-26.38-19.22-40.09-5.7-13.48-10.74-27.15-15.13-40.99,8.73-18.87,20.05-36.58,33.78-52.7ZM299.71,700.14c7.25,17.15,15.44,33.78,24.52,49.86-9.08,16.08-17.26,32.71-24.52,49.86-3.42,8.1-6.61,16.26-9.58,24.49-7.95-23.59-12.09-48.57-12.09-74.2s4.16-50.71,12.15-74.35c2.95,8.18,6.13,16.29,9.53,24.34ZM314.45,806.09c5.8-13.71,12.21-27.08,19.22-40.09,8.26,13.4,17.16,26.39,26.7,38.95-15.37,29.31-24.69,61.52-27.31,95.09-13.74-16.14-25.07-33.88-33.8-52.78,4.41-13.91,9.47-27.64,15.19-41.17ZM600.25,1166.58c33.55-2.71,65.74-12.1,95.01-27.53,12.49,9.47,25.4,18.31,38.72,26.51-12.96,6.97-26.27,13.36-39.92,19.13-13.69,5.79-27.59,10.9-41.66,15.35-18.66-8.67-36.18-19.89-52.14-33.46ZM700.29,1199.42c17.1-7.23,33.67-15.39,49.71-24.43,16.03,9.04,32.61,17.2,49.71,24.43,8.27,3.5,16.62,6.75,25.03,9.78-23.75,8.07-48.92,12.28-74.74,12.28s-50.99-4.21-74.74-12.28c8.41-3.02,16.76-6.28,25.03-9.78ZM805.94,1184.69c-13.65-5.78-26.97-12.16-39.92-19.13,12.42-7.65,24.5-15.85,36.19-24.6,29.39,15.44,61.71,24.81,95.4,27.42-15.39,12.76-32.18,23.37-50,31.65-14.07-4.44-27.97-9.55-41.66-15.35ZM1164.09,901.89c-2.61-33.53-11.9-65.7-27.21-94.99,10.1-13.16,19.5-26.8,28.18-40.9,7.01,13.01,13.42,26.38,19.22,40.09,5.72,13.53,10.78,27.27,15.19,41.17-9.07,19.62-20.92,37.99-35.38,54.62ZM1199.02,799.86c-7.25-17.15-15.44-33.78-24.52-49.86,9.08-16.08,17.26-32.71,24.52-49.86,3.4-8.05,6.58-16.16,9.53-24.34,7.98,23.64,12.15,48.67,12.15,74.35s-4.14,50.6-12.09,74.2c-2.97-8.23-6.16-16.39-9.58-24.49ZM1184.28,693.91c-5.8,13.71-12.21,27.08-19.22,40.09-7.79-12.65-16.16-24.93-25.1-36.82,15.4-29.2,24.78-61.29,27.52-94.75,12.9,15.53,23.59,32.49,31.93,50.5-4.39,13.84-9.43,27.52-15.13,40.99ZM415.61,176.43c43.35-43.35,93.83-77.38,150.04-101.16,58.19-24.61,120-37.09,183.72-37.09s125.54,12.48,183.72,37.09c56.21,23.77,106.68,57.81,150.04,101.16,35.44,35.44,64.65,75.65,87.12,119.85-57.42-22.9-118.11-34.51-180.58-34.51-48.48,0-95.88,7-141.52,20.83-30.59-13.2-63.83-20.15-98.14-20.15s-67.56,6.95-98.14,20.15c-45.64-13.83-93.05-20.83-141.52-20.83-63.05,0-124.29,11.83-182.17,35.15,22.51-44.45,51.83-84.88,87.44-120.49ZM75.42,933.49c-24.61-58.19-37.09-120-37.09-183.72s12.48-125.54,37.09-183.72c23.77-56.21,57.81-106.68,101.16-150.04,35.35-35.35,75.44-64.5,119.51-86.95-23.04,57.58-34.73,118.46-34.73,181.12,0,48.54,7.01,96.01,20.88,141.7-13.24,30.62-20.2,63.91-20.2,98.27s6.95,67.56,20.15,98.14c-13.83,45.64-20.83,93.05-20.83,141.52,0,62.45,11.61,123.14,34.5,180.55-43.98-22.43-83.99-51.55-119.28-86.83-43.35-43.35-77.39-93.83-101.16-150.04ZM1083.12,1323.57c-43.35,43.35-93.83,77.38-150.04,101.16-58.19,24.61-120,37.09-183.72,37.09s-125.54-12.48-183.72-37.09c-56.21-23.77-106.68-57.81-150.04-101.16-35.76-35.76-65.18-76.38-87.73-121.06,57.97,23.4,119.31,35.27,182.46,35.27,48.29,0,95.52-6.94,141-20.67,30.73,13.35,64.15,20.37,98.66,20.37s67.94-7.02,98.66-20.37c45.48,13.73,92.71,20.67,141,20.67,62.57,0,123.37-11.65,180.87-34.63-22.51,44.43-51.82,84.83-87.41,120.42ZM1424.58,933.49c-23.77,56.21-57.81,106.68-101.16,150.04-35.71,35.71-76.27,65.1-120.87,87.63,23.1-57.64,34.82-118.6,34.82-181.35,0-48.48-7-95.88-20.83-141.52,13.2-30.58,20.15-63.83,20.15-98.14s-6.97-67.65-20.2-98.27c13.87-45.69,20.88-93.16,20.88-141.7,0-62.95-11.79-124.11-35.05-181.92,44.69,22.55,85.33,51.98,121.1,87.75,43.35,43.35,77.39,93.83,101.16,150.04,24.61,58.19,37.09,120,37.09,183.72s-12.48,125.54-37.09,183.72Z"/></svg>