<?xml version="1.0" encoding="UTF-8"?><svg id="Layer_2" xmlns="http://www.w3.org/2000/svg" xmlns:xlink="http://www.w3.org/1999/xlink" viewBox="0 0 1500 1500"><defs><style>.cls-1{fill:url(#New_Gradient_Swatch_2);stroke-width:0px;}</style><linearGradient id="New_Gradient_Swatch_2" x1="158.51" y1="1091.74" x2="1341.17" y2="408.92" gradientUnits="userSpaceOnUse"><stop offset="0" stop-color="#56450d"/><stop offset=".21" stop-color="#e5c787"/><stop offset=".39" stop-color="#f7d976"/><stop offset=".99" stop-color="#725728"/></linearGradient></defs><path class="cls-1" d="M1341.54,409.56c-18.99-32.9-49.66-56.43-86.35-66.26-36.69-9.83-75.01-4.79-107.91,14.21-3.42,1.98-6.73,4.08-9.92,6.29-.19-.19-.38-.39-.58-.58-50.33-50.33-108.93-89.84-174.19-117.44-23.3-9.86-47.11-18.04-71.33-24.53,2.49-28.77-3.84-57.56-18.58-83.09-18.99-32.9-49.66-56.43-86.35-66.26-36.69-9.83-75.01-4.79-107.91,14.21-49.15,28.38-74.95,81.87-70.59,135-24.41,6.51-48.4,14.74-71.88,24.67-65.11,27.54-123.6,66.94-173.85,117.1-43.77-29.97-102.68-34.2-151.61-5.95-67.91,39.21-91.25,126.35-52.05,194.25,14.84,25.71,36.56,45.03,61.5,56.99-12.43,46.18-18.7,93.89-18.7,142.56s6.2,95.84,18.49,141.78c-3.12,1.51-6.21,3.15-9.24,4.9-67.91,39.21-91.25,126.35-52.05,194.25,26.31,45.57,74.21,71.07,123.39,71.07,24.11,0,48.53-6.13,70.86-19.02,3.06-1.77,6.04-3.64,8.94-5.6.04.04.08.08.12.13,50.33,50.33,108.93,89.84,174.19,117.44,23.43,9.91,47.36,18.12,71.72,24.63-2.14,28.25,4.22,56.47,18.7,81.54,26.31,45.57,74.21,71.07,123.39,71.07,24.11,0,48.53-6.13,70.86-19.02,48.75-28.15,74.54-81.01,70.7-133.71,24.2-6.49,47.98-14.66,71.26-24.51,65.2-27.58,123.77-67.05,174.06-117.32,23.89,16.5,52.33,25.31,81.23,25.31,24.11,0,48.53-6.13,70.86-19.02,32.9-18.99,56.42-49.66,66.26-86.35,9.83-36.69,4.79-75.01-14.21-107.91-14.97-25.93-36.94-45.36-62.15-57.29,12.39-46.13,18.65-93.78,18.65-142.38s-6.17-95.57-18.39-141.4c3.57-1.68,7.11-3.51,10.59-5.52,67.91-39.21,91.25-126.35,52.05-194.25ZM1258.19,600.44c-.12-2.29-.27-4.57-.45-6.84.65,2.11,1.29,4.22,1.92,6.33-.49.17-.97.34-1.46.51ZM1166.02,430.84c7.35,7.35,14.2,15.07,20.55,23.11l-73.67-42.54c3.36-5.13,7.1-10.04,11.22-14.67,14.93,9.79,28.97,21.18,41.89,34.1ZM1104.13,1076.63c-7.48-15.37-11.55-31.65-12.46-47.9h95.42l-82.96,47.9ZM868.42,1212.72c-10.86-16.59-24.84-30.51-41.12-41.11l24.21-41.94c32.78,17.48,68.86,28.15,106.49,31.33l-89.58,51.72ZM394.93,424.53c7.59,15.46,11.72,31.83,12.65,48.18h-96.11l83.46-48.18ZM631.2,288.11c11.01,16.54,25,30.09,40.85,40.36l-24.48,42.41c-32.62-17.31-68.51-27.89-105.92-31.06l89.56-51.7ZM1203.09,1012.73h-111.3c1.31-18.46,6.67-36.49,15.68-52.71.72-1.21,1.44-2.44,2.12-3.67,9.32-15.52,22.09-29.21,37.97-39.8l55.53,96.18ZM1161.4,908.52c15.24-7.6,31.39-11.83,47.55-12.92v95.27l-47.55-82.35ZM1051.76,1012.73c1.59-.84,3.17-1.7,4.73-2.61,7.71-4.45,14.9-9.55,21.52-15.21-1.12,5.88-1.87,11.83-2.25,17.82h-24ZM979.35,1145.99c-42.45-.39-83.31-10.83-119.83-30.2l50.26-87.06h64.12c3.91.33,7.82.51,11.72.51s7.81-.18,11.7-.51h13.34c-1.12,41.6-11.92,81.54-31.31,117.26ZM693.29,1177.76c17.6-8.79,36.71-13.28,56.04-13.28,10.96,0,22,1.44,32.87,4.35,8.09,2.17,15.85,5.09,23.2,8.7l-56.12,97.2-55.99-96.97ZM672.05,1140.97c9.74,6.28,20.3,11.39,31.5,15.17-6.22,2.14-12.32,4.72-18.27,7.75l-13.23-22.92ZM423.67,1012.73c-.33-6.2-1.08-12.36-2.23-18.45,8.33,7.15,17.5,13.36,27.34,18.45h-25.11ZM289.61,990.87v-96.23c16.71,1.09,33.08,5.49,48.1,12.92l-48.1,83.31ZM351.58,915.55c14.81,9.84,27.75,22.95,37.59,39.01,1.08,1.96,2.2,3.9,3.37,5.8,8.91,16.39,13.98,34.2,15.09,52.37h-112.16l56.11-97.18ZM295.47,488.71h112.01c-1.19,16.92-5.77,33.48-13.45,48.61-2.43,3.78-4.68,7.69-6.74,11.71-9.17,14.1-21.27,26.53-36.04,36.29l-55.78-96.61ZM337.37,593.29c-15.32,7.56-31.54,11.71-47.76,12.72v-95.43l47.76,82.72ZM446.99,488.71c-1.48.79-2.96,1.59-4.42,2.44-7.6,4.39-14.69,9.4-21.23,14.96,1.07-5.74,1.8-11.55,2.16-17.4h23.49ZM521.16,354.83c41.93.53,82.27,10.86,118.39,29.92l-7.18,12.44c-4.29,6.23-8.1,12.81-11.37,19.7l-32.23,55.83h-62.49c-8.49-.77-17.08-.78-25.65,0h-11.96c1.39-41.89,12.58-82.06,32.49-117.88ZM824.42,356.86c-8.72-5.42-18.06-9.93-27.9-13.38,5.49-1.92,10.91-4.19,16.23-6.84l11.67,20.22ZM1011.33,472.71h-22.2c-1.3-.04-2.6-.06-3.9-.06s-2.61.02-3.9.06h-71.52l-29.84-51.68c-4.28-9.82-9.64-19.07-15.93-27.59l-5.18-8.97c36.48-19.35,77.29-29.78,119.69-30.19,20.1,35.96,31.4,76.34,32.79,118.44ZM1076.44,488.71c.35,6.41,1.14,12.82,2.38,19.19-8.51-7.45-17.91-13.91-28.02-19.19h25.64ZM1088.13,687.83c-9.39,13.21-21.26,24.53-34.91,33.3l-56.39-97.66c38.38,2.16,75.21,12.56,108.41,30.39-1.49,4.56-3.22,9.01-5.2,13.33l-11.92,20.64ZM1093.82,951.66c-10.9,18.33-26.35,33.66-45.32,44.61-7.12,4.11-14.53,7.48-22.14,10.11-2.14-40.12-12.79-78.65-31.06-113.51,40.24-2.01,78.9-12.58,113.88-30.82,3.81,18.85,3.25,38.47-1.87,57.59-2.76,10.29-6.73,20.04-11.79,29.1-.57.97-1.14,1.94-1.68,2.92ZM974.45,1012.73c-7.27-.65-14.53-1.93-21.72-3.85-9.02-2.42-17.63-5.77-25.72-9.97l55.44-96.03c16.92,33.17,26.55,69.78,28.08,107.83-4.58.94-9.21,1.61-13.87,2.02h-22.22ZM716.62,1143.39c-17.93-4.8-34.23-13.3-48.08-24.84,15.89-10.42,30.84-22.53,44.58-36.28,13.52-13.52,25.47-28.2,35.77-43.8l.64,1.12.96-1.66c10.15,15.23,21.88,29.58,35.12,42.81,14.01,14.01,29.27,26.32,45.5,36.86-5.78,4.9-12.03,9.31-18.73,13.18-29.19,16.85-63.2,21.33-95.77,12.61ZM404.76,949.45c-.62-1.08-1.26-2.15-1.91-3.2-9.66-17.83-15.14-38.23-15.14-59.9,0-8.08.77-15.98,2.23-23.64,34.75,18.08,73.12,28.59,113.06,30.67-17.98,34.46-28.51,72.5-30.74,112.1-27.56-9.66-50.77-28.63-65.86-53.12-.53-.97-1.08-1.95-1.63-2.91ZM408.08,817.69c9.69-14.88,22.43-27.61,37.33-37.27l55.91,96.83c-37.97-2.34-74.38-12.76-107.24-30.45,1.99-6,4.41-11.81,7.24-17.38l6.77-11.73ZM407.9,545.34c10.69-16.44,25.19-30.25,42.67-40.34,7.21-4.16,14.66-7.52,22.26-10.12,1.84,39.22,11.8,76.96,29.07,111.28h-2.6l1.09,1.89c-39.07,2.22-76.61,12.48-110.72,30-3.56-18.49-2.91-37.69,2.1-56.42,2.31-8.64,5.49-16.89,9.44-24.68,2.42-3.77,4.65-7.65,6.69-11.61ZM525.66,488.71c16.04,1.55,31.69,6.16,46.04,13.57l-55.65,96.39c-16.7-33.28-26.09-69.97-27.37-108.07,4.19-.84,8.4-1.47,12.61-1.88h24.37ZM645.94,405.7c2.89-4.15,6.03-8.12,9.39-11.89,16.97,10.54,32.86,23.1,47.34,37.57,12.76,12.76,24.02,26.61,33.73,41.33h-112.97c.67-17.24,4.82-33.6,11.75-48.4l10.75-18.61ZM831.59,381.89c-16.68,10.71-32.33,23.28-46.68,37.64-13.47,13.47-25.37,28.09-35.64,43.62-10.19-15.33-21.97-29.76-35.28-43.08-14.43-14.43-30.17-27.06-46.95-37.81,22.14-19.16,50.99-30.77,82.5-30.77s59.98,11.46,82.06,30.4ZM865.66,428.28c5.87,13.74,9.36,28.72,9.97,44.44h-113.5c9.79-14.93,21.17-28.96,34.09-41.88,14.42-14.42,30.24-26.94,47.14-37.45,2.53,2.81,4.94,5.73,7.21,8.76l15.09,26.13ZM988.84,488.71c7.67.22,15.17,1.13,22.45,2.66-1.4,38.33-11.02,75.22-28.02,108.62l-56.1-97.17c16.38-8.52,34.85-13.55,54.42-14.11h7.26ZM1111.42,614.86c0,7.87-.73,15.58-2.12,23.06-33.97-17.61-71.39-27.99-110.34-30.35l.82-1.41h-1.67c17.14-34.04,27.07-71.45,29.02-110.34,49.05,17.32,84.29,64.14,84.29,119.04ZM1039.11,772.74l-16.67,28.87c2.04-11.15,3.41-22.49,4.08-33.96,4.31,1.48,8.51,3.18,12.59,5.08ZM796.92,1069.43c-12.58-12.58-23.7-26.21-33.32-40.7h111.71c-.51,8.5-1.87,17.01-4.13,25.42-5.27,19.66-14.97,37.36-28.26,52.02-16.47-10.37-31.9-22.65-46-36.75ZM656.61,1107.22c-6.29-6.83-11.87-14.4-16.62-22.63-10.02-17.36-15.67-36.42-16.76-55.86h112.91c-9.85,15.05-21.31,29.21-34.33,42.23-13.87,13.87-29.03,26-45.2,36.26ZM472.52,767.13c.69,12.09,2.15,24.04,4.35,35.78l-17.52-30.35c4.26-2.05,8.66-3.86,13.17-5.43ZM842.18,879.11l1.34-2.32c-.06.77-.11,1.55-.15,2.32h-1.19ZM655.93,879.11c-.03-.62-.08-1.23-.12-1.84l1.06,1.84h-.95ZM656.88,622.16l-1.43,2.48c.06-.83.11-1.66.16-2.48h1.28ZM843.2,622.16c.03.66.08,1.32.13,1.98l-1.14-1.98h1.02ZM935.46,815.72c-10.07-9.13-20.71-17.45-31.82-24.92,3.85-3.26,7.91-6.3,12.18-9.11l19.64,34.03ZM591.27,733.47c.74-.48,1.47-.97,2.2-1.46l-1.52,2.63-.68-1.17ZM877.25,750.64c0,7.99-.74,15.8-2.15,23.38-19.31-9.84-39.72-17.35-60.88-22.4,21.28-5.02,41.81-12.52,61.23-22.38,1.18,6.96,1.8,14.11,1.8,21.4ZM749.53,878.35c-9.98,0-19.69-1.15-29.01-3.33,1.18-33.35,8.58-65.61,21.65-95.44,2.57-3.52,5.06-7.09,7.45-10.71,1.7,2.57,3.46,5.1,5.25,7.62,14.07,30.69,22.09,64.04,23.46,98.58-9.26,2.14-18.9,3.27-28.8,3.27ZM621.82,750.64c0-7.45.65-14.75,1.88-21.85,19.46,9.97,40.03,17.56,61.37,22.66-21.25,5.01-41.74,12.5-61.14,22.33-1.38-7.51-2.11-15.24-2.11-23.14ZM749.53,622.93c10.16,0,20.04,1.2,29.52,3.45-1.25,33.14-8.64,65.2-21.63,94.85-2.87,3.93-5.63,7.93-8.28,11.98-1.91-2.9-3.87-5.77-5.9-8.61-14.01-30.57-22-63.79-23.38-98.19,9.52-2.27,19.46-3.49,29.67-3.49ZM842.48,663.15c13.24,14.06,23.34,31.11,29.16,50.03-32.75,17.25-68.96,27.34-106.67,29.45,2.27-4.42,4.42-8.9,6.44-13.43,7.7-10.38,16.21-20.26,25.52-29.57,13.97-13.97,29.25-26.17,45.56-36.48ZM734.19,742.58c-37.71-2.24-73.91-12.44-106.63-29.82,5.75-18.49,15.61-35.19,28.49-49.03,16.38,10.34,31.72,22.58,45.75,36.61,10.13,10.13,19.31,20.95,27.53,32.34,1.55,3.33,3.17,6.62,4.85,9.89ZM656.5,838.04c-12.82-13.64-22.68-30.08-28.55-48.31,32.42-17.02,68.22-27.03,105.5-29.24-1.84,3.67-3.59,7.38-5.26,11.13-7.7,10.38-16.21,20.26-25.52,29.57-14.15,14.15-29.63,26.46-46.17,36.85ZM764.95,760.48c37.51,2.2,73.52,12.29,106.1,29.48-5.84,18.01-15.58,34.28-28.22,47.8-16.7-10.44-32.33-22.85-46.6-37.12-10.09-10.09-19.24-20.88-27.44-32.23-1.24-2.66-2.51-5.31-3.83-7.93ZM785.93,687.99c4.89-18.39,7.9-37.39,8.92-56.75,13,4.95,25,11.97,35.58,20.65-15.86,10.36-30.77,22.42-44.5,36.1ZM749.53,603.89c-10.14,0-19.99-1.21-29.44-3.48,2.15-37.42,12.15-73.36,29.21-105.9,17.16,32.54,27.25,68.5,29.47,105.95-9.39,2.24-19.18,3.43-29.24,3.43ZM713.47,689.39c-.12-.12-.23-.24-.35-.36-13.9-13.9-29.02-26.13-45.1-36.62,10.69-8.89,22.86-16.06,36.06-21.11,1.09,19.84,4.25,39.29,9.39,58.09ZM606.08,742.16c-.16,2.81-.26,5.63-.26,8.48s.09,5.67.26,8.48l-4.89-8.48,4.89-8.48ZM713.66,812.82c-4.94,18.6-7.97,37.81-8.96,57.4-13.23-4.98-25.42-12.08-36.15-20.9,16.08-10.45,31.2-22.64,45.11-36.5ZM749.07,895.31c9.85,0,19.64,1.16,29.17,3.42-1.84,37.62-11.6,73.79-28.47,106.58-17.12-32.8-27.08-69.03-29.06-106.75,9.38-2.18,18.9-3.24,28.36-3.24ZM784.67,811.71c.08.08.16.16.24.25,14.13,14.13,29.52,26.52,45.9,37.13-10.87,8.99-23.24,16.21-36.68,21.23-1.08-20.02-4.27-39.64-9.46-58.6ZM907.8,767.81c-.73.48-1.46.96-2.19,1.45l1.51-2.62.68,1.17ZM892.99,759.12c.16-2.81.26-5.63.26-8.48s-.09-5.67-.26-8.48l4.89,8.48-4.89,8.48ZM892.8,700.71c-13.05-14.04-22.95-31.05-28.56-49.89,32.54-16.41,68.36-25.83,105.58-27.5-9.98,15.4-21.64,29.87-34.92,43.16-12.98,12.98-27.09,24.41-42.1,34.23ZM828.65,630.73c-4.74-3.14-9.67-6-14.77-8.57h9.83l4.95,8.57ZM810.45,606.16c1.05-.5,2.09-1.01,3.13-1.54l.89,1.54h-4.02ZM794.5,595.6c-.77-10.47-2.13-20.83-4.05-31.03l15.11,26.18c-3.6,1.79-7.29,3.41-11.07,4.86ZM704.36,595.52c-3.71-1.43-7.33-3.02-10.86-4.78l14.7-25.47c-1.82,9.95-3.11,20.04-3.84,30.25ZM688.61,606.16h-4.02l.89-1.54c1.04.53,2.08,1.04,3.13,1.54ZM685.19,622.16c-5.11,2.57-10.04,5.43-14.77,8.57l4.95-8.57h9.83ZM606.25,700.09c-14.65-9.68-28.44-20.91-41.15-33.61-13.1-13.1-24.62-27.35-34.5-42.51,36.52,1.92,71.66,11.3,103.64,27.41-5.5,17.91-14.96,34.63-27.99,48.71ZM594.34,711.37c-3.51,2.91-7.2,5.66-11.08,8.22l-17.75-30.75c9.18,8.19,18.81,15.71,28.84,22.53ZM582.71,750.64l-4.99,8.65c-7.16-3.61-14.66-6.63-22.44-9,7.5-2.3,14.9-5.25,22.11-8.87l5.32,9.22ZM591.95,766.64l.83,1.44c-.4-.27-.8-.53-1.21-.79l.37-.65ZM595.67,790.3c-11.01,7.35-21.54,15.53-31.53,24.5l19.42-33.64c4.22,2.8,8.27,5.86,12.11,9.13ZM564.38,836.59c13.26-13.26,27.7-24.9,43.08-34.87,12.46,13.76,21.93,30.28,27.39,48.52-32.06,16.08-67.28,25.4-103.89,27.2,9.64-14.55,20.8-28.23,33.42-40.86ZM670.41,870.55c4.74,3.14,9.67,6,14.77,8.57h-9.83l-4.95-8.57ZM704.97,903.31c.78,11.81,2.3,23.48,4.54,34.95l-17.01-29.46c4.1-2.07,8.26-3.9,12.47-5.48ZM793.98,903.54c4.24,1.6,8.4,3.44,12.46,5.49l-16.81,29.12c2.16-11.36,3.62-22.92,4.35-34.61ZM814.38,895.11h.09l-.02.04s-.05-.02-.07-.04ZM813.88,879.11c5.1-2.57,10.04-5.43,14.77-8.57l-4.95,8.57h-9.83ZM891.83,802.2c15.1,9.86,29.3,21.34,42.35,34.39,12.45,12.45,23.49,25.94,33.04,40.27-36.09-1.88-70.82-11.06-102.49-26.83,5.49-17.99,14.75-34.23,27.11-47.83ZM929.69,773.72c14.34-7.08,29.66-11.29,45.27-12.57v90.98l-45.27-78.41ZM916.36,750.64l5.04-8.72c7.16,3.61,14.67,6.64,22.47,9.01-7.57,2.33-14.99,5.31-22.18,8.93l-5.32-9.21ZM907.12,734.64l-.93-1.61c.45.3.9.59,1.35.89l-.42.72ZM904.74,712c9.67-6.52,18.97-13.69,27.85-21.48l-17.04,29.52c-3.75-2.49-7.36-5.17-10.81-8.04ZM860.59,634.78c-.66-4.14-1.12-8.35-1.36-12.62h31.85c-10.41,3.59-20.59,7.8-30.49,12.62ZM843.29,606.16h-10.34l-5.52-9.56c7.01-4.61,13.59-9.81,19.66-15.55-1.99,8.12-3.28,16.51-3.8,25.11ZM819.41,582.72l-44.53-77.13,77.71,44.86c-8.98,12.68-20.24,23.63-33.17,32.27ZM679.65,582.72c-13.01-8.68-24.32-19.71-33.32-32.48l78.11-45.09-44.79,77.57ZM651.93,581c6.09,5.76,12.69,10.98,19.72,15.6l-5.52,9.56h-10.5c-.47-8.42-1.69-16.84-3.69-25.16ZM638.04,635.42c-10.47-5.1-21.26-9.53-32.29-13.25h33.84c-.28,4.45-.8,8.87-1.55,13.25ZM569.37,727.54c-14.69,7.24-30.22,11.35-45.77,12.56v-91.84l45.77,79.28ZM569.7,773.17l-46.1,79.85v-92.5c16.44,1.25,32.01,5.68,46.1,12.65ZM638.51,866.26c.68,4.22,1.15,8.5,1.39,12.85h-32.75c10.71-3.63,21.18-7.92,31.36-12.85ZM655.84,895.11h10.28l4.55,7.89c-6.42,4.25-12.4,8.95-17.9,14.04,1.57-7.12,2.61-14.45,3.07-21.93ZM678.69,916.88l47.08,81.54-81.49-47.05c9.02-13.54,20.65-25.24,34.41-34.5ZM820.22,917.15c13.13,8.9,24.76,20.39,34,34.26l-80.67,46.58,46.67-80.83ZM846.49,917.7c-5.72-5.35-11.82-10.17-18.24-14.44l4.7-8.14h10.41c.43,7.6,1.48,15.15,3.14,22.58ZM860.94,865.99c10.51,5.05,21.32,9.44,32.38,13.12h-33.93c.28-4.38.8-8.75,1.54-13.12ZM929.41,728.03l45.55-78.89v91.51c-16.24-1.31-31.62-5.71-45.55-12.61ZM859.32,606.16c1.1-16.01,5.19-31.22,11.73-45.05l78.03,45.05h-89.76ZM860.99,536.83l-78.24-45.17c30.32,3.82,59.43,12.87,86.27,26.68-2.19,6.41-4.88,12.59-8.03,18.49ZM637.96,536.61c-3.09-5.83-5.75-11.94-7.91-18.27,26.64-13.72,55.52-22.73,85.61-26.59l-77.7,44.86ZM627.99,560.84c6.84,14.59,10.64,29.96,11.61,45.32h-90.11l78.5-45.32ZM639.81,895.11c-1.14,16.57-5.5,32.28-12.45,46.49l-80.53-46.49h92.98ZM636.27,965.23l77.84,44.94c-29.92-4.03-58.63-13.14-85.1-26.92,1.97-6.23,4.4-12.25,7.26-18.02ZM862.25,965.25c2.96,5.92,5.43,12,7.4,18.21-26.56,13.77-55.36,22.85-85.37,26.81l77.97-45.01ZM871.53,941.41c-7.04-14.67-11.12-30.35-12.14-46.3h92.33l-80.2,46.3ZM990.96,760.87c6.6.3,13.21,1.13,19.77,2.48-1.42,30.83-8.15,60.69-19.77,88.52v-91ZM934.43,566.16c8.36,8.36,16.07,17.19,23.13,26.43l-78.78-45.48c3.63-5.68,7.71-11.05,12.18-16.07,15.52,10.02,30.1,21.75,43.47,35.13ZM902.61,519.52c3.46-3,7.09-5.81,10.86-8.43l17.13,29.67c-8.93-7.71-18.28-14.8-27.99-21.24ZM840.32,488.71h34.93c-.41,4.69-1.07,9.3-1.98,13.83-10.67-5.33-21.68-9.94-32.95-13.83ZM625.79,502.54c-.91-4.53-1.57-9.14-1.98-13.83h34.93c-11.27,3.89-22.28,8.5-32.95,13.83ZM620.3,546.8l-78.39,45.26c6.95-9.04,14.53-17.7,22.73-25.9,13.45-13.45,28.11-25.24,43.73-35.3,4.33,4.92,8.33,10.24,11.93,15.94ZM567.43,541.69l18-31.18c3.93,2.71,7.71,5.64,11.34,8.81-10.2,6.75-20,14.22-29.34,22.37ZM507.6,651.49v88.83c-6.47-.32-12.9-1.15-19.23-2.45,1.48-30.06,8.03-59.18,19.23-86.39ZM472.6,733.57c-4.4-1.51-8.71-3.27-12.93-5.26l17.38-30.1c-2.23,11.6-3.71,23.41-4.45,35.36ZM507.6,760.31v90.33c-11.38-27.66-17.95-57.3-19.29-87.88,6.27-1.3,12.71-2.13,19.29-2.45ZM571.42,998.67c-17.25,8.87-36.81,13.88-57.5,13.88-8.86,0-17.51-.92-25.86-2.67,1.64-37.76,11.26-74.08,28.05-107.01l55.31,95.8ZM568.23,961.15c8.83,7.64,18.06,14.68,27.65,21.08-3.42,2.93-7,5.68-10.73,8.24l-16.93-29.31ZM564.63,935.96c-7.83-7.83-15.11-16.08-21.8-24.69l76.6,44.23c-3.55,5.39-7.49,10.5-11.8,15.28-15.34-9.95-29.76-21.58-43-34.82ZM656.77,1012.73h-33.42c.32-4.51.89-9.02,1.71-13.51,10.28,5.17,20.87,9.67,31.71,13.51ZM842.3,1012.73c10.7-3.78,21.15-8.23,31.3-13.31.78,4.4,1.33,8.84,1.63,13.31h-32.93ZM879.34,955.38l77.3-44.63c-6.81,8.79-14.21,17.22-22.2,25.21-13.32,13.32-27.83,25.01-43.28,35-4.3-4.85-8.26-10.05-11.82-15.58ZM929.84,962.01l-16.53,28.63c-3.64-2.53-7.14-5.26-10.5-8.16,9.36-6.23,18.39-13.06,27.03-20.47ZM990.96,740.93v-90.66c11.58,27.74,18.32,57.49,19.76,88.21-6.42,1.32-13.03,2.15-19.76,2.46ZM1022.25,699.51l16.97,29.4c-4.12,1.96-8.37,3.7-12.73,5.22-.7-11.69-2.12-23.25-4.25-34.61ZM919.17,488.96l-.14-.25h.61c-.16.08-.31.16-.47.25ZM905.45,497.2c-6,4.08-11.68,8.62-16.98,13.55-.18-.11-.36-.21-.54-.32,1.67-7.05,2.81-14.3,3.39-21.71h9.24l4.9,8.48ZM607.43,472.71h-.18l.19-.34c0,.11,0,.22-.01.34ZM607.76,488.71c.57,7.41,1.72,14.66,3.39,21.71-.07.04-.14.08-.21.12-5.49-5.14-11.33-9.8-17.48-13.94l4.56-7.89h9.75ZM393.82,653.93c33-17.52,69.53-27.77,107.59-29.91l-55.75,96.56c-15.99-10.19-29.9-24.14-40.26-41.45l-2.06-3.57c-3.88-6.98-7.06-14.21-9.53-21.63ZM437.66,734.44l-.16.28-.35-.6c.17.11.34.21.51.32ZM451.65,742.22c6.6,3.19,13.42,5.84,20.4,7.98,0,.08,0,.16,0,.24-7.16,2.21-14.08,4.98-20.72,8.24l-4.6-7.96,4.91-8.51ZM579.42,1012.54l.11.19h-.48c.12-.06.24-.13.37-.19ZM593.18,1004.36c5.95-4.01,11.59-8.47,16.86-13.31.12.07.24.14.36.21-1.54,7.06-2.54,14.24-3,21.47h-9.39l-4.83-8.37ZM607.28,1028.73s0,.04,0,.06l-.03-.06h.03ZM891.28,1012.73c-.43-7.16-1.42-14.26-2.94-21.27.1-.06.21-.12.31-.18,5.2,4.84,10.76,9.27,16.63,13.26l-4.73,8.19h-9.27ZM1104.87,846.22c-32.88,17.71-69.32,28.14-107.31,30.48l55.58-96.27c13.71,8.69,25.63,20,35.15,33.46l11.84,20.5c1.79,3.88,3.37,7.83,4.74,11.83ZM1047.13,758.84c-6.45-3.09-13.16-5.71-20.11-7.83,0-.07,0-.15,0-.22,6.99-2.15,13.74-4.83,20.23-7.99l4.57,7.92-4.69,8.12ZM693.96,322.52l55.32-95.81,55.45,96.04c-35.93,17.5-76.79,16.38-110.77-.23ZM702.66,343.43c-10.18,3.56-19.83,8.25-28.81,13.92l12.1-20.96c5.42,2.7,11.01,5.05,16.71,7.04ZM373.86,588.31c-2.01,10.7-2.77,21.48-2.32,32.17l-12.28-21.28c5.15-3.36,10.02-7,14.6-10.9ZM389.49,683.57c.34.61.68,1.22,1.03,1.83.25.44.52.86.77,1.29l36.97,64.03-33.86,58.64c-2.6,4.01-5,8.17-7.18,12.44l-9.06,15.69c-16.21-10.27-31.4-22.41-45.3-36.31-15.75-15.75-29.23-33.16-40.31-51.83,10.76-17.6,23.67-34.06,38.62-49.01,14.26-14.26,29.88-26.67,46.56-37.11l11.75,20.34ZM374.12,912.47c-4.59-3.93-9.43-7.57-14.49-10.88l12.21-21.14c-.08,1.96-.13,3.93-.13,5.91,0,8.92.83,17.65,2.41,26.12ZM588.77,1028.73l50.99,88.32c-36.45,19.48-77.23,30.04-119.63,30.62-19.97-36.14-31.1-76.69-32.24-118.94h100.88ZM795.26,1156.09c8.63-2.97,17.04-6.78,25.12-11.45,2.11-1.22,4.17-2.48,6.2-3.79l-13.16,22.8c-5.83-2.92-11.89-5.44-18.15-7.56ZM1125.11,913.51c2.01-10.5,2.83-21.08,2.47-31.58l11.97,20.73c-5.1,3.34-9.91,6.97-14.44,10.85ZM1114.33,826.99c-1.76-3.76-3.68-7.48-5.78-11.12-2.1-3.64-4.36-7.16-6.74-10.57l-31.51-54.58,31.4-54.38c4.79-6.83,8.99-14.09,12.54-21.73l6.7-11.61c16.39,10.34,31.75,22.58,45.79,36.62,15.21,15.21,28.32,31.98,39.17,49.93-10.99,18.39-24.33,35.54-39.87,51.08-14.04,14.04-29.39,26.27-45.77,36.61l-5.92-10.26ZM1124.81,587.73c4.66,4.07,9.56,7.8,14.65,11.19l-12.15,21.04c.06-1.69.1-3.39.1-5.1,0-9.28-.9-18.35-2.61-27.13ZM1109.09,543.76c-10.05-17.4-15.46-36.23-16.63-55.05h110.63l-55.61,96.33c-15.3-10.36-28.54-24.24-38.38-41.28ZM1208.95,510.57v95.89c-16.59-1.27-32.82-5.8-47.68-13.31l47.68-82.58ZM1092.48,472.71c1.06-16.45,5.32-32.57,12.53-47.39l82.08,47.39h-94.61ZM1076.46,472.71h-49.12c-1.16-37.36-9.68-73.44-24.86-106.59l88.66,51.19c-8.57,17.27-13.56,36.15-14.67,55.4ZM850.83,370.59l-24.17-41.86c16.53-10.65,30.44-24.37,41.12-40.37l88.35,51.01c-37.2,3.3-72.87,13.93-105.3,31.22ZM818.65,314.85l-47.51-82.29,82.75,47.78c-9.25,13.61-21.16,25.33-35.24,34.51ZM785.72,222.51c29.38,3.99,57.59,12.89,83.66,26.29-2.02,6.15-4.48,12.08-7.36,17.76l-76.3-44.05ZM680.06,314.59c-13.5-8.87-25.46-20.45-34.97-34.5l82.33-47.54-47.36,82.03ZM472.66,472.71h-49.06c-.96-19.08-5.79-38.21-14.8-56.2l89.23-51.52c-15.5,33.46-24.2,69.94-25.38,107.72ZM345.38,607.17l24.36,42.19c-17.87,11.15-34.61,24.4-49.87,39.67-11.18,11.18-21.27,23.14-30.26,35.76v-102.76c18.94-1.04,37.92-5.89,55.77-14.86ZM321.55,812.5c14.9,14.9,31.2,27.89,48.6,38.87l-24.39,42.24c-8.64-4.35-17.79-7.85-27.35-10.41-9.53-2.55-19.18-4.09-28.8-4.66v-104.21c9.4,13.51,20.06,26.29,31.94,38.17ZM407.59,1028.73c-.55,8.19-1.9,16.38-4.07,24.49-2.2,8.21-5.18,16.09-8.86,23.54l-83.18-48.03h96.12ZM418.97,1057.36c2.54-9.47,4.08-19.06,4.65-28.63h48.27c.95,37.32,9.24,73.39,24.17,106.57l-87.53-50.53c4.36-8.66,7.87-17.83,10.44-27.41ZM647.77,1130.92l23.66,40.99c-16.53,10.84-30.41,24.77-40.99,40.99l-87.36-50.44c36.99-3.49,72.44-14.23,104.68-31.54ZM679.45,1185.79l47.97,83.09-83.09-47.97c9.16-13.83,21.03-25.75,35.11-35.12ZM716.28,1280.93c-30.75-3.85-60.24-13.07-87.4-27.19,2.01-6.56,4.51-12.9,7.49-18.95l79.91,46.14ZM819.28,1185.49c13.89,9.18,25.85,21.1,35.25,35.24l-83.4,48.15,48.15-83.39ZM1026.67,1028.73h48.97c.94,18.98,5.71,38,14.6,55.91l-87.74,50.66c14.93-33.18,23.22-69.25,24.17-106.57ZM1153.39,894.64l-25.13-43.53c17.58-11.04,34.04-24.12,49.08-39.16,11.74-11.74,22.29-24.36,31.61-37.69v105.31c-18.88,1.13-37.78,6.04-55.56,15.06ZM1178.04,688.31c-15.04-15.04-31.51-28.13-49.09-39.17l24.32-42.13c17.31,8.89,36.29,14.16,55.68,15.48v102.49c-9.14-12.96-19.47-25.23-30.91-36.67ZM1099.03,403.4l-80.55-46.5c32.51,4.62,63.55,15.25,91.82,31.37-4.11,4.82-7.88,9.87-11.27,15.14ZM875.9,274.57c2.96-5.75,5.53-11.72,7.71-17.9,18.47,11.02,35.7,24.4,51.3,40,7.76,7.76,14.98,15.93,21.62,24.45l-80.63-46.55ZM712.4,222.76l-75.44,43.55c-2.82-5.56-5.22-11.26-7.17-17.08,25.75-13.36,53.59-22.31,82.61-26.47ZM625.6,233.38c-.02-.08-.03-.16-.05-.24.34-.08.68-.16,1.02-.24-.32.16-.65.31-.97.47ZM623.09,274.32l-78.39,45.26c6.31-7.96,13.1-15.62,20.39-22.91,15.38-15.38,32.35-28.61,50.52-39.54,2.08,5.82,4.57,11.56,7.47,17.19ZM400.87,402.62c-3.35-5.16-6.98-10.03-10.87-14.61,27.4-15.39,57.37-25.67,88.73-30.34l-77.86,44.95ZM386.98,410.64l-73.57,42.48c6.04-7.54,12.52-14.8,19.46-21.74,13.31-13.31,27.8-24.99,43.24-34.97,3.92,4.42,7.55,9.18,10.88,14.23ZM364.47,384.89c-1.37.91-2.72,1.84-4.07,2.78,1.09-1.16,2.18-2.32,3.27-3.47.27.23.53.46.8.7ZM273.61,522.28v83.7c-5.73-.37-11.42-1.14-17.03-2.28,1.33-28.23,7.12-55.65,17.03-81.43ZM240.8,599.43c-.53-.18-1.05-.37-1.57-.55.69-2.31,1.4-4.62,2.12-6.93-.21,2.49-.4,4.98-.55,7.48ZM273.61,622v88.29c-10.96-28.49-16.86-58.98-17.29-90.35,5.71,1.04,11.48,1.73,17.29,2.07ZM273.61,878.51c-6.43.36-12.81,1.16-19.13,2.39.58-32.74,7.13-64.49,19.13-94.01v91.62ZM273.61,894.62v89.79c-11.16-27.46-17.61-56.84-18.92-87.16,6.27-1.37,12.6-2.25,18.92-2.64ZM331.18,1070.96c-7.98-7.98-15.38-16.4-22.19-25.18l77.65,44.83c-3.63,5.45-7.67,10.6-12.11,15.41-15.48-10.01-30.01-21.72-43.35-35.07ZM400.54,1098.63l81.01,46.77c-32.92-4.36-64.4-14.86-93.06-30.95,4.39-4.98,8.42-10.26,12.05-15.82ZM622.49,1226.77c-3.05,6.09-5.68,12.43-7.85,18.99-18.07-10.9-34.95-24.07-50.26-39.37-8.41-8.41-16.16-17.3-23.26-26.6l81.37,46.98ZM782.28,1280.93l80.27-46.34c3.08,6.18,5.6,12.5,7.58,18.92-27.28,14.25-56.94,23.55-87.85,27.42ZM876.43,1226.57l81.01-46.77c-7.1,9.29-14.85,18.19-23.26,26.6-15.18,15.18-31.91,28.26-49.82,39.11-2.15-6.41-4.79-12.74-7.93-18.93ZM1098.16,1098.55c3.32,5.15,6.92,10.03,10.78,14.61-27.19,15.17-56.9,25.33-87.98,29.96l77.2-44.57ZM1112.02,1090.55l74.1-42.78c-6.03,7.51-12.49,14.75-19.4,21.66-13.49,13.49-28.2,25.31-43.87,35.39-3.9-4.44-7.52-9.2-10.83-14.27ZM1134.43,1116.38c1.19-.79,2.37-1.59,3.55-2.39-.94,1-1.88,2.01-2.83,3-.24-.21-.48-.41-.72-.61ZM1224.95,981.13v-85.58c6.07.36,12.09,1.16,18.03,2.38-1.45,28.89-7.59,56.91-18.03,83.2ZM1258.74,902.24c.21.07.42.15.63.22-.26.88-.53,1.77-.8,2.65.07-.95.12-1.91.18-2.87ZM1224.95,879.52v-91.6c11.71,29.48,17.99,61.14,18.33,93.76-6.05-1.11-12.17-1.84-18.33-2.17ZM1224.95,622.68c5.87-.26,11.75-.89,17.6-1.89-.59,31.19-6.6,61.49-17.6,89.8v-87.91ZM1224.95,606.68v-85.79c10.28,26.46,16.2,54.65,17.42,83.68-5.78,1.11-11.6,1.82-17.42,2.11ZM1135.78,385.25s.04-.04.06-.05c.09.09.17.18.26.28-.11-.07-.21-.15-.32-.22ZM956.36,260.51c63,26.65,119.61,64.73,168.29,113.21-1,.87-1.98,1.76-2.95,2.66-40.3-23.76-86.09-36.93-133.92-38.05-11.52-19.04-25.42-36.83-41.56-52.97-17.56-17.56-37.07-32.47-58.03-44.54.27-1.2.53-2.4.78-3.61,22.88,6.22,45.37,13.98,67.4,23.3ZM627.63,176.6c8.72-32.56,29.61-59.78,58.8-76.63,19.45-11.23,41.03-16.96,62.9-16.96,10.96,0,22,1.44,32.87,4.35,32.56,8.72,59.78,29.61,76.63,58.8,12.64,21.89,18.31,46.48,16.69,71.14-40.38-9.53-81.86-14.41-124.07-14.57l-2.17-1.25-2.17,1.25c-42.04.16-83.36,5.01-123.59,14.46-.83-13.48.51-27.16,4.11-40.58ZM542.2,260.51c22.18-9.38,44.83-17.19,67.87-23.43.28,1.41.59,2.82.91,4.22-20.64,11.99-39.87,26.72-57.2,44.05-16.14,16.14-30.04,33.93-41.56,52.98l-.93.54c-47.33,1.08-92.68,13.96-132.67,37.22-1.22-1.14-2.46-2.25-3.72-3.35,48.46-48.01,104.73-85.77,167.3-112.23ZM172.32,543.18c-34.79-60.27-14.07-137.6,46.19-172.4,19.83-11.45,41.49-16.88,62.89-16.88,24.56,0,48.75,7.17,69.38,20.64-29.02,30.7-54.17,64.29-75.22,100.44l-1.95,1.12v2.23c-10.9,19.02-20.67,38.73-29.28,59.09-7.65,18.09-14.28,36.48-19.9,55.13-21.1-10.69-39.43-27.39-52.11-49.35ZM217.26,750.72c0-46.55,5.92-92.2,17.63-136.42,1.79.62,3.58,1.21,5.39,1.76,0,.07,0,.15,0,.22,0,46.9,11.57,92.01,33.33,132.11v1.64c-22.86,40.8-35.07,86.96-35.18,134.99-1.26.4-2.51.83-3.76,1.27-11.56-43.95-17.41-89.31-17.41-135.57ZM344.71,1129.85c-60.27,34.79-137.6,14.07-172.4-46.19-34.79-60.27-14.07-137.6,46.19-172.4,1.88-1.09,3.78-2.1,5.7-3.08,5.67,18.9,12.37,37.54,20.12,55.86,8.61,20.36,18.38,40.07,29.28,59.09v2.23l1.95,1.12c20.94,35.95,45.94,69.38,74.76,99.94-1.83,1.19-3.7,2.33-5.6,3.43ZM542.2,1240.93c-62.75-26.54-119.17-64.44-167.72-112.65.8-.68,1.58-1.37,2.36-2.07,40.37,23.53,86.19,36.49,134.01,37.43,11.65,19.46,25.77,37.61,42.22,54.06,17.34,17.34,36.59,32.09,57.25,44.08-.17.83-.35,1.67-.51,2.5-22.95-6.23-45.51-14.01-67.61-23.36ZM812.63,1400.03c-60.27,34.79-137.6,14.07-172.4-46.19-12.37-21.43-18.06-45.45-16.77-69.59,35.72,8.4,72.3,13.16,109.49,14.24,4.83.28,9.69.44,14.57.47l1.76,1.02,1.76-1.02c4.88-.03,9.73-.19,14.57-.47,37.34-1.08,74.07-5.88,109.94-14.35,2.32,45.85-20.5,91.4-62.91,115.89ZM956.36,1240.93c-21.94,9.28-44.35,17.02-67.13,23.23-.17-.88-.34-1.76-.53-2.64,20.49-11.95,39.57-26.6,56.79-43.82,16.93-16.93,31.39-35.67,43.22-55.77,46.9-1.14,91.85-13.87,131.56-36.81,1.2,1.13,2.42,2.23,3.65,3.31-48.52,48.13-104.88,85.98-167.57,112.5ZM1326.94,958.39c16.85,29.19,21.33,63.2,12.61,95.77-8.73,32.56-29.61,59.78-58.8,76.63-42.76,24.68-94.11,21.41-132.77-4.09,28.93-30.64,54.02-64.16,75.02-100.22l1.95-1.12v-2.23c10.9-19.02,20.67-38.73,29.28-59.09,7.68-18.15,14.32-36.6,19.96-55.31,21.37,10.67,39.95,27.48,52.75,49.67ZM1281.3,750.72c0,46.51-5.91,92.12-17.6,136.3-1.46-.5-2.93-.97-4.4-1.42,0-.36.01-.72.01-1.08,0-47.63-11.94-93.42-34.36-133.98v-2.1c21.77-39.87,33.43-84.72,33.65-131.38,1.79-.53,3.57-1.09,5.35-1.69,11.52,43.88,17.35,89.17,17.35,135.35ZM1274.48,593.7c-5.7-19.05-12.45-37.83-20.26-56.29-8.61-20.36-18.38-40.07-29.28-59.09v-2.23l-1.95-1.12c-20.84-35.78-45.7-69.05-74.34-99.5,2.15-1.43,4.36-2.8,6.62-4.11,19.83-11.45,41.49-16.88,62.89-16.88,43.65,0,86.16,22.64,109.51,63.08,34.79,60.27,14.07,137.6-46.19,172.4-2.31,1.33-4.65,2.58-7.01,3.75Z"/></svg>