<?xml version="1.0" encoding="UTF-8"?><svg id="Layer_2" xmlns="http://www.w3.org/2000/svg" xmlns:xlink="http://www.w3.org/1999/xlink" viewBox="0 0 1500 1500"><defs><style>.cls-1{fill:url(#New_Gradient_Swatch_2);stroke-width:0px;}</style><linearGradient id="New_Gradient_Swatch_2" x1="127.31" y1="1109.25" x2="1372.69" y2="390.23" gradientUnits="userSpaceOnUse"><stop offset="0" stop-color="#56450d"/><stop offset=".21" stop-color="#e5c787"/><stop offset=".39" stop-color="#f7d976"/><stop offset=".99" stop-color="#725728"/></linearGradient></defs><path class="cls-1" d="M1258.31,241.43c-66.02-66.02-142.89-117.85-228.49-154.05-85.55-36.18-176.24-55.15-269.71-56.42-3.29-.13-6.6-.21-9.91-.21s-6.36.08-9.52.2c-93.75,1.18-184.7,20.15-270.49,56.43-85.6,36.21-162.48,88.04-228.49,154.05s-117.85,142.89-154.05,228.49c-37.49,88.63-56.49,182.77-56.49,279.81s19.01,191.18,56.49,279.81c11.36,26.86,24.27,52.87,38.66,77.95.05.09.11.18.16.28,31.45,54.73,70.01,105.05,115.23,150.27,66.02,66.02,142.89,117.85,228.49,154.05,85,35.95,175.07,54.89,267.9,56.39,3.95.19,7.91.29,11.89.29s7.91-.1,11.85-.28c92.86-1.48,182.97-20.43,267.99-56.39,85.6-36.21,162.48-88.04,228.49-154.05s117.85-142.89,154.05-228.49c37.49-88.63,56.49-182.77,56.49-279.81s-19.01-191.18-56.49-279.81c-36.21-85.6-88.04-162.48-154.05-228.49ZM1200,1096.79c-.65-19.5-3.56-38.6-8.63-57,.49.5.97,1.01,1.47,1.51,24.62,24.62,53.55,43.35,85.09,55.49h-77.93ZM221.77,1096.79c31.83-12.14,61.03-30.96,85.83-55.77.15-.15.3-.31.45-.46-4.94,18.17-7.78,37.01-8.42,56.23h-77.86ZM299.61,402.16c.6,18.96,3.35,37.55,8.12,55.49-.07-.07-.14-.15-.22-.22-24.47-24.47-53.2-43.12-84.52-55.27h76.62ZM940.81,165.9c-18.2,27.21-42.12,50.32-69.98,67.6l-23.72-41.45c28.77-15.41,60.64-24.46,93.85-26.46-.05.1-.1.2-.15.3ZM1278,402.16c-31.6,12.14-60.58,30.89-85.23,55.55-.45.45-.88.9-1.32,1.35,5.01-18.38,7.88-37.44,8.49-56.9h78.06ZM1333.94,1074.93l12.17,21.26c-53.63-4.61-103.43-27.7-141.94-66.21-10.76-10.76-20.31-22.4-28.6-34.76,35.52,2.43,70.03,13.09,100.64,31.18,21.83,12.9,41.33,29.36,57.73,48.53ZM923.29,1287.79c-13.23-13.24-27.98-24.96-43.93-34.9l38.22-66.29c-1.84,12.18-2.79,24.58-2.79,37.13,0,21.73,2.89,43.28,8.5,64.06ZM223.67,1026.47c30.69-18.08,65.29-28.69,100.89-31.05-8.21,12.18-17.65,23.66-28.27,34.28-39.65,39.64-91.27,62.95-146.7,66.57,19.13-28.42,44.49-52.37,74.09-69.81ZM370.8,330.06c14.75,14.81,31.38,27.76,49.49,38.42,11.78,6.93,24.09,12.84,36.8,17.68h-77.96c-.6-19.02-3.41-37.85-8.33-56.1ZM747.85,59.16l1.99-3.44c15.5,31.38,23.64,66.16,23.64,101.44s-8.17,70.33-23.6,101.5c-15.57-31.28-23.8-65.96-23.8-101.92,0-33.84,7.49-67.23,21.78-97.59ZM902.28,320.68c-26.67-21.2-57.14-36.4-89.74-44.91,18.15-4.76,35.73-11.59,52.36-20.4l37.37,65.31ZM1184.16,868.16c0,35.72-8.14,70.19-23.51,101.31-15.42-31.15-23.58-65.67-23.58-101.45s7.64-68.08,22.11-98.44l10.71,18.72c9.36,25.22,14.26,52.16,14.26,79.87ZM315.39,631.12c0-36.15,8.32-71.02,24.05-102.42,15.6,31.3,23.85,66.02,23.85,102.01s-8.31,70.97-24.02,102.35l-.44-.77c-15.33-31.08-23.44-65.5-23.44-101.17ZM934.01,376.12l5.22,9.12c-55.2-3.76-106.58-27.04-146.08-66.54-10.67-10.67-20.15-22.21-28.39-34.45,55.7,3.47,107.58,26.81,147.38,66.62,7.96,7.96,15.25,16.4,21.86,25.25ZM1038.75,944.36c-14.63-9.15-28.33-20.02-40.83-32.52-10.55-10.55-19.93-21.95-28.11-34.05-.2-.4-.39-.79-.59-1.19,33.06,2,64.79,10.98,93.45,26.26l-23.92,41.49ZM1076.51,910.89c14.53,9.11,28.13,19.93,40.56,32.35,10.9,10.9,20.56,22.71,28.92,35.25-33.03-1.96-64.74-10.9-93.39-26.13l23.91-41.47ZM789.4,1096.79c-.42-12.66-1.8-25.14-4.11-37.38l5.41-9.53c22.5,20.4,48.17,36.19,75.86,46.91h-77.17ZM633.06,1096.79c27.81-10.76,53.57-26.64,76.14-47.16l5.26,9.11c-2.38,12.45-3.8,25.17-4.23,38.05h-77.17ZM437.25,902.72c28.65-15.23,60.36-24.17,93.39-26.13-8.36,12.54-18.02,24.35-28.92,35.25-12.42,12.42-26.01,23.22-40.53,32.33l-23.94-41.45ZM447.35,952.2c-28.74,15.33-60.56,24.33-93.71,26.3,8.36-12.54,18.02-24.35,28.92-35.25,12.5-12.5,26.21-23.37,40.84-32.52l23.95,41.48ZM710.13,402.16c.61,19.33,3.45,38.26,8.39,56.52-.27-.28-.54-.56-.81-.83-24.75-24.75-53.87-43.55-85.61-55.69h78.03ZM867.37,402.16c-31.74,12.14-60.86,30.94-85.61,55.69-.24.24-.46.48-.7.71,4.92-18.22,7.75-37.12,8.36-56.4h77.94ZM1133.05,723.91l9.93,17.36c-53.06-3.82-102.53-25.71-141.26-62.68l17.31-30.46c36.68,10.6,70.29,30.33,98.04,58.08,5.67,5.67,10.99,11.58,15.98,17.71ZM979.32,986.92c0,35.23-7.92,69.24-22.88,100.02-.52.77-1.03,1.54-1.54,2.31-.09-.13-.17-.26-.26-.4-15.57-31.28-23.82-65.97-23.82-101.94s8.18-70.38,23.64-101.57c.19-.29.38-.58.57-.87.3.46.59.92.9,1.37,15.29,31.05,23.39,65.44,23.39,101.07ZM521.15,512.83c0-35.94,8.23-70.6,23.78-101.87,15.55,31.26,23.78,65.93,23.78,101.87,0,17.32-1.91,34.34-5.63,50.83h-36.3c-3.72-16.49-5.63-33.51-5.63-50.83ZM979.24,512.83c0,17.32-1.91,34.34-5.63,50.83h-37.23c-3.72-16.49-5.63-33.51-5.63-50.83,0-35.63,8.1-70.01,23.39-101.07.05-.07.1-.15.15-.22l7.21,12.59c11.63,27.71,17.75,57.73,17.75,88.7ZM923.08,1050.29c-28.06-28.01-61.73-48.37-98.46-60.07l4.73-8.32c34.89-11.87,66.87-31.62,93.74-58.38-5.43,20.43-8.25,41.7-8.25,63.4s2.82,42.95,8.24,63.36ZM955.6,614.4c-.19.29-.38.58-.57.87-.3-.46-.59-.92-.9-1.37-5.43-11.03-9.96-22.46-13.54-34.24h28.79c-3.63,11.95-8.24,23.56-13.78,34.74ZM522.36,726.22l41.41,71.68c-3.98,18.76-10.29,36.86-18.79,53.93-15.58-31.28-23.82-65.98-23.82-101.95,0-7.96.41-15.85,1.21-23.66ZM912.15,587.92c10.55,10.55,19.93,21.95,28.11,34.04.14.28.27.56.41.84-43.72-2.69-85.08-17.61-120.12-43.14h82.91c2.96,2.67,5.86,5.42,8.7,8.26ZM726.07,868.16c0-29.56,5.58-58.26,16.21-84.92v169.84c-10.63-26.66-16.21-55.36-16.21-84.92ZM559.77,859.65c6.81-10.15,14.49-19.8,22.97-28.89l13.59,23.52c-11.94,2.75-24.15,4.55-36.56,5.37ZM594.47,819.06c38.74-36.03,87.88-57.21,140.47-60.66-8.27,12.33-17.81,23.95-28.55,34.68-26.74,26.74-58.93,46.04-94.06,56.89l-17.86-30.91ZM731.76,579.66h35.94c3.81,16.69,5.78,33.92,5.78,51.46,0,35.91-8.22,70.55-23.75,101.8-15.53-31.24-23.75-65.89-23.75-101.8,0-17.54,1.97-34.77,5.78-51.46ZM749.73,529.32c5.49,11.05,10.07,22.53,13.7,34.34h-27.39c3.62-11.81,8.2-23.29,13.69-34.34ZM717.63,739.58c-48.83-6.91-93.91-29.3-129.4-64.79-6.4-6.4-12.36-13.11-17.89-20.1l147.29,84.89ZM580.13,641.87c47.65,7.4,91.6,29.59,126.35,64.34,5.65,5.65,10.97,11.56,15.95,17.68l-142.29-82.01ZM781.84,694.89c-.33.33-.65.67-.98,1,5.68-20.85,8.61-42.59,8.61-64.78,0-17.51-1.84-34.73-5.4-51.46h10.76c28.45,24.65,61.7,42.13,97.53,51.54-41.44,10.9-79.43,32.59-110.53,63.69ZM920.37,641.73l-143.91,83.09c5.2-6.45,10.76-12.67,16.7-18.61,34.96-34.96,79.23-57.21,127.21-64.47ZM715.38,579.66c-3.56,16.73-5.4,33.95-5.4,51.46,0,22.11,2.92,43.76,8.55,64.54-.25-.25-.49-.51-.75-.76-31.11-31.11-69.12-52.81-110.57-63.7,35.81-9.41,69.04-26.88,97.49-51.52h10.68ZM576.92,686.11c31.19,31.19,69.31,52.92,110.88,63.78-37.51,9.82-72.21,28.49-101.53,54.97l-5.63-9.75c2.74-14.77,4.16-29.89,4.16-45.23,0-22.07-2.91-43.69-8.53-64.44.22.22.43.45.65.67ZM620.53,864.17c36.24-11.79,69.45-32.05,97.18-59.78.33-.33.65-.67.98-1-5.68,20.85-8.62,42.59-8.62,64.78s2.93,43.84,8.58,64.66c-.29-.29-.57-.59-.86-.88-26.28-26.28-57.49-45.85-91.54-57.86l-5.72-9.91ZM758.28,950.77v-165.21c10.04,26,15.28,53.9,15.28,82.61s-5.25,56.61-15.28,82.61ZM930.16,654.55c-5.56,7.04-11.56,13.8-18.01,20.24-35.45,35.45-80.47,57.83-129.24,64.77l147.24-85.01ZM800.93,563.66c-2.67-2.43-5.29-4.92-7.85-7.49-10.8-10.8-20.38-22.48-28.69-34.89,43.34,2.63,84.38,17.29,119.24,42.38h-82.69ZM706.48,556.17c-2.57,2.57-5.19,5.06-7.86,7.49h-81.85c34.62-24.92,75.34-39.55,118.36-42.33-8.3,12.39-17.87,24.06-28.65,34.84ZM679,579.66c-34.85,25.39-75.96,40.29-119.42,43.09,8.3-12.39,17.87-24.06,28.65-34.84,2.84-2.84,5.74-5.59,8.7-8.26h82.07ZM544.97,647.92c15.58,31.28,23.82,65.98,23.82,101.95,0,7.67-.38,15.28-1.11,22.81l-41.35-71.57c3.99-18.5,10.25-36.34,18.64-53.19ZM615.42,887.3l41.55,71.92c-25.29-11.28-48.56-27.22-68.73-47.38-10.88-10.88-20.53-22.67-28.89-35.19,19.26,1.22,38.07,4.82,56.07,10.66ZM639.24,896.55c24.71,11.23,47.47,26.93,67.24,46.7,10.88,10.88,20.53,22.67,28.89,35.19-18.78-1.19-37.13-4.65-54.73-10.23l-41.4-71.66ZM764.24,978.49c8.36-12.54,18.02-24.34,28.92-35.24,19.43-19.43,41.74-34.92,65.96-46.11l-40.62,71.47c-17.46,5.43-35.65,8.76-54.26,9.88ZM781.84,931.93c-.29.29-.57.59-.86.88,5.65-20.81,8.58-42.51,8.58-64.66s-2.92-43.76-8.55-64.54c.25.25.49.51.75.76,27.5,27.5,60.38,47.65,96.26,59.49l-6.08,10.7c-33.49,12.05-64.18,31.44-90.09,57.35ZM764.48,758.33c52.25,3.17,101.15,23.82,139.91,59.15l-18.28,32.17c-34.73-10.91-66.56-30.09-93.04-56.57-10.76-10.76-20.31-22.39-28.59-34.75ZM940.69,859.71c-13.14-.81-26.06-2.72-38.66-5.69l14.19-24.97c8.95,9.39,17,19.42,24.13,29.97.12.23.22.47.34.7ZM918.53,792.6l-6.05,10.65c-28.96-25.64-63.03-43.77-99.8-53.38,41.37-10.83,79.32-32.42,110.41-63.39-5.43,20.43-8.25,41.7-8.25,63.4,0,14.47,1.25,28.76,3.69,42.72ZM920.01,563.66h-10.52c-28.31-24.3-61.32-41.53-96.86-50.83,41.34-10.81,79.25-32.37,110.34-63.29-5.41,20.39-8.22,41.62-8.22,63.29,0,17.29,1.8,34.3,5.27,50.83ZM590.9,563.66h-11.45c3.47-16.53,5.27-33.54,5.27-50.83,0-22.11-2.92-43.78-8.56-64.56.26.26.51.53.77.79,31.18,31.18,69.28,52.9,110.83,63.77-35.53,9.3-68.54,26.53-96.86,50.83ZM509.45,703.88c-2.84,15.01-4.3,30.39-4.3,46,0,22.07,2.91,43.69,8.53,64.44-.22-.22-.43-.45-.65-.67-31.19-31.19-69.31-52.92-110.88-63.78,37.67-9.86,72.51-28.65,101.92-55.31l5.39,9.32ZM576.92,923.15c26.64,26.64,58.33,46.37,92.91,58.34l5.12,8.86c-36.65,11.74-70.24,32.11-98.24,60.11-.09.09-.18.19-.27.28,5.51-20.55,8.36-41.96,8.36-63.81s-2.91-43.69-8.53-64.44c.22.22.43.45.65.67ZM912.15,911.84c-20.59,20.59-44.41,36.76-70.31,48.07l41.02-72.17c18.61-6.16,38.1-9.92,58.07-11.13-.13.25-.25.5-.38.75-8.24,12.25-17.73,23.8-28.41,34.48ZM955.08,852.25c-.29-.43-.57-.87-.86-1.31-8.66-17.57-15.01-36.21-18.89-55.54l42.14-74.15c1.17,9.42,1.76,18.98,1.76,28.62,0,35.82-8.18,70.38-23.64,101.57-.18.27-.35.54-.52.8ZM990.01,699.21l3.59-6.32c29.8,27.56,65.32,46.94,103.8,57-41.37,10.83-79.32,32.42-110.41,63.39,5.43-20.43,8.25-41.7,8.25-63.4,0-17.23-1.78-34.19-5.23-50.67ZM973.04,696.67l-41.37,72.8c-.55-6.48-.84-13.02-.84-19.59,0-35.82,8.18-70.38,23.64-101.57.18-.27.35-.54.52-.81.29.44.57.88.86,1.31,7.5,15.23,13.27,31.27,17.2,47.86ZM1006.62,579.66h21.25l-46.74,26.99c5.22-6.49,10.82-12.75,16.79-18.73,2.84-2.84,5.74-5.59,8.7-8.26ZM940.26,403.7c-8.17,12.09-17.56,23.5-28.11,34.05-39.95,39.95-92.07,63.31-148,66.65,8.36-12.54,18.02-24.34,28.92-35.24,39.9-39.9,91.93-63.25,147.78-66.64-.2.39-.39.79-.59,1.18ZM588.23,437.75c-10.88-10.88-20.53-22.67-28.88-35.18,55.56,3.55,107.31,26.87,147.04,66.59,10.88,10.88,20.53,22.67,28.88,35.18-55.56-3.55-107.31-26.87-147.04-66.59ZM558.86,579.66c-3.66,12.06-8.32,23.77-13.93,35.04-5.61-11.27-10.27-22.98-13.93-35.04h27.86ZM501.71,587.92c5.81,5.81,11.25,11.87,16.34,18.17l-45.85-26.42h20.81c2.96,2.67,5.86,5.42,8.7,8.26ZM511.78,620.94c-12.47-1.77-24.69-4.56-36.57-8.32l-11.05-19.13,47.62,27.45ZM530.55,639.55c-6.81,10.21-14.49,19.92-22.99,29.07l-13.8-23.88c12.01-2.7,24.31-4.43,36.79-5.18ZM495.85,680.35c-39.14,36.55-88.94,57.91-142.22,61.1,8.36-12.54,18.02-24.34,28.92-35.24,27.02-27.02,59.6-46.46,95.16-57.24l18.13,31.39ZM353.88,758.32c55.87,3.38,107.92,26.73,147.83,66.64,10.76,10.76,20.31,22.4,28.6,34.76-55.87-3.38-107.92-26.73-147.83-66.64-10.76-10.76-20.31-22.4-28.6-34.76ZM545.02,885.06c15.55,31.26,23.78,65.93,23.78,101.87s-8.23,70.6-23.78,101.87c-15.55-31.26-23.78-65.93-23.78-101.87s8.23-70.6,23.78-101.87ZM588.02,1061.77c27.01-27.01,59.58-46.44,95.13-57.23l17.84,30.88c-38.98,36.53-88.6,57.95-141.7,61.31,8.32-12.43,17.92-24.14,28.73-34.95ZM699.18,1000.31c11.77-2.65,23.81-4.37,36.03-5.14-6.69,10-14.22,19.52-22.54,28.49l-13.49-23.35ZM742.28,1020.29v54.62l-10.93-18.91c2.66-12.22,6.32-24.15,10.93-35.7ZM758.28,1022.6c4.27,11.05,7.65,22.45,10.15,34.1l-10.15,17.86v-51.97ZM764.41,995.15c12.25.76,24.32,2.46,36.11,5.1l-13.4,23.58c-8.38-9.03-15.97-18.61-22.71-28.68ZM816.53,1004.45c35.66,10.77,68.33,30.23,95.41,57.32,10.82,10.82,20.43,22.54,28.75,34.97-53.14-3.28-102.81-24.65-141.85-61.15l17.7-31.14ZM969.51,859.44c8.24-12.25,17.73-23.8,28.4-34.48,39.87-39.87,91.86-63.22,147.66-66.63-8.28,12.35-17.83,23.99-28.59,34.74-39.86,39.86-91.83,63.2-147.6,66.63.04-.09.09-.18.13-.27ZM990.09,666.67c-7.46-8.21-14.25-16.87-20.37-25.92-.2-.4-.39-.8-.59-1.19,11.45.69,22.73,2.21,33.79,4.55l-12.83,22.57ZM988.56,620.83l41.06-23.7-9.55,16.8c-10.28,3.03-20.8,5.35-31.51,6.91ZM1050.97,548.27c23.06-12.5,48.13-20.91,74.31-24.85l-66.55,38.42-7.76-13.57ZM1041.34,563.66h-14.89c3.51-2.53,7.09-4.96,10.72-7.28l4.17,7.28ZM1000.58,563.66h-10.61c3.47-16.53,5.27-33.54,5.27-50.83,0-11.39-.79-22.67-2.31-33.76l36.29,63.41c-9.98,6.31-19.55,13.39-28.63,21.19ZM773.41,402.16c-1.12,33.1-9.23,64.98-23.64,93.94-14.41-28.96-22.52-60.84-23.64-93.94h47.28ZM726.14,386.16c1.14-33.06,9.24-64.9,23.63-93.83,14.39,28.92,22.5,60.77,23.63,93.83h-47.27ZM510.41,563.66h-11.37c-9.5-8.15-19.54-15.51-30.01-22.04l39.21-67.85c-2.04,12.8-3.1,25.85-3.1,39.07,0,17.29,1.8,34.3,5.26,50.83ZM473.18,563.66h-16.88l4.73-8.18c4.13,2.59,8.18,5.32,12.16,8.18ZM439.47,560.8l-64.74-37.31c25.48,3.88,49.9,11.99,72.44,23.99l-7.7,13.33ZM431.47,574.65l-8.1,14.02c-14.62-9.15-28.31-20.01-40.8-32.5-6.35-6.35-12.27-13.02-17.77-19.95l66.68,38.43ZM442.37,587.76l9.2,15.92c-4.86-2.16-9.65-4.5-14.35-7l5.16-8.92ZM464.4,625.9l5.12,8.86c-28.63,9.16-55.38,23.6-79.07,42.82l38.74-67.03c11.32,6.05,23.09,11.17,35.21,15.35ZM482.04,868.17c-18.38,4.81-36.08,11.73-52.8,20.67l-38.7-67.02c27.09,21.95,58.19,37.64,91.5,46.35ZM513.02,923.15c.26-.26.51-.53.77-.79-5.64,20.78-8.56,42.45-8.56,64.56,0,13.13,1.04,26.1,3.06,38.82l-39.1-67.71c15.71-9.81,30.41-21.47,43.83-34.88ZM727.34,1081.02l9.11,15.77h-10.21c.19-5.29.55-10.55,1.1-15.77ZM742.28,1112.79v77.34c-9.72-24.37-15.2-50.45-16.07-77.34h16.07ZM758.28,1112.79h15.15c-.84,26.03-6,51.32-15.15,75.02v-75.02ZM764.05,1096.79l8.36-14.71c.49,4.87.8,9.78.98,14.71h-9.34ZM987.1,923.64c13.38,13.3,28.02,24.87,43.66,34.6l-38.32,66.48c1.91-12.39,2.89-25.01,2.89-37.79,0-21.66-2.81-42.89-8.22-63.29ZM1017.51,868.15c33.64-8.81,65.01-24.73,92.28-47.02l-39.12,67.86c-16.83-9.02-34.66-16-53.16-20.84ZM1027.16,633.83l3.69-6.48c13.04-4.23,25.69-9.55,37.83-15.92l35.68,62.35c-23.3-17.96-49.39-31.43-77.19-39.94ZM1043.11,605.77l11.13-19.58,6.48,11.33c-5.76,3-11.63,5.76-17.61,8.25ZM1066.68,575.73l67.78-39.13c-5.42,6.8-11.23,13.34-17.47,19.57-12.93,12.93-27.15,24.12-42.35,33.46l-7.96-13.9ZM1043.02,534.38l-40.48-70.73c27.87,23.42,60.18,40.1,94.9,49.18-18.97,4.96-37.22,12.19-54.42,21.55ZM789.42,386.16c-.63-19.55-3.52-38.72-8.59-57.17.34.34.67.7,1.01,1.04,25.06,25.06,54.6,44.01,86.81,56.13h-79.24ZM710.13,386.16h-78.11c31.77-12.14,60.92-30.95,85.69-55.72.29-.29.57-.59.86-.88-4.97,18.28-7.82,37.25-8.44,56.6ZM455.19,533.6c-16.78-8.98-34.55-15.94-53-20.76,33.54-8.78,64.84-24.63,92.05-46.81l-39.05,67.57ZM371.25,567.48c13.5,13.5,28.3,25.21,44.1,35.05l-39.27,67.95c2.12-13.03,3.21-26.32,3.21-39.79,0-21.72-2.82-43-8.26-63.44.07.07.14.15.22.22ZM415.39,896.86c-15.82,9.85-30.64,21.57-44.14,35.08-.15.15-.3.31-.45.46,5.65-20.81,8.58-42.51,8.58-64.65,0-13-1.02-25.83-2.99-38.43l39.01,67.55ZM455.35,966.07l39.24,67.95c-27.3-22.34-58.72-38.28-92.4-47.09,18.51-4.84,36.33-11.83,53.17-20.85ZM710.2,1112.79c.59,19.56,3.46,38.73,8.49,57.19-.33-.33-.65-.67-.98-1-25.1-25.1-54.69-44.07-86.96-56.19h79.45ZM789.43,1112.79h79.37c-32.26,12.12-61.86,31.09-86.96,56.19-.29.29-.57.59-.86.88,5.01-18.43,7.87-37.56,8.46-57.07ZM1044.6,966.25c16.59,8.87,34.14,15.74,52.36,20.55-33.01,8.7-63.82,24.26-90.7,45.97l38.34-66.52ZM1128.39,931.93c-13.43-13.43-28.15-25.1-43.88-34.91l39.82-69.08c-2.15,13.13-3.26,26.52-3.26,40.08,0,22.42,2.99,44.38,8.78,65.42-.49-.5-.97-1.01-1.47-1.51ZM1082.59,603.53c16.41-10.04,31.76-22.09,45.71-36.04.45-.45.88-.91,1.32-1.35-5.69,20.87-8.63,42.63-8.63,64.85,0,16.21,1.57,32.17,4.62,47.72l-43.02-75.17ZM997.92,437.75c-10.68-10.68-20.16-22.22-28.4-34.48-.13-.25-.25-.51-.38-.76,55.87,3.37,107.93,26.73,147.85,66.64,10.9,10.9,20.56,22.7,28.92,35.24-55.93-3.34-108.04-26.7-147.99-66.65ZM706.39,319.13c-39.67,39.67-91.33,62.98-146.81,66.58,8.3-12.39,17.87-24.05,28.65-34.83,39.67-39.67,91.33-62.98,146.81-66.58-8.3,12.39-17.87,24.05-28.65,34.83ZM501.71,437.75c-39.99,39.99-92.17,63.36-148.17,66.66,8.36-12.54,18.03-24.35,28.93-35.25,39.99-39.99,92.17-63.36,148.16-66.66-8.36,12.54-18.03,24.35-28.93,35.25ZM339.53,765.74c15.6,31.3,23.85,66.02,23.85,102.01s-8.32,71.02-24.05,102.42c-15.6-31.3-23.85-66.02-23.85-102.01s8.32-71.02,24.05-102.42ZM501.71,1062.01c10.76,10.76,20.31,22.39,28.59,34.75-55.83-3.4-107.85-26.74-147.74-66.64-10.76-10.76-20.31-22.39-28.59-34.75,55.83,3.4,107.85,26.74,147.74,66.64ZM559.44,1113.7c55.53,3.57,107.25,26.89,146.95,66.59,10.88,10.88,20.53,22.66,28.88,35.18-55.53-3.57-107.25-26.89-146.95-66.59-10.88-10.88-20.53-22.66-28.88-35.18ZM793.16,1180.29c39.86-39.86,91.83-63.2,147.6-66.63-.33.66-.64,1.32-.97,1.98-8.05,11.79-17.24,22.93-27.56,33.24-39.96,39.95-92.07,63.31-148,66.65,8.36-12.54,18.02-24.34,28.92-35.24ZM970.01,1095.64l.65-1.14c7.96-11.61,17.04-22.57,27.21-32.74,39.94-39.94,92.05-63.3,147.96-66.65-8.32,12.45-17.94,24.17-28.77,35-39.86,39.86-91.83,63.2-147.6,66.63.18-.37.36-.74.54-1.11ZM1160.57,732.43c-15.42-31.15-23.58-65.67-23.58-101.45s8.14-70.19,23.51-101.31c15.42,31.15,23.58,65.67,23.58,101.45s-8.14,70.19-23.51,101.31ZM1128.3,457.85c-24.75-24.75-53.87-43.55-85.61-55.69h78.4c.62,19.51,3.5,38.62,8.53,57.03-.44-.45-.87-.9-1.31-1.35ZM1041.35,386.16c13.05-4.9,25.69-10.91,37.76-18,18.65-10.96,35.73-24.36,50.81-39.72-5.21,18.75-8.2,38.13-8.84,57.72h-79.73ZM595.52,322.75l39.22-67.87c16.87,9.03,34.74,16.02,53.19,20.86-33.68,8.79-65.1,24.7-92.41,47ZM581.74,314.62c2.01-12.73,3.06-25.7,3.06-38.83,0-21.93-2.95-43.7-8.68-64.68,13.45,13.59,28.48,25.6,44.78,35.75l-39.16,67.76ZM568.8,275.79c0,35.97-8.24,70.67-23.82,101.95-15.58-31.28-23.82-65.98-23.82-101.95s8.23-70.61,23.79-101.88c15.64,31.49,23.86,66.45,23.86,101.88ZM456.77,402.16c-31.74,12.14-60.86,30.94-85.61,55.69-.14.14-.27.28-.41.42,4.9-18.13,7.72-36.93,8.35-56.11h77.67ZM160.7,418.59l145.31,83.75c-29.07-4.31-57.11-14.17-82.47-29.13-24.13-14.24-45.43-32.82-62.84-54.62ZM167.51,404.05c48.56,7.02,93.38,29.38,128.7,64.7,6.22,6.22,12.03,12.75,17.43,19.53l-146.13-84.22ZM302.3,669.03l-38.66-66.94c15.71-9.81,30.41-21.47,43.83-34.88.14-.14.27-.28.41-.42-5.6,20.71-8.5,42.3-8.5,64.33,0,12.82.99,25.48,2.91,37.91ZM288.63,677.36c-27.05-22.01-58.11-37.76-91.4-46.54,18.3-4.84,35.92-11.77,52.57-20.7l38.83,67.24ZM302.44,829.88c-1.96,12.55-2.97,25.34-2.97,38.28,0,21.74,2.83,43.05,8.28,63.51-.05-.05-.1-.1-.15-.15-13.4-13.4-28.08-25.04-43.76-34.84l38.6-66.79ZM250.01,888.64c-16.86-9.05-34.73-16.06-53.28-20.91,33.83-8.86,65.38-24.9,92.75-47.4l-39.47,68.3ZM371.25,1041.44c24.52,24.52,53.33,43.21,84.73,55.35h-76.74c-.6-18.97-3.36-37.56-8.14-55.51.05.05.1.1.15.15ZM458.35,1112.79c-13.12,4.91-25.83,10.95-37.96,18.09-18.18,10.69-34.88,23.68-49.67,38.56,5.02-18.41,7.91-37.43,8.53-56.65h79.1ZM568.8,1223.97c0,35.48-8.24,70.46-23.91,101.98-15.66-31.35-23.95-66.15-23.95-102.22s8.26-70.74,23.87-102.05c15.69,31.37,23.99,66.19,23.99,102.29ZM581.69,1184.84l39.2,67.87c-16.23,10.08-31.23,22.01-44.65,35.51,5.65-20.84,8.56-42.46,8.56-64.26,0-13.23-1.06-26.3-3.11-39.13ZM595.68,1177.07c27.24,22.23,58.57,38.11,92.15,46.9-18.42,4.82-36.24,11.77-53.08,20.75l-39.07-67.65ZM742.28,1257.33v169.65c-10.66-26.81-16.21-55.6-16.21-84.73s5.58-58.26,16.21-84.92ZM758.28,1259.87c9.98,25.94,15.2,53.76,15.2,82.38s-5.2,56.07-15.2,82.14v-164.52ZM904.36,1177.48l-38.85,67.39c-16.84-9.01-34.67-15.99-53.08-20.83,33.49-8.72,64.73-24.48,91.93-46.56ZM1121.2,1112.79c.62,19.63,3.59,39.06,8.79,57.84-15.03-15.31-32.04-28.68-50.62-39.63-12.2-7.19-24.98-13.27-38.18-18.22h80ZM1043.66,1096.79c31.4-12.15,60.21-30.83,84.73-55.35.46-.46.91-.94,1.37-1.41-5.01,18.33-7.89,37.35-8.53,56.76h-77.57ZM1198.33,837.98l34.96,61.09c-14.43,9.35-28,20.28-40.44,32.73-.46.46-.91.94-1.37,1.41,5.72-20.93,8.68-42.76,8.68-65.04,0-10.17-.62-20.25-1.83-30.18ZM1202.98,813.89c29.15,26.05,63.52,44.44,100.66,54.14-19.79,5.18-38.79,12.82-56.64,22.78l-44.02-76.92ZM1197.04,669.78c2-12.67,3.03-25.59,3.03-38.66,0-22.26-2.96-44.07-8.67-64.98.44.45.87.9,1.31,1.35,13.28,13.28,27.83,24.84,43.35,34.59l-39.03,67.71ZM1249.9,610.13c16.84,9.08,34.67,16.12,53.19,21-33.9,8.96-65.48,25.15-92.86,47.8l39.67-68.81ZM1339,418.51c-17.45,21.86-38.81,40.5-63.02,54.77-25.27,14.89-53.19,24.71-82.13,29.04l145.15-83.8ZM1187.47,487.51c5.17-6.41,10.7-12.59,16.6-18.49,34.92-34.92,79.13-57.17,127.06-64.45l-143.66,82.94ZM1160.51,495.63c-14.26-28.83-22.3-60.55-23.41-93.48h46.83c-1.12,32.93-9.15,64.64-23.41,93.48ZM1137.09,386.16c1.14-32.48,9.16-64.34,23.45-93.3,14.23,28.78,22.25,60.44,23.38,93.3h-46.83ZM1071,354.36c-30.86,18.14-65.68,28.73-101.48,30.98.07-.14.13-.28.2-.42,8.17-12.09,17.56-23.5,28.11-34.05,39.86-39.86,91.81-63.2,147.59-66.63-19.19,28.57-44.68,52.63-74.42,70.11ZM918.14,316.18l-39.36-68.78c16.12-9.95,31.02-21.72,44.38-35.03-5.5,20.58-8.33,41.91-8.33,63.42,0,13.67,1.13,27.16,3.31,40.39ZM856.96,241.48c-28.64,15.08-60.28,23.91-92.72,25.88,8.34-12.49,17.97-24.25,28.83-35.11,12.33-12.33,25.82-23.07,40.21-32.14l23.67,41.36ZM781.76,220.94c-.29.29-.57.59-.86.88,5.65-20.81,8.58-42.51,8.58-64.66,0-13.13-1.06-26.2-3.13-39.07l38.98,68.12c-15.61,9.77-30.23,21.38-43.57,34.72ZM718.8,221.98c-.34-.34-.67-.7-1.01-1.04-13.3-13.3-27.87-24.88-43.42-34.63l38.53-66.66c-1.87,12.24-2.83,24.64-2.83,37.11,0,22.35,2.98,44.24,8.73,65.23ZM706.48,232.25c10.84,10.84,20.46,22.58,28.79,35.04-32.4-2.12-63.96-11.08-92.52-26.27l23.61-40.85c14.36,9.06,27.82,19.78,40.12,32.08ZM628.91,233c-27.59-17.28-51.27-40.29-69.31-67.34,32.89,2.12,64.44,11.16,92.94,26.45l-23.63,40.89ZM428.4,354.69c-29.83-17.56-55.37-41.74-74.56-70.46,55.85,3.39,107.88,26.74,147.78,66.64,10.8,10.8,20.39,22.49,28.69,34.9-35.96-2.21-70.93-12.84-101.92-31.08ZM363.11,386.16h-47.49c1.14-33.16,9.29-65.1,23.76-94.09,14.49,29.19,22.61,61.33,23.72,94.09ZM363.09,402.16c-1.16,33.13-9.32,65.04-23.79,94-14.43-28.97-22.55-60.87-23.67-94h47.46ZM215.41,486.99c19.43,11.46,40.32,20.12,62.04,25.81-18.56,4.84-36.43,11.84-53.3,20.89l-39.31-68.06c9.62,7.86,19.83,15.02,30.57,21.36ZM324.62,521.34c-8.25,12.28-17.76,23.86-28.46,34.55-12.42,12.42-26.01,23.22-40.53,32.33l-23.48-40.67c28.38-15.14,59.76-24.1,92.47-26.22ZM241.8,596.26c-28.38,15.14-59.76,24.1-92.46,26.22,8.25-12.28,17.76-23.86,28.46-34.56,12.42-12.41,26.01-23.22,40.52-32.33l23.48,40.67ZM296.29,705.79c11.01,11.01,20.76,22.96,29.18,35.65-55.84-3.39-107.87-26.74-147.77-66.64-11.01-11.01-20.76-22.96-29.18-35.65,55.84,3.39,107.87,26.74,147.77,66.64ZM296.21,792.66c-39.64,39.64-91.25,62.94-146.67,66.57,8.21-12.17,17.65-23.65,28.26-34.27,39.64-39.64,91.25-62.94,146.67-66.57-8.21,12.18-17.65,23.65-28.26,34.27ZM241.99,902.5l-23.97,41.48c-14.4-9.07-27.9-19.82-40.23-32.15-11.01-11.01-20.76-22.95-29.18-35.64,33.04,2.02,64.74,11.02,93.38,26.31ZM255.83,910.54c14.49,9.1,28.06,19.89,40.46,32.29,11.01,11.01,20.76,22.95,29.18,35.64-33.13-2.02-64.92-11.06-93.62-26.43l23.98-41.5ZM277.45,986.96c-21.66,5.68-42.51,14.31-61.89,25.73-11.1,6.54-21.63,13.94-31.52,22.09l39.81-68.88c16.96,9.13,34.94,16.19,53.61,21.06ZM339.53,1002.78c14.44,28.97,22.57,60.88,23.7,94.01h-47.58c1.19-33.14,9.38-65.05,23.88-94.01ZM363.23,1112.79c-1.15,32.87-9.34,65.1-23.95,94.34-14.47-29.07-22.6-61.1-23.67-94.34h47.62ZM428.5,1144.67c31.05-18.26,66.11-28.88,102.14-31.04-8.36,12.54-18.03,24.35-28.93,35.25-39.98,39.98-92.13,63.34-148.1,66.66,19.23-28.9,44.89-53.23,74.88-70.87ZM628.89,1266.58l23.55,40.78c-28.5,15.26-60.04,24.29-92.92,26.4,18.08-26.99,41.78-49.96,69.37-67.18ZM642.75,1258.58c28.5-15.11,59.99-24.02,92.29-26.12-8.28,12.34-17.82,23.97-28.56,34.71-12.33,12.33-25.81,23.07-40.21,32.14l-23.52-40.73ZM717.79,1278.48c.29-.29.57-.59.86-.88-5.66,20.81-8.58,42.51-8.58,64.66,0,12.79,1.01,25.51,2.97,38.06l-38.77-67.14c15.59-9.77,30.19-21.36,43.52-34.69ZM780.86,1277.47c.33.33.65.67.98,1,13.49,13.49,28.29,25.2,44.1,35.05l-39.79,69.02c2.2-13.27,3.33-26.74,3.33-40.29,0-22.19-2.94-43.93-8.62-64.78ZM793.16,1267.17c-10.75-10.75-20.3-22.38-28.58-34.73,32.54,2.07,64.27,11.04,92.94,26.31l-23.58,40.91c-14.61-9.14-28.29-20-40.78-32.49ZM871.37,1266.76c27.47,17.2,51.06,40.12,69.08,67.02-32.77-2.06-64.22-10.99-92.66-26.11l23.58-40.91ZM979.02,1223.73c0,36.17-8.33,71.05-24.08,102.47-15.83-31.65-24.16-66.79-24.16-102.47s7.59-67.89,21.98-98.18l2.06-3.58c.08-.12.16-.25.25-.38.04.07.08.13.13.2,15.57,31.28,23.82,65.97,23.82,101.94ZM969.04,1113.64c36.07,2.19,71.15,12.84,102.21,31.15,29.91,17.63,55.5,41.92,74.69,70.75-55.94-3.34-108.06-26.7-148.02-66.65-10.82-10.82-20.43-22.54-28.75-34.98-.04-.09-.09-.18-.13-.27ZM1137.21,1112.79h46.81c-1.07,32.99-9.08,64.76-23.34,93.65-14.35-29.07-22.38-61.06-23.48-93.65ZM1137.24,1096.79c1.16-32.76,9.16-64.32,23.35-93.03,14.2,28.7,22.23,60.26,23.41,93.03h-46.75ZM1284.35,1012.63c-19.34-11.43-40.13-20.08-61.73-25.79,17.32-4.56,34.04-11,49.9-19.23l34.44,60.17c-7.24-5.45-14.78-10.53-22.61-15.16ZM1175.2,978.41c8.37-12.56,18.04-24.38,28.96-35.3,11.43-11.43,23.87-21.49,37.09-30.13l23.31,40.73c-27.55,14.19-57.83,22.63-89.36,24.7ZM1254.95,904.71c29.25-16.29,61.83-25.94,95.84-28.17-8.37,12.56-18.04,24.38-28.96,35.3-13.21,13.21-27.75,24.59-43.32,34.05l-23.57-41.18ZM1204.08,792.94c-10.69-10.69-20.18-22.25-28.43-34.52,55.24,3.73,106.67,27.02,146.19,66.54,10.69,10.69,20.18,22.25,28.43,34.52-55.24-3.73-106.67-27.02-146.19-66.54ZM1204.16,706.06c39.61-39.61,91.17-62.91,146.54-66.56-8.37,12.56-18.04,24.38-28.95,35.29-39.61,39.61-91.17,62.91-146.54,66.56,8.37-12.56,18.04-24.38,28.95-35.29ZM1257.89,596.26l23.44-40.66c14.51,9.11,28.09,19.91,40.5,32.32,10.77,10.77,20.34,22.43,28.63,34.81-32.76-2.18-64.18-11.23-92.58-26.47ZM1244.07,588.2c-14.33-9.05-27.76-19.75-40.04-32.03-10.77-10.77-20.34-22.43-28.63-34.81,32.57,2.17,63.82,11.12,92.09,26.21l-23.42,40.63ZM1222.18,512.8c21.67-5.68,42.52-14.31,61.92-25.74,10.75-6.33,20.96-13.49,30.58-21.34l-39.19,67.98c-16.87-9.05-34.75-16.05-53.31-20.9ZM1199.93,386.16c-.63-19.74-3.58-39.08-8.73-57.71,15.04,15.31,32.06,28.66,50.64,39.61,12.12,7.14,24.82,13.18,37.92,18.1h-79.83ZM987.01,339.08c5.41-20.39,8.22-41.62,8.22-63.29s-2.82-43-8.26-63.44c14.54,14.48,30.87,27.17,48.64,37.64,19.39,11.43,40.25,20.07,61.91,25.75-41.4,10.8-79.39,32.38-110.52,63.33ZM979.24,275.79c0,35.63-8.1,70.01-23.39,101.07-.29.43-.57.87-.86,1.31-.18-.27-.35-.54-.52-.81-15.46-31.18-23.64-65.75-23.64-101.57s8.21-70.39,23.86-101.88c.13-.2.26-.4.39-.6.11.16.21.33.32.49,15.59,31.3,23.84,66.01,23.84,101.99ZM839.16,178.17l-39.47-68.96c9.84,8.08,20.31,15.42,31.34,21.9,19.57,11.5,40.62,20.16,62.49,25.82-18.94,4.87-37.17,12-54.36,21.25ZM660.55,178.26c-17.24-9.29-35.52-16.44-54.52-21.33,21.82-5.64,42.83-14.28,62.36-25.74,11.49-6.75,22.39-14.42,32.6-22.9l-40.44,69.97ZM513.71,340.35c-.26-.26-.51-.53-.77-.79-31.2-31.2-69.33-52.93-110.92-63.8,21.8-5.71,42.77-14.41,62.26-25.93,18.08-10.69,34.68-23.66,49.4-38.49-5.62,20.75-8.53,42.37-8.53,64.45s2.92,43.78,8.56,64.56ZM299.62,386.16h-79.18c12.96-4.86,25.52-10.83,37.53-17.87,18.37-10.77,35.22-23.89,50.15-38.93-5,18.34-7.87,37.37-8.49,56.8ZM210.31,541.72c-15.71,9.81-30.41,21.46-43.83,34.88-.47.47-.92.94-1.38,1.41,5.86-21.21,8.89-43.24,8.89-65.46,0-13.17-1.06-26.27-3.15-39.18l39.47,68.34ZM166.39,686.11c31.19,31.19,69.31,52.92,110.88,63.78-41.54,10.87-79.63,32.59-110.79,63.76-.43.43-.84.86-1.26,1.29,5.84-21.18,8.86-43.17,8.86-65.34s-2.92-43.54-8.6-64.44c.31.31.61.63.92.94ZM166.48,923.15c13.33,13.33,27.94,24.93,43.53,34.7l-39.01,67.5c2.03-12.75,3.08-25.7,3.08-38.71,0-21.91-2.94-43.63-8.64-64.56.35.35.69.72,1.04,1.07ZM299.6,1112.79c.58,19.12,3.34,37.87,8.16,55.96-14.67-14.7-31.19-27.56-49.17-38.16-11.86-6.99-24.26-12.93-37.06-17.8h78.07ZM513.02,1160.2c.09-.09.18-.19.27-.28-5.51,20.55-8.36,41.96-8.36,63.81s2.9,43.57,8.48,64.27c-14.74-14.82-31.36-27.78-49.46-38.45-19.27-11.36-39.97-19.96-61.49-25.65,41.45-10.9,79.45-32.59,110.56-63.7ZM660.44,1321.22l39.4,68.23c-9.65-7.93-19.9-15.15-30.69-21.55-19.29-11.43-40.03-20.09-61.58-25.82,18.41-4.87,36.13-11.86,52.87-20.87ZM839.78,1321.55c16.55,8.85,34.06,15.72,52.24,20.53-21.39,5.68-41.98,14.25-61.14,25.54-10.32,6.08-20.14,12.93-29.43,20.42l38.33-66.49ZM995.02,1223.73c0-21.69-2.82-42.95-8.24-63.36,31.18,31.12,69.26,52.8,110.79,63.64-21.53,5.64-42.26,14.2-61.55,25.52-18.07,10.61-34.68,23.49-49.42,38.23,5.54-20.62,8.42-42.1,8.42-64.03ZM1200.03,1112.79h79.63c-13.11,4.94-25.81,11-37.94,18.15-18.43,10.88-35.32,24.13-50.26,39.3,5.07-18.55,7.96-37.81,8.56-57.46ZM1286.47,959.79c16.78-10.16,32.45-22.41,46.67-36.64.38-.38.74-.76,1.11-1.14-5.74,21-8.7,42.79-8.7,64.77,0,17.03,1.78,33.95,5.25,50.47l-44.33-77.47ZM1333.15,813.65c-31.19-31.19-69.31-52.92-110.88-63.78,41.54-10.87,79.63-32.59,110.79-63.76.42-.42.82-.84,1.23-1.26-5.76,21.04-8.73,42.87-8.73,64.89s3,44.03,8.81,65.16c-.41-.41-.81-.84-1.22-1.25ZM1333.15,576.61c-13.42-13.42-28.12-25.07-43.82-34.88l39.29-68.15c-2.08,12.89-3.14,25.97-3.14,39.12,0,22.07,2.98,43.95,8.77,65.04-.37-.37-.73-.75-1.1-1.13ZM1350.08,385.24c-35.33-2.45-69.65-13.03-100.12-30.97-29.64-17.45-55.05-41.45-74.2-69.93,55.17,3.77,106.52,27.05,145.99,66.53,10.64,10.64,20.1,22.15,28.33,34.36ZM1043.74,236.21c-29.74-17.53-55.21-41.64-74.36-70.26-.06-.11-.11-.22-.17-.34,55.84,3.39,107.88,26.74,147.78,66.64,10.86,10.86,20.49,22.61,28.83,35.1-36.02-2.21-71.05-12.86-102.08-31.15ZM839.14,117.31c-29.74-17.48-55.23-41.53-74.41-70.1,55.71,3.47,107.61,26.8,147.42,66.62,10.67,10.67,20.15,22.21,28.39,34.46-35.77-2.26-70.56-12.85-101.4-30.98ZM660.28,117.39c-30.56,17.93-64.99,28.48-100.4,30.85,8.23-12.23,17.7-23.75,28.36-34.4,39.61-39.61,91.17-62.91,146.54-66.56-19.21,28.58-44.73,52.65-74.49,70.12ZM456.14,236.06c-31.12,18.39-66.26,29.1-102.41,31.3,8.34-12.49,17.97-24.25,28.83-35.1,39.93-39.93,92.02-63.29,147.92-66.65-19.12,28.69-44.59,52.86-74.34,70.46ZM249.87,354.49c-30.6,17.94-65.07,28.47-100.53,30.81,8.23-12.23,17.71-23.76,28.37-34.42,39.66-39.66,91.3-62.97,146.76-66.58-19.23,28.62-44.79,52.71-74.6,70.19ZM134.34,411.09c15.51,31.38,23.65,66.17,23.65,101.46s-8.19,70.28-23.79,101.74c-15.42-31.16-23.58-65.68-23.58-101.46s8.21-70.51,23.72-101.74ZM158.08,749.6c0,35.39-8.19,70.28-23.79,101.73-15.42-31.16-23.58-65.68-23.58-101.46s8.21-70.51,23.72-101.74c15.51,31.39,23.65,66.16,23.65,101.46ZM158.08,986.65c0,35.41-8.19,70.28-23.79,101.74-15.42-31.16-23.58-65.68-23.58-101.46s8.21-70.51,23.72-101.74c15.51,31.39,23.65,66.16,23.65,101.46ZM148.61,1113.24c35.94,2.24,70.89,12.88,101.86,31.13,30.04,17.71,55.72,42.14,74.94,71.14-55.78-3.42-107.75-26.77-147.61-66.63-11.01-11.01-20.76-22.96-29.18-35.64ZM455.83,1263.33c29.81,17.58,55.33,41.76,74.5,70.48-55.84-3.39-107.87-26.74-147.77-66.64-10.83-10.83-20.44-22.55-28.76-35,36,2.22,71.02,12.87,102.03,31.16ZM661,1381.67c29.78,17.64,55.24,41.88,74.35,70.63-55.67-3.49-107.53-26.82-147.33-66.61-10.94-10.94-20.63-22.79-29.01-35.39,36.01,2.29,71,13.01,102,31.37ZM765.53,1450.36c19.05-28.04,44.19-51.7,73.48-68.95,31-18.27,65.99-28.91,101.97-31.13-8.39,12.6-18.08,24.46-29.03,35.41-39.84,39.84-91.78,63.18-147.54,66.62l1.13-1.95ZM1044.13,1263.32c30.88-18.12,65.73-28.69,101.54-30.91-8.29,12.36-17.84,24-28.59,34.75-39.88,39.88-91.87,63.22-147.68,66.63,19.24-28.74,44.84-52.93,74.73-70.47ZM1249.86,1144.72c30.7-18.12,65.31-28.76,100.93-31.14-8.37,12.56-18.04,24.39-28.96,35.3-39.61,39.61-91.19,62.92-146.58,66.57,19.17-28.81,44.72-53.09,74.6-70.73ZM1365.31,1088.45c-15.57-31.44-23.75-66.29-23.75-101.66s8.15-70.12,23.68-101.52c15.48,31.21,23.68,65.8,23.68,101.66s-8.17,70.35-23.61,101.52ZM1365.31,851.4c-15.57-31.43-23.75-66.31-23.75-101.66s8.15-70.12,23.68-101.52c15.48,31.21,23.68,65.8,23.68,101.66s-8.17,70.35-23.61,101.52ZM1365.22,614.35c-15.57-31.44-23.75-66.29-23.75-101.66s8.15-70.12,23.68-101.52c15.49,31.21,23.68,65.8,23.68,101.66s-8.17,70.35-23.61,101.52ZM1023.58,102.11c83.69,35.4,158.86,86.08,223.41,150.63,18.71,18.71,36.25,38.33,52.6,58.77-39.32-27.43-85.73-42.64-134.51-43.67-10.19-16.87-22.49-32.62-36.79-46.92-45.08-45.08-104.63-70.42-168.17-71.71-10.16-16.79-22.42-32.48-36.66-46.71-19.83-19.83-42.47-35.83-67.01-47.66,57.38,8.7,113.3,24.49,167.13,47.26ZM253.01,252.75c64.55-64.55,139.72-115.23,223.41-150.63,54.01-22.84,110.11-38.66,167.7-47.34-24.61,11.84-47.31,27.87-67.19,47.75-14.23,14.23-26.49,29.91-36.65,46.7-63.86,1.08-123.74,26.44-169.02,71.72-14.29,14.29-26.6,30.04-36.79,46.91-48.32,1-94.32,15.92-133.4,42.84,16.16-20.15,33.48-39.49,51.95-57.95ZM47.14,749.74c0-88.66,16.23-174.84,48.25-256.45-.51,6.47-.77,12.98-.77,19.54,0,42.17,10.6,82.71,30.5,118.6-19.85,35.85-30.42,76.33-30.42,118.44s10.58,82.65,30.46,118.52c-19.88,35.87-30.46,76.38-30.46,118.52,0,6.53.27,13.02.77,19.47-32.08-81.67-48.33-167.92-48.33-256.65ZM476.42,1397.36c-83.69-35.4-158.86-86.08-223.41-150.63-18.32-18.32-35.51-37.49-51.56-57.47,39.05,26.82,84.99,41.67,133.23,42.64,10.15,16.74,22.38,32.38,36.57,46.57,45.21,45.21,104.98,70.57,168.74,71.72,10.18,16.83,22.46,32.54,36.72,46.81,19.82,19.82,42.45,35.81,66.97,47.64-57.43-8.69-113.39-24.49-167.26-47.28ZM1246.99,1246.73c-64.55,64.55-139.72,115.23-223.41,150.63-53.89,22.79-109.87,38.59-167.32,47.29,24.53-11.83,47.17-27.82,66.99-47.65,14.26-14.26,26.54-29.98,36.72-46.81,63.64-1.23,123.28-26.58,168.42-71.71,14.2-14.2,26.43-29.83,36.58-46.57,48.58-.98,94.81-16.03,134.04-43.2-16.18,20.18-33.52,39.54-52.01,58.03ZM1404.05,1007.6c.57-6.84.87-13.73.87-20.67,0-42.14-10.58-82.65-30.46-118.52,19.88-35.87,30.46-76.38,30.46-118.52s-10.6-82.71-30.5-118.6c19.85-35.85,30.42-76.33,30.42-118.44,0-7.15-.32-14.25-.93-21.3,32.48,82.13,48.94,168.91,48.94,258.2s-16.41,175.83-48.81,257.86Z"/></svg>