<?xml version="1.0" encoding="UTF-8"?><svg id="Layer_2" xmlns="http://www.w3.org/2000/svg" xmlns:xlink="http://www.w3.org/1999/xlink" viewBox="0 0 1500 1500"><defs><style>.cls-1{fill:url(#New_Gradient_Swatch_2);stroke-width:0px;}</style><linearGradient id="New_Gradient_Swatch_2" x1="106.88" y1="1121.22" x2="1392.82" y2="378.78" gradientUnits="userSpaceOnUse"><stop offset="0" stop-color="#56450d"/><stop offset=".21" stop-color="#e5c787"/><stop offset=".39" stop-color="#f7d976"/><stop offset=".99" stop-color="#725728"/></linearGradient></defs><path class="cls-1" d="M1407.2,750l-.03-.06v-.03c0-84.28-15.7-166.17-46.65-243.62,26.95-16.63,44.96-46.42,44.96-80.35,0-52.02-42.32-94.34-94.34-94.34-16.28,0-31.61,4.15-44.99,11.44-15.93-20.15-33.09-39.44-51.45-57.81-60.35-60.35-130.63-107.73-208.89-140.83-52.11-22.04-106.3-37.08-161.94-45.02-1.59-50.64-43.27-91.34-94.29-91.34s-92.77,40.77-94.3,91.47c-55.33,7.97-109.24,22.97-161.07,44.89-25.16,10.64-49.5,22.77-72.95,36.33h-.08l-.04.07c-49.43,28.58-94.91,63.53-135.82,104.44-18.4,18.4-35.59,37.73-51.55,57.93-13.43-7.36-28.83-11.55-45.2-11.55-52.02,0-94.34,42.32-94.34,94.34,0,34.03,18.11,63.91,45.2,80.5-30.85,77.25-46.52,158.91-46.58,242.96l-.34.59.34.59c.08,84.04,15.77,165.69,46.64,242.93-27.12,16.59-45.26,46.48-45.26,80.54,0,52.02,42.32,94.34,94.34,94.34,16.41,0,31.84-4.21,45.3-11.61,15.93,20.15,33.08,39.44,51.45,57.81,40.87,40.87,86.3,75.78,135.67,104.35l.19.33h.38c23.36,13.48,47.59,25.55,72.64,36.15,52.04,22.01,106.17,37.04,161.73,44.99,1.48,50.73,43.21,91.55,94.3,91.55s92.85-40.85,94.3-91.62c55.4-7.96,109.37-22.97,161.27-44.92,25.06-10.6,49.29-22.67,72.64-36.15h.08l.04-.07c49.55-28.62,95.13-63.62,136.12-104.62,18.33-18.33,35.46-37.58,51.36-57.69,13.4,7.32,28.77,11.49,45.09,11.49,52.02,0,94.34-42.32,94.34-94.34,0-33.95-18.03-63.77-45.01-80.39,30.97-77.45,46.69-159.33,46.7-243.61l.03-.06ZM1247.68,1119.93l42.68-24.64c-8.78,13.71-18.08,27.07-27.9,40.09-5.6-4.45-10.57-9.65-14.78-15.45ZM237.43,1135.23c-9.71-12.88-18.92-26.1-27.6-39.66l42.19,24.36c-4.16,5.73-9.07,10.88-14.59,15.3ZM252.02,380.07l-42.37,24.46c8.72-13.62,17.96-26.89,27.7-39.83,5.55,4.43,10.49,9.6,14.67,15.36ZM1262.54,364.56c9.85,13.07,19.19,26.49,28,40.26l-42.86-24.74c4.22-5.83,9.23-11.05,14.86-15.51ZM1359.99,758l-40.86,18.02v-18.02h40.86ZM1319.13,742v-18.02l40.86,18.02h-40.86ZM1303.13,742h-165.24l45.07-78.06,120.17,52.99v25.07ZM741.85,1319.73v40.95l-16.44-37.35c5.26-1.76,10.75-2.99,16.44-3.6ZM757.85,1319.66c5.79.56,11.4,1.77,16.76,3.53l-16.76,38.14v-41.67ZM757.85,180.28v-40.42l16.27,36.9c-5.21,1.72-10.65,2.93-16.27,3.52ZM741.85,180.34c-5.64-.55-11.1-1.72-16.32-3.41l16.32-37.04v40.45ZM433.79,771.72v-13.72h221.46c.98,11.48,4.02,22.38,8.75,32.32l-191.87,110.78-7.2-12.47c-17.74-36.28-28.36-75.82-31.14-116.91ZM464.38,612.34l7.76-13.44,191.81,110.74c-4.72,9.96-7.75,20.87-8.71,32.36h-221.44v-13.9c2.75-40.65,13.18-79.8,30.59-115.77ZM737.51,433.94h4.34v221.91c-11.43.89-22.3,3.83-32.24,8.45l-110.86-192.02,10.47-6.04c39.58-19.58,83.11-30.66,128.29-32.3ZM914.68,1019.5l-111.13-192.48c9.03-6.38,16.89-14.3,23.2-23.38l192.45,111.11c-12.93,21.09-28.43,40.82-46.37,58.75-17.77,17.77-37.29,33.14-58.15,46ZM972.83,526.32c17.97,17.97,33.5,37.74,46.45,58.88l-192.44,111.11c-6.31-9.11-14.18-17.05-23.21-23.45l111.13-192.49c20.84,12.85,40.33,28.2,58.08,45.95ZM812.91,704.35l-41.21,23.79,23.87-41.35c6.66,4.9,12.51,10.84,17.34,17.56ZM771.7,771.86l41.12,23.74c-4.82,6.7-10.67,12.6-17.32,17.49l-23.8-41.23ZM781.71,821.18c-7.41,3.39-15.43,5.66-23.86,6.59v-47.92l23.86,41.33ZM779.7,758h47.47c-.86,8.37-3.07,16.35-6.36,23.73l-41.1-23.73ZM779.7,742l41.17-23.77c3.29,7.4,5.47,15.38,6.32,23.77h-47.48ZM757.85,720.14v-48.09c8.46.93,16.51,3.22,23.94,6.63l-23.94,41.47ZM741.85,720.14l-24.19-41.9c7.52-3.33,15.66-5.51,24.19-6.31v48.21ZM727.99,728.14l-42.07-24.29c4.96-6.8,10.99-12.77,17.84-17.67l24.23,41.96ZM719.99,742h-48.69c.87-8.59,3.14-16.77,6.57-24.32l42.12,24.32ZM719.99,758l-42.06,24.28c-3.44-7.54-5.73-15.7-6.61-24.28h48.67ZM727.99,771.86l-24.15,41.84c-6.84-4.88-12.86-10.83-17.82-17.6l41.98-24.24ZM741.85,779.86v48.04c-8.5-.8-16.61-2.97-24.11-6.28l24.11-41.76ZM757.85,843.86c11.32-1.03,22.08-4.06,31.9-8.75l111.1,192.44c-43.5,23.83-92.24,37.1-143,38.45v-222.14ZM834.74,789.77c4.59-9.8,7.54-20.51,8.5-31.77h222.11c-1.26,50.71-14.43,99.41-38.13,142.9l-192.48-111.13ZM843.25,742c-.94-11.28-3.88-22-8.45-31.81l192.49-111.13c23.68,43.51,36.83,92.22,38.06,142.94h-222.1ZM900.93,472.32l-111.1,192.43c-9.84-4.71-20.62-7.76-31.98-8.79v-222.02h3.13c49.67,1.8,97.32,15.01,139.95,38.38ZM525.65,526.32c15.03-15.03,31.32-28.36,48.61-39.9l10.63-6.14,110.84,191.97c-9.23,6.38-17.28,14.37-23.73,23.55l-191.86-110.77,7.05-12.22c11.21-16.51,24.04-32.08,38.46-46.5ZM480.14,914.96l191.95-110.82c6.45,9.16,14.49,17.11,23.72,23.48l-110.91,192.1-8.25-4.77c-18.18-11.89-35.27-25.73-50.98-41.45-14.69-14.69-27.75-30.58-39.1-47.43l-6.42-11.12ZM598.75,1027.71l110.94-192.16c9.91,4.6,20.75,7.53,32.16,8.41v222.06c-47.49-1.08-93.24-12.58-134.61-33.41l-8.49-4.9ZM1081.9,725.45v-32.42l10.47,18.13-10.47,14.29ZM1101.11,726.3l9.07,15.7h-20.57l11.5-15.7ZM1049.65,605.17l16.25,7.17v20.98l-16.25-28.15ZM1048.15,587.02l17.76-10.25v18.08l-17.76-7.83ZM1040.15,573.16l2.1-19.29,15.66,9.04-17.76,10.25ZM1025.18,562.78l-16.25-28.15,18.17,10.49-1.92,17.66ZM937.07,474.67l17.66-1.92,10.49,18.17-28.15-16.25ZM926.69,459.7l10.25-17.76,9.04,15.66-19.29,2.1ZM912.83,451.7l-7.83-17.76h18.08l-10.25,17.76ZM894.68,450.2l-28.15-16.25h20.98l7.17,16.25ZM773.75,417.94l14.6-10.67,18.47,10.67h-33.07ZM757.85,409.75v-20.08l15.35,8.86-15.35,11.22ZM741.85,410.6l-15.97-11.71,15.97-9.22v20.93ZM724.81,417.94h-31.94l17.87-10.32,14.07,10.32ZM605.15,450.11l7.12-16.17h20.88l-28.01,16.17ZM586.92,451.81l-10.31-17.86h18.18l-7.87,17.86ZM573.07,459.81l-19.4-2.11,9.09-15.75,10.31,17.86ZM562.49,474.75l-28.01,16.17,10.44-18.09,17.57,1.91ZM474.49,562.81l-1.92-17.68,18.19-10.5-16.27,28.18ZM459.52,573.14l-17.73-10.24,15.64-9.03,2.09,19.26ZM451.77,587.15l-17.98,7.92v-18.3l17.98,10.38ZM449.87,605.47l-16.08,27.85v-20.77l16.08-7.08ZM417.79,725.45l-10.47-14.29,10.47-18.13v32.42ZM410.08,742h-20.57l9.07-15.7,11.5,15.7ZM409.96,758l-11.43,15.61-9.02-15.61h20.44ZM417.79,774.39v32.58l-10.52-18.22,10.52-14.37ZM450.04,894.83l-16.25-7.17v-20.98l16.25,28.15ZM451.55,912.98l-17.76,10.25v-18.08l17.76,7.83ZM459.55,926.84l-2.1,19.29-15.66-9.04,17.76-10.25ZM474.52,937.22l16.25,28.15-18.17-10.49,1.92-17.66ZM562.69,1025.37l-17.69,1.92-10.51-18.21,28.21,16.28ZM572.98,1040.34l-10.23,17.71-9.02-15.62,19.25-2.09ZM586.88,1048.26l7.83,17.79h-18.1l10.27-17.79ZM605.05,1049.83l28.11,16.23h-20.97l-7.14-16.23ZM725.74,1082.06l-14.5,10.6-18.36-10.6h32.86ZM741.85,1090.1v20.24l-15.46-8.93,15.46-11.31ZM757.85,1089.56l15.85,11.62-15.85,9.15v-20.77ZM774.68,1082.06h32.14l-17.98,10.38-14.16-10.38ZM894.73,1049.78l-7.15,16.28h-21.04l28.19-16.28ZM912.85,1048.32l10.24,17.73h-18.03l7.79-17.73ZM926.69,1040.3l19.29,2.1-9.04,15.66-10.25-17.76ZM937.07,1025.33l28.15-16.25-10.49,18.17-17.66-1.92ZM1025.17,937.24l1.92,17.65-18.16,10.49,16.24-28.13ZM1040.13,926.83l17.77,10.26-15.67,9.05-2.1-19.31ZM1048.16,912.99l17.74-7.82v18.07l-17.74-10.24ZM1049.64,894.85l16.26-28.17v20.99l-16.26,7.17ZM1081.9,774.39l10.52,14.37-10.52,18.22v-32.58ZM1089.74,758h20.44l-9.02,15.61-11.43-15.61ZM1124.03,734l-12.59-21.81,44.16-60.31,12.63,5.57-44.2,76.55ZM1102.7,697.05l-20.8-36.02v-41.64l58.71,25.89-37.91,51.77ZM1081.9,601.9v-25.14l76.52,44.18-8.14,11.11-68.39-30.15ZM1089.9,562.91l143.1-82.62,12.53,21.7-77.6,105.97-78.03-45.05ZM1247.68,471.82l34.56-19.95-23.58,32.2c-4.07-3.68-7.75-7.79-10.98-12.25ZM1239.66,457.97c-2.23-4.97-3.97-10.2-5.14-15.65l39.72-4.32-34.58,19.97ZM1225,466.43l-143.1,82.62v-90.13l130.56-14.2,12.54,21.71ZM1065.9,549.05l-21.77-12.57,8.08-74.34,13.69-1.49v88.39ZM1028.99,527.74l-36.06-20.82-20.82-36.06,63.82-6.94-6.94,63.82ZM963.37,455.71l-12.57-21.77h88.39l-1.49,13.69-74.34,8.08ZM950.8,417.94l82.62-143.1,21.71,12.54-14.2,130.56h-90.13ZM1061.84,225.6l-4.83,44.39-15.6-9.01,20.43-35.38ZM1027.56,252.99l-15.67-9.05,36.14-26.41-20.47,35.46ZM1019.56,266.85l-82.62,143.1-45.17-78.24,105.99-77.45,21.8,12.58ZM923.08,417.94h-25.14l-30.26-68.64,11.09-8.11,44.31,76.74ZM880.46,417.94h-41.64l-36.35-20.99,51.99-37.99,26,58.97ZM787.32,388.21l-21.48-12.4,76.55-44.2,5.45,12.37-60.53,44.23ZM757.85,361.96v-165.24h25.07l52.99,120.17-78.06,45.07ZM741.85,196.72v165.24l-78.01-45.04,52.96-120.2h25.04ZM733.85,375.81l-22.06,12.74-60.09-44.07,5.65-12.83,76.5,44.16ZM696.65,397.29l-35.77,20.65h-41.55l25.76-58.47,51.56,37.81ZM601.84,417.94h-25.23l44.09-76.36,11.18,8.2-30.03,68.16ZM562.75,409.94l-82.62-143.1,21.63-12.49,105.95,77.71-44.96,77.88ZM451.75,217.68l35.92,26.34-15.53,8.97-20.39-35.31ZM458.28,260.99l-15.61,9.01-4.83-44.4,20.43,35.39ZM466.28,274.85l82.62,143.1h-90.15l-14.19-130.56,21.72-12.54ZM548.9,433.94l-12.62,21.85-74.3-8.1-1.49-13.75h88.41ZM527.54,470.94l-20.77,35.98-36.08,20.83-6.93-63.76,63.78,6.95ZM455.54,536.49l-21.75,12.56v-88.33l13.67,1.49,8.07,74.28ZM417.79,549.05l-143.1-82.62,12.52-21.69,130.58,14.23v90.07ZM260.04,457.97l-34.56-19.96,39.7,4.33c-1.16,5.44-2.9,10.67-5.13,15.63ZM252.02,471.82c-3.23,4.45-6.9,8.57-10.98,12.25l-23.58-32.2,34.56,19.95ZM266.69,480.29l143.1,82.62-78.03,45.05-77.6-105.97,12.53-21.7ZM417.79,576.76v25.34l-68.3,30.07-8.23-11.23,76.52-44.18ZM417.79,619.59v41.44l-20.8,36.02-37.82-51.65,58.62-25.81ZM388.25,712.19l-12.59,21.81-44.13-76.43,12.65-5.57,44.07,60.19ZM361.8,742h-165.24v-25.01l120.23-52.94,45,77.95ZM139.76,742l40.81-17.97v17.97h-40.81ZM180.57,758v18.02l-40.86-18.02h40.86ZM196.57,758h165.24l-45.07,78.06-120.17-52.99v-25.07ZM375.66,766l12.54,21.73-44.18,60.36-12.56-5.54,44.2-76.55ZM396.95,802.87l20.84,36.1v41.64l-58.77-25.92,37.93-51.83ZM417.79,898.1v25.14l-76.58-44.21,8.13-11.11,68.45,30.18ZM409.79,937.09l-143.1,82.62-12.54-21.72,77.56-105.98,78.08,45.08ZM252.02,1028.18l-34.58,19.96,23.58-32.22c4.08,3.69,7.76,7.8,10.99,12.26ZM260.04,1042.03c2.24,4.97,3.98,10.21,5.14,15.66l-39.73,4.32,34.59-19.97ZM274.69,1033.57l143.1-82.62v90.16l-130.56,14.18-12.54-21.72ZM433.79,950.95l21.77,12.57-8.09,74.36-13.68,1.49v-88.42ZM470.71,972.26l36.06,20.82,20.84,36.1-63.84,6.94,6.94-63.85ZM536.35,1044.32l12.55,21.73h-88.39l1.49-13.66,74.36-8.08ZM548.9,1082.06l-82.62,143.1-21.71-12.53,14.2-130.56h90.13ZM437.85,1274.4l4.83-44.39,15.6,9.01-20.43,35.38ZM472.14,1247.01l15.65,9.03-36.1,26.4,20.46-35.43ZM480.14,1233.15l82.62-143.1,45.13,78.17-105.99,77.5-21.76-12.57ZM576.61,1082.06h25.14l30.18,68.59-11.06,8.09-44.27-76.67ZM619.23,1082.06h41.64l36.24,20.93-51.96,37.99-25.93-58.92ZM712.26,1111.73l21.58,12.46-76.61,44.23-5.48-12.45,60.51-44.24ZM741.85,1138.04v165.24h-25.26l-52.86-120.13,78.13-45.11ZM757.85,1303.28v-165.24l78.25,45.18-52.75,120.06h-25.5ZM765.85,1124.19l21.96-12.68,60.36,44.24-5.59,12.73-76.73-44.3ZM802.94,1102.77l35.88-20.71h41.73l-25.79,58.69-51.82-37.98ZM898.02,1082.06h25.06l-44.13,76.43-10.98-8.05,30.04-68.38ZM936.94,1090.06l82.62,143.1-21.66,12.5-105.96-77.66,45-77.94ZM1047.96,1282.35l-35.96-26.36,15.56-8.98,20.4,35.34ZM1041.42,1239.01l15.6-9.01,4.83,44.39-20.43-35.38ZM1033.42,1225.15l-82.62-143.1h90.12l14.2,130.57-21.71,12.53ZM950.8,1066.06l12.57-21.77,74.33,8.08,1.49,13.69h-88.38ZM972.11,1029.14l20.82-36.06,36.05-20.81,6.94,63.81-63.81-6.94ZM1044.12,963.52l21.78-12.57v88.39l-13.69-1.49-8.08-74.33ZM1081.9,950.95l143.1,82.62-12.54,21.71-130.56-14.2v-90.13ZM1239.66,1042.03l34.58,19.97-39.72-4.32c1.16-5.45,2.9-10.68,5.14-15.65ZM1247.68,1028.18c3.23-4.46,6.91-8.58,10.99-12.26l23.58,32.22-34.58-19.96ZM1233,1019.71l-143.1-82.62,78.08-45.08,77.56,105.98-12.54,21.72ZM1081.9,923.24v-25.12l68.46-30.19,8.12,11.1-76.58,44.21ZM1081.9,880.63v-41.65l20.84-36.1,37.94,51.84-58.78,25.92ZM1111.49,787.73l12.54-21.73,44.2,76.56-12.56,5.54-44.18-60.37ZM1137.89,758h165.24v25.07l-120.17,52.99-45.07-78.06ZM1191,650.01l4.44-7.69,70.71,40.83-75.15-33.14ZM1176.28,643.51l-11-4.85,7.08-9.67,9.22,5.33-5.31,9.2ZM1181.87,616l48.63-66.41-40.91,70.87-7.72-4.45ZM1303.13,455.8v48.08c-8.48-.86-16.56-3.11-24.03-6.47l24.03-41.61ZM1081.9,442.82v-8.88h81.65l-81.65,8.88ZM1065.9,444.56l-11.91,1.3,1.3-11.91h10.62v10.62ZM1057.02,417.94l8.88-81.65v81.65h-8.88ZM883.73,317.77l-4.34-7.51,69.66-40.22-65.32,47.73ZM870.73,327.27l-9.66,7.05-4.74-10.75,9.2-5.31,5.2,9.01ZM849.84,308.84l-33.14-75.15,40.83,70.71-7.69,4.44ZM649.9,308.87l-7.74-4.47,41-71.01-33.26,75.48ZM643.41,323.6l-4.93,11.19-9.74-7.14,5.42-9.39,9.25,5.34ZM615.76,318.13l-67.21-49.3,71.76,41.43-4.54,7.87ZM442.66,417.94h-8.86v-81.57l8.86,81.57ZM444.4,433.94l1.3,11.98-11.9-1.3v-10.68h10.6ZM417.79,442.88l-82-8.94h82v8.94ZM220.59,497.41c-7.47,3.36-15.54,5.6-24.03,6.47v-48.08l24.03,41.61ZM317.82,616l-7.71,4.45-40.91-70.87,48.63,66.41ZM327.33,628.99l7.17,9.79-11.01,4.85-5.38-9.31,9.22-5.33ZM308.75,650.11l-75.85,33.4,71.35-41.2,4.5,7.8ZM308.69,849.99l-4.44,7.69-70.71-40.83,75.15,33.14ZM323.42,856.49l10.94,4.82-7.08,9.67-9.17-5.29,5.31-9.2ZM317.77,883.97l-48.4,66.14,40.74-70.56,7.66,4.42ZM196.57,1044.2v-48.08c8.48.86,16.56,3.11,24.03,6.47l-24.03,41.61ZM417.79,1057.2v8.85h-81.51l81.51-8.85ZM433.79,1055.46l11.91-1.29-1.29,11.89h-10.62v-10.59ZM442.67,1082.06l-8.88,81.65v-81.65h8.88ZM615.93,1182.16l4.37,7.58-70.04,40.44,65.67-48.02ZM628.92,1172.66l9.61-7.03,4.77,10.83-9.13,5.27-5.24-9.08ZM649.78,1191.2l32.56,73.98-40.17-69.58,7.62-4.4ZM850.04,1191.27l7.49,4.33-39.3,68.07,31.81-72.4ZM856.51,1176.53l4.87-11.09,9.52,6.98-5.38,9.32-9.02-5.21ZM883.89,1181.94l66.87,49.01-71.38-41.21,4.5-7.8ZM1057.02,1082.06h8.89v81.69l-8.89-81.69ZM1055.28,1066.06l-1.3-11.92,11.92,1.3v10.62h-10.63ZM1081.9,1057.18l81.65,8.88h-81.65v-8.88ZM1279.1,1002.59c7.47-3.36,15.54-5.6,24.03-6.47v48.08l-24.03-41.61ZM1181.92,883.97l7.66-4.42,40.74,70.56-48.4-66.14ZM1172.42,870.98l-7.07-9.66,10.93-4.82,5.31,9.19-9.17,5.29ZM1191.01,850l75.11-33.12-70.68,40.81-4.44-7.68ZM1319.13,695.25v-65.79l56.97,98.68-56.97-32.89ZM1303.13,686.01l-99.68-57.55,57.55-99.68,42.13,72.97v84.26ZM1270.23,512.77l.83-1.43c9.88,4.65,20.69,7.64,32.07,8.6v49.8l-32.89-56.97ZM1319.13,454.32c7.52,14.48,14.51,29.29,20.95,44.4-6.6,2.63-13.62,4.42-20.95,5.16v-49.56ZM1281.27,417.94h-48.08c.86-8.48,3.11-16.56,6.47-24.03l41.61,24.03ZM1217.13,417.94h-1.64l-32.89-56.97,43.14,24.91c-4.65,9.88-7.64,20.69-8.6,32.07ZM1197.01,417.94h-115.11v-115.11l72.97,42.13,42.13,72.97ZM1081.9,284.36v-65.79l56.97,98.68-56.97-32.89ZM987.07,229.61l-56.97-32.89h113.95l-56.97,32.89ZM971.07,238.85l-99.68,57.55-57.55-99.68h84.26l72.97,42.13ZM804.6,180.72l-.72-1.25c9.12-6.44,17.04-14.46,23.39-23.65l43.12,24.9h-65.79ZM795.84,165.54l-24.13-41.8,41.64,24.04c-4.86,6.81-10.77,12.81-17.51,17.76ZM778.84,109.39c16.2.71,32.3,2.02,48.29,3.93-1.01,7.22-3.01,14.12-5.86,20.56l-42.43-24.5ZM727.99,123.75l-24.3,42.08c-6.83-4.95-12.82-10.97-17.74-17.81l42.04-24.27ZM677.98,134.15c-2.89-6.49-4.93-13.45-5.96-20.72,16.16-1.95,32.43-3.29,48.81-4.02l-42.85,24.74ZM695.66,179.75l-.56.97h-65.79l42.72-24.66c6.41,9.23,14.42,17.26,23.63,23.7ZM685.86,196.72l-57.55,99.68-99.68-57.55,72.97-42.13h84.26ZM512.62,229.61l-56.97-32.89h113.95l-56.97,32.89ZM417.79,284.36l-56.97,32.89,56.97-98.68v65.79ZM417.79,302.84v115.11h-115.11l42.13-72.97,72.97-42.13ZM284.21,417.94h-1.64c-.96-11.38-3.95-22.19-8.6-32.07l43.14-24.91-32.89,56.97ZM266.5,417.94h-48.08l41.61-24.03c3.36,7.47,5.6,15.54,6.47,24.03ZM180.57,503.88c-7.24-.74-14.17-2.48-20.69-5.06,6.37-14.94,13.27-29.58,20.69-43.91v48.97ZM196.57,519.95c11.38-.96,22.19-3.95,32.07-8.6l.83,1.43-32.89,56.97v-49.8ZM238.7,528.78l57.55,99.68-99.68,57.55v-84.26l42.13-72.97ZM180.57,695.25l-56.97,32.89,56.97-98.68v65.79ZM180.57,804.75v65.79l-56.97-98.68,56.97,32.89ZM196.57,813.99l99.68,57.55-57.55,99.68-42.13-72.97v-84.26ZM229.46,987.23l-.83,1.43c-9.88-4.65-20.69-7.64-32.07-8.6v-49.8l32.89,56.97ZM180.57,1044.92c-7.4-14.28-14.28-28.87-20.63-43.76,6.5-2.56,13.42-4.3,20.63-5.04v48.8ZM218.42,1082.06h48.08c-.86,8.48-3.11,16.56-6.47,24.03l-41.61-24.03ZM282.57,1082.06h1.64l32.89,56.97-43.14-24.91c4.65-9.88,7.64-20.69,8.6-32.07ZM302.69,1082.06h115.11v115.11l-72.97-42.13-42.13-72.97ZM417.79,1215.64v65.79l-56.97-98.68,56.97,32.89ZM512.62,1270.39l56.97,32.89h-113.95l56.97-32.89ZM528.62,1261.15l99.68-57.55,57.55,99.68h-84.26l-72.97-42.13ZM695.1,1319.28l.75,1.3c-9.1,6.44-17.01,14.46-23.34,23.64l-43.19-24.94h65.79ZM703.89,1334.51l24.1,41.75-41.57-24c4.85-6.8,10.74-12.8,17.47-17.75ZM720.5,1390.4c-16.04-.72-31.98-2.03-47.81-3.92,1.02-7.13,3-13.94,5.81-20.32l41.99,24.25ZM771.7,1376.25l24.33-42.13c6.84,4.95,12.85,10.97,17.79,17.82l-42.11,24.31ZM821.8,1365.81c2.88,6.46,4.92,13.38,5.96,20.62-16.08,1.94-32.29,3.27-48.59,3.99l42.63-24.61ZM804.07,1320.2l.53-.92h65.79l-42.65,24.62c-6.42-9.23-14.44-17.27-23.67-23.71ZM813.84,1303.28l57.55-99.68,99.68,57.55-72.97,42.13h-84.26ZM987.07,1270.39l56.97,32.89h-113.95l56.97-32.89ZM1081.9,1215.64l56.97-32.89-56.97,98.68v-65.79ZM1081.9,1197.16v-115.11h115.11l-42.13,72.97-72.97,42.13ZM1215.48,1082.06h1.64c.96,11.38,3.95,22.19,8.6,32.07l-43.14,24.91,32.89-56.97ZM1233.19,1082.06h48.08l-41.61,24.03c-3.36-7.47-5.6-15.54-6.47-24.03ZM1319.13,996.12c7.31.74,14.31,2.52,20.89,5.14-6.42,15.06-13.39,29.81-20.89,44.25v-49.39ZM1303.13,980.05c-11.38.96-22.19,3.95-32.07,8.6l-.83-1.43,32.89-56.97v49.8ZM1261,971.22l-57.55-99.68,99.68-57.55v84.26l-42.13,72.97ZM1319.13,804.75l56.97-32.89-56.97,98.68v-65.79ZM1390.52,721.12l-71.4-123.66v-77.52c9.48-.8,18.57-3.01,27.05-6.41,26.34,66.32,41.21,135.96,44.34,207.59ZM1311.13,347.6c43.2,0,78.34,35.14,78.34,78.34,0,27.25-14,51.29-35.17,65.33-20.71-48.34-46.89-93.62-78.23-135.36,10.56-5.31,22.46-8.32,35.06-8.32ZM1252.74,351.89c-7.27,5.74-13.67,12.53-18.99,20.14l-67.16-38.78-71.54-123.91c38.95,24.9,75.17,54.04,108.32,87.19,17.6,17.6,34.06,36.07,49.37,55.35ZM1045.47,180.72h-143.08l-67.18-38.79c3.83-8.26,6.5-17.17,7.8-26.51,53.79,7.8,106.18,22.4,156.56,43.71,15.63,6.61,30.94,13.82,45.9,21.59ZM749.57,24.03c41.48,0,75.52,32.42,78.16,73.25-25.63-3.01-51.56-4.53-77.71-4.53l-.17-.1-.17.1c-26.35.01-52.46,1.57-78.28,4.63,2.59-40.88,36.65-73.35,78.17-73.35ZM500.43,159.13c50.12-21.2,102.23-35.76,155.71-43.59,1.32,9.39,4.02,18.35,7.9,26.65l-66.74,38.53h-142.78c14.96-7.77,30.27-14.98,45.9-21.59ZM296.63,296.54c33.01-33.01,69.07-62.05,107.83-86.88l-71.36,123.6-67.16,38.78c-5.27-7.54-11.61-14.28-18.8-19.99,15.34-19.33,31.84-37.86,49.49-55.5ZM110.22,425.94c0-43.2,35.14-78.34,78.34-78.34,12.69,0,24.67,3.05,35.28,8.43-15.66,20.86-30.02,42.6-43.06,65.17l-.22.13v.25c-12.97,22.49-24.63,45.79-34.93,69.85-21.31-14.02-35.41-38.13-35.41-65.48ZM153.78,513.64c8.41,3.35,17.4,5.51,26.79,6.31v77.52l-71.07,123.09c3.19-71.39,18.04-140.8,44.28-206.91ZM109.51,779.46l71.06,123.08v77.52c-9.36.79-18.34,2.95-26.73,6.28-26.25-66.09-41.12-135.5-44.33-206.87ZM188.57,1152.4c-43.2,0-78.34-35.14-78.34-78.34,0-27.38,14.13-51.51,35.47-65.52,10.29,24.01,21.92,47.27,34.87,69.71v.43l.37.22c13.03,22.52,27.37,44.21,43,65.03-10.64,5.41-22.65,8.48-35.38,8.48ZM296.63,1203.28c-17.61-17.61-34.09-36.1-49.4-55.4,7.16-5.7,13.47-12.41,18.72-19.92l67.16,38.78,71.2,123.31c-38.7-24.81-74.71-53.81-107.67-86.77ZM454.87,1319.28h142.44l67.26,38.83c-3.79,8.19-6.44,17.01-7.75,26.26-53.73-7.8-106.06-22.4-156.39-43.69-15.52-6.56-30.7-13.71-45.56-21.41ZM750.23,1475.97c-41.55,0-75.64-32.52-78.17-73.45,25.5,3,51.29,4.53,77.31,4.55l.48.28.47-.27c26.28-.01,52.33-1.56,78.09-4.61-2.51,40.95-36.61,73.5-78.18,73.5ZM999.57,1340.69c-50.19,21.23-102.37,35.8-155.94,43.62-1.33-9.36-4.03-18.28-7.9-26.55l66.66-38.49h142.74c-14.86,7.7-30.04,14.85-45.56,21.41ZM1203.37,1203.28c-33.11,33.11-69.27,62.21-108.16,87.09l71.38-123.63,67.16-38.78c5.29,7.58,11.67,14.34,18.9,20.07-15.28,19.24-31.71,37.68-49.28,55.25ZM1389.47,1074.06c0,43.2-35.14,78.34-78.34,78.34-12.64,0-24.58-3.03-35.16-8.37,31.35-41.74,57.55-87.01,78.27-135.35,21.21,14.03,35.23,38.09,35.23,65.37ZM1346.12,986.44c-8.46-3.39-17.53-5.59-26.99-6.39v-77.52l71.39-123.65c-3.16,71.62-18.05,141.25-44.4,207.55Z"/></svg>
