<?xml version="1.0" encoding="UTF-8"?><svg id="Layer_2" xmlns="http://www.w3.org/2000/svg" xmlns:xlink="http://www.w3.org/1999/xlink" viewBox="0 0 1500 1500"><defs><style>.cls-1{fill:url(#New_Gradient_Swatch_2);stroke-width:0px;}</style><linearGradient id="New_Gradient_Swatch_2" x1="135.59" y1="1105.17" x2="1366.85" y2="394.3" gradientUnits="userSpaceOnUse"><stop offset="0" stop-color="#56450d"/><stop offset=".21" stop-color="#e5c787"/><stop offset=".39" stop-color="#f7d976"/><stop offset=".99" stop-color="#725728"/></linearGradient></defs><path class="cls-1" d="M1378.77,438.72c0-48.99-39.86-88.85-88.85-88.85-29.96,0-56.51,14.91-72.61,37.7l-386.69-223.24c5.27-11.35,8.23-23.99,8.23-37.31,0-48.99-39.86-88.85-88.85-88.85s-88.85,39.86-88.85,88.85c0,13.32,2.95,25.96,8.23,37.31l-386.67,223.24c-16.1-22.79-42.65-37.7-72.61-37.7-48.99,0-88.85,39.86-88.85,88.85,0,46.3,35.59,84.43,80.85,88.49v443.8c-44.48,4.81-79.23,42.59-79.23,88.33,0,48.99,39.86,88.85,88.85,88.85,28.79,0,54.42-13.77,70.67-35.06l386.26,223.01c-5.14,11.23-8,23.7-8,36.84,0,48.99,39.86,88.85,88.85,88.85s88.85-39.86,88.85-88.85c0-12.95-2.79-25.27-7.79-36.38l386.76-223.3c16.1,22.79,42.65,37.7,72.61,37.7,48.99,0,88.85-39.86,88.85-88.85,0-46.3-35.59-84.43-80.85-88.49v-446.46c45.26-4.06,80.85-42.19,80.85-88.49ZM1289.92,365.87c40.17,0,72.85,32.68,72.85,72.85,0,37.47-28.43,68.41-64.85,72.41v-77.02l-66.68-38.5c13.28-18.02,34.63-29.74,58.68-29.74ZM1000.68,1054.16c44.75-16.59,82.45-47.81,107.26-87.83l101.35,58.51c-4.21,9.05-6.93,18.93-7.86,29.31h-200.74ZM808.77,1330.71l-36.92,21.31,21.47-37.19c5.92,4.47,11.13,9.84,15.45,15.87ZM300.41,1054.16c-.63-10.85-3.21-21.17-7.4-30.64l99.26-57.31c26.27,41.05,66.23,72.52,113.39,87.95h-205.25ZM500.97,446.72c-45.31,16.36-83.51,47.69-108.63,87.99l-101.63-58.67c4.21-9.05,6.93-18.93,7.86-29.31h202.4ZM1201.43,446.72c.93,10.38,3.66,20.26,7.86,29.31l-101.63,58.67c-25.12-40.29-63.33-71.62-108.63-87.99h202.4ZM1268.06,1040.3l-36.82-21.26c4.37-5.94,9.62-11.19,15.56-15.56l21.26,36.82ZM1260.65,995.47c6.64-2.92,13.78-4.89,21.27-5.71v42.55l-21.27-36.84ZM1217.31,1011l-101.45-58.57c15.27-29.33,23.91-62.64,23.91-97.93,0-15.28-1.63-30.18-4.71-44.56l103.7,179.61c-8.31,5.87-15.58,13.14-21.45,21.45ZM262.87,986.74l99.17-171.77c-2.1,11.97-3.2,24.28-3.2,36.84,0,36.37,9.18,70.63,25.32,100.61l-98.91,57.11c-6.03-8.87-13.62-16.6-22.38-22.79ZM271.33,1017.56l-39.39,22.74,22.88-39.64c6.38,4.7,11.95,10.41,16.51,16.89ZM231.94,460.58l36.82,21.26c-4.37,5.94-9.63,11.19-15.56,15.56l-21.26-36.82ZM239.35,505.42c-6.64,2.92-13.78,4.89-21.27,5.71v-42.55l21.27,36.84ZM282.69,489.88l101.69,58.71c-15.42,29.44-24.15,62.91-24.15,98.39,0,14.94,1.56,29.53,4.5,43.61l-103.49-179.26c8.31-5.87,15.58-13.14,21.45-21.45ZM566.99,655.03c27.64,45.93,72.13,80.63,124.84,95.48-51.7,14.7-95.43,48.51-123.07,93.26-69.73-1.51-130.64-39.45-164.42-95.51,33.98-54.71,94.02-91.62,162.65-93.23ZM779.58,724.13c27.88-31.48,65.67-53.99,108.43-62.6l-108.43,62.6ZM898.74,673.81c-28.65,33.3-68.23,56.94-113.11,65.31l113.11-65.31ZM757.99,714.5v-135.04c7.72,21.07,11.93,43.81,11.93,67.52s-4.21,46.45-11.93,67.52ZM741.99,714.46c-7.71-21.06-11.92-43.79-11.92-67.48s4.21-46.42,11.92-67.48v134.96ZM605.77,657.93c46.44,8.14,87.32,32.62,116.5,67.26l-116.5-67.26ZM714.87,739.4c-46.03-8.2-86.56-32.46-115.61-66.75l115.61,66.75ZM714.64,761.62l-114.38,66.04c28.85-33.8,68.92-57.76,114.38-66.04ZM721.52,776.12c-28.32,32.51-67.12,55.65-111.08,64.13l111.08-64.13ZM741.99,787.02v134.96c-7.71-21.06-11.92-43.79-11.92-67.48s4.21-46.42,11.92-67.48ZM757.99,788.26c6.82,19.95,10.53,41.32,10.53,63.55s-3.71,43.61-10.53,63.55v-127.11ZM889.56,840.26c-43.96-8.48-82.76-31.62-111.08-64.13l111.08,64.13ZM785.37,761.63c45.45,8.28,85.5,32.23,114.35,66.02l-114.35-66.02ZM807.64,750.37c51.47-14.64,95.04-48.21,122.7-92.67,69.06,1.18,129.57,38.11,163.78,93.04-34.07,54.7-94.21,91.55-162.91,93.03-27.73-44.9-71.65-78.77-123.57-93.4ZM951.87,643.13l65.15-37.61,52.73,91.32c-31.98-29-72.8-48.42-117.88-53.71ZM945.63,628.26c10.75-25.43,16.71-53.36,16.71-82.66,0-14.4-1.44-28.46-4.18-42.06l50.87,88.11-63.4,36.6ZM946.33,545.6c0,34.89-9.14,67.68-25.13,96.13-55.3,1.46-105.4,24.13-142.47,60.14,4.68-17.52,7.19-35.92,7.19-54.89,0-37.36-9.69-72.49-26.66-103.04,33.82-54.83,93.77-91.91,162.36-93.74,15.73,28.28,24.71,60.8,24.71,95.39ZM757.99,517.66v-70.94h96.82c-38.7,13.98-72.21,38.87-96.82,70.94ZM741.99,517.64c-24.61-32.06-58.12-56.95-96.8-70.92h96.8v70.92ZM740.73,543.95c-16.97,30.55-26.66,65.68-26.66,103.04,0,18.33,2.33,36.12,6.7,53.09-37.42-36.77-88.32-59.86-144.51-61.05-15.06-27.81-23.62-59.64-23.62-93.42s8.98-67.13,24.72-95.41c69.01,1.48,129.38,38.65,163.37,93.75ZM553.03,627.49l-62.07-35.83,49.35-85.48c-2.4,12.78-3.68,25.96-3.68,39.43,0,29,5.84,56.66,16.39,81.88ZM544.03,640.76c-41.28,5.38-78.88,22.64-109.25,48.22l48.19-83.47,61.06,35.25ZM547.26,858.26l-64.29,37.12-52.02-90.11c31.67,28.47,71.9,47.59,116.31,52.99ZM553.69,873.02c-10.65,25.32-16.55,53.12-16.55,82.26,0,13.94,1.36,27.56,3.93,40.75l-50.11-86.8,62.73-36.22ZM553.15,955.28c0-34.64,9.01-67.21,24.78-95.51,55.64-1.25,106.07-23.96,143.34-60.15-4.68,17.52-7.19,35.92-7.19,54.89,0,36.29,9.14,70.48,25.22,100.41-33.87,54.87-93.91,91.95-162.58,93.68-15.02-27.79-23.56-59.57-23.56-93.32ZM741.99,979.33v74.83h-104.29c42-13.74,78.29-40.2,104.29-74.83ZM757.99,983.83c24.26,31.61,57.17,56.25,95.17,70.34h-95.17v-70.34ZM757.99,955.45v-.82c16.89-30.5,26.53-65.55,26.53-102.81,0-18.32-2.33-36.12-6.7-53.09,37.35,36.71,88.15,59.78,144.24,61.05,15.77,28.3,24.78,60.87,24.78,95.51s-9.11,67.58-25.05,96c-69.52-1.79-130.19-39.81-163.79-95.83ZM946.29,873l62.74,36.22-50.12,86.82c2.57-13.2,3.93-26.83,3.93-40.77,0-29.15-5.9-56.95-16.55-82.27ZM952.74,858.26c44.4-5.39,84.63-24.51,116.3-52.98l-52.02,90.09-64.29-37.11ZM1106.27,728.08l-75.39-130.57,70.87-40.91c14.06,27.08,22.02,57.82,22.02,90.39,0,28.9-6.26,56.36-17.49,81.1ZM1022.88,583.66l-76.54-132.56c62.13,6.12,115.87,41.24,147.46,91.61l-70.92,40.95ZM757.99,430.72v-81.77c62.2,2.66,117.02,34.31,151.24,81.77h-151.24ZM741.99,430.72h-152.25c34.41-47.71,89.63-79.45,152.25-81.81v81.81ZM477.11,583.65l-70.91-40.94c31.58-50.37,85.32-85.49,147.45-91.61l-76.53,132.56ZM469.11,597.51l-75.38,130.57c-11.23-24.74-17.49-52.2-17.49-81.1,0-32.56,7.96-63.3,22.02-90.39l70.86,40.91ZM374.84,851.81c0-28.97,6.29-56.49,17.58-81.28l76.7,132.84-71.09,41.04c-14.79-27.62-23.19-59.15-23.19-92.6ZM477.11,917.23l75.33,130.49c-61.34-5.98-114.52-40.22-146.31-89.51l70.97-40.98ZM741.99,1070.16v81.79c-62.41-2.51-117.43-34.2-151.74-81.79h151.74ZM757.99,1070.16h151.74c-34.32,47.58-89.33,79.28-151.74,81.79v-81.79ZM1022.89,917.23l71.19,41.1c-31.61,50.7-85.62,86.06-148.09,92.09l76.9-133.19ZM1030.89,903.37l75.23-130.3c11.33,24.83,17.65,52.41,17.65,81.43,0,32.38-7.86,62.95-21.77,89.92l-71.11-41.05ZM1115.61,548.59l101.69-58.71c5.87,8.31,13.14,15.58,21.45,21.45l-103.49,179.25c2.94-14.08,4.5-28.66,4.5-43.6,0-35.48-8.74-68.94-24.15-98.39ZM1231.24,481.84l36.82-21.26-21.26,36.82c-5.94-4.37-11.19-9.63-15.56-15.56ZM1260.06,446.72l-36.84,21.27c-2.92-6.63-4.89-13.78-5.71-21.27h42.55ZM1217.51,430.72c.82-7.49,2.79-14.63,5.71-21.27l36.84,21.27h-42.55ZM757.99,332.94v-117.44c10.38-.93,20.26-3.66,29.31-7.86l103.14,178.63c-35.59-31.52-81.77-51.32-132.45-53.32ZM757.99,199.42v-42.55l21.27,36.84c-6.64,2.92-13.78,4.89-21.27,5.71ZM771.85,148.87l36.82,21.26c-4.37,5.94-9.63,11.19-15.56,15.56l-21.26-36.82ZM741.99,156.87v42.55c-7.49-.82-14.63-2.79-21.27-5.71l21.27-36.84ZM706.88,185.69c-5.94-4.37-11.19-9.63-15.56-15.56l36.82-21.26-21.26,36.82ZM741.99,215.5v117.41c-50.1,1.74-95.86,20.87-131.4,51.55l102.08-176.82c9.05,4.21,18.93,6.93,29.31,7.86ZM276.78,467.99l-36.84-21.27h42.55c-.82,7.49-2.79,14.63-5.71,21.27ZM239.94,430.72l36.84-21.27c2.92,6.63,4.89,13.78,5.71,21.27h-42.55ZM247.4,519.35l133.42,231.09-131.79,228.27c-9.52-4.43-19.96-7.21-30.94-8v-443.51c10.38-.93,20.26-3.66,29.31-7.86ZM240.98,992.65l-22.89,39.65v-45.52c8.08.7,15.78,2.73,22.89,5.86ZM239.94,1054.16l39.11-22.58c2.91,7.04,4.74,14.64,5.31,22.58h-44.42ZM283.75,1070.16c-1.13,7.58-3.44,14.78-6.73,21.41l-37.08-21.41h43.82ZM741.99,1167.96v116.5c-10.57.89-20.62,3.63-29.83,7.91l-102.1-176.84c35.56,31.09,81.53,50.56,131.92,52.43ZM741.99,1300.52v43.51l-21.78-37.73c6.79-2.99,14.11-4.99,21.78-5.78ZM728.14,1352.03l-37.63-21.73c4.43-6.11,9.78-11.51,15.86-15.98l21.77,37.71ZM757.99,1344.03v-43.38c7.61.89,14.86,2.96,21.57,6.01l-21.57,37.37ZM757.99,1284.54v-116.59c50.39-1.87,96.36-21.34,131.93-52.44l-102.32,177.22c-9.13-4.35-19.11-7.19-29.61-8.19ZM1223.22,1032.89l36.84,21.27h-42.55c.82-7.49,2.79-14.63,5.71-21.27ZM1260.06,1070.16l-36.84,21.27c-2.92-6.64-4.89-13.78-5.71-21.27h42.55ZM1252.6,981.53l-133.42-231.09,133.42-231.09c9.05,4.21,18.93,6.93,29.31,7.86v446.46c-10.39.93-20.26,3.66-29.31,7.86ZM1260.65,505.42l21.27-36.84v42.55c-7.49-.82-14.63-2.79-21.27-5.71ZM1209.29,401.41c-4.21,9.05-6.93,18.93-7.86,29.31h-266.84l-133.43-231.1c8.31-5.87,15.58-13.14,21.45-21.45l386.69,223.24ZM677.14,127.01c0-40.17,32.68-72.85,72.85-72.85s72.85,32.68,72.85,72.85c0,10.41-2.21,20.3-6.16,29.27l-66.7-38.51-66.7,38.51c-3.95-8.96-6.16-18.86-6.16-29.27ZM677.38,178.17c5.87,8.31,13.14,15.58,21.45,21.45l-133.43,231.1h-266.83c-.93-10.38-3.65-20.26-7.86-29.31l386.67-223.24ZM137.23,438.72c0-40.17,32.68-72.85,72.85-72.85,24.05,0,45.4,11.72,58.68,29.74l-66.68,38.5v77.02c-36.42-4-64.85-34.94-64.85-72.41ZM211.71,1132.2c-40.17,0-72.85-32.68-72.85-72.85,0-36.91,27.59-67.47,63.23-72.2v79.63l66.3,38.28c-13.37,16.54-33.8,27.14-56.67,27.14ZM290.91,1099.59c4.61-9.03,7.71-18.95,8.99-29.43h265.5l132.92,230.23c-8.45,5.97-15.82,13.39-21.74,21.87l-385.67-222.67ZM822.34,1372.99c0,40.17-32.68,72.85-72.85,72.85s-72.85-32.68-72.85-72.85c0-10.22,2.12-19.95,5.94-28.79l67.42,38.92,66.62-38.46c3.69,8.71,5.73,18.29,5.73,28.33ZM822.69,1322.68c-5.81-8.42-13.03-15.8-21.32-21.78l133.22-230.74h266.84c.93,10.38,3.66,20.26,7.86,29.31l-386.6,223.21ZM1362.77,1062.16c0,40.17-32.68,72.85-72.85,72.85-24.05,0-45.4-11.72-58.68-29.74l66.68-38.5v-77.02c36.42,4,64.85,34.94,64.85,72.41Z"/></svg>