<?xml version="1.0" encoding="UTF-8"?><svg id="Layer_2" xmlns="http://www.w3.org/2000/svg" xmlns:xlink="http://www.w3.org/1999/xlink" viewBox="0 0 1500 1500"><defs><style>.cls-1{fill:url(#New_Gradient_Swatch_2);stroke-width:0px;}</style><linearGradient id="New_Gradient_Swatch_2" x1="158.58" y1="1091.46" x2="1338.66" y2="410.14" gradientUnits="userSpaceOnUse"><stop offset="0" stop-color="#56450d"/><stop offset=".21" stop-color="#e5c787"/><stop offset=".39" stop-color="#f7d976"/><stop offset=".99" stop-color="#725728"/></linearGradient></defs><path class="cls-1" d="M1230.52,269.47c-62.41-62.41-135.08-111.41-216-145.63-83.17-35.18-171.48-53.13-262.51-53.4l-1.67-2.89-1.66,2.88c-91.27.17-179.81,18.13-263.2,53.4-80.92,34.23-153.6,83.23-216,145.63s-111.41,135.08-145.63,216c-35.44,83.79-53.41,172.78-53.41,264.52s17.97,180.73,53.41,264.52c10.83,25.61,23.14,50.38,36.89,74.27l-1.85,3.2h3.7c29.35,50.37,65.11,96.76,106.89,138.53,62.41,62.41,135.08,111.41,216,145.63,83.79,35.44,172.78,53.41,264.52,53.41s180.73-17.97,264.52-53.41c80.92-34.23,153.6-83.23,216-145.63,41.78-41.78,77.53-88.16,106.88-138.53h4.39l-2.19-3.79c13.61-23.71,25.81-48.29,36.55-73.68,35.44-83.79,53.41-172.78,53.41-264.52s-17.97-180.73-53.41-264.52c-34.23-80.92-83.23-153.6-145.63-216ZM464.14,598.28l132.97,230.32c2.5,4.86,5.22,9.59,8.16,14.17l132.72,231.13c-81.89-3.05-158.43-36.36-216.69-94.61-61.18-61.18-94.87-142.51-94.87-229.03,0-53.87,13.07-105.73,37.7-151.97ZM651.4,890.96c28.05,19.78,62.25,31.42,99.11,31.42s71.85-11.9,100.08-32.11l-100.06,173.31-99.13-172.63ZM622.52,839.75h255.98c-28.32,40.26-75.13,66.63-127.99,66.63s-99.67-26.37-127.99-66.63ZM750.59,602.87l38.9,67.38c-11.71-5.7-24.85-8.9-38.73-8.9s-27.38,3.29-39.22,9.14l39.04-67.62ZM750.77,677.35c40.15,0,72.82,32.67,72.82,72.82s-32.67,72.82-72.82,72.82-72.81-32.67-72.81-72.82,32.66-72.82,72.81-72.82ZM839.35,756.6l38.77,67.15h-77.67c21.93-14.85,36.89-39.24,38.9-67.15ZM662.15,756.06c1.85,28.14,16.86,52.75,38.93,67.7h-78.02l39.08-67.7ZM892.2,816.14l-128.13-221.92c79.9,6.9,142.82,74.13,142.82,155.79,0,23.62-5.28,46.04-14.7,66.14ZM608.9,816.3c-9.47-20.14-14.77-42.61-14.77-66.3,0-81.72,63.01-148.99,143-155.8l-128.23,222.1ZM822.08,593.19h200.03l-100,173.21c.51-5.4.79-10.87.79-16.41,0-69.53-41.38-129.57-100.81-156.81ZM578.13,750c0,5,.23,9.94.65,14.83l-99.1-171.64h199.26c-59.43,27.23-100.81,87.27-100.81,156.81ZM1037.06,599.29c24.28,45.98,37.17,97.48,37.17,150.96,0,86.52-33.69,167.85-94.87,229.03-58.17,58.17-134.57,91.46-216.31,94.6l274.01-474.59ZM476.42,577.19c12.71-20.02,27.71-38.79,44.89-55.97,61.18-61.18,142.51-94.87,229.03-94.87s167.85,33.69,229.03,94.87c17.18,17.18,32.18,35.94,44.89,55.97H476.42ZM510,990.6c40.48,40.48,89.38,69.48,142.74,85.39H186.6l232.61-402.9c-5.78,25.01-8.77,50.86-8.77,77.16,0,90.79,35.36,176.15,99.55,240.34ZM990.68,990.6c64.2-64.2,99.55-149.55,99.55-240.34,0-26.31-2.99-52.15-8.77-77.16l232.61,402.9h-466.14c53.36-15.91,102.26-44.91,142.74-85.39ZM750.34,410.36c-87.19,0-169.36,32.62-232.6,92.07l232.6-402.87,232.6,402.87c-63.24-59.45-145.41-92.07-232.6-92.07ZM138.58,1008.29c-34.6-81.8-52.14-168.7-52.14-258.29s17.54-176.48,52.14-258.29c33.42-79.02,81.27-149.98,142.21-210.92s131.91-108.79,210.92-142.21c78.57-33.23,161.84-50.72,247.68-52.05l-283.29,490.67h-4.14l2.07,3.58-284.02,491.94c-11.59-20.82-22.08-42.31-31.44-64.43ZM1219.21,1219.21c-60.94,60.94-131.91,108.79-210.92,142.21-81.8,34.6-168.7,52.14-258.29,52.14s-176.48-17.54-258.29-52.14c-79.02-33.42-149.98-81.27-210.92-142.21-38.56-38.56-71.87-81.14-99.61-127.22h567.21l2.1,3.66,2.11-3.66h566.21c-27.74,46.08-61.05,88.66-99.61,127.22ZM1361.42,1008.29c-9.27,21.91-19.65,43.19-31.1,63.82L761.3,86.54c85.59,1.41,168.63,18.89,246.99,52.04,79.02,33.42,149.98,81.27,210.92,142.21s108.79,131.91,142.21,210.92c34.6,81.8,52.14,168.7,52.14,258.29s-17.54,176.48-52.14,258.29Z"/></svg>
