<?xml version="1.0" encoding="UTF-8"?><svg id="Layer_2" xmlns="http://www.w3.org/2000/svg" xmlns:xlink="http://www.w3.org/1999/xlink" viewBox="0 0 1500 1500"><defs><style>.cls-1{fill:url(#New_Gradient_Swatch_2);stroke-width:0px;}</style><linearGradient id="New_Gradient_Swatch_2" x1="133.48" y1="1105.95" x2="1366.52" y2="394.05" gradientUnits="userSpaceOnUse"><stop offset="0" stop-color="#56450d"/><stop offset=".21" stop-color="#e5c787"/><stop offset=".39" stop-color="#f7d976"/><stop offset=".99" stop-color="#725728"/></linearGradient></defs><path class="cls-1" d="M1253.27,246.73c-65.36-65.36-141.48-116.68-226.23-152.53-87.75-37.12-180.96-55.93-277.04-55.93s-189.29,18.82-277.04,55.93c-84.75,35.85-160.87,87.17-226.23,152.53-65.36,65.36-116.68,141.48-152.53,226.23-37.12,87.75-55.94,180.96-55.94,277.04s18.82,189.29,55.94,277.04c35.85,84.75,87.17,160.87,152.53,226.23,65.36,65.36,141.48,116.68,226.23,152.53,87.75,37.12,180.96,55.93,277.04,55.93s189.29-18.82,277.04-55.93c84.75-35.85,160.87-87.17,226.23-152.53,65.36-65.36,116.68-141.48,152.53-226.23,37.12-87.75,55.93-180.96,55.93-277.04s-18.82-189.29-55.93-277.04c-35.85-84.75-87.17-160.87-152.53-226.23ZM742,742h-119.66c1.36-44.01,13.8-86.96,36.19-124.69,20.72-34.92,49.41-64.6,83.48-86.53v211.22ZM742,758v211.4c-34.04-21.91-62.71-51.56-83.43-86.45-22.45-37.8-34.9-80.84-36.23-124.95h119.67ZM758,758h119.67c-1.33,44.1-13.79,87.14-36.23,124.95-20.72,34.89-49.39,64.54-83.43,86.45v-211.4ZM758,742v-211.22c34.06,21.92,62.76,51.6,83.48,86.53,22.39,37.73,34.83,80.68,36.19,124.69h-119.66ZM644.76,609.14c-23.85,40.2-37.06,85.97-38.43,132.86h-81.8c1.98-57.26,25.21-110.81,65.93-151.54,35.5-35.5,80.75-57.7,129.71-64.13-30.39,22.14-56.14,50.34-75.41,82.8ZM606.33,758c1.34,46.98,14.57,92.84,38.48,133.12,19.19,32.33,44.82,60.42,75.05,82.5-48.84-6.48-93.97-28.66-129.4-64.08-40.72-40.72-63.94-94.27-65.93-151.54h81.79ZM855.19,891.12c23.91-40.27,37.14-86.14,38.48-133.12h81.79c-1.98,57.26-25.21,110.81-65.93,151.54-35.42,35.42-80.56,57.6-129.4,64.08,30.23-22.08,55.86-50.18,75.05-82.5ZM893.67,742c-1.37-46.88-14.58-92.66-38.43-132.86-19.26-32.47-45.01-60.67-75.41-82.8,48.96,6.43,94.21,28.63,129.71,64.13,40.72,40.72,63.94,94.27,65.93,151.54h-81.8ZM579.15,579.15c-43.75,43.74-68.63,101.31-70.62,162.85h-153.11c39.35-64.43,94.13-118.6,159.16-157.18,40.36-23.94,84.08-41.46,129.55-52.12-23.77,11.61-45.72,27.2-64.97,46.46ZM508.53,758c1.99,61.54,26.88,119.11,70.62,162.85,19.26,19.26,41.2,34.85,64.97,46.45-45.47-10.66-89.19-28.18-129.55-52.12-65.03-38.58-119.81-92.75-159.16-157.18h153.11ZM920.85,920.85c43.74-43.74,68.63-101.31,70.62-162.85h152.95c-39.32,64.39-94.06,118.52-159.03,157.1-40.31,23.93-83.97,41.45-129.38,52.14,23.72-11.6,45.62-27.17,64.83-46.39ZM991.47,742c-1.99-61.54-26.88-119.11-70.62-162.85-19.22-19.22-41.12-34.79-64.84-46.39,45.41,10.68,89.08,28.2,129.39,52.14,64.97,38.58,119.71,92.72,159.03,157.1h-152.95ZM742,504.52c-83.11,1.37-164.4,24.31-235.59,66.54-60.75,36.05-112.86,85.24-152.37,143.53,3.61-41.17,13.55-81.17,29.69-119.31,20.02-47.33,48.68-89.85,85.19-126.36,36.51-36.51,79.02-65.17,126.35-85.19,46.56-19.69,95.88-30.16,146.72-31.15v151.94ZM506.41,928.94c71.18,42.23,152.47,65.17,235.59,66.54v151.94c-50.84-.99-100.16-11.46-146.72-31.15-47.33-20.02-89.85-48.68-126.35-85.19s-65.17-79.02-85.19-126.35c-16.13-38.15-26.08-78.15-29.69-119.31,39.51,58.29,91.62,107.49,152.37,143.53ZM758,995.48c83.11-1.4,164.4-24.36,235.57-66.62,60.79-36.1,112.91-85.35,152.42-143.72-3.59,41.26-13.54,81.35-29.71,119.58-20.02,47.33-48.68,89.85-85.19,126.35s-79.02,65.17-126.36,85.19c-46.56,19.69-95.88,30.16-146.72,31.15v-151.94ZM993.57,571.14c-71.17-42.26-152.45-65.22-235.57-66.62v-151.94c50.84.99,100.16,11.45,146.72,31.15,47.33,20.02,89.85,48.68,126.36,85.19,36.51,36.51,65.17,79.02,85.19,126.36,16.17,38.23,26.12,78.32,29.71,119.58-39.5-58.36-91.63-107.62-152.42-143.72ZM742,336.58c-52.99,1-104.41,11.88-152.96,32.42-49.24,20.83-93.46,50.64-131.44,88.61-37.97,37.97-67.79,82.19-88.61,131.44-2.21,5.22-4.3,10.48-6.29,15.77,4.3-23.47,9.64-46.72,16.03-69.68,18.77-67.49,46.46-132.33,82.3-192.73,68.56-115.55,165.53-212.43,280.97-280.91v275.08ZM368.99,910.96c20.83,49.24,50.64,93.46,88.61,131.43,37.97,37.97,82.19,67.79,131.44,88.61,48.54,20.53,99.96,31.42,152.96,32.42v275.08c-115.36-68.44-212.28-165.22-280.83-280.68-35.88-60.43-63.6-125.3-82.4-192.83-6.4-23-11.76-46.3-16.06-69.81,1.99,5.29,4.08,10.55,6.29,15.77ZM758,1163.42c52.99-1,104.41-11.88,152.96-32.42,49.24-20.83,93.46-50.64,131.44-88.61s67.79-82.19,88.61-131.43c2.21-5.22,4.3-10.48,6.29-15.77-4.31,23.51-9.66,46.81-16.06,69.81-18.8,67.52-46.52,132.4-82.4,192.83-68.55,115.46-165.47,212.24-280.83,280.68v-275.08ZM1131.01,589.04c-20.83-49.24-50.64-93.46-88.61-131.44-37.97-37.97-82.19-67.79-131.44-88.61-48.54-20.53-99.96-31.42-152.96-32.42V61.49c115.44,68.48,212.41,165.36,280.97,280.91,35.84,60.4,63.53,125.24,82.3,192.73,6.39,22.96,11.73,46.21,16.03,69.68-1.99-5.29-4.08-10.55-6.29-15.77ZM258.04,1241.96c-63.9-63.9-114.06-138.3-149.1-221.15-36.28-85.77-54.67-176.88-54.67-270.81s18.39-185.04,54.67-270.81c35.04-82.85,85.21-157.25,149.1-221.15,63.9-63.9,138.3-114.06,221.15-149.1,77.25-32.67,158.83-50.83,242.9-54.12-112.58,69.37-207.23,165.5-274.82,279.42-36.56,61.61-64.8,127.76-83.95,196.61-19.54,70.24-29.54,143.15-29.76,216.74v.02s-.01,4.79-.01,4.79v.02c.22,73.64,10.24,146.59,29.81,216.88,19.17,68.88,47.45,135.07,84.05,196.71,67.58,113.82,162.19,209.86,274.69,279.19-84.07-3.29-165.66-21.45-242.91-54.12-82.85-35.04-157.25-85.21-221.15-149.1ZM1391.06,1020.81c-35.04,82.85-85.21,157.25-149.1,221.15s-138.3,114.06-221.15,149.1c-77.25,32.67-158.84,50.83-242.91,54.12,112.5-69.32,207.1-165.36,274.69-279.19,36.6-61.64,64.88-127.82,84.05-196.71,19.59-70.37,29.61-143.42,29.8-217.15l1.22-2.14-1.22-2.14c-.19-73.68-10.2-146.69-29.76-217.02-19.15-68.84-47.4-134.99-83.95-196.61-67.59-113.92-162.24-210.05-274.82-279.42,84.07,3.29,165.65,21.45,242.9,54.12,82.85,35.04,157.25,85.21,221.15,149.1,63.9,63.9,114.06,138.3,149.1,221.15,36.28,85.77,54.67,176.88,54.67,270.81s-18.39,185.04-54.67,270.81Z"/></svg>