<?xml version="1.0" encoding="UTF-8"?><svg id="Layer_2" xmlns="http://www.w3.org/2000/svg" xmlns:xlink="http://www.w3.org/1999/xlink" viewBox="0 0 1500 1500"><defs><style>.cls-1{fill:url(#New_Gradient_Swatch_2);stroke-width:0px;}</style><linearGradient id="New_Gradient_Swatch_2" x1="119.78" y1="1113.86" x2="1380.22" y2="386.14" gradientUnits="userSpaceOnUse"><stop offset="0" stop-color="#56450d"/><stop offset=".21" stop-color="#e5c787"/><stop offset=".39" stop-color="#f7d976"/><stop offset=".99" stop-color="#725728"/></linearGradient></defs><path class="cls-1" d="M119.78,1113.85l267.25,154.31,95.71-55.26v110.5l267.26,154.3,267.25-154.3v-110.5l95.71,55.26,267.26-154.31v-308.59l-95.71-55.26,95.71-55.26v-308.6l-267.26-154.31-95.71,55.26v-110.5L750,22.3l-267.26,154.3v110.5l-95.71-55.26L119.78,386.15v308.6l95.71,55.26-95.71,55.26v308.59ZM371.02,959.55l-235.24,135.83v-271.64l235.24,135.81ZM490.74,489.81l147.57,85.2v101.24l-85.92-49.61-.02.04-149.34-86.23,87.71-50.64ZM742,344.75v271.66l-87.7-50.63v-170.4l87.7-50.63ZM1128.97,540.45l235.25-135.83v271.65l-235.25-135.82ZM1009.26,1010.19l-147.58-85.2v-101.23l85.9,49.6.02-.04,149.37,86.24-87.71,50.64ZM758,1155.25v-271.65l87.68,50.62v170.4l-87.68,50.62ZM379.03,1245.07l-235.25-135.83,235.25-135.83v271.67ZM742,763.88v101.25l-87.7,50.63v-101.25l87.7-50.63ZM758,763.89l87.68,50.63v101.23l-87.68-50.62v-101.24ZM766.03,750l87.68-50.62,87.69,50.63-87.68,50.62-87.69-50.63ZM758,736.11v-101.23l87.68-50.63v101.23l-87.68,50.63ZM742,736.12l-87.7-50.63v-101.24l87.7,50.63v101.24ZM733.94,750l-87.68,50.63-87.68-50.62,87.69-50.63,87.67,50.62ZM552.36,873.32l.02.04,85.92-49.61v101.25l-147.57,85.2-87.71-50.64,149.34-86.23ZM630.3,1109.24l-131.56,75.96v-151.91l131.56,75.95ZM506.73,1019.43l131.57-75.96v151.92l-131.57-75.96ZM654.3,934.23l87.7-50.63v271.65l-87.7-50.63v-170.39ZM742,1454.61l-235.27-135.82,235.27-135.82v271.65ZM758,1182.96l235.26,135.82-235.26,135.83v-271.65ZM861.68,1095.39v-151.93l131.58,75.97-131.58,75.96ZM1001.25,1033.29v151.91l-131.56-75.95,131.56-75.95ZM1120.96,973.4l235.26,135.83-235.26,135.83v-271.67ZM1128.98,959.55l235.25-135.81v271.64l-235.25-135.82ZM869.72,809.87l87.68-50.62,147.56,85.19v101.25l-235.24-135.82ZM973.4,750.01l131.56-75.95v151.91l-131.56-75.95ZM1120.96,674.05l131.55,75.95-131.55,75.95v-151.91ZM1104.96,655.58l-147.56,85.19-87.69-50.63,235.25-135.83v101.26ZM1120.96,526.6V254.93l235.26,135.83-235.26,135.83ZM947.61,626.69l-.02-.04-85.9,49.6v-101.23l147.57-85.21,87.71,50.64-149.36,86.24ZM869.69,390.76l131.56-75.96v151.91l-131.56-75.95ZM993.26,480.57l-131.57,75.97v-151.93l131.57,75.96ZM845.68,565.78l-87.68,50.63v-271.66l87.68,50.62v170.4ZM758,45.39l235.25,135.82-235.25,135.82V45.39ZM742,317.04l-235.26-135.82,235.26-135.82v271.65ZM638.3,404.62v151.92l-131.57-75.96,131.57-75.96ZM498.74,466.72v-151.92l131.56,75.96-131.56,75.96ZM379.03,526.6l-235.25-135.83,235.25-135.83v271.67ZM371.03,540.45l-235.25,135.82v-271.65l235.25,135.83ZM630.28,690.14l-87.69,50.63-147.56-85.19v-101.26l235.25,135.83ZM526.59,750.01l-131.56,75.95v-151.91l131.56,75.95ZM379.03,825.96l-131.55-75.95,131.55-75.95v151.91ZM395.03,844.43l147.56-85.19,87.68,50.62-235.24,135.82v-101.25ZM395.03,1245.07v-271.66l87.71,50.63v170.39l-87.71,50.64ZM646.3,1118.48l87.7,50.63-235.26,135.82v-101.26l147.56-85.19ZM1001.25,1304.92l-235.25-135.82,87.7-50.63,147.56,85.19v101.25ZM1017.25,1024.05l87.71-50.63v271.65l-87.71-50.64v-170.38ZM1356.22,809.89l-235.26,135.82v-101.27l147.55-85.19,87.71,50.64ZM1120.96,655.58v-101.28l235.26,135.83-87.71,50.64-147.55-85.19ZM1104.96,254.93v271.66l-87.71-50.64v-170.39l87.71-50.64ZM853.69,381.52l-87.69-50.63,235.26-135.82v101.26l-147.56,85.19ZM498.74,195.07l235.26,135.82-87.7,50.63-147.56-85.2v-101.26ZM482.74,475.96l-87.71,50.64V254.93l87.71,50.64v170.39ZM143.78,690.13l235.25-135.82v101.27l-147.54,85.19-87.71-50.64ZM379.03,844.43v101.27l-235.25-135.82,87.71-50.64,147.54,85.19Z"/></svg>
